<svg xmlns="http://www.w3.org/2000/svg" viewBox="0 0 35.36 38.08"><defs><style>.cls-1{fill:#f68c6b}</style></defs><title>Asset 6</title><g id="Layer_2" data-name="Layer 2"><g id="Layer_1-2" data-name="Layer 1"><g id="_Group_" data-name="&amp;lt;Group&amp;gt;"><path id="_Path_" data-name="&amp;lt;Path&amp;gt;" class="cls-1" d="M14.24 9.53L6 5.59C4.32 4.79 2.65 4 .94 3.24-.41 2.67.08 1.57.11.67S1.08.1 1.61.1h17.98c1.07 0 2.58.89 2.63 1.54s-1.6 1.76-2.6 1.76H9.85l-.09.26a36.47 36.47 0 0 1 4.29 2.08 6.49 6.49 0 0 0 7.84-.08 66 66 0 0 1 6.7-3.31c.88-.44 1.08-.29 1.19.72a2.92 2.92 0 0 1-2.12 3.5c-1.93.74-3.75 1.76-5.85 2.77l6.31 3a3.05 3.05 0 0 1 1.6 3.86c-.28.81-.74.24-1.06.09-2.59-1.21-5.16-2.45-7.74-3.7-1.45-.7-1.45-.71-1.45.87 0 5.36-.06 10.72 0 16.07 0 1.5-.69 1.42-1.72 1.43s-1.7-.07-1.67-1.49c.1-5.22 0-10.44 0-15.66 0-1.52 0-1.51-1.42-.83-2.54 1.22-5.09 2.41-7.61 3.65-.73.36-1.11.32-1-.61a.9.9 0 0 0 0-.27c-.35-1.75.39-2.72 2-3.36 2.09-.78 3.95-1.8 6.19-2.86z"/><path id="_Path_2" data-name="&amp;lt;Path&amp;gt;" class="cls-1" d="M.07 18.39V8.17c0-1 0-1.33 1.23-.9 1.7.62 2.18 1.53 2.13 3.31-.13 5.35 0 10.71-.06 16.07a1.54 1.54 0 0 0 1 1.66c4.16 1.93 8.29 3.91 12.41 5.9a2.23 2.23 0 0 0 2.17 0c3.14-1.54 6.33-3 9.45-4.53a2.37 2.37 0 0 1 2.42.22c.79.41.27 2.2-.81 2.72-2.62 1.26-5.25 2.49-7.87 3.73-.86.41-1.76.75-2.58 1.23a3.22 3.22 0 0 1-3.41 0c-4.88-2.4-9.82-4.71-14.75-7A2 2 0 0 1 0 28.47c.13-3.35.07-6.72.07-10.08z"/><path id="_Path_3" data-name="&amp;lt;Path&amp;gt;" class="cls-1" d="M35.32 17.66v9.54c0 1.07-.08 1.45-1.32 1a2.86 2.86 0 0 1-2-3.28c.13-5.58.11-11.17 0-16.76 0-1.51.74-1.42 1.76-1.44s1.68 0 1.63 1.4c-.15 3.17-.07 6.36-.07 9.54z"/></g></g></g></svg>