<svg xmlns="http://www.w3.org/2000/svg" viewBox="0 0 25.61 45.8"><defs><style>.cls-1{fill:#f68c6b}</style></defs><title>Asset 5</title><g id="Layer_2" data-name="Layer 2"><g id="Layer_1-2" data-name="Layer 1"><g id="_Group_" data-name="&amp;lt;Group&amp;gt;"><path id="_Path_" data-name="&amp;lt;Path&amp;gt;" class="cls-1" d="M7.8 28.33c-.87-2.78.6-4.68 3.64-6a15.35 15.35 0 0 0 6.24-5.19 7.9 7.9 0 0 0 1-8.25c-1.29-2.85-4-3.56-6.82-3.73a18.84 18.84 0 0 0-10.4 2.65C.18 8.52 0 8.13 0 6.89c0-5.13-.06-5.1 5-6.15A26.73 26.73 0 0 1 15.8.41c11.33 2.3 11.53 13.28 7.2 19-2.33 3.06-5.5 5-8.7 7a1.91 1.91 0 0 0-1.11 2c.07 1.42 0 2.85 0 4.28 0 .38.16 1-.45 1-1.48.06-3 0-4.46 0-.62 0-.49-.58-.49-1 0-1.29.01-2.54.01-4.36z"/><path id="_Path_2" data-name="&amp;lt;Path&amp;gt;" class="cls-1" d="M7.49 42.46c0-3.09 0-3.09 3-3.09s3.11 0 3.11 3.17 0 3.26-3.19 3.26c-2.92-.01-2.92-.01-2.92-3.34z"/></g></g></g></svg>