<svg xmlns="http://www.w3.org/2000/svg" viewBox="0 0 48.86 69.98"><defs><style>.cls-1{fill:#e6e750}</style></defs><title>Asset 8</title><g id="Layer_2" data-name="Layer 2"><g id="Layer_1-2" data-name="Layer 1"><path id="_Compound_Path_" data-name="&amp;lt;Compound Path&amp;gt;" class="cls-1" d="M44.11 34.06q-4.75-4.23-16.14-7V15.17a5.8 5.8 0 0 1 4.47 1.89 8.68 8.68 0 0 1 1.75 5.28H48q-.32-8.08-5.48-12.59T28.13 5V0h-6.3v5.08q-9.66.2-15.35 4.83A15 15 0 0 0 .79 22.1 13.74 13.74 0 0 0 5.56 33q4.76 4.16 15.44 6.52v13a5.92 5.92 0 0 1-4.73-2.09q-1.54-2-1.77-6.46H0q.08 8.86 5.62 13.89t15.66 5.42V70h6v-6.64q10.8-.63 16.18-5.06t5.38-12.79q.02-7.21-4.73-11.45zm-21.89-8.33a15.73 15.73 0 0 1-5.58-2.23 3.92 3.92 0 0 1-1.59-3.25 4.63 4.63 0 0 1 1.71-3.94A8.45 8.45 0 0 1 21.91 15h.31zm10.43 25.45a10.12 10.12 0 0 1-5.73 1.34V41a17.5 17.5 0 0 1 6 2.58 4.94 4.94 0 0 1-.3 7.62z"/></g></g></svg>