<svg xmlns="http://www.w3.org/2000/svg" viewBox="0 0 63.85 64.58"><defs><style>.cls-1{fill:#fff}</style></defs><title>Asset 4</title><g id="Layer_2" data-name="Layer 2"><g id="Layer_1-2" data-name="Layer 1"><g id="_Group_" data-name="&amp;lt;Group&amp;gt;"><path id="_Path_" data-name="&amp;lt;Path&amp;gt;" class="cls-1" d="M12.88 16.72h-.28L1.73 21.23A3 3 0 0 0 0 23.82v38.52a1.87 1.87 0 0 0 1.87 1.87h10.95a3.5 3.5 0 0 1-.27-1.36V18.73a8.09 8.09 0 0 1 .33-2.01z"/><path id="_Path_2" data-name="&amp;lt;Path&amp;gt;" class="cls-1" d="M15.14 64.21a1.9 1.9 0 0 0 1.14.37l39.83-.21a2.16 2.16 0 0 0 2.11-1.82l5.61-43.91a1.66 1.66 0 0 0-1.63-1.92h-32c-1 0-1.41-.63-.85-1.5l5.29-8a1.87 1.87 0 0 0-.55-2.59L27.58.31A1.88 1.88 0 0 0 25 .84l-9.52 14.44a6.43 6.43 0 0 0-.66 1.44 6.75 6.75 0 0 0-.37 2v44.09a1.75 1.75 0 0 0 .69 1.4z"/></g></g></g></svg>