<svg xmlns="http://www.w3.org/2000/svg" viewBox="0 0 72.86 78.68"><defs><style>.cls-1{fill:#f68c6b}</style></defs><title>Asset 7</title><g id="Layer_2" data-name="Layer 2"><g id="Layer_1-2" data-name="Layer 1"><g id="_Group_" data-name="&amp;lt;Group&amp;gt;"><path id="_Path_" data-name="&amp;lt;Path&amp;gt;" class="cls-1" d="M67.8 65.92h5.06V19.95H50.74v27.76H24.29v18.21h31.66v12.76L67.8 65.92z"/><path id="_Compound_Path_" data-name="&amp;lt;Compound Path&amp;gt;" class="cls-1" d="M0 45.54h5l11.89 13v-13h31.68V0H0zM40.37 19a5.37 5.37 0 0 1 2.67 1 4.41 4.41 0 0 1 1.45 3.18 4.11 4.11 0 1 1-8.23 0A4.37 4.37 0 0 1 37.7 20a5.36 5.36 0 0 1 2.67-1zm-10.76 0a5.38 5.38 0 0 1 2.67 1 4.4 4.4 0 0 1 1.44 3.18 4.11 4.11 0 1 1-8.23 0A4.37 4.37 0 0 1 26.94 20a5.34 5.34 0 0 1 2.67-1zm-10.77.1a4.11 4.11 0 1 1-4.11 4.11 4.11 4.11 0 0 1 4.11-4.14zm-10.77 0A4.11 4.11 0 1 1 4 23.18a4.11 4.11 0 0 1 4.07-4.11z"/></g></g></g></svg>