<svg xmlns="http://www.w3.org/2000/svg" viewBox="0 0 66.76 66.98"><defs><style>.cls-1{fill:#e6e750}</style></defs><title>Asset 9</title><g id="Layer_2" data-name="Layer 2"><g id="Layer_1-2" data-name="Layer 1"><g id="_Group_" data-name="&amp;lt;Group&amp;gt;"><path id="_Compound_Path_" data-name="&amp;lt;Compound Path&amp;gt;" class="cls-1" d="M.51 65.49c1.77-5.84 8-7.6 15.45-7.6s13.68 1.77 15.45 7.6c.6 2 .5 2 .5 0V14.63c0-2.07 0-5.46-.63-7.41C29.36 1.58 23.23 0 16 0S2.56 1.58.64 7.17C0 9.12 0 12.52 0 14.58v50.86c0 2.07-.09 2.03.51.05zM5 11.15c2.69-1.34 6.28-2 11-2s8.29.65 11 2a.94.94 0 0 1-.83 1.67A13.53 13.53 0 0 0 24 12a28.1 28.1 0 0 0-8-1 28.17 28.17 0 0 0-8 1 13.54 13.54 0 0 0-2.15.84.94.94 0 1 1-.85-1.69zm0 9.07c2.69-1.34 6.28-2 11-2s8.29.65 11 2a.94.94 0 0 1-.48 1.78.94.94 0 0 1-.42-.1 13.53 13.53 0 0 0-2.1-.84 28.12 28.12 0 0 0-8-1 28.13 28.13 0 0 0-8 1 13.62 13.62 0 0 0-2.15.84.94.94 0 0 1-.85-1.68zm0 9.07c2.69-1.34 6.28-2 11-2s8.29.65 11 2a.93.93 0 0 1-.9 1.71 13.57 13.57 0 0 0-2.1-.87 28.09 28.09 0 0 0-8-1 28.09 28.09 0 0 0-8 1 13.7 13.7 0 0 0-2.18.87.94.94 0 0 1-.82-1.71z"/><path id="_Compound_Path_2" data-name="&amp;lt;Compound Path&amp;gt;" class="cls-1" d="M66.25 65.49c.6 2 .5 2 .5 0V14.63c0-2.07 0-5.46-.63-7.41C64.2 1.58 58.07 0 50.8 0S37.4 1.58 35.48 7.17c-.67 2-.63 5.35-.63 7.41v50.86c0 2.07-.09 2 .51 0 1.77-5.84 8-7.6 15.45-7.6s13.67 1.81 15.44 7.65zM62.2 30.55a.94.94 0 0 1-1.25.42 13.76 13.76 0 0 0-2.15-.84 28.09 28.09 0 0 0-8-1 28.1 28.1 0 0 0-8 1 13.69 13.69 0 0 0-2.15.84.94.94 0 0 1-.83-1.67c2.69-1.34 6.28-2 11-2s8.29.65 11 2a.93.93 0 0 1 .38 1.25zm0-9.07a.93.93 0 0 1-1.25.42 13.62 13.62 0 0 0-2.15-.84 28.1 28.1 0 0 0-8-1 28.1 28.1 0 0 0-8 1 13.51 13.51 0 0 0-2.15.84.93.93 0 0 1-.83-1.67c2.69-1.34 6.28-2 11-2s8.29.65 11 2a.93.93 0 0 1 .38 1.25zm0-9.07a.94.94 0 0 1-.84.52.92.92 0 0 1-.41-.1 13.56 13.56 0 0 0-2.16-.83 28.1 28.1 0 0 0-8-1 28.15 28.15 0 0 0-8 1 13.57 13.57 0 0 0-2.15.84.94.94 0 0 1-.83-1.67c2.69-1.34 6.28-2 11-2s8.29.65 11 2a.93.93 0 0 1 .39 1.23z"/></g></g></g></svg>