<svg xmlns="http://www.w3.org/2000/svg" viewBox="0 0 82.09 65.88"><defs><style>.cls-1{fill:#fff}</style></defs><title>Asset 5</title><g id="Layer_2" data-name="Layer 2"><g id="Layer_1-2" data-name="Layer 1"><g id="_Group_" data-name="&amp;lt;Group&amp;gt;"><path id="_Path_" data-name="&amp;lt;Path&amp;gt;" class="cls-1" d="M41.36 31.75a12.62 12.62 0 0 1 12.36-9.85A12.71 12.71 0 0 1 64.59 28a12.8 12.8 0 0 1 5.32-2 30.57 30.57 0 0 0-.27-11.17A19 19 0 0 0 33 13.29 19 19 0 0 0 .45 30.18s4.17 25.23 44.18 35.7A98.16 98.16 0 0 0 52.15 59C38.24 45.2 41.06 32.9 41.36 31.75z"/><path id="_Path_2" data-name="&amp;lt;Path&amp;gt;" class="cls-1" d="M73.88 28.36a10.35 10.35 0 0 0-4.33-.07 10.6 10.6 0 0 0-5.74 3.2 10.53 10.53 0 0 0-20.34.78S40.13 44 53.65 57.43c1.07 1.07 2.25 2.15 3.55 3.23C79.44 55 81.82 41 81.82 41a10.54 10.54 0 0 0-7.94-12.64z"/></g></g></g></svg>