<svg width="68" height="64" viewBox="0 0 68 64" xmlns="http://www.w3.org/2000/svg"><title>Speed</title><g fill="none" fill-rule="evenodd"><path d="M58.465 61.095a.8.8 0 0 1-.681.903l-6.053.851a.8.8 0 0 1-.903-.68l-1.652-11.752a.8.8 0 0 1 .68-.904l6.054-.85a.8.8 0 0 1 .903.68l1.652 11.752" fill="#5D6F7A"/><path d="M57.784 61.998l-3.006.423-.102-.726.905-.127a.267.267 0 0 0-.075-.529l-.905.128-1.698-12.082 3.007-.422a.8.8 0 0 1 .903.68l1.652 11.752a.8.8 0 0 1-.681.903" fill="#4C5F6A"/><path fill="#F3F8F3" d="M51.359 60.747l6.14-.863-1.401-9.968-6.14.863z"/><path d="M54.676 61.695l-.905.127a.267.267 0 0 1-.075-.528l.905-.127.075.528" fill="#4B5C67"/><path d="M55.58 61.568l-.904.127-.075-.528.905-.128a.267.267 0 1 1 .075.529" fill="#3E4E59"/><path d="M55.26 54.048l-.012-.086c-.053-.375-.367-.64-.7-.593l-.623.087c.285-.218.447-.606.389-1.021-.082-.586-.573-1.002-1.095-.928-.522.073-.88.608-.797 1.194.058.415.322.743.656.874l-.574.08c-.334.048-.563.39-.51.765l.012.085 3.254-.457" fill="#00ACC6"/><path fill="#A7BCBD" d="M51.487 56.343l4.778-.672-.096-.683-4.778.672zM51.65 57.5l4.778-.671-.096-.683-4.778.671z"/><path d="M55.348 58.849a.3.3 0 0 1-.255.338l-1.51.213a.3.3 0 0 1-.34-.256l-.067-.478a.3.3 0 0 1 .256-.34l1.51-.211a.3.3 0 0 1 .339.255l.067.479" fill="#E5755D"/><g><path d="M58.643 35.82a3.15 3.15 0 0 1-6.085-1.63l1.299-4.849a3.15 3.15 0 0 1 6.085 1.63l-1.299 4.849" fill="#C7DDD8"/><path d="M54.785 38.047a3.15 3.15 0 0 1-2.227-3.858l1.299-4.848a3.15 3.15 0 0 1 3.858-2.227l-2.93 10.933" fill="#BAD4D0"/><path d="M57.563 29.661a.513.513 0 1 0-.99-.265.513.513 0 0 0 .99.265" fill="#5D6F7A"/></g><g><path d="M12.487 48.957a3.925 3.925 0 1 0-5.55-5.55 3.925 3.925 0 0 0 5.55 5.55" fill="#5D6F7A"/><path d="M11.935 48.404a3.144 3.144 0 1 0-4.446-4.445 3.144 3.144 0 0 0 4.446 4.445" fill="#7DB8B9"/><path fill="#5D6F7A" d="M5.97 50.498l-.575-.574 1.613-1.613.574.574-1.613 1.613"/><path d="M1.542 55.61a.738.738 0 0 1-1.044 0l-.215-.214a.738.738 0 0 1 0-1.044l4.604-4.604a.738.738 0 0 1 1.044 0l.215.215a.738.738 0 0 1 0 1.043L1.542 55.61" fill="#2D404A"/><path d="M10.032 45.458a.864.864 0 1 0-1.222-1.222.864.864 0 0 0 1.222 1.222M11.753 45.624a.643.643 0 1 0-.91-.91.643.643 0 0 0 .91.91" fill="#F3F8F3"/></g><g><path fill="#F3F8F3" d="M21 61.633h22.073V49H21z"/><path d="M43.073 50.424v13.058a1.41 1.41 0 0 0 1.41-1.41V50.424h-1.41" fill="#C7DDD8"/><path d="M44.482 50.41a1.41 1.41 0 1 0-2.818 0 1.41 1.41 0 0 0 2.818 0" fill="#F3F8F3"/><path fill="#E5755D" d="M24.053 53.637h5.634v-2.483h-5.634zM34.491 53.637h5.634v-2.483h-5.634z"/><path fill="#5D6F7A" d="M24.053 58.724h5.634v-2.483h-5.634z"/><path fill="#C7DDD9" d="M34.491 58.724h5.634v-2.483h-5.634zM26.604 55.778h.533v-1.387h-.533zM31.343 52.662h1.387v-.533h-1.387zM31.343 57.75h1.387v-.534h-1.387zM37.041 55.778h.534v-1.387h-.534z"/></g><g><path d="M67.992 9.312a9.136 9.136 0 1 0-18.273 0 9.136 9.136 0 0 0 18.273 0" fill="#5D6F7A"/><path d="M66.62 9.312a7.765 7.765 0 1 0-15.528 0 7.765 7.765 0 0 0 15.529 0" fill="#EDF7F4"/><path d="M59.219 3.032a.363.363 0 1 0-.725 0 .363.363 0 0 0 .725 0" fill="#00ACC6"/><path d="M63.553 5.128a.363.363 0 1 0-.512-.514.363.363 0 0 0 .512.514" fill="#5D6F7A"/><path d="M65.136 9.674a.363.363 0 1 0 0-.725.363.363 0 0 0 0 .725" fill="#00ACC6"/><path d="M63.04 14.009a.363.363 0 1 0 .513-.514.363.363 0 0 0-.513.514" fill="#5D6F7A"/><path d="M58.493 15.592a.363.363 0 1 0 .727 0 .363.363 0 0 0-.726 0" fill="#00ACC6"/><path d="M54.16 13.496a.363.363 0 1 0 .513.513.363.363 0 0 0-.514-.513" fill="#5D6F7A"/><path d="M52.576 8.949a.363.363 0 1 0 0 .726.363.363 0 0 0 0-.726" fill="#00ACC6"/><path d="M54.672 4.614a.363.363 0 1 0-.513.515.363.363 0 0 0 .513-.514M55.522 6.366l3.14 3.14a.275.275 0 0 0 .389-.389l-3.14-3.14a.275.275 0 1 0-.39.39" fill="#5D6F7A"/><path d="M59.131 12.042v-2.73a.275.275 0 1 0-.55 0v2.73a.275.275 0 1 0 .55 0" fill="#5D6F7A"/><path d="M59.219 9.312a.363.363 0 1 0-.725 0 .363.363 0 0 0 .725 0" fill="#5D6F7A"/></g><g><path d="M47.99 39.779a3.371 3.371 0 0 1-3.372 3.37H20.371A3.371 3.371 0 0 1 17 39.78V25.37A3.37 3.37 0 0 1 20.371 22h24.247a3.371 3.371 0 0 1 3.371 3.37V39.78" fill="#C7DDD8"/><path d="M17 39.779V25.37A3.37 3.37 0 0 1 20.371 22h24.247a3.371 3.371 0 0 1 3.371 3.37L17 39.78" fill="#BAD4D0"/><path fill="#C0CAC4" d="M27 23.053h11.574V22H27z"/><path d="M49.41 21.945a.945.945 0 0 1-.946.946H16.945a.945.945 0 0 1 0-1.891h31.519c.522 0 .945.423.945.945M37.236 41.152a.787.787 0 0 1-.787.787h-5.662a.787.787 0 0 1-.787-.787v-3.365c0-.435.352-.787.787-.787h5.662c.435 0 .787.352.787.787v3.365M24 35.642h17.546V34H24zM43 35.642h2.073V34H43z" fill="#ECF5EB"/><path fill="#ECF5EB" d="M21 35.642h3.068V34H21zM21 33.642h1.642V32H21zM23 33.642h1.642V32H23zM25 33.642h1.642V32H25zM27 33.642h1.642V32H27zM30 33.642h1.642V32H30zM32 33.642h1.642V32H32zM34 33.642h1.642V32H34zM36 33.642h1.642V32H36zM39 33.642h1.642V32H39zM41 33.642h1.642V32H41zM43 33.642h1.642V32H43zM21 31.642h1.642V30H21zM23 31.642h1.642V30H23zM25 31.642h1.642V30H25zM27 31.642h1.642V30H27zM30 31.642h1.642V30H30zM32 31.642h1.642V30H32zM34 31.642h1.642V30H34zM36 31.642h1.642V30H36zM39 31.642h1.642V30H39zM41 31.642h1.642V30H41zM43 31.642h1.642V30H43zM21 28.642h1.642V27H21zM23 28.642h1.642V27H23zM25 28.642h1.642V27H25zM27 28.642h1.642V27H27zM30 28.642h1.642V27H30zM32 28.642h1.642V27H32zM34 28.642h1.642V27H34zM36 28.642h1.642V27H36zM39 28.642h1.642V27H39zM41 28.642h1.642V27H41zM43 28.642h1.642V27H43zM21 26.642h1.642V25H21zM23 26.642h1.642V25H23zM25 26.642h1.642V25H25zM27 26.642h1.642V25H27zM30 26.642h1.642V25H30zM32 26.642h1.642V25H32zM34 26.642h1.642V25H34zM36 26.642h1.642V25H36zM39 26.642h1.642V25H39zM41 26.642h1.642V25H41zM43 26.642h1.642V25H43z"/></g></g></svg>