<svg width="68" height="59" viewBox="0 0 68 59" xmlns="http://www.w3.org/2000/svg" xmlns:xlink="http://www.w3.org/1999/xlink"><title>Group</title><defs><path id="a" d="M6.758 9.632V.142H.113v9.49h6.645z"/></defs><g fill="none" fill-rule="evenodd"><path fill="#FEFEFE" d="M9.742 27L0 45.049l25.526 13.778 9.742-18.049z"/><path fill="#4D8DB3" d="M21.71 36.394l-.842 1.559 1.42.763.84-1.559z"/><path fill="#609CC0" d="M20.126 37.864l-.841 1.56 2.03 1.094.84-1.559z"/><path fill="#73ABCC" d="M17.732 38.898l-.842 1.559 3.452 1.864.84-1.559z"/><path fill="#87BBDA" d="M17.237 40.96l-.841 1.558 2.973 1.605.84-1.56z"/><path fill="#9BCAE5" d="M17.749 43.564l-.842 1.558 1.489.803.84-1.558z"/><path fill="#C2AFFF" d="M16.237 45.015l-.842 1.559 2.05 1.106.841-1.559z"/><path fill="#B49AFA" d="M14.34 46.319l-.841 1.558 2.973 1.605.841-1.558z"/><path fill="#AB9BE5" d="M11.404 47.059l-.842 1.56 4.937 2.666.841-1.559z"/><path fill="#CBCCCB" d="M25.561 37.677l-3.65 6.762.449.243 3.65-6.763zM26.347 38.101l-3.65 6.763.45.242 3.65-6.762zM27.134 38.526l-3.65 6.762.449.243 3.65-6.763zM27.92 38.95l-3.65 6.763.448.242 3.651-6.762zM28.706 39.374l-3.65 6.763.45.242 3.65-6.762zM29.492 39.799l-3.65 6.763.45.242 3.65-6.763zM30.279 40.223l-3.65 6.763.45.243 3.65-6.764zM31.065 40.648l-1.825 3.38.45.244 1.825-3.382zM21.258 45.65l-3.651 6.762.45.243 3.65-6.763zM22.044 46.074l-3.65 6.763.449.242 3.65-6.762zM22.83 46.498l-3.65 6.763.45.243 3.65-6.763zM23.616 46.923l-3.65 6.763.45.242 3.65-6.763zM24.403 47.348l-3.65 6.762.449.242 3.65-6.762zM25.189 47.772l-3.65 6.763.449.242 3.65-6.763zM25.975 48.196l-3.65 6.763.45.242 3.65-6.762zM26.762 48.62l-2.57 4.76.45.243 2.569-4.76z"/><path fill="#C5232A" d="M16.838 34.218L16.5 33.5l-6.575 3.094.479 4.58-6.544 3.364.363.705 7.027-3.612-.477-4.559z"/><path fill="#C5232A" d="M5.42 45.953l.302-.559-1.232-.666.666-1.231-.558-.302-.968 1.79z"/><g fill="#F8A81A"><path d="M10.304 42.055a.873.873 0 1 1 .831-1.536.873.873 0 0 1-.83 1.536M9.928 37.613a.873.873 0 1 1 .83-1.536.873.873 0 0 1-.83 1.536"/></g><g><path fill="#FEFEFE" d="M26.165 29.47L50.302 45.56l11.375-17.066-24.135-16.089z"/><path fill="#CBCCCB" d="M40.51 27.527l-4.262 6.395.425.283 4.262-6.395zM41.254 28.023l-4.263 6.394.425.283 4.263-6.394zM41.997 28.518l-4.262 6.395.425.283 4.262-6.395zM42.741 29.014l-4.263 6.394.425.284 4.263-6.395zM43.484 29.51l-4.262 6.394.425.284 4.263-6.395zM44.228 30.005L39.965 36.4l.425.283 4.262-6.395zM44.971 30.5l-3 4.502.425.283 3-4.5zM52.792 25.676l-4.263 6.395.425.283 4.263-6.395zM53.535 26.171l-4.263 6.395.426.283 4.262-6.394zM54.279 26.667l-4.263 6.395.425.283 4.262-6.395zM55.023 27.163l-4.263 6.394.424.283 4.263-6.394zM55.766 27.658l-4.263 6.395.425.284 4.263-6.395zM56.51 28.154l-4.263 6.394.425.284 4.262-6.395zM57.253 28.65l-3 4.5.425.284 3-4.5z"/><path d="M45.791 27.016a2.045 2.045 0 0 0 1.259-3.745 2.047 2.047 0 0 0-2.733.421l-.981-.655a3.224 3.224 0 1 1 2.265 5.145l.19-1.166z" fill="#3B7282"/><path d="M44.071 23.97a2.176 2.176 0 0 0 1.347 3.037l-.202 1.241a3.427 3.427 0 0 1-2.191-4.977l1.046.7z" fill="#F58C6A"/><path fill="#E5E6E6" d="M34.253 32.587l8.903-13.341.094.062-8.904 13.341zM33.538 32.11l8.904-13.341.093.062-8.904 13.341zM32.824 31.633l8.903-13.341.093.062-8.903 13.341zM32.109 31.156l8.903-13.341.093.062-8.903 13.341zM31.394 30.679l8.904-13.341.093.062-8.904 13.341zM30.68 30.202l8.903-13.34.093.061-8.904 13.341zM29.965 29.725l8.903-13.34.093.061-8.903 13.341zM29.25 29.248l8.903-13.341.094.062-8.904 13.341z"/><path fill="#C8E37F" d="M41.847 18.372l-.982 1.474 1.342.892.982-1.474zM40.134 19.69l-.983 1.474 1.92 1.278.982-1.474z"/><path fill="#B9D67D" d="M37.654 20.496l-.982 1.474 3.263 2.176.982-1.473z"/><path fill="#AFCC73" d="M36.97 22.503l-.982 1.473 2.81 1.874.983-1.474z"/><path fill="#E9FBB7" d="M37.238 25.143l-.983 1.474 1.408.938.982-1.474z"/><path fill="#E4F5B2" d="M35.598 26.448l-.983 1.474 1.938 1.292.982-1.474z"/><path fill="#C8E37F" d="M33.588 27.57l-.982 1.474 2.81 1.874.984-1.474z"/><path fill="#AFCC73" d="M30.596 28.034l-.983 1.474 4.668 3.114.982-1.474z"/><path fill="#87BBDA" d="M53.016 35.923l.11-.17-2.949-2.193-.109.17zM52.662 36.453l.104-.16-3.249-2.394-.103.16zM52.308 36.984l.098-.152-3.589-2.62-.097.152zM51.954 37.514l.101-.157-3.385-2.485-.1.157zM51.6 38.044l.11-.17-2.948-2.193-.11.17zM51.247 38.575l.1-.156-3.417-2.507-.101.157zM50.893 39.105l.093-.145-3.852-2.793-.093.145zM50.539 39.635l.092-.144-3.888-2.817-.093.144zM50.185 40.166l.092-.143-3.94-2.852-.092.143zM49.83 40.696l.093-.143-3.94-2.851-.092.143zM49.477 41.226l.09-.138-4.157-2.993-.088.138zM49.123 41.757l.086-.134-4.363-3.128-.086.133zM48.77 42.287l.083-.13-4.518-3.23-.084.13z"/><path fill="#EE7449" d="M48.643 37.793l.841-1.261-.012-1.349.953-.575-.049-.08-.998.603.012 1.373-.806 1.209-1.448.421-1.62 1.924.071.06 1.602-1.901z"/><path fill="#4D8DB3" d="M48.623 36.096l-.1-1.526 1.504-.621-.038-.091-1.569.648.1 1.51-1.597.308-1.12 1.578-1.717 1.245.058.08 1.735-1.261 1.101-1.553z"/><path d="M39.98 33.966l-10.44.065" fill="#F9A819"/></g><g><path d="M34.164 9.498l6.642-6.07 5.789 6.334a.415.415 0 0 1-.027.59l-6.027 5.507a.417.417 0 0 1-.589-.026l-5.788-6.335z" fill="#2E4F6B"/><path fill="#425B74" d="M39.966 4.196l-5.802 5.302 5.093 5.573z"/><path d="M39.106 7.597c.027.03.073.032.103.005L41.42 5.58a.073.073 0 0 0 .005-.103l-.65-.712a.073.073 0 0 0-.103-.005L38.46 6.782a.073.073 0 0 0-.005.103l.65.712z" fill="#4FC4D0"/><path d="M37.604 8.969c.028.03.074.032.104.005l.71-.65a.073.073 0 0 0 .005-.103l-.65-.712a.073.073 0 0 0-.103-.005l-.711.65a.073.073 0 0 0-.005.103l.65.712z" fill="#E44925"/><path d="M36.103 10.34c.028.03.074.033.103.006l.712-.65a.073.073 0 0 0 .004-.103l-.65-.712a.073.073 0 0 0-.103-.005l-.712.65a.073.073 0 0 0-.004.103l.65.712M41.98 7.727c.026.029.072.031.102.004l.711-.65a.073.073 0 0 0 .005-.103l-.65-.712a.073.073 0 0 0-.103-.004l-.712.65a.072.072 0 0 0-.004.103l.65.712zM40.478 9.099c.026.03.073.03.102.004l.712-.65a.073.073 0 0 0 .005-.103l-.65-.712a.073.073 0 0 0-.104-.004l-.711.65a.073.073 0 0 0-.005.103l.65.712zM38.977 10.47c.026.03.073.032.102.005l.712-.65a.073.073 0 0 0 .004-.103l-.65-.712a.072.072 0 0 0-.103-.004l-.711.65a.072.072 0 0 0-.005.103l.65.711zM37.476 11.842a.072.072 0 0 0 .102.005l.712-.65a.073.073 0 0 0 .004-.103l-.65-.712a.072.072 0 0 0-.103-.005l-.712.65a.073.073 0 0 0-.004.103l.65.712zM43.35 9.228c.028.03.074.032.103.005l.712-.651a.072.072 0 0 0 .005-.103l-.65-.711a.073.073 0 0 0-.103-.005l-.712.651a.072.072 0 0 0-.005.102l.65.712zM41.85 10.6c.026.03.073.031.102.004l.712-.65a.073.073 0 0 0 .004-.103l-.65-.712a.073.073 0 0 0-.103-.004l-.711.65a.073.073 0 0 0-.005.103l.65.712z" fill="#F2F8FD"/><path d="M40.348 11.971c.027.03.074.032.103.005l.712-.65a.073.073 0 0 0 .004-.103l-.65-.712a.073.073 0 0 0-.103-.004l-.711.65a.073.073 0 0 0-.005.103l.65.711z" fill="#20364D"/><path d="M44.723 10.729c.027.03.072.031.102.004l.712-.65a.072.072 0 0 0 .004-.102l-.65-.712a.073.073 0 0 0-.103-.005l-.711.65a.073.073 0 0 0-.005.104l.65.71zM43.221 12.101c.027.03.073.031.103.004l.711-.65a.073.073 0 0 0 .005-.102l-.65-.712a.073.073 0 0 0-.103-.005l-.711.65a.074.074 0 0 0-.005.104l.65.711z" fill="#F2F8FD"/><path d="M41.72 13.473c.027.03.073.031.103.004l.711-.65a.073.073 0 0 0 .005-.103l-.65-.71a.074.074 0 0 0-.103-.006l-.712.65a.073.073 0 0 0-.004.103l.65.712zM40.22 14.844c.026.03.072.032.101.005l.712-.65a.072.072 0 0 0 .004-.103l-.65-.711a.073.073 0 0 0-.102-.005l-.712.65a.073.073 0 0 0-.004.103l.65.711zM38.847 13.343c.027.03.073.032.103.005l.711-.65a.072.072 0 0 0 .005-.103l-.65-.711a.072.072 0 0 0-.103-.005l-.712.65a.073.073 0 0 0-.004.102l.65.712z" fill="#20364D"/><path d="M31.743 6.85a.416.416 0 0 1 .026-.59L37.796.752a.416.416 0 0 1 .59.027l2.42 2.65-6.642 6.069-2.421-2.649z" fill="#0D3754"/><path d="M39.584 3.57a.245.245 0 0 0 .016-.348l-1.399-1.53a.243.243 0 0 0-.17-.08.244.244 0 0 0-.177.064l-5.215 4.766a.244.244 0 0 0-.08.171.244.244 0 0 0 .064.176L34.02 8.32a.246.246 0 0 0 .348.015" fill="#2E4F6B"/><path d="M37.97 1.804a.071.071 0 0 1 .053-.019c.02 0 .038.01.05.023l1.399 1.531a.072.072 0 0 1-.005.102l-5.215 4.767a.073.073 0 0 1-.102-.005l-1.399-1.53a.073.073 0 0 1 .004-.102l5.216-4.767z" fill="#FCBF13"/><path fill="#2E4F6B" d="M34.164 9.498l6.642-6.07-.117-.128-6.642 6.07z"/></g><g><path fill="#FFF98F" d="M20.82 14.15L12 19.739l5.589 8.82 8.82-5.59z"/><path fill="#F1F81A" d="M12 19.738l1.195 1.886 1.738-3.744z"/><path d="M14.933 17.88c.115 1.08.45 2.012 1.16 2.692-1.084-.05-2.03.364-2.898 1.052l1.738-3.744z" fill="#FFFEE0"/><g transform="translate(19.65 14.008)"><mask id="b" fill="#fff"><use xlink:href="#a"/></mask><path fill="#F1F919" mask="url(#b)" d="M6.758 8.962L1.17.142.113.812 5.7 9.631z"/></g></g><g><path d="M63.914 16.8a.362.362 0 0 0 .472-.195l2.774-6.703a.362.362 0 0 0-.196-.473l-12.69-5.251a.362.362 0 0 0-.473.195l-2.773 6.703a.362.362 0 0 0 .195.473l12.69 5.252z" fill="#FEFEFE"/><path fill="#4F4F4F" d="M62.89 16.105l2.859-6.907-10.493-4.342-2.858 6.907z"/><path d="M64.817 13.355a.46.46 0 1 1 .352-.85.46.46 0 0 1-.352.85" fill="#003E57"/></g></g></svg>