<svg width="122" height="101" viewBox="0 0 122 101" xmlns="http://www.w3.org/2000/svg"><title>Enterprise 2</title><defs><path id="a" d="M59.167 19.398V.082H.113v19.316h59.054z"/></defs><g fill="none" fill-rule="evenodd"><path d="M106.265 8.685l-7.524 2.016a4.425 4.425 0 1 1 7.524-2.016m9.24-2.475l-6.812 1.825-.173-.649-1.032.277a6.019 6.019 0 0 0-6.437-1.619l-.145.056c-.092.035-.183.07-.273.11-.057.024-.113.052-.17.079a6.003 6.003 0 0 0-.228.112c-.06.032-.12.066-.178.1a5.798 5.798 0 0 0-1.074.782c-.037.034-.072.07-.109.105a5.851 5.851 0 0 0-.2.2l-.054.06a6.047 6.047 0 0 0-1.218 1.993l-.005.013a6.047 6.047 0 0 0-.123.373l-.005.014c-.037.127-.07.255-.099.385v.002l-1.027.274.174.649-6.816 1.826a1.31 1.31 0 0 0-.924 1.6L93.44 32.93a1.31 1.31 0 0 0 1.6.924l26.004-6.968a1.31 1.31 0 0 0 .923-1.6l-4.864-18.153a1.31 1.31 0 0 0-1.6-.923" fill="#0C7194"/><path d="M120.743 24.58a1.31 1.31 0 0 1-.923 1.6l-26.004 6.967a1.31 1.31 0 0 1-1.6-.924l-3.925-14.648a1.31 1.31 0 0 1 .924-1.6l26.004-6.968a1.31 1.31 0 0 1 1.6.924l3.924 14.649" fill="#3A4350"/><path d="M117.833 13.716a1.31 1.31 0 0 1-.924 1.6l-26.004 6.967a1.31 1.31 0 0 1-1.6-.924l-1.953-7.289a1.31 1.31 0 0 1 .924-1.6l26.004-6.968a1.31 1.31 0 0 1 1.6.924l1.953 7.29" fill="#242C3B"/><path fill="#3A4350" d="M95.092 10.644l2.424-.65-.174-.648-2.423.65zM105.045 7.977l2.424-.65-.174-.648-2.424.65z"/><path d="M97.516 9.994a4.425 4.425 0 1 1 7.524-2.016l1.69-.452a6.025 6.025 0 0 0-10.904 2.921l1.69-.453M101.594 19.419l4.626-1.24-.3-1.121-4.626 1.24z" fill="#3A4350"/><path fill="#242C3B" d="M101.895 20.54l4.626-1.24-.3-1.12-4.627 1.239z"/><path d="M104.798 21.22l.12.449c.03.11-.024.223-.119.248l-.105.028c-.095.026-.198-.044-.228-.155l-.12-.448a.387.387 0 0 1 .046-.734.388.388 0 0 1 .406.613zm-1.216 1.76l2.698-.722-.723-2.699-2.699.723.724 2.699z" fill="#141D28"/><path d="M106.818 29.663l-13.002 3.484a1.31 1.31 0 0 1-1.6-.924l-2.91-10.864a1.31 1.31 0 0 0 1.6.924l13.001-3.484-2.313.62.3 1.121 2.314-.62-1.35.362.724 2.699 1.349-.362 1.887 7.044" fill="#616973"/><path d="M101.594 19.419l-10.689 2.864a1.31 1.31 0 0 1-1.6-.924l-1.953-7.289a1.31 1.31 0 0 1 .924-1.6l13.002-3.484 2.329 8.692-2.313.62.3 1.12" fill="#505662"/><path d="M95.826 10.447l-.734.197-.173-.649 1.022-.273c-.053.238-.092.48-.115.725" fill="#616973"/><path d="M97.516 9.994l-1.69.453c.023-.245.062-.487.115-.725l.004-.002a6.02 6.02 0 0 1 4.21-4.489h.004l.009-.003.005-.002.008-.002.006-.001.008-.003.007-.001.006-.002.007-.002.007-.002.008-.002.006-.002.009-.002.005-.002.014-.004.413 1.543a4.425 4.425 0 0 0-3.161 3.25M101.594 19.419l2.313-.62-.3-1.121-2.313.62z" fill="#616973"/><path fill="#505662" d="M101.895 20.54l2.313-.62-.3-1.121-2.314.62z"/><path d="M104.93 22.62l-1.348.36-.724-2.698 1.35-.361.184.687a.388.388 0 0 0-.046.734l.12.448c.03.111.133.18.228.155l.052-.014.185.688" fill="#444A53"/><g><path d="M75.932 3.491a.633.633 0 1 1-1.205-.392.633.633 0 0 1 1.205.392m2.95 2.685a3.299 3.299 0 0 0-1.01-.513c-.844-.274-1.085-.91-1.152-1.304a1.706 1.706 0 0 0-.902-2.566l-.034-.009A1.712 1.712 0 0 0 73.58 3.34c-.286.28-.854.652-1.7.378a4.235 4.235 0 0 0-.28-.08l-.067-.016a3.607 3.607 0 0 0-.217-.043l-.048-.008a2.738 2.738 0 0 0-.505-.033l-5.634-1.83-8.446 25.996 19.275 6.263L84.404 7.97l-5.522-1.794" fill="#0B7194"/><path fill="#3A4350" d="M56.11 26.233l19.274 6.262L83.83 6.5 64.556.237z"/><path fill="#FEFEF9" d="M58.395 25.67l16.266 5.285 7.754-23.864-16.266-5.285z"/><path fill="#D3D3D3" d="M65.971 5.589l14.456 4.697.202-.62-14.456-4.698zM65.353 7.491l14.456 4.697.202-.62L65.555 6.87zM64.735 9.394L79.19 14.09l.202-.621-14.456-4.697zM64.117 11.295l14.456 4.697.202-.62-14.456-4.697zM63.499 13.197l14.456 4.697.202-.62L63.7 12.577zM62.572 16.05l14.456 4.698.202-.621-14.456-4.697zM61.954 17.953L76.41 22.65l.202-.62-14.457-4.698zM61.336 19.855l14.456 4.697.202-.62-14.457-4.698zM60.718 21.757l14.456 4.697.201-.62-14.456-4.698zM60.1 23.66l14.456 4.696.201-.62-14.456-4.698z"/><path d="M74.516 2.645a.633.633 0 1 1 .391-1.204.633.633 0 0 1-.391 1.204m2.738 1.766c-.845-.274-1.085-.91-1.152-1.304A1.706 1.706 0 0 0 75.199.54a1.712 1.712 0 0 0-2.238 1.545c-.286.28-.854.653-1.699.378-1.268-.412-2.145-.084-2.36.574l9.924 3.224c.213-.657-.304-1.439-1.572-1.85" fill="#F4E578"/><path d="M65.802 29.382l-9.693-3.15L64.556.238l5.628 1.829c-.574.02-.983.248-1.171.6l-3.241-1.053-7.754 23.864 8.188 2.661-.404 1.244" fill="#616973"/><path d="M66.583 28.33l-8.188-2.66 7.754-23.864 3.24 1.053a.963.963 0 0 0-.065.154l4.962 1.612-.7 2.152-7.283-2.366-.202.62 7.284 2.367-.47 1.448L65.63 6.48l-.202.62 7.283 2.367-.47 1.448-7.284-2.366-.202.62 7.284 2.367-.47 1.449-7.284-2.367-.202.62 7.284 2.367-.47 1.449-7.284-2.367-.202.62 7.284 2.367-.471 1.449-7.284-2.367-.201.62 7.283 2.367-.47 1.449-7.284-2.367-.202.62 7.284 2.367-.47 1.45-7.284-2.368-.202.621 7.284 2.367-.47 1.448-7.284-2.367-.202.621 7.283 2.367-.47 1.448-7.284-2.366-.202.62 7.284 2.367-.75 2.31" fill="#FEFEF9"/><path fill="#DCDCDC" d="M65.971 5.589l7.284 2.367.201-.621-7.283-2.367zM65.353 7.491l7.284 2.367.201-.621-7.283-2.367zM64.735 9.394l7.283 2.366.202-.62-7.283-2.367zM64.117 11.295l7.284 2.367.201-.62-7.283-2.367zM63.499 13.197l7.284 2.367.201-.62-7.283-2.367zM62.572 16.05l7.283 2.367.202-.62-7.283-2.367zM61.954 17.953l7.283 2.366.202-.62-7.284-2.367zM61.336 19.855l7.283 2.366.202-.62-7.284-2.367zM60.718 21.757L68 24.124l.202-.621-7.284-2.367zM60.1 23.66l7.283 2.366.202-.621-7.284-2.367z"/><path d="M73.864 4.65l-4.961-1.612a.963.963 0 0 1 .065-.154c.188-.353.597-.58 1.172-.6l.004.001c.319-.01.687.042 1.098.173h.002l.007.003h.002l.01.003c.844.275 1.412-.098 1.698-.378A1.712 1.712 0 0 1 75.2.541l-.292.9a.633.633 0 0 0-.391 1.204l-.652 2.005" fill="#F7EB93"/></g><g><g fill="#0B586F"><path d="M104.083 87.04c-.128-.298-.359-.595-.508-.827-.146-.232-.298-.466-.465-.595-.17-.126-.17-.508-.383-.845-.21-.34-.53-.425-.637-.51-.104-.085-.042-.318-.061-.551a.918.918 0 0 0-.17-.424c-.084-.105-.084-.381-.107-.53-.019-.148-.127-.148-.255-.275-.125-.128-.168.106-.274.02-.106-.084.021-.295.021-.53 0-.231-.147-.19-.253-.422-.107-.232-.276-.55-.276-.55-.191-.256-.17.339-.147.593.019.253-.108.805-.086 1.123.02.317-.126.953-.234 1.143-.106.191-.36-.085-.466-.317-.106-.234-.423-.318-.655-.51-.234-.189-.361-.464-.319-.719.043-.255.19-.276.211-.656.022-.384-.508-.191-.74-.191-.233 0-.657.042-.808.106-.146.064-.59.254-.675.465-.086.211-.192.55-.36.593-.17.044-.32-.252-.487-.36-.17-.104-.34.043-.425.148-.084.106-.572.637-.743.764-.17.126-.446.338-.507.635-.065.297-.255.551-.487.763-.233.212-.91.168-1.4.53-.486.36-.805.551-.889 1.058-.086.51 0 1.358.127 1.695.127.34.32 1.356.404 1.719.084.358-.085 1.1.232 1.375.318.275.974-.275 1.207-.318.233-.042 1.229-.296 1.527-.465.296-.17.89-.444 1.376-.424.486.021 1.25-.02 1.632.17.38.19.255.677.593.868.338.191.553-.487.553-.487s.04.317.189.571c.15.254.255.466.466.634.21.173.147.764.424 1.019.275.255.784.338.975.254.189-.084.359-.212.445-.084.085.127.274.381.57.297.298-.086.256-.486.256-.486s.381-.045.676-.255c.297-.214 0-.277.108-.658a9.64 9.64 0 0 1 .528-1.398c.214-.445.404-.509.531-.976a2.027 2.027 0 0 0-.022-1.143c-.084-.275-.084-.742-.212-1.038M101.965 93.862c-.254.02-.508-.15-.508-.15s-.02.7.062.912c.087.212.361.382.657.488.298.105.34-.233.447-.595.104-.36.04-.655-.065-.741-.106-.084-.34.064-.593.086M111.013 93.987c-.13-.063-.277-.211-.277-.211-.168-.063-.4.51-.466.72-.063.212-.402.595-.591.743-.193.147-.51.423-.786.55-.275.128-.34.594-.21.572.126-.02.42.063.74.19.318.128.423-.19.572-.4.148-.215.34-.489.55-.806.213-.317.574-.573.679-.91.104-.34-.086-.383-.211-.448M111.986 92.568c-.149-.083-.382-.488-.465-.656-.085-.169-.383-.679-.573-.72-.19-.042-.19.233-.02.488.168.253.444.4.423.634-.023.235 0 .805-.147.87 0 0 .232.147.295.338.063.19-.148.445 0 .55a.327.327 0 0 0 .487-.148c.085-.211.191-.55.317-.72.129-.17.362-.317.319-.444-.043-.128-.488-.107-.636-.192M97.155 77.081s.066.212.275.275c.213.063.488-.021.467.086-.021.105-.36.085-.382.211-.021.127.023.317.192.361.169.041.444 0 .572.084.126.084.848.488.955.615.104.125.38.614.423.804.04.191.19.212.294.382.107.17.511.423.786.381.275-.042.402-.466.507-.423.108.042.49-.023.636.106.149.126.465.592.698.761.234.17.7.467.764.256.064-.213-.445-.868-.615-.975-.17-.106-.402-.467-.402-.552 0-.083.297-.063.212-.212-.085-.148-.126-.317-.34-.422-.211-.106-.358-.466-.591-.594-.234-.127-1.4-.656-1.718-.742-.317-.085-.636-.21-.7-.21-.061 0-.317.38-.529.445-.212.062-.401-.087-.465-.256-.064-.17.127-.34-.064-.53-.19-.19-.954-.296-.975.15M102.92 79.03c.103.043.486.063.698.021.211-.042.53-.317.593-.508.064-.19.064-.445-.085-.551-.15-.107-.318 0-.235.128.086.125-.062.381-.188.507-.129.128-.848.148-.848.148-.148.063-.043.213.065.255M93.279 78.67c.146.127.381.149.4.021.022-.127-.062-.487.022-.636.086-.149.17-.212.236-.063.062.149 0 .401.167.466.17.063.382 0 .425-.085.041-.085-.085-.424-.213-.572-.127-.148-.339-.36-.339-.36s.252-.107.34-.212c.083-.106.337-.127.337-.212 0-.085-.168-.17-.402-.127-.233.042-.446.064-.446.064l-.127-.17s-.062-.466.086-.423c.148.041.72.041.87.084.146.043.402-.063.466-.17.063-.105.275-.381.107-.423-.171-.043-.342.191-.554.233-.21.043-.57 0-.677-.085-.106-.084-.614.148-.637.318-.02.17.043.53 0 .677-.04.15-.061.488-.084.741-.021.256.107.405.084.531-.02.126-.21.276-.061.403M89.95 76.487c.065.212.192.53.192.53s.106-.085.148.064c.043.148-.022.36.128.466.148.106.401.063.487.127.084.062.233.149.34.19.106.042.4-.085.4-.085s.193.191.405.15c.21-.044.38-.298.466-.467.083-.17.19-.55.234-.699.041-.148.043-.318.126-.445.086-.127.318-.044.254-.254-.064-.212-.147-.233-.233-.424a4.243 4.243 0 0 1-.19-.53c-.021-.086-.065-.297.043-.277.104.024.274.064.274-.02s-.04-.212-.04-.212.147.021.21-.085c.062-.105.04-.147-.105-.296-.15-.147-.255-.339-.382-.444-.128-.106-.403.062-.468.211-.062.15.087.445-.15.53-.232.084-.358.064-.487.276-.124.21-.166.38-.356.401-.192.02-.427.235-.47.297-.04.064 0 .425-.147.318-.148-.105-.317-.275-.465-.148-.149.127-.275.613-.214.826M92.496 80.259c.232.063.57.042.739 0 .17-.042-.127-.17-.232-.19-.105-.022-.445.02-.552-.022-.106-.042-.233-.213-.318-.297-.083-.084-.315-.19-.402-.338-.085-.149-.295-.19-.38-.277-.087-.084-.297-.084-.51-.17-.212-.085-.529.086-.763.065-.231-.02-.274-.192-.505-.211-.235-.022-.618 0-.618 0-.255.126-.148.358.024.465.169.106.485.296.594.296.104 0 .568 0 .78.042.212.044 1.102.277 1.335.298.234.02.573.275.808.339M88.891 78.52c.065-.253.3-.635.194-.784-.106-.147-.13-.274-.278-.443-.147-.17-.168-.403-.36-.594-.19-.19-.255-.381-.4-.465-.149-.086-.298-.34-.447-.446-.147-.104-.318-.53-.529-.657-.212-.127-.424-.509-.552-.636-.129-.126-.125-.148-.383-.252-.252-.106-.4-.278-.549-.256-.148.021-.148.319.042.614.192.297.488.68.574.785.084.105.359.148.444.318.084.169.106.339.19.551.084.21.297.424.401.635.109.212.362.615.447.72.084.108.02.488.231.615 0 0 .297.19.468.253.168.065.445.297.507.043M95.44 72.737c-.255.022-.232.191-.445.233-.214.044-.383.044-.51.044-.128 0-.317.063-.276.253.016.062.107.149.299.212.188.063.273.063.316.318.045.255.192.466.36.423.17-.041.213-.212.256-.423.04-.212.296-.212.21-.445-.084-.233.043-.637-.21-.615M94.995 80.788c.106-.085.316-.276.571-.381.255-.106.278-.212.233-.318-.043-.105-.169 0-.319.064-.147.064-.338.085-.485.211-.149.128-.51.488-.51.488-.062.403.403.021.51-.064M93.679 69.877c0 .128-.231.043-.231.043-.064.106.169.445.253.573.086.126.022.274 0 .36-.022.083-.147.252-.022.359.127.106.234.297.34.276.107-.021-.082-.296-.126-.36-.04-.065.064-.234.213-.213.147.021.293.127.443.254.147.127.32.213.36.064.043-.149-.063-.318-.148-.466-.085-.149-.232-.084-.297-.107-.065-.02-.275.043-.358-.04-.087-.086-.087-.32-.107-.487-.022-.171.254-.362.4-.553.15-.19-.083-.443-.146-.72-.064-.276-.276-.084-.4-.043-.13.043-.174.234-.174.381v.679zM80.587 72.653l-.233.57c-.042.108.023.615.15.829.127.211.317.085.487-.044.168-.127.168-.36.041-.784-.127-.422-.445-.571-.445-.571M90.8 68.394c-.023-.149-.318.063-.55.17-.234.105-.381.253-.381.253s.147.276.253.36c.106.087.274-.04.467-.147.188-.106.23-.486.21-.636M94.23 66.848c.086-.212.086-.402.063-.572-.019-.17-.019-.276-.124-.233-.106.042-.363.403-.425.57-.065.17-.043.68-.043.68s.446-.234.528-.445M97.176 62.399l-.337.253s.21.149.17.318c-.043.17-.298.509-.085.593.211.086.316.043.358-.084.043-.128.276-.382.148-.658-.125-.273-.254-.422-.254-.422M99.676 60.618c-.147.213-.38.509-.507.509-.128 0-.276-.15-.298-.064-.02.086-.02.318-.125.467-.108.148-.172.063-.36.106a1.839 1.839 0 0 0-.553.232c-.127.085-.362.255-.362.255s.384.02.575-.022c.189-.043.465.085.465.085s-.064.34.127.276c.19-.063.403-.254.403-.254s.297-.022.53-.15c.233-.125.531-.21.592-.422.065-.212.17-.68.17-.87 0-.19.067-.402.13-.444.062-.043.337-.55.23-.72-.106-.17-.149-.36-.293-.402-.15-.045-.321-.045-.342.38-.02.425-.232.826-.382 1.038"/><path d="M97.665 62.483s.062.487.147.55c.085.064.127-.211.211-.338.086-.129.275-.129.3-.276.02-.147-.172-.147-.34-.17-.17-.02-.318.234-.318.234M100.482 58.118l-.297.085s-.148.213-.127.34c.02.126.127.296.127.296l.192-.064s-.13-.212.022-.274c.145-.065.145.062.38.083.233.022.444-.106.635-.211.192-.106.486-.043.466-.192-.02-.147.107-.254-.232-.36-.34-.106-.551-.126-.722-.38-.17-.255-.17-.552-.275-.339-.107.211-.064.296-.042.507.022.212.022.467-.127.51M102.707 57.27a2.206 2.206 0 0 0-.296.255s.572-.17.592-.318c.02-.148-.063-.275-.063-.275s-.128.275-.233.338M100.926 56.613l.338.212s-.167-.466-.167-.72c0-.254.126-.72.126-.72l.339-.042s-.105-.445-.17-.678c-.063-.233.022-.593-.063-.805-.085-.212-.149-.36-.149-.445 0-.084.064-.425-.041-.446-.106-.021-.213.255-.213.403 0 .15-.126.191-.126.51 0 .317.022.867.022 1.08 0 .21.02.783.02.954 0 .167-.042.825-.042.825l.126-.128zM95.185 42.185c.212-.042.508-.233.53-.317.021-.084-.36-.403-.657-.382-.299.022-.55.127-.424.32.036.054.339.423.55.379M101.33 41.592c-.191-.127-.404-.338-.592-.232-.194.105-.405.465-.405.465s.235.086.616.106c.38.02.57-.211.38-.34M72.092 43.118c.084.17-.108.425-.022.466.085.042.7 0 .806.021.106.02.55-.106.55-.106s-.572-.339-.636-.593c-.063-.254.15-1.08.234-1.229.085-.148.466-.679.995-.89.53-.211 1.547-.466 1.926-.614.382-.147.617-.19.617-.36 0-.17.296-.445-.319-.233s-1.207.424-1.609.424c-.403 0-.296.085-1.019.275-.718.191-1.27.319-1.481.741-.212.424-.17.785-.425 1.165-.252.382-.593.53-.445.764.149.233.741 0 .828.169M69.66 82.882c-.337.137-.949.407-.745.815.204.407-.067 1.016-.407 1.491-.338.474 0 1.084.747 1.761.744.679.405-.405.676-1.153.271-.744.678-1.624.815-2.44.134-.812-.07-1.624-.07-1.624s-.677 1.016-1.016 1.15M52.99 52.39s.408.27.61.543c.204.27-.61.27-.61.27s.205.813.408.813c.202 0-.542.746-.542.746s.813-.271 1.085-.408c.27-.135.948-.406.948-.406s0-.406-.137-.744c-.134-.34-.61-.88-.88-1.355-.272-.475.202-1.153.202-1.153l-.607.135s-.07-.812-.34-.812-.544.812-.475 1.287c.067.474.338 1.084.338 1.084M52.245 53.474c.407-.407.136-.54.273-.948.134-.406-.273-.34-.273-.34l-.474.068s-.338.407-.338.813c0 .407-.204.678-.067.95.134.27.473-.136.88-.543"/><path d="M116.288 46.572c-.232-.233-.554-.51-.806-.531-.252-.02-.36-.042-.444.128-.084.17-.255.063-.233-.043.02-.106.149-.275-.041-.339-.192-.063-1.018-.742-1.357-.975-.34-.233-.256-.423-.528-.508-.277-.084-.596.064-.724-.021-.127-.085-.21-.318-.402-.36-.19-.042-1.4-.042-1.526-.063-.126-.021-.084.126-.084.38 0 .255.064.53-.168.552-.234.02-.425-.063-.447-.149-.02-.084-.085-.487-.169-.507-.084-.022-1.228.02-1.59.084a.976.976 0 0 0-.611.403c-.044.063-.214-.277-.321-.425-.106-.147.15-.338-.19-.508 0 0-1.252-.297-1.505-.297-.253 0-1.63.212-1.843.191-.211-.021-.189-.317-.169-.467.02-.148.104-.38-.19-.465-.299-.085-.68.508-.827.572-.148.064-.169-.17-.274-.34-.106-.168-.214-.444-.362-.466a14.229 14.229 0 0 0-1.144-.084c-.275 0-.444.17-.381.382.062.211.297.55.127.508-.17-.042-.275-.168-.486-.084-.213.084-.341.127-.531 0-.19-.129-.38-.255-.488-.255-.106 0-.465.275-.592.319-.127.04-.444.105-.468.21-.02.106.024.51-.149.381-.167-.126-.482-.466-.825-.635-.338-.169-.825-.53-1.08-.593-.252-.063-1.23-.318-1.523-.318-.299 0-.765-.212-.87-.275-.105-.063.168-.254-.127-.318-.298-.064-.89-.19-1.083-.106-.19.084-.402.19-.55.211-.147.023-.89.022-1.059.17-.17.149-.275-.254-.275-.254s.042-.296.231-.382c.193-.083.765-.21 1.084-.295.314-.086.4-.106.337-.299-.064-.19-.043-.4-.17-.57-.126-.17-.275-.53-.548-.594-.278-.062-.617.043-.806.107-.191.063-.489.126-.489.126s.065-.318-.254-.36c-.317-.042-.297-.36-.444-.34-.149.023-.786 0-.998.129-.21.126-.443.338-.527.487-.086.148-.447.126-.51.21-.063.086-.126.193-.317.298-.192.106-.508.149-.508.149s.15-.276.063-.317c-.086-.044-.72.105-1.101.126-.38.02-1.125.233-1.313.318-.19.085-.594.381-.681.53-.084.147 0 .295 0 .444 0 .148-.296.233-.464.17-.172-.064-.233-.298-.615-.149-.383.15-.784-.02-.846.34-.065.36-.192.549 0 .656.19.106.487-.085.548.212.064.296-.085.383-.253.36-.17-.022-.466-.254-.72-.36-.254-.106-.403-.19-.636 0-.232.19-.467.276-.487.338-.022.065-.19.51-.318.361-.128-.148-.255-.51-.444-.36-.192.148-.17.38-.128.572.044.19 0 .593.128.678.125.084.359-.042.572 0 .21.042.487.064.612.255.128.19.15.528.106.678-.04.147-.273.253-.316.085-.04-.17-.255-.785-.445-.657-.19.127-.488.106-.444.338.04.234.04.552-.108.658-.147.105-.382.02-.382-.128 0-.149.172-.403-.04-.7-.214-.296-.17-.635-.234-.952a1.38 1.38 0 0 1 .064-.783c.084-.256.465-.659.064-.827-.403-.17-1.04 0-1.082.147-.04.149-.72.763-.656 1.059.064.298.19.678.298.975.104.297.254.488.084.7-.17.21-.637-.55-.87-.636-.233-.085-1.08-.318-1.356-.254-.274.063-.189.444-.254.55-.066.106-.444.128-.55.064-.106-.064-.763.02-.91.042-.15.022-1.95.212-2.438.53-.486.318-.338.72-.677.72-.342 0-.214-.339-.51-.381-.296-.043-.465.212-.592.36-.128.149-.319.021-.468.021-.148 0-.488.127-.528.297-.042.17.338.466.02.508-.317.043-1.227.509-1.44.382-.212-.127-.19-.72-.295-.826-.107-.106-.51-.36-.596-.509-.083-.148.129-.297.36-.233.236.064.744.296.976.36.233.064.911-.085 1.015-.318.107-.233-.061-.571-.401-.804-.34-.233-2.245-.911-2.669-1.082-.424-.168-1.378-.38-1.526-.317-.148.063-.254.425-.381.34-.126-.085-.36-.214-.508-.191-.148.02-.636.232-.722.253-.085.023-1.1.531-1.27.806-.169.275-.868 1.503-1.186 1.717-.32.21-.826 1.1-1.188 1.206a2.02 2.02 0 0 0-1.058.806c-.256.402-.403.848-.361 1.165.043.319-.232.763.126.89.362.127.848-.212 1.145-.276.296-.063.594-.042.657.085.063.128.278.784.381.911.107.128-.022.36.213.424.233.064.466.064.74-.276.275-.338.277-.74.404-1.016s.551-.657.358-.912c-.188-.253-.23-.466-.297-.656-.061-.19 0-.445.215-.721.211-.275.974-.614 1.036-.848.064-.232.129-.72.404-.847s.636-.34.764-.042c.125.296.337.275-.15.889-.488.615-.763.297-.614.912.148.614.464 1.101.55 1.207.086.106.805-.062 1.059-.106.256-.041.594.085.763.085.17 0 .276-.444.446-.552.17-.106.34.023.424.129.084.106.063.423 0 .466-.064.041-1.482.404-1.802.53-.318.125-.91.125-.952.338-.044.213 0 .806-.213.89-.212.085-.255-.38-.445-.148-.191.233-.402 1.08-.529 1.314-.127.233-.34.381-.847.403-.51.02-1.462-.001-1.675.042-.18.035-.305.041-.52.027-.022-.14-.191-.192-.265-.41-.094-.284.025-.403.119-.712.095-.308.048-.378-.025-.521-.07-.143-.14-.143-.307.025-.164.166-.356.212-.448.378-.097.166.092.593.211.901.073.191.048.417.017.562-.59.31-1.403.84-1.578 1-.255.233-.869.444-.973.719-.109.276-.594.467-.7.424-.106-.041-.106.128-.318.275-.212.15-.446-.063-.637.086-.19.149.023.338.296.699.278.36.531.487.615.826.086.34.256.932-.128.91-.38-.02-1.334-.147-1.715-.125-.382.02-.55.486-.614.677-.063.19-.106 1.207-.127 1.42-.02.211-.127.488.149.677.275.192.614.17.699.234.084.064.041.211.338.211.297 0 .594.107.89-.062.295-.17.764-.572.827-.764.063-.19.212-.55.297-.72.084-.17.677-.742.784-.847.106-.107 0-.38.233-.489.234-.105.593-.084.784-.126.19-.042.614-.467.742-.509.126-.042.614.318.698.467.085.147.51.784.953 1.144.444.36.593.423.679.53.084.106.147.275.084.486-.064.212-.212.403-.232.467-.022.062.273.233.402.042.13-.19.214-.635.214-.635l-.108-.487.319.064c.103.02.253-.296-.023-.445-.273-.15-.848-.319-.976-.468-.125-.148-.508-.677-.611-.889-.107-.21 0-.487.062-.551.063-.065.401.02.549.212.15.19.552.593.722.763.17.169.614.381.698.487.086.105.021.572.17.678.149.105.509.72.614.953.106.232-.02.637.234.573.254-.064.657-.36.721-.424.063-.063-.19-.404-.296-.658-.106-.253.147-.719.402-.676.255.041.74.126.74.126l.38-.508.151-.678c.042-.17.318-1.06.592-1.23.276-.169.679-.275.997-.169.318.106 1.06-.128 1.122-.149 0 0 .254.064.36.383.106.317.445.848.722 1.165.273.317.826.36.487.678-.338.318-.997.403-1.357.254-.36-.148-.656-.53-1.143-.318-.486.21-.868.149-1.314.467-.446.316-.74.36-.785.762-.04.402-.125.72.086.932.212.212.551.615.72.53.168-.085.296-.423.53-.36.231.064.678.106.89.042.212-.064.38.022.467.042.084.022.04.593.064.678.02.086-.235.974-.383 1.209-.148.232-.933.423-1.208.423-.275 0-2.309-.382-2.798-.572-.486-.19-.825.233-.93.508-.106.276-.106.72-.446.509-.339-.213-1.483-.932-1.906-1.017-.425-.086-.637-.572-.721-.868-.083-.297-.17-.976-.17-.976s-.613-.063-1.293 0c-.675.064-1.97.531-2.308.573-.34.041-.952.106-1.209.064-.254-.043-.36.253-.487.339-.127.084-.741.571-.889.72-.15.148-.126.72-.15 1.06-.02.337-.422 1.016-.74 1.144-.318.127-1.124 1.398-1.358 1.927-.23.53-.252.763-.187 1.102.062.34.209 1.419.082 1.8-.126.382-.253.488-.189.805.063.318.316.827.528 1.167.213.337.404 1.037.848 1.546.445.508.996 1.271 1.525 1.291.53.021.806-.19 1.145-.167.34.02 1.632-.361 1.821-.467.193-.106.913-.023 1.147-.023.232 0 .147.446.464.596.318.146.891.041 1.04.21.146.171.21.741.085 1.208-.13.466-.234.784-.108.954.128.17.997 1.165 1.124 1.948.125.784.423 1.42.402 1.716-.021.297.043.997-.296 1.547-.338.552-.403 1.271-.361 1.526.044.255.509 1.271.7 1.737.19.467.38 1.42.402 1.76.022.337.382.803.53 1.313.148.507.422.91.402 1.164-.02.254-.233.72.02.996.256.275.764.297 1.23.192.467-.107 1.101-.213 1.505-.49.402-.273 1.038-1.036 1.354-1.461.318-.422.532-.951.573-1.185.043-.233-.084-.68.127-.785.21-.107.764-.297.807-.424.041-.127-.086-.996-.15-1.229-.064-.231 0-.868.086-.995.084-.127.254-.424.381-.487.126-.064.953-.552 1.08-.721.128-.168.339-1.123.296-1.525-.042-.403-.146-1.102-.21-1.272-.065-.17-.044-.571-.065-.635-.021-.063-.106-.425-.169-.53-.063-.107.254-1.377.975-2.245.719-.869 1.504-1.441 1.631-1.653.127-.212.551-1.101.74-1.504.19-.403.573-.996.509-1.378-.062-.381-.297-.403-.465-.36-.168.042-.742.275-.975.233-.233-.041-.445.171-.721-.02-.274-.192-.443-.701-.635-.892-.19-.19-.742-.995-.869-1.207-.127-.21 0-.72-.403-1.144-.402-.423-.233-.697-.402-1.122-.169-.424-.358-1.103-.529-1.356-.17-.254-.278-.615-.488-1.06 0 0-.17-.551.064-.487.233.064.509-.042.678.423.17.467.72 1.082.89 1.633.169.55.506 1.101.72 1.417.211.32.508 1.125.594 1.57.084.445.148.89.297 1.06.147.17 1.037.063 1.44-.213.402-.275.995-.848 1.399-1.08.4-.233.975-.53 1.271-.87.296-.338.488-.612.677-.974.19-.36.488-.466.234-.72-.254-.254-.615-.424-.827-.741-.212-.319-.36-.424-.36-.424s-.34.55-.677.593c-.34.042-.828-.063-.828-.17 0-.105.022-.466-.04-.508-.066-.042-.214-.021-.278-.15-.064-.126-.507-.973-.571-1.12-.064-.15-.043-.468.084-.553.13-.084.487-.169.573-.041.085.126.338.593.53.868.19.274.678.614.995.55.318-.062.637-.19.74-.02.107.17.596.593.85.678.254.085 1.673-.106 1.843-.085.17.02.4.02.677.402.276.382.679.615.763.637.086.02.02.064-.042.36-.064.296-.064.572.253.614.319.041.615-.657.615-.657s.213.593.149.763c-.063.17.128 1.61.275 2.075.147.466.572 1.76.7 2.056.128.296.126.785.423.7.297-.085.7-.7.72-.869.022-.17.19-.805.127-1.187-.063-.381.02-.827.108-.847.083-.022 1.248-1.145 1.652-1.42.402-.277.316-.466.635-.72.317-.254.804-.361.995-.466.192-.107.466-.147.637.148.17.296.339.656.465.761.127.107.383.66.338.999-.044.337-.317.571-.062.592.253.02.508-.361.573-.403.062-.042.467.042.526.382.064.338.277 1.292.318 1.694.044.404.13.593.023.89-.105.297 0 .615.17.89.169.276.273.72.36.932.085.214.042.742.254.848.212.106.36.487.509.53.148.04.36.064.36 0s-.212-.275-.191-.657c.021-.381.127-.594-.13-.784-.251-.19-.674-.805-.802-.911-.127-.107-.318-.615-.318-.678 0-.064.211-.741.231-1.016.024-.276.044-.572.044-.572s.256.02.402.21c.149.192.424.53.53.68.106.148.299.253.383.36.085.105.104.487.104.551 0 .064 0 .252.13.127.125-.127.168-.298.148-.382-.023-.086-.023-.319-.023-.319s.34.15.551.043c.212-.106.615-.36.635-.55.022-.192.022-.53-.041-.805-.064-.276-.212-.743-.382-.976-.17-.234-.423-.443-.529-.593-.105-.148-.318-.445-.276-.636.042-.191.276-.528.4-.657.128-.126.426-.423.596-.444.168-.021.294.041.318.19.02.15.105.383.169.404.063.02.106-.235.147-.297.043-.064.425-.297.552-.36.127-.065.402-.17.446-.234.04-.064.168-.254.168-.254s.042.233.17.169c.125-.063.486-.042.53-.17.04-.126.276-.36.276-.36s.276-.296.486-.401c.211-.106.317-.212.339-.403.022-.191.043-.488.212-.784.17-.296.36-.741.466-.87.104-.126.148-.316.022-.401-.128-.084-.254-.19-.254-.19s-.13-.468-.02-.468c.105 0 .042-.445-.11-.634-.148-.192-.338-.445-.316-.72.022-.276.36-.637.466-.743.106-.106.803-.063.487-.275-.317-.212-.55-.192-.741-.106-.19.085-.383.296-.488.17-.105-.128-.338-.573-.338-.636 0-.064.254-.107.403-.298.148-.19.528-.487.637-.635.105-.148.189-.127.316-.105.127.02-.024.253-.064.401-.042.15-.212.488 0 .424.21-.063.635-.297.742-.317.106-.02.445-.126.402.106-.042.232-.275.466-.148.614.126.149.445.297.445.297l.191-.064s.106.255.064.467c-.041.212 0 .571-.064.72-.065.148-.148.381.04.318.19-.063.51-.276.574-.36.066-.085.232-.381.17-.7-.065-.317-.253-.74-.359-.89-.108-.147-.13-.445-.13-.508s.381-.275.51-.466c.127-.19.064-.382.213-.594.145-.21.466-.422.57-.53.105-.106.234 0 .36.065.128.063.254.34.445.106.19-.233 1.038-1.251 1.229-1.484.19-.233.509-.91.636-1.165.126-.255.234-.804.254-.994.023-.192.211-.34.086-.764-.128-.424-.234-.805-.447-.805-.21 0-.275.297-.529.274-.255-.02-.337-.487-.381-.55-.043-.064-.424-.085-.445-.148-.021-.065 1.165-1.313 1.611-1.78.444-.465.698-.911 1.164-.995.467-.084 1.143-.065 1.357.043.212.105.68-.108.805-.15.126-.041.55-.127.636-.041.085.083-.255.443-.085.508.17.063.657-.085.847-.212.19-.128-.106-.445.084-.637.192-.19.616-.591.828-.656.211-.063.74-.19.825-.106.088.085.088.36.192.51.106.148.53-.255.633-.384.108-.126.191-.38.362-.507.17-.127.467-.064.53-.02.065.04-.17.105-.276.465-.105.36-.189.467-.508.635-.317.17-.806.7-.913.847-.105.149-.657.467-.783.742-.125.276-.106.552-.21.593-.107.043-.32.086-.361.425-.044.34.105 1.122.127 1.314.021.19.085.614.127.824.043.213.02.467.192.404.168-.064.379-.254.4-.445.023-.19.107-.444.256-.508.147-.064.212-.275.252-.445.043-.17.259-.191.425-.36.17-.17.043-.488.129-.72.085-.234.487-.149.424-.382-.065-.232 0-.488-.043-.657-.044-.17-.13-.467-.086-.593.042-.127.424-.763.424-.763s.38-.063.55-.192c.17-.125.425-.062.55-.105.129-.041.574-.041.68.043.106.084.127.465.317.36.192-.106.32-.573.657-.764.34-.19 1.292-.613 1.504-.635.214-.02.468.148.572.022.106-.126 0-.212-.104-.51-.106-.295-.276-.634-.129-.634.15 0 .531.02.615-.17.084-.19.128-.55.17-.614.043-.064.169-.064.233.127.063.19.339.19.551.169.21-.021.424.212.486.317.065.108.362.234.617.34.251.105.4 0 .378-.211-.021-.212.065-.36.172-.34.105.022.36.085.424 0 .063-.085.296-.085.063-.317M35.644 55.304c.406.407.813.203 1.082.339.273.135 1.087.745 1.018.474-.068-.271-.408-1.084-.745-1.152-.34-.068-.678-.272-.678-.272v-.542s-1.085.746-.677 1.153M28.662 66.891c-.268-.203-1.286-.135-1.286-.135l1.627 1.017s.881.27 1.22.338c.338.068-.135-.27-.339-.407-.202-.134-.95-.609-1.222-.813M30.9 68.111s.271.813.678.745c.408-.068.678-.406.474-.542-.202-.135-.95-.271-1.153-.203M33.746 46.63c.271-.339.61-1.016.61-1.016s-1.22-.135-1.559-.406c-.34-.272-.34-.882-.34-1.084 0-.205-.067-.815-.607-1.084-.543-.272-1.628-.543-1.966-.679-.34-.136-.202-.61-.543-.881-.338-.272-1.15-.203-1.15-.203l-.746.135-.611.95-.204-1.018s-.675-.067-.948.407c-.27.474-.475.814-.203 1.085.27.271.814.609 1.083.541.272-.068 1.492.542 1.492.542s.068-.203.542-.203c.474 0 1.017.203 1.355.475.34.271.61.338.746.813.135.475 0 .812-.066 1.152-.07.34-1.425 1.085-1.425 1.085s1.288-.272 1.56 0c.27.27.405.744.879.88.386.111 1.313.176 1.532.196-.263-.073-1.513-1.205-.921-1.008.61.202 1.151.202.88-.136-.27-.339-.746-.745-.746-.745l-.678-.34 1.018-.068s.746.949 1.016.61M46.891 43.309c-.338-.27-.405-.541 0-.61.408-.066.746.069.68-.405-.068-.475.27-.61.409-.814.133-.202.2-.677.2-.677v-.813s0-.339-.067-.542c-.07-.204.067-.475.135-.745.067-.272.678-1.017.678-1.017l.472-.678s.34-.406.545-.475c.2-.066.608-.339.608-.339s-.882-.339-1.556-.067c-.68.27-1.358.611-1.696.475-.339-.135 0-.61-.203-.61h-1.49s2.71-.476 2.1-.61c-.61-.136-1.424-.407-1.897-.542-.475-.136-1.49-.408-2.51-.271-1.014.135-1.49.338-2.03.406-.542.068-1.153.135-1.423.34-.272.201 0 .677-.204.812-.203.136-.542-.068-.813-.272-.273-.203-.746-.135-.746-.135s-.339.543-.608.474c-.273-.067-.75-.339-.75-.339s-1.556.204-1.828.272c-.27.067-.337.611-.744.543-.407-.068-1.152.338-1.287.542-.137.203.677-.137.677.203 0 .338.066.744-.338.676a2.692 2.692 0 0 0-1.424.137c-.542.203-1.287.475-.813.541.475.069 2.168.137 2.168.137l-1.628.677.95.407s1.424-.204 1.897-.069c.476.136 1.56.61 1.897.882.341.27.68 1.423.545 1.694-.137.27.54 0 .81.406.272.406.206.678 0 .813-.201.136-.81.136-.54.408.27.27 1.016.202.88.473-.134.271-.678.407-.678.745 0 .34.544 1.627.677 1.967.137.339.679 1.219.883 1.355.203.135.677.473.677.473s.407.203.814.34c.407.135.609-1.153.813-1.559.203-.407 1.693-1.965 2.1-2.102.408-.135 1.491-1.015 1.491-1.015.542-.068 1.626-.61 2.167-.813.542-.204.339-.407 0-.68M50.008 46.698c.135-.474-.133-.678-.472-.745-.339-.068-1.423.678-1.423.678l-.68-.34c-.609.137-.676.407-.609.678.067.272 1.016.746 1.627.679.61-.07 1.424-.475 1.557-.95M15.315 42.497c.27-.136.677.27.95.474.268.203.743.203 1.218.406.474.204-1.016.408-1.016.408s.474.27.745.406c.27.135 1.016.406 1.423.406.407 0 1.424-.61 1.424-.61s.474.204 1.017.272c.54.067.54-.407.338-.746-.203-.34-.543-.204-.813-.34-.274-.133-.407-1.015-.407-1.015l-.544-.542s-.336.338-.472.068c-.136-.272-.407.135-.678.27-.272.137-.61.204-1.017-.27-.405-.476-.745-.542-1.218-.814-.476-.27-.883-.339-1.491-.203-.611.136-.814.272-.882.541-.068.272.068 1.153.474 1.492.408.34.677-.067.949-.203M22.43 41.142c-.406.066-.745.066-.745.338v.27l-.408.272s.408.611.883.746c.474.135 1.421-.204 1.083-.474-.34-.272-.677-.745-.677-.745s.271-.475-.136-.407M24.733 41.684c-.133-.34-1.015-.34-1.015-.34s.066.61 0 1.017c-.068.407-.475.948-.475.948s.272.34.475.475c.203.135.882-.407.882-.407l-.61-.61.2-.676s.68-.069.543-.407M23.92 37.685c.27.136.475.61.544.746.066.136.066.407.541.203.474-.203 1.083-.067 1.083-.067s-.474.27-.677.34c-.151.048-1.207.476-1.79.577.343.044.8.134.843.302.066.271.202.949.406 1.017.201.067 1.692-.136 1.692-.136s1.087-.067 1.357-.067c.272 0 1.221-.408.677-.475-.542-.068-1.966.067-2.236.067-.272 0-.814-.27-.814-.27s.409-.474.747-.407c.337.068 1.356.068 1.83-.067.473-.136.811 0 .811-.271 0-.27.206-.34.544-.543.337-.203.541-.474.541-.474-.068-.339-.135-.745.135-.745.272 0 .949-.135.949-.135s1.085-.747 1.287-.883c.205-.134.746-.27 1.086-.405.339-.137.879-.34.879-.34s-.202-.203-1.15-.406c-.949-.203-2.034.406-2.644.406-.61 0-1.355-.067-2.033.068-.678.135-1.286-.27-2.032 0-.747.272-1.085.339-1.22.543-.136.204-.543.134-.949.134-.406 0-1.22.611-.95.815.273.203.273.338.544.473M23.718 40.125s-.543.475-.34.542l.611.203-.271-.745zM20.398 39.448s.067.338.203.61c.135.271.676.204.88.406.204.203.814.135 1.153-.068.337-.204-.27-.813-.27-.813l-.68.068-1.286-.203zM17.415 40.396s.204.543.474.407c.273-.136.882-.339 1.152-.272.273.068.744-.202.744-.677 0-.475-.744-.475-.744-.475l-.541.61s-.747-.203-1.085-.338c-.337-.136-.745.135-.677.474.067.34.677.27.677.27M14.57 40.125c.473.34.609-.204.812-.474.204-.271.61.135.949-.203.339-.34.272-.813.272-.813s-1.56.406-1.898.61c-.339.203-.61.541-.136.88M18.025 39.312c.338.136.407-.135.679-.406.27-.271.202-.611 0-.746-.204-.135-1.221.475-1.221.475s.204.542.542.677M20.327 38.5c.274-.069.95.203 1.358.406.406.202.61.067.61-.203 0-.272-.408-.543-.746-.746-.338-.204-1.222-.068-1.222-.068s-.268.678 0 .61"/><path d="M23.851 39.177c.476.067.545-.407.34-.543-.202-.134-.54-.34-.54-.34l-1.017-.202s.743 1.016 1.217 1.085M41.607 77.801c-.408-.203-1.558-.745-2.101-1.085-.54-.337-1.219.138-1.219.138l-.069-1.018s-.272-1.016-.677-1.694c-.407-.677-1.152-.339-1.762-.27-.61.067-.746-.61-1.017-.747-.27-.135-.338-.61-.338-.61s-.678-.202-1.016-.338c-.338-.134-1.422-.406-1.696-.474-.269-.069-.405.745-.61.677-.203-.067-.134-.746-.405-.746s-1.153 1.086-1.153 1.086l-.066.405-.678-.677-1.085.135s-.202-.473-.473-.812c-.272-.338 0-.543.134-1.084.137-.543-.406-.475-.814-.61-.406-.136-.88-.136-.88-.136l.204-.881s.27-1.219.202-1.424c-.067-.203-.746 0-.88.205-.137.202-.609.812-.609.812s-.881.271-1.153.067c-.272-.201-.34-.54-.609-.879-.27-.34-.34-1.085-.407-1.763-.067-.678.067-1.083.204-1.287.134-.204.88-.61 1.287-.813.406-.204 1.084 0 1.084 0s.677-.136 1.219-.271.949.543 1.152.88c.203.34.474 1.22.948.95.476-.272 0-.679-.066-1.017-.067-.339.136-1.016.202-1.626.068-.61.474-.475.948-1.152.476-.678.136-.678.136-1.016 0-.34.205-.61.61-.882.407-.271.34-.271 1.017-.814.679-.54.272-.609.745-1.355.33-.52.63-.614.965-.852l.324.243s-.135.475-.069.813c.07.339.473-.338.679-.542.203-.204.61-.474.677-.813.068-.339-.407.135-.61 0-.12-.08-.286-.23-.404-.339.297-.505-.1-.663-.342-1.085-.27-.474-1.15.34-1.15.34s.609-.747.812-.882c.203-.135 1.017 0 1.762 0 .744 0 .882-.744 1.49-.948.61-.203.339-.474.135-.746-.202-.271-.88-.474-1.217-.744-.341-.271-.68-.408-.747-1.424-.068-1.016-.881-1.152-.881-1.152s-.68.814-1.152.677c-.476-.134-.272-.743-.476-1.151-.204-.406-1.08-.61-1.558-.542-.472.069-.948-.069-1.15.406-.204.474.202 1.153.54 1.558.34.407-.203 1.491-.404 1.695-.206.203-.137 1.559-.68 1.694-.54.135-.674-1.627-.947-1.76-.27-.138-2.306-1.018-2.643-1.358-.34-.338-1.086-.609-1.355-1.219-.272-.61 1.556-1.626 1.827-1.829.272-.204.746 0 1.154.135.406.135.61.068.811-.202.206-.272.206-.544.206-.544s-1.558 0-1.29-.068c.273-.067.814-.54.814-.54s.612-.543 1.154-1.017c.541-.475-.137-.543-.34-1.017-.202-.474-.814-.203-.814-.203l-.407 1.152s-.542-.069-.675-.272c-.136-.203-.748-.813-1.154-1.015-.405-.205-.677.202-.812.473-.138.271-1.152.271-1.152.271s-.813.136-1.084.27c-.272.137-1.493-.337-2.035-.405-.54-.067-.068 1.016-.2 1.22-.137.203-.747-.407-1.086-.542-.339-.136-1.153-.34-1.153-.34s-1.014-.609-1.49-.812c-.474-.204-1.965-.34-2.439-.745-.474-.407-1.017.067-1.29 0-.269-.069-.947.61-1.218.677-.27.068-.949-.136-1.828-.136-.882 0-2.304-.61-2.915-.948-.61-.34-2.71.27-3.117.338-.407.069-1.423.204-1.49.746-.069.542-1.22.813-1.22.813l1.693.677s-.406.34-.611.34c-.202 0-.81-.542-1.083-.34-.271.204-.34.61-.202.882.134.271.948.271 1.558.135.609-.135.406.406.473.678.069.272-.88.202-1.15.34-.272.134-.272.812 0 1.218.27.406.745.813 1.219.95.474.135.745.27.745.27s-.61.88-.406 1.152c.203.271.745-.61 1.017-.814.27-.203.88-.948.88-.948l.611-1.085-.136 1.085s.338.34.88-.204c.542-.54.339-.812.339-.812s1.355.745 1.626.678c.271-.069 1.289.202 1.695.61.406.405.879 1.287 1.084 1.287.204 0-.136-.542.204-.475.337.068 1.015 1.084 1.286 1.626.27.544.814 1.762.95 2.034.134.27.406.203.61.541.202.34.541 1.22.541 1.558 0 .34-.135 1.492.135 2.577.27 1.083.61 2.44 1.22 2.914.61.473.949 1.287 1.083 1.557.137.272.611 1.56.95 2.237.339.678.813 1.15.88.678.069-.474-1.489-3.119-1.489-3.119s.27-.27.473-.27c.205 0 .61 1.423.61 1.423s1.627 2.168 1.761 2.438c.136.274.136 1.29.542 1.831.408.542 3.186 1.084 3.39 1.016.201-.068.677.679.88.882.203.203 1.289.542 1.626.814.34.27.474.948.814 1.423.337.474.61.337 1.016.405.408.069.542-.203.542-.203l.475.677s.067.95 0 1.153c-.069.204-.407.949-.679 1.491-.27.543-.133.947-.133 1.287 0 .34-.069 1.151.405 1.626.474.474.745 1.898.948 2.373.205.474 1.087 1.355 1.424 1.626.34.27.475 1.016.61 1.559.134.54-.135 1.762-.135 2.033 0 .27-.272 3.59-.34 3.929-.066.339-.472 1.965-.472 2.304 0 .34-.205 1.22-.205 1.22s.271.338.068.88c-.203.544-.34 1.222-.406 1.695-.069.474 0 1.898.203 2.236.203.34.677 1.083 1.287 1.489.61.41.812-.406.812-.406s-.404-.947-.54-1.354c-.138-.407.202-.745.608-1.422.408-.678.203-.61-.135-.949-.337-.339.272-.745.747-1.289.473-.542.135-.744.27-1.016.136-.27.475-.61.475-.813 0-.203.88-.338 1.421-.543.543-.203.68-.677.475-1.287-.203-.61-.27-1.151-.27-1.151s.88.473 1.558-.07c.677-.54.609-.88 1.151-1.625.543-.744.205-1.015.273-1.625.066-.61 1.016-.882 1.83-1.222.812-.338.745-.27 1.218-1.083.474-.813.338-1.761.271-2.305-.068-.541.474-1.015.882-1.557.406-.542.676-1.491.542-2.102-.136-.608-1.152-.745-1.559-.948M88.712 38.333c-.314-.315-.745-.315-.905-.354-.155-.038-.627.708-.627.708s.667-.158.944-.197c.274-.04.902.156.588-.157M85.177 37.901c.157-.04.354.117.63.117.273 0 .746.157.746.157l.547-.274s-.037-.157-.194-.236c-.158-.078-.158-.236-.314-.355-.156-.116-.196-.234-.47-.43-.277-.196-.197-.118-.435 0-.235.118-.353.275-.547.471-.198.197-.669.04-.551.43.117.394.433.16.588.12M58.986 38.568c.157.078.393.235.393.235s-.393.51-.393.669c0 .158.393.196.942.353.55.157.708-.353.708-.353s.118-.314.234-.354c.118-.04.393.078.59.275.197.196.432.156.863-.039.434-.196-.43-.315-.43-.315s-.551-.236-.71-.47c-.156-.236-.468-.394-.626-.511-.158-.117-.47-.55-.47-.55s-.473.157-.63.118c-.155-.04-.314-.275-.51-.197-.196.08-.393.156-.355.512.04.353.236.55.394.627M61.303 37.94c.236 0 .942.118 1.414.197.472.078.863-.511.785-.668-.079-.159-.59.04-.707.04-.12 0-.785-.158-1.098-.393-.316-.237-.747.117-.747.117l-.196.275s.314.433.55.433"/></g></g></g></svg>