<svg id="Layer_1" xmlns="http://www.w3.org/2000/svg" viewBox="0 0 446 301" enable-background="new 0 0 446 301"><style>.st0{fill:#326778}.st1{fill:#3a3a3a}.st2{fill:none;stroke:#326778;stroke-width:1.8}.st3{filter:url(#Adobe_OpacityMaskFilter)}.st4{fill:#fff}.st5{mask:url(#mask-2)}.st6{opacity:.4031;fill:none;stroke:#f68565;stroke-width:.5;enable-background:new}.st7{fill:#479692}</style><title>Aum</title><path id="Fill-74" class="st0" d="M13 123.4h168.5V112H13z"/><path id="Fill-75" class="st0" d="M262 123.4h168.5V112H262z"/><g id="Group-2" transform="translate(0 152)"><path id="Fill-73" class="st0" d="M0 123.4h445.1V112H0z"/><path id="Fill-76" class="st0" d="M170 148.5h97.1V114H170z"/></g><path id="Aggregate-AUM" class="st1" d="M109.8 230.2l-3.2-8.7c-.2-.4-.3-.8-.5-1.4s-.3-1.1-.5-1.7c-.2.6-.3 1.2-.5 1.7s-.3 1-.5 1.4l-3.2 8.6h8.4zm8.6 9.8h-3.7c-.4 0-.8-.1-1-.3-.3-.2-.5-.5-.6-.8l-1.9-5.3h-10.8l-1.9 5.3c-.1.3-.3.5-.6.8-.3.2-.6.3-1 .3H93l10.2-26h4.9l10.3 26zm8.7-9.7c.6 0 1-.1 1.4-.2.4-.2.7-.4 1-.6.3-.3.5-.6.6-1 .1-.4.2-.8.2-1.2 0-.9-.3-1.6-.8-2.2s-1.4-.8-2.5-.8-1.9.3-2.5.8c-.5.5-.8 1.3-.8 2.2 0 .4.1.8.2 1.2.1.4.3.7.6 1 .3.3.6.5 1 .6.6.2 1.1.2 1.6.2zm5.1 10.6c0-.4-.1-.7-.3-.9-.2-.2-.5-.4-.9-.5-.4-.1-.8-.2-1.3-.3s-1-.1-1.6-.1c-.6 0-1.1-.1-1.7-.1s-1.2-.1-1.7-.1c-.5.3-.9.6-1.2 1-.3.4-.5.8-.5 1.3 0 .3.1.6.2.9s.4.5.8.7c.4.2.8.4 1.4.5s1.3.2 2.1.2 1.5-.1 2.1-.2c.6-.1 1.1-.3 1.5-.5s.7-.5.9-.8c.1-.5.2-.8.2-1.1zm4.4-18.7v1.7c0 .5-.3.9-1 1l-1.7.3c.3.6.4 1.3.4 2.1 0 .9-.2 1.7-.5 2.5s-.9 1.4-1.5 1.9-1.4.9-2.3 1.2-1.8.4-2.9.4c-.4 0-.7 0-1-.1-.3 0-.7-.1-1-.1-.6.3-.9.7-.9 1.2 0 .4.2.6.5.8.3.2.8.3 1.4.4.6.1 1.2.1 1.9.1s1.5.1 2.2.1c.8.1 1.5.2 2.2.3.7.2 1.4.4 1.9.7.6.3 1 .8 1.4 1.3.3.6.5 1.3.5 2.2 0 .8-.2 1.6-.6 2.4-.4.8-1 1.5-1.7 2.1-.8.6-1.7 1.1-2.8 1.4-1.1.4-2.4.5-3.8.5s-2.6-.1-3.6-.4-1.9-.6-2.6-1.1c-.7-.4-1.2-1-1.5-1.6-.3-.6-.5-1.2-.5-1.8 0-.9.3-1.6.8-2.2s1.2-1 2.2-1.4c-.5-.3-.9-.6-1.2-1-.3-.4-.4-1-.4-1.7 0-.3.1-.6.2-.9.1-.3.3-.6.4-.9.2-.3.4-.6.7-.8s.7-.5 1.1-.7c-.9-.5-1.7-1.2-2.2-2-.5-.8-.8-1.8-.8-3 0-.9.2-1.7.5-2.5.4-.7.9-1.4 1.5-1.9.7-.5 1.4-.9 2.3-1.2s1.9-.4 2.9-.4c.8 0 1.5.1 2.2.2.7.2 1.3.4 1.9.7h5.4zm9.6 8.1c.6 0 1-.1 1.4-.2.4-.2.7-.4 1-.6.3-.3.5-.6.6-1 .1-.4.2-.8.2-1.2 0-.9-.3-1.6-.8-2.2-.5-.5-1.4-.8-2.5-.8s-1.9.3-2.5.8c-.5.5-.8 1.3-.8 2.2 0 .4.1.8.2 1.2.1.4.3.7.6 1 .3.3.6.5 1 .6.5.2 1 .2 1.6.2zm5 10.6c0-.4-.1-.7-.3-.9s-.5-.4-.9-.5c-.4-.1-.8-.2-1.3-.3s-1-.1-1.6-.1c-.6 0-1.1-.1-1.7-.1-.6 0-1.2-.1-1.7-.1-.5.3-.9.6-1.2 1-.3.4-.5.8-.5 1.3 0 .3.1.6.2.9s.4.5.8.7c.4.2.8.4 1.4.5.6.1 1.3.2 2.1.2s1.5-.1 2.1-.2c.6-.1 1.1-.3 1.5-.5.4-.2.7-.5.9-.8.1-.5.2-.8.2-1.1zm4.4-18.7v1.7c0 .5-.3.9-1 1l-1.7.3c.3.6.4 1.3.4 2.1 0 .9-.2 1.7-.5 2.5s-.9 1.4-1.5 1.9-1.4.9-2.3 1.2-1.8.4-2.9.4c-.4 0-.7 0-1-.1s-.7-.1-1-.1c-.6.3-.9.7-.9 1.2 0 .4.2.6.5.8.3.2.8.3 1.4.4.6.1 1.2.1 1.9.1s1.5.1 2.2.1c.8.1 1.5.2 2.2.3.7.2 1.4.4 1.9.7.6.3 1 .8 1.4 1.3.3.6.5 1.3.5 2.2 0 .8-.2 1.6-.6 2.4-.4.8-1 1.5-1.7 2.1s-1.7 1.1-2.8 1.4c-1.1.4-2.4.5-3.8.5s-2.6-.1-3.6-.4c-1-.3-1.9-.6-2.6-1.1-.7-.4-1.2-1-1.5-1.6-.3-.6-.5-1.2-.5-1.8 0-.9.3-1.6.8-2.2s1.2-1 2.2-1.4c-.5-.3-.9-.6-1.2-1-.3-.4-.4-1-.4-1.7 0-.3.1-.6.2-.9.1-.3.3-.6.4-.9.2-.3.4-.6.7-.8s.7-.5 1.1-.7c-.9-.5-1.7-1.2-2.2-2-.5-.8-.8-1.8-.8-3 0-.9.2-1.7.5-2.5s.9-1.4 1.5-1.9 1.4-.9 2.3-1.2c.9-.3 1.9-.4 2.9-.4.8 0 1.5.1 2.2.2s1.3.4 1.9.7h5.4zm7 2.6c.6-1.1 1.3-2 2.1-2.6.8-.6 1.7-.9 2.8-.9.9 0 1.5.2 2.1.6l-.3 3.3c-.1.2-.1.4-.3.5-.1.1-.3.1-.5.1s-.4 0-.8-.1-.7-.1-1-.1c-.5 0-.9.1-1.3.2s-.7.4-1 .6c-.3.3-.6.6-.8 1-.2.4-.5.8-.7 1.3V240h-4.4v-18.5h2.6c.5 0 .8.1 1 .2.2.2.3.5.4.9l.1 2.2zm21.1 3.9c0-.6-.1-1.1-.2-1.6s-.4-1-.7-1.3c-.3-.4-.7-.7-1.2-.9s-1.1-.3-1.7-.3c-1.3 0-2.3.4-3 1.1s-1.2 1.8-1.4 3.1h8.2zm-8.4 2.7c.1.9.2 1.8.5 2.5s.6 1.3 1 1.7c.4.5.9.8 1.5 1 .6.2 1.3.3 2 .3s1.3-.1 1.9-.3 1-.4 1.4-.6c.4-.2.7-.4 1-.6.3-.2.6-.3.9-.3.4 0 .6.1.8.4l1.3 1.6c-.5.6-1 1.1-1.7 1.4-.6.4-1.3.7-1.9.9-.7.2-1.3.4-2 .5-.7.1-1.4.1-2 .1-1.3 0-2.5-.2-3.6-.6-1.1-.4-2.1-1.1-2.9-1.9-.8-.8-1.5-1.9-1.9-3.1-.5-1.2-.7-2.7-.7-4.3 0-1.3.2-2.4.6-3.6.4-1.1 1-2.1 1.8-2.9.8-.8 1.7-1.5 2.8-2 1.1-.5 2.3-.7 3.7-.7 1.2 0 2.2.2 3.2.6 1 .4 1.8.9 2.5 1.6s1.3 1.6 1.7 2.6c.4 1 .6 2.2.6 3.6 0 .7-.1 1.1-.2 1.4-.1.2-.4.4-.8.4h-11.5zm22.5-1.1c.6 0 1-.1 1.4-.2.4-.2.7-.4 1-.6.3-.3.5-.6.6-1 .1-.4.2-.8.2-1.2 0-.9-.3-1.6-.8-2.2s-1.4-.8-2.5-.8-1.9.3-2.5.8-.8 1.3-.8 2.2c0 .4.1.8.2 1.2.1.4.3.7.6 1 .3.3.6.5 1 .6.6.2 1.1.2 1.6.2zm5 10.6c0-.4-.1-.7-.3-.9-.2-.2-.5-.4-.9-.5-.4-.1-.8-.2-1.3-.3s-1-.1-1.6-.1c-.6 0-1.1-.1-1.7-.1s-1.2-.1-1.7-.1c-.5.3-.9.6-1.2 1-.3.4-.5.8-.5 1.3 0 .3.1.6.2.9.2.3.4.5.8.7.4.2.8.4 1.4.5.6.1 1.3.2 2.1.2s1.5-.1 2.1-.2c.6-.1 1.1-.3 1.5-.5s.7-.5.9-.8c.1-.5.2-.8.2-1.1zm4.5-18.7v1.7c0 .5-.3.9-1 1l-1.7.3c.3.6.4 1.3.4 2.1 0 .9-.2 1.7-.5 2.5s-.9 1.4-1.5 1.9-1.4.9-2.3 1.2c-.9.3-1.8.4-2.9.4-.4 0-.7 0-1-.1-.3 0-.7-.1-1-.1-.6.3-.9.7-.9 1.2 0 .4.2.6.5.8.3.2.8.3 1.4.4.6.1 1.2.1 1.9.1s1.5.1 2.2.1c.8.1 1.5.2 2.2.3.7.2 1.4.4 1.9.7.6.3 1 .8 1.4 1.3.3.6.5 1.3.5 2.2 0 .8-.2 1.6-.6 2.4-.4.8-1 1.5-1.7 2.1-.8.6-1.7 1.1-2.8 1.4-1.1.4-2.4.5-3.8.5s-2.6-.1-3.6-.4c-1-.3-1.9-.6-2.6-1.1s-1.2-1-1.5-1.6c-.3-.6-.5-1.2-.5-1.8 0-.9.3-1.6.8-2.2s1.2-1 2.2-1.4c-.5-.3-.9-.6-1.2-1-.3-.4-.4-1-.4-1.7 0-.3.1-.6.2-.9.1-.3.3-.6.4-.9.2-.3.4-.6.7-.8.3-.3.7-.5 1.1-.7-.9-.5-1.7-1.2-2.2-2-.5-.8-.8-1.8-.8-3 0-.9.2-1.7.5-2.5s.9-1.4 1.5-1.9 1.4-.9 2.3-1.2c.9-.3 1.9-.4 2.9-.4.8 0 1.5.1 2.2.2.7.2 1.3.4 1.9.7h5.4zm12.5 9.9c-1.3.1-2.4.2-3.2.3s-1.6.4-2.1.6c-.5.3-.9.5-1.1.9-.2.3-.3.7-.3 1.1 0 .8.2 1.3.7 1.7.5.3 1.1.5 1.8.5.9 0 1.7-.2 2.4-.5s1.3-.8 2-1.5v-3.1zm-10.2-8c2.1-1.9 4.7-2.9 7.7-2.9 1.1 0 2 .2 2.9.5.9.4 1.6.8 2.2 1.5.6.6 1 1.4 1.3 2.3.3.9.5 1.8.5 2.9V240h-2c-.4 0-.7-.1-1-.2-.2-.1-.4-.4-.5-.8l-.4-1.3c-.5.4-.9.8-1.4 1.1-.4.3-.9.6-1.4.8-.5.2-1 .4-1.5.5s-1.1.2-1.8.2c-.8 0-1.5-.1-2.2-.3-.7-.2-1.2-.5-1.7-.9s-.9-.9-1.1-1.6c-.3-.6-.4-1.4-.4-2.2 0-.5.1-.9.2-1.4.2-.5.4-.9.8-1.3s.8-.8 1.4-1.2c.6-.4 1.3-.7 2.1-1s1.8-.5 2.9-.7c1.1-.2 2.3-.3 3.7-.3v-1.1c0-1.2-.3-2.2-.8-2.7-.5-.6-1.3-.9-2.3-.9-.7 0-1.3.1-1.8.3s-.9.4-1.3.6c-.4.2-.7.4-1 .6-.3.2-.6.3-1 .3-.3 0-.6-.1-.8-.2-.2-.2-.4-.4-.5-.6l-.8-1.6zm24.9 16.2c-1.6 0-2.8-.5-3.7-1.4s-1.3-2.2-1.3-3.8v-10.3h-1.9c-.2 0-.4-.1-.6-.2-.2-.2-.3-.4-.3-.7v-1.8l3-.5.9-5 .3-.6c.1-.2.4-.2.6-.2h2.3v5.8h4.9v3.2H234v10c0 .6.1 1 .4 1.4s.7.5 1.2.5c.3 0 .5 0 .7-.1.2-.1.3-.1.5-.2.1-.1.3-.1.4-.2.1-.1.2-.1.3-.1.1 0 .2 0 .3.1l.3.3 1.3 2.2c-.6.5-1.4.9-2.2 1.2-.9.3-1.8.4-2.7.4zm19.1-11.6c0-.6-.1-1.1-.2-1.6-.2-.5-.4-1-.7-1.3s-.7-.7-1.2-.9-1.1-.3-1.7-.3c-1.3 0-2.3.4-3 1.1s-1.2 1.8-1.4 3.1h8.2zm-8.4 2.7c.1.9.2 1.8.5 2.5s.6 1.3 1 1.7c.4.5.9.8 1.5 1 .6.2 1.3.3 2 .3s1.3-.1 1.9-.3 1-.4 1.4-.6c.4-.2.7-.4 1-.6.3-.2.6-.3.9-.3.4 0 .6.1.8.4l1.3 1.6c-.5.6-1 1.1-1.7 1.4-.6.4-1.3.7-1.9.9-.7.2-1.3.4-2 .5-.7.1-1.4.1-2 .1-1.3 0-2.5-.2-3.6-.6-1.1-.4-2.1-1.1-2.9-1.9-.8-.8-1.5-1.9-1.9-3.1-.5-1.2-.7-2.7-.7-4.3 0-1.3.2-2.4.6-3.6.4-1.1 1-2.1 1.8-2.9.8-.8 1.7-1.5 2.8-2 1.1-.5 2.3-.7 3.7-.7 1.2 0 2.2.2 3.2.6 1 .4 1.8.9 2.5 1.6.7.7 1.3 1.6 1.7 2.6.4 1 .6 2.2.6 3.6 0 .7-.1 1.1-.2 1.4-.1.2-.4.4-.8.4h-11.5zm39-1.2l-3.2-8.7c-.2-.4-.3-.8-.5-1.4s-.3-1.1-.5-1.7c-.2.6-.3 1.2-.5 1.7s-.3 1-.5 1.4l-3.1 8.6h8.3zm8.5 9.8H289c-.4 0-.8-.1-1-.3-.3-.2-.5-.5-.6-.8l-1.9-5.3h-10.8l-1.9 5.3c-.1.3-.3.5-.6.8-.3.2-.6.3-1 .3h-3.8l10.2-26h4.9l10.2 26zm13.2-3.9c.9 0 1.8-.2 2.5-.5s1.4-.8 1.9-1.3c.5-.6.9-1.2 1.2-2.1.3-.8.4-1.7.4-2.7V214h4.8v15.6c0 1.5-.2 3-.7 4.3-.5 1.3-1.2 2.4-2.1 3.4-.9 1-2.1 1.7-3.4 2.2-1.3.5-2.8.8-4.5.8-1.7 0-3.2-.3-4.5-.8-1.3-.5-2.5-1.3-3.4-2.2-.9-1-1.6-2.1-2.1-3.4-.5-1.3-.7-2.7-.7-4.3V214h4.8v15.6c0 1 .1 1.9.4 2.7.3.8.7 1.5 1.2 2.1.5.6 1.1 1 1.9 1.3.5.3 1.3.4 2.3.4zm44.5-22.1v26h-4.3v-16.8c0-.7 0-1.4.1-2.2l-7.9 14.8c-.4.7-.9 1.1-1.7 1.1h-.7c-.8 0-1.3-.4-1.7-1.1l-8-14.8c0 .4.1.8.1 1.2V240H322v-26h4.3c.2 0 .3 0 .4.1s.2.1.3.2c.1.1.2.3.3.4l7.8 14.5.6 1.2c.2.4.3.8.5 1.3.2-.4.3-.9.5-1.3l.6-1.2 7.7-14.4c.1-.2.2-.3.3-.4s.2-.2.4-.2.3-.1.4-.1h4.3z"/><path id="We-service-investmen" class="st1" d="M170.5 1l-8.1 26H158l-5.7-17.8c-.2-.4-.3-1-.4-1.6-.1.3-.1.6-.2.8-.1.3-.2.5-.2.7L145.8 27h-4.4l-8.1-26h4.1c.4 0 .8.1 1.1.3.3.2.5.5.6.8l4.4 15.6c.1.4.2.8.3 1.3.1.5.2.9.3 1.4.1-.5.2-1 .3-1.4s.2-.9.4-1.2l5.1-15.6c.1-.3.3-.5.6-.8.3-.2.6-.3 1-.3h1.4c.4 0 .8.1 1 .3.3.2.5.5.6.8l5.1 15.6c.3.7.5 1.6.7 2.6.2-.9.3-1.8.5-2.6l4.4-15.6c.1-.3.3-.6.5-.8.3-.2.6-.3 1.1-.3h3.7zm14.4 14.6c0-.6-.1-1.1-.2-1.6-.2-.5-.4-1-.7-1.3s-.7-.7-1.2-.9c-.5-.2-1.1-.3-1.7-.3-1.3 0-2.3.4-3 1.1-.7.7-1.2 1.8-1.4 3.1h8.2zm-8.5 2.7c.1.9.2 1.8.5 2.5s.6 1.3 1 1.7c.4.5.9.8 1.5 1 .6.2 1.3.3 2 .3s1.3-.1 1.9-.3 1-.4 1.4-.6c.4-.2.7-.4 1-.6.3-.2.6-.3.9-.3.4 0 .6.1.8.4l1.3 1.6c-.5.6-1 1.1-1.7 1.4-.6.4-1.3.7-1.9.9-.7.2-1.3.4-2 .5s-1.4.1-2 .1c-1.3 0-2.5-.2-3.6-.6-1.1-.4-2.1-1.1-2.9-1.9-.8-.8-1.5-1.9-1.9-3.1-.5-1.2-.7-2.7-.7-4.3 0-1.3.2-2.4.6-3.6s1-2.1 1.8-2.9 1.7-1.5 2.8-2 2.3-.7 3.7-.7c1.2 0 2.2.2 3.2.6 1 .4 1.8.9 2.5 1.6s1.3 1.6 1.7 2.6c.4 1 .6 2.2.6 3.6 0 .7-.1 1.1-.2 1.4s-.4.4-.8.4h-11.5zm35.9-6.2c-.1.2-.2.3-.4.4-.1.1-.3.1-.5.1s-.4-.1-.7-.2-.5-.3-.9-.4c-.3-.2-.7-.3-1.1-.4-.4-.1-.9-.2-1.5-.2-.9 0-1.6.2-2.1.6s-.7.9-.7 1.5c0 .4.1.7.4 1 .3.3.6.5 1 .7.4.2.9.4 1.4.5s1.1.3 1.6.5c.6.2 1.1.4 1.6.7.5.2 1 .6 1.4.9.4.4.8.8 1 1.4.3.5.4 1.2.4 1.9 0 .9-.2 1.7-.5 2.5s-.8 1.4-1.4 1.9c-.6.5-1.4 1-2.3 1.3-.9.3-2 .5-3.2.5-.6 0-1.3-.1-1.9-.2s-1.2-.3-1.7-.5c-.6-.2-1.1-.4-1.5-.7s-.9-.6-1.3-.9l1-1.7c.1-.2.3-.4.5-.5.2-.1.4-.2.7-.2s.5.1.8.2c.2.2.5.3.9.5.3.2.7.3 1.1.5.4.2 1 .2 1.7.2.5 0 1-.1 1.4-.2.4-.1.7-.3.9-.5s.4-.4.5-.7c.1-.3.2-.5.2-.8 0-.4-.1-.8-.4-1.1-.3-.3-.6-.5-1-.7-.4-.2-.9-.4-1.5-.5s-1.1-.3-1.7-.5c-.6-.2-1.1-.4-1.7-.7-.5-.3-1-.6-1.5-1s-.8-.9-1-1.5c-.3-.6-.4-1.3-.4-2.1s.1-1.5.4-2.2c.3-.7.7-1.3 1.3-1.8s1.3-.9 2.2-1.2c.9-.3 1.9-.5 3-.5 1.3 0 2.4.2 3.5.6 1 .4 1.9 1 2.6 1.7l-.6 1.8zm16.4 3.5c0-.6-.1-1.1-.2-1.6-.2-.5-.4-1-.7-1.3-.3-.4-.7-.7-1.2-.9-.5-.2-1.1-.3-1.7-.3-1.3 0-2.3.4-3 1.1-.7.7-1.2 1.8-1.4 3.1h8.2zm-8.5 2.7c.1.9.2 1.8.5 2.5s.6 1.3 1 1.7c.4.5.9.8 1.5 1 .6.2 1.3.3 2 .3s1.3-.1 1.9-.3 1-.4 1.4-.6c.4-.2.7-.4 1-.6.3-.2.6-.3.9-.3.4 0 .6.1.8.4l1.3 1.6c-.5.6-1 1.1-1.7 1.4-.6.4-1.3.7-1.9.9s-1.3.4-2 .5-1.4.1-2 .1c-1.3 0-2.5-.2-3.6-.6s-2.1-1.1-2.9-1.9c-.8-.8-1.5-1.9-1.9-3.1-.5-1.2-.7-2.7-.7-4.3 0-1.3.2-2.4.6-3.6s1-2.1 1.8-2.9c.8-.8 1.7-1.5 2.8-2s2.3-.7 3.7-.7c1.2 0 2.2.2 3.2.6s1.8.9 2.5 1.6c.7.7 1.3 1.6 1.7 2.6s.6 2.2.6 3.6c0 .7-.1 1.1-.2 1.4-.1.2-.4.4-.8.4h-11.5zm20-6.6c.6-1.1 1.3-2 2.1-2.6s1.7-.9 2.8-.9c.9 0 1.5.2 2.1.6l-.3 3.3c-.1.2-.1.4-.3.5-.1.1-.3.1-.5.1s-.4 0-.8-.1-.7-.1-1-.1c-.5 0-.9.1-1.3.2s-.7.4-1 .6c-.3.3-.6.6-.8 1-.2.4-.5.8-.7 1.3V27H236V8.5h2.6c.5 0 .8.1 1 .2.2.2.3.5.4.9l.2 2.1zm25.9-3.2L258.8 27h-4l-7.3-18.5h3.7c.3 0 .6.1.8.2.2.2.4.4.4.6l3.6 9.9c.2.6.4 1.1.5 1.7.1.6.3 1.1.4 1.7.1-.6.3-1.1.4-1.7.1-.6.3-1.1.5-1.7l3.6-9.9c.1-.2.2-.4.4-.6.2-.2.5-.2.8-.2h3.5zm7 0V27h-4.5V8.5h4.5zm.6-5.4c0 .4-.1.7-.2 1.1l-.6.9c-.2.3-.6.5-.9.6-.3.2-.7.2-1.1.2-.4 0-.7-.1-1.1-.2l-.9-.6c-.3-.3-.5-.5-.6-.9-.1-.3-.2-.7-.2-1.1 0-.4.1-.8.2-1.1s.4-.6.6-.9c.3-.3.5-.5.9-.6s.7-.2 1.1-.2c.4 0 .8.1 1.1.2.3.2.7.4.9.6s.5.6.6.9c.1.4.2.8.2 1.1zm17.2 9.3c-.1.2-.3.3-.4.4-.1.1-.3.1-.5.1s-.5-.1-.7-.2-.5-.3-.8-.5c-.3-.2-.7-.3-1.1-.5s-.9-.2-1.5-.2c-.8 0-1.5.1-2.1.4-.6.3-1.1.7-1.5 1.2-.4.5-.7 1.2-.9 1.9-.2.8-.3 1.6-.3 2.5 0 1 .1 1.9.3 2.6s.5 1.4.9 1.9.9.9 1.4 1.2c.6.3 1.2.4 1.9.4s1.3-.1 1.7-.3c.4-.2.8-.4 1.1-.6.3-.2.6-.4.8-.6.2-.2.5-.3.7-.3.4 0 .6.1.8.4l1.3 1.6c-.5.6-1 1.1-1.6 1.4-.6.4-1.2.7-1.8.9-.6.2-1.3.4-1.9.5-.7.1-1.3.1-2 .1-1.1 0-2.2-.2-3.2-.6s-1.9-1-2.6-1.9c-.8-.8-1.4-1.8-1.8-3-.4-1.2-.7-2.5-.7-4 0-1.4.2-2.6.6-3.8s1-2.2 1.7-3 1.7-1.5 2.8-2c1.1-.5 2.4-.7 3.9-.7 1.4 0 2.6.2 3.6.7 1 .4 2 1.1 2.8 1.9l-.9 2.1zm16 3.2c0-.6-.1-1.1-.2-1.6-.2-.5-.4-1-.7-1.3-.3-.4-.7-.7-1.2-.9-.5-.2-1.1-.3-1.7-.3-1.3 0-2.3.4-3 1.1-.7.7-1.2 1.8-1.4 3.1h8.2zm-8.5 2.7c.1.9.2 1.8.5 2.5s.6 1.3 1 1.7c.4.5.9.8 1.5 1 .6.2 1.3.3 2 .3s1.3-.1 1.9-.3 1-.4 1.4-.6c.4-.2.7-.4 1-.6.3-.2.6-.3.9-.3.4 0 .6.1.8.4l1.3 1.6c-.5.6-1 1.1-1.7 1.4-.6.4-1.3.7-1.9.9-.7.2-1.3.4-2 .5s-1.4.1-2 .1c-1.3 0-2.5-.2-3.6-.6s-2.1-1.1-2.9-1.9c-.8-.8-1.5-1.9-1.9-3.1-.5-1.2-.7-2.7-.7-4.3 0-1.3.2-2.4.6-3.6.4-1.1 1-2.1 1.8-2.9s1.7-1.5 2.8-2c1.1-.5 2.3-.7 3.7-.7 1.2 0 2.2.2 3.2.6s1.8.9 2.5 1.6 1.3 1.6 1.7 2.6.6 2.2.6 3.6c0 .7-.1 1.1-.2 1.4s-.4.4-.8.4h-11.5zM43.9 52.5V71h-4.5V52.5h4.5zm.6-5.4c0 .4-.1.7-.2 1.1l-.6.9c-.3.3-.6.5-.9.6s-.7.2-1.1.2c-.4 0-.7-.1-1.1-.2l-.9-.6c-.3-.3-.5-.5-.6-.9-.1-.3-.2-.7-.2-1.1 0-.4.1-.8.2-1.1l.6-.9c.3-.3.5-.5.9-.6.3-.1.7-.2 1.1-.2.4 0 .8.1 1.1.2.3.2.7.4.9.6.3.3.5.6.6.9.1.4.2.8.2 1.1zm8.1 7.7c.4-.4.8-.7 1.2-1 .4-.3.9-.6 1.3-.8.5-.2 1-.4 1.5-.5.5-.1 1.1-.2 1.7-.2 1 0 1.9.2 2.7.5.8.3 1.4.8 2 1.4.5.6.9 1.4 1.2 2.2.3.9.4 1.8.4 2.8V71h-4.4V59.2c0-1.1-.3-2-.8-2.6s-1.3-.9-2.4-.9c-.8 0-1.5.2-2.2.5s-1.3.8-1.9 1.4V71h-4.4V52.5h2.7c.6 0 1 .3 1.1.8l.3 1.5zm32.8-2.3L78.1 71h-4l-7.3-18.5h3.7c.3 0 .6.1.8.2.2.2.4.4.4.6l3.6 9.9c.2.6.4 1.1.5 1.7.1.6.3 1.1.4 1.7.1-.6.3-1.1.4-1.7.1-.6.3-1.1.5-1.7l3.6-9.9c.1-.2.2-.4.4-.6.2-.2.5-.2.8-.2h3.5zm14.2 7.1c0-.6-.1-1.1-.2-1.6-.2-.5-.4-1-.7-1.3-.3-.4-.7-.7-1.2-.9-.5-.2-1.1-.3-1.7-.3-1.3 0-2.3.4-3 1.1s-1.2 1.8-1.4 3.1h8.2zm-8.4 2.7c.1.9.2 1.8.5 2.5s.6 1.3 1 1.7c.4.5.9.8 1.5 1s1.3.3 2 .3 1.3-.1 1.9-.3 1-.4 1.4-.6c.4-.2.7-.4 1-.6.3-.2.6-.3.9-.3.4 0 .6.1.8.4l1.3 1.6c-.5.6-1 1.1-1.7 1.4-.6.4-1.3.7-1.9.9-.7.2-1.3.4-2 .5s-1.4.1-2 .1c-1.3 0-2.5-.2-3.6-.6-1.1-.4-2.1-1.1-2.9-1.9-.8-.8-1.5-1.9-1.9-3.1-.5-1.2-.7-2.7-.7-4.3 0-1.3.2-2.4.6-3.6.4-1.1 1-2.1 1.8-2.9.8-.8 1.7-1.5 2.8-2s2.3-.7 3.7-.7c1.2 0 2.2.2 3.2.6 1 .4 1.8.9 2.5 1.6.7.7 1.3 1.6 1.7 2.6.4 1 .6 2.2.6 3.6 0 .7-.1 1.1-.2 1.4-.1.2-.4.4-.8.4H91.2zm27-6.2c-.1.2-.2.3-.4.4-.1.1-.3.1-.5.1s-.4-.1-.7-.2c-.2-.1-.5-.3-.9-.4s-.7-.3-1.1-.4c-.4-.1-.9-.2-1.5-.2-.9 0-1.6.2-2.1.6s-.7.9-.7 1.5c0 .4.1.7.4 1 .3.3.6.5 1 .7.4.2.9.4 1.4.5.5.2 1.1.3 1.6.5.6.2 1.1.4 1.6.7.5.2 1 .6 1.4.9s.8.8 1 1.4.4 1.2.4 1.9c0 .9-.2 1.7-.5 2.5s-.8 1.4-1.4 1.9c-.6.5-1.4 1-2.3 1.3-.9.3-2 .5-3.2.5-.6 0-1.3-.1-1.9-.2-.6-.1-1.2-.3-1.7-.5-.6-.2-1.1-.4-1.5-.7s-.9-.6-1.3-.9l1-1.7c.1-.2.3-.4.5-.5.2-.1.4-.2.7-.2s.5.1.8.2.5.3.9.5c.3.2.7.3 1.1.5.4.2 1 .2 1.7.2.5 0 1-.1 1.4-.2.4-.1.7-.3.9-.5s.4-.4.5-.7.2-.5.2-.8c0-.4-.1-.8-.4-1.1-.3-.3-.6-.5-1-.7-.4-.2-.9-.4-1.5-.5-.5-.2-1.1-.3-1.7-.5-.6-.2-1.1-.4-1.7-.7-.5-.3-1-.6-1.5-1-.4-.4-.8-.9-1-1.5-.3-.6-.4-1.3-.4-2.1s.2-1.5.4-2.2c.3-.7.7-1.3 1.3-1.8.6-.5 1.3-.9 2.2-1.2.9-.3 1.9-.5 3-.5 1.3 0 2.4.2 3.5.6 1 .4 1.9 1 2.6 1.7l-.6 1.8zm10.7 15.2c-1.6 0-2.8-.5-3.7-1.4-.9-.9-1.3-2.2-1.3-3.8V55.9H122c-.2 0-.4-.1-.6-.2-.2-.2-.3-.4-.3-.7v-1.8l3-.5.9-5 .3-.6c.2-.1.4-.2.6-.2h2.3v5.8h4.9v3.2h-4.9v10c0 .6.1 1 .4 1.3.3.3.7.5 1.2.5.3 0 .5 0 .7-.1.2-.1.3-.1.5-.2s.3-.1.4-.2.2-.1.3-.1c.1 0 .2 0 .3.1l.3.3 1.3 2.2c-.6.5-1.4.9-2.2 1.2-.7.2-1.6.4-2.5.4zm7.3-.3V52.5h2.7c.6 0 1 .3 1.1.8l.3 1.4c.3-.4.7-.7 1-1 .4-.3.7-.6 1.1-.8.4-.2.8-.4 1.3-.5.5-.1 1-.2 1.5-.2 1.2 0 2.1.3 2.9.9.8.6 1.3 1.5 1.7 2.5.3-.6.6-1.1 1.1-1.6.4-.4.9-.8 1.4-1.1s1.1-.5 1.6-.6c.6-.1 1.2-.2 1.8-.2 1 0 1.9.2 2.7.5.8.3 1.5.8 2 1.4.5.6 1 1.3 1.2 2.2.3.9.4 1.9.4 3V71h-4.4V59.2c0-1.2-.3-2.1-.8-2.7s-1.3-.9-2.3-.9c-.5 0-.9.1-1.3.2-.4.2-.7.4-1 .7-.3.3-.5.7-.7 1.1-.2.4-.3 1-.3 1.5V71h-4.5V59.2c0-1.2-.2-2.1-.7-2.7-.5-.6-1.2-.8-2.2-.8-.6 0-1.3.2-1.8.5-.6.3-1.1.8-1.6 1.3V71h-4.2zm42-11.4c0-.6-.1-1.1-.2-1.6-.2-.5-.4-1-.7-1.3s-.7-.7-1.2-.9-1.1-.3-1.7-.3c-1.3 0-2.3.4-3 1.1s-1.2 1.8-1.4 3.1h8.2zm-8.4 2.7c.1.9.2 1.8.5 2.5s.6 1.3 1 1.7c.4.5.9.8 1.5 1 .6.2 1.3.3 2 .3s1.3-.1 1.9-.3 1-.4 1.4-.6c.4-.2.7-.4 1-.6.3-.2.6-.3.9-.3.4 0 .6.1.8.4l1.3 1.6c-.5.6-1 1.1-1.7 1.4s-1.3.7-1.9.9c-.7.2-1.3.4-2 .5s-1.4.1-2 .1c-1.3 0-2.5-.2-3.6-.6-1.1-.4-2.1-1.1-2.9-1.9-.8-.8-1.5-1.9-1.9-3.1-.5-1.2-.7-2.7-.7-4.3 0-1.3.2-2.4.6-3.6.4-1.1 1-2.1 1.8-2.9s1.7-1.5 2.8-2 2.3-.7 3.7-.7c1.2 0 2.2.2 3.2.6 1 .4 1.8.9 2.5 1.6s1.3 1.6 1.7 2.6c.4 1 .6 2.2.6 3.6 0 .7-.1 1.1-.2 1.4s-.4.4-.8.4h-11.5zm19.9-7.5c.4-.4.8-.7 1.2-1s.9-.6 1.3-.8c.5-.2 1-.4 1.5-.5.5-.1 1.1-.2 1.7-.2 1 0 1.9.2 2.7.5s1.4.8 2 1.4c.5.6.9 1.4 1.2 2.2.3.9.4 1.8.4 2.8V71h-4.4V59.2c0-1.1-.3-2-.8-2.6s-1.3-.9-2.4-.9c-.8 0-1.5.2-2.2.5-.7.3-1.3.8-1.9 1.4V71h-4.4V52.5h2.7c.6 0 1 .3 1.1.8l.3 1.5zM212 71.3c-1.6 0-2.8-.5-3.7-1.4-.9-.9-1.3-2.2-1.3-3.8V55.9h-1.9c-.2 0-.4-.1-.6-.2-.2-.2-.3-.4-.3-.7v-1.8l3-.5.9-5 .3-.6c.1-.2.4-.2.6-.2h2.3v5.8h4.9v3.2h-4.9v10c0 .6.1 1 .4 1.3.3.3.7.5 1.2.5.3 0 .5 0 .7-.1.2-.1.3-.1.5-.2s.3-.1.4-.2.2-.1.3-.1c.1 0 .2 0 .3.1l.3.3 1.3 2.2c-.6.5-1.4.9-2.2 1.2s-1.6.4-2.5.4zm20.6-18.8V71h-4.5V52.5h4.5zm.6-5.4c0 .4-.1.7-.2 1.1s-.4.6-.6.9-.6.5-.9.6-.7.2-1.1.2c-.4 0-.7-.1-1.1-.2s-.6-.4-.9-.6c-.3-.3-.5-.5-.6-.9-.1-.3-.2-.7-.2-1.1 0-.4.1-.8.2-1.1l.6-.9c.3-.3.5-.5.9-.6.3-.1.7-.2 1.1-.2.4 0 .8.1 1.1.2.3.2.7.4.9.6.3.3.5.6.6.9.1.4.2.8.2 1.1zm8.1 7.7c.4-.4.8-.7 1.2-1s.9-.6 1.3-.8c.5-.2 1-.4 1.5-.5.5-.1 1.1-.2 1.7-.2 1 0 1.9.2 2.7.5.8.3 1.4.8 2 1.4.5.6.9 1.4 1.2 2.2.3.9.4 1.8.4 2.8V71h-4.4V59.2c0-1.1-.3-2-.8-2.6s-1.3-.9-2.4-.9c-.8 0-1.5.2-2.2.5-.7.3-1.3.8-1.9 1.4V71h-4.4V52.5h2.7c.6 0 1 .3 1.1.8l.3 1.5zm27.4 1.3c-.1.2-.2.3-.4.4-.1.1-.3.1-.5.1s-.4-.1-.7-.2c-.2-.1-.5-.3-.9-.4s-.7-.3-1.1-.4c-.4-.1-.9-.2-1.5-.2-.9 0-1.6.2-2.1.6-.5.4-.7.9-.7 1.5 0 .4.1.7.4 1s.6.5 1 .7c.4.2.9.4 1.4.5.5.2 1.1.3 1.6.5.6.2 1.1.4 1.6.7.5.2 1 .6 1.4.9s.8.8 1 1.4.4 1.2.4 1.9c0 .9-.2 1.7-.5 2.5s-.8 1.4-1.4 1.9c-.6.5-1.4 1-2.3 1.3-.9.3-2 .5-3.2.5-.6 0-1.3-.1-1.9-.2-.6-.1-1.2-.3-1.7-.5-.6-.2-1.1-.4-1.5-.7s-.9-.6-1.3-.9l1-1.7c.1-.2.3-.4.5-.5.2-.1.4-.2.7-.2s.5.1.8.2.5.3.9.5.7.3 1.1.5c.4.2 1 .2 1.7.2.5 0 1-.1 1.4-.2s.7-.3.9-.5.4-.4.5-.7c.1-.3.2-.5.2-.8 0-.4-.1-.8-.4-1.1s-.6-.5-1-.7c-.4-.2-.9-.4-1.5-.5s-1.1-.3-1.7-.5c-.6-.2-1.1-.4-1.7-.7-.5-.3-1-.6-1.5-1-.4-.4-.8-.9-1-1.5s-.4-1.3-.4-2.1.1-1.5.4-2.2c.3-.7.7-1.3 1.3-1.8.6-.5 1.3-.9 2.2-1.2.9-.3 1.9-.5 3-.5 1.3 0 2.4.2 3.5.6s1.9 1 2.6 1.7l-.6 1.8zM291.9 71h-4.4V55.9h-8.6v10c0 .6.1 1 .4 1.3.3.3.7.5 1.2.5.3 0 .5 0 .7-.1.2-.1.3-.1.5-.2s.3-.1.4-.2.2-.1.3-.1c.1 0 .2 0 .3.1l.3.3 1.3 2.2c-.6.5-1.4.9-2.2 1.2s-1.7.4-2.6.4c-1.6 0-2.8-.5-3.7-1.4-.9-.9-1.3-2.2-1.3-3.8V55.9h-1.9c-.2 0-.4-.1-.6-.2-.2-.2-.3-.4-.3-.7v-1.8l3-.5.9-5 .3-.6c.2-.1.4-.2.6-.2h2.3v5.8h13V71zm.8-23.9c0 .4-.1.7-.2 1.1s-.4.6-.6.9c-.3.3-.6.5-.9.6s-.7.2-1.1.2c-.4 0-.7-.1-1.1-.2s-.6-.4-.9-.6c-.3-.3-.5-.5-.6-.9-.1-.3-.2-.7-.2-1.1 0-.4.1-.8.2-1.1l.6-.9c.3-.3.5-.5.9-.6s.7-.2 1.1-.2c.4 0 .8.1 1.1.2s.7.4.9.6c.3.3.5.6.6.9s.2.7.2 1.1zm9.9 24.2c-1.6 0-2.8-.5-3.7-1.4s-1.3-2.2-1.3-3.8V55.9h-1.9c-.2 0-.4-.1-.6-.2-.2-.2-.3-.4-.3-.7v-1.8l3-.5.9-5 .3-.6c.1-.2.4-.2.6-.2h2.3v5.8h4.9v3.2h-4.9v10c0 .6.1 1 .4 1.3.3.3.7.5 1.2.5.3 0 .5 0 .7-.1.2-.1.3-.1.5-.2s.3-.1.4-.2.2-.1.3-.1c.1 0 .2 0 .3.1l.3.3 1.3 2.2c-.6.5-1.4.9-2.2 1.2-.7.2-1.6.4-2.5.4zm23.1-18.8V71H323c-.6 0-1-.3-1.1-.8l-.3-1.5c-.8.8-1.6 1.4-2.5 1.9-.9.5-2 .7-3.2.7-1 0-1.9-.2-2.7-.5-.8-.3-1.4-.8-2-1.4-.5-.6-.9-1.4-1.2-2.2-.3-.9-.4-1.8-.4-2.8V52.5h4.4v11.7c0 1.1.3 2 .8 2.6s1.3.9 2.3.9c.8 0 1.5-.2 2.2-.5.7-.3 1.3-.8 1.9-1.4V52.5h4.5zM348.8 71h-4.4V55.9h-8.6v10c0 .6.1 1 .4 1.3.3.3.7.5 1.2.5.3 0 .5 0 .7-.1.2-.1.3-.1.5-.2s.3-.1.4-.2.2-.1.3-.1c.1 0 .2 0 .3.1l.3.3 1.3 2.2c-.6.5-1.4.9-2.2 1.2s-1.7.4-2.6.4c-1.6 0-2.8-.5-3.7-1.4s-1.3-2.2-1.3-3.8V55.9h-1.9c-.2 0-.4-.1-.6-.2-.2-.2-.3-.4-.3-.7v-1.8l3-.5.9-5 .3-.6c.1-.2.4-.2.6-.2h2.3v5.8h13V71zm.7-23.9c0 .4-.1.7-.2 1.1s-.4.6-.6.9c-.3.3-.6.5-.9.6s-.7.2-1.1.2c-.4 0-.7-.1-1.1-.2s-.6-.4-.9-.6c-.3-.3-.5-.5-.6-.9-.1-.3-.2-.7-.2-1.1 0-.4.1-.8.2-1.1l.6-.9c.3-.3.5-.5.9-.6s.7-.2 1.1-.2c.4 0 .8.1 1.1.2s.7.4.9.6c.3.3.5.6.6.9s.2.7.2 1.1zm12 5.1c1.4 0 2.6.2 3.7.7 1.1.4 2.1 1.1 2.9 1.9.8.8 1.4 1.8 1.8 3 .4 1.2.6 2.5.6 3.9 0 1.5-.2 2.8-.6 4-.4 1.2-1 2.2-1.8 3s-1.8 1.5-2.9 1.9c-1.1.4-2.4.7-3.7.7-1.4 0-2.6-.2-3.8-.7-1.1-.4-2.1-1.1-2.9-1.9s-1.4-1.8-1.9-3c-.4-1.2-.7-2.5-.7-4s.2-2.8.7-3.9c.4-1.2 1.1-2.2 1.9-3 .8-.8 1.8-1.4 2.9-1.9 1.1-.4 2.4-.7 3.8-.7zm0 15.6c1.5 0 2.7-.5 3.4-1.5s1.1-2.5 1.1-4.5-.4-3.5-1.1-4.6c-.7-1-1.9-1.6-3.4-1.6-1.6 0-2.7.5-3.5 1.6-.8 1.1-1.1 2.6-1.1 4.5 0 2 .4 3.5 1.1 4.5.8 1.1 1.9 1.6 3.5 1.6zm16.6-13c.4-.4.8-.7 1.2-1s.9-.6 1.3-.8c.5-.2 1-.4 1.5-.5.5-.1 1.1-.2 1.7-.2 1 0 1.9.2 2.7.5s1.4.8 2 1.4c.5.6.9 1.4 1.2 2.2.3.9.4 1.8.4 2.8V71h-4.4V59.2c0-1.1-.3-2-.8-2.6-.5-.6-1.3-.9-2.4-.9-.8 0-1.5.2-2.2.5s-1.3.8-1.9 1.4V71H374V52.5h2.7c.6 0 1 .3 1.1.8l.3 1.5zm27.5 1.3c-.1.2-.2.3-.4.4-.1.1-.3.1-.5.1s-.4-.1-.7-.2c-.2-.1-.5-.3-.9-.4s-.7-.3-1.1-.4c-.4-.1-.9-.2-1.5-.2-.9 0-1.6.2-2.1.6-.5.4-.7.9-.7 1.5 0 .4.1.7.4 1s.6.5 1 .7c.4.2.9.4 1.4.5.5.2 1.1.3 1.6.5.6.2 1.1.4 1.6.7.5.2 1 .6 1.4.9s.8.8 1 1.4.4 1.2.4 1.9c0 .9-.2 1.7-.5 2.5s-.8 1.4-1.4 1.9c-.6.5-1.4 1-2.3 1.3-.9.3-2 .5-3.2.5-.6 0-1.3-.1-1.9-.2-.6-.1-1.2-.3-1.7-.5-.6-.2-1.1-.4-1.5-.7s-.9-.6-1.3-.9l1-1.7c.1-.2.3-.4.5-.5.2-.1.4-.2.7-.2s.5.1.8.2.5.3.9.5.7.3 1.1.5c.4.2 1 .2 1.7.2.5 0 1-.1 1.4-.2.4-.1.7-.3.9-.5s.4-.4.5-.7c.1-.3.2-.5.2-.8 0-.4-.1-.8-.4-1.1s-.6-.5-1-.7c-.4-.2-.9-.4-1.5-.5-.5-.2-1.1-.3-1.7-.5-.6-.2-1.1-.4-1.7-.7-.5-.3-1-.6-1.5-1-.4-.4-.8-.9-1-1.5s-.4-1.3-.4-2.1.1-1.5.5-2.2c.3-.7.7-1.3 1.3-1.8.6-.5 1.3-.9 2.2-1.2.9-.3 1.9-.5 3-.5 1.3 0 2.4.2 3.5.6s1.9 1 2.6 1.7l-.7 1.8z"/><g id="Mask"><ellipse id="path-1_1_" class="st2" cx="223" cy="112" rx="30" ry="30"/></g><defs><filter id="Adobe_OpacityMaskFilter" filterUnits="userSpaceOnUse" x="165" y="87" width="114.5" height="55.3"><feColorMatrix values="1 0 0 0 0 0 1 0 0 0 0 0 1 0 0 0 0 0 1 0"/></filter></defs><mask maskUnits="userSpaceOnUse" x="165" y="87" width="114.5" height="55.3" id="mask-2"><g class="st3"><ellipse id="path-1" class="st4" cx="223" cy="112" rx="30" ry="30"/></g></mask><g transform="translate(-27.75 5.25)" id="Group" class="st5"><path id="Fill-34" class="st0" d="M203.5 135.3c0-3.2.1-10.2.1-10.2l3-.2.4.1v.6l.1.1v4.4h.4v-.2h.1v-4.5h.3v-.1h.1v-.2h.2v-.4h1v-1.1h.4v-.3h.5v-.5h1.5l.5.1v.4l.5.1v.2l.4.1v.4h.8v-.7h2l.7.1v.5h.2v-1.4h2.6v-.5h.8v.5h1l.8.2v1.7l.6.2h-.2v.7l.4.2v.5h.6v.1h1.1l.3.1.1 2.7h.3v-1.8h1.2v-.6h.2v-.5h.1V123h.2v-.3l.5-.1 1.6-.1v.1h.5l.7.4v1.9h.4l.3.1v.2h1.5v-.6h.6v-.5h3.4l.4.1v.4l.6.2v.5l.1 2.1.5.1.7.3.1-2.8h1.4l1.3-.1.4.2v3.4h1.1l.1-20.6 3.2-.1v-.3h1.4l.2.2v.2h.9l.7-12.2.2-.1h.8V95h.1v-2.4h-.1v-.3h.1l.1-7h.1v-3.2l.1 3.2h.1l.1 7h.2v.3h-.2v2.3l3.3-.1V94h-.1v-1h.1v-.6h-.2v-.2h.1v.1h.1l.1-4.8V83.6h.2v2.6h.1V91.8h.1v.2s.1 0 .2.1v.2l-.1.1v1.8h.1v.3h.5l.1.4h-.2v.3h.3l.3 1 .9 17.6h2.4v.2h.4l.1.5v6.2l1.1 2v2.6h.3v-3.4.3l.1 2h1.5v.9h.2l.4.7.1.6h1.9v-14.8h1.1v-2.8h.2v-.6l2.7-.5v-4.2h.1v-1.2h.2l.4-.8v-.3l.1-.1.1.2v.3l.4.7h.2v1.2h.4v-.1h.2v.1h.4v-1.2h.2l.4-.7v-.3l.1-.2.1.2v.4l.4.7h.2v7.3h.3v-.6h.1v.6l.6 1.2v.4h.2v-.4h.4v4.3h.8v.4h1v4h1.3l.1 1.1h.8v.3h1.4l-.1-6.6.9-1.4h1.5l.7-.8h.8v-.1l.2-.1v-.5l.3-.3 1.6.1v.3l3.9.2.1 1h.8v1.1h.6v17.9h.3l.1.6h.3v-.2h.1l-.2-30.6 2.9-3.1V98l.5-.5 3.2.1.1 1.3 1.5.1v.3h-.1v33.8l3.7.1.1 2.1h2v1.5H193v-1.5l.1-11.1h.2v-.2l.4-.1v-.1h.1v-.2h.9c.6 0 .8.1.8.1v.4s1.3.1 1.4.1h.2v11.2h6.4"/><path id="Stroke-35" class="st6" d="M203.5 135.3c0-3.2.1-10.2.1-10.2l3-.2.4.1v.6l.1.1v4.4h.4v-.2h.1v-4.5h.3v-.1h.1v-.2h.2v-.4h1v-1.1h.4v-.3h.5v-.5h1.5l.5.1v.4l.5.1v.2l.4.1v.4h.8v-.7h2l.7.1v.5h.2v-1.4h2.6v-.5h.8v.5h1l.8.2v1.7l.6.2h-.2v.7l.4.2v.5h.6v.1h1.1l.3.1.1 2.7h.3v-1.8h1.2v-.6h.2v-.5h.1V123h.2v-.3l.5-.1 1.6-.1v.1h.5l.7.4v1.9h.4l.3.1v.2h1.5v-.6h.6v-.5h3.4l.4.1v.4l.6.2v.5l.1 2.1.5.1.7.3.1-2.8h1.4l1.3-.1.4.2v3.4h1.1l.1-20.6 3.2-.1v-.3h1.4l.2.2v.2h.9l.7-12.2.2-.1h.8V95h.1v-2.4h-.1v-.3h.1l.1-7h.1v-3.2l.1 3.2h.1l.1 7h.2v.3h-.2v2.3l3.3-.1V94h-.1v-1h.1v-.6h-.2v-.2h.1v.1h.1l.1-4.8V83.6h.2v2.6h.1V91.8h.1v.2s.1 0 .2.1v.2l-.1.1v1.8h.1v.3h.5l.1.4h-.2v.3h.3l.3 1 .9 17.6h2.4v.2h.4l.1.5v6.2l1.1 2v2.6h.3v-3.4.3l.1 2h1.5v.9h.2l.4.7.1.6h1.9v-14.8h1.1v-2.8h.2v-.6l2.7-.5v-4.2h.1v-1.2h.2l.4-.8v-.3l.1-.1.1.2v.3l.4.7h.2v1.2h.4v-.1h.2v.1h.4v-1.2h.2l.4-.7v-.3l.1-.2.1.2v.4l.4.7h.2v7.3h.3v-.6h.1v.6l.6 1.2v.4h.2v-.4h.4v4.3h.8v.4h1v4h1.3l.1 1.1h.8v.3h1.4l-.1-6.6.9-1.4h1.5l.7-.8h.8v-.1l.2-.1v-.5l.3-.3 1.6.1v.3l3.9.2.1 1h.8v1.1h.6v17.9h.3l.1.6h.3v-.2h.1l-.2-30.6 2.9-3.1V98l.5-.5 3.2.1.1 1.3 1.5.1v.3h-.1v33.8l3.7.1.1 2.1h2v1.5H193v-1.5l.1-11.1h.2v-.2l.4-.1v-.1h.1v-.2h.9c.6 0 .8.1.8.1v.4s1.3.1 1.4.1h.2v11.2h6.4v-.1z"/></g><path class="st7" d="M44 191.5c1.3 0 2.5-.2 3.5-.7 1-.4 1.9-1 2.6-1.8.7-.8 1.2-1.7 1.6-2.8.4-1.1.6-2.4.6-3.8v-21.7H59v21.7c0 2.2-.3 4.1-1 6-.7 1.8-1.7 3.4-3 4.7-1.3 1.3-2.9 2.4-4.7 3.1-1.9.7-3.9 1.1-6.2 1.1-2.3 0-4.4-.4-6.2-1.1-1.9-.7-3.4-1.8-4.7-3.1s-2.3-2.9-3-4.7c-.7-1.8-1-3.8-1-6v-21.7h6.7v21.6c0 1.4.2 2.6.6 3.8.4 1.1.9 2.1 1.6 2.9.7.8 1.6 1.4 2.6 1.8.8.5 2 .7 3.3.7zM85.2 167.4c-.2.4-.4.6-.6.8-.2.1-.5.2-.9.2s-.7-.1-1.1-.4c-.4-.3-.9-.5-1.5-.9-.6-.3-1.2-.6-2-.9-.8-.3-1.7-.4-2.7-.4-.9 0-1.7.1-2.4.3-.7.2-1.3.5-1.8.9s-.8.9-1.1 1.4-.4 1.2-.4 1.8c0 .9.2 1.6.7 2.1.5.6 1.1 1.1 1.9 1.5.8.4 1.7.8 2.7 1.1s2 .7 3.1 1 2.1.8 3.1 1.2c1 .5 1.9 1.1 2.7 1.8s1.4 1.6 1.9 2.7.7 2.3.7 3.8c0 1.6-.3 3.2-.8 4.6s-1.4 2.7-2.5 3.7c-1.1 1.1-2.4 1.9-3.9 2.5-1.6.6-3.3.9-5.3.9-1.1 0-2.3-.1-3.4-.3-1.1-.2-2.2-.5-3.2-1-1-.4-2-.9-2.9-1.5-.9-.6-1.7-1.2-2.4-1.9l2-3.2c.2-.2.4-.4.7-.6.3-.2.5-.2.9-.2s.9.2 1.4.5c.5.3 1.1.7 1.7 1.1.7.4 1.4.8 2.3 1.1.9.3 2 .5 3.2.5 1.9 0 3.4-.5 4.4-1.4 1.1-.9 1.6-2.2 1.6-3.9 0-1-.2-1.7-.7-2.3-.5-.6-1.1-1.1-1.9-1.5-.8-.4-1.7-.8-2.7-1s-2-.6-3.1-.9-2-.7-3-1.2-1.9-1.1-2.7-1.8c-.8-.8-1.4-1.7-1.9-2.8s-.7-2.5-.7-4.2c0-1.3.3-2.6.8-3.9.5-1.2 1.3-2.4 2.3-3.3 1-1 2.2-1.7 3.7-2.3 1.5-.6 3.1-.9 5-.9 2.1 0 4.1.3 5.9 1 1.8.7 3.3 1.6 4.6 2.8l-1.7 3.4zM110.2 197.2c-2-.3-3.8-.8-5.5-1.6-1.7-.8-3.2-1.8-4.4-3l1.9-2.8c.2-.2.4-.5.7-.6.3-.2.6-.2.9-.2.4 0 .8.1 1.2.4.4.3.9.6 1.4.9.5.3 1.1.7 1.8 1 .7.3 1.5.6 2.4.8l1-11.2c-1.2-.3-2.4-.7-3.5-1.2-1.2-.5-2.2-1-3.1-1.8-.9-.7-1.7-1.7-2.2-2.8-.6-1.1-.9-2.6-.9-4.3 0-1.3.3-2.5.8-3.7.5-1.2 1.2-2.3 2.2-3.2 1-1 2.2-1.7 3.6-2.4 1.4-.6 3-.9 4.9-.9l.3-3.2c0-.4.2-.8.5-1.1.3-.3.7-.5 1.2-.5h2.3l-.4 4.9c1.8.3 3.3.8 4.6 1.5 1.3.7 2.4 1.5 3.3 2.4l-1.5 2.3c-.2.3-.5.6-.7.8s-.5.2-.8.2c-.2 0-.5-.1-.9-.2s-.7-.4-1.2-.6c-.4-.2-.9-.5-1.5-.7s-1.1-.4-1.8-.6l-.9 10.4 3.6 1.2c1.2.4 2.2 1 3.2 1.7.9.7 1.7 1.6 2.3 2.6s.9 2.3.9 3.9c0 1.5-.3 3-.8 4.4-.5 1.4-1.3 2.6-2.3 3.6-1 1-2.2 1.9-3.7 2.5-1.4.7-3.1 1-5 1.2l-.3 3.7c0 .4-.2.7-.5 1.1-.3.3-.7.5-1.2.5h-2.3l.4-5.4zm-2.5-27c0 .6.1 1.2.3 1.7s.5.9.9 1.3.9.7 1.4 1 1.1.6 1.8.8l.8-9.3c-.9.1-1.7.3-2.4.6-.6.3-1.2.6-1.6 1-.4.4-.7.8-.9 1.3-.2.5-.3 1.1-.3 1.6zm12.2 16.4c0-.6-.1-1.2-.3-1.7-.2-.5-.5-.9-1-1.3s-.9-.7-1.4-1c-.5-.3-1.1-.5-1.8-.7l-.8 10.1c1.8-.2 3.1-.8 4-1.8.8-.8 1.3-2.1 1.3-3.6zM143.3 160.4c1.7 0 3.2.2 4.5.7 1.3.5 2.5 1.1 3.4 2s1.7 1.8 2.2 3c.5 1.1.8 2.4.8 3.7 0 1.1-.1 2.2-.4 3-.3.9-.6 1.6-1.1 2.3-.5.7-1.1 1.2-1.8 1.7s-1.5.8-2.4 1.1c2.2.7 3.8 1.7 4.9 3.1 1.1 1.4 1.6 3.2 1.6 5.3 0 1.8-.3 3.4-1 4.8s-1.6 2.5-2.7 3.5c-1.1.9-2.4 1.7-3.9 2.1s-3.1.7-4.7.7c-1.8 0-3.4-.2-4.8-.6-1.3-.4-2.5-1-3.5-1.9-1-.8-1.8-1.8-2.5-3s-1.3-2.5-1.8-4.1l2.7-1.1c.5-.2.9-.3 1.4-.3.4 0 .8.1 1.2.3.3.2.6.5.8.8.3.6.6 1.2 1 1.7.4.6.8 1.1 1.3 1.5s1.1.8 1.8 1.1c.7.3 1.5.4 2.4.4 1 0 2-.2 2.8-.5s1.4-.8 2-1.3c.5-.5.9-1.2 1.2-1.8.3-.7.4-1.4.4-2 0-.9-.1-1.7-.3-2.4-.2-.7-.6-1.3-1.1-1.8-.6-.5-1.4-.9-2.5-1.2-1.1-.3-2.6-.4-4.4-.4v-4.4c1.5 0 2.8-.1 3.8-.4s1.8-.6 2.4-1.1c.6-.5 1-1 1.2-1.7.2-.7.3-1.4.3-2.2 0-1.7-.5-3-1.4-3.9s-2.2-1.3-3.8-1.3c-1.5 0-2.7.4-3.7 1.2s-1.6 1.8-2 3c-.2.6-.5 1.1-.8 1.4-.4.3-.8.4-1.4.4-.3 0-.6 0-.9-.1l-3.2-.6c.2-1.7.7-3.3 1.5-4.6s1.6-2.4 2.7-3.3c1.1-.9 2.3-1.5 3.7-2 1-.6 2.5-.8 4.1-.8zM173.6 167.6v10.2h9.7v4.6h-9.7v10.3h-5v-10.3h-9.7v-4.6h9.7v-10.2h5zM224.4 160.8v5.5h-10.9v30.6h-6.7v-30.6h-10.9v-5.5h28.5zM235.7 182.8v14.1H229v-36.2h11c2.5 0 4.6.3 6.3.8 1.8.5 3.2 1.2 4.3 2.1 1.1.9 2 2 2.5 3.3.5 1.3.8 2.7.8 4.2 0 1.2-.2 2.4-.5 3.5s-.9 2.1-1.5 3c-.7.9-1.5 1.7-2.5 2.3-1 .7-2.1 1.2-3.4 1.6.9.5 1.6 1.2 2.2 2.1l9 13.3h-6c-.6 0-1.1-.1-1.5-.3s-.8-.6-1-1L241 184c-.3-.4-.6-.7-.9-.9s-.8-.3-1.5-.3h-2.9zm0-4.8h4.2c1.3 0 2.4-.2 3.3-.5s1.7-.8 2.3-1.3 1.1-1.2 1.4-2 .5-1.6.5-2.5c0-1.8-.6-3.2-1.8-4.2-1.2-1-3.1-1.5-5.5-1.5h-4.3v12zM269 196.9h-6.8v-36.2h6.8v36.2zM283.9 191.4h14.5v5.5h-21.2v-36.2h6.7v30.7zM309.7 191.4h14.5v5.5H303v-36.2h6.7v30.7zM336.4 196.9h-6.8v-36.2h6.8v36.2zM379.2 178.9c0 2.7-.4 5.1-1.3 7.4-.9 2.3-2.1 4.2-3.7 5.9-1.6 1.6-3.5 2.9-5.8 3.9s-4.7 1.4-7.5 1.4c-2.7 0-5.2-.5-7.5-1.4-2.3-.9-4.2-2.2-5.8-3.9-1.6-1.7-2.9-3.6-3.7-5.9-.9-2.3-1.3-4.7-1.3-7.4 0-2.6.4-5.1 1.3-7.4.9-2.3 2.1-4.2 3.7-5.9 1.6-1.7 3.5-2.9 5.8-3.9 2.3-.9 4.8-1.4 7.5-1.4s5.2.5 7.5 1.4c2.2.9 4.2 2.2 5.8 3.9 1.6 1.6 2.8 3.6 3.7 5.8.9 2.4 1.3 4.8 1.3 7.5zm-6.9 0c0-2-.3-3.8-.8-5.3-.5-1.6-1.3-2.9-2.3-4-1-1.1-2.2-1.9-3.6-2.5-1.4-.6-3-.9-4.8-.9-1.8 0-3.4.3-4.8.9-1.4.6-2.6 1.4-3.6 2.5s-1.8 2.4-2.3 4c-.5 1.6-.8 3.4-.8 5.3s.3 3.8.8 5.3 1.3 2.9 2.3 4c1 1.1 2.2 1.9 3.6 2.5 1.4.6 3 .9 4.8.9 1.8 0 3.4-.3 4.8-.9 1.4-.6 2.6-1.4 3.6-2.5s1.7-2.4 2.3-4c.6-1.6.8-3.4.8-5.3zM388.8 160.8c.2 0 .4.1.5.1.2.1.3.2.5.3.2.1.3.3.5.6l19 24.2c-.1-.6-.1-1.2-.1-1.7v-23.6h5.9v36.2h-3.5c-.5 0-1-.1-1.3-.2-.3-.2-.7-.5-1-.9l-18.9-24.1c0 .5.1 1.1.1 1.6V196.9h-5.9v-36.2h3.5c.3.1.5.1.7.1z"/></svg>