<svg width="468" height="382" viewBox="0 0 468 382" xmlns="http://www.w3.org/2000/svg"><title>Group</title><g fill-rule="nonzero" fill="none"><path d="M61.72 13.986c0 1.908-.315 3.675-.945 5.301-.63 1.626-1.521 3.033-2.673 4.221-1.152 1.188-2.538 2.115-4.158 2.781-1.62.666-3.42.999-5.4.999-1.968 0-3.762-.333-5.382-.999-1.62-.666-3.009-1.593-4.167-2.781-1.158-1.188-2.055-2.595-2.691-4.221-.636-1.626-.954-3.393-.954-5.301 0-1.908.318-3.675.954-5.301.636-1.626 1.533-3.033 2.691-4.221 1.158-1.188 2.547-2.115 4.167-2.781 1.62-.666 3.414-.999 5.382-.999 1.32 0 2.562.153 3.726.459 1.164.306 2.232.738 3.204 1.296a11.844 11.844 0 0 1 2.619 2.034 12.364 12.364 0 0 1 1.971 2.673 13.1 13.1 0 0 1 1.233 3.204c.282 1.152.423 2.364.423 3.636zm-4.95 0c0-1.428-.192-2.709-.576-3.843-.384-1.134-.93-2.097-1.638-2.889a7.013 7.013 0 0 0-2.583-1.818c-1.014-.42-2.157-.63-3.429-.63-1.272 0-2.415.21-3.429.63a7.096 7.096 0 0 0-2.592 1.818c-.714.792-1.263 1.755-1.647 2.889-.384 1.134-.576 2.415-.576 3.843s.192 2.709.576 3.843c.384 1.134.933 2.094 1.647 2.88a7.146 7.146 0 0 0 2.592 1.809c1.014.42 2.157.63 3.429.63 1.272 0 2.415-.21 3.429-.63a7.062 7.062 0 0 0 2.583-1.809c.708-.786 1.254-1.746 1.638-2.88.384-1.134.576-2.415.576-3.843zm24.426-5.454V27h-2.718c-.588 0-.96-.27-1.116-.81l-.306-1.476a9.92 9.92 0 0 1-2.502 1.863c-.912.474-1.986.711-3.222.711-1.008 0-1.899-.171-2.673-.513a5.354 5.354 0 0 1-1.953-1.449c-.528-.624-.927-1.365-1.197-2.223-.27-.858-.405-1.803-.405-2.835V8.532h4.446v11.736c0 1.128.261 2.001.783 2.619.522.618 1.305.927 2.349.927.768 0 1.488-.171 2.16-.513a7.55 7.55 0 0 0 1.908-1.413V8.532h4.446zm8.586 3.204c.576-1.104 1.26-1.971 2.052-2.601.792-.63 1.728-.945 2.808-.945.852 0 1.536.186 2.052.558l-.288 3.33c-.06.216-.147.369-.261.459-.114.09-.267.135-.459.135-.18 0-.447-.03-.801-.09a6.19 6.19 0 0 0-1.035-.09c-.492 0-.93.072-1.314.216a3.305 3.305 0 0 0-1.035.621c-.306.27-.576.597-.81.981a9.572 9.572 0 0 0-.657 1.314V27h-4.446V8.532h2.61c.456 0 .774.081.954.243.18.162.3.453.36.873l.27 2.088zM137.196 331v-18.468h2.718c.576 0 .954.27 1.134.81l.288 1.368c.324-.36.663-.69 1.017-.99.354-.3.732-.558 1.134-.774a5.77 5.77 0 0 1 2.817-.702c1.164 0 2.121.315 2.871.945.75.63 1.311 1.467 1.683 2.511a5.635 5.635 0 0 1 1.08-1.575 5.903 5.903 0 0 1 1.422-1.071 6.544 6.544 0 0 1 1.647-.612 7.91 7.91 0 0 1 1.755-.198c1.02 0 1.926.156 2.718.468a5.214 5.214 0 0 1 1.998 1.368c.54.6.951 1.332 1.233 2.196.282.864.423 1.854.423 2.97V331h-4.446v-11.754c0-1.176-.258-2.061-.774-2.655-.516-.594-1.272-.891-2.268-.891-.456 0-.879.078-1.269.234-.39.156-.732.381-1.026.675a3.082 3.082 0 0 0-.693 1.107c-.168.444-.252.954-.252 1.53V331h-4.464v-11.754c0-1.236-.249-2.136-.747-2.7-.498-.564-1.227-.846-2.187-.846-.648 0-1.251.159-1.809.477a6.032 6.032 0 0 0-1.557 1.305V331h-4.446zm39.906-7.884c-1.284.06-2.364.171-3.24.333-.876.162-1.578.369-2.106.621-.528.252-.906.546-1.134.882a1.916 1.916 0 0 0-.342 1.098c0 .78.231 1.338.693 1.674.462.336 1.065.504 1.809.504.912 0 1.701-.165 2.367-.495.666-.33 1.317-.831 1.953-1.503v-3.114zm-10.188-8.01c2.124-1.944 4.68-2.916 7.668-2.916 1.08 0 2.046.177 2.898.531a6.123 6.123 0 0 1 2.16 1.476 6.317 6.317 0 0 1 1.341 2.259c.306.876.459 1.836.459 2.88V331h-2.016c-.42 0-.744-.063-.972-.189-.228-.126-.408-.381-.54-.765l-.396-1.332c-.468.42-.924.789-1.368 1.107a8.053 8.053 0 0 1-1.386.801c-.48.216-.993.381-1.539.495a8.867 8.867 0 0 1-1.809.171c-.78 0-1.5-.105-2.16-.315a4.746 4.746 0 0 1-1.71-.945 4.242 4.242 0 0 1-1.116-1.566c-.264-.624-.396-1.35-.396-2.178 0-.468.078-.933.234-1.395.156-.462.411-.903.765-1.323.354-.42.813-.816 1.377-1.188.564-.372 1.257-.696 2.079-.972.822-.276 1.779-.501 2.871-.675 1.092-.174 2.34-.279 3.744-.315v-1.08c0-1.236-.264-2.151-.792-2.745-.528-.594-1.29-.891-2.286-.891-.72 0-1.317.084-1.791.252a7.37 7.37 0 0 0-1.251.567c-.36.21-.687.399-.981.567a1.942 1.942 0 0 1-.981.252c-.312 0-.576-.081-.792-.243a2.03 2.03 0 0 1-.522-.567l-.792-1.422zm23.148-10.854v15.318h.828c.3 0 .537-.039.711-.117.174-.078.351-.237.531-.477l4.59-5.67c.192-.252.405-.444.639-.576.234-.132.537-.198.909-.198h4.068l-5.742 6.858c-.408.54-.852.954-1.332 1.242.252.18.477.39.675.63.198.24.387.498.567.774l6.156 8.964h-4.014a2.17 2.17 0 0 1-.9-.171c-.252-.114-.462-.321-.63-.621l-4.716-7.002c-.168-.276-.342-.456-.522-.54-.18-.084-.45-.126-.81-.126h-1.008V331h-4.446v-26.748h4.446zm26.694 15.39a5.35 5.35 0 0 0-.243-1.629 3.872 3.872 0 0 0-.729-1.341 3.39 3.39 0 0 0-1.233-.909c-.498-.222-1.077-.333-1.737-.333-1.284 0-2.295.366-3.033 1.098-.738.732-1.209 1.77-1.413 3.114h8.388zm-8.478 2.682c.072.948.24 1.767.504 2.457s.612 1.26 1.044 1.71c.432.45.945.786 1.539 1.008a5.591 5.591 0 0 0 1.971.333c.72 0 1.341-.084 1.863-.252a8.735 8.735 0 0 0 1.368-.558c.39-.204.732-.39 1.026-.558.294-.168.579-.252.855-.252.372 0 .648.138.828.414l1.278 1.62a7.41 7.41 0 0 1-1.656 1.449 9.287 9.287 0 0 1-1.917.936c-.666.234-1.344.399-2.034.495-.69.096-1.359.144-2.007.144-1.284 0-2.478-.213-3.582-.639a8.018 8.018 0 0 1-2.88-1.89c-.816-.834-1.458-1.866-1.926-3.096-.468-1.23-.702-2.655-.702-4.275 0-1.26.204-2.445.612-3.555a8.548 8.548 0 0 1 1.755-2.898c.762-.822 1.692-1.473 2.79-1.953s2.337-.72 3.717-.72c1.164 0 2.238.186 3.222.558a7.02 7.02 0 0 1 2.538 1.629c.708.714 1.263 1.59 1.665 2.628.402 1.038.603 2.223.603 3.555 0 .672-.072 1.125-.216 1.359-.144.234-.42.351-.828.351h-11.43zm27.072-6.192c-.12.192-.246.327-.378.405a.98.98 0 0 1-.504.117c-.216 0-.447-.06-.693-.18a47.31 47.31 0 0 0-.855-.405 7.831 7.831 0 0 0-1.107-.405c-.414-.12-.903-.18-1.467-.18-.876 0-1.563.186-2.061.558-.498.372-.747.858-.747 1.458 0 .396.129.729.387.999s.6.507 1.026.711c.426.204.909.387 1.449.549.54.162 1.089.339 1.647.531s1.107.411 1.647.657c.54.246 1.023.558 1.449.936.426.378.768.831 1.026 1.359s.387 1.164.387 1.908a6.23 6.23 0 0 1-.477 2.457 5.308 5.308 0 0 1-1.413 1.944c-.624.546-1.395.972-2.313 1.278-.918.306-1.977.459-3.177.459-.636 0-1.257-.057-1.863-.171a10.996 10.996 0 0 1-1.746-.477 9.662 9.662 0 0 1-1.548-.72 7.513 7.513 0 0 1-1.251-.9l1.026-1.692c.132-.204.288-.36.468-.468.18-.108.408-.162.684-.162.276 0 .537.078.783.234.246.156.531.324.855.504.324.18.705.348 1.143.504.438.156.993.234 1.665.234.528 0 .981-.063 1.359-.189s.69-.291.936-.495c.246-.204.426-.441.54-.711.114-.27.171-.549.171-.837 0-.432-.129-.786-.387-1.062s-.6-.516-1.026-.72a9.91 9.91 0 0 0-1.458-.549 48.173 48.173 0 0 1-1.674-.531 15.486 15.486 0 0 1-1.674-.675 5.705 5.705 0 0 1-1.458-.981 4.44 4.44 0 0 1-1.026-1.458c-.258-.576-.387-1.272-.387-2.088 0-.756.15-1.476.45-2.16.3-.684.741-1.281 1.323-1.791s1.308-.918 2.178-1.224c.87-.306 1.875-.459 3.015-.459 1.272 0 2.43.21 3.474.63 1.044.42 1.914.972 2.61 1.656l-1.008 1.602zm29.214-3.6V331h-2.718c-.588 0-.96-.27-1.116-.81l-.306-1.476a9.92 9.92 0 0 1-2.502 1.863c-.912.474-1.986.711-3.222.711-1.008 0-1.899-.171-2.673-.513a5.354 5.354 0 0 1-1.953-1.449c-.528-.624-.927-1.365-1.197-2.223-.27-.858-.405-1.803-.405-2.835v-11.736h4.446v11.736c0 1.128.261 2.001.783 2.619.522.618 1.305.927 2.349.927.768 0 1.488-.171 2.16-.513a7.55 7.55 0 0 0 1.908-1.413v-13.356h4.446zm15.66 3.6c-.12.192-.246.327-.378.405a.98.98 0 0 1-.504.117c-.216 0-.447-.06-.693-.18a47.31 47.31 0 0 0-.855-.405 7.831 7.831 0 0 0-1.107-.405c-.414-.12-.903-.18-1.467-.18-.876 0-1.563.186-2.061.558-.498.372-.747.858-.747 1.458 0 .396.129.729.387.999s.6.507 1.026.711c.426.204.909.387 1.449.549.54.162 1.089.339 1.647.531s1.107.411 1.647.657c.54.246 1.023.558 1.449.936.426.378.768.831 1.026 1.359s.387 1.164.387 1.908a6.23 6.23 0 0 1-.477 2.457 5.308 5.308 0 0 1-1.413 1.944c-.624.546-1.395.972-2.313 1.278-.918.306-1.977.459-3.177.459-.636 0-1.257-.057-1.863-.171a10.996 10.996 0 0 1-1.746-.477 9.662 9.662 0 0 1-1.548-.72 7.513 7.513 0 0 1-1.251-.9l1.026-1.692c.132-.204.288-.36.468-.468.18-.108.408-.162.684-.162.276 0 .537.078.783.234.246.156.531.324.855.504.324.18.705.348 1.143.504.438.156.993.234 1.665.234.528 0 .981-.063 1.359-.189s.69-.291.936-.495c.246-.204.426-.441.54-.711.114-.27.171-.549.171-.837 0-.432-.129-.786-.387-1.062s-.6-.516-1.026-.72a9.91 9.91 0 0 0-1.458-.549 48.173 48.173 0 0 1-1.674-.531 15.486 15.486 0 0 1-1.674-.675 5.705 5.705 0 0 1-1.458-.981 4.44 4.44 0 0 1-1.026-1.458c-.258-.576-.387-1.272-.387-2.088 0-.756.15-1.476.45-2.16.3-.684.741-1.281 1.323-1.791s1.308-.918 2.178-1.224c.87-.306 1.875-.459 3.015-.459 1.272 0 2.43.21 3.474.63 1.044.42 1.914.972 2.61 1.656l-1.008 1.602zm17.748 10.08c.504.612 1.053 1.044 1.647 1.296a4.903 4.903 0 0 0 1.935.378c.672 0 1.278-.126 1.818-.378s.999-.636 1.377-1.152c.378-.516.669-1.167.873-1.953.204-.786.306-1.713.306-2.781 0-1.08-.087-1.995-.261-2.745-.174-.75-.423-1.359-.747-1.827-.324-.468-.717-.81-1.179-1.026-.462-.216-.987-.324-1.575-.324-.924 0-1.71.195-2.358.585-.648.39-1.26.939-1.836 1.647v8.28zm-.234-11.16a9.633 9.633 0 0 1 2.574-2.07c.96-.528 2.088-.792 3.384-.792 1.008 0 1.929.21 2.763.63.834.42 1.554 1.029 2.16 1.827.606.798 1.074 1.782 1.404 2.952.33 1.17.495 2.511.495 4.023 0 1.38-.186 2.658-.558 3.834-.372 1.176-.903 2.196-1.593 3.06a7.36 7.36 0 0 1-2.502 2.025c-.978.486-2.073.729-3.285.729-1.032 0-1.914-.159-2.646-.477a6.465 6.465 0 0 1-1.962-1.323v7.56h-4.446v-24.498h2.718c.576 0 .954.27 1.134.81l.36 1.71zm25.992 8.064c-1.284.06-2.364.171-3.24.333-.876.162-1.578.369-2.106.621-.528.252-.906.546-1.134.882a1.916 1.916 0 0 0-.342 1.098c0 .78.231 1.338.693 1.674.462.336 1.065.504 1.809.504.912 0 1.701-.165 2.367-.495.666-.33 1.317-.831 1.953-1.503v-3.114zm-10.188-8.01c2.124-1.944 4.68-2.916 7.668-2.916 1.08 0 2.046.177 2.898.531a6.123 6.123 0 0 1 2.16 1.476 6.317 6.317 0 0 1 1.341 2.259c.306.876.459 1.836.459 2.88V331h-2.016c-.42 0-.744-.063-.972-.189-.228-.126-.408-.381-.54-.765l-.396-1.332c-.468.42-.924.789-1.368 1.107a8.053 8.053 0 0 1-1.386.801c-.48.216-.993.381-1.539.495a8.867 8.867 0 0 1-1.809.171c-.78 0-1.5-.105-2.16-.315a4.746 4.746 0 0 1-1.71-.945 4.242 4.242 0 0 1-1.116-1.566c-.264-.624-.396-1.35-.396-2.178 0-.468.078-.933.234-1.395.156-.462.411-.903.765-1.323.354-.42.813-.816 1.377-1.188.564-.372 1.257-.696 2.079-.972.822-.276 1.779-.501 2.871-.675 1.092-.174 2.34-.279 3.744-.315v-1.08c0-1.236-.264-2.151-.792-2.745-.528-.594-1.29-.891-2.286-.891-.72 0-1.317.084-1.791.252a7.37 7.37 0 0 0-1.251.567c-.36.21-.687.399-.981.567a1.942 1.942 0 0 1-.981.252c-.312 0-.576-.081-.792-.243a2.03 2.03 0 0 1-.522-.567l-.792-1.422zm22.896.63c.576-1.104 1.26-1.971 2.052-2.601.792-.63 1.728-.945 2.808-.945.852 0 1.536.186 2.052.558l-.288 3.33c-.06.216-.147.369-.261.459-.114.09-.267.135-.459.135-.18 0-.447-.03-.801-.09a6.19 6.19 0 0 0-1.035-.09c-.492 0-.93.072-1.314.216a3.305 3.305 0 0 0-1.035.621c-.306.27-.576.597-.81.981a9.572 9.572 0 0 0-.657 1.314V331h-4.446v-18.468h2.61c.456 0 .774.081.954.243.18.162.3.453.36.873l.27 2.088zm15.39 15.552c-1.608 0-2.841-.453-3.699-1.359-.858-.906-1.287-2.157-1.287-3.753v-10.314h-1.89a.867.867 0 0 1-.612-.234c-.168-.156-.252-.39-.252-.702v-1.764l2.97-.486.936-5.04a.988.988 0 0 1 .342-.558c.168-.132.384-.198.648-.198h2.304v5.814h4.932v3.168h-4.932v10.008c0 .576.141 1.026.423 1.35.282.324.669.486 1.161.486.276 0 .507-.033.693-.099.186-.066.348-.135.486-.207.138-.072.261-.141.369-.207a.617.617 0 0 1 .324-.099c.132 0 .24.033.324.099.084.066.174.165.27.297l1.332 2.16a6.73 6.73 0 0 1-2.232 1.224c-.84.276-1.71.414-2.61.414zm11.394-16.488c.372-.372.765-.717 1.179-1.035a7.449 7.449 0 0 1 1.314-.81 7.364 7.364 0 0 1 1.485-.522 7.44 7.44 0 0 1 1.728-.189c1.008 0 1.902.171 2.682.513a5.3 5.3 0 0 1 1.953 1.44c.522.618.918 1.356 1.188 2.214.27.858.405 1.803.405 2.835V331h-4.446v-11.754c0-1.128-.258-2.001-.774-2.619-.516-.618-1.302-.927-2.358-.927a4.63 4.63 0 0 0-2.16.522 7.741 7.741 0 0 0-1.908 1.422V331h-4.446v-18.468h2.718c.576 0 .954.27 1.134.81l.306 1.458zm28.044 4.842a5.35 5.35 0 0 0-.243-1.629 3.872 3.872 0 0 0-.729-1.341 3.39 3.39 0 0 0-1.233-.909c-.498-.222-1.077-.333-1.737-.333-1.284 0-2.295.366-3.033 1.098-.738.732-1.209 1.77-1.413 3.114h8.388zm-8.478 2.682c.072.948.24 1.767.504 2.457s.612 1.26 1.044 1.71c.432.45.945.786 1.539 1.008a5.591 5.591 0 0 0 1.971.333c.72 0 1.341-.084 1.863-.252a8.735 8.735 0 0 0 1.368-.558c.39-.204.732-.39 1.026-.558.294-.168.579-.252.855-.252.372 0 .648.138.828.414l1.278 1.62a7.41 7.41 0 0 1-1.656 1.449 9.287 9.287 0 0 1-1.917.936c-.666.234-1.344.399-2.034.495-.69.096-1.359.144-2.007.144-1.284 0-2.478-.213-3.582-.639a8.018 8.018 0 0 1-2.88-1.89c-.816-.834-1.458-1.866-1.926-3.096-.468-1.23-.702-2.655-.702-4.275 0-1.26.204-2.445.612-3.555a8.548 8.548 0 0 1 1.755-2.898c.762-.822 1.692-1.473 2.79-1.953s2.337-.72 3.717-.72c1.164 0 2.238.186 3.222.558a7.02 7.02 0 0 1 2.538 1.629c.708.714 1.263 1.59 1.665 2.628.402 1.038.603 2.223.603 3.555 0 .672-.072 1.125-.216 1.359-.144.234-.42.351-.828.351h-11.43zm19.998-6.588c.576-1.104 1.26-1.971 2.052-2.601.792-.63 1.728-.945 2.808-.945.852 0 1.536.186 2.052.558l-.288 3.33c-.06.216-.147.369-.261.459-.114.09-.267.135-.459.135-.18 0-.447-.03-.801-.09a6.19 6.19 0 0 0-1.035-.09c-.492 0-.93.072-1.314.216a3.305 3.305 0 0 0-1.035.621c-.306.27-.576.597-.81.981a9.572 9.572 0 0 0-.657 1.314V331h-4.446v-18.468h2.61c.456 0 .774.081.954.243.18.162.3.453.36.873l.27 2.088zm20.502.396c-.12.192-.246.327-.378.405a.98.98 0 0 1-.504.117c-.216 0-.447-.06-.693-.18a47.31 47.31 0 0 0-.855-.405 7.831 7.831 0 0 0-1.107-.405c-.414-.12-.903-.18-1.467-.18-.876 0-1.563.186-2.061.558-.498.372-.747.858-.747 1.458 0 .396.129.729.387.999s.6.507 1.026.711c.426.204.909.387 1.449.549.54.162 1.089.339 1.647.531s1.107.411 1.647.657c.54.246 1.023.558 1.449.936.426.378.768.831 1.026 1.359s.387 1.164.387 1.908a6.23 6.23 0 0 1-.477 2.457 5.308 5.308 0 0 1-1.413 1.944c-.624.546-1.395.972-2.313 1.278-.918.306-1.977.459-3.177.459-.636 0-1.257-.057-1.863-.171a10.996 10.996 0 0 1-1.746-.477 9.662 9.662 0 0 1-1.548-.72 7.513 7.513 0 0 1-1.251-.9l1.026-1.692c.132-.204.288-.36.468-.468.18-.108.408-.162.684-.162.276 0 .537.078.783.234.246.156.531.324.855.504.324.18.705.348 1.143.504.438.156.993.234 1.665.234.528 0 .981-.063 1.359-.189s.69-.291.936-.495c.246-.204.426-.441.54-.711.114-.27.171-.549.171-.837 0-.432-.129-.786-.387-1.062s-.6-.516-1.026-.72a9.91 9.91 0 0 0-1.458-.549 48.173 48.173 0 0 1-1.674-.531 15.486 15.486 0 0 1-1.674-.675 5.705 5.705 0 0 1-1.458-.981 4.44 4.44 0 0 1-1.026-1.458c-.258-.576-.387-1.272-.387-2.088 0-.756.15-1.476.45-2.16.3-.684.741-1.281 1.323-1.791s1.308-.918 2.178-1.224c.87-.306 1.875-.459 3.015-.459 1.272 0 2.43.21 3.474.63 1.044.42 1.914.972 2.61 1.656l-1.008 1.602zm19.458 15.156c-1.608 0-2.841-.453-3.699-1.359-.858-.906-1.287-2.157-1.287-3.753v-10.314h-1.89a.867.867 0 0 1-.612-.234c-.168-.156-.252-.39-.252-.702v-1.764l2.97-.486.936-5.04a.988.988 0 0 1 .342-.558c.168-.132.384-.198.648-.198h2.304v5.814h4.932v3.168h-4.932v10.008c0 .576.141 1.026.423 1.35.282.324.669.486 1.161.486.276 0 .507-.033.693-.099.186-.066.348-.135.486-.207.138-.072.261-.141.369-.207a.617.617 0 0 1 .324-.099c.132 0 .24.033.324.099.084.066.174.165.27.297l1.332 2.16a6.73 6.73 0 0 1-2.232 1.224c-.84.276-1.71.414-2.61.414zm15.408-19.044c1.368 0 2.613.222 3.735.666a8.183 8.183 0 0 1 2.88 1.89c.798.816 1.413 1.812 1.845 2.988.432 1.176.648 2.49.648 3.942 0 1.464-.216 2.784-.648 3.96-.432 1.176-1.047 2.178-1.845 3.006a8.064 8.064 0 0 1-2.88 1.908c-1.122.444-2.367.666-3.735.666-1.38 0-2.634-.222-3.762-.666a8.047 8.047 0 0 1-2.889-1.908c-.798-.828-1.416-1.83-1.854-3.006-.438-1.176-.657-2.496-.657-3.96 0-1.452.219-2.766.657-3.942.438-1.176 1.056-2.172 1.854-2.988.798-.816 1.761-1.446 2.889-1.89 1.128-.444 2.382-.666 3.762-.666zm0 15.606c1.536 0 2.673-.516 3.411-1.548s1.107-2.544 1.107-4.536c0-1.992-.369-3.51-1.107-4.554-.738-1.044-1.875-1.566-3.411-1.566-1.56 0-2.715.525-3.465 1.575-.75 1.05-1.125 2.565-1.125 4.545s.375 3.489 1.125 4.527c.75 1.038 1.905 1.557 3.465 1.557zM360.368 211.244c1.368 0 2.613.222 3.735.666a8.183 8.183 0 0 1 2.88 1.89c.798.816 1.413 1.812 1.845 2.988.432 1.176.648 2.49.648 3.942 0 1.464-.216 2.784-.648 3.96-.432 1.176-1.047 2.178-1.845 3.006a8.064 8.064 0 0 1-2.88 1.908c-1.122.444-2.367.666-3.735.666-1.38 0-2.634-.222-3.762-.666a8.047 8.047 0 0 1-2.889-1.908c-.798-.828-1.416-1.83-1.854-3.006-.438-1.176-.657-2.496-.657-3.96 0-1.452.219-2.766.657-3.942.438-1.176 1.056-2.172 1.854-2.988.798-.816 1.761-1.446 2.889-1.89 1.128-.444 2.382-.666 3.762-.666zm0 15.606c1.536 0 2.673-.516 3.411-1.548s1.107-2.544 1.107-4.536c0-1.992-.369-3.51-1.107-4.554-.738-1.044-1.875-1.566-3.411-1.566-1.56 0-2.715.525-3.465 1.575-.75 1.05-1.125 2.565-1.125 4.545s.375 3.489 1.125 4.527c.75 1.038 1.905 1.557 3.465 1.557zm13.806 3.15v-15.12l-1.602-.252c-.348-.072-.627-.195-.837-.369-.21-.174-.315-.423-.315-.747v-1.818h2.754v-1.368c0-1.056.159-2.004.477-2.844a5.914 5.914 0 0 1 1.368-2.142c.594-.588 1.317-1.038 2.169-1.35.852-.312 1.812-.468 2.88-.468.852 0 1.644.114 2.376.342l-.09 2.232a.699.699 0 0 1-.144.405.798.798 0 0 1-.333.234 1.8 1.8 0 0 1-.477.108 5.8 5.8 0 0 1-.576.027c-.528 0-.999.057-1.413.171a2.378 2.378 0 0 0-1.053.594c-.288.282-.507.654-.657 1.116-.15.462-.225 1.035-.225 1.719v1.224h4.806v3.168h-4.662V230h-4.446z" fill="#3A3A3A"/><path d="M51.952 62.176c-.16.256-.328.436-.504.54-.176.104-.4.156-.672.156-.288 0-.596-.08-.924-.24-.328-.16-.708-.34-1.14-.54-.432-.2-.924-.38-1.476-.54-.552-.16-1.204-.24-1.956-.24-1.168 0-2.084.248-2.748.744-.664.496-.996 1.144-.996 1.944 0 .528.172.972.516 1.332.344.36.8.676 1.368.948.568.272 1.212.516 1.932.732.72.216 1.452.452 2.196.708.744.256 1.476.548 2.196.876.72.328 1.364.744 1.932 1.248a5.797 5.797 0 0 1 1.368 1.812c.344.704.516 1.552.516 2.544 0 1.184-.212 2.276-.636 3.276a7.077 7.077 0 0 1-1.884 2.592c-.832.728-1.86 1.296-3.084 1.704-1.224.408-2.636.612-4.236.612-.848 0-1.676-.076-2.484-.228a14.662 14.662 0 0 1-2.328-.636 12.883 12.883 0 0 1-2.064-.96 10.018 10.018 0 0 1-1.668-1.2l1.368-2.256c.176-.272.384-.48.624-.624.24-.144.544-.216.912-.216s.716.104 1.044.312c.328.208.708.432 1.14.672.432.24.94.464 1.524.672.584.208 1.324.312 2.22.312.704 0 1.308-.084 1.812-.252.504-.168.92-.388 1.248-.66.328-.272.568-.588.72-.948.152-.36.228-.732.228-1.116 0-.576-.172-1.048-.516-1.416-.344-.368-.8-.688-1.368-.96a13.212 13.212 0 0 0-1.944-.732 64.23 64.23 0 0 1-2.232-.708 20.648 20.648 0 0 1-2.232-.9 7.607 7.607 0 0 1-1.944-1.308 5.92 5.92 0 0 1-1.368-1.944c-.344-.768-.516-1.696-.516-2.784 0-1.008.2-1.968.6-2.88.4-.912.988-1.708 1.764-2.388.776-.68 1.744-1.224 2.904-1.632 1.16-.408 2.5-.612 4.02-.612 1.696 0 3.24.28 4.632.84 1.392.56 2.552 1.296 3.48 2.208l-1.344 2.136zm14.28 20.208c-2.144 0-3.788-.604-4.932-1.812-1.144-1.208-1.716-2.876-1.716-5.004V61.816h-2.52c-.32 0-.592-.104-.816-.312-.224-.208-.336-.52-.336-.936v-2.352l3.96-.648 1.248-6.72c.08-.32.232-.568.456-.744.224-.176.512-.264.864-.264h3.072v7.752h6.576v4.224h-6.576V75.16c0 .768.188 1.368.564 1.8.376.432.892.648 1.548.648.368 0 .676-.044.924-.132.248-.088.464-.18.648-.276.184-.096.348-.188.492-.276a.823.823 0 0 1 .432-.132c.176 0 .32.044.432.132.112.088.232.22.36.396l1.776 2.88a8.974 8.974 0 0 1-2.976 1.632c-1.12.368-2.28.552-3.48.552zm15.24-20.736c.768-1.472 1.68-2.628 2.736-3.468 1.056-.84 2.304-1.26 3.744-1.26 1.136 0 2.048.248 2.736.744l-.384 4.44c-.08.288-.196.492-.348.612-.152.12-.356.18-.612.18-.24 0-.596-.04-1.068-.12a8.252 8.252 0 0 0-1.38-.12c-.656 0-1.24.096-1.752.288a4.407 4.407 0 0 0-1.38.828c-.408.36-.768.796-1.08 1.308a12.763 12.763 0 0 0-.876 1.752V82H75.88V57.376h3.48c.608 0 1.032.108 1.272.324.24.216.4.604.48 1.164l.36 2.784zm23.208-4.656c1.824 0 3.484.296 4.98.888 1.496.592 2.776 1.432 3.84 2.52s1.884 2.416 2.46 3.984c.576 1.568.864 3.32.864 5.256 0 1.952-.288 3.712-.864 5.28-.576 1.568-1.396 2.904-2.46 4.008s-2.344 1.952-3.84 2.544c-1.496.592-3.156.888-4.98.888-1.84 0-3.512-.296-5.016-.888-1.504-.592-2.788-1.44-3.852-2.544s-1.888-2.44-2.472-4.008c-.584-1.568-.876-3.328-.876-5.28 0-1.936.292-3.688.876-5.256.584-1.568 1.408-2.896 2.472-3.984s2.348-1.928 3.852-2.52c1.504-.592 3.176-.888 5.016-.888zm0 20.808c2.048 0 3.564-.688 4.548-2.064.984-1.376 1.476-3.392 1.476-6.048s-.492-4.68-1.476-6.072c-.984-1.392-2.5-2.088-4.548-2.088-2.08 0-3.62.7-4.62 2.1-1 1.4-1.5 3.42-1.5 6.06 0 2.64.5 4.652 1.5 6.036 1 1.384 2.54 2.076 4.62 2.076zm22.224-17.4c.496-.496 1.02-.956 1.572-1.38a9.932 9.932 0 0 1 1.752-1.08 9.818 9.818 0 0 1 1.98-.696 9.919 9.919 0 0 1 2.304-.252c1.344 0 2.536.228 3.576.684a7.066 7.066 0 0 1 2.604 1.92c.696.824 1.224 1.808 1.584 2.952.36 1.144.54 2.404.54 3.78V82h-5.928V66.328c0-1.504-.344-2.668-1.032-3.492-.688-.824-1.736-1.236-3.144-1.236a6.173 6.173 0 0 0-2.88.696c-.896.464-1.744 1.096-2.544 1.896V82h-5.928V57.376h3.624c.768 0 1.272.36 1.512 1.08l.408 1.944zm30.528 8.688c.736 0 1.376-.1 1.92-.3.544-.2.996-.476 1.356-.828.36-.352.632-.776.816-1.272.184-.496.276-1.04.276-1.632 0-1.216-.364-2.18-1.092-2.892-.728-.712-1.82-1.068-3.276-1.068-1.456 0-2.548.356-3.276 1.068-.728.712-1.092 1.676-1.092 2.892 0 .576.092 1.112.276 1.608.184.496.456.924.816 1.284.36.36.816.64 1.368.84.552.2 1.188.3 1.908.3zm6.696 14.016c0-.48-.144-.872-.432-1.176-.288-.304-.68-.54-1.176-.708a8.699 8.699 0 0 0-1.74-.372 32.09 32.09 0 0 0-2.112-.18c-.744-.04-1.512-.076-2.304-.108a26.844 26.844 0 0 1-2.316-.192c-.656.368-1.188.8-1.596 1.296a2.64 2.64 0 0 0-.612 1.728c0 .432.108.836.324 1.212.216.376.56.7 1.032.972s1.084.484 1.836.636c.752.152 1.672.228 2.76.228 1.104 0 2.056-.084 2.856-.252.8-.168 1.46-.4 1.98-.696.52-.296.9-.648 1.14-1.056.24-.408.36-.852.36-1.332zm5.904-24.888v2.208c0 .704-.424 1.136-1.272 1.296l-2.208.408c.336.848.504 1.776.504 2.784 0 1.216-.244 2.316-.732 3.3a7.337 7.337 0 0 1-2.028 2.508c-.864.688-1.884 1.22-3.06 1.596-1.176.376-2.444.564-3.804.564-.48 0-.944-.024-1.392-.072a17.465 17.465 0 0 1-1.32-.192c-.768.464-1.152.984-1.152 1.56 0 .496.228.86.684 1.092.456.232 1.06.396 1.812.492.752.096 1.608.156 2.568.18.96.024 1.944.076 2.952.156s1.992.22 2.952.42c.96.2 1.816.516 2.568.948a5.038 5.038 0 0 1 1.812 1.764c.456.744.684 1.7.684 2.868 0 1.088-.268 2.144-.804 3.168S167.484 87.2 166.468 88c-1.016.8-2.264 1.444-3.744 1.932-1.48.488-3.164.732-5.052.732-1.856 0-3.472-.18-4.848-.54-1.376-.36-2.52-.84-3.432-1.44-.912-.6-1.592-1.292-2.04-2.076-.448-.784-.672-1.6-.672-2.448 0-1.152.348-2.116 1.044-2.892.696-.776 1.652-1.396 2.868-1.86a4.133 4.133 0 0 1-1.56-1.344c-.384-.56-.576-1.296-.576-2.208 0-.368.068-.748.204-1.14.136-.392.336-.78.6-1.164.264-.384.596-.748.996-1.092.4-.344.872-.652 1.416-.924-1.248-.672-2.228-1.568-2.94-2.688-.712-1.12-1.068-2.432-1.068-3.936 0-1.216.244-2.316.732-3.3a7.395 7.395 0 0 1 2.04-2.52c.872-.696 1.904-1.228 3.096-1.596 1.192-.368 2.492-.552 3.9-.552 1.056 0 2.048.108 2.976.324a10.14 10.14 0 0 1 2.544.948h7.08zm21 3.432c.768-1.472 1.68-2.628 2.736-3.468 1.056-.84 2.304-1.26 3.744-1.26 1.136 0 2.048.248 2.736.744l-.384 4.44c-.08.288-.196.492-.348.612-.152.12-.356.18-.612.18-.24 0-.596-.04-1.068-.12a8.252 8.252 0 0 0-1.38-.12c-.656 0-1.24.096-1.752.288a4.407 4.407 0 0 0-1.38.828c-.408.36-.768.796-1.08 1.308a12.763 12.763 0 0 0-.876 1.752V82h-5.928V57.376h3.48c.608 0 1.032.108 1.272.324.24.216.4.604.48 1.164l.36 2.784zm28.176 5.208c0-.768-.108-1.492-.324-2.172a5.162 5.162 0 0 0-.972-1.788 4.52 4.52 0 0 0-1.644-1.212c-.664-.296-1.436-.444-2.316-.444-1.712 0-3.06.488-4.044 1.464-.984.976-1.612 2.36-1.884 4.152h11.184zm-11.304 3.576c.096 1.264.32 2.356.672 3.276.352.92.816 1.68 1.392 2.28.576.6 1.26 1.048 2.052 1.344.792.296 1.668.444 2.628.444.96 0 1.788-.112 2.484-.336a11.647 11.647 0 0 0 1.824-.744c.52-.272.976-.52 1.368-.744.392-.224.772-.336 1.14-.336.496 0 .864.184 1.104.552l1.704 2.16a9.88 9.88 0 0 1-2.208 1.932c-.816.52-1.668.936-2.556 1.248a13.97 13.97 0 0 1-2.712.66c-.92.128-1.812.192-2.676.192-1.712 0-3.304-.284-4.776-.852a10.691 10.691 0 0 1-3.84-2.52c-1.088-1.112-1.944-2.488-2.568-4.128-.624-1.64-.936-3.54-.936-5.7 0-1.68.272-3.26.816-4.74.544-1.48 1.324-2.768 2.34-3.864 1.016-1.096 2.256-1.964 3.72-2.604 1.464-.64 3.116-.96 4.956-.96 1.552 0 2.984.248 4.296.744a9.36 9.36 0 0 1 3.384 2.172c.944.952 1.684 2.12 2.22 3.504.536 1.384.804 2.964.804 4.74 0 .896-.096 1.5-.288 1.812-.192.312-.56.468-1.104.468h-15.24zm38.712-7.848c-.176.224-.348.4-.516.528-.168.128-.412.192-.732.192-.304 0-.6-.092-.888-.276a28.568 28.568 0 0 0-1.032-.624c-.4-.232-.876-.44-1.428-.624-.552-.184-1.236-.276-2.052-.276-1.04 0-1.952.188-2.736.564a5.186 5.186 0 0 0-1.956 1.62c-.52.704-.908 1.556-1.164 2.556-.256 1-.384 2.132-.384 3.396 0 1.312.14 2.48.42 3.504.28 1.024.684 1.884 1.212 2.58a5.215 5.215 0 0 0 1.92 1.584c.752.36 1.6.54 2.544.54s1.708-.116 2.292-.348a7.232 7.232 0 0 0 1.476-.768c.4-.28.748-.536 1.044-.768.296-.232.628-.348.996-.348.48 0 .84.184 1.08.552l1.704 2.16a10.717 10.717 0 0 1-2.136 1.932c-.768.52-1.564.936-2.388 1.248-.824.312-1.672.532-2.544.66-.872.128-1.74.192-2.604.192-1.52 0-2.952-.284-4.296-.852a10.147 10.147 0 0 1-3.528-2.484c-1.008-1.088-1.804-2.42-2.388-3.996-.584-1.576-.876-3.372-.876-5.388 0-1.808.26-3.484.78-5.028.52-1.544 1.284-2.88 2.292-4.008 1.008-1.128 2.256-2.012 3.744-2.652 1.488-.64 3.2-.96 5.136-.96 1.84 0 3.452.296 4.836.888a11.816 11.816 0 0 1 3.732 2.544l-1.56 2.16zm16.392-5.592c1.824 0 3.484.296 4.98.888 1.496.592 2.776 1.432 3.84 2.52s1.884 2.416 2.46 3.984c.576 1.568.864 3.32.864 5.256 0 1.952-.288 3.712-.864 5.28-.576 1.568-1.396 2.904-2.46 4.008s-2.344 1.952-3.84 2.544c-1.496.592-3.156.888-4.98.888-1.84 0-3.512-.296-5.016-.888-1.504-.592-2.788-1.44-3.852-2.544s-1.888-2.44-2.472-4.008c-.584-1.568-.876-3.328-.876-5.28 0-1.936.292-3.688.876-5.256.584-1.568 1.408-2.896 2.472-3.984s2.348-1.928 3.852-2.52c1.504-.592 3.176-.888 5.016-.888zm0 20.808c2.048 0 3.564-.688 4.548-2.064.984-1.376 1.476-3.392 1.476-6.048s-.492-4.68-1.476-6.072c-.984-1.392-2.5-2.088-4.548-2.088-2.08 0-3.62.7-4.62 2.1-1 1.4-1.5 3.42-1.5 6.06 0 2.64.5 4.652 1.5 6.036 1 1.384 2.54 2.076 4.62 2.076zm22.272-16.152c.768-1.472 1.68-2.628 2.736-3.468 1.056-.84 2.304-1.26 3.744-1.26 1.136 0 2.048.248 2.736.744l-.384 4.44c-.08.288-.196.492-.348.612-.152.12-.356.18-.612.18-.24 0-.596-.04-1.068-.12a8.252 8.252 0 0 0-1.38-.12c-.656 0-1.24.096-1.752.288a4.407 4.407 0 0 0-1.38.828c-.408.36-.768.796-1.08 1.308a12.763 12.763 0 0 0-.876 1.752V82h-5.928V57.376h3.48c.608 0 1.032.108 1.272.324.24.216.4.604.48 1.164l.36 2.784zm27.768 2.016c-.672-.816-1.404-1.392-2.196-1.728a6.476 6.476 0 0 0-2.556-.504c-.896 0-1.704.168-2.424.504a4.882 4.882 0 0 0-1.848 1.524c-.512.68-.904 1.544-1.176 2.592-.272 1.048-.408 2.284-.408 3.708 0 1.44.116 2.66.348 3.66.232 1 .564 1.816.996 2.448.432.632.96 1.088 1.584 1.368.624.28 1.32.42 2.088.42 1.232 0 2.28-.256 3.144-.768.864-.512 1.68-1.24 2.448-2.184v-11.04zm5.928-17.328V82h-3.624c-.784 0-1.28-.36-1.488-1.08l-.504-2.376a12.429 12.429 0 0 1-3.42 2.76c-1.288.704-2.788 1.056-4.5 1.056-1.344 0-2.576-.28-3.696-.84-1.12-.56-2.084-1.372-2.892-2.436-.808-1.064-1.432-2.38-1.872-3.948-.44-1.568-.66-3.36-.66-5.376 0-1.824.248-3.52.744-5.088s1.208-2.928 2.136-4.08a9.967 9.967 0 0 1 3.336-2.7c1.296-.648 2.752-.972 4.368-.972 1.376 0 2.552.216 3.528.648a9.04 9.04 0 0 1 2.616 1.752V46.336h5.928z" fill="#479692"/><path fill="#5896A9" d="M133.895 163.604l50.738 43.139 104.235-100.81 26.946 22.1 60.558-52.083-11.334 2.763v-19.34l78.66-28.347v19.339l-15.869 69.344-27.202-25.732-84.813 84.007-26.668-25.732-97.825 99.9-55.16-39.355L7.247 315.347.23 278.994v-18.904z"/><path fill="#326778" d="M133.895 182.943l50.738 43.139 104.235-100.81 26.946 22.1 65.167-56.048-15.943-12.611 78.66-28.348-15.869 88.682-27.202-25.731-84.813 84.006-26.668-25.732-97.825 99.9-59.396-46.312L.071 322.916v-44.063z"/><path d="M298.384 266.664c-.672-.816-1.404-1.392-2.196-1.728a6.476 6.476 0 0 0-2.556-.504c-.896 0-1.704.168-2.424.504a4.882 4.882 0 0 0-1.848 1.524c-.512.68-.904 1.544-1.176 2.592-.272 1.048-.408 2.284-.408 3.708 0 1.44.116 2.66.348 3.66.232 1 .564 1.816.996 2.448.432.632.96 1.088 1.584 1.368.624.28 1.32.42 2.088.42 1.232 0 2.28-.256 3.144-.768.864-.512 1.68-1.24 2.448-2.184v-11.04zm5.928-17.328V285h-3.624c-.784 0-1.28-.36-1.488-1.08l-.504-2.376a12.429 12.429 0 0 1-3.42 2.76c-1.288.704-2.788 1.056-4.5 1.056-1.344 0-2.576-.28-3.696-.84-1.12-.56-2.084-1.372-2.892-2.436-.808-1.064-1.432-2.38-1.872-3.948-.44-1.568-.66-3.36-.66-5.376 0-1.824.248-3.52.744-5.088s1.208-2.928 2.136-4.08a9.967 9.967 0 0 1 3.336-2.7c1.296-.648 2.752-.972 4.368-.972 1.376 0 2.552.216 3.528.648a9.04 9.04 0 0 1 2.616 1.752v-12.984h5.928zm21.72 20.52c0-.768-.108-1.492-.324-2.172a5.162 5.162 0 0 0-.972-1.788 4.52 4.52 0 0 0-1.644-1.212c-.664-.296-1.436-.444-2.316-.444-1.712 0-3.06.488-4.044 1.464-.984.976-1.612 2.36-1.884 4.152h11.184zm-11.304 3.576c.096 1.264.32 2.356.672 3.276.352.92.816 1.68 1.392 2.28.576.6 1.26 1.048 2.052 1.344.792.296 1.668.444 2.628.444.96 0 1.788-.112 2.484-.336a11.647 11.647 0 0 0 1.824-.744c.52-.272.976-.52 1.368-.744.392-.224.772-.336 1.14-.336.496 0 .864.184 1.104.552l1.704 2.16a9.88 9.88 0 0 1-2.208 1.932c-.816.52-1.668.936-2.556 1.248a13.97 13.97 0 0 1-2.712.66c-.92.128-1.812.192-2.676.192-1.712 0-3.304-.284-4.776-.852a10.691 10.691 0 0 1-3.84-2.52c-1.088-1.112-1.944-2.488-2.568-4.128-.624-1.64-.936-3.54-.936-5.7 0-1.68.272-3.26.816-4.74.544-1.48 1.324-2.768 2.34-3.864 1.016-1.096 2.256-1.964 3.72-2.604 1.464-.64 3.116-.96 4.956-.96 1.552 0 2.984.248 4.296.744a9.36 9.36 0 0 1 3.384 2.172c.944.952 1.684 2.12 2.22 3.504.536 1.384.804 2.964.804 4.74 0 .896-.096 1.5-.288 1.812-.192.312-.56.468-1.104.468h-15.24zm27.072-24.096V285h-5.928v-35.664h5.928zm12.072 11.04V285h-5.952v-24.624h5.952zm.816-7.176c0 .512-.104.992-.312 1.44-.208.448-.484.84-.828 1.176a3.958 3.958 0 0 1-1.212.804c-.464.2-.96.3-1.488.3-.512 0-.996-.1-1.452-.3a3.846 3.846 0 0 1-1.188-.804 3.888 3.888 0 0 1-.804-1.176c-.2-.448-.3-.928-.3-1.44a3.809 3.809 0 0 1 1.104-2.688 3.846 3.846 0 0 1 1.188-.804c.456-.2.94-.3 1.452-.3.528 0 1.024.1 1.488.3.464.2.868.468 1.212.804s.62.736.828 1.2c.208.464.312.96.312 1.488zm27.432 7.176L372.352 285h-5.376l-9.768-24.624h4.896c.448 0 .82.104 1.116.312.296.208.492.472.588.792l4.752 13.152a35.384 35.384 0 0 1 1.176 4.464c.16-.736.336-1.472.528-2.208a27.73 27.73 0 0 1 .696-2.256l4.848-13.152c.112-.32.312-.584.6-.792.288-.208.632-.312 1.032-.312h4.68zm19.008 9.48c0-.768-.108-1.492-.324-2.172a5.162 5.162 0 0 0-.972-1.788 4.52 4.52 0 0 0-1.644-1.212c-.664-.296-1.436-.444-2.316-.444-1.712 0-3.06.488-4.044 1.464-.984.976-1.612 2.36-1.884 4.152h11.184zm-11.304 3.576c.096 1.264.32 2.356.672 3.276.352.92.816 1.68 1.392 2.28.576.6 1.26 1.048 2.052 1.344.792.296 1.668.444 2.628.444.96 0 1.788-.112 2.484-.336a11.647 11.647 0 0 0 1.824-.744c.52-.272.976-.52 1.368-.744.392-.224.772-.336 1.14-.336.496 0 .864.184 1.104.552l1.704 2.16a9.88 9.88 0 0 1-2.208 1.932c-.816.52-1.668.936-2.556 1.248a13.97 13.97 0 0 1-2.712.66c-.92.128-1.812.192-2.676.192-1.712 0-3.304-.284-4.776-.852a10.691 10.691 0 0 1-3.84-2.52c-1.088-1.112-1.944-2.488-2.568-4.128-.624-1.64-.936-3.54-.936-5.7 0-1.68.272-3.26.816-4.74.544-1.48 1.324-2.768 2.34-3.864 1.016-1.096 2.256-1.964 3.72-2.604 1.464-.64 3.116-.96 4.956-.96 1.552 0 2.984.248 4.296.744a9.36 9.36 0 0 1 3.384 2.172c.944.952 1.684 2.12 2.22 3.504.536 1.384.804 2.964.804 4.74 0 .896-.096 1.5-.288 1.812-.192.312-.56.468-1.104.468h-15.24zm26.664-8.784c.768-1.472 1.68-2.628 2.736-3.468 1.056-.84 2.304-1.26 3.744-1.26 1.136 0 2.048.248 2.736.744l-.384 4.44c-.08.288-.196.492-.348.612-.152.12-.356.18-.612.18-.24 0-.596-.04-1.068-.12a8.252 8.252 0 0 0-1.38-.12c-.656 0-1.24.096-1.752.288a4.407 4.407 0 0 0-1.38.828c-.408.36-.768.796-1.08 1.308a12.763 12.763 0 0 0-.876 1.752V285h-5.928v-24.624h3.48c.608 0 1.032.108 1.272.324.24.216.4.604.48 1.164l.36 2.784zm34.68-4.272l-13.416 31.392c-.176.416-.404.732-.684.948-.28.216-.708.324-1.284.324h-4.416l4.608-9.888-9.96-22.776h5.208c.464 0 .828.112 1.092.336.264.224.46.48.588.768l5.232 12.768c.176.432.324.864.444 1.296.12.432.236.872.348 1.32.144-.448.288-.892.432-1.332.144-.44.304-.876.48-1.308l4.944-12.744c.128-.32.34-.584.636-.792.296-.208.628-.312.996-.312h4.752z" fill="#479692"/><path d="M57.352 375.288c-1.608 0-2.841-.453-3.699-1.359-.858-.906-1.287-2.157-1.287-3.753v-10.314h-1.89a.867.867 0 0 1-.612-.234c-.168-.156-.252-.39-.252-.702v-1.764l2.97-.486.936-5.04a.988.988 0 0 1 .342-.558c.168-.132.384-.198.648-.198h2.304v5.814h4.932v3.168h-4.932v10.008c0 .576.141 1.026.423 1.35.282.324.669.486 1.161.486.276 0 .507-.033.693-.099.186-.066.348-.135.486-.207.138-.072.261-.141.369-.207a.617.617 0 0 1 .324-.099c.132 0 .24.033.324.099.084.066.174.165.27.297l1.332 2.16a6.73 6.73 0 0 1-2.232 1.224c-.84.276-1.71.414-2.61.414zm15.408-19.044c1.368 0 2.613.222 3.735.666a8.183 8.183 0 0 1 2.88 1.89c.798.816 1.413 1.812 1.845 2.988.432 1.176.648 2.49.648 3.942 0 1.464-.216 2.784-.648 3.96-.432 1.176-1.047 2.178-1.845 3.006a8.064 8.064 0 0 1-2.88 1.908c-1.122.444-2.367.666-3.735.666-1.38 0-2.634-.222-3.762-.666a8.047 8.047 0 0 1-2.889-1.908c-.798-.828-1.416-1.83-1.854-3.006-.438-1.176-.657-2.496-.657-3.96 0-1.452.219-2.766.657-3.942.438-1.176 1.056-2.172 1.854-2.988.798-.816 1.761-1.446 2.889-1.89 1.128-.444 2.382-.666 3.762-.666zm0 15.606c1.536 0 2.673-.516 3.411-1.548s1.107-2.544 1.107-4.536c0-1.992-.369-3.51-1.107-4.554-.738-1.044-1.875-1.566-3.411-1.566-1.56 0-2.715.525-3.465 1.575-.75 1.05-1.125 2.565-1.125 4.545s.375 3.489 1.125 4.527c.75 1.038 1.905 1.557 3.465 1.557zm16.956-1.638c.504.612 1.053 1.044 1.647 1.296a4.903 4.903 0 0 0 1.935.378c.672 0 1.278-.126 1.818-.378s.999-.636 1.377-1.152c.378-.516.669-1.167.873-1.953.204-.786.306-1.713.306-2.781 0-1.08-.087-1.995-.261-2.745-.174-.75-.423-1.359-.747-1.827-.324-.468-.717-.81-1.179-1.026-.462-.216-.987-.324-1.575-.324-.924 0-1.71.195-2.358.585-.648.39-1.26.939-1.836 1.647v8.28zm-.234-11.16a9.633 9.633 0 0 1 2.574-2.07c.96-.528 2.088-.792 3.384-.792 1.008 0 1.929.21 2.763.63.834.42 1.554 1.029 2.16 1.827.606.798 1.074 1.782 1.404 2.952.33 1.17.495 2.511.495 4.023 0 1.38-.186 2.658-.558 3.834-.372 1.176-.903 2.196-1.593 3.06a7.36 7.36 0 0 1-2.502 2.025c-.978.486-2.073.729-3.285.729-1.032 0-1.914-.159-2.646-.477a6.465 6.465 0 0 1-1.962-1.323v7.56H85.27v-24.498h2.718c.576 0 .954.27 1.134.81l.36 1.71zM133.096 375h-4.446v-15.138h-8.568v10.008c0 .576.141 1.026.423 1.35.282.324.669.486 1.161.486.276 0 .507-.033.693-.099.186-.066.348-.135.486-.207.138-.072.261-.141.369-.207a.617.617 0 0 1 .324-.099c.132 0 .24.033.324.099.084.066.174.165.27.297l1.332 2.16a6.73 6.73 0 0 1-2.232 1.224c-.84.276-1.71.414-2.61.414-1.608 0-2.841-.453-3.699-1.359-.858-.906-1.287-2.157-1.287-3.753v-10.314h-1.89a.867.867 0 0 1-.612-.234c-.168-.156-.252-.39-.252-.702v-1.764l2.97-.504.936-5.022a.988.988 0 0 1 .342-.558c.168-.132.384-.198.648-.198h2.304v5.814h13.014V375zm.774-23.922c0 .384-.078.747-.234 1.089a2.934 2.934 0 0 1-.621.891 2.94 2.94 0 0 1-2.043.828c-.384 0-.744-.075-1.08-.225a2.916 2.916 0 0 1-.882-.603 2.885 2.885 0 0 1-.603-.891 2.681 2.681 0 0 1-.225-1.089c0-.396.075-.765.225-1.107a3 3 0 0 1 .603-.9c.252-.258.546-.462.882-.612.336-.15.696-.225 1.08-.225.396 0 .771.075 1.125.225.354.15.66.354.918.612s.465.558.621.9c.156.342.234.711.234 1.107zm15.66 12.564a5.35 5.35 0 0 0-.243-1.629 3.872 3.872 0 0 0-.729-1.341 3.39 3.39 0 0 0-1.233-.909c-.498-.222-1.077-.333-1.737-.333-1.284 0-2.295.366-3.033 1.098-.738.732-1.209 1.77-1.413 3.114h8.388zm-8.478 2.682c.072.948.24 1.767.504 2.457s.612 1.26 1.044 1.71c.432.45.945.786 1.539 1.008a5.591 5.591 0 0 0 1.971.333c.72 0 1.341-.084 1.863-.252a8.735 8.735 0 0 0 1.368-.558c.39-.204.732-.39 1.026-.558.294-.168.579-.252.855-.252.372 0 .648.138.828.414l1.278 1.62a7.41 7.41 0 0 1-1.656 1.449 9.287 9.287 0 0 1-1.917.936c-.666.234-1.344.399-2.034.495-.69.096-1.359.144-2.007.144-1.284 0-2.478-.213-3.582-.639a8.018 8.018 0 0 1-2.88-1.89c-.816-.834-1.458-1.866-1.926-3.096-.468-1.23-.702-2.655-.702-4.275 0-1.26.204-2.445.612-3.555a8.548 8.548 0 0 1 1.755-2.898c.762-.822 1.692-1.473 2.79-1.953s2.337-.72 3.717-.72c1.164 0 2.238.186 3.222.558a7.02 7.02 0 0 1 2.538 1.629c.708.714 1.263 1.59 1.665 2.628.402 1.038.603 2.223.603 3.555 0 .672-.072 1.125-.216 1.359-.144.234-.42.351-.828.351h-11.43zm19.998-6.588c.576-1.104 1.26-1.971 2.052-2.601.792-.63 1.728-.945 2.808-.945.852 0 1.536.186 2.052.558l-.288 3.33c-.06.216-.147.369-.261.459-.114.09-.267.135-.459.135-.18 0-.447-.03-.801-.09a6.19 6.19 0 0 0-1.035-.09c-.492 0-.93.072-1.314.216a3.305 3.305 0 0 0-1.035.621c-.306.27-.576.597-.81.981a9.572 9.572 0 0 0-.657 1.314V375h-4.446v-18.468h2.61c.456 0 .774.081.954.243.18.162.3.453.36.873l.27 2.088zm22.59-3.204V375h-4.464v-18.468h4.464zm.612-5.382c0 .384-.078.744-.234 1.08-.156.336-.363.63-.621.882a2.968 2.968 0 0 1-.909.603c-.348.15-.72.225-1.116.225-.384 0-.747-.075-1.089-.225a2.885 2.885 0 0 1-.891-.603 2.916 2.916 0 0 1-.603-.882 2.619 2.619 0 0 1-.225-1.08 2.856 2.856 0 0 1 .828-2.016c.252-.252.549-.453.891-.603.342-.15.705-.225 1.089-.225.396 0 .768.075 1.116.225.348.15.651.351.909.603s.465.552.621.9c.156.348.234.72.234 1.116zm8.082 7.65c.372-.372.765-.717 1.179-1.035a7.449 7.449 0 0 1 1.314-.81 7.364 7.364 0 0 1 1.485-.522 7.44 7.44 0 0 1 1.728-.189c1.008 0 1.902.171 2.682.513a5.3 5.3 0 0 1 1.953 1.44c.522.618.918 1.356 1.188 2.214.27.858.405 1.803.405 2.835V375h-4.446v-11.754c0-1.128-.258-2.001-.774-2.619-.516-.618-1.302-.927-2.358-.927a4.63 4.63 0 0 0-2.16.522 7.741 7.741 0 0 0-1.908 1.422V375h-4.446v-18.468h2.718c.576 0 .954.27 1.134.81l.306 1.458zm32.796-2.268L217.804 375h-4.032l-7.326-18.468h3.672c.336 0 .615.078.837.234.222.156.369.354.441.594l3.564 9.864a26.538 26.538 0 0 1 .882 3.348c.12-.552.252-1.104.396-1.656.144-.552.318-1.116.522-1.692l3.636-9.864c.084-.24.234-.438.45-.594.216-.156.474-.234.774-.234h3.51zm14.256 7.11a5.35 5.35 0 0 0-.243-1.629 3.872 3.872 0 0 0-.729-1.341 3.39 3.39 0 0 0-1.233-.909c-.498-.222-1.077-.333-1.737-.333-1.284 0-2.295.366-3.033 1.098-.738.732-1.209 1.77-1.413 3.114h8.388zm-8.478 2.682c.072.948.24 1.767.504 2.457s.612 1.26 1.044 1.71c.432.45.945.786 1.539 1.008a5.591 5.591 0 0 0 1.971.333c.72 0 1.341-.084 1.863-.252a8.735 8.735 0 0 0 1.368-.558c.39-.204.732-.39 1.026-.558.294-.168.579-.252.855-.252.372 0 .648.138.828.414l1.278 1.62a7.41 7.41 0 0 1-1.656 1.449 9.287 9.287 0 0 1-1.917.936c-.666.234-1.344.399-2.034.495-.69.096-1.359.144-2.007.144-1.284 0-2.478-.213-3.582-.639a8.018 8.018 0 0 1-2.88-1.89c-.816-.834-1.458-1.866-1.926-3.096-.468-1.23-.702-2.655-.702-4.275 0-1.26.204-2.445.612-3.555a8.548 8.548 0 0 1 1.755-2.898c.762-.822 1.692-1.473 2.79-1.953s2.337-.72 3.717-.72c1.164 0 2.238.186 3.222.558a7.02 7.02 0 0 1 2.538 1.629c.708.714 1.263 1.59 1.665 2.628.402 1.038.603 2.223.603 3.555 0 .672-.072 1.125-.216 1.359-.144.234-.42.351-.828.351h-11.43zm27.072-6.192c-.12.192-.246.327-.378.405a.98.98 0 0 1-.504.117c-.216 0-.447-.06-.693-.18a47.31 47.31 0 0 0-.855-.405 7.831 7.831 0 0 0-1.107-.405c-.414-.12-.903-.18-1.467-.18-.876 0-1.563.186-2.061.558-.498.372-.747.858-.747 1.458 0 .396.129.729.387.999s.6.507 1.026.711c.426.204.909.387 1.449.549.54.162 1.089.339 1.647.531s1.107.411 1.647.657c.54.246 1.023.558 1.449.936.426.378.768.831 1.026 1.359s.387 1.164.387 1.908a6.23 6.23 0 0 1-.477 2.457 5.308 5.308 0 0 1-1.413 1.944c-.624.546-1.395.972-2.313 1.278-.918.306-1.977.459-3.177.459-.636 0-1.257-.057-1.863-.171a10.996 10.996 0 0 1-1.746-.477 9.662 9.662 0 0 1-1.548-.72 7.513 7.513 0 0 1-1.251-.9l1.026-1.692c.132-.204.288-.36.468-.468.18-.108.408-.162.684-.162.276 0 .537.078.783.234.246.156.531.324.855.504.324.18.705.348 1.143.504.438.156.993.234 1.665.234.528 0 .981-.063 1.359-.189s.69-.291.936-.495c.246-.204.426-.441.54-.711.114-.27.171-.549.171-.837 0-.432-.129-.786-.387-1.062s-.6-.516-1.026-.72a9.91 9.91 0 0 0-1.458-.549 48.173 48.173 0 0 1-1.674-.531 15.486 15.486 0 0 1-1.674-.675 5.705 5.705 0 0 1-1.458-.981 4.44 4.44 0 0 1-1.026-1.458c-.258-.576-.387-1.272-.387-2.088 0-.756.15-1.476.45-2.16.3-.684.741-1.281 1.323-1.791s1.308-.918 2.178-1.224c.87-.306 1.875-.459 3.015-.459 1.272 0 2.43.21 3.474.63 1.044.42 1.914.972 2.61 1.656l-1.008 1.602zm10.71 15.156c-1.608 0-2.841-.453-3.699-1.359-.858-.906-1.287-2.157-1.287-3.753v-10.314h-1.89a.867.867 0 0 1-.612-.234c-.168-.156-.252-.39-.252-.702v-1.764l2.97-.486.936-5.04a.988.988 0 0 1 .342-.558c.168-.132.384-.198.648-.198h2.304v5.814h4.932v3.168h-4.932v10.008c0 .576.141 1.026.423 1.35.282.324.669.486 1.161.486.276 0 .507-.033.693-.099.186-.066.348-.135.486-.207.138-.072.261-.141.369-.207a.617.617 0 0 1 .324-.099c.132 0 .24.033.324.099.084.066.174.165.27.297l1.332 2.16a6.73 6.73 0 0 1-2.232 1.224c-.84.276-1.71.414-2.61.414zm7.236-.288v-18.468h2.718c.576 0 .954.27 1.134.81l.288 1.368c.324-.36.663-.69 1.017-.99.354-.3.732-.558 1.134-.774a5.77 5.77 0 0 1 2.817-.702c1.164 0 2.121.315 2.871.945.75.63 1.311 1.467 1.683 2.511a5.635 5.635 0 0 1 1.08-1.575 5.903 5.903 0 0 1 1.422-1.071 6.544 6.544 0 0 1 1.647-.612 7.91 7.91 0 0 1 1.755-.198c1.02 0 1.926.156 2.718.468a5.214 5.214 0 0 1 1.998 1.368c.54.6.951 1.332 1.233 2.196.282.864.423 1.854.423 2.97V375h-4.446v-11.754c0-1.176-.258-2.061-.774-2.655-.516-.594-1.272-.891-2.268-.891-.456 0-.879.078-1.269.234-.39.156-.732.381-1.026.675a3.082 3.082 0 0 0-.693 1.107c-.168.444-.252.954-.252 1.53V375h-4.464v-11.754c0-1.236-.249-2.136-.747-2.7-.498-.564-1.227-.846-2.187-.846-.648 0-1.251.159-1.809.477a6.032 6.032 0 0 0-1.557 1.305V375h-4.446zm42.048-11.358a5.35 5.35 0 0 0-.243-1.629 3.872 3.872 0 0 0-.729-1.341 3.39 3.39 0 0 0-1.233-.909c-.498-.222-1.077-.333-1.737-.333-1.284 0-2.295.366-3.033 1.098-.738.732-1.209 1.77-1.413 3.114h8.388zm-8.478 2.682c.072.948.24 1.767.504 2.457s.612 1.26 1.044 1.71c.432.45.945.786 1.539 1.008a5.591 5.591 0 0 0 1.971.333c.72 0 1.341-.084 1.863-.252a8.735 8.735 0 0 0 1.368-.558c.39-.204.732-.39 1.026-.558.294-.168.579-.252.855-.252.372 0 .648.138.828.414l1.278 1.62a7.41 7.41 0 0 1-1.656 1.449 9.287 9.287 0 0 1-1.917.936c-.666.234-1.344.399-2.034.495-.69.096-1.359.144-2.007.144-1.284 0-2.478-.213-3.582-.639a8.018 8.018 0 0 1-2.88-1.89c-.816-.834-1.458-1.866-1.926-3.096-.468-1.23-.702-2.655-.702-4.275 0-1.26.204-2.445.612-3.555a8.548 8.548 0 0 1 1.755-2.898c.762-.822 1.692-1.473 2.79-1.953s2.337-.72 3.717-.72c1.164 0 2.238.186 3.222.558a7.02 7.02 0 0 1 2.538 1.629c.708.714 1.263 1.59 1.665 2.628.402 1.038.603 2.223.603 3.555 0 .672-.072 1.125-.216 1.359-.144.234-.42.351-.828.351h-11.43zm19.962-7.524c.372-.372.765-.717 1.179-1.035a7.449 7.449 0 0 1 1.314-.81 7.364 7.364 0 0 1 1.485-.522 7.44 7.44 0 0 1 1.728-.189c1.008 0 1.902.171 2.682.513a5.3 5.3 0 0 1 1.953 1.44c.522.618.918 1.356 1.188 2.214.27.858.405 1.803.405 2.835V375h-4.446v-11.754c0-1.128-.258-2.001-.774-2.619-.516-.618-1.302-.927-2.358-.927a4.63 4.63 0 0 0-2.16.522 7.741 7.741 0 0 0-1.908 1.422V375H325.3v-18.468h2.718c.576 0 .954.27 1.134.81l.306 1.458zm22.302 16.488c-1.608 0-2.841-.453-3.699-1.359-.858-.906-1.287-2.157-1.287-3.753v-10.314h-1.89a.867.867 0 0 1-.612-.234c-.168-.156-.252-.39-.252-.702v-1.764l2.97-.486.936-5.04a.988.988 0 0 1 .342-.558c.168-.132.384-.198.648-.198h2.304v5.814h4.932v3.168h-4.932v10.008c0 .576.141 1.026.423 1.35.282.324.669.486 1.161.486.276 0 .507-.033.693-.099.186-.066.348-.135.486-.207.138-.072.261-.141.369-.207a.617.617 0 0 1 .324-.099c.132 0 .24.033.324.099.084.066.174.165.27.297l1.332 2.16a6.73 6.73 0 0 1-2.232 1.224c-.84.276-1.71.414-2.61.414zm20.43-5.076c.504.612 1.053 1.044 1.647 1.296a4.767 4.767 0 0 0 1.881.378c.684 0 1.299-.123 1.845-.369a3.51 3.51 0 0 0 1.395-1.152c.384-.522.678-1.188.882-1.998.204-.81.306-1.779.306-2.907 0-2.028-.336-3.495-1.008-4.401-.672-.906-1.638-1.359-2.898-1.359-.852 0-1.596.195-2.232.585-.636.39-1.242.939-1.818 1.647v8.28zm0-11.412a9.164 9.164 0 0 1 2.475-1.863c.906-.462 1.941-.693 3.105-.693 1.068 0 2.031.21 2.889.63a6.177 6.177 0 0 1 2.196 1.809c.606.786 1.071 1.737 1.395 2.853.324 1.116.486 2.37.486 3.762 0 1.5-.186 2.862-.558 4.086-.372 1.224-.903 2.271-1.593 3.141a7.246 7.246 0 0 1-2.493 2.025c-.972.48-2.052.72-3.24.72a6.625 6.625 0 0 1-1.566-.171 5.833 5.833 0 0 1-1.296-.477 5.232 5.232 0 0 1-1.089-.747 9.187 9.187 0 0 1-.945-.981l-.198 1.242c-.072.312-.195.534-.369.666s-.411.198-.711.198h-2.934v-26.748h4.446V358.8zm25.74 8.316c-1.284.06-2.364.171-3.24.333-.876.162-1.578.369-2.106.621-.528.252-.906.546-1.134.882a1.916 1.916 0 0 0-.342 1.098c0 .78.231 1.338.693 1.674.462.336 1.065.504 1.809.504.912 0 1.701-.165 2.367-.495.666-.33 1.317-.831 1.953-1.503v-3.114zm-10.188-8.01c2.124-1.944 4.68-2.916 7.668-2.916 1.08 0 2.046.177 2.898.531a6.123 6.123 0 0 1 2.16 1.476 6.317 6.317 0 0 1 1.341 2.259c.306.876.459 1.836.459 2.88V375h-2.016c-.42 0-.744-.063-.972-.189-.228-.126-.408-.381-.54-.765l-.396-1.332c-.468.42-.924.789-1.368 1.107a8.053 8.053 0 0 1-1.386.801c-.48.216-.993.381-1.539.495a8.867 8.867 0 0 1-1.809.171c-.78 0-1.5-.105-2.16-.315a4.746 4.746 0 0 1-1.71-.945 4.242 4.242 0 0 1-1.116-1.566c-.264-.624-.396-1.35-.396-2.178 0-.468.078-.933.234-1.395.156-.462.411-.903.765-1.323.354-.42.813-.816 1.377-1.188.564-.372 1.257-.696 2.079-.972.822-.276 1.779-.501 2.871-.675 1.092-.174 2.34-.279 3.744-.315v-1.08c0-1.236-.264-2.151-.792-2.745-.528-.594-1.29-.891-2.286-.891-.72 0-1.317.084-1.791.252a7.37 7.37 0 0 0-1.251.567c-.36.21-.687.399-.981.567a1.942 1.942 0 0 1-.981.252c-.312 0-.576-.081-.792-.243a2.03 2.03 0 0 1-.522-.567l-.792-1.422zm22.86-.306c.372-.372.765-.717 1.179-1.035a7.449 7.449 0 0 1 1.314-.81 7.364 7.364 0 0 1 1.485-.522 7.44 7.44 0 0 1 1.728-.189c1.008 0 1.902.171 2.682.513a5.3 5.3 0 0 1 1.953 1.44c.522.618.918 1.356 1.188 2.214.27.858.405 1.803.405 2.835V375h-4.446v-11.754c0-1.128-.258-2.001-.774-2.619-.516-.618-1.302-.927-2.358-.927a4.63 4.63 0 0 0-2.16.522 7.741 7.741 0 0 0-1.908 1.422V375h-4.446v-18.468h2.718c.576 0 .954.27 1.134.81l.306 1.458zm20.592-10.548v15.318h.828c.3 0 .537-.039.711-.117.174-.078.351-.237.531-.477l4.59-5.67c.192-.252.405-.444.639-.576.234-.132.537-.198.909-.198h4.068l-5.742 6.858c-.408.54-.852.954-1.332 1.242.252.18.477.39.675.63.198.24.387.498.567.774l6.156 8.964h-4.014a2.17 2.17 0 0 1-.9-.171c-.252-.114-.462-.321-.63-.621l-4.716-7.002c-.168-.276-.342-.456-.522-.54-.18-.084-.45-.126-.81-.126h-1.008V375h-4.446v-26.748h4.446zm26.064 11.88c-.12.192-.246.327-.378.405a.98.98 0 0 1-.504.117c-.216 0-.447-.06-.693-.18a47.31 47.31 0 0 0-.855-.405 7.831 7.831 0 0 0-1.107-.405c-.414-.12-.903-.18-1.467-.18-.876 0-1.563.186-2.061.558-.498.372-.747.858-.747 1.458 0 .396.129.729.387.999s.6.507 1.026.711c.426.204.909.387 1.449.549.54.162 1.089.339 1.647.531s1.107.411 1.647.657c.54.246 1.023.558 1.449.936.426.378.768.831 1.026 1.359s.387 1.164.387 1.908a6.23 6.23 0 0 1-.477 2.457 5.308 5.308 0 0 1-1.413 1.944c-.624.546-1.395.972-2.313 1.278-.918.306-1.977.459-3.177.459-.636 0-1.257-.057-1.863-.171a10.996 10.996 0 0 1-1.746-.477 9.662 9.662 0 0 1-1.548-.72 7.513 7.513 0 0 1-1.251-.9l1.026-1.692c.132-.204.288-.36.468-.468.18-.108.408-.162.684-.162.276 0 .537.078.783.234.246.156.531.324.855.504.324.18.705.348 1.143.504.438.156.993.234 1.665.234.528 0 .981-.063 1.359-.189s.69-.291.936-.495c.246-.204.426-.441.54-.711.114-.27.171-.549.171-.837 0-.432-.129-.786-.387-1.062s-.6-.516-1.026-.72a9.91 9.91 0 0 0-1.458-.549 48.173 48.173 0 0 1-1.674-.531 15.486 15.486 0 0 1-1.674-.675 5.705 5.705 0 0 1-1.458-.981 4.44 4.44 0 0 1-1.026-1.458c-.258-.576-.387-1.272-.387-2.088 0-.756.15-1.476.45-2.16.3-.684.741-1.281 1.323-1.791s1.308-.918 2.178-1.224c.87-.306 1.875-.459 3.015-.459 1.272 0 2.43.21 3.474.63 1.044.42 1.914.972 2.61 1.656l-1.008 1.602z" fill="#3A3A3A"/></g></svg>