<svg id="Layer_1" xmlns="http://www.w3.org/2000/svg" viewBox="0 0 711 515"><style>.st0{fill:none;stroke:#326778;stroke-width:6.6}.st1,.st2{fill:#326778}.st2{opacity:.551;enable-background:new}.st3{fill:none;stroke:#479692;stroke-width:7;stroke-miterlimit:10}.st4{fill:#3a3a3a}.st5{fill:#479692}</style><title>Management Consulting Firms</title><path class="st0" d="M535.9 183.5c0 99.5-80.7 180.2-180.2 180.2S175.5 283 175.5 183.5 256.1 3.3 355.7 3.3c99.5 0 180.2 80.7 180.2 180.2z"/><path class="st1" d="M355.7 10.9c-95.3 0-172.6 77.3-172.6 172.6s77.3 172.6 172.6 172.6 172.6-77.3 172.6-172.6S451 10.9 355.7 10.9zm0 15.4c86.7 0 157.2 70.5 157.2 157.2s-70.5 157.2-157.2 157.2-157.2-70.5-157.2-157.2S269 26.3 355.7 26.3z"/><path class="st2" d="M256.1 117.9c19.9-33.8 56.6-56.5 98.6-56.5s78.7 22.7 98.6 56.5h5.1C438.1 81.6 399.3 57 354.7 57S271.3 81.6 251 117.9h5.1m206.1 122.5c-18.7 37.9-57.6 64-102.6 64s-84-26.1-102.6-64h-5c19 40.4 60 68.4 107.5 68.4 47.6 0 88.6-28 107.5-68.4h-4.8"/><path class="st3" d="M423.1 136.7l-127.9 92.8"/><path class="st4" d="M79.1 493.4c-.1.2-.3.3-.4.4s-.3.1-.5.1-.4-.1-.7-.2c-.3-.2-.5-.3-.8-.5s-.7-.3-1.1-.5c-.4-.1-.9-.2-1.5-.2-.8 0-1.5.1-2.1.4s-1.1.7-1.5 1.2-.7 1.2-.9 1.9c-.2.8-.3 1.6-.3 2.5 0 1 .1 1.9.3 2.6s.5 1.4.9 1.9.9.9 1.4 1.2 1.2.4 1.9.4 1.3-.1 1.7-.3c.4-.1.8-.3 1.1-.6.3-.2.6-.4.8-.6.2-.2.5-.3.7-.3.4 0 .6.1.8.4l1.3 1.6c-.5.6-1 1-1.6 1.4s-1.2.7-1.8.9c-.6.2-1.3.4-1.9.5-.7.1-1.3.1-2 .1-1.1 0-2.2-.2-3.2-.6s-1.9-1.1-2.6-1.9c-.8-.8-1.4-1.8-1.8-3s-.7-2.5-.7-4c0-1.4.2-2.6.6-3.8s1-2.2 1.7-3 1.7-1.5 2.8-2 2.4-.7 3.9-.7c1.4 0 2.6.2 3.6.7s2 1.1 2.8 1.9c.3.5-.9 2.1-.9 2.1zm8.6-1.9c.7-.7 1.5-1.2 2.4-1.6s1.9-.6 3-.6c1 0 1.9.2 2.7.5.8.3 1.4.8 2 1.4.5.6.9 1.4 1.2 2.2.3.8.4 1.8.4 2.8V508H95v-11.8c0-1.1-.3-2-.8-2.6s-1.3-.9-2.4-.9c-.8 0-1.5.2-2.2.5-.7.4-1.3.9-1.9 1.4V508h-4.4v-26.7h4.4v10.2zm24-2.3c1.4 0 2.6.2 3.7.7 1.1.4 2.1 1.1 2.9 1.9s1.4 1.8 1.8 3 .6 2.5.6 3.9c0 1.5-.2 2.8-.6 4s-1 2.2-1.8 3-1.8 1.5-2.9 1.9-2.4.7-3.7.7c-1.4 0-2.6-.2-3.8-.7-1.1-.4-2.1-1.1-2.9-1.9s-1.4-1.8-1.9-3c-.4-1.2-.7-2.5-.7-4s.2-2.8.7-3.9 1.1-2.2 1.9-3 1.8-1.4 2.9-1.9c1.1-.5 2.4-.7 3.8-.7zm0 15.6c1.5 0 2.7-.5 3.4-1.5.7-1 1.1-2.5 1.1-4.5s-.4-3.5-1.1-4.6c-.7-1-1.9-1.6-3.4-1.6-1.6 0-2.7.5-3.5 1.6-.8 1-1.1 2.6-1.1 4.5s.4 3.5 1.1 4.5 2 1.7 3.5 1.6zm23.8-11.7c-.1.2-.2.3-.4.4s-.3.1-.5.1-.4-.1-.7-.2-.5-.3-.9-.4c-.4-.2-.7-.3-1.1-.4-.4-.1-.9-.2-1.5-.2-.9 0-1.6.2-2.1.6s-.7.9-.7 1.5c0 .4.1.7.4 1 .3.3.6.5 1 .7s.9.4 1.4.5c.5.2 1.1.3 1.6.5s1.1.4 1.6.7 1 .6 1.4.9c.4.4.8.8 1 1.4s.4 1.2.4 1.9c0 .8-.2 1.7-.5 2.5-.3.7-.8 1.4-1.4 1.9-.6.5-1.4 1-2.3 1.3-.9.3-2 .5-3.2.5-.6 0-1.3-.1-1.9-.2s-1.2-.3-1.7-.5-1.1-.4-1.5-.7c-.4-.3-.9-.6-1.3-.9l1-1.7c.1-.2.3-.4.5-.5s.4-.2.7-.2c.3 0 .5.1.8.2.2.2.5.3.9.5s.7.3 1.1.5 1 .2 1.7.2c.5 0 1-.1 1.4-.2s.7-.3.9-.5.4-.4.5-.7c.1-.3.2-.5.2-.8 0-.4-.1-.8-.4-1.1s-.6-.5-1-.7c-.5-.2-1-.4-1.5-.5-.6-.2-1.1-.3-1.7-.5-.6-.2-1.1-.4-1.7-.7-.5-.2-1-.6-1.5-1-.4-.4-.8-.9-1-1.5-.3-.6-.4-1.3-.4-2.1s.2-1.5.5-2.2.7-1.3 1.3-1.8 1.3-.9 2.2-1.2c.9-.3 1.9-.5 3-.5 1.3 0 2.4.2 3.5.6s1.9 1 2.6 1.7l-.7 1.8zm16.5 3.5c0-.6-.1-1.1-.2-1.6-.2-.5-.4-.9-.7-1.3s-.8-.7-1.2-.9c-.5-.2-1.1-.3-1.7-.3-1.3 0-2.3.4-3 1.1s-1.2 1.8-1.4 3.1c-.2-.1 8.2-.1 8.2-.1zm-8.5 2.7c.1.9.2 1.8.5 2.5s.6 1.3 1 1.7c.4.5.9.8 1.5 1s1.3.3 2 .3 1.3-.1 1.9-.3c.5-.1.9-.3 1.4-.6.4-.2.7-.4 1-.6s.6-.3.9-.3c.4 0 .6.1.8.4l1.3 1.6c-.5.6-1 1.1-1.7 1.4-.6.4-1.2.7-1.9.9-.7.2-1.3.4-2 .5s-1.4.1-2 .1c-1.3 0-2.5-.2-3.6-.6s-2.1-1.1-2.9-1.9-1.5-1.9-1.9-3.1-.7-2.7-.7-4.3c0-1.3.2-2.4.6-3.6.4-1.1 1-2.1 1.8-2.9s1.7-1.5 2.8-2 2.3-.7 3.7-.7c1.2 0 2.2.2 3.2.6s1.8.9 2.5 1.6 1.3 1.6 1.7 2.6.6 2.2.6 3.6c0 .7-.1 1.1-.2 1.4-.1.2-.4.4-.8.4l-11.5.3zM184 504v4h-15.3v-26h4.8v22H184zm19.5-14.5L193.4 513c-.1.3-.3.5-.5.7s-.5.2-1 .2h-3.2l3.5-7.4-7.5-17.1h3.9c.3 0 .6.1.8.3.2.2.3.4.4.6l3.9 9.6c.1.3.2.6.3 1 .1.3.2.7.3 1l.3-1c.1-.3.2-.7.4-1l3.7-9.6c.1-.2.3-.4.5-.6s.5-.2.7-.2h3.6zm6.4 2.3c.4-.4.8-.7 1.2-1s.8-.6 1.3-.8c.5-.2 1-.4 1.5-.5.6-.1 1.1-.2 1.7-.2 1 0 1.9.2 2.7.5s1.4.8 2 1.4c.5.6.9 1.4 1.2 2.2s.4 1.8.4 2.8V508h-4.4v-11.8c0-1.1-.3-2-.8-2.6s-1.3-.9-2.4-.9c-.8 0-1.5.2-2.2.5-.7.4-1.3.9-1.9 1.4V508h-4.5v-18.5h2.7c.6 0 1 .3 1.1.8l.4 1.5zm20.6-10.5v15.3h.8c.3 0 .5 0 .7-.1s.4-.2.5-.5l4.6-5.7c.2-.3.4-.4.6-.6.2-.1.5-.2.9-.2h4.1l-5.7 6.9c-.4.5-.9 1-1.3 1.2.3.2.5.4.7.6s.4.5.6.8l6.2 9h-4c-.3 0-.6-.1-.9-.2-.3-.1-.5-.3-.6-.6l-4.7-7c-.2-.3-.3-.5-.5-.5-.2-.1-.4-.1-.8-.1h-1v8.5h-4.4v-26.7l4.2-.1zm33.3 18.8c-1.3.1-2.4.2-3.2.3-.9.2-1.6.4-2.1.6s-.9.5-1.1.9c-.2.3-.3.7-.3 1.1 0 .8.2 1.3.7 1.7.5.3 1.1.5 1.8.5.9 0 1.7-.2 2.4-.5s1.3-.8 2-1.5v-3.1h-.2zm-10.2-8c2.1-1.9 4.7-2.9 7.7-2.9 1.1 0 2 .2 2.9.5.8.3 1.6.8 2.2 1.5s1.1 1.4 1.3 2.3c.3.9.5 1.8.5 2.9V508h-2c-.4 0-.7-.1-1-.2s-.4-.4-.5-.8l-.4-1.3c-.5.4-.9.8-1.4 1.1-.4.3-.9.6-1.4.8-.5.2-1 .4-1.5.5-.6.1-1.2.2-1.8.2-.8 0-1.5-.1-2.2-.3-.6-.2-1.2-.5-1.7-.9s-.9-1-1.1-1.6c-.3-.6-.4-1.4-.4-2.2 0-.5.1-.9.2-1.4.2-.5.4-.9.8-1.3s.8-.8 1.4-1.2c.6-.4 1.3-.7 2.1-1s1.8-.5 2.9-.7 2.3-.3 3.7-.3v-1.1c0-1.2-.3-2.2-.8-2.7s-1.3-.9-2.3-.9c-.7 0-1.3.1-1.8.3-.4.1-.9.3-1.3.6-.4.2-.7.4-1 .6s-.6.3-1 .3c-.3 0-.6-.1-.8-.2-.2-.2-.4-.3-.5-.6l-.8-1.6zm30 1c-.1.2-.2.3-.4.4-.2.1-.3.1-.5.1s-.4-.1-.7-.2c-.3-.1-.6-.3-.9-.4-.4-.2-.7-.3-1.1-.4s-.9-.2-1.5-.2c-.9 0-1.6.2-2.1.6s-.7.9-.7 1.5c0 .4.1.7.4 1s.6.5 1 .7.9.4 1.4.5c.5.2 1.1.3 1.6.5s1.1.4 1.6.7c.5.2 1 .6 1.4.9.4.4.8.8 1 1.4s.4 1.2.4 1.9c0 .8-.2 1.7-.5 2.5-.3.7-.8 1.4-1.4 1.9s-1.4 1-2.3 1.3-2 .5-3.2.5c-.6 0-1.3-.1-1.9-.2s-1.2-.3-1.7-.5-1.1-.4-1.5-.7c-.4-.3-.9-.6-1.3-.9l1-1.7c.1-.2.3-.4.5-.5s.4-.2.7-.2c.3 0 .5.1.8.2s.5.3.9.5c.3.2.7.3 1.1.5s1 .2 1.7.2c.5 0 1-.1 1.4-.2s.7-.3.9-.5c.2-.2.4-.4.5-.7s.2-.5.2-.8c0-.4-.1-.8-.4-1.1s-.6-.5-1-.7c-.5-.2-1-.4-1.5-.5-.6-.2-1.1-.3-1.7-.5s-1.1-.4-1.7-.7c-.5-.2-1-.6-1.5-1-.4-.4-.8-.9-1-1.5-.3-.6-.4-1.3-.4-2.1s.1-1.5.4-2.2.7-1.3 1.3-1.8 1.3-.9 2.2-1.2 1.9-.5 3-.5c1.3 0 2.4.2 3.5.6s1.9 1 2.6 1.7l-.6 1.8zm19.4 15.2c-1.6 0-2.8-.5-3.7-1.4s-1.3-2.2-1.3-3.8v-10.3h-1.9c-.2 0-.4-.1-.6-.2-.2-.2-.3-.4-.3-.7v-1.8l3-.5.9-5c0-.2.2-.4.3-.6.2-.1.4-.2.6-.2h2.3v5.8h4.9v3.2h-4.9v10c0 .6.1 1 .4 1.4s.7.5 1.2.5c.3 0 .5 0 .7-.1s.3-.1.5-.2c.1-.1.3-.1.4-.2s.2-.1.3-.1.2 0 .3.1l.3.3 1.3 2.2c-.7.5-1.4 1-2.2 1.2-.7.2-1.6.4-2.5.4zm11.7-16.8c.7-.7 1.5-1.2 2.4-1.6s1.9-.6 3-.6c1 0 1.9.2 2.7.5.8.3 1.4.8 2 1.4.5.6.9 1.4 1.2 2.2s.4 1.8.4 2.8V508H322v-11.8c0-1.1-.3-2-.8-2.6s-1.3-.9-2.4-.9c-.8 0-1.5.2-2.2.5-.7.4-1.3.9-1.9 1.4V508h-4.4v-26.7h4.4v10.2zm27.7 5.1c0-.6-.1-1.1-.2-1.6-.2-.5-.4-.9-.7-1.3-.3-.4-.8-.7-1.2-.9-.5-.2-1.1-.3-1.7-.3-1.3 0-2.3.4-3 1.1s-1.2 1.8-1.4 3.1h8.2v-.1zm-8.4 2.7c.1.9.2 1.8.5 2.5s.6 1.3 1 1.7c.4.5.9.8 1.5 1s1.3.3 2 .3 1.3-.1 1.9-.3c.5-.1.9-.3 1.4-.6.4-.2.7-.4 1-.6s.6-.3.9-.3c.4 0 .6.1.8.4l1.3 1.6c-.5.6-1 1.1-1.7 1.4-.6.4-1.2.7-1.9.9-.7.2-1.3.4-2 .5s-1.4.1-2 .1c-1.3 0-2.5-.2-3.6-.6s-2.1-1.1-2.9-1.9-1.5-1.9-1.9-3.1-.7-2.7-.7-4.3c0-1.3.2-2.4.6-3.6.4-1.1 1-2.1 1.8-2.9s1.7-1.5 2.8-2 2.3-.7 3.7-.7c1.2 0 2.2.2 3.2.6s1.8.9 2.5 1.6 1.3 1.6 1.7 2.6.6 2.2.6 3.6c0 .7-.1 1.1-.2 1.4s-.4.4-.8.4l-11.5.3zm20.4-9.8V508h-4.5v-18.5h4.5zm.6-5.3c0 .4-.1.7-.2 1.1s-.4.6-.6.9c-.3.3-.6.5-.9.6s-.7.2-1.1.2-.7-.1-1.1-.2c-.3-.1-.6-.3-.9-.6-.3-.3-.5-.6-.6-.9-.2-.3-.2-.7-.2-1.1 0-.8.3-1.5.8-2 .3-.3.5-.5.9-.6.3-.1.7-.2 1.1-.2s.8.1 1.1.2.7.4.9.6.5.6.6.9.2.7.2 1.1zm8.1 8.5c.6-1.1 1.3-2 2.1-2.6s1.7-.9 2.8-.9c.9 0 1.5.2 2.1.6l-.3 3.3c-.1.2-.1.4-.3.5-.1.1-.3.1-.5.1s-.4 0-.8-.1c-.3-.1-.7-.1-1-.1-.5 0-.9.1-1.3.2s-.7.4-1 .6c-.3.3-.6.6-.8 1-.3.4-.5.9-.7 1.3V508H359v-18.5h2.6c.5 0 .8.1 1 .2.2.2.3.5.4.9l.1 2.1zm23.8 0c.6-1.1 1.3-2 2.1-2.6s1.7-.9 2.8-.9c.9 0 1.5.2 2.1.6l-.3 3.3c-.1.2-.1.4-.3.5-.1.1-.3.1-.5.1s-.4 0-.8-.1c-.3-.1-.7-.1-1-.1-.5 0-.9.1-1.3.2s-.7.4-1 .6c-.3.3-.6.6-.8 1-.3.4-.5.9-.7 1.3V508h-4.5v-18.5h2.6c.5 0 .8.1 1 .2.2.2.3.5.4.9l.2 2.1zm21.1 3.9c0-.6-.1-1.1-.2-1.6-.2-.5-.4-.9-.7-1.3-.3-.4-.8-.7-1.2-.9-.5-.2-1.1-.3-1.7-.3-1.3 0-2.3.4-3 1.1s-1.2 1.8-1.4 3.1h8.2v-.1zm-8.5 2.7c.1.9.2 1.8.5 2.5s.6 1.3 1 1.7c.4.5.9.8 1.5 1s1.3.3 2 .3 1.3-.1 1.9-.3c.5-.1.9-.3 1.4-.6.4-.2.7-.4 1-.6s.6-.3.9-.3c.4 0 .6.1.8.4l1.3 1.6c-.5.6-1 1.1-1.7 1.4-.6.4-1.2.7-1.9.9-.7.2-1.3.4-2 .5s-1.4.1-2 .1c-1.3 0-2.5-.2-3.6-.6s-2.1-1.1-2.9-1.9-1.5-1.9-1.9-3.1-.7-2.7-.7-4.3c0-1.3.2-2.4.6-3.6.4-1.1 1-2.1 1.8-2.9s1.7-1.5 2.8-2 2.3-.7 3.7-.7c1.2 0 2.2.2 3.2.6s1.8.9 2.5 1.6 1.3 1.6 1.7 2.6.6 2.2.6 3.6c0 .7-.1 1.1-.2 1.4s-.4.4-.8.4l-11.5.3zm27.1-6.2c-.1.2-.2.3-.4.4-.2.1-.3.1-.5.1s-.4-.1-.7-.2c-.3-.1-.6-.3-.9-.4-.4-.2-.7-.3-1.1-.4s-.9-.2-1.5-.2c-.9 0-1.6.2-2.1.6s-.7.9-.7 1.5c0 .4.1.7.4 1s.6.5 1 .7.9.4 1.4.5c.5.2 1.1.3 1.6.5s1.1.4 1.6.7 1 .6 1.4.9.8.8 1 1.4.4 1.2.4 1.9c0 .8-.2 1.7-.5 2.5-.3.7-.8 1.4-1.4 1.9s-1.4 1-2.3 1.3-2 .5-3.2.5c-.6 0-1.3-.1-1.9-.2s-1.2-.3-1.7-.5-1.1-.4-1.5-.7c-.4-.3-.9-.6-1.3-.9l1-1.7c.1-.2.3-.4.5-.5s.4-.2.7-.2.5.1.8.2.5.3.9.5.7.3 1.1.5 1 .2 1.7.2c.5 0 1-.1 1.4-.2s.7-.3.9-.5.4-.4.5-.7.2-.5.2-.8c0-.4-.1-.8-.4-1.1s-.6-.5-1-.7c-.5-.2-1-.4-1.5-.5-.6-.2-1.1-.3-1.7-.5s-1.1-.4-1.7-.7c-.5-.2-1-.6-1.5-1-.4-.4-.8-.9-1-1.5-.3-.6-.4-1.3-.4-2.1s.1-1.5.5-2.2c.3-.7.7-1.3 1.3-1.8s1.3-.9 2.2-1.2 1.9-.5 3-.5c1.3 0 2.4.2 3.5.6s1.9 1 2.6 1.7l-.7 1.8zm16.5 3.5c0-.6-.1-1.1-.2-1.6-.2-.5-.4-.9-.7-1.3-.3-.4-.8-.7-1.2-.9-.5-.2-1.1-.3-1.7-.3-1.3 0-2.3.4-3 1.1s-1.2 1.8-1.4 3.1h8.2v-.1zm-8.5 2.7c.1.9.2 1.8.5 2.5s.6 1.3 1 1.7c.4.5.9.8 1.5 1s1.3.3 2 .3 1.3-.1 1.9-.3c.5-.1.9-.3 1.4-.6.4-.2.7-.4 1-.6s.6-.3.9-.3c.4 0 .6.1.8.4l1.3 1.6c-.5.6-1 1.1-1.7 1.4-.6.4-1.2.7-1.9.9-.7.2-1.3.4-2 .5s-1.4.1-2 .1c-1.3 0-2.5-.2-3.6-.6s-2.1-1.1-2.9-1.9-1.5-1.9-1.9-3.1-.7-2.7-.7-4.3c0-1.3.2-2.4.6-3.6.4-1.1 1-2.1 1.8-2.9s1.7-1.5 2.8-2 2.3-.7 3.7-.7c1.2 0 2.2.2 3.2.6s1.8.9 2.5 1.6 1.3 1.6 1.7 2.6c.4 1 .6 2.2.6 3.6 0 .7-.1 1.1-.2 1.4s-.4.4-.8.4l-11.5.3zm25.6.8c-1.3.1-2.4.2-3.2.3-.9.2-1.6.4-2.1.6s-.9.5-1.1.9c-.2.3-.3.7-.3 1.1 0 .8.2 1.3.7 1.7s1.1.5 1.8.5c.9 0 1.7-.2 2.4-.5s1.3-.8 2-1.5l-.2-3.1zm-10.2-8c2.1-1.9 4.7-2.9 7.7-2.9 1.1 0 2 .2 2.9.5.8.3 1.6.8 2.2 1.5s1.1 1.4 1.3 2.3c.3.9.5 1.8.5 2.9V508h-2c-.4 0-.7-.1-1-.2-.2-.1-.4-.4-.5-.8l-.4-1.3c-.5.4-.9.8-1.4 1.1-.4.3-.9.6-1.4.8-.5.2-1 .4-1.5.5-.6.1-1.2.2-1.8.2-.8 0-1.5-.1-2.2-.3-.6-.2-1.2-.5-1.7-.9s-.9-1-1.1-1.6c-.3-.6-.4-1.4-.4-2.2 0-.5.1-.9.2-1.4.2-.5.4-.9.8-1.3s.8-.8 1.4-1.2c.6-.4 1.3-.7 2.1-1s1.8-.5 2.9-.7 2.3-.3 3.7-.3v-1.1c0-1.2-.3-2.2-.8-2.7s-1.3-.9-2.3-.9c-.7 0-1.3.1-1.8.3-.4.1-.9.3-1.3.6-.4.2-.7.4-1 .6s-.6.3-1 .3c-.3 0-.6-.1-.8-.2-.2-.2-.4-.3-.5-.6l-.8-1.6zm22.9.6c.6-1.1 1.3-2 2.1-2.6s1.7-.9 2.8-.9c.9 0 1.5.2 2.1.6l-.3 3.3c-.1.2-.1.4-.3.5-.1.1-.3.1-.5.1s-.4 0-.8-.1c-.3-.1-.7-.1-1-.1-.5 0-.9.1-1.3.2s-.7.4-1 .6c-.3.3-.6.6-.8 1-.3.4-.5.9-.7 1.3V508h-4.5v-18.5h2.6c.5 0 .8.1 1 .2.2.2.3.5.4.9l.2 2.1zm22.4.7c-.1.2-.3.3-.4.4s-.3.1-.5.1-.5-.1-.7-.2c-.3-.2-.5-.3-.8-.5s-.7-.3-1.1-.5-.9-.2-1.5-.2c-.8 0-1.5.1-2.1.4s-1.1.7-1.5 1.2-.7 1.2-.9 1.9c-.2.8-.3 1.6-.3 2.5 0 1 .1 1.9.3 2.6s.5 1.4.9 1.9.9.9 1.4 1.2 1.2.4 1.9.4 1.3-.1 1.7-.3c.4-.1.8-.3 1.1-.6.3-.2.6-.4.8-.6s.5-.3.7-.3c.4 0 .6.1.8.4l1.3 1.6c-.5.6-1 1-1.6 1.4s-1.2.7-1.8.9c-.6.2-1.3.4-1.9.5-.7.1-1.3.1-2 .1-1.1 0-2.2-.2-3.2-.6s-1.9-1.1-2.6-1.9c-.8-.8-1.4-1.8-1.8-3s-.7-2.5-.7-4c0-1.4.2-2.6.6-3.8s1-2.2 1.7-3 1.7-1.5 2.8-2 2.4-.7 3.9-.7c1.4 0 2.6.2 3.6.7s2 1.1 2.8 1.9l-.9 2.1zm8.6-1.9c.7-.7 1.5-1.2 2.4-1.6s1.9-.6 3-.6c1 0 1.9.2 2.7.5.8.3 1.4.8 2 1.4.5.6.9 1.4 1.2 2.2.3.9.4 1.8.4 2.8V508h-4.4v-11.8c0-1.1-.3-2-.8-2.6s-1.3-.9-2.4-.9c-.8 0-1.5.2-2.2.5-.7.4-1.3.9-1.9 1.4V508h-4.4v-26.7h4.4v10.2zm29 11.7c.5.6 1.1 1 1.6 1.3.6.3 1.3.4 1.9.4.7 0 1.3-.1 1.8-.4s1-.6 1.4-1.2c.4-.5.7-1.2.9-2s.3-1.7.3-2.8c0-1.1-.1-2-.3-2.7s-.4-1.4-.7-1.8c-.3-.5-.7-.8-1.2-1s-1-.3-1.6-.3c-.9 0-1.7.2-2.4.6-.6.4-1.3.9-1.8 1.6l.1 8.3zm-.2-11.1c.7-.8 1.6-1.5 2.6-2.1 1-.5 2.1-.8 3.4-.8 1 0 1.9.2 2.8.6s1.6 1 2.2 1.8c.6.8 1.1 1.8 1.4 3 .3 1.2.5 2.5.5 4 0 1.4-.2 2.7-.6 3.8-.4 1.2-.9 2.2-1.6 3.1-.7.9-1.5 1.5-2.5 2s-2.1.7-3.3.7c-1 0-1.9-.2-2.6-.5-.7-.3-1.4-.8-2-1.3v7.6h-4.4v-24.5h2.7c.6 0 1 .3 1.1.8l.3 1.8zm26 8c-1.3.1-2.4.2-3.2.3-.9.2-1.6.4-2.1.6s-.9.5-1.1.9c-.2.3-.3.7-.3 1.1 0 .8.2 1.3.7 1.7s1.1.5 1.8.5c.9 0 1.7-.2 2.4-.5s1.3-.8 2-1.5l-.2-3.1zm-10.2-8c2.1-1.9 4.7-2.9 7.7-2.9 1.1 0 2 .2 2.9.5.8.3 1.6.8 2.2 1.5.6.7 1.1 1.4 1.3 2.3.3.9.5 1.8.5 2.9V508h-2c-.4 0-.7-.1-1-.2-.2-.1-.4-.4-.5-.8l-.4-1.3c-.5.4-.9.8-1.4 1.1-.4.3-.9.6-1.4.8-.5.2-1 .4-1.5.5-.6.1-1.2.2-1.8.2-.8 0-1.5-.1-2.2-.3-.6-.2-1.2-.5-1.7-.9s-.9-1-1.1-1.6c-.3-.6-.4-1.4-.4-2.2 0-.5.1-.9.2-1.4.2-.5.4-.9.8-1.3s.8-.8 1.4-1.2c.6-.4 1.3-.7 2.1-1s1.8-.5 2.9-.7c1.1-.2 2.3-.3 3.7-.3v-1.1c0-1.2-.3-2.2-.8-2.7s-1.3-.9-2.3-.9c-.7 0-1.3.1-1.8.3-.4.1-.9.3-1.3.6-.4.2-.7.4-1 .6s-.6.3-1 .3c-.3 0-.6-.1-.8-.2-.2-.2-.4-.3-.5-.6l-.8-1.6zm22.9.6c.6-1.1 1.3-2 2.1-2.6s1.7-.9 2.8-.9c.9 0 1.5.2 2.1.6l-.3 3.3c-.1.2-.1.4-.3.5-.1.1-.3.1-.5.1s-.4 0-.8-.1c-.3-.1-.7-.1-1-.1-.5 0-.9.1-1.3.2s-.7.4-1 .6c-.3.3-.6.6-.8 1-.3.4-.5.9-.7 1.3V508h-4.4v-18.5h2.6c.5 0 .8.1 1 .2.2.2.3.5.4.9l.1 2.1zm15.4 15.6c-1.6 0-2.8-.5-3.7-1.4s-1.3-2.2-1.3-3.8v-10.3h-1.9c-.2 0-.4-.1-.6-.2-.2-.2-.3-.4-.3-.7v-1.8l3-.5.9-5c0-.2.2-.4.3-.6.2-.1.4-.2.6-.2h2.3v5.8h4.9v3.2h-4.9v10c0 .6.1 1 .4 1.4s.7.5 1.2.5c.3 0 .5 0 .7-.1s.3-.1.5-.2.3-.1.4-.2c.1-.1.2-.1.3-.1s.2 0 .3.1l.3.3 1.3 2.2c-.7.5-1.4 1-2.2 1.2-.7.3-1.6.4-2.5.4zm11.4-16.5c.4-.4.8-.7 1.2-1s.8-.6 1.3-.8c.5-.2 1-.4 1.5-.5.6-.1 1.1-.2 1.7-.2 1 0 1.9.2 2.7.5s1.4.8 2 1.4c.5.6.9 1.4 1.2 2.2.3.9.4 1.8.4 2.8V508h-4.5v-11.8c0-1.1-.3-2-.8-2.6s-1.3-.9-2.4-.9c-.8 0-1.5.2-2.2.5-.7.4-1.3.9-1.9 1.4V508H594v-18.5h2.7c.6 0 1 .3 1.1.8l.4 1.5zm28 4.8c0-.6-.1-1.1-.2-1.6-.2-.5-.4-.9-.7-1.3s-.8-.7-1.2-.9c-.5-.2-1.1-.3-1.7-.3-1.3 0-2.3.4-3 1.1s-1.2 1.8-1.4 3.1h8.2v-.1zm-8.4 2.7c.1.9.2 1.8.5 2.5s.6 1.3 1 1.7c.4.5.9.8 1.5 1s1.3.3 2 .3 1.3-.1 1.9-.3c.5-.1.9-.3 1.4-.6.4-.2.7-.4 1-.6s.6-.3.9-.3c.4 0 .6.1.8.4l1.3 1.6c-.5.6-1 1.1-1.7 1.4-.6.4-1.2.7-1.9.9-.7.2-1.3.4-2 .5s-1.4.1-2 .1c-1.3 0-2.5-.2-3.6-.6s-2.1-1.1-2.9-1.9c-.8-.8-1.5-1.9-1.9-3.1s-.7-2.7-.7-4.3c0-1.3.2-2.4.6-3.6.4-1.1 1-2.1 1.8-2.9s1.7-1.5 2.8-2 2.3-.7 3.7-.7c1.2 0 2.2.2 3.2.6s1.8.9 2.5 1.6 1.3 1.6 1.7 2.6.6 2.2.6 3.6c0 .7-.1 1.1-.2 1.4s-.4.4-.8.4l-11.5.3zm20-6.6c.6-1.1 1.3-2 2.1-2.6s1.7-.9 2.8-.9c.9 0 1.5.2 2.1.6l-.3 3.3c-.1.2-.1.4-.3.5-.1.1-.3.1-.5.1s-.4 0-.8-.1c-.3-.1-.7-.1-1-.1-.5 0-.9.1-1.3.2s-.7.4-1 .6c-.3.3-.6.6-.8 1-.3.4-.5.9-.7 1.3V508h-4.4v-18.5h2.6c.5 0 .8.1 1 .2.2.2.3.5.4.9l.1 2.1z"/><path class="st5" d="M95.6 464.3c-1.6 0-2.8-.5-3.7-1.4-.9-.9-1.3-2.2-1.3-3.8v-10.3h-1.9c-.2 0-.4-.1-.6-.2-.2-.2-.3-.4-.3-.7v-1.8l3-.5.9-5c0-.2.2-.4.3-.6.2-.1.4-.2.6-.2h2.3v5.8h4.9v3.2h-4.9v10c0 .6.1 1 .4 1.4s.7.5 1.2.5c.3 0 .5 0 .7-.1s.3-.1.5-.2.3-.1.4-.2.2-.1.3-.1c.1 0 .2 0 .3.1l.3.3 1.3 2.2c-.7.5-1.4 1-2.2 1.2-.8.2-1.6.4-2.5.4zm15.4-19.1c1.4 0 2.6.2 3.7.7 1.1.4 2.1 1.1 2.9 1.9s1.4 1.8 1.8 3 .6 2.5.6 3.9c0 1.5-.2 2.8-.6 4s-1 2.2-1.8 3-1.8 1.5-2.9 1.9-2.4.7-3.7.7c-1.4 0-2.6-.2-3.8-.7-1.1-.4-2.1-1.1-2.9-1.9s-1.4-1.8-1.9-3c-.4-1.2-.7-2.5-.7-4s.2-2.8.7-3.9c.4-1.2 1.1-2.2 1.9-3s1.8-1.4 2.9-1.9 2.4-.7 3.8-.7zm0 15.6c1.5 0 2.7-.5 3.4-1.5s1.1-2.5 1.1-4.5-.4-3.5-1.1-4.6c-.7-1-1.9-1.6-3.4-1.6-1.6 0-2.7.5-3.5 1.6-.8 1-1.1 2.6-1.1 4.5s.4 3.5 1.1 4.5 1.9 1.7 3.5 1.6zm16.9-1.6c.5.6 1.1 1 1.6 1.3.6.3 1.3.4 1.9.4.7 0 1.3-.1 1.8-.4s1-.6 1.4-1.2c.4-.5.7-1.2.9-2s.3-1.7.3-2.8c0-1.1-.1-2-.3-2.7s-.4-1.4-.7-1.8c-.3-.5-.7-.8-1.2-1s-1-.3-1.6-.3c-.9 0-1.7.2-2.4.6-.6.4-1.3.9-1.8 1.6v8.3h.1zm-.2-11.1c.7-.8 1.6-1.5 2.6-2.1 1-.5 2.1-.8 3.4-.8 1 0 1.9.2 2.8.6s1.6 1 2.2 1.8 1.1 1.8 1.4 3c.3 1.2.5 2.5.5 4 0 1.4-.2 2.7-.6 3.8-.4 1.2-.9 2.2-1.6 3.1-.7.9-1.5 1.5-2.5 2s-2.1.7-3.3.7c-1 0-1.9-.2-2.6-.5-.7-.3-1.4-.8-2-1.3v7.6h-4.4v-24.5h2.7c.6 0 1 .3 1.1.8l.3 1.8zm25 15.9v-18.5h2.7c.6 0 1 .3 1.1.8l.3 1.4c.3-.4.7-.7 1-1s.7-.6 1.1-.8c.9-.5 1.8-.7 2.8-.7 1.2 0 2.1.3 2.9.9s1.3 1.5 1.7 2.5c.3-.6.6-1.1 1.1-1.6.4-.4.9-.8 1.4-1.1.5-.3 1.1-.5 1.6-.6.6-.1 1.2-.2 1.8-.2 1 0 1.9.2 2.7.5s1.4.8 2 1.4c.5.6 1 1.3 1.2 2.2s.4 1.9.4 3V464h-4.3v-11.8c0-1.2-.3-2.1-.8-2.7s-1.3-.9-2.3-.9c-.5 0-.9.1-1.3.2s-.7.4-1 .7c-.3.3-.5.7-.7 1.1s-.3 1-.3 1.5V464h-4.5v-11.8c0-1.2-.2-2.1-.7-2.7s-1.2-.8-2.2-.8c-.6 0-1.3.2-1.8.5-.6.3-1.1.8-1.6 1.3V464h-4.3zm39.9-7.9c-1.3.1-2.4.2-3.2.3-.9.2-1.6.4-2.1.6s-.9.5-1.1.9c-.2.3-.3.7-.3 1.1 0 .8.2 1.3.7 1.7.5.3 1.1.5 1.8.5.9 0 1.7-.2 2.4-.5s1.3-.8 2-1.5v-3.1h-.2zm-10.2-8c2.1-1.9 4.7-2.9 7.7-2.9 1.1 0 2 .2 2.9.5.8.3 1.6.8 2.2 1.5.6.7 1.1 1.4 1.3 2.3.3.9.5 1.8.5 2.9V464h-2c-.4 0-.7-.1-1-.2s-.4-.4-.5-.8l-.4-1.3c-.5.4-.9.8-1.4 1.1-.4.3-.9.6-1.4.8-.5.2-1 .4-1.5.5-.6.1-1.2.2-1.8.2-.8 0-1.5-.1-2.2-.3-.6-.2-1.2-.5-1.7-.9s-.9-1-1.1-1.6c-.3-.6-.4-1.4-.4-2.2 0-.5.1-.9.2-1.4.2-.5.4-.9.8-1.3s.8-.8 1.4-1.2c.6-.4 1.3-.7 2.1-1s1.8-.5 2.9-.7c1.1-.2 2.3-.3 3.7-.3v-1.1c0-1.2-.3-2.2-.8-2.7s-1.3-.9-2.3-.9c-.7 0-1.3.1-1.8.3-.4.1-.9.3-1.3.6-.4.2-.7.4-1 .6s-.6.3-1 .3c-.3 0-.6-.1-.8-.2-.2-.2-.4-.3-.5-.6l-.8-1.6zm22.8-.3c.4-.4.8-.7 1.2-1s.8-.6 1.3-.8c.5-.2 1-.4 1.5-.5.6-.1 1.1-.2 1.7-.2 1 0 1.9.2 2.7.5s1.4.8 2 1.4c.5.6.9 1.4 1.2 2.2s.4 1.8.4 2.8V464h-4.4v-11.8c0-1.1-.3-2-.8-2.6s-1.3-.9-2.4-.9c-.8 0-1.5.2-2.2.5-.7.4-1.3.9-1.9 1.4V464h-4.4v-18.5h2.7c.6 0 1 .3 1.1.8l.3 1.5zm25.9 8.3c-1.3.1-2.4.2-3.2.3-.9.2-1.6.4-2.1.6s-.9.5-1.1.9c-.2.3-.3.7-.3 1.1 0 .8.2 1.3.7 1.7.5.3 1.1.5 1.8.5.9 0 1.7-.2 2.4-.5s1.3-.8 2-1.5v-3.1h-.2zm-10.1-8c2.1-1.9 4.7-2.9 7.7-2.9 1.1 0 2 .2 2.9.5.8.3 1.6.8 2.2 1.5.6.7 1.1 1.4 1.3 2.3.3.9.5 1.8.5 2.9V464h-2c-.4 0-.7-.1-1-.2s-.4-.4-.5-.8l-.4-1.3c-.5.4-.9.8-1.4 1.1-.4.3-.9.6-1.4.8-.5.2-1 .4-1.5.5-.6.1-1.2.2-1.8.2-.8 0-1.5-.1-2.2-.3-.6-.2-1.2-.5-1.7-.9s-.9-1-1.1-1.6c-.3-.6-.4-1.4-.4-2.2 0-.5.1-.9.2-1.4.2-.5.4-.9.8-1.3s.8-.8 1.4-1.2c.6-.4 1.3-.7 2.1-1s1.8-.5 2.9-.7c1.1-.2 2.3-.3 3.7-.3v-1.1c0-1.2-.3-2.2-.8-2.7s-1.3-.9-2.3-.9c-.7 0-1.3.1-1.8.3-.4.1-.9.3-1.3.6-.4.2-.7.4-1 .6s-.6.3-1 .3c-.3 0-.6-.1-.8-.2-.2-.2-.4-.3-.5-.6l-.8-1.6zm25.4 6.2c.6 0 1-.1 1.4-.2s.7-.4 1-.6.5-.6.6-1 .2-.8.2-1.2c0-.9-.3-1.6-.8-2.2s-1.4-.8-2.5-.8-1.9.3-2.5.8-.8 1.3-.8 2.2c0 .4.1.8.2 1.2.1.4.3.7.6 1s.6.5 1 .6 1.1.2 1.6.2zm5 10.5c0-.4-.1-.7-.3-.9s-.5-.4-.9-.5-.9-.2-1.3-.3c-.5-.1-1.1-.1-1.6-.1-.6 0-1.2-.1-1.7-.1-.6 0-1.2-.1-1.7-.1-.5.3-.9.6-1.2 1s-.5.8-.5 1.3c0 .3.1.6.2.9.2.3.4.5.8.7s.8.4 1.4.5c.6.1 1.3.2 2.1.2s1.5-.1 2.1-.2 1.1-.3 1.5-.5.7-.5.9-.8.2-.7.2-1.1zm4.5-18.6v1.7c0 .5-.3.9-1 1l-1.7.3c.3.7.4 1.4.4 2.1 0 .9-.2 1.7-.5 2.5-.4.7-.9 1.4-1.5 1.9s-1.4.9-2.3 1.2c-.9.3-1.9.4-2.9.4-.3 0-.7 0-1-.1-.3 0-.7-.1-1-.1-.6.3-.9.7-.9 1.2 0 .4.2.6.5.8s.8.3 1.4.4 1.2.1 1.9.1 1.5.1 2.2.1c.8.1 1.5.2 2.2.3s1.4.4 1.9.7c.6.3 1 .8 1.4 1.3.3.6.5 1.3.5 2.2 0 .8-.2 1.6-.6 2.4s-1 1.5-1.7 2.1c-.8.6-1.7 1.1-2.8 1.4s-2.4.5-3.8.5-2.6-.1-3.6-.4-1.9-.6-2.6-1.1c-.7-.5-1.2-1-1.5-1.6s-.5-1.2-.5-1.8c0-.9.3-1.6.8-2.2s1.2-1 2.2-1.4c-.5-.2-.9-.6-1.2-1s-.4-1-.4-1.7c0-.3.1-.6.2-.9s.3-.6.4-.9c.2-.3.5-.6.7-.8.3-.3.7-.5 1.1-.7-.9-.5-1.7-1.2-2.2-2s-.8-1.8-.8-3c0-.9.2-1.7.5-2.5.4-.7.9-1.4 1.5-1.9.7-.5 1.4-.9 2.3-1.2.9-.3 1.9-.4 2.9-.4.8 0 1.5.1 2.2.2.7.2 1.3.4 1.9.7l5.4.2zm14.7 6.4c0-.6-.1-1.1-.2-1.6-.2-.5-.4-.9-.7-1.3-.3-.4-.8-.7-1.2-.9-.5-.2-1.1-.3-1.7-.3-1.3 0-2.3.4-3 1.1s-1.2 1.8-1.4 3.1h8.2v-.1zm-8.5 2.7c.1.9.2 1.8.5 2.5s.6 1.3 1 1.7c.4.5.9.8 1.5 1s1.3.3 2 .3 1.3-.1 1.9-.3c.5-.1.9-.3 1.4-.6.4-.2.7-.4 1-.6s.6-.3.9-.3c.4 0 .6.1.8.4l1.3 1.6c-.5.6-1 1.1-1.7 1.4-.6.4-1.2.7-1.9.9-.7.2-1.3.4-2 .5s-1.4.1-2 .1c-1.3 0-2.5-.2-3.6-.6s-2.1-1.1-2.9-1.9-1.5-1.9-1.9-3.1-.7-2.7-.7-4.3c0-1.3.2-2.4.6-3.6.4-1.1 1-2.1 1.8-2.9s1.7-1.5 2.8-2 2.3-.7 3.7-.7c1.2 0 2.2.2 3.2.6s1.8.9 2.5 1.6 1.3 1.6 1.7 2.6.6 2.2.6 3.6c0 .7-.1 1.1-.2 1.4s-.4.4-.8.4l-11.5.3zm15.8 8.7v-18.5h2.7c.6 0 1 .3 1.1.8l.3 1.4c.3-.4.7-.7 1-1s.7-.6 1.1-.8c.9-.5 1.8-.7 2.8-.7 1.2 0 2.1.3 2.9.9s1.3 1.5 1.7 2.5c.3-.6.6-1.1 1.1-1.6.4-.4.9-.8 1.4-1.1.5-.3 1.1-.5 1.6-.6.6-.1 1.2-.2 1.8-.2 1 0 1.9.2 2.7.5.8.3 1.4.8 2 1.4.5.6 1 1.3 1.2 2.2s.4 1.9.4 3V464h-4.4v-11.8c0-1.2-.3-2.1-.8-2.7s-1.3-.9-2.3-.9c-.5 0-.9.1-1.3.2s-.7.4-1 .7c-.3.3-.5.7-.7 1.1s-.3 1-.3 1.5V464h-4.5v-11.8c0-1.2-.2-2.1-.7-2.7s-1.2-.8-2.2-.8c-.6 0-1.3.2-1.8.5-.6.3-1.1.8-1.6 1.3V464h-4.2zm42-11.4c0-.6-.1-1.1-.2-1.6-.2-.5-.4-.9-.7-1.3-.3-.4-.8-.7-1.2-.9-.5-.2-1.1-.3-1.7-.3-1.3 0-2.3.4-3 1.1s-1.2 1.8-1.4 3.1h8.2v-.1zm-8.4 2.7c.1.9.2 1.8.5 2.5s.6 1.3 1 1.7c.4.5.9.8 1.5 1s1.3.3 2 .3 1.3-.1 1.9-.3c.5-.1.9-.3 1.4-.6.4-.2.7-.4 1-.6s.6-.3.9-.3c.4 0 .6.1.8.4l1.3 1.6c-.5.6-1 1.1-1.7 1.4-.6.4-1.2.7-1.9.9-.7.2-1.3.4-2 .5s-1.4.1-2 .1c-1.3 0-2.5-.2-3.6-.6s-2.1-1.1-2.9-1.9-1.5-1.9-1.9-3.1-.7-2.7-.7-4.3c0-1.3.2-2.4.6-3.6.4-1.1 1-2.1 1.8-2.9s1.7-1.5 2.8-2 2.3-.7 3.7-.7c1.2 0 2.2.2 3.2.6s1.8.9 2.5 1.6 1.3 1.6 1.7 2.6.6 2.2.6 3.6c0 .7-.1 1.1-.2 1.4s-.4.4-.8.4l-11.5.3zm19.9-7.5c.4-.4.8-.7 1.2-1 .4-.3.8-.6 1.3-.8.5-.2 1-.4 1.5-.5.6-.1 1.1-.2 1.7-.2 1 0 1.9.2 2.7.5.8.3 1.4.8 2 1.4.5.6.9 1.4 1.2 2.2s.4 1.8.4 2.8V464H339v-11.8c0-1.1-.3-2-.8-2.6s-1.3-.9-2.4-.9c-.8 0-1.5.2-2.2.5-.7.4-1.3.9-1.9 1.4V464h-4.4v-18.5h2.7c.6 0 1 .3 1.1.8l.3 1.5zm22.3 16.5c-1.6 0-2.8-.5-3.7-1.4s-1.3-2.2-1.3-3.8v-10.3h-1.9c-.2 0-.4-.1-.6-.2-.2-.2-.3-.4-.3-.7v-1.8l3-.5.9-5c0-.2.2-.4.3-.6.2-.1.4-.2.6-.2h2.3v5.8h4.9v3.2h-4.7v10c0 .6.1 1 .4 1.4s.7.5 1.2.5c.3 0 .5 0 .7-.1s.3-.1.5-.2.3-.1.4-.2.2-.1.3-.1c.1 0 .2 0 .3.1l.3.3 1.3 2.2c-.7.5-1.4 1-2.2 1.2-.9.2-1.8.4-2.7.4zm29.2-14.9c-.1.2-.3.3-.4.4s-.3.1-.5.1-.5-.1-.7-.2c-.3-.2-.5-.3-.8-.5s-.7-.3-1.1-.5-.9-.2-1.5-.2c-.8 0-1.5.1-2.1.4s-1.1.7-1.5 1.2-.7 1.2-.9 1.9-.3 1.6-.3 2.5c0 1 .1 1.9.3 2.6s.5 1.4.9 1.9.9.9 1.4 1.2 1.2.4 1.9.4 1.3-.1 1.7-.3c.4-.1.8-.3 1.1-.6.3-.2.6-.4.8-.6.2-.2.5-.3.7-.3.4 0 .6.1.8.4l1.3 1.6c-.5.6-1 1-1.6 1.4s-1.2.7-1.8.9c-.6.2-1.3.4-1.9.5-.7.1-1.3.1-2 .1-1.1 0-2.2-.2-3.2-.6s-1.9-1.1-2.6-1.9c-.8-.8-1.4-1.8-1.8-3s-.7-2.5-.7-4c0-1.4.2-2.6.6-3.8.4-1.2 1-2.2 1.7-3 .8-.8 1.7-1.5 2.8-2 1.1-.5 2.4-.7 3.9-.7 1.4 0 2.6.2 3.6.7s2 1.1 2.8 1.9l-.9 2.1zm12.3-4.2c1.4 0 2.6.2 3.7.7 1.1.4 2.1 1.1 2.9 1.9s1.4 1.8 1.8 3 .6 2.5.6 3.9c0 1.5-.2 2.8-.6 4s-1 2.2-1.8 3-1.8 1.5-2.9 1.9-2.4.7-3.7.7c-1.4 0-2.6-.2-3.8-.7-1.1-.4-2.1-1.1-2.9-1.9s-1.4-1.8-1.9-3c-.4-1.2-.7-2.5-.7-4s.2-2.8.7-3.9c.4-1.2 1.1-2.2 1.9-3s1.8-1.4 2.9-1.9c1.2-.4 2.5-.7 3.8-.7zm0 15.7c1.5 0 2.7-.5 3.4-1.5s1.1-2.5 1.1-4.5-.4-3.5-1.1-4.6c-.7-1-1.9-1.6-3.4-1.6-1.6 0-2.7.5-3.5 1.6-.8 1-1.1 2.6-1.1 4.5s.4 3.5 1.1 4.5 2 1.6 3.5 1.6zm16.7-13.1c.4-.4.8-.7 1.2-1 .4-.3.8-.6 1.3-.8.5-.2 1-.4 1.5-.5.6-.1 1.1-.2 1.7-.2 1 0 1.9.2 2.7.5.8.3 1.4.8 2 1.4.5.6.9 1.4 1.2 2.2s.4 1.8.4 2.8V464h-4.4v-11.8c0-1.1-.3-2-.8-2.6s-1.3-.9-2.4-.9c-.8 0-1.5.2-2.2.5-.7.4-1.3.9-1.9 1.4V464h-4.4v-18.5h2.7c.6 0 1 .3 1.1.8l.3 1.5zm27.4 1.3c-.1.2-.2.3-.4.4-.2.1-.3.1-.5.1s-.4-.1-.7-.2c-.3-.1-.6-.3-.9-.4-.4-.2-.7-.3-1.1-.4s-.9-.2-1.5-.2c-.9 0-1.6.2-2.1.6s-.7.9-.7 1.5c0 .4.1.7.4 1s.6.5 1 .7.9.4 1.4.5c.5.2 1.1.3 1.6.5s1.1.4 1.6.7 1 .6 1.4.9.8.8 1 1.4.4 1.2.4 1.9c0 .8-.2 1.7-.5 2.5-.3.7-.8 1.4-1.4 1.9s-1.4 1-2.3 1.3-2 .5-3.2.5c-.6 0-1.3-.1-1.9-.2s-1.2-.3-1.7-.5-1.1-.4-1.5-.7c-.4-.3-.9-.6-1.3-.9l1-1.7c.1-.2.3-.4.5-.5s.4-.2.7-.2.5.1.8.2.5.3.9.5.7.3 1.1.5 1 .2 1.7.2c.5 0 1-.1 1.4-.2s.7-.3.9-.5.4-.4.5-.7.2-.5.2-.8c0-.4-.1-.8-.4-1.1s-.6-.5-1-.7c-.5-.2-1-.4-1.5-.5-.6-.2-1.1-.3-1.7-.5s-1.1-.4-1.7-.7c-.5-.2-1-.6-1.5-1-.4-.4-.8-.9-1-1.5-.3-.6-.4-1.3-.4-2.1s.1-1.5.5-2.2c.3-.7.7-1.3 1.3-1.8s1.3-.9 2.2-1.2 1.9-.5 3-.5c1.3 0 2.4.2 3.5.6s1.9 1 2.6 1.7l-.7 1.8zm20.5-3.6V464h-2.7c-.6 0-1-.3-1.1-.8l-.3-1.5c-.7.7-1.6 1.4-2.5 1.9s-2 .7-3.2.7c-1 0-1.9-.2-2.7-.5-.8-.3-1.4-.8-2-1.4-.5-.6-.9-1.4-1.2-2.2s-.4-1.8-.4-2.8v-11.7h4.4v11.7c0 1.1.3 2 .8 2.6s1.3.9 2.3.9c.8 0 1.5-.2 2.2-.5.7-.4 1.4-.8 1.9-1.4v-13.4h4.5v-.1zm8.9-8.2V464h-4.5v-26.7h4.5zm23 26.7h-4.4v-15.1h-8.6v10c0 .6.1 1 .4 1.4s.7.5 1.2.5c.3 0 .5 0 .7-.1s.3-.1.5-.2.3-.1.4-.2.2-.1.3-.1c.1 0 .2 0 .3.1l.3.3 1.3 2.2c-.7.5-1.4 1-2.2 1.2-.8.3-1.7.4-2.6.4-1.6 0-2.8-.5-3.7-1.4s-1.3-2.2-1.3-3.8v-10.3h-1.9c-.2 0-.4-.1-.6-.2-.2-.2-.3-.4-.3-.7v-1.8l3-.5.9-5c0-.2.2-.4.3-.6.2-.1.4-.2.6-.2h2.3v5.8h13V464h.1zm.8-23.9c0 .4-.1.7-.2 1.1-.1.3-.4.6-.6.9-.5.5-1.3.8-2 .8-.4 0-.7-.1-1.1-.2-.3-.1-.6-.3-.9-.6-.3-.3-.5-.6-.6-.9-.2-.3-.2-.7-.2-1.1s.1-.8.2-1.1c.1-.3.3-.6.6-.9.3-.3.5-.5.9-.6s.7-.2 1.1-.2.8.1 1.1.2.7.4.9.6.5.6.6.9c.1.3.2.7.2 1.1zm7.9 7.7c.4-.4.8-.7 1.2-1 .4-.3.8-.6 1.3-.8.5-.2 1-.4 1.5-.5.6-.1 1.1-.2 1.7-.2 1 0 1.9.2 2.7.5.8.3 1.4.8 2 1.4.5.6.9 1.4 1.2 2.2.3.9.4 1.8.4 2.8V464H508v-11.8c0-1.1-.3-2-.8-2.6s-1.3-.9-2.4-.9c-.8 0-1.5.2-2.2.5-.7.4-1.3.9-1.9 1.4V464h-4.4v-18.5h2.7c.6 0 1 .3 1.1.8l.3 1.5zm22.9 6.5c.6 0 1-.1 1.4-.2s.7-.4 1-.6.5-.6.6-1 .2-.8.2-1.2c0-.9-.3-1.6-.8-2.2-.5-.5-1.4-.8-2.5-.8s-1.9.3-2.5.8c-.5.5-.8 1.3-.8 2.2 0 .4.1.8.2 1.2.1.4.3.7.6 1s.6.5 1 .6 1.1.2 1.6.2zm5.1 10.5c0-.4-.1-.7-.3-.9s-.5-.4-.9-.5-.9-.2-1.3-.3c-.5-.1-1.1-.1-1.6-.1-.6 0-1.2-.1-1.7-.1-.6 0-1.2-.1-1.7-.1-.5.3-.9.6-1.2 1s-.5.8-.5 1.3c0 .3.1.6.2.9.2.3.4.5.8.7s.8.4 1.4.5c.6.1 1.3.2 2.1.2s1.5-.1 2.1-.2 1.1-.3 1.5-.5.7-.5.9-.8.2-.7.2-1.1zm4.4-18.6v1.7c0 .5-.3.9-1 1l-1.7.3c.3.7.4 1.4.4 2.1 0 .9-.2 1.7-.5 2.5-.4.7-.9 1.4-1.5 1.9s-1.4.9-2.3 1.2c-.9.3-1.9.4-2.9.4-.3 0-.7 0-1-.1-.3 0-.7-.1-1-.1-.6.3-.9.7-.9 1.2 0 .4.2.6.5.8s.8.3 1.4.4 1.2.1 1.9.1 1.5.1 2.2.1 1.5.2 2.2.3 1.4.4 1.9.7c.6.3 1 .8 1.4 1.3.3.6.5 1.3.5 2.2 0 .8-.2 1.6-.6 2.4-.4.8-1 1.5-1.7 2.1-.8.6-1.7 1.1-2.8 1.4s-2.4.5-3.8.5-2.6-.1-3.6-.4-1.9-.6-2.6-1.1c-.7-.5-1.2-1-1.5-1.6s-.5-1.2-.5-1.8c0-.9.3-1.6.8-2.2s1.2-1 2.2-1.4c-.5-.2-.9-.6-1.2-1s-.4-1-.4-1.7c0-.3.1-.6.2-.9s.3-.6.5-.9.5-.6.7-.8c.3-.3.7-.5 1.1-.7-.9-.5-1.7-1.2-2.2-2s-.8-1.8-.8-3c0-.9.2-1.7.5-2.5.4-.7.9-1.4 1.5-1.9.7-.5 1.4-.9 2.3-1.2.9-.3 1.9-.4 2.9-.4.8 0 1.5.1 2.2.2.7.2 1.3.4 1.9.7l5.3.2zm12.9 17.8v-15.1l-1.6-.3c-.3-.1-.6-.2-.8-.4-.2-.2-.3-.4-.3-.7v-1.8h2.8v-.6c0-1.1.2-2.2.6-3.1.4-1 .9-1.8 1.7-2.5s1.7-1.3 2.9-1.7c1.2-.4 2.5-.6 4.1-.6.5 0 1 0 1.5.1s1 .1 1.4.3l-.1 2.3c0 .3-.2.4-.5.5s-.7.1-1 .1c-1.2 0-2.1.1-2.9.3s-1.4.5-1.9.9-.8.9-1 1.5-.3 1.3-.3 2.1v.5h11.4V464h-4.4v-15.1h-6.9V464h-4.7zm24.5-15.3c.6-1.1 1.3-2 2.1-2.6s1.7-.9 2.8-.9c.9 0 1.5.2 2.1.6l-.3 3.3c-.1.2-.1.4-.3.5-.1.1-.3.1-.5.1s-.4 0-.8-.1c-.3-.1-.7-.1-1-.1-.5 0-.9.1-1.3.2s-.7.4-1 .6c-.3.3-.6.6-.8 1-.3.4-.5.9-.7 1.3V464h-4.4v-18.5h2.6c.5 0 .8.1 1 .2.2.2.3.5.4.9l.1 2.1zm9.2 15.3v-18.5h2.7c.6 0 1 .3 1.1.8l.3 1.4c.3-.4.7-.7 1-1s.7-.6 1.1-.8c.9-.5 1.8-.7 2.8-.7 1.2 0 2.1.3 2.9.9s1.3 1.5 1.7 2.5c.3-.6.6-1.1 1.1-1.6.4-.4.9-.8 1.4-1.1.5-.3 1.1-.5 1.6-.6.6-.1 1.2-.2 1.8-.2 1 0 1.9.2 2.7.5s1.4.8 2 1.4c.5.6 1 1.3 1.2 2.2s.4 1.9.4 3V464h-4.4v-11.8c0-1.2-.3-2.1-.8-2.7s-1.3-.9-2.3-.9c-.5 0-.9.1-1.3.2-.4.2-.7.4-1 .7-.3.3-.5.7-.7 1.1s-.3 1-.3 1.5V464h-4.5v-11.8c0-1.2-.2-2.1-.7-2.7s-1.2-.8-2.2-.8c-.6 0-1.3.2-1.8.5-.6.3-1.1.8-1.6 1.3V464h-4.2zm41.4-14.9c-.1.2-.2.3-.4.4s-.3.1-.5.1-.4-.1-.7-.2-.6-.3-.9-.4c-.4-.2-.7-.3-1.1-.4-.4-.1-.9-.2-1.5-.2-.9 0-1.6.2-2.1.6s-.7.9-.7 1.5c0 .4.1.7.4 1s.6.5 1 .7.9.4 1.4.5c.5.2 1.1.3 1.6.5s1.1.4 1.6.7 1 .6 1.4.9c.4.4.8.8 1 1.4s.4 1.2.4 1.9c0 .8-.2 1.7-.5 2.5-.3.7-.8 1.4-1.4 1.9-.6.5-1.4 1-2.3 1.3-.9.3-2 .5-3.2.5-.6 0-1.3-.1-1.9-.2-.6-.1-1.2-.3-1.7-.5s-1.1-.4-1.5-.7c-.4-.3-.9-.6-1.3-.9l1-1.7c.1-.2.3-.4.5-.5s.4-.2.7-.2.5.1.8.2c.2.2.5.3.9.5s.7.3 1.1.5 1 .2 1.7.2c.5 0 1-.1 1.4-.2s.7-.3.9-.5.4-.4.5-.7c.1-.3.2-.5.2-.8 0-.4-.1-.8-.4-1.1s-.6-.5-1-.7c-.5-.2-1-.4-1.5-.5-.6-.2-1.1-.3-1.7-.5-.6-.2-1.1-.4-1.7-.7-.5-.2-1-.6-1.5-1-.4-.4-.8-.9-1-1.5-.3-.6-.4-1.3-.4-2.1s.2-1.5.5-2.2.7-1.3 1.3-1.8 1.3-.9 2.2-1.2 1.9-.5 3-.5c1.3 0 2.4.2 3.5.6s1.9 1 2.6 1.7l-.7 1.8z"/><path class="st4" d="M317.5 401.2c1.4 0 2.6.2 3.7.7 1.1.4 2.1 1.1 2.9 1.9s1.4 1.8 1.8 3 .6 2.5.6 3.9c0 1.5-.2 2.8-.6 4s-1 2.2-1.8 3-1.8 1.5-2.9 1.9-2.4.7-3.7.7c-1.4 0-2.6-.2-3.8-.7-1.1-.4-2.1-1.1-2.9-1.9s-1.4-1.8-1.9-3c-.4-1.2-.7-2.5-.7-4s.2-2.8.7-3.9c.4-1.2 1.1-2.2 1.9-3s1.8-1.4 2.9-1.9c1.1-.4 2.4-.7 3.8-.7zm0 15.6c1.5 0 2.7-.5 3.4-1.5s1.1-2.5 1.1-4.5-.4-3.5-1.1-4.6c-.7-1-1.9-1.6-3.4-1.6-1.6 0-2.7.5-3.5 1.6-.8 1-1.1 2.6-1.1 4.5s.4 3.5 1.1 4.5 1.9 1.7 3.5 1.6zm13.8 3.2v-15.1l-1.6-.3c-.3-.1-.6-.2-.8-.4-.2-.2-.3-.4-.3-.7v-1.8h2.8v-1.4c0-1.1.2-2 .5-2.8s.8-1.5 1.4-2.1 1.3-1 2.2-1.4c.9-.3 1.8-.5 2.9-.5.9 0 1.6.1 2.4.3l-.1 2.2c0 .1-.1.3-.1.4-.1.1-.2.2-.3.2-.2.1-.3.1-.5.1h-.6c-.5 0-1 .1-1.4.2s-.8.3-1.1.6c-.3.3-.5.7-.7 1.1-.1.5-.2 1-.2 1.7v1.2h4.8v3.2h-4.7V420h-4.6zm26.5.3c-1.6 0-2.8-.5-3.7-1.4s-1.3-2.2-1.3-3.8v-10.3h-1.9c-.2 0-.4-.1-.6-.2-.2-.2-.3-.4-.3-.7v-1.8l3-.5.9-5c0-.2.2-.4.3-.6.2-.1.4-.2.6-.2h2.3v5.8h4.9v3.2h-4.9v10c0 .6.1 1 .4 1.4s.7.5 1.2.5c.3 0 .5 0 .7-.1s.3-.1.5-.2.3-.1.4-.2.2-.1.3-.1c.1 0 .2 0 .3.1l.3.3 1.3 2.2c-.7.5-1.4 1-2.2 1.2-.7.2-1.6.4-2.5.4zm11.7-16.8c.7-.7 1.5-1.2 2.4-1.6s1.9-.6 3-.6c1 0 1.9.2 2.7.5.8.3 1.4.8 2 1.4.5.6.9 1.4 1.2 2.2s.4 1.8.4 2.8V420h-4.4v-11.8c0-1.1-.3-2-.8-2.6s-1.3-.9-2.4-.9c-.8 0-1.5.2-2.2.5-.7.4-1.3.9-1.9 1.4V420h-4.4v-26.7h4.4v10.2zm27.7 5.1c0-.6-.1-1.1-.2-1.6-.2-.5-.4-.9-.7-1.3-.3-.4-.8-.7-1.2-.9-.5-.2-1.1-.3-1.7-.3-1.3 0-2.3.4-3 1.1s-1.2 1.8-1.4 3.1h8.2v-.1zm-8.5 2.7c.1.9.2 1.8.5 2.5s.6 1.3 1 1.7c.4.5.9.8 1.5 1s1.3.3 2 .3 1.3-.1 1.9-.3c.5-.1.9-.3 1.4-.6.4-.2.7-.4 1-.6s.6-.3.9-.3c.4 0 .6.1.8.4l1.3 1.6c-.5.6-1 1.1-1.7 1.4-.6.4-1.2.7-1.9.9-.7.2-1.3.4-2 .5s-1.4.1-2 .1c-1.3 0-2.5-.2-3.6-.6s-2.1-1.1-2.9-1.9-1.5-1.9-1.9-3.1-.7-2.7-.7-4.3c0-1.3.2-2.4.6-3.6.4-1.1 1-2.1 1.8-2.9s1.7-1.5 2.8-2 2.3-.7 3.7-.7c1.2 0 2.2.2 3.2.6s1.8.9 2.5 1.6 1.3 1.6 1.7 2.6.6 2.2.6 3.6c0 .7-.1 1.1-.2 1.4s-.4.4-.8.4l-11.5.3z"/><path class="st5" d="M330.9 166.4c-3.4 0-6.4-.5-9.2-1.4-2.8-.9-5.2-2.2-7.1-3.8-2-1.6-3.5-3.6-4.6-6-1.1-2.3-1.6-5-1.6-7.8 0-3.8.9-7.1 2.8-9.7 1.9-2.7 4.8-4.6 8.8-5.9-3.2-1.3-5.6-3.2-7.1-5.6-1.6-2.4-2.4-5.4-2.4-8.8 0-2.5.5-4.8 1.5-6.9 1-2.1 2.4-4 4.2-5.6 1.8-1.6 4-2.8 6.5-3.7 2.5-.9 5.3-1.3 8.3-1.3 3 0 5.8.4 8.3 1.3 2.5.9 4.7 2.1 6.5 3.7 1.8 1.6 3.2 3.4 4.2 5.6 1 2.1 1.5 4.4 1.5 6.9 0 3.4-.8 6.3-2.4 8.8-1.6 2.4-4 4.3-7.1 5.6 4 1.3 6.9 3.3 8.8 5.9 1.9 2.7 2.8 5.9 2.8 9.7 0 2.9-.5 5.5-1.6 7.8s-2.6 4.3-4.6 6c-2 1.7-4.4 2.9-7.1 3.8-3 1-6.1 1.4-9.4 1.4zm0-8.6c1.8 0 3.4-.3 4.8-.8s2.5-1.3 3.5-2.2c.9-.9 1.7-2 2.1-3.3.5-1.3.7-2.7.7-4.2 0-3.6-1-6.3-3-8.1-2-1.8-4.7-2.7-8.2-2.7-3.5 0-6.2.9-8.2 2.7-2 1.8-3 4.5-3 8.1 0 1.5.2 2.9.7 4.2.5 1.3 1.2 2.4 2.1 3.3.9.9 2.1 1.7 3.5 2.2 1.5.5 3.1.8 5 .8zm0-30.1c1.8 0 3.3-.3 4.5-.9 1.2-.6 2.2-1.3 3-2.3.7-.9 1.3-2 1.6-3.2s.5-2.5.5-3.8c0-1.2-.2-2.4-.6-3.5-.4-1.1-1-2.1-1.8-2.9-.8-.9-1.8-1.5-3-2s-2.6-.8-4.3-.8c-1.7 0-3.1.3-4.3.8-1.2.5-2.2 1.2-3 2-.8.9-1.4 1.8-1.8 2.9-.4 1.1-.6 2.3-.6 3.5 0 1.3.2 2.5.5 3.8.3 1.2.8 2.3 1.6 3.2.7.9 1.7 1.7 3 2.3 1.3.6 2.9.9 4.7.9zM345.6 261.7h13.2v-37.9c0-1.5 0-3 .1-4.6l-9.4 7.8c-.4.3-.8.6-1.2.7-.4.1-.8.2-1.2.2-.6 0-1.1-.1-1.6-.4s-.9-.5-1.1-.9l-3.5-4.8 19.8-16.9h9.1v56.8h11.7v8.3h-36v-8.3zM435.7 237.5c0 5.7-.6 10.6-1.8 14.8s-2.9 7.6-5 10.4c-2.1 2.7-4.7 4.8-7.6 6.1-2.9 1.3-6.1 2-9.5 2-3.4 0-6.5-.7-9.4-2s-5.4-3.4-7.5-6.1c-2.1-2.7-3.8-6.2-5-10.4-1.2-4.2-1.8-9.1-1.8-14.8 0-5.7.6-10.6 1.8-14.8 1.2-4.2 2.9-7.6 5-10.4 2.1-2.7 4.6-4.8 7.5-6.1 2.9-1.3 6-2 9.4-2 3.4 0 6.5.7 9.5 2 2.9 1.3 5.5 3.4 7.6 6.1 2.1 2.7 3.8 6.2 5 10.4s1.8 9.1 1.8 14.8zm-11.5 0c0-4.7-.3-8.6-1-11.7-.7-3.1-1.6-5.5-2.8-7.4-1.2-1.8-2.5-3.1-4-3.8-1.5-.7-3.1-1.1-4.7-1.1s-3.1.4-4.6 1.1c-1.5.7-2.8 2-3.9 3.8-1.1 1.8-2 4.3-2.7 7.4-.7 3.1-1 7-1 11.7 0 4.7.3 8.6 1 11.7.7 3.1 1.6 5.6 2.7 7.4 1.1 1.8 2.5 3.1 3.9 3.8 1.5.7 3 1.1 4.6 1.1 1.6 0 3.2-.4 4.7-1.1 1.5-.7 2.8-2 4-3.8 1.2-1.8 2.1-4.3 2.8-7.4.6-3.1 1-7 1-11.7z"/></svg>