<svg width="545" height="388" viewBox="0 0 545 388" xmlns="http://www.w3.org/2000/svg" xmlns:xlink="http://www.w3.org/1999/xlink"><title>Group</title><defs><path d="M202 101c0 55.78-45.22 101-101 101S0 156.78 0 101 45.22 0 101 0s101 45.22 101 101" id="a"/><path d="M202 101c0 55.78-45.22 101-101 101S0 156.78 0 101 45.22 0 101 0s101 45.22 101 101" id="c"/><path d="M202 101c0 55.78-45.22 101-101 101S0 156.78 0 101 45.22 0 101 0s101 45.22 101 101" id="e"/><path d="M202 101c0 55.78-45.22 101-101 101S0 156.78 0 101 45.22 0 101 0s101 45.22 101 101" id="g"/><path d="M202 101c0 55.78-45.22 101-101 101S0 156.78 0 101 45.22 0 101 0s101 45.22 101 101" id="i"/><path d="M202 101c0 55.78-45.22 101-101 101S0 156.78 0 101 45.22 0 101 0s101 45.22 101 101" id="k"/><path d="M202 101c0 55.78-45.22 101-101 101S0 156.78 0 101 45.22 0 101 0s101 45.22 101 101" id="m"/><path d="M202 101c0 55.78-45.22 101-101 101S0 156.78 0 101 45.22 0 101 0s101 45.22 101 101" id="o"/><path d="M202 101c0 55.78-45.22 101-101 101S0 156.78 0 101 45.22 0 101 0s101 45.22 101 101" id="q"/><path d="M202 101c0 55.78-45.22 101-101 101S0 156.78 0 101 45.22 0 101 0s101 45.22 101 101" id="s"/><path d="M202 101c0 55.78-45.22 101-101 101S0 156.78 0 101 45.22 0 101 0s101 45.22 101 101" id="u"/><path d="M202 101c0 55.78-45.22 101-101 101S0 156.78 0 101 45.22 0 101 0s101 45.22 101 101" id="w"/><path d="M202 101c0 55.78-45.22 101-101 101S0 156.78 0 101 45.22 0 101 0s101 45.22 101 101" id="y"/></defs><g fill="none" fill-rule="evenodd"><path d="M179.843 296.121h193.951V102.17H179.843z"/><path d="M378 199c0 55.78-45.22 101-101 101s-101-45.22-101-101S221.22 98 277 98s101 45.22 101 101" fill-rule="nonzero" fill="#1E3D47"/><g transform="translate(176 98)"><mask id="b" fill="#fff"><use xlink:href="#a"/></mask><path d="M51.967 107.085l11.516 10.789 33.214 26.304s6.425 4.83 8.728 4.9c0 0 7.03-.536 8.849-5.263 0 0 7.152-1.334 7.758-7.758 0 0 8.122-2.441 8.606-9.646 0 0 7.031-3.689 7.031-9.992 0-6.303-8.485-9.334-8.485-9.334s-15.516-11.637-16.85-12.364c-1.333-.728-13.455-14.547-13.455-14.547l-20.607-3.03L64.21 92.417l-12.243 14.668" fill="#FAD4A2" fill-rule="nonzero" mask="url(#b)"/></g><g transform="translate(176 98)"><mask id="d" fill="#fff"><use xlink:href="#c"/></mask><path d="M114.217 143.956s-5.237-3.98-6.247-4.425c-1.01-.444-2.222-.727-3.232-.242 0 0 1.618.068 2.747.808 1.993 1.306 6.126 3.574 6.256 4.777l.476-.918" fill="#E59B69" fill-rule="nonzero" mask="url(#d)"/></g><g transform="translate(176 98)"><mask id="f" fill="#fff"><use xlink:href="#e"/></mask><path d="M122.318 135.928s-5.237-3.98-6.247-4.424c-1.01-.445-2.222-.728-3.232-.243 0 0 1.618.068 2.748.808 1.992 1.306 6.126 3.575 6.255 4.778l.476-.919" fill="#E59B69" fill-rule="nonzero" mask="url(#f)"/></g><g transform="translate(176 98)"><mask id="h" fill="#fff"><use xlink:href="#g"/></mask><path d="M130.856 126.472s-5.236-3.98-6.246-4.424c-1.01-.444-2.222-.727-3.232-.243 0 0 1.618.068 2.747.809 1.992 1.305 6.126 3.574 6.255 4.777l.476-.919" fill="#E59B69" fill-rule="nonzero" mask="url(#h)"/></g><g transform="translate(176 98)"><mask id="j" fill="#fff"><use xlink:href="#i"/></mask><path d="M71.483 67.608l9.294 7.839s-5.576 24.89-28.931 34.264L40.128 99.206S44.492 91.69 45.3 90.8c.808-.889 15.516-15.435 17.213-16.647 1.697-1.212 8.97-6.546 8.97-6.546" fill="#FFF" fill-rule="nonzero" mask="url(#j)"/></g><g transform="translate(176 98)"><mask id="l" fill="#fff"><use xlink:href="#k"/></mask><path d="M3.843 4.17l70.55 57.943s-9.375 33.133-39.276 43.154L3.843 80.537V4.17" fill="#575757" fill-rule="nonzero" mask="url(#l)"/></g><g transform="translate(176 98)"><mask id="n" fill="#fff"><use xlink:href="#m"/></mask><path d="M124.335 77.144l-4.849 3.151-19.395-1.575s-2.303-.122-4.606 1.575c-2.303 1.698-9.819 9.577-9.819 9.577s-1.091 1.333-1.576 4.97c-.485 3.636-2.424 13.94-2.424 13.94s11.394 5.94 15.88-10.182c0 0 2.181-.97 2.666-2.061 0 0 6.425 10.182 19.88 8.122 0 0 7.758 8.849 17.577 11.758 0 0 8.243-2.303 10.183-10.183 1.94-7.879-9.092-10.182-9.092-10.182s-11.329-11.637-10.998-12.122c.33-.485-3.427-6.788-3.427-6.788" fill="#F2B181" fill-rule="nonzero" mask="url(#n)"/></g><g transform="translate(176 98)"><mask id="p" fill="#fff"><use xlink:href="#o"/></mask><path d="M91.929 134.683s-4.525 2.747-6.87 6.465c0 0-1.373 3.96 1.213 6.303 2.586 2.344 5.738 1.859 7.839.404 2.101-1.454 4.606-3.07 5.253-6.586.605-3.293-2.263-7.96-7.435-6.586" fill="#F2B181" fill-rule="nonzero" mask="url(#p)"/></g><g transform="translate(176 98)"><mask id="r" fill="#fff"><use xlink:href="#q"/></mask><path d="M83.726 141.76s-4.06.721-6.91-2.976c-2.848-3.697-1.272-5.758 0-7.213 1.274-1.454 4.607-4.485 6.91-5.151 2.304-.667 5.395-.728 7.698 2.06 2.303 2.788.505 6.203.505 6.203s-4.93 6.416-8.203 7.076" fill="#F2B181" fill-rule="nonzero" mask="url(#r)"/></g><g transform="translate(176 98)"><mask id="t" fill="#fff"><use xlink:href="#s"/></mask><path d="M76.15 133.026s-4.584 1.778-7.07-1.98c-2.484-3.758-.264-8.384 4.343-11.96 4.606-3.576 9.594-1.478 10.485 2.364.787 3.394-.606 7.636-7.758 11.576" fill="#F2B181" fill-rule="nonzero" mask="url(#t)"/></g><g transform="translate(176 98)"><mask id="v" fill="#fff"><use xlink:href="#u"/></mask><path d="M68.049 126.359s-2.95.647-5.597-2.606c-1.976-2.43-1.212-6.667 1.273-9.637 2.485-2.97 7.213-5.576 11.092-2.243 3.321 2.854 1.877 6.061.99 7.455-.886 1.394-6.361 6.729-7.758 7.03" fill="#F2B181" fill-rule="nonzero" mask="url(#v)"/></g><g transform="translate(176 98)"><mask id="x" fill="#fff"><use xlink:href="#w"/></mask><path d="M130.671 67.608l-9.293 7.839s5.576 24.89 28.93 34.264l11.719-10.505s-4.364-7.516-5.172-8.405c-.809-.889-15.516-15.435-17.214-16.647-1.697-1.212-8.97-6.546-8.97-6.546" fill="#FFF" fill-rule="nonzero" mask="url(#x)"/></g><g transform="translate(176 98)"><mask id="z" fill="#fff"><use xlink:href="#y"/></mask><path d="M198.312 4.17l-70.55 57.943s9.374 33.133 39.275 43.154l31.275-24.73V4.17" fill="#1B354A" fill-rule="nonzero" mask="url(#z)"/></g><path d="M67.88 46.608c-.216.381-.445.659-.688.831-.243.173-.544.26-.904.26-.377 0-.787-.141-1.227-.423-.441-.282-.967-.596-1.579-.941a12.93 12.93 0 0 0-2.145-.94c-.819-.282-1.786-.423-2.9-.423-1.008 0-1.89.122-2.645.368-.756.245-1.39.586-1.903 1.022a4.084 4.084 0 0 0-1.146 1.568 5.194 5.194 0 0 0-.378 2.004c0 .927.256 1.7.769 2.318.513.618 1.192 1.145 2.037 1.582.846.436 1.808.827 2.887 1.172 1.08.346 2.186.714 3.32 1.104 1.133.391 2.239.846 3.318 1.364a11.449 11.449 0 0 1 2.887 1.963c.846.79 1.525 1.759 2.038 2.904.512 1.145.769 2.536.769 4.172 0 1.782-.302 3.45-.904 5.004a11.555 11.555 0 0 1-2.645 4.063c-1.16 1.154-2.576 2.063-4.25 2.726-1.672.664-3.588.996-5.747.996-1.241 0-2.464-.123-3.67-.368a19.167 19.167 0 0 1-3.467-1.05c-1.106-.455-2.145-1-3.117-1.636A15.058 15.058 0 0 1 44 74.12l2.132-3.518c.18-.254.413-.468.701-.64.288-.173.594-.26.918-.26.45 0 .935.187 1.457.56.521.372 1.142.786 1.862 1.24.72.455 1.56.868 2.523 1.24.962.373 2.118.56 3.467.56 2.069 0 3.67-.496 4.803-1.486 1.133-.991 1.7-2.414 1.7-4.268 0-1.036-.256-1.881-.77-2.536-.512-.654-1.19-1.204-2.036-1.65a15.116 15.116 0 0 0-2.888-1.13 94.99 94.99 0 0 1-3.292-1.01 28.211 28.211 0 0 1-3.291-1.309 10.66 10.66 0 0 1-2.888-1.99c-.845-.818-1.524-1.84-2.037-3.068-.513-1.227-.769-2.74-.769-4.54 0-1.436.283-2.836.85-4.2a10.846 10.846 0 0 1 2.469-3.626c1.08-1.054 2.41-1.9 3.994-2.536 1.583-.636 3.4-.954 5.45-.954 2.303 0 4.425.364 6.368 1.09 1.943.728 3.598 1.746 4.965 3.055l-1.808 3.463zm51.134-7.172v39.43h-6.395V53.396c0-1.018.054-2.117.162-3.3l-11.792 22.388c-.558 1.072-1.412 1.608-2.563 1.608H97.4c-1.151 0-2.006-.536-2.563-1.608L82.91 50.016c.054.6.099 1.19.135 1.773.036.581.054 1.118.054 1.608v25.468h-6.395V39.436h5.478c.323 0 .602.01.836.028.234.018.445.063.634.136.189.073.36.19.513.354.153.164.301.382.445.655l11.684 21.896c.306.581.589 1.181.85 1.8.26.617.517 1.254.769 1.908.252-.672.513-1.322.782-1.95.27-.627.558-1.231.864-1.813L111.08 40.61c.144-.273.297-.491.458-.655.162-.163.338-.281.527-.354.188-.073.4-.118.634-.136.234-.019.512-.028.836-.028h5.478zm15.974 5.836v10.934h13.654v5.644h-13.654v11.153h17.323v5.862h-24.609V39.436h24.61v5.836h-17.324zm39.585 11.07c-.18.291-.37.496-.567.614-.198.118-.45.177-.756.177-.323 0-.67-.09-1.038-.273a70.593 70.593 0 0 0-1.282-.613 11.661 11.661 0 0 0-1.66-.614c-.62-.182-1.353-.272-2.199-.272-1.313 0-2.343.281-3.09.845-.746.563-1.12 1.3-1.12 2.209 0 .6.194 1.104.581 1.513.387.409.9.768 1.538 1.077.639.309 1.363.586 2.172.832.81.245 1.633.513 2.47.804.836.29 1.659.623 2.468.995.81.373 1.534.846 2.172 1.418a6.58 6.58 0 0 1 1.538 2.059c.387.8.58 1.763.58 2.89 0 1.346-.238 2.586-.715 3.722a8.038 8.038 0 0 1-2.118 2.945c-.935.827-2.09 1.473-3.467 1.936-1.376.464-2.964.696-4.763.696-.953 0-1.884-.087-2.792-.26a16.349 16.349 0 0 1-2.618-.722 14.415 14.415 0 0 1-2.32-1.09 11.267 11.267 0 0 1-1.876-1.364l1.538-2.563c.198-.31.432-.546.702-.71.27-.163.611-.245 1.025-.245.414 0 .805.119 1.174.355.369.236.796.49 1.282.763.485.273 1.057.528 1.713.764.657.236 1.489.354 2.496.354.792 0 1.47-.095 2.037-.286.567-.19 1.035-.44 1.404-.75.368-.309.638-.668.809-1.077.17-.409.256-.832.256-1.268 0-.654-.193-1.19-.58-1.609-.387-.418-.9-.781-1.538-1.09a14.759 14.759 0 0 0-2.185-.832 71.67 71.67 0 0 1-2.51-.804 23.075 23.075 0 0 1-2.51-1.023 8.548 8.548 0 0 1-2.185-1.486c-.639-.6-1.151-1.336-1.538-2.209-.387-.872-.58-1.927-.58-3.163 0-1.145.225-2.236.674-3.272a7.67 7.67 0 0 1 1.984-2.713c.872-.773 1.96-1.39 3.265-1.854 1.304-.464 2.81-.696 4.52-.696 1.906 0 3.642.319 5.207.955 1.565.636 2.87 1.472 3.913 2.508l-1.511 2.427zm29.546 4.09c-1.439.946-2.487 2.014-3.143 3.204a7.81 7.81 0 0 0-.985 3.831c0 1 .17 1.9.513 2.7.341.8.805 1.477 1.39 2.031a6.138 6.138 0 0 0 2.05 1.282c.783.3 1.615.45 2.496.45 1.583 0 3.031-.25 4.344-.75 1.314-.5 2.5-1.195 3.562-2.086L204.12 60.432zm25.985 18.433h-6.53c-.683 0-1.236-.081-1.659-.245-.423-.164-.868-.51-1.336-1.036l-2.698-2.809a19.945 19.945 0 0 1-5.747 3.327c-2.123.8-4.417 1.2-6.881 1.2a13.01 13.01 0 0 1-4.412-.778 12.063 12.063 0 0 1-3.872-2.25 11.337 11.337 0 0 1-2.739-3.558c-.693-1.39-1.039-2.958-1.039-4.703 0-1.236.198-2.404.594-3.504.396-1.1.944-2.122 1.646-3.068a13.137 13.137 0 0 1 2.51-2.55 17.118 17.118 0 0 1 3.183-1.949c-.971-1.363-1.673-2.695-2.104-3.995a12.266 12.266 0 0 1-.648-3.885c0-1.364.247-2.659.742-3.886a9.225 9.225 0 0 1 2.145-3.204c.936-.909 2.087-1.631 3.454-2.168 1.367-.536 2.914-.804 4.641-.804 1.583 0 3 .245 4.25.736s2.32 1.145 3.211 1.963a9.33 9.33 0 0 1 2.105 2.81 9.079 9.079 0 0 1 .904 3.271l-4.237.9c-.791.164-1.367-.182-1.727-1.036a6.83 6.83 0 0 0-.634-1.35c-.26-.427-.57-.8-.93-1.118a4.23 4.23 0 0 0-1.269-.763c-.485-.191-1.043-.287-1.673-.287-.755 0-1.43.132-2.024.396a4.412 4.412 0 0 0-1.497 1.063 4.665 4.665 0 0 0-.931 1.554 5.4 5.4 0 0 0-.324 1.868c0 .546.054 1.073.162 1.582.108.509.288 1.018.54 1.527.252.509.58 1.031.985 1.568.404.536.904 1.113 1.497 1.731l10.362 10.88a19.22 19.22 0 0 0 1.43-3.627c.36-1.272.594-2.563.702-3.872.054-.418.197-.754.431-1.009.234-.254.558-.381.972-.381h4.155c-.018 2.4-.36 4.69-1.025 6.871a22.323 22.323 0 0 1-2.86 6.026l8.175 8.562zm44.415-9.298c.396 0 .747.155 1.052.464l2.86 3.135a15.731 15.731 0 0 1-5.841 4.554c-2.312 1.054-5.087 1.582-8.325 1.582-2.896 0-5.5-.5-7.811-1.5-2.312-1-4.286-2.39-5.923-4.172-1.637-1.782-2.892-3.908-3.764-6.38-.873-2.473-1.309-5.172-1.309-8.1 0-2.962.468-5.675 1.403-8.139.936-2.463 2.253-4.585 3.953-6.367 1.7-1.781 3.728-3.167 6.085-4.158 2.357-.99 4.965-1.486 7.825-1.486 2.842 0 5.365.473 7.569 1.418 2.204.945 4.079 2.181 5.626 3.708l-2.428 3.409a2.216 2.216 0 0 1-.554.572c-.224.164-.535.246-.93.246-.27 0-.55-.077-.837-.232a11.858 11.858 0 0 1-.944-.573 34.086 34.086 0 0 0-1.188-.75 9.728 9.728 0 0 0-1.565-.75 12.67 12.67 0 0 0-2.064-.572c-.783-.154-1.686-.232-2.712-.232-1.745 0-3.341.314-4.79.941a10.412 10.412 0 0 0-3.737 2.727c-1.043 1.19-1.852 2.645-2.428 4.363-.576 1.717-.864 3.676-.864 5.876 0 2.218.31 4.19.931 5.917.621 1.727 1.462 3.181 2.523 4.363a10.776 10.776 0 0 0 3.751 2.713c1.44.627 2.986.94 4.641.94.99 0 1.885-.054 2.685-.163.8-.11 1.538-.282 2.213-.518a9.777 9.777 0 0 0 1.915-.914c.603-.372 1.201-.831 1.795-1.377.18-.163.369-.295.567-.395.197-.1.404-.15.62-.15zm20.103-19.115c2.05 0 3.917.337 5.599 1.01 1.682.672 3.12 1.626 4.317 2.862 1.196 1.237 2.118 2.745 2.766 4.527.648 1.781.971 3.772.971 5.971 0 2.218-.323 4.218-.971 6-.648 1.78-1.57 3.299-2.766 4.553s-2.635 2.218-4.317 2.89c-1.682.673-3.548 1.01-5.6 1.01-2.068 0-3.948-.337-5.639-1.01-1.69-.672-3.134-1.636-4.33-2.89-1.197-1.254-2.123-2.772-2.78-4.554-.656-1.781-.985-3.78-.985-5.999 0-2.2.329-4.19.985-5.971.657-1.782 1.583-3.29 2.78-4.527 1.196-1.236 2.64-2.19 4.33-2.863 1.691-.672 3.571-1.009 5.64-1.009zm0 23.641c2.302 0 4.007-.781 5.113-2.345 1.106-1.563 1.66-3.853 1.66-6.871 0-3.018-.554-5.317-1.66-6.899-1.106-1.581-2.81-2.372-5.113-2.372-2.339 0-4.07.795-5.195 2.386-1.124 1.59-1.686 3.886-1.686 6.885 0 3 .562 5.285 1.686 6.858 1.125 1.572 2.856 2.358 5.195 2.358zm25.04-18.35c.864-1.673 1.89-2.986 3.076-3.94 1.188-.955 2.59-1.432 4.21-1.432 1.277 0 2.302.281 3.076.845l-.432 5.044c-.09.328-.22.56-.391.696-.17.136-.4.204-.688.204-.27 0-.67-.045-1.2-.136a9.184 9.184 0 0 0-1.552-.136c-.738 0-1.395.109-1.97.327a4.945 4.945 0 0 0-1.552.94 6.398 6.398 0 0 0-1.214 1.487c-.35.581-.68 1.245-.985 1.99v17.233h-6.665V50.89h3.913c.683 0 1.16.122 1.43.368.27.245.45.686.54 1.322l.404 3.163zm20.508 15.87c.755.926 1.578 1.58 2.469 1.962.89.382 1.857.573 2.9.573 1.008 0 1.916-.19 2.726-.573.81-.381 1.497-.963 2.064-1.745.567-.781 1.003-1.768 1.309-2.958.305-1.191.458-2.595.458-4.213 0-1.636-.13-3.022-.39-4.158-.262-1.137-.635-2.06-1.12-2.768-.486-.71-1.076-1.227-1.768-1.554-.693-.328-1.48-.491-2.361-.491-1.385 0-2.564.295-3.535.886-.971.59-1.889 1.422-2.752 2.495v12.543zm-.351-16.907a14.468 14.468 0 0 1 3.859-3.136c1.439-.8 3.13-1.2 5.072-1.2 1.512 0 2.892.319 4.142.955 1.25.636 2.33 1.559 3.238 2.768.909 1.209 1.61 2.7 2.105 4.472.495 1.772.742 3.803.742 6.094 0 2.09-.279 4.026-.836 5.808-.558 1.781-1.354 3.327-2.388 4.635a11.055 11.055 0 0 1-3.751 3.068c-1.466.736-3.108 1.104-4.925 1.104-1.547 0-2.869-.24-3.966-.722a9.686 9.686 0 0 1-2.941-2.004V88h-6.665V50.889h4.074c.864 0 1.43.409 1.7 1.227l.54 2.59zm36.59-4.254c2.05 0 3.917.337 5.598 1.01 1.682.672 3.122 1.626 4.318 2.862 1.196 1.237 2.118 2.745 2.766 4.527.647 1.781.971 3.772.971 5.971 0 2.218-.324 4.218-.971 6-.648 1.78-1.57 3.299-2.766 4.553s-2.636 2.218-4.318 2.89c-1.681.673-3.548 1.01-5.599 1.01-2.068 0-3.948-.337-5.64-1.01-1.69-.672-3.134-1.636-4.33-2.89-1.196-1.254-2.123-2.772-2.78-4.554-.656-1.781-.984-3.78-.984-5.999 0-2.2.328-4.19.985-5.971.656-1.782 1.583-3.29 2.78-4.527 1.195-1.236 2.639-2.19 4.33-2.863 1.69-.672 3.57-1.009 5.64-1.009zm0 23.641c2.302 0 4.006-.781 5.113-2.345 1.106-1.563 1.66-3.853 1.66-6.871 0-3.018-.554-5.317-1.66-6.899-1.107-1.581-2.811-2.372-5.114-2.372-2.338 0-4.07.795-5.194 2.386-1.124 1.59-1.686 3.886-1.686 6.885 0 3 .562 5.285 1.686 6.858 1.124 1.572 2.856 2.358 5.194 2.358zm25.04-18.35c.864-1.673 1.889-2.986 3.076-3.94 1.187-.955 2.59-1.432 4.21-1.432 1.277 0 2.302.281 3.076.845l-.432 5.044c-.09.328-.22.56-.391.696-.171.136-.4.204-.688.204-.27 0-.67-.045-1.201-.136a9.184 9.184 0 0 0-1.552-.136c-.737 0-1.394.109-1.97.327a4.945 4.945 0 0 0-1.551.94 6.398 6.398 0 0 0-1.214 1.487c-.351.581-.68 1.245-.985 1.99v17.233h-6.665V50.89h3.912c.684 0 1.16.122 1.43.368.27.245.45.686.54 1.322l.405 3.163zm28.468 11.18c-1.925.09-3.544.258-4.857.504-1.314.245-2.366.559-3.158.94-.791.382-1.358.827-1.7 1.336a2.924 2.924 0 0 0-.512 1.664c0 1.181.346 2.027 1.039 2.536.692.509 1.596.763 2.711.763 1.368 0 2.55-.25 3.549-.75.998-.5 1.974-1.259 2.928-2.277v-4.717zm-15.273-12.135c3.184-2.945 7.016-4.417 11.495-4.417 1.619 0 3.067.268 4.344.804 1.277.536 2.357 1.282 3.238 2.236.882.954 1.552 2.095 2.01 3.422.46 1.327.689 2.781.689 4.363v17.67h-3.023c-.63 0-1.115-.096-1.457-.287-.342-.19-.611-.577-.81-1.159l-.593-2.018a24.143 24.143 0 0 1-2.05 1.677c-.666.482-1.359.886-2.078 1.214a11.08 11.08 0 0 1-2.307.75c-.819.172-1.723.259-2.712.259-1.17 0-2.249-.16-3.238-.478-.99-.318-1.844-.795-2.564-1.431s-1.277-1.427-1.673-2.372c-.395-.946-.593-2.045-.593-3.3 0-.709.117-1.413.35-2.113.234-.7.617-1.368 1.147-2.004.531-.636 1.219-1.236 2.065-1.8.845-.563 1.884-1.054 3.116-1.472 1.232-.418 2.667-.76 4.304-1.023 1.637-.263 3.508-.423 5.613-.477v-1.636c0-1.873-.396-3.259-1.188-4.158-.791-.9-1.934-1.35-3.427-1.35-1.079 0-1.974.127-2.684.382-.711.254-1.336.54-1.876.858-.54.319-1.03.605-1.47.86-.441.254-.931.381-1.471.381-.468 0-.863-.123-1.187-.368a3.064 3.064 0 0 1-.783-.859l-1.187-2.154zm37.264 24.514c-2.41 0-4.259-.687-5.545-2.06-1.286-1.372-1.93-3.267-1.93-5.684V55.933H441.6c-.36 0-.665-.118-.917-.354-.252-.237-.378-.591-.378-1.064v-2.672l4.452-.736 1.404-7.635c.09-.364.26-.645.512-.845.252-.2.576-.3.972-.3h3.453v8.807h7.394v4.8h-7.394v15.16c0 .873.212 1.554.635 2.045.422.49 1.002.736 1.74.736.414 0 .76-.05 1.039-.15.279-.1.522-.204.728-.313.207-.11.392-.214.554-.314.161-.1.323-.15.485-.15.198 0 .36.05.486.15.126.1.26.25.405.45l1.997 3.272a10.059 10.059 0 0 1-3.346 1.854c-1.26.419-2.564.628-3.913.628zm28.683-17.643c0-.872-.121-1.695-.364-2.467a5.884 5.884 0 0 0-1.093-2.032 5.086 5.086 0 0 0-1.848-1.377c-.747-.336-1.615-.504-2.604-.504-1.925 0-3.44.554-4.547 1.663-1.106 1.109-1.812 2.681-2.118 4.717h12.574zm-12.709 4.063c.108 1.436.36 2.677.756 3.722.395 1.046.917 1.91 1.565 2.59a6.124 6.124 0 0 0 2.307 1.528c.89.336 1.875.504 2.954.504 1.08 0 2.01-.127 2.793-.382a13.018 13.018 0 0 0 2.051-.845 47.51 47.51 0 0 0 1.538-.845c.44-.255.868-.382 1.282-.382.557 0 .971.21 1.241.627l1.916 2.454a11.144 11.144 0 0 1-2.483 2.195 13.862 13.862 0 0 1-2.873 1.418c-.999.355-2.015.605-3.05.75a21.609 21.609 0 0 1-3.008.218c-1.925 0-3.715-.322-5.37-.968a12.01 12.01 0 0 1-4.317-2.863c-1.223-1.263-2.186-2.827-2.887-4.69-.702-1.863-1.053-4.022-1.053-6.476 0-1.909.306-3.704.918-5.385.611-1.682 1.488-3.145 2.63-4.39 1.143-1.246 2.537-2.232 4.183-2.959 1.646-.727 3.503-1.09 5.572-1.09 1.745 0 3.355.281 4.83.845 1.475.563 2.743 1.386 3.805 2.467 1.061 1.082 1.893 2.41 2.496 3.982.602 1.572.904 3.367.904 5.385 0 1.018-.108 1.704-.324 2.059-.216.354-.63.531-1.241.531h-17.135zm40.583-9.38c-.18.291-.369.496-.566.614-.198.118-.45.177-.756.177-.324 0-.67-.09-1.039-.273a70.593 70.593 0 0 0-1.282-.613 11.661 11.661 0 0 0-1.66-.614c-.62-.182-1.353-.272-2.198-.272-1.313 0-2.343.281-3.09.845-.746.563-1.12 1.3-1.12 2.209 0 .6.194 1.104.58 1.513.387.409.9.768 1.539 1.077.638.309 1.362.586 2.172.832.81.245 1.632.513 2.469.804.836.29 1.66.623 2.469.995.81.373 1.533.846 2.172 1.418a6.58 6.58 0 0 1 1.538 2.059c.387.8.58 1.763.58 2.89 0 1.346-.238 2.586-.715 3.722a8.038 8.038 0 0 1-2.118 2.945c-.936.827-2.091 1.473-3.468 1.936-1.376.464-2.963.696-4.762.696-.954 0-1.884-.087-2.793-.26a16.349 16.349 0 0 1-2.617-.722 14.415 14.415 0 0 1-2.32-1.09 11.267 11.267 0 0 1-1.876-1.364l1.538-2.563c.198-.31.432-.546.701-.71.27-.163.612-.245 1.026-.245.414 0 .805.119 1.174.355.368.236.796.49 1.281.763.486.273 1.057.528 1.714.764.656.236 1.488.354 2.496.354.791 0 1.47-.095 2.037-.286.567-.19 1.034-.44 1.403-.75.369-.309.639-.668.81-1.077.17-.409.256-.832.256-1.268 0-.654-.193-1.19-.58-1.609-.387-.418-.9-.781-1.538-1.09a14.759 14.759 0 0 0-2.186-.832 71.67 71.67 0 0 1-2.51-.804 23.075 23.075 0 0 1-2.509-1.023 8.548 8.548 0 0 1-2.186-1.486c-.638-.6-1.15-1.336-1.538-2.209-.386-.872-.58-1.927-.58-3.163 0-1.145.225-2.236.675-3.272a7.67 7.67 0 0 1 1.983-2.713c.873-.773 1.96-1.39 3.265-1.854 1.304-.464 2.81-.696 4.52-.696 1.907 0 3.643.319 5.208.955 1.565.636 2.869 1.472 3.912 2.508l-1.51 2.427z" fill="#479692" fill-rule="nonzero"/><path d="M219.93 5.4c-.144.252-.297.435-.459.549a1.022 1.022 0 0 1-.603.171c-.252 0-.525-.093-.819-.279a22.802 22.802 0 0 0-1.053-.621 8.672 8.672 0 0 0-1.431-.621c-.546-.186-1.191-.279-1.935-.279-.672 0-1.26.081-1.764.243a3.705 3.705 0 0 0-1.269.675 2.697 2.697 0 0 0-.765 1.035 3.397 3.397 0 0 0-.252 1.323c0 .612.171 1.122.513 1.53.342.408.795.756 1.359 1.044.564.288 1.206.546 1.926.774.72.228 1.458.471 2.214.729s1.494.558 2.214.9c.72.342 1.362.774 1.926 1.296a5.874 5.874 0 0 1 1.359 1.917c.342.756.513 1.674.513 2.754a8.973 8.973 0 0 1-.603 3.303 7.62 7.62 0 0 1-1.764 2.682c-.774.762-1.719 1.362-2.835 1.8-1.116.438-2.394.657-3.834.657-.828 0-1.644-.081-2.448-.243a12.886 12.886 0 0 1-2.313-.693 12.39 12.39 0 0 1-2.079-1.08A10.024 10.024 0 0 1 204 23.562l1.422-2.322c.12-.168.276-.309.468-.423a1.18 1.18 0 0 1 .612-.171c.3 0 .624.123.972.369s.762.519 1.242.819c.48.3 1.041.573 1.683.819.642.246 1.413.369 2.313.369 1.38 0 2.448-.327 3.204-.981.756-.654 1.134-1.593 1.134-2.817 0-.684-.171-1.242-.513-1.674-.342-.432-.795-.795-1.359-1.089a10.147 10.147 0 0 0-1.926-.747 63.862 63.862 0 0 1-2.196-.666 18.936 18.936 0 0 1-2.196-.864 7.114 7.114 0 0 1-1.926-1.314c-.564-.54-1.017-1.215-1.359-2.025-.342-.81-.513-1.809-.513-2.997 0-.948.189-1.872.567-2.772.378-.9.927-1.698 1.647-2.394.72-.696 1.608-1.254 2.664-1.674 1.056-.42 2.268-.63 3.636-.63 1.536 0 2.952.24 4.248.72 1.296.48 2.4 1.152 3.312 2.016L219.93 5.4zm17.082 9.936a5.35 5.35 0 0 0-.243-1.629 3.872 3.872 0 0 0-.729-1.341 3.39 3.39 0 0 0-1.233-.909c-.498-.222-1.077-.333-1.737-.333-1.284 0-2.295.366-3.033 1.098-.738.732-1.209 1.77-1.413 3.114h8.388zm-8.478 2.682c.072.948.24 1.767.504 2.457s.612 1.26 1.044 1.71c.432.45.945.786 1.539 1.008a5.591 5.591 0 0 0 1.971.333c.72 0 1.341-.084 1.863-.252a8.735 8.735 0 0 0 1.368-.558c.39-.204.732-.39 1.026-.558.294-.168.579-.252.855-.252.372 0 .648.138.828.414l1.278 1.62a7.41 7.41 0 0 1-1.656 1.449 9.287 9.287 0 0 1-1.917.936c-.666.234-1.344.399-2.034.495-.69.096-1.359.144-2.007.144-1.284 0-2.478-.213-3.582-.639a8.018 8.018 0 0 1-2.88-1.89c-.816-.834-1.458-1.866-1.926-3.096-.468-1.23-.702-2.655-.702-4.275 0-1.26.204-2.445.612-3.555a8.548 8.548 0 0 1 1.755-2.898c.762-.822 1.692-1.473 2.79-1.953s2.337-.72 3.717-.72c1.164 0 2.238.186 3.222.558a7.02 7.02 0 0 1 2.538 1.629c.708.714 1.263 1.59 1.665 2.628.402 1.038.603 2.223.603 3.555 0 .672-.072 1.125-.216 1.359-.144.234-.42.351-.828.351h-11.43zm19.998-6.588c.576-1.104 1.26-1.971 2.052-2.601.792-.63 1.728-.945 2.808-.945.852 0 1.536.186 2.052.558l-.288 3.33c-.06.216-.147.369-.261.459-.114.09-.267.135-.459.135-.18 0-.447-.03-.801-.09a6.19 6.19 0 0 0-1.035-.09c-.492 0-.93.072-1.314.216a3.305 3.305 0 0 0-1.035.621c-.306.27-.576.597-.81.981a9.572 9.572 0 0 0-.657 1.314v11.376h-4.446V8.226h2.61c.456 0 .774.081.954.243.18.162.3.453.36.873l.27 2.088zm25.884-3.204l-7.326 18.468h-4.032l-7.326-18.468h3.672c.336 0 .615.078.837.234.222.156.369.354.441.594l3.564 9.864a26.538 26.538 0 0 1 .882 3.348c.12-.552.252-1.104.396-1.656.144-.552.318-1.116.522-1.692l3.636-9.864c.084-.24.234-.438.45-.594.216-.156.474-.234.774-.234h3.51zm6.966 0v18.468h-4.464V8.226h4.464zm.612-5.382c0 .384-.078.744-.234 1.08-.156.336-.363.63-.621.882a2.968 2.968 0 0 1-.909.603c-.348.15-.72.225-1.116.225-.384 0-.747-.075-1.089-.225a2.885 2.885 0 0 1-.891-.603 2.916 2.916 0 0 1-.603-.882 2.619 2.619 0 0 1-.225-1.08 2.856 2.856 0 0 1 .828-2.016c.252-.252.549-.453.891-.603.342-.15.705-.225 1.089-.225.396 0 .768.075 1.116.225.348.15.651.351.909.603s.465.552.621.9c.156.348.234.72.234 1.116zm17.154 9.288c-.132.168-.261.3-.387.396-.126.096-.309.144-.549.144-.228 0-.45-.069-.666-.207a21.426 21.426 0 0 0-.774-.468c-.3-.174-.657-.33-1.071-.468-.414-.138-.927-.207-1.539-.207-.78 0-1.464.141-2.052.423a3.89 3.89 0 0 0-1.467 1.215c-.39.528-.681 1.167-.873 1.917-.192.75-.288 1.599-.288 2.547 0 .984.105 1.86.315 2.628.21.768.513 1.413.909 1.935s.876.918 1.44 1.188c.564.27 1.2.405 1.908.405s1.281-.087 1.719-.261a5.424 5.424 0 0 0 1.107-.576c.3-.21.561-.402.783-.576a1.18 1.18 0 0 1 .747-.261c.36 0 .63.138.81.414l1.278 1.62a8.038 8.038 0 0 1-1.602 1.449 8.66 8.66 0 0 1-1.791.936 9.108 9.108 0 0 1-1.908.495c-.654.096-1.305.144-1.953.144a8.19 8.19 0 0 1-3.222-.639 7.61 7.61 0 0 1-2.646-1.863c-.756-.816-1.353-1.815-1.791-2.997-.438-1.182-.657-2.529-.657-4.041 0-1.356.195-2.613.585-3.771.39-1.158.963-2.16 1.719-3.006.756-.846 1.692-1.509 2.808-1.989 1.116-.48 2.4-.72 3.852-.72 1.38 0 2.589.222 3.627.666a8.862 8.862 0 0 1 2.799 1.908l-1.17 1.62zm8.73-3.906v18.468h-4.464V8.226h4.464zm.612-5.382c0 .384-.078.744-.234 1.08-.156.336-.363.63-.621.882a2.968 2.968 0 0 1-.909.603c-.348.15-.72.225-1.116.225-.384 0-.747-.075-1.089-.225a2.885 2.885 0 0 1-.891-.603 2.916 2.916 0 0 1-.603-.882 2.619 2.619 0 0 1-.225-1.08 2.856 2.856 0 0 1 .828-2.016c.252-.252.549-.453.891-.603.342-.15.705-.225 1.089-.225.396 0 .768.075 1.116.225.348.15.651.351.909.603s.465.552.621.9c.156.348.234.72.234 1.116zm8.082 7.65c.372-.372.765-.717 1.179-1.035a7.449 7.449 0 0 1 1.314-.81 7.364 7.364 0 0 1 1.485-.522 7.44 7.44 0 0 1 1.728-.189c1.008 0 1.902.171 2.682.513a5.3 5.3 0 0 1 1.953 1.44c.522.618.918 1.356 1.188 2.214.27.858.405 1.803.405 2.835v11.754h-4.446V14.94c0-1.128-.258-2.001-.774-2.619-.516-.618-1.302-.927-2.358-.927a4.63 4.63 0 0 0-2.16.522 7.741 7.741 0 0 0-1.908 1.422v13.356h-4.446V8.226h2.718c.576 0 .954.27 1.134.81l.306 1.458zm22.896 6.516c.552 0 1.032-.075 1.44-.225.408-.15.747-.357 1.017-.621.27-.264.474-.582.612-.954s.207-.78.207-1.224c0-.912-.273-1.635-.819-2.169-.546-.534-1.365-.801-2.457-.801-1.092 0-1.911.267-2.457.801-.546.534-.819 1.257-.819 2.169 0 .432.069.834.207 1.206.138.372.342.693.612.963.27.27.612.48 1.026.63.414.15.891.225 1.431.225zm5.022 10.512c0-.36-.108-.654-.324-.882-.216-.228-.51-.405-.882-.531a6.524 6.524 0 0 0-1.305-.279 24.067 24.067 0 0 0-1.584-.135 129.87 129.87 0 0 0-1.728-.081 20.133 20.133 0 0 1-1.737-.144c-.492.276-.891.6-1.197.972a1.98 1.98 0 0 0-.459 1.296c0 .324.081.627.243.909.162.282.42.525.774.729.354.204.813.363 1.377.477.564.114 1.254.171 2.07.171.828 0 1.542-.063 2.142-.189.6-.126 1.095-.3 1.485-.522.39-.222.675-.486.855-.792.18-.306.27-.639.27-.999zm4.428-18.666v1.656c0 .528-.318.852-.954.972l-1.656.306a5.62 5.62 0 0 1 .378 2.088c0 .912-.183 1.737-.549 2.475a5.502 5.502 0 0 1-1.521 1.881c-.648.516-1.413.915-2.295 1.197a9.318 9.318 0 0 1-2.853.423 9.8 9.8 0 0 1-1.044-.054 13.099 13.099 0 0 1-.99-.144c-.576.348-.864.738-.864 1.17 0 .372.171.645.513.819.342.174.795.297 1.359.369.564.072 1.206.117 1.926.135.72.018 1.458.057 2.214.117.756.06 1.494.165 2.214.315s1.362.387 1.926.711a3.778 3.778 0 0 1 1.359 1.323c.342.558.513 1.275.513 2.151 0 .816-.201 1.608-.603 2.376-.402.768-.984 1.452-1.746 2.052-.762.6-1.698 1.083-2.808 1.449-1.11.366-2.373.549-3.789.549-1.392 0-2.604-.135-3.636-.405s-1.89-.63-2.574-1.08c-.684-.45-1.194-.969-1.53-1.557a3.65 3.65 0 0 1-.504-1.836c0-.864.261-1.587.783-2.169.522-.582 1.239-1.047 2.151-1.395a3.1 3.1 0 0 1-1.17-1.008c-.288-.42-.432-.972-.432-1.656 0-.276.051-.561.153-.855.102-.294.252-.585.45-.873a4.3 4.3 0 0 1 .747-.819c.3-.258.654-.489 1.062-.693-.936-.504-1.671-1.176-2.205-2.016-.534-.84-.801-1.824-.801-2.952 0-.912.183-1.737.549-2.475a5.546 5.546 0 0 1 1.53-1.89c.654-.522 1.428-.921 2.322-1.197.894-.276 1.869-.414 2.925-.414.792 0 1.536.081 2.232.243a7.605 7.605 0 0 1 1.908.711h5.31zM52.488 321.952c-.12.192-.246.327-.378.405a.98.98 0 0 1-.504.117c-.216 0-.447-.06-.693-.18-.246-.12-.531-.255-.855-.405a7.831 7.831 0 0 0-1.107-.405c-.414-.12-.903-.18-1.467-.18-.876 0-1.563.186-2.061.558-.498.372-.747.858-.747 1.458 0 .396.129.729.387.999s.6.507 1.026.711c.426.204.909.387 1.449.549.54.162 1.089.339 1.647.531s1.107.411 1.647.657c.54.246 1.023.558 1.449.936.426.378.768.831 1.026 1.359s.387 1.164.387 1.908a6.23 6.23 0 0 1-.477 2.457 5.308 5.308 0 0 1-1.413 1.944c-.624.546-1.395.972-2.313 1.278-.918.306-1.977.459-3.177.459-.636 0-1.257-.057-1.863-.171a10.996 10.996 0 0 1-1.746-.477 9.662 9.662 0 0 1-1.548-.72 7.513 7.513 0 0 1-1.251-.9l1.026-1.692c.132-.204.288-.36.468-.468.18-.108.408-.162.684-.162.276 0 .537.078.783.234.246.156.531.324.855.504.324.18.705.348 1.143.504.438.156.993.234 1.665.234.528 0 .981-.063 1.359-.189s.69-.291.936-.495c.246-.204.426-.441.54-.711.114-.27.171-.549.171-.837 0-.432-.129-.786-.387-1.062s-.6-.516-1.026-.72a9.91 9.91 0 0 0-1.458-.549 48.173 48.173 0 0 1-1.674-.531 15.486 15.486 0 0 1-1.674-.675 5.705 5.705 0 0 1-1.458-.981 4.44 4.44 0 0 1-1.026-1.458c-.258-.576-.387-1.272-.387-2.088 0-.756.15-1.476.45-2.16.3-.684.741-1.281 1.323-1.791s1.308-.918 2.178-1.224c.87-.306 1.875-.459 3.015-.459 1.272 0 2.43.21 3.474.63 1.044.42 1.914.972 2.61 1.656l-1.008 1.602zm12.726-3.888c1.368 0 2.613.222 3.735.666a8.183 8.183 0 0 1 2.88 1.89c.798.816 1.413 1.812 1.845 2.988.432 1.176.648 2.49.648 3.942 0 1.464-.216 2.784-.648 3.96-.432 1.176-1.047 2.178-1.845 3.006a8.064 8.064 0 0 1-2.88 1.908c-1.122.444-2.367.666-3.735.666-1.38 0-2.634-.222-3.762-.666a8.047 8.047 0 0 1-2.889-1.908c-.798-.828-1.416-1.83-1.854-3.006-.438-1.176-.657-2.496-.657-3.96 0-1.452.219-2.766.657-3.942.438-1.176 1.056-2.172 1.854-2.988.798-.816 1.761-1.446 2.889-1.89 1.128-.444 2.382-.666 3.762-.666zm0 15.606c1.536 0 2.673-.516 3.411-1.548s1.107-2.544 1.107-4.536c0-1.992-.369-3.51-1.107-4.554-.738-1.044-1.875-1.566-3.411-1.566-1.56 0-2.715.525-3.465 1.575-.75 1.05-1.125 2.565-1.125 4.545s.375 3.489 1.125 4.527c.75 1.038 1.905 1.557 3.465 1.557zm17.01-23.598v26.748h-4.446v-26.748h4.446zm9.054 8.28v18.468h-4.464v-18.468h4.464zm.612-5.382c0 .384-.078.744-.234 1.08-.156.336-.363.63-.621.882a2.968 2.968 0 0 1-.909.603c-.348.15-.72.225-1.116.225-.384 0-.747-.075-1.089-.225a2.885 2.885 0 0 1-.891-.603 2.916 2.916 0 0 1-.603-.882 2.619 2.619 0 0 1-.225-1.08 2.856 2.856 0 0 1 .828-2.016c.252-.252.549-.453.891-.603.342-.15.705-.225 1.089-.225.396 0 .768.075 1.116.225.348.15.651.351.909.603s.465.552.621.9c.156.348.234.72.234 1.116zm15.516 10.098c-.504-.612-1.053-1.044-1.647-1.296a4.857 4.857 0 0 0-1.917-.378c-.672 0-1.278.126-1.818.378a3.661 3.661 0 0 0-1.386 1.143c-.384.51-.678 1.158-.882 1.944-.204.786-.306 1.713-.306 2.781 0 1.08.087 1.995.261 2.745.174.75.423 1.362.747 1.836s.72.816 1.188 1.026c.468.21.99.315 1.566.315.924 0 1.71-.192 2.358-.576.648-.384 1.26-.93 1.836-1.638v-8.28zm4.446-12.996v26.748h-2.718c-.588 0-.96-.27-1.116-.81l-.378-1.782a9.322 9.322 0 0 1-2.565 2.07c-.966.528-2.091.792-3.375.792-1.008 0-1.932-.21-2.772-.63-.84-.42-1.563-1.029-2.169-1.827-.606-.798-1.074-1.785-1.404-2.961-.33-1.176-.495-2.52-.495-4.032 0-1.368.186-2.64.558-3.816.372-1.176.906-2.196 1.602-3.06a7.475 7.475 0 0 1 2.502-2.025c.972-.486 2.064-.729 3.276-.729 1.032 0 1.914.162 2.646.486a6.78 6.78 0 0 1 1.962 1.314v-9.738h4.446zm9 8.28v18.468h-4.464v-18.468h4.464zm.612-5.382c0 .384-.078.744-.234 1.08-.156.336-.363.63-.621.882a2.968 2.968 0 0 1-.909.603c-.348.15-.72.225-1.116.225-.384 0-.747-.075-1.089-.225a2.885 2.885 0 0 1-.891-.603 2.916 2.916 0 0 1-.603-.882 2.619 2.619 0 0 1-.225-1.08 2.856 2.856 0 0 1 .828-2.016c.252-.252.549-.453.891-.603.342-.15.705-.225 1.089-.225.396 0 .768.075 1.116.225.348.15.651.351.909.603s.465.552.621.9c.156.348.234.72.234 1.116zm5.238 23.85V321.7l-1.602-.252c-.348-.072-.627-.195-.837-.369-.21-.174-.315-.423-.315-.747v-1.818h2.754v-.594c0-1.128.186-2.175.558-3.141a6.693 6.693 0 0 1 1.692-2.511c.756-.708 1.713-1.263 2.871-1.665 1.158-.402 2.523-.603 4.095-.603.504 0 1.017.027 1.539.081.522.054.975.141 1.359.261l-.144 2.304c-.024.276-.174.441-.45.495a5.463 5.463 0 0 1-1.026.081c-1.164 0-2.139.102-2.925.306-.786.204-1.422.507-1.908.909a3.345 3.345 0 0 0-1.044 1.512c-.21.606-.315 1.311-.315 2.115v.45h11.448v18.306h-4.446v-15.138h-6.858v15.138h-4.446zm32.202-11.358a5.35 5.35 0 0 0-.243-1.629 3.872 3.872 0 0 0-.729-1.341 3.39 3.39 0 0 0-1.233-.909c-.498-.222-1.077-.333-1.737-.333-1.284 0-2.295.366-3.033 1.098-.738.732-1.209 1.77-1.413 3.114h8.388zm-8.478 2.682c.072.948.24 1.767.504 2.457s.612 1.26 1.044 1.71c.432.45.945.786 1.539 1.008a5.591 5.591 0 0 0 1.971.333c.72 0 1.341-.084 1.863-.252a8.735 8.735 0 0 0 1.368-.558c.39-.204.732-.39 1.026-.558.294-.168.579-.252.855-.252.372 0 .648.138.828.414l1.278 1.62a7.41 7.41 0 0 1-1.656 1.449 9.287 9.287 0 0 1-1.917.936c-.666.234-1.344.399-2.034.495-.69.096-1.359.144-2.007.144-1.284 0-2.478-.213-3.582-.639a8.018 8.018 0 0 1-2.88-1.89c-.816-.834-1.458-1.866-1.926-3.096-.468-1.23-.702-2.655-.702-4.275 0-1.26.204-2.445.612-3.555a8.548 8.548 0 0 1 1.755-2.898c.762-.822 1.692-1.473 2.79-1.953s2.337-.72 3.717-.72c1.164 0 2.238.186 3.222.558a7.02 7.02 0 0 1 2.538 1.629c.708.714 1.263 1.59 1.665 2.628.402 1.038.603 2.223.603 3.555 0 .672-.072 1.125-.216 1.359-.144.234-.42.351-.828.351h-11.43zm27.072-6.192c-.12.192-.246.327-.378.405a.98.98 0 0 1-.504.117c-.216 0-.447-.06-.693-.18a47.31 47.31 0 0 0-.855-.405 7.831 7.831 0 0 0-1.107-.405c-.414-.12-.903-.18-1.467-.18-.876 0-1.563.186-2.061.558-.498.372-.747.858-.747 1.458 0 .396.129.729.387.999s.6.507 1.026.711c.426.204.909.387 1.449.549.54.162 1.089.339 1.647.531s1.107.411 1.647.657c.54.246 1.023.558 1.449.936.426.378.768.831 1.026 1.359s.387 1.164.387 1.908a6.23 6.23 0 0 1-.477 2.457 5.308 5.308 0 0 1-1.413 1.944c-.624.546-1.395.972-2.313 1.278-.918.306-1.977.459-3.177.459-.636 0-1.257-.057-1.863-.171a10.996 10.996 0 0 1-1.746-.477 9.662 9.662 0 0 1-1.548-.72 7.513 7.513 0 0 1-1.251-.9l1.026-1.692c.132-.204.288-.36.468-.468.18-.108.408-.162.684-.162.276 0 .537.078.783.234.246.156.531.324.855.504.324.18.705.348 1.143.504.438.156.993.234 1.665.234.528 0 .981-.063 1.359-.189s.69-.291.936-.495c.246-.204.426-.441.54-.711.114-.27.171-.549.171-.837 0-.432-.129-.786-.387-1.062s-.6-.516-1.026-.72a9.91 9.91 0 0 0-1.458-.549 48.173 48.173 0 0 1-1.674-.531 15.486 15.486 0 0 1-1.674-.675 5.705 5.705 0 0 1-1.458-.981 4.44 4.44 0 0 1-1.026-1.458c-.258-.576-.387-1.272-.387-2.088 0-.756.15-1.476.45-2.16.3-.684.741-1.281 1.323-1.791s1.308-.918 2.178-1.224c.87-.306 1.875-.459 3.015-.459 1.272 0 2.43.21 3.474.63 1.044.42 1.914.972 2.61 1.656l-1.008 1.602zm21.474-3.888c1.368 0 2.613.222 3.735.666a8.183 8.183 0 0 1 2.88 1.89c.798.816 1.413 1.812 1.845 2.988.432 1.176.648 2.49.648 3.942 0 1.464-.216 2.784-.648 3.96-.432 1.176-1.047 2.178-1.845 3.006a8.064 8.064 0 0 1-2.88 1.908c-1.122.444-2.367.666-3.735.666-1.38 0-2.634-.222-3.762-.666a8.047 8.047 0 0 1-2.889-1.908c-.798-.828-1.416-1.83-1.854-3.006-.438-1.176-.657-2.496-.657-3.96 0-1.452.219-2.766.657-3.942.438-1.176 1.056-2.172 1.854-2.988.798-.816 1.761-1.446 2.889-1.89 1.128-.444 2.382-.666 3.762-.666zm0 15.606c1.536 0 2.673-.516 3.411-1.548s1.107-2.544 1.107-4.536c0-1.992-.369-3.51-1.107-4.554-.738-1.044-1.875-1.566-3.411-1.566-1.56 0-2.715.525-3.465 1.575-.75 1.05-1.125 2.565-1.125 4.545s.375 3.489 1.125 4.527c.75 1.038 1.905 1.557 3.465 1.557zm28.422-15.318v18.468h-2.718c-.588 0-.96-.27-1.116-.81l-.306-1.476a9.92 9.92 0 0 1-2.502 1.863c-.912.474-1.986.711-3.222.711-1.008 0-1.899-.171-2.673-.513a5.354 5.354 0 0 1-1.953-1.449c-.528-.624-.927-1.365-1.197-2.223-.27-.858-.405-1.803-.405-2.835v-11.736h4.446v11.736c0 1.128.261 2.001.783 2.619.522.618 1.305.927 2.349.927.768 0 1.488-.171 2.16-.513a7.55 7.55 0 0 0 1.908-1.413v-13.356h4.446zm8.586 3.204c.576-1.104 1.26-1.971 2.052-2.601.792-.63 1.728-.945 2.808-.945.852 0 1.536.186 2.052.558l-.288 3.33c-.06.216-.147.369-.261.459-.114.09-.267.135-.459.135-.18 0-.447-.03-.801-.09a6.19 6.19 0 0 0-1.035-.09c-.492 0-.93.072-1.314.216a3.305 3.305 0 0 0-1.035.621c-.306.27-.576.597-.81.981a9.572 9.572 0 0 0-.657 1.314v11.376h-4.446v-18.468h2.61c.456 0 .774.081.954.243.18.162.3.453.36.873l.27 2.088zm34.632-3.204l-7.326 18.468h-4.032l-7.326-18.468h3.672c.336 0 .615.078.837.234.222.156.369.354.441.594l3.564 9.864a26.538 26.538 0 0 1 .882 3.348c.12-.552.252-1.104.396-1.656.144-.552.318-1.116.522-1.692l3.636-9.864c.084-.24.234-.438.45-.594.216-.156.474-.234.774-.234h3.51zm6.966 0v18.468h-4.464v-18.468h4.464zm.612-5.382c0 .384-.078.744-.234 1.08-.156.336-.363.63-.621.882a2.968 2.968 0 0 1-.909.603c-.348.15-.72.225-1.116.225-.384 0-.747-.075-1.089-.225a2.885 2.885 0 0 1-.891-.603 2.916 2.916 0 0 1-.603-.882 2.619 2.619 0 0 1-.225-1.08 2.856 2.856 0 0 1 .828-2.016c.252-.252.549-.453.891-.603.342-.15.705-.225 1.089-.225.396 0 .768.075 1.116.225.348.15.651.351.909.603s.465.552.621.9c.156.348.234.72.234 1.116zm15.192 8.982c-.12.192-.246.327-.378.405a.98.98 0 0 1-.504.117c-.216 0-.447-.06-.693-.18a47.31 47.31 0 0 0-.855-.405 7.831 7.831 0 0 0-1.107-.405c-.414-.12-.903-.18-1.467-.18-.876 0-1.563.186-2.061.558-.498.372-.747.858-.747 1.458 0 .396.129.729.387.999s.6.507 1.026.711c.426.204.909.387 1.449.549.54.162 1.089.339 1.647.531s1.107.411 1.647.657c.54.246 1.023.558 1.449.936.426.378.768.831 1.026 1.359s.387 1.164.387 1.908a6.23 6.23 0 0 1-.477 2.457 5.308 5.308 0 0 1-1.413 1.944c-.624.546-1.395.972-2.313 1.278-.918.306-1.977.459-3.177.459-.636 0-1.257-.057-1.863-.171a10.996 10.996 0 0 1-1.746-.477 9.662 9.662 0 0 1-1.548-.72 7.513 7.513 0 0 1-1.251-.9l1.026-1.692c.132-.204.288-.36.468-.468.18-.108.408-.162.684-.162.276 0 .537.078.783.234.246.156.531.324.855.504.324.18.705.348 1.143.504.438.156.993.234 1.665.234.528 0 .981-.063 1.359-.189s.69-.291.936-.495c.246-.204.426-.441.54-.711.114-.27.171-.549.171-.837 0-.432-.129-.786-.387-1.062s-.6-.516-1.026-.72a9.91 9.91 0 0 0-1.458-.549 48.173 48.173 0 0 1-1.674-.531 15.486 15.486 0 0 1-1.674-.675 5.705 5.705 0 0 1-1.458-.981 4.44 4.44 0 0 1-1.026-1.458c-.258-.576-.387-1.272-.387-2.088 0-.756.15-1.476.45-2.16.3-.684.741-1.281 1.323-1.791s1.308-.918 2.178-1.224c.87-.306 1.875-.459 3.015-.459 1.272 0 2.43.21 3.474.63 1.044.42 1.914.972 2.61 1.656l-1.008 1.602zm9.162-3.6v18.468h-4.464v-18.468h4.464zm.612-5.382c0 .384-.078.744-.234 1.08-.156.336-.363.63-.621.882a2.968 2.968 0 0 1-.909.603c-.348.15-.72.225-1.116.225-.384 0-.747-.075-1.089-.225a2.885 2.885 0 0 1-.891-.603 2.916 2.916 0 0 1-.603-.882 2.619 2.619 0 0 1-.225-1.08 2.856 2.856 0 0 1 .828-2.016c.252-.252.549-.453.891-.603.342-.15.705-.225 1.089-.225.396 0 .768.075 1.116.225.348.15.651.351.909.603s.465.552.621.9c.156.348.234.72.234 1.116zm12.096 5.094c1.368 0 2.613.222 3.735.666a8.183 8.183 0 0 1 2.88 1.89c.798.816 1.413 1.812 1.845 2.988.432 1.176.648 2.49.648 3.942 0 1.464-.216 2.784-.648 3.96-.432 1.176-1.047 2.178-1.845 3.006a8.064 8.064 0 0 1-2.88 1.908c-1.122.444-2.367.666-3.735.666-1.38 0-2.634-.222-3.762-.666a8.047 8.047 0 0 1-2.889-1.908c-.798-.828-1.416-1.83-1.854-3.006-.438-1.176-.657-2.496-.657-3.96 0-1.452.219-2.766.657-3.942.438-1.176 1.056-2.172 1.854-2.988.798-.816 1.761-1.446 2.889-1.89 1.128-.444 2.382-.666 3.762-.666zm0 15.606c1.536 0 2.673-.516 3.411-1.548s1.107-2.544 1.107-4.536c0-1.992-.369-3.51-1.107-4.554-.738-1.044-1.875-1.566-3.411-1.566-1.56 0-2.715.525-3.465 1.575-.75 1.05-1.125 2.565-1.125 4.545s.375 3.489 1.125 4.527c.75 1.038 1.905 1.557 3.465 1.557zm16.668-13.05c.372-.372.765-.717 1.179-1.035a7.449 7.449 0 0 1 1.314-.81 7.364 7.364 0 0 1 1.485-.522 7.44 7.44 0 0 1 1.728-.189c1.008 0 1.902.171 2.682.513a5.3 5.3 0 0 1 1.953 1.44c.522.618.918 1.356 1.188 2.214.27.858.405 1.803.405 2.835v11.754h-4.446v-11.754c0-1.128-.258-2.001-.774-2.619-.516-.618-1.302-.927-2.358-.927a4.63 4.63 0 0 0-2.16.522 7.741 7.741 0 0 0-1.908 1.422v13.356h-4.446v-18.468h2.718c.576 0 .954.27 1.134.81l.306 1.458zm33.066-2.556c1.368 0 2.613.222 3.735.666a8.183 8.183 0 0 1 2.88 1.89c.798.816 1.413 1.812 1.845 2.988.432 1.176.648 2.49.648 3.942 0 1.464-.216 2.784-.648 3.96-.432 1.176-1.047 2.178-1.845 3.006a8.064 8.064 0 0 1-2.88 1.908c-1.122.444-2.367.666-3.735.666-1.38 0-2.634-.222-3.762-.666a8.047 8.047 0 0 1-2.889-1.908c-.798-.828-1.416-1.83-1.854-3.006-.438-1.176-.657-2.496-.657-3.96 0-1.452.219-2.766.657-3.942.438-1.176 1.056-2.172 1.854-2.988.798-.816 1.761-1.446 2.889-1.89 1.128-.444 2.382-.666 3.762-.666zm0 15.606c1.536 0 2.673-.516 3.411-1.548s1.107-2.544 1.107-4.536c0-1.992-.369-3.51-1.107-4.554-.738-1.044-1.875-1.566-3.411-1.566-1.56 0-2.715.525-3.465 1.575-.75 1.05-1.125 2.565-1.125 4.545s.375 3.489 1.125 4.527c.75 1.038 1.905 1.557 3.465 1.557zm13.806 3.15V321.7l-1.602-.252c-.348-.072-.627-.195-.837-.369-.21-.174-.315-.423-.315-.747v-1.818h2.754v-1.368c0-1.056.159-2.004.477-2.844a5.914 5.914 0 0 1 1.368-2.142c.594-.588 1.317-1.038 2.169-1.35.852-.312 1.812-.468 2.88-.468.852 0 1.644.114 2.376.342l-.09 2.232a.699.699 0 0 1-.144.405.798.798 0 0 1-.333.234 1.8 1.8 0 0 1-.477.108 5.8 5.8 0 0 1-.576.027c-.528 0-.999.057-1.413.171a2.378 2.378 0 0 0-1.053.594c-.288.282-.507.654-.657 1.116-.15.462-.225 1.035-.225 1.719v1.224h4.806v3.168h-4.662v15.138h-4.446zm20.358 0v-18.468h2.718c.576 0 .954.27 1.134.81l.288 1.368c.324-.36.663-.69 1.017-.99.354-.3.732-.558 1.134-.774a5.77 5.77 0 0 1 2.817-.702c1.164 0 2.121.315 2.871.945.75.63 1.311 1.467 1.683 2.511a5.635 5.635 0 0 1 1.08-1.575 5.903 5.903 0 0 1 1.422-1.071 6.544 6.544 0 0 1 1.647-.612 7.91 7.91 0 0 1 1.755-.198c1.02 0 1.926.156 2.718.468a5.214 5.214 0 0 1 1.998 1.368c.54.6.951 1.332 1.233 2.196.282.864.423 1.854.423 2.97v11.754h-4.446v-11.754c0-1.176-.258-2.061-.774-2.655-.516-.594-1.272-.891-2.268-.891-.456 0-.879.078-1.269.234-.39.156-.732.381-1.026.675a3.082 3.082 0 0 0-.693 1.107c-.168.444-.252.954-.252 1.53v11.754h-4.464v-11.754c0-1.236-.249-2.136-.747-2.7-.498-.564-1.227-.846-2.187-.846-.648 0-1.251.159-1.809.477a6.032 6.032 0 0 0-1.557 1.305v13.518h-4.446zm39.906-7.884c-1.284.06-2.364.171-3.24.333-.876.162-1.578.369-2.106.621-.528.252-.906.546-1.134.882a1.916 1.916 0 0 0-.342 1.098c0 .78.231 1.338.693 1.674.462.336 1.065.504 1.809.504.912 0 1.701-.165 2.367-.495.666-.33 1.317-.831 1.953-1.503v-3.114zm-10.188-8.01c2.124-1.944 4.68-2.916 7.668-2.916 1.08 0 2.046.177 2.898.531a6.123 6.123 0 0 1 2.16 1.476 6.317 6.317 0 0 1 1.341 2.259c.306.876.459 1.836.459 2.88v11.664h-2.016c-.42 0-.744-.063-.972-.189-.228-.126-.408-.381-.54-.765l-.396-1.332c-.468.42-.924.789-1.368 1.107a8.053 8.053 0 0 1-1.386.801c-.48.216-.993.381-1.539.495a8.867 8.867 0 0 1-1.809.171c-.78 0-1.5-.105-2.16-.315a4.746 4.746 0 0 1-1.71-.945 4.242 4.242 0 0 1-1.116-1.566c-.264-.624-.396-1.35-.396-2.178 0-.468.078-.933.234-1.395.156-.462.411-.903.765-1.323.354-.42.813-.816 1.377-1.188.564-.372 1.257-.696 2.079-.972.822-.276 1.779-.501 2.871-.675 1.092-.174 2.34-.279 3.744-.315v-1.08c0-1.236-.264-2.151-.792-2.745-.528-.594-1.29-.891-2.286-.891-.72 0-1.317.084-1.791.252a7.37 7.37 0 0 0-1.251.567c-.36.21-.687.399-.981.567a1.942 1.942 0 0 1-.981.252c-.312 0-.576-.081-.792-.243a2.03 2.03 0 0 1-.522-.567l-.792-1.422zm23.148-10.854v15.318h.828c.3 0 .537-.039.711-.117.174-.078.351-.237.531-.477l4.59-5.67c.192-.252.405-.444.639-.576.234-.132.537-.198.909-.198h4.068l-5.742 6.858c-.408.54-.852.954-1.332 1.242.252.18.477.39.675.63.198.24.387.498.567.774l6.156 8.964h-4.014a2.17 2.17 0 0 1-.9-.171c-.252-.114-.462-.321-.63-.621l-4.716-7.002c-.168-.276-.342-.456-.522-.54-.18-.084-.45-.126-.81-.126h-1.008v8.46h-4.446v-26.748h4.446zm19.404 8.28v18.468h-4.464v-18.468h4.464zm.612-5.382c0 .384-.078.744-.234 1.08-.156.336-.363.63-.621.882a2.968 2.968 0 0 1-.909.603c-.348.15-.72.225-1.116.225-.384 0-.747-.075-1.089-.225a2.885 2.885 0 0 1-.891-.603 2.916 2.916 0 0 1-.603-.882 2.619 2.619 0 0 1-.225-1.08 2.856 2.856 0 0 1 .828-2.016c.252-.252.549-.453.891-.603.342-.15.705-.225 1.089-.225.396 0 .768.075 1.116.225.348.15.651.351.909.603s.465.552.621.9c.156.348.234.72.234 1.116zm8.082 7.65c.372-.372.765-.717 1.179-1.035a7.449 7.449 0 0 1 1.314-.81 7.364 7.364 0 0 1 1.485-.522 7.44 7.44 0 0 1 1.728-.189c1.008 0 1.902.171 2.682.513a5.3 5.3 0 0 1 1.953 1.44c.522.618.918 1.356 1.188 2.214.27.858.405 1.803.405 2.835v11.754h-4.446v-11.754c0-1.128-.258-2.001-.774-2.619-.516-.618-1.302-.927-2.358-.927a4.63 4.63 0 0 0-2.16.522 7.741 7.741 0 0 0-1.908 1.422v13.356h-4.446v-18.468h2.718c.576 0 .954.27 1.134.81l.306 1.458zm22.896 6.516c.552 0 1.032-.075 1.44-.225.408-.15.747-.357 1.017-.621.27-.264.474-.582.612-.954s.207-.78.207-1.224c0-.912-.273-1.635-.819-2.169-.546-.534-1.365-.801-2.457-.801-1.092 0-1.911.267-2.457.801-.546.534-.819 1.257-.819 2.169 0 .432.069.834.207 1.206.138.372.342.693.612.963.27.27.612.48 1.026.63.414.15.891.225 1.431.225zm5.022 10.512c0-.36-.108-.654-.324-.882-.216-.228-.51-.405-.882-.531a6.524 6.524 0 0 0-1.305-.279 24.067 24.067 0 0 0-1.584-.135 129.87 129.87 0 0 0-1.728-.081 20.133 20.133 0 0 1-1.737-.144c-.492.276-.891.6-1.197.972a1.98 1.98 0 0 0-.459 1.296c0 .324.081.627.243.909.162.282.42.525.774.729.354.204.813.363 1.377.477.564.114 1.254.171 2.07.171.828 0 1.542-.063 2.142-.189.6-.126 1.095-.3 1.485-.522.39-.222.675-.486.855-.792.18-.306.27-.639.27-.999zm4.428-18.666v1.656c0 .528-.318.852-.954.972l-1.656.306a5.62 5.62 0 0 1 .378 2.088c0 .912-.183 1.737-.549 2.475a5.503 5.503 0 0 1-1.521 1.881c-.648.516-1.413.915-2.295 1.197a9.318 9.318 0 0 1-2.853.423 9.8 9.8 0 0 1-1.044-.054 13.099 13.099 0 0 1-.99-.144c-.576.348-.864.738-.864 1.17 0 .372.171.645.513.819.342.174.795.297 1.359.369.564.072 1.206.117 1.926.135.72.018 1.458.057 2.214.117.756.06 1.494.165 2.214.315s1.362.387 1.926.711a3.778 3.778 0 0 1 1.359 1.323c.342.558.513 1.275.513 2.151 0 .816-.201 1.608-.603 2.376-.402.768-.984 1.452-1.746 2.052-.762.6-1.698 1.083-2.808 1.449-1.11.366-2.373.549-3.789.549-1.392 0-2.604-.135-3.636-.405s-1.89-.63-2.574-1.08c-.684-.45-1.194-.969-1.53-1.557a3.65 3.65 0 0 1-.504-1.836c0-.864.261-1.587.783-2.169.522-.582 1.239-1.047 2.151-1.395a3.1 3.1 0 0 1-1.17-1.008c-.288-.42-.432-.972-.432-1.656 0-.276.051-.561.153-.855.102-.294.252-.585.45-.873a4.3 4.3 0 0 1 .747-.819c.3-.258.654-.489 1.062-.693-.936-.504-1.671-1.176-2.205-2.016-.534-.84-.801-1.824-.801-2.952 0-.912.183-1.737.549-2.475a5.546 5.546 0 0 1 1.53-1.89c.654-.522 1.428-.921 2.322-1.197.894-.276 1.869-.414 2.925-.414.792 0 1.536.081 2.232.243a7.605 7.605 0 0 1 1.908.711h5.31zM4.446 354.072v15.318h.828c.3 0 .537-.039.711-.117.174-.078.351-.237.531-.477l4.59-5.67c.192-.252.405-.444.639-.576.234-.132.537-.198.909-.198h4.068l-5.742 6.858c-.408.54-.852.954-1.332 1.242.252.18.477.39.675.63.198.24.387.498.567.774l6.156 8.964h-4.014a2.17 2.17 0 0 1-.9-.171c-.252-.114-.462-.321-.63-.621l-4.716-7.002c-.168-.276-.342-.456-.522-.54-.18-.084-.45-.126-.81-.126H4.446v8.46H0v-26.748h4.446zM23.4 364.62c.372-.372.765-.717 1.179-1.035a7.449 7.449 0 0 1 1.314-.81 7.364 7.364 0 0 1 1.485-.522 7.44 7.44 0 0 1 1.728-.189c1.008 0 1.902.171 2.682.513a5.3 5.3 0 0 1 1.953 1.44c.522.618.918 1.356 1.188 2.214.27.858.405 1.803.405 2.835v11.754h-4.446v-11.754c0-1.128-.258-2.001-.774-2.619-.516-.618-1.302-.927-2.358-.927a4.63 4.63 0 0 0-2.16.522 7.741 7.741 0 0 0-1.908 1.422v13.356h-4.446v-18.468h2.718c.576 0 .954.27 1.134.81l.306 1.458zm24.318-2.556c1.368 0 2.613.222 3.735.666a8.183 8.183 0 0 1 2.88 1.89c.798.816 1.413 1.812 1.845 2.988.432 1.176.648 2.49.648 3.942 0 1.464-.216 2.784-.648 3.96-.432 1.176-1.047 2.178-1.845 3.006a8.064 8.064 0 0 1-2.88 1.908c-1.122.444-2.367.666-3.735.666-1.38 0-2.634-.222-3.762-.666a8.047 8.047 0 0 1-2.889-1.908c-.798-.828-1.416-1.83-1.854-3.006-.438-1.176-.657-2.496-.657-3.96 0-1.452.219-2.766.657-3.942.438-1.176 1.056-2.172 1.854-2.988.798-.816 1.761-1.446 2.889-1.89 1.128-.444 2.382-.666 3.762-.666zm0 15.606c1.536 0 2.673-.516 3.411-1.548s1.107-2.544 1.107-4.536c0-1.992-.369-3.51-1.107-4.554-.738-1.044-1.875-1.566-3.411-1.566-1.56 0-2.715.525-3.465 1.575-.75 1.05-1.125 2.565-1.125 4.545s.375 3.489 1.125 4.527c.75 1.038 1.905 1.557 3.465 1.557zm38.88-15.318L80.73 380.82h-3.564c-.408 0-.69-.264-.846-.792l-3.312-10.674c-.108-.36-.207-.717-.297-1.071s-.165-.711-.225-1.071c-.072.36-.153.723-.243 1.089s-.189.729-.297 1.089l-3.366 10.638c-.144.528-.462.792-.954.792h-3.42l-5.85-18.468h3.546c.324 0 .6.078.828.234.228.156.378.354.45.594l2.646 9.864c.132.54.249 1.068.351 1.584.102.516.189 1.032.261 1.548a49.44 49.44 0 0 1 .423-1.548c.15-.516.309-1.044.477-1.584l3.06-9.9a1.13 1.13 0 0 1 .423-.594c.21-.156.465-.234.765-.234h1.962c.312 0 .579.078.801.234.222.156.369.354.441.594l2.97 9.9c.156.54.303 1.071.441 1.593s.273 1.041.405 1.557c.156-1.02.378-2.07.666-3.15l2.718-9.864c.084-.24.234-.438.45-.594.216-.156.474-.234.774-.234h3.384zm7.02-8.28v26.748h-4.446v-26.748h4.446zm16.344 15.39a5.35 5.35 0 0 0-.243-1.629 3.872 3.872 0 0 0-.729-1.341 3.39 3.39 0 0 0-1.233-.909c-.498-.222-1.077-.333-1.737-.333-1.284 0-2.295.366-3.033 1.098-.738.732-1.209 1.77-1.413 3.114h8.388zm-8.478 2.682c.072.948.24 1.767.504 2.457s.612 1.26 1.044 1.71c.432.45.945.786 1.539 1.008a5.591 5.591 0 0 0 1.971.333c.72 0 1.341-.084 1.863-.252a8.735 8.735 0 0 0 1.368-.558c.39-.204.732-.39 1.026-.558.294-.168.579-.252.855-.252.372 0 .648.138.828.414l1.278 1.62a7.41 7.41 0 0 1-1.656 1.449 9.287 9.287 0 0 1-1.917.936c-.666.234-1.344.399-2.034.495-.69.096-1.359.144-2.007.144-1.284 0-2.478-.213-3.582-.639a8.018 8.018 0 0 1-2.88-1.89c-.816-.834-1.458-1.866-1.926-3.096-.468-1.23-.702-2.655-.702-4.275 0-1.26.204-2.445.612-3.555a8.548 8.548 0 0 1 1.755-2.898c.762-.822 1.692-1.473 2.79-1.953s2.337-.72 3.717-.72c1.164 0 2.238.186 3.222.558a7.02 7.02 0 0 1 2.538 1.629c.708.714 1.263 1.59 1.665 2.628.402 1.038.603 2.223.603 3.555 0 .672-.072 1.125-.216 1.359-.144.234-.42.351-.828.351h-11.43zm27.396-5.076c-.504-.612-1.053-1.044-1.647-1.296a4.857 4.857 0 0 0-1.917-.378c-.672 0-1.278.126-1.818.378a3.661 3.661 0 0 0-1.386 1.143c-.384.51-.678 1.158-.882 1.944-.204.786-.306 1.713-.306 2.781 0 1.08.087 1.995.261 2.745.174.75.423 1.362.747 1.836s.72.816 1.188 1.026c.468.21.99.315 1.566.315.924 0 1.71-.192 2.358-.576.648-.384 1.26-.93 1.836-1.638v-8.28zm4.446-12.996v26.748h-2.718c-.588 0-.96-.27-1.116-.81l-.378-1.782a9.322 9.322 0 0 1-2.565 2.07c-.966.528-2.091.792-3.375.792-1.008 0-1.932-.21-2.772-.63-.84-.42-1.563-1.029-2.169-1.827-.606-.798-1.074-1.785-1.404-2.961-.33-1.176-.495-2.52-.495-4.032 0-1.368.186-2.64.558-3.816.372-1.176.906-2.196 1.602-3.06a7.475 7.475 0 0 1 2.502-2.025c.972-.486 2.064-.729 3.276-.729 1.032 0 1.914.162 2.646.486a6.78 6.78 0 0 1 1.962 1.314v-9.738h4.446zm11.142 17.064c.552 0 1.032-.075 1.44-.225.408-.15.747-.357 1.017-.621.27-.264.474-.582.612-.954s.207-.78.207-1.224c0-.912-.273-1.635-.819-2.169-.546-.534-1.365-.801-2.457-.801-1.092 0-1.911.267-2.457.801-.546.534-.819 1.257-.819 2.169 0 .432.069.834.207 1.206.138.372.342.693.612.963.27.27.612.48 1.026.63.414.15.891.225 1.431.225zm5.022 10.512c0-.36-.108-.654-.324-.882-.216-.228-.51-.405-.882-.531a6.524 6.524 0 0 0-1.305-.279 24.067 24.067 0 0 0-1.584-.135 129.87 129.87 0 0 0-1.728-.081 20.133 20.133 0 0 1-1.737-.144c-.492.276-.891.6-1.197.972a1.98 1.98 0 0 0-.459 1.296c0 .324.081.627.243.909.162.282.42.525.774.729.354.204.813.363 1.377.477.564.114 1.254.171 2.07.171.828 0 1.542-.063 2.142-.189.6-.126 1.095-.3 1.485-.522.39-.222.675-.486.855-.792.18-.306.27-.639.27-.999zm4.428-18.666v1.656c0 .528-.318.852-.954.972l-1.656.306a5.62 5.62 0 0 1 .378 2.088c0 .912-.183 1.737-.549 2.475a5.503 5.503 0 0 1-1.521 1.881c-.648.516-1.413.915-2.295 1.197a9.318 9.318 0 0 1-2.853.423 9.8 9.8 0 0 1-1.044-.054 13.099 13.099 0 0 1-.99-.144c-.576.348-.864.738-.864 1.17 0 .372.171.645.513.819.342.174.795.297 1.359.369.564.072 1.206.117 1.926.135.72.018 1.458.057 2.214.117.756.06 1.494.165 2.214.315s1.362.387 1.926.711a3.778 3.778 0 0 1 1.359 1.323c.342.558.513 1.275.513 2.151 0 .816-.201 1.608-.603 2.376-.402.768-.984 1.452-1.746 2.052-.762.6-1.698 1.083-2.808 1.449-1.11.366-2.373.549-3.789.549-1.392 0-2.604-.135-3.636-.405s-1.89-.63-2.574-1.08c-.684-.45-1.194-.969-1.53-1.557a3.65 3.65 0 0 1-.504-1.836c0-.864.261-1.587.783-2.169.522-.582 1.239-1.047 2.151-1.395a3.1 3.1 0 0 1-1.17-1.008c-.288-.42-.432-.972-.432-1.656 0-.276.051-.561.153-.855.102-.294.252-.585.45-.873a4.3 4.3 0 0 1 .747-.819c.3-.258.654-.489 1.062-.693-.936-.504-1.671-1.176-2.205-2.016-.534-.84-.801-1.824-.801-2.952 0-.912.183-1.737.549-2.475a5.546 5.546 0 0 1 1.53-1.89c.654-.522 1.428-.921 2.322-1.197.894-.276 1.869-.414 2.925-.414.792 0 1.536.081 2.232.243a7.605 7.605 0 0 1 1.908.711h5.31zm14.706 6.48a5.35 5.35 0 0 0-.243-1.629 3.872 3.872 0 0 0-.729-1.341 3.39 3.39 0 0 0-1.233-.909c-.498-.222-1.077-.333-1.737-.333-1.284 0-2.295.366-3.033 1.098-.738.732-1.209 1.77-1.413 3.114h8.388zm-8.478 2.682c.072.948.24 1.767.504 2.457s.612 1.26 1.044 1.71c.432.45.945.786 1.539 1.008a5.591 5.591 0 0 0 1.971.333c.72 0 1.341-.084 1.863-.252a8.735 8.735 0 0 0 1.368-.558c.39-.204.732-.39 1.026-.558.294-.168.579-.252.855-.252.372 0 .648.138.828.414l1.278 1.62a7.41 7.41 0 0 1-1.656 1.449 9.287 9.287 0 0 1-1.917.936c-.666.234-1.344.399-2.034.495-.69.096-1.359.144-2.007.144-1.284 0-2.478-.213-3.582-.639a8.018 8.018 0 0 1-2.88-1.89c-.816-.834-1.458-1.866-1.926-3.096-.468-1.23-.702-2.655-.702-4.275 0-1.26.204-2.445.612-3.555a8.548 8.548 0 0 1 1.755-2.898c.762-.822 1.692-1.473 2.79-1.953s2.337-.72 3.717-.72c1.164 0 2.238.186 3.222.558a7.02 7.02 0 0 1 2.538 1.629c.708.714 1.263 1.59 1.665 2.628.402 1.038.603 2.223.603 3.555 0 .672-.072 1.125-.216 1.359-.144.234-.42.351-.828.351h-11.43zm34.308.792c-1.284.06-2.364.171-3.24.333-.876.162-1.578.369-2.106.621-.528.252-.906.546-1.134.882a1.916 1.916 0 0 0-.342 1.098c0 .78.231 1.338.693 1.674.462.336 1.065.504 1.809.504.912 0 1.701-.165 2.367-.495.666-.33 1.317-.831 1.953-1.503v-3.114zm-10.188-8.01c2.124-1.944 4.68-2.916 7.668-2.916 1.08 0 2.046.177 2.898.531a6.123 6.123 0 0 1 2.16 1.476 6.317 6.317 0 0 1 1.341 2.259c.306.876.459 1.836.459 2.88v11.664h-2.016c-.42 0-.744-.063-.972-.189-.228-.126-.408-.381-.54-.765l-.396-1.332c-.468.42-.924.789-1.368 1.107a8.053 8.053 0 0 1-1.386.801c-.48.216-.993.381-1.539.495a8.867 8.867 0 0 1-1.809.171c-.78 0-1.5-.105-2.16-.315a4.746 4.746 0 0 1-1.71-.945 4.242 4.242 0 0 1-1.116-1.566c-.264-.624-.396-1.35-.396-2.178 0-.468.078-.933.234-1.395.156-.462.411-.903.765-1.323.354-.42.813-.816 1.377-1.188.564-.372 1.257-.696 2.079-.972.822-.276 1.779-.501 2.871-.675 1.092-.174 2.34-.279 3.744-.315v-1.08c0-1.236-.264-2.151-.792-2.745-.528-.594-1.29-.891-2.286-.891-.72 0-1.317.084-1.791.252a7.37 7.37 0 0 0-1.251.567c-.36.21-.687.399-.981.567a1.942 1.942 0 0 1-.981.252c-.312 0-.576-.081-.792-.243a2.03 2.03 0 0 1-.522-.567l-.792-1.422zm31.932 1.332c-.132.168-.261.3-.387.396-.126.096-.309.144-.549.144-.228 0-.45-.069-.666-.207a21.426 21.426 0 0 0-.774-.468c-.3-.174-.657-.33-1.071-.468-.414-.138-.927-.207-1.539-.207-.78 0-1.464.141-2.052.423a3.89 3.89 0 0 0-1.467 1.215c-.39.528-.681 1.167-.873 1.917-.192.75-.288 1.599-.288 2.547 0 .984.105 1.86.315 2.628.21.768.513 1.413.909 1.935s.876.918 1.44 1.188c.564.27 1.2.405 1.908.405s1.281-.087 1.719-.261a5.424 5.424 0 0 0 1.107-.576c.3-.21.561-.402.783-.576a1.18 1.18 0 0 1 .747-.261c.36 0 .63.138.81.414l1.278 1.62a8.038 8.038 0 0 1-1.602 1.449 8.66 8.66 0 0 1-1.791.936 9.108 9.108 0 0 1-1.908.495c-.654.096-1.305.144-1.953.144a8.19 8.19 0 0 1-3.222-.639 7.61 7.61 0 0 1-2.646-1.863c-.756-.816-1.353-1.815-1.791-2.997-.438-1.182-.657-2.529-.657-4.041 0-1.356.195-2.613.585-3.771.39-1.158.963-2.16 1.719-3.006.756-.846 1.692-1.509 2.808-1.989 1.116-.48 2.4-.72 3.852-.72 1.38 0 2.589.222 3.627.666a8.862 8.862 0 0 1 2.799 1.908l-1.17 1.62zm17.352 0c-.132.168-.261.3-.387.396-.126.096-.309.144-.549.144-.228 0-.45-.069-.666-.207a21.427 21.427 0 0 0-.774-.468c-.3-.174-.657-.33-1.071-.468-.414-.138-.927-.207-1.539-.207-.78 0-1.464.141-2.052.423a3.89 3.89 0 0 0-1.467 1.215c-.39.528-.681 1.167-.873 1.917-.192.75-.288 1.599-.288 2.547 0 .984.105 1.86.315 2.628.21.768.513 1.413.909 1.935s.876.918 1.44 1.188c.564.27 1.2.405 1.908.405s1.281-.087 1.719-.261a5.424 5.424 0 0 0 1.107-.576c.3-.21.561-.402.783-.576a1.18 1.18 0 0 1 .747-.261c.36 0 .63.138.81.414l1.278 1.62a8.038 8.038 0 0 1-1.602 1.449 8.66 8.66 0 0 1-1.791.936 9.108 9.108 0 0 1-1.908.495c-.654.096-1.305.144-1.953.144a8.19 8.19 0 0 1-3.222-.639 7.61 7.61 0 0 1-2.646-1.863c-.756-.816-1.353-1.815-1.791-2.997-.438-1.182-.657-2.529-.657-4.041 0-1.356.195-2.613.585-3.771.39-1.158.963-2.16 1.719-3.006.756-.846 1.692-1.509 2.808-1.989 1.116-.48 2.4-.72 3.852-.72 1.38 0 2.589.222 3.627.666a8.862 8.862 0 0 1 2.799 1.908l-1.17 1.62zm16.02 3.204a5.35 5.35 0 0 0-.243-1.629 3.872 3.872 0 0 0-.729-1.341 3.39 3.39 0 0 0-1.233-.909c-.498-.222-1.077-.333-1.737-.333-1.284 0-2.295.366-3.033 1.098-.738.732-1.209 1.77-1.413 3.114h8.388zm-8.478 2.682c.072.948.24 1.767.504 2.457s.612 1.26 1.044 1.71c.432.45.945.786 1.539 1.008a5.591 5.591 0 0 0 1.971.333c.72 0 1.341-.084 1.863-.252a8.735 8.735 0 0 0 1.368-.558c.39-.204.732-.39 1.026-.558.294-.168.579-.252.855-.252.372 0 .648.138.828.414l1.278 1.62a7.41 7.41 0 0 1-1.656 1.449 9.287 9.287 0 0 1-1.917.936c-.666.234-1.344.399-2.034.495-.69.096-1.359.144-2.007.144-1.284 0-2.478-.213-3.582-.639a8.018 8.018 0 0 1-2.88-1.89c-.816-.834-1.458-1.866-1.926-3.096-.468-1.23-.702-2.655-.702-4.275 0-1.26.204-2.445.612-3.555a8.548 8.548 0 0 1 1.755-2.898c.762-.822 1.692-1.473 2.79-1.953s2.337-.72 3.717-.72c1.164 0 2.238.186 3.222.558a7.02 7.02 0 0 1 2.538 1.629c.708.714 1.263 1.59 1.665 2.628.402 1.038.603 2.223.603 3.555 0 .672-.072 1.125-.216 1.359-.144.234-.42.351-.828.351h-11.43zm27.072-6.192c-.12.192-.246.327-.378.405a.98.98 0 0 1-.504.117c-.216 0-.447-.06-.693-.18a47.31 47.31 0 0 0-.855-.405 7.831 7.831 0 0 0-1.107-.405c-.414-.12-.903-.18-1.467-.18-.876 0-1.563.186-2.061.558-.498.372-.747.858-.747 1.458 0 .396.129.729.387.999s.6.507 1.026.711c.426.204.909.387 1.449.549.54.162 1.089.339 1.647.531s1.107.411 1.647.657c.54.246 1.023.558 1.449.936.426.378.768.831 1.026 1.359s.387 1.164.387 1.908a6.23 6.23 0 0 1-.477 2.457 5.308 5.308 0 0 1-1.413 1.944c-.624.546-1.395.972-2.313 1.278-.918.306-1.977.459-3.177.459-.636 0-1.257-.057-1.863-.171a10.996 10.996 0 0 1-1.746-.477 9.662 9.662 0 0 1-1.548-.72 7.513 7.513 0 0 1-1.251-.9l1.026-1.692c.132-.204.288-.36.468-.468.18-.108.408-.162.684-.162.276 0 .537.078.783.234.246.156.531.324.855.504.324.18.705.348 1.143.504.438.156.993.234 1.665.234.528 0 .981-.063 1.359-.189s.69-.291.936-.495c.246-.204.426-.441.54-.711.114-.27.171-.549.171-.837 0-.432-.129-.786-.387-1.062s-.6-.516-1.026-.72a9.91 9.91 0 0 0-1.458-.549 48.173 48.173 0 0 1-1.674-.531 15.486 15.486 0 0 1-1.674-.675 5.705 5.705 0 0 1-1.458-.981 4.44 4.44 0 0 1-1.026-1.458c-.258-.576-.387-1.272-.387-2.088 0-.756.15-1.476.45-2.16.3-.684.741-1.281 1.323-1.791s1.308-.918 2.178-1.224c.87-.306 1.875-.459 3.015-.459 1.272 0 2.43.21 3.474.63 1.044.42 1.914.972 2.61 1.656l-1.008 1.602zm15.822 0c-.12.192-.246.327-.378.405a.98.98 0 0 1-.504.117c-.216 0-.447-.06-.693-.18a47.31 47.31 0 0 0-.855-.405 7.831 7.831 0 0 0-1.107-.405c-.414-.12-.903-.18-1.467-.18-.876 0-1.563.186-2.061.558-.498.372-.747.858-.747 1.458 0 .396.129.729.387.999s.6.507 1.026.711c.426.204.909.387 1.449.549.54.162 1.089.339 1.647.531s1.107.411 1.647.657c.54.246 1.023.558 1.449.936.426.378.768.831 1.026 1.359s.387 1.164.387 1.908a6.23 6.23 0 0 1-.477 2.457 5.308 5.308 0 0 1-1.413 1.944c-.624.546-1.395.972-2.313 1.278-.918.306-1.977.459-3.177.459-.636 0-1.257-.057-1.863-.171a10.996 10.996 0 0 1-1.746-.477 9.662 9.662 0 0 1-1.548-.72 7.513 7.513 0 0 1-1.251-.9l1.026-1.692c.132-.204.288-.36.468-.468.18-.108.408-.162.684-.162.276 0 .537.078.783.234.246.156.531.324.855.504.324.18.705.348 1.143.504.438.156.993.234 1.665.234.528 0 .981-.063 1.359-.189s.69-.291.936-.495c.246-.204.426-.441.54-.711.114-.27.171-.549.171-.837 0-.432-.129-.786-.387-1.062s-.6-.516-1.026-.72a9.91 9.91 0 0 0-1.458-.549 48.173 48.173 0 0 1-1.674-.531 15.486 15.486 0 0 1-1.674-.675 5.705 5.705 0 0 1-1.458-.981 4.44 4.44 0 0 1-1.026-1.458c-.258-.576-.387-1.272-.387-2.088 0-.756.15-1.476.45-2.16.3-.684.741-1.281 1.323-1.791s1.308-.918 2.178-1.224c.87-.306 1.875-.459 3.015-.459 1.272 0 2.43.21 3.474.63 1.044.42 1.914.972 2.61 1.656l-1.008 1.602zm9.162-3.6v18.468h-4.464v-18.468h4.464zm.612-5.382c0 .384-.078.744-.234 1.08-.156.336-.363.63-.621.882a2.968 2.968 0 0 1-.909.603c-.348.15-.72.225-1.116.225-.384 0-.747-.075-1.089-.225a2.885 2.885 0 0 1-.891-.603 2.916 2.916 0 0 1-.603-.882 2.619 2.619 0 0 1-.225-1.08 2.856 2.856 0 0 1 .828-2.016c.252-.252.549-.453.891-.603.342-.15.705-.225 1.089-.225.396 0 .768.075 1.116.225.348.15.651.351.909.603s.465.552.621.9c.156.348.234.72.234 1.116zm8.37 19.062c.504.612 1.053 1.044 1.647 1.296a4.767 4.767 0 0 0 1.881.378c.684 0 1.299-.123 1.845-.369a3.51 3.51 0 0 0 1.395-1.152c.384-.522.678-1.188.882-1.998.204-.81.306-1.779.306-2.907 0-2.028-.336-3.495-1.008-4.401-.672-.906-1.638-1.359-2.898-1.359-.852 0-1.596.195-2.232.585-.636.39-1.242.939-1.818 1.647v8.28zm0-11.412a9.164 9.164 0 0 1 2.475-1.863c.906-.462 1.941-.693 3.105-.693 1.068 0 2.031.21 2.889.63a6.177 6.177 0 0 1 2.196 1.809c.606.786 1.071 1.737 1.395 2.853.324 1.116.486 2.37.486 3.762 0 1.5-.186 2.862-.558 4.086-.372 1.224-.903 2.271-1.593 3.141a7.246 7.246 0 0 1-2.493 2.025c-.972.48-2.052.72-3.24.72a6.625 6.625 0 0 1-1.566-.171 5.833 5.833 0 0 1-1.296-.477 5.232 5.232 0 0 1-1.089-.747 9.187 9.187 0 0 1-.945-.981l-.198 1.242c-.072.312-.195.534-.369.666s-.411.198-.711.198h-2.934v-26.748h4.446v10.548zm20.484-10.548v26.748h-4.446v-26.748h4.446zm16.344 15.39a5.35 5.35 0 0 0-.243-1.629 3.872 3.872 0 0 0-.729-1.341 3.39 3.39 0 0 0-1.233-.909c-.498-.222-1.077-.333-1.737-.333-1.284 0-2.295.366-3.033 1.098-.738.732-1.209 1.77-1.413 3.114h8.388zm-8.478 2.682c.072.948.24 1.767.504 2.457s.612 1.26 1.044 1.71c.432.45.945.786 1.539 1.008a5.591 5.591 0 0 0 1.971.333c.72 0 1.341-.084 1.863-.252a8.735 8.735 0 0 0 1.368-.558c.39-.204.732-.39 1.026-.558.294-.168.579-.252.855-.252.372 0 .648.138.828.414l1.278 1.62a7.41 7.41 0 0 1-1.656 1.449 9.287 9.287 0 0 1-1.917.936c-.666.234-1.344.399-2.034.495-.69.096-1.359.144-2.007.144-1.284 0-2.478-.213-3.582-.639a8.018 8.018 0 0 1-2.88-1.89c-.816-.834-1.458-1.866-1.926-3.096-.468-1.23-.702-2.655-.702-4.275 0-1.26.204-2.445.612-3.555a8.548 8.548 0 0 1 1.755-2.898c.762-.822 1.692-1.473 2.79-1.953s2.337-.72 3.717-.72c1.164 0 2.238.186 3.222.558a7.02 7.02 0 0 1 2.538 1.629c.708.714 1.263 1.59 1.665 2.628.402 1.038.603 2.223.603 3.555 0 .672-.072 1.125-.216 1.359-.144.234-.42.351-.828.351h-11.43zm30.708 8.964c-1.608 0-2.841-.453-3.699-1.359-.858-.906-1.287-2.157-1.287-3.753v-10.314h-1.89a.867.867 0 0 1-.612-.234c-.168-.156-.252-.39-.252-.702v-1.764l2.97-.486.936-5.04a.988.988 0 0 1 .342-.558c.168-.132.384-.198.648-.198h2.304v5.814h4.932v3.168h-4.932v10.008c0 .576.141 1.026.423 1.35.282.324.669.486 1.161.486.276 0 .507-.033.693-.099.186-.066.348-.135.486-.207.138-.072.261-.141.369-.207a.617.617 0 0 1 .324-.099c.132 0 .24.033.324.099.084.066.174.165.27.297l1.332 2.16a6.73 6.73 0 0 1-2.232 1.224c-.84.276-1.71.414-2.61.414zm15.408-19.044c1.368 0 2.613.222 3.735.666a8.183 8.183 0 0 1 2.88 1.89c.798.816 1.413 1.812 1.845 2.988.432 1.176.648 2.49.648 3.942 0 1.464-.216 2.784-.648 3.96-.432 1.176-1.047 2.178-1.845 3.006a8.064 8.064 0 0 1-2.88 1.908c-1.122.444-2.367.666-3.735.666-1.38 0-2.634-.222-3.762-.666a8.047 8.047 0 0 1-2.889-1.908c-.798-.828-1.416-1.83-1.854-3.006-.438-1.176-.657-2.496-.657-3.96 0-1.452.219-2.766.657-3.942.438-1.176 1.056-2.172 1.854-2.988.798-.816 1.761-1.446 2.889-1.89 1.128-.444 2.382-.666 3.762-.666zm0 15.606c1.536 0 2.673-.516 3.411-1.548s1.107-2.544 1.107-4.536c0-1.992-.369-3.51-1.107-4.554-.738-1.044-1.875-1.566-3.411-1.566-1.56 0-2.715.525-3.465 1.575-.75 1.05-1.125 2.565-1.125 4.545s.375 3.489 1.125 4.527c.75 1.038 1.905 1.557 3.465 1.557zm33.156-8.208a5.35 5.35 0 0 0-.243-1.629 3.872 3.872 0 0 0-.729-1.341 3.39 3.39 0 0 0-1.233-.909c-.498-.222-1.077-.333-1.737-.333-1.284 0-2.295.366-3.033 1.098-.738.732-1.209 1.77-1.413 3.114h8.388zm-8.478 2.682c.072.948.24 1.767.504 2.457s.612 1.26 1.044 1.71c.432.45.945.786 1.539 1.008a5.591 5.591 0 0 0 1.971.333c.72 0 1.341-.084 1.863-.252a8.735 8.735 0 0 0 1.368-.558c.39-.204.732-.39 1.026-.558.294-.168.579-.252.855-.252.372 0 .648.138.828.414l1.278 1.62a7.41 7.41 0 0 1-1.656 1.449 9.287 9.287 0 0 1-1.917.936c-.666.234-1.344.399-2.034.495-.69.096-1.359.144-2.007.144-1.284 0-2.478-.213-3.582-.639a8.018 8.018 0 0 1-2.88-1.89c-.816-.834-1.458-1.866-1.926-3.096-.468-1.23-.702-2.655-.702-4.275 0-1.26.204-2.445.612-3.555a8.548 8.548 0 0 1 1.755-2.898c.762-.822 1.692-1.473 2.79-1.953s2.337-.72 3.717-.72c1.164 0 2.238.186 3.222.558a7.02 7.02 0 0 1 2.538 1.629c.708.714 1.263 1.59 1.665 2.628.402 1.038.603 2.223.603 3.555 0 .672-.072 1.125-.216 1.359-.144.234-.42.351-.828.351h-11.43zm32.454-9.792l-7.326 18.468h-4.032l-7.326-18.468h3.672c.336 0 .615.078.837.234.222.156.369.354.441.594l3.564 9.864a26.538 26.538 0 0 1 .882 3.348c.12-.552.252-1.104.396-1.656.144-.552.318-1.116.522-1.692l3.636-9.864c.084-.24.234-.438.45-.594.216-.156.474-.234.774-.234h3.51zm14.256 7.11a5.35 5.35 0 0 0-.243-1.629 3.872 3.872 0 0 0-.729-1.341 3.39 3.39 0 0 0-1.233-.909c-.498-.222-1.077-.333-1.737-.333-1.284 0-2.295.366-3.033 1.098-.738.732-1.209 1.77-1.413 3.114h8.388zm-8.478 2.682c.072.948.24 1.767.504 2.457s.612 1.26 1.044 1.71c.432.45.945.786 1.539 1.008a5.591 5.591 0 0 0 1.971.333c.72 0 1.341-.084 1.863-.252a8.735 8.735 0 0 0 1.368-.558c.39-.204.732-.39 1.026-.558.294-.168.579-.252.855-.252.372 0 .648.138.828.414l1.278 1.62a7.41 7.41 0 0 1-1.656 1.449 9.287 9.287 0 0 1-1.917.936c-.666.234-1.344.399-2.034.495-.69.096-1.359.144-2.007.144-1.284 0-2.478-.213-3.582-.639a8.018 8.018 0 0 1-2.88-1.89c-.816-.834-1.458-1.866-1.926-3.096-.468-1.23-.702-2.655-.702-4.275 0-1.26.204-2.445.612-3.555a8.548 8.548 0 0 1 1.755-2.898c.762-.822 1.692-1.473 2.79-1.953s2.337-.72 3.717-.72c1.164 0 2.238.186 3.222.558a7.02 7.02 0 0 1 2.538 1.629c.708.714 1.263 1.59 1.665 2.628.402 1.038.603 2.223.603 3.555 0 .672-.072 1.125-.216 1.359-.144.234-.42.351-.828.351h-11.43zm19.998-6.588c.576-1.104 1.26-1.971 2.052-2.601.792-.63 1.728-.945 2.808-.945.852 0 1.536.186 2.052.558l-.288 3.33c-.06.216-.147.369-.261.459-.114.09-.267.135-.459.135-.18 0-.447-.03-.801-.09a6.19 6.19 0 0 0-1.035-.09c-.492 0-.93.072-1.314.216a3.305 3.305 0 0 0-1.035.621c-.306.27-.576.597-.81.981a9.572 9.572 0 0 0-.657 1.314v11.376h-4.446v-18.468h2.61c.456 0 .774.081.954.243.18.162.3.453.36.873l.27 2.088zm26.01-3.204l-10.062 23.544c-.132.312-.303.549-.513.711-.21.162-.531.243-.963.243h-3.312l3.456-7.416-7.47-17.082h3.906c.348 0 .621.084.819.252.198.168.345.36.441.576l3.924 9.576c.132.324.243.648.333.972.09.324.177.654.261.99l.324-.999c.108-.33.228-.657.36-.981l3.708-9.558a1.31 1.31 0 0 1 .477-.594c.222-.156.471-.234.747-.234h3.564zm10.386-.288c1.368 0 2.613.222 3.735.666a8.183 8.183 0 0 1 2.88 1.89c.798.816 1.413 1.812 1.845 2.988.432 1.176.648 2.49.648 3.942 0 1.464-.216 2.784-.648 3.96-.432 1.176-1.047 2.178-1.845 3.006a8.064 8.064 0 0 1-2.88 1.908c-1.122.444-2.367.666-3.735.666-1.38 0-2.634-.222-3.762-.666a8.047 8.047 0 0 1-2.889-1.908c-.798-.828-1.416-1.83-1.854-3.006-.438-1.176-.657-2.496-.657-3.96 0-1.452.219-2.766.657-3.942.438-1.176 1.056-2.172 1.854-2.988.798-.816 1.761-1.446 2.889-1.89 1.128-.444 2.382-.666 3.762-.666zm0 15.606c1.536 0 2.673-.516 3.411-1.548s1.107-2.544 1.107-4.536c0-1.992-.369-3.51-1.107-4.554-.738-1.044-1.875-1.566-3.411-1.566-1.56 0-2.715.525-3.465 1.575-.75 1.05-1.125 2.565-1.125 4.545s.375 3.489 1.125 4.527c.75 1.038 1.905 1.557 3.465 1.557zm16.668-13.05c.372-.372.765-.717 1.179-1.035a7.449 7.449 0 0 1 1.314-.81 7.364 7.364 0 0 1 1.485-.522 7.44 7.44 0 0 1 1.728-.189c1.008 0 1.902.171 2.682.513a5.3 5.3 0 0 1 1.953 1.44c.522.618.918 1.356 1.188 2.214.27.858.405 1.803.405 2.835v11.754h-4.446v-11.754c0-1.128-.258-2.001-.774-2.619-.516-.618-1.302-.927-2.358-.927a4.63 4.63 0 0 0-2.16.522 7.741 7.741 0 0 0-1.908 1.422v13.356h-4.446v-18.468h2.718c.576 0 .954.27 1.134.81l.306 1.458zm28.044 4.842a5.35 5.35 0 0 0-.243-1.629 3.872 3.872 0 0 0-.729-1.341 3.39 3.39 0 0 0-1.233-.909c-.498-.222-1.077-.333-1.737-.333-1.284 0-2.295.366-3.033 1.098-.738.732-1.209 1.77-1.413 3.114h8.388zm-8.478 2.682c.072.948.24 1.767.504 2.457s.612 1.26 1.044 1.71c.432.45.945.786 1.539 1.008a5.591 5.591 0 0 0 1.971.333c.72 0 1.341-.084 1.863-.252a8.735 8.735 0 0 0 1.368-.558c.39-.204.732-.39 1.026-.558.294-.168.579-.252.855-.252.372 0 .648.138.828.414l1.278 1.62a7.41 7.41 0 0 1-1.656 1.449 9.287 9.287 0 0 1-1.917.936c-.666.234-1.344.399-2.034.495-.69.096-1.359.144-2.007.144-1.284 0-2.478-.213-3.582-.639a8.018 8.018 0 0 1-2.88-1.89c-.816-.834-1.458-1.866-1.926-3.096-.468-1.23-.702-2.655-.702-4.275 0-1.26.204-2.445.612-3.555a8.548 8.548 0 0 1 1.755-2.898c.762-.822 1.692-1.473 2.79-1.953s2.337-.72 3.717-.72c1.164 0 2.238.186 3.222.558a7.02 7.02 0 0 1 2.538 1.629c.708.714 1.263 1.59 1.665 2.628.402 1.038.603 2.223.603 3.555 0 .672-.072 1.125-.216 1.359-.144.234-.42.351-.828.351h-11.43z" fill="#3A3A3A" fill-rule="nonzero"/></g></svg>