<svg xmlns="http://www.w3.org/2000/svg" viewBox="0 0 170 170.15"><defs><style>.cls-1{fill:none}.cls-2{fill:#29a69c}.cls-3{fill:#27a096}.cls-4{clip-path:url(#clip-path)}.cls-5{fill:#482b1b}.cls-6{fill:#eac8ad}.cls-7{fill:#f2d7bc}.cls-8{fill:#eac0a7}.cls-9{fill:#fff}.cls-10{fill:#faa21c}.cls-11{fill:#f68e1f}.cls-12{fill:#39b54a}</style><clipPath id="clip-path"><circle class="cls-1" cx="85" cy="85" r="85"/></clipPath></defs><title>F01</title><g id="Layer_2" data-name="Layer 2"><g id="Objects"><g id="women_1" data-name="women 1"><circle class="cls-2" cx="85" cy="85" r="85"/><path class="cls-3" d="M170 85A85 85 0 0 0 85 0v170a85 85 0 0 0 85-85z"/><g class="cls-4" id="women_1-2" data-name="women 1"><circle class="cls-5" cx="85" cy="55.13" r="37.2"/><path class="cls-6" d="M97.45 134.79l-12.6 35.36-12.29-35.36V107.5h24.89v27.29z"/><path class="cls-7" d="M85 31.85c-12.09 0-31.2 6.87-31.2 39.07 0 18.59 7.25 27.35 9.89 30.72 2.43 3.1 14.9 13.12 21.31 13.12z"/><path class="cls-7" d="M47.79 78.6c-.53-5.14 1.92-9.71 5.47-10.2s6.87 3.29 7.4 8.43-1.91 9.71-5.47 10.17-6.87-3.26-7.4-8.4z"/><path class="cls-8" d="M84.9 31.85c12.09 0 31.2 6.87 31.2 39.07 0 18.59-7.25 27.35-9.89 30.72-2.43 3.1-14.9 13.12-21.31 13.12z"/><path class="cls-8" d="M122.21 78.6c.53-5.14-1.92-9.71-5.47-10.2s-6.87 3.29-7.4 8.43 1.92 9.71 5.47 10.2 6.87-3.29 7.4-8.43z"/><path class="cls-6" d="M84.85 170.15v-34s-9.29-2.3-11.33-9.82a26.54 26.54 0 0 1-1-6.52s-20.31 6.86-24.84 13.94c-3.77 11.23-4.81 36.4-4.81 36.4zM84.85 170.15v-34s9.29-2.3 11.33-9.82a26.56 26.56 0 0 0 1-6.52s20.31 6.86 24.84 13.94c3.77 11.23 4.81 36.4 4.81 36.4z"/><path class="cls-6" d="M84.85 170.15v-34s-9.29-2.3-11.33-9.82a26.54 26.54 0 0 1-1-6.52s-20.31 6.86-24.84 13.94c-3.77 11.23-4.81 36.4-4.81 36.4zM84.85 170.15v-34s9.29-2.3 11.33-9.82a26.56 26.56 0 0 0 1-6.52s20.31 6.86 24.84 13.94c3.77 11.23 4.81 36.4 4.81 36.4z"/><path class="cls-9" d="M85 103.42c4.71 0 8.53-2.89 8.53-6.46H76.47c0 3.57 3.82 6.46 8.53 6.46z"/><path class="cls-5" d="M83.24 22.59c-22.08 0-28.8 19.35-28.8 28.26-8 11.13.72 21.09 6.9 24.59V70c0-7.2 6.85-13.87 17.13-12.76 9.21 1 15-4.21 19.92-13.07 6.06-11.89-1.5-21.58-15.15-21.58z"/><path class="cls-5" d="M97.45 40.5s5.16 20.95 19.29 27.9c2.52-18.83 4-14.87 0-24.78S97.45 26.33 97.45 26.33z"/><path class="cls-10" d="M122 133.75c-3.78-5.91-18.53-11.66-23.32-13.4a13.82 13.82 0 0 1-27.62 0c-4.79 1.75-19.54 7.49-23.32 13.4-3.77 11.23-4.81 36.4-4.81 36.4h83.87s-1.06-25.15-4.8-36.4z"/><path class="cls-11" d="M126.78 170.15s-1-25.17-4.81-36.4c-3.78-5.91-18.53-11.66-23.32-13.4a13.82 13.82 0 0 1-13.81 13.28v36.52z"/><path class="cls-12" d="M66.48 122.11a18.59 18.59 0 0 0 36.73 0c-1.87-.76-3.47-1.37-4.55-1.76a13.82 13.82 0 0 1-27.62 0c-1.04.4-2.69 1-4.56 1.76z"/><circle class="cls-5" cx="85" cy="17.93" r="12.45"/></g></g></g></g></svg>