<svg xmlns="http://www.w3.org/2000/svg" viewBox="0 0 170 170.15"><defs><style>.cls-1{fill:none}.cls-2{fill:#6c9625}.cls-3{fill:#678e23}.cls-4{clip-path:url(#clip-path)}.cls-5{fill:#461811}.cls-6{fill:#eac8ad}.cls-7{fill:#f2d7bc}.cls-8{fill:#eac0a7}.cls-9{fill:#fff}.cls-10{fill:#71b6e7}.cls-11{fill:#5eacdd}</style><clipPath id="clip-path"><circle class="cls-1" cx="85" cy="85" r="85"/></clipPath></defs><title>F02</title><g id="Layer_2" data-name="Layer 2"><g id="Objects"><g id="women_2" data-name="women 2"><circle class="cls-2" cx="85" cy="85" r="85"/><path class="cls-3" d="M170 85A85 85 0 0 0 85 0v170a85 85 0 0 0 85-85z"/><g class="cls-4"><path class="cls-5" d="M121.47 87.79c0 20.14-16.33 9.69-36.47 9.69s-36.47 10.45-36.47-9.69v-33A36.47 36.47 0 0 1 85 18.35a36.47 36.47 0 0 1 36.47 36.47z"/><circle class="cls-5" cx="85.16" cy="55.13" r="37.2"/><path class="cls-6" d="M97.6 134.79L85 170.15l-12.29-35.36V107.5H97.6v27.29z"/><path class="cls-7" d="M85.16 31.85C73.07 31.85 54 38.72 54 70.92c0 18.59 7.25 27.35 9.89 30.72 2.43 3.1 14.9 13.12 21.31 13.12z"/><path class="cls-7" d="M47.95 78.6c-.53-5.14 1.92-9.71 5.47-10.2s6.87 3.29 7.41 8.43-1.92 9.71-5.48 10.17-6.87-3.26-7.4-8.4z"/><path class="cls-8" d="M85.06 31.85c12.09 0 31.2 6.87 31.2 39.07 0 18.59-7.24 27.35-9.89 30.72-2.43 3.1-14.9 13.12-21.31 13.12z"/><path class="cls-8" d="M122.37 78.6c.53-5.14-1.92-9.71-5.47-10.2s-6.87 3.29-7.4 8.43 1.91 9.71 5.5 10.17 6.84-3.26 7.37-8.4z"/><path class="cls-6" d="M85 170.15v-34s-9.29-2.3-11.33-9.82a26.58 26.58 0 0 1-1-6.52s-20.3 6.86-24.84 13.94c-3.77 11.23-4.81 36.4-4.81 36.4zM85 170.15v-34s9.29-2.3 11.33-9.82a26.61 26.61 0 0 0 1-6.52s20.3 6.86 24.84 13.94c3.77 11.23 4.81 36.4 4.81 36.4z"/><path class="cls-9" d="M85.16 103.42c4.71 0 8.53-2.89 8.53-6.46H76.63c0 3.57 3.82 6.46 8.53 6.46z"/><path class="cls-5" d="M83.4 22.59c-22.08 0-28.8 19.35-28.8 28.26-8 11.13.72 21.09 6.9 24.59V70c0-7.2 6.84-13.87 17.13-12.76 9.21 1 15-4.21 19.92-13.07C104.6 32.28 97 22.59 83.4 22.59z"/><path class="cls-5" d="M97.6 40.5s5.16 20.95 19.29 27.9c2.52-18.83 4-14.87 0-24.78S97.6 26.33 97.6 26.33z"/><path class="cls-10" d="M85 170.15v-28.6l-12.29-21.74s-20.3 6.86-24.84 13.94c-3.77 11.23-4.81 36.4-4.81 36.4z"/><path class="cls-11" d="M85 170.15v-28.6l12.29-21.74s20.3 6.86 24.84 13.94c3.77 11.23 4.81 36.4 4.81 36.4z"/><path class="cls-9" d="M85 141.56l-12.29-21.75-11.29 3.61 9.61 21.56L85 141.56zM85 141.56l12.29-21.75 11.29 3.61-9.61 21.56L85 141.56z"/></g></g></g></g></svg>