<svg xmlns="http://www.w3.org/2000/svg" viewBox="0 0 170 170.15"><defs><style>.cls-1{fill:none}.cls-2{fill:#b5332b}.cls-3{fill:#a22d26}.cls-4{clip-path:url(#clip-path)}.cls-5{fill:#870b16}.cls-6{fill:#eac8ad}.cls-7{fill:#f2d7bc}.cls-8{fill:#eac0a7}.cls-9{fill:#fff200}.cls-10{fill:#f8a41d}.cls-11{fill:#f98e1c}.cls-12{fill:#fff}</style><clipPath id="clip-path"><circle class="cls-1" cx="85" cy="85" r="85"/></clipPath></defs><title>F03</title><g id="Layer_2" data-name="Layer 2"><g id="Objects"><g id="women_6" data-name="women 6"><circle class="cls-2" cx="85" cy="85" r="85"/><path class="cls-3" d="M170 85A85 85 0 0 0 85 0v170a85 85 0 0 0 85-85z"/><g class="cls-4"><path class="cls-5" d="M85.16 147.52H54.75s-14-13.57-7-33.69S60.83 85.76 61.3 64.24h23.86z"/><path class="cls-5" d="M84.37 147.52h30.41s14-13.57 7-33.69-13.1-28.07-13.57-49.59H84.37z"/><circle class="cls-5" cx="85.16" cy="55.13" r="37.2"/><path class="cls-6" d="M97.6 134.79L85 170.15l-12.29-35.36V107.5H97.6v27.29z"/><path class="cls-7" d="M85.16 31.85C73.07 31.85 54 38.72 54 70.92c0 18.59 7.25 27.35 9.89 30.72 2.43 3.1 14.9 13.12 21.31 13.12z"/><path class="cls-7" d="M47.95 78.6c-.53-5.14 1.92-9.71 5.47-10.2s6.87 3.29 7.41 8.43-1.92 9.71-5.48 10.17-6.87-3.26-7.4-8.4z"/><path class="cls-8" d="M85.06 31.85c12.09 0 31.2 6.87 31.2 39.07 0 18.59-7.25 27.35-9.89 30.72-2.43 3.1-14.9 13.12-21.31 13.12z"/><path class="cls-8" d="M122.37 78.6c.53-5.14-1.92-9.71-5.47-10.2s-6.87 3.29-7.4 8.43 1.91 9.71 5.5 10.17 6.84-3.26 7.37-8.4z"/><path class="cls-5" d="M84.75 24.06a15.39 15.39 0 0 0-1.83-.13S62.5 25.45 56.82 52c-2.73 2-7.73 10-1.14 18.86.91-7.5 3.66-12.93 8.41-15 8.43-3.67 11.9-.26 21.68-7.76 5.7-4.33 7.75-13.1 6.49-18.1a9 9 0 0 0-7.51-5.94z"/><path class="cls-5" d="M91 31.44s-7.36 27.45 24.77 38.95c7.67-25.13-6.39-41.52-24.77-38.95z"/><path class="cls-9" transform="rotate(-45.01 54.374 85.916)" d="M52.97 84.5h2.83v2.83h-2.83z"/><path class="cls-9" transform="rotate(-45.01 116.349 85.916)" d="M114.94 84.5h2.83v2.83h-2.83z"/><path class="cls-10" d="M85 170.15v-34s-9.29-2.3-11.33-9.82a26.57 26.57 0 0 1-1-6.52s-20.31 6.86-24.84 13.94c-3.77 11.23-4.81 36.4-4.81 36.4z"/><path class="cls-11" d="M85 170.15v-34s9.29-2.3 11.33-9.82a26.56 26.56 0 0 0 1-6.52s20.31 6.86 24.84 13.94c3.77 11.23 4.81 36.4 4.81 36.4z"/><path class="cls-12" d="M85.16 103.42c4.71 0 8.53-2.89 8.53-6.46H76.63c0 3.57 3.82 6.46 8.53 6.46z"/></g></g></g></g></svg>