<svg xmlns="http://www.w3.org/2000/svg" viewBox="0 0 412.62 390.51"><defs><style>.cls-1{fill:#00a99d}.cls-2{fill:#f2e1ab;fill-rule:evenodd}.cls-3{fill:#173259}</style></defs><title>Fact01</title><g id="Layer_2" data-name="Layer 2"><g id="Layer_1-2" data-name="Layer 1"><circle class="cls-1" cx="205.7" cy="238.7" r="145.26"/><path class="cls-2" d="M311.92 145.13V144c-.87-.11-1.44.09-1.53.77.52.1.73.52 1.53.36zm-70.61 24.95c-3.62 1.16-1.43 3.73-2.3 5.37 3.28-1.32 9.84.63 9.6-4.22-2.61-1.36-4-4-5.76-6.14.34-.68.93-1.12 1.15-1.92-2.27 0-1.14-1.88-2.3-2.3-2.34.73-4.83 1.32-4.22 5 .94 1.72 4.01 1.34 3.83 4.21z"/><path class="cls-2" d="M237.09 171.61c-.38-2 .65-2.67 1.15-3.84-2.36-2.47-4.75.21-6.91 1.15.83 2-.22 2.36-.77 3.84 2.27 1.12 4.76-.52 6.53-1.15zm22.64 19.19c.16-.73 1.1-.69.77-1.92a2.16 2.16 0 0 0-1.54.38c-.1.88.09 1.45.77 1.54zm-1.15 4.6c2.54.54 2.58-2.3 1.92-3.84-2.5-.71-2.77 2.44-1.92 3.84zm11.51 1.54c-1.52.27-4.25-.67-4.61.77a6.46 6.46 0 0 0 4.22 1.54c-.27-1.18.67-1.13.39-2.31zm28.4 5.76c.58.59 2.63.68 2.3-.77-1.01.01-2.26-.21-2.3.77zm26.87 90.19c-1.57 1.1-3.57 1-4.61 2.3-1.2 1.53.36 3.87 0 5.76-.59 3.08-4 6.14-.77 10 1.66.85 3.51.05 5-.38 1.51-7.28 9.47-15.85 5-23-1.82 1.76-2.5 3.82-4.62 5.32z"/><path class="cls-2" d="M341.09 216.9c1.22 3 4.75 3.49 8.72 3.38a144.29 144.29 0 0 0-8.81-34.64 1.29 1.29 0 0 1-.26.56 1.9 1.9 0 0 1-1.92-2.3 1.84 1.84 0 0 1 1.56.24 145.22 145.22 0 0 0-23.47-38.9 29.37 29.37 0 0 0-8.8 2.59c-1.17-.53 1.13-2.31-.77-2.3h-1.53c-1.36 1 1.11 2.43 0 3.07q-4.26-.42-5 2.69c-1.26 0-1.91-.65-3.46-.38-.51 1.08 2 1 .77 1.53-2.56 0-3.64-1.48-4.22-3.45 3-.35 7 1.64 8.06-1.15-3-4.6-12.89-2.44-15.74-6.14-7.34-.58-12.4 1.78-18.8 3.07-.19 3.22-4.2 5-5.76 8.06-3.57 0-5.12 2-7.67 3.07-1 6.82 4.2 7.48 8.06 4.61 1 1.39 2.43 2.44 2.69 4.61-.83.32-1.31 1-2.69.77 0-1 .15-2.19-.38-2.69a3.77 3.77 0 0 0-3.45 1.92c.24 1.42 1 2.28.77 4.22a16 16 0 0 1-4.6.38c-2.74 3.12-6.27 7.16-11.13 6.91-.46.57-.33 1.72-1.54 1.54-1.67.3-2.78-1.07-3.07.77 2.67.88 6.93 5.13 3.45 8.44-4.23.67-9.06-1.63-11.51.77.54 5.05-1.86 6.63-.38 10.75 2.64-.34 4.44.16 4.61 2.3-1.38 4.51-7.83 3.94-7.3 10.36a40.67 40.67 0 0 0-13.43 15.35c3.84 4.65-1.2 10.15 0 16.5 2.53 2.33 6 3.76 6.52 8.06 3.8 1.43 5.53 5.89 9.59 6.14 3.13.19 6.42-2.9 10.36-.77 3-1.59 6-3.16 11.13-2.69 1 1 1.09 3 2.69 3.45 1.82.28 2.64-.43 4.22-.38 4.89 2.36 0 7.06.77 10.75.32 1.6 3 3.14 4.22 5 2.79 4.12 3 8.39 4.22 13-1.49 3.62-4.74 6.77-3.84 11.51.51 2.68 3.66 5.23 4.61 8.44.85 2.87.38 6.25 1.54 8.83 1.26 2.81 4.54 5.28 5 8.44a3.42 3.42 0 0 0 1.53 4.61c12.84-.59 22-4.9 23.79-16.5 4.76-.26 6.12-5.44 3.84-9.59 2.56-4 8-5 10.75-8.83.94-7.73-2.24-11.32-2.69-17.65 4.7-12.32 20.75-15.32 20.72-31.09-4.35.58-14 5.09-13.43-1.54 6-.69 13.08-3.53 17.27-7.29 5.85-.93 7.87-5.69 10.36-10-1.74-2.87-6.18-3-7.29-6.52-1.42 1.91-3.12 3.53-6.91 3.07-.54-5.09-6.78-4.47-6.91-10 .51-.39 1.41-.38 1.92-.77 3.29 2.83 6.54 8.6 13.02 5.81zm-47.59-34.54c3.33-.51 3.64 2 5.37 3.07a6 6 0 0 0 3.07-.77c.41-1.43-1.44-.61-1.15-1.92a4.86 4.86 0 0 1 4.22-1.15c.39 1.67-.79 1.76-1.15 2.69 1.87 3.12 7.93 2.05 8.06 6.91-6.26 2.6-11.95-4.11-16.89.38-1.08.32-1-.54-1.92-.38-1.61-.07-1.19 1.88-3.07 1.53.09-2.54.74-7.58 3.46-10.36zm-22.26-18c.28-1.17-.66-1.13-.38-2.3.79-1.13 2.55-1.28 3.07-2.69-.32-1.21-2-1.09-2.3-2.3-.29-4.51 5.49-2.95 5.76-6.91 1.29-.14 2.8-.87 3.45.38-.43 2.25-3.45 1.92-4.22 3.84-1 8.31 7.8 2.21 10.75 5-2.89.82-7.75-.33-8.83 2.3.39.75 3.7-1.12 3.07 1.54-1.08 1-1.57-.68-3.07-.38-1.34.58-1.61 2.22-1.53 4.22-2.38 1.94-5.61-.29-8.44 1.92-1.85-1.69-5.71.86-6.52-1.53 4.03-.1 6.35-1.88 9.19-3.13zm24.18 109.76c1.11.81.62 3.22 1.54 4.22-1.28-.57-2.5-2.72-1.54-4.26zm1.58-65.67c-1.07.08-1.89 1.13-3.07 1.15-5.51.09-10.11-4.83-15.73-2.69-.58 1-.09 3-.77 3.84-5.91-1.38-9.76-4.82-15.74-6.14 1-1.85 1.51-4.22 0-6.14-4.2.24-7.46.46-11.51.38-3.79-.07-5.26 2.46-8.44 3.07-1.45.27-4.55.78-5.76-1.15 2.4-1.82 7-1.45 8.83-3.84-1-4.94 5.42-4.79 6.14-9.21 3.89 1.33 5.86-.17 8.44-1.92 3 3.76 8 5.53 11.51 8.83.28 1.17-.39 1.4-.38 2.3 1.91.24 2.94-2.24 1.53-3.07 0-1 1.29-.76 2.3-.77-2.75-3.26-8.33-3.69-9.21-8.83 4 .23 6.87 4.88 11.13 6.14 0 4.65 3.47 5.74 4.61 9.21H282c1.14-.52 1.25-2.08 2.69-2.3.26-2.31-2.68-1.41-2.3-3.84 1.85.43 2.62-2.22 3.84-1.15 2.22 2.89 2.11 8.13 7.29 8.06 1.65.24 1.57-1.25 3.07-1.15a7.36 7.36 0 0 0 2.3 1.53c1.78-.14 2.4-1.43 4.61-1.15 1.78 3.28-.52 6.83-1.53 9.6-1.97.79-3.07-.91-4.97-.76zm2.68 61c-.44-3.13.62-4.75 3.84-4.22.57 1.96-1.08 5.71-3.88 4.25zm4.61 18.81c-1.46-.35-.28-1.54-.38-2.69 1.39-.29.66 2.43.34 2.71zm4.22-58c-.36-6.57-6.11-9.73-6.52-15h1.92c2.61 3.28 5.72 6.05 6.91 10.75 1.57 3.18 7 6.15 5.75 9.59 1.78 1.42 2.45 3.94 3.07 6.52-5.19-2.42-7.83-7.46-11.17-11.79zm16.49-33.7a4.52 4.52 0 0 1 1.15-3.07c-1.81-2.92-4.76-4.7-6.14-8.06 1.45-2.64 3.92-4.27 8.44-3.84 0 .9.66 1.13.38 2.3a3.49 3.49 0 0 0-3.45 1.54c1.89 3.1 4.59 4.71 7.29 6.14.39 1.29-1.2.6-1.92.77.16 2.7 3.43 3.73 2.3 6.52-2.88 1.73-6.49-.44-8.05-2.3zm-126.29 77.91c-6.27-1.26-7.8-5.62-15.73-4.61-1.58-4.51-8-2-10-5.76.86-2-2.21-3.41-1.92-6.14-2.28-3.86-7-2.22-10.36-3.45-2.78-1-3-4.86-6.14-5a17.26 17.26 0 0 0-1.15-3.07c-1.33 1.94-1.77-.85-3.84-.38-3.69 1.75-7.51 0-10.75-1.92-1.51-.1-1.43 1.39-3.07 1.15-.15-1.17 1-2-.38-2.3-1.31 1.63-3.62 2.27-6.14 2.69-1.28 1.28-1.27 3.85-3.46 4.22-1.9-1.93-5.24-1.68-7.68-.38a7.36 7.36 0 0 1-3.84-4.22 63.69 63.69 0 0 0 1.53-7.29c-1.77-2.47-5.73-.39-8.83-1.54 1.05-3.17 3.08-5.36 3.45-9.21-1.13-1.48-3.43-.31-5 0-1.15 3.59-4 5.46-9.21 5-5.75-3.53-2-10.54-.77-16.12 3.43-2.57 7.64-5.59 13-3.07 2.91-3.14 9.91-2.3 12.28 0a7.18 7.18 0 0 1-.38 3.07 7.25 7.25 0 0 0 4.61 1.54c-.07-2.74-.84-4.79-.77-7.68 3.06-4 8.23-5.84 12.66-8.44v-4.22h1.92c2-3.65 5.68-5.57 10.36-6.52 0-5.22 5.95-4.54 9.59-6.14-.41.78-1.84 1.57-.77 2.69 2.92-2.45 9.09-1.65 10.75-5.37-2.09-.56-4.71 2.68-6.52 0-.48-2.53 1.57-2.52 1.92-4.22-1-1.31-2.4.15-3.46-.77 1.46-3.55 5.36-.23 6.91.77 1.38-.95-1.74-1.5-.77-1.92 4.07.43 7-1.84 10-1.92-1.28 2.23-5.1 3.79-5 6.14 3.76-.3 6.07.84 8.83 1.54.64-1.33-.31-2.54 0-4.61-.52-.76-2.68.12-2.69-1.15.61-2.08 2.11-3.26 2.3-5.76a10.13 10.13 0 0 0-4.61-3.84c-.73-2.47 0-6.36-1.92-7.68-2.46.48-2.91 3-5.76 3.07-.66-.49-1.51-.79-1.53-1.92-.19-1.21 1.18-.87.77-2.3-1.63-.42-2.35-1.74-3.45-2.69-1.9.94-3.93-.11-6.14 0-4.78 3.64-1 14.26-11.13 13-1.05 2.27-1 5.7-4.22 5.76-2.27-2.28.06-4.09.77-6.52-5.58.46-6.62-3.61-11.9-3.45.59-2.2-.13-1.92-.77-3.45 4.28-5.18 12.44-6.49 19.19-9.21-.28 1.1-2.59 1.44-1.54 2.69 2.45.35 5.29-1.18 7.67-.38.31-2.62-4-2.67-3.45-4.22 3.9 1.5 7.89-2.26 9.59-5.37a19.54 19.54 0 0 0 5.37-.38 49.92 49.92 0 0 0 3.84 3.45c-1.88 3.37-7.95 2.54-10.75 5 1.45 1.07 3.07-.34 5 0 2 2.25 4.27 4.18 8.45 4.22.64-1.21-1.43-1.57-.38-1.92 2.07.79 3.59.75 4.22-1.54.08-1.61-1.88-1.19-1.53-3.07 1.92-1.44 2.21 1.47 3.84 1.53 1.76-.67 3.77-1.1 4.22-3.07-1.06-1.63-4.06-1.31-5-3.07-.31-1.33.57-1.47.38-2.69-2.45-1.26-6-1.4-6.91-4.22-7.62.23-17.62-1.86-18 4.61.36.92 2.79-.23 2.3 1.54a10.73 10.73 0 0 1-5 3.07c-1-.94.81-.82.38-2.3-.88-.53-2.39-.42-2.3-1.92.4-.88.24-2.32.77-3.07 1.79-.9 5.35 0 5.76-2.3-3.73-2.32-6.12 1.62-8.83 2.69.17-1.11 1.36-1.2 1.15-2.69-2.69-.58-6.09 1.21-7.68 1.92.67 1.87 2.8 1.69 4.22 1.92-1.11.92-1.35 2.11-.77 3.84a5.45 5.45 0 0 1-2.69 1.15c-.33-1.49 1.68-.63 1.15-2.3-2.38-1.35-4.29.73-5 2.3-2.91-.29-7.31.92-8.06-1.54 3.24.88 5.45-.05 7.68-1.15.27-1.54-1.62-.94-1.53-2.3.26-1.91 2.56-1.79 3.07-3.45-2-1.27-4.13 1.77-6.14 1.92s-6-2.45-6.91-2.69c-6.15-1.64-11.55 0-14.2 3.84 1.24 1.85 4.65-1.36 6.52 0-.56 1.36-.85 3-1.92 3.84-3.45-1.42-9.34-.38-12.28-2.3a43.62 43.62 0 0 1-8.68 1.49 144.82 144.82 0 0 0-31.19 61.25c1.24 2.67 1 6.8 2.74 9 .06 1.08-1.15.89-1.15 1.92.55 1.24 2.21 1.37 3.07 2.3-.43 3.19 2 5.35 3.84 5-1.68-4.46-3.38-8.9-5-13.43.6-.43.8-1.25 1.92-1.15 1.45.8 1 2 .77 3.84 2.74 4.93 6.67 8.68 8.83 14.2 0 1.26-1.09 1.47-.77 3.07 4.67 3.4 10.53 8.36 18 6.52 2.29.55 2.59 3.1 5 4.22 3.56 1.67 9.13.58 8.83 6.52 3.1 1.76 5.59 4.14 9.21 5.37.56-1.36.58-3.26 2.69-3.07 1.83 2.13 2.7 5.23 2.3 9.59-2.21 3-5.83 4.66-6.14 9.59-.21 1.36 1.36.94 1.15 2.3-.39 1.27-2.13 1.2-1.92 3.07 3.73 5.86 8 11.24 10.75 18 3.94 3.81 8.45 2.24 10.75 6.91 2.74 5.59-.35 14.54 1.54 22.26.79 3.24 1.8 8.28.38 11.9 2.53 2.08.81 8.4 3.84 10 .22-.67-.46-2.25.38-2.3a4.77 4.77 0 0 1 .77 3.45c-.06.71-1.3.23-1.53.77a5.23 5.23 0 0 1 .38 3.84c.3.85 1.8.5 1.92 1.54-.39.5-.37 1.41-.77 1.92 1 2.19 3.09 3.31 3.84 5.76a9.19 9.19 0 0 1 4.22 3.45c3.66.61 9.36 5.44 12.66 1.54-3.19-2.06-7.15-3.35-8.44-7.29 1.4-1.29 1.68-3.69 2.69-5.37-.86-1.31-3.61-.74-3.84-2.69 1.68-1.51 2.18-4.22 3.07-6.52-1.35-.18-2.42-.65-2.69-1.92 1.3-.1 3.11.3 3.84-.38.08-1.2-.26-2.82.38-3.45 7.79 1.18 7.42-5.8 4.22-8.06 1.84.08 2.81 1 5 .77 2.85-.74 2.26-4.11 3.84-6.91 1.78-3.13 6-4.65 3.84-10 2.33-2.66 5.64-4.33 10.36-4.61a22.49 22.49 0 0 0 4.22-16.89c2.36-4.55 9.68-8.78 5.39-15.31zm-57.95-87.89c0 1.72-2.77 1.15-3.84.77.47-1.07 2.36-.72 3.84-.77zM173 148.2c0 .37-.47.3-.77.38.01-.37.47-.29.77-.38zm-51 41.83c1-3.59 2.55-6.66 6.91-6.91-3.57 1.1-3.21 6.06-6.96 6.88zm6.91.38c1.15-1.15 3.51-1.1 5.37-1.53-1 1.2-3.55 2.49-5.42 1.54zm2.3-7.29c1.85-.66 3.41.5 5 .38v1.5c-2.89-.58-3.09 1.51-4.22 2.69-1.99-.5-.76-3.69-.83-4.57zm-.38-1.92c-3.43 1.66-6.39-1-9.59 0 1.93-1.71 9.21-5.57 9.54.01zm-12.67-36.08c1.66-.52 4.66.62 6.91.77-1 .83-5.08.51-6.91.38zm-.38 24.56c.15 1.56-.14 2.67-1.53 2.68-.83-.95-.5-3.27 1.48-2.67zm-14.2-12.28c1.31-1.06 3.32-3.06 5-1.54-1.12 1.14-3 1.42-5.05 1.55zm4.61-7.68c-2.59-.42-3.38 1-5.75.77-.35-2.49 5.56-3.39 5.69-.76zm27.63 99c-.67-.09-.88-.66-.77-1.54 1.14-.18 1.32 1 .72 1.57z"/><path class="cls-3" d="M311.12 133.29a149.08 149.08 0 1 0 43.66 105.41 148.1 148.1 0 0 0-43.66-105.41z"/><path class="cls-3" d="M205.7 390.51A151.81 151.81 0 1 1 313 346a150.81 150.81 0 0 1-107.3 44.51zm0-298.16a146.36 146.36 0 1 0 103.49 42.87A145.39 145.39 0 0 0 205.7 92.35z"/><path class="cls-3" d="M377.59 108.53L371 99.84a.48.48 0 0 0-.68-.09l-4.89 3.73-1.43-1.79a.48.48 0 0 0-.67-.09l-1.73 1.32-4.13 3.15-1.47 1.16-4.83 3.69-1.24.94-4.18 3.19-1.75 1.29-4.14 3.16-1.73 1.32L334 124l-1.73 1.32-21.73 16.58a.48.48 0 0 0-.09.68l.78 1 .87 1.14 1.27 1.67 2.05 2.69 2.05 2.69 1.27 1.67 1.65 2.16a.48.48 0 0 0 .68.09l4-3.09.11-.05 1.73-1.32a.46.46 0 0 0 .08-.09l4-3 .11-.05 1.73-1.32a.46.46 0 0 0 .08-.09l4-3 .11-.05 1.73-1.32a.46.46 0 0 0 .08-.09l9.91-7.56.07-.05 12.37-9.44 1-.78 4.14-3.16.4-.31 7.19-5.49a.48.48 0 0 0 .09-.68l-1.37-1.79 3.16-2.41 1.73-1.32a.48.48 0 0 0 .07-.7zM73.55 264.06H61.06L61 264h-9.7l-12.46-.05h-.08l-15.56-.06H7.21a.48.48 0 0 0-.48.48v2.26H.53A.48.48 0 0 0 0 267v10.9a.49.49 0 0 0 .48.49h6.15v2.25a.48.48 0 0 0 .48.48h39.03l27.33.11a.48.48 0 0 0 .48-.48v-16.41a.48.48 0 0 0-.4-.28zM307.16 44a.53.53 0 0 0-.71.23l-3 5.84-1.7-.87a.53.53 0 0 0-.71.23l-1.21 2.35a.53.53 0 0 0 .23.71l.19.1a117.28 117.28 0 0 1-15.06 24.33l-1.19-.63a.53.53 0 0 0-.71.23l-.86 1.68a.52.52 0 0 0 .2.69l-.7 1.37a.52.52 0 0 0 0 .48 99.3 99.3 0 0 1-8.32 8.33l-.88-.46a.53.53 0 0 0-.71.23l-1.16 2.26-1.24-.64a.53.53 0 0 0-.71.23l-1.15 2.23a.53.53 0 0 0 .23.71 63.57 63.57 0 0 1-13.83 8.22.53.53 0 0 0-.06 1l6.72 3.46a.53.53 0 0 0 .46 0 45 45 0 0 0 10.23-6.54 14.24 14.24 0 0 1 11 5.67 45 45 0 0 0 .62 12.13.52.52 0 0 0 .27.36l6.72 3.46a.53.53 0 0 0 .75-.6 63.49 63.49 0 0 1-1.33-16 .53.53 0 0 0 .71-.23l1.15-2.23a.53.53 0 0 0-.23-.71L290 101l1.17-2.26a.53.53 0 0 0-.23-.71l-.89-.46a99.44 99.44 0 0 1 2-11.61.52.52 0 0 0 .39-.27l.7-1.37a.52.52 0 0 0 .67-.24l.86-1.68a.53.53 0 0 0-.23-.71l-1.2-.69a117.33 117.33 0 0 1 11.07-26.38h.07a.53.53 0 0 0 .71-.23l1.21-2.35a.53.53 0 0 0-.23-.71l-1.7-.87 3-5.84a.53.53 0 0 0-.21-.62zM279.4 92a94 94 0 0 0 6.92-8.93l1.22.63a94 94 0 0 0-3.26 10.82zm-34.63 2.06h-7a6.4 6.4 0 0 0 1.72-1.31 5.76 5.76 0 0 0 1.5-4.08 13.46 13.46 0 0 0-3.91-10c-5.58-5.51-15-5.46-15.41-5.46H208.6c-.71 0-1.38-.09-2-.15h-.38l-.55-.07h-.33l-.54-.08h-.28l-.53-.1h-.23l-.53-.12h-.17l-.61-.16-.59-.18h-.07l-.45-.16-.16-.06-.3-.12-.18-.08-.23-.1-.18-.09-.18-.09-.17-.09-.14-.08-.16-.09-.1-.07-.16-.1h-.06l-.33-.24 4.79-2.46h.11v-.62a.57.57 0 0 0 0-.13v-9.28a9 9 0 0 0-8.94-8.94h-2.48l-.65.08h-.09l-.69.11a13.24 13.24 0 0 0-4.58 1.61 5 5 0 0 0-.8-2.28 3.62 3.62 0 0 0-3.11-1.52 1.6 1.6 0 0 0 0 3.21c.37 0 .45.1.49.17.46.64.3 2.55-.14 4.36a9.1 9.1 0 0 0-.79 4.15L180 63.4a.58.58 0 0 0 .49.88h1.1v2.22a6.41 6.41 0 0 0 .05 1.5 3.92 3.92 0 0 1-.7 2.22.8.8 0 0 1-.66.24h-.14a1.6 1.6 0 1 0-.25 3.2h.39a4 4 0 0 0 3-1.22 5.55 5.55 0 0 0 1.24-2.44h1.77a2.13 2.13 0 0 1 .78 1.31 19 19 0 0 0-4.49 8.35.58.58 0 0 0 .56.71h1a20.28 20.28 0 0 0-.65 5.29c-6.16.08-9.24 1.37-10 1.75-5.38-.75-9.38 0-11.89 2.14a7.31 7.31 0 0 0-2.5 4.62c-1 .3-3.28 1.38-3.28 4.91a.58.58 0 0 0 .58.58h91.56a.58.58 0 0 0 .58-.58c-.02-4.5-3.74-5.02-3.77-5.02z"/><path class="cls-3" d="M276.48 31.52l-1.74-.45 1.15-4.5a.59.59 0 0 0-.43-.72l-1.4-.36.69-2.7a.59.59 0 0 0 0-.18l-.37-4.28a.59.59 0 0 0-.45-.52l-1.73-.44L274.74.69a.6.6 0 0 0-1.15-.29l-5.81 15.82-1.73-.44a.59.59 0 0 0-.64.25L263 19.59a.6.6 0 0 0-.07.17l-.69 2.7-1.4-.36a.6.6 0 0 0-.73.43L259 27l-1.74-.45a.6.6 0 0 0-.72.43l-4.93 19.25a.59.59 0 0 0 .39.77l1.74.45L241 97.34a.6.6 0 0 0 .43.72l4.87 1.25 4.87 1.25 4.87 1.25a.59.59 0 0 0 .72-.43l12.79-49.9 1.74.45a.59.59 0 0 0 .72-.43l4.93-19.25a.6.6 0 0 0-.46-.73zm81.73 37.27a1.62 1.62 0 0 0-2.63 1.82l-5.86 5.63c-3.44 1.22-8.33-.52-11.94-4.28a17.51 17.51 0 0 1-1.6-1.96v-.06a.5.5 0 0 0-.67-.28.5.5 0 0 0-.31.37c-.87 1.42-.32 4 1.33 7l-4.82 4.63a4.61 4.61 0 0 0-1.26-.29c-.4 0-.58-.06-1.45-1a16.66 16.66 0 0 1-1.58-1.93v-.06a.5.5 0 0 0-.67-.29.5.5 0 0 0-.31.37c-.94 1.47-.44 4.08 1.18 7.13l-6.11 5.86a4.63 4.63 0 0 0-1.26-.29c-.4 0-.59-.06-1.45-1a16.57 16.57 0 0 1-1.58-1.93v-.06a.5.5 0 0 0-.66-.29.51.51 0 0 0-.32.37c-.94 1.47-.44 4.08 1.18 7.13l-6.11 5.86a4.68 4.68 0 0 0-1.26-.29c-.4 0-.59-.06-1.45-1a16.46 16.46 0 0 1-1.58-1.93v-.06a.5.5 0 0 0-.66-.29.51.51 0 0 0-.32.37c-.94 1.47-.44 4.08 1.18 7.13l-6.22 5.99a4.58 4.58 0 0 0-1.26-.29c-.4 0-.59-.06-1.45-1a16.64 16.64 0 0 1-1.58-1.93v-.06a.5.5 0 0 0-.39-.32.52.52 0 0 0-.27 0 .5.5 0 0 0-.32.37c-.94 1.47-.44 4.08 1.18 7.13l-7.23 6.94a.5.5 0 0 0 0 .71l12 12.52a.5.5 0 0 0 .71 0l7.14-6.85c3 1.76 5.61 2.36 7.11 1.45a.5.5 0 0 0 .36-.3.71.71 0 0 0 0-.31.5.5 0 0 0-.29-.36 16.43 16.43 0 0 1-2.08-1.83c-.82-.85-.81-1-.81-1.31a3.55 3.55 0 0 0-.19-1.3l6.1-5.86c3 1.76 5.61 2.36 7.12 1.44a.5.5 0 0 0 .36-.3.49.49 0 0 0 0-.19.48.48 0 0 0-.3-.48 16.63 16.63 0 0 1-2.08-1.83c-.82-.85-.81-1-.81-1.31a3.55 3.55 0 0 0-.19-1.3l6.11-5.86c3 1.76 5.61 2.36 7.12 1.45a.5.5 0 0 0 .36-.3.5.5 0 0 0 0-.18.52.52 0 0 0 0-.13.5.5 0 0 0-.29-.36 16.7 16.7 0 0 1-2.08-1.83c-.82-.85-.81-1-.81-1.31a3.55 3.55 0 0 0-.19-1.3l6.1-5.86c3 1.76 5.61 2.36 7.11 1.45a.52.52 0 0 0 .1-1 16.58 16.58 0 0 1-2.08-1.83c-.82-.85-.81-1-.81-1.31a3.54 3.54 0 0 0-.19-1.3l4.82-4.63c3 1.79 5.51 2.44 7 1.59a.49.49 0 0 0 .4-.49.47.47 0 0 0 0-.11.5.5 0 0 0-.29-.37 17.53 17.53 0 0 1-2.08-1.84c-3.6-3.75-5.15-8.71-3.78-12.1l5.86-5.63a1.62 1.62 0 0 0 1.93-2.55zM156.08 89.3l-4 2.36-1.76-3L139.64 95l-5.27-9 .93-.55-10.18-15.39.72-.42.16-1.24-1.35-2.3.45-3.65.59-.35v-1l.46-.27-.36-.61.56-.33-.36-.61.7-.41-.46-.78-.59-.15.19-1.15-.65-.66.6-.64-.58-.49-7.36-.45.45 1.14-.8-.07-.33 2.5-.67.39-4.56-3.51-2.16.31-.41-.7-.57.34-1.31-2.22.41-.24-.32-.53-2.08-1.69.39-.23-.43-.72-.4-.1-.68-.88.13-.51 4.2-2.84-4.38 2.01-.63-.74 2.56-3.67-3.25 3.19-1-.36 1.13-5.35-2.13 5.4-1.46.46-3.31-4.82 2.35 5.39-1.15.93-5.67-.58 5.08 1.47-.27.88-3.18 1.69 3.17-.61.38 1-1.49 1.25-.27-.46-1.05.48-1.25-2L87 44.18l-.9-1.52-.31-2.16L83.8 37l-.73-.19-.41-.69 1-.56-.61-1-.62.37-.6-1 .62-.37-.61-1-1.39.82v-1.59l-.39-.55-.2-1.29-.33-1.39-.3.57-.83-3-.36.71-.27-1.18-1.4.26.76.46-.07 1 .07 1.79-.86-1.46-.8-1.36-1.47-.24 1.17 1.14.83 3.18-.34 1 1 2.5 1.24.83-1.57.92.61 1 .62-.37.59 1-.62.37.61 1 1-.56.37.62-.22.84 2 3.45 2.11.7.25.43-.06.32.36.61.57.15.86 1.46.87.17 3.45 6.65 1.24.74.91 1.55-.25 2 .57.78-.17 1.54 2.16 2.26 1.12-.39.37 1.62.4.74 1.68-.27 1.06 3 .58.92 2.87 1.15.1 1.09.49.83.52.27.52 5.41 1 1 1-.34 1.06.45.44.75-.09 1.86.69 1.18 2.03 1.59 3.15 6.57-.23.87.54.92.45.31 3 6.73-.14.55.43.54.6-.1.61 1-.14 1.63 1.59 4.28-5.29 3.12 1.81 3.07-4 2.35 4.24 7.19 43.75-25.78zM98.49 55.36l-.3.17-1.15-1-.85-1.08H96l-.39-.66 1.54-.74.28.48h.63l-.21.83.53.68.35-.2z"/><path class="cls-3" d="M123 118.76l-2.62-2.56a.71.71 0 0 0-1 0l-3.78 3.87-9.75-3.92L107 115a.72.72 0 0 0 0-1l-2.62-2.56a.71.71 0 0 0-1 0l-2.61 2.67-9.77-3.93 1.4-1.44a.72.72 0 0 0 0-1l-2.62-2.56a.71.71 0 0 0-1 0l-2.87 2.94-9.75-3.92 1.5-1.53a.71.71 0 0 0 0-1l-2.61-2.57a.72.72 0 0 0-1 0l-4.2 4.3-5.26-5.14a.72.72 0 0 0-1 0L61 100.91l-7.46-7.28a.71.71 0 0 0-1 0l-9.25 9.47a.71.71 0 0 0 0 1l7.46 7.28-2.56 2.62a.72.72 0 0 0 0 1l5.26 5.14-4.2 4.3a.71.71 0 0 0 0 1L51.9 128a.71.71 0 0 0 1 0l1.5-1.54 4.15 9.65-2.87 2.94a.72.72 0 0 0 0 1l2.62 2.56a.72.72 0 0 0 1 0l1.4-1.44 4.15 9.65-2.61 2.67a.71.71 0 0 0 0 1l2.62 2.56a.72.72 0 0 0 1 0l1.14-1.17 4.15 9.65-3.78 3.87a.71.71 0 0 0 0 1l2.7 2.6a.72.72 0 0 0 1 0l52-53.23a.72.72 0 0 0-.07-1.01z"/><path class="cls-3" d="M80.29 171.26l-8.63-3.45-22.27-8.91 1.37-3.44a.56.56 0 0 0-.31-.73l-2.48-1a.56.56 0 0 0-.73.31l-1.37 3.44-4.51-1.8.31-.77a.56.56 0 0 0-.31-.73l-1.09-.44.86-2.14a.56.56 0 0 0-.31-.73l-1.09-.44 1.16-2.91a.56.56 0 0 0-.09-.57l-1.52-1.84.72-1.81a.56.56 0 0 0-.09-.57l-1.73-2.09a.56.56 0 0 0-1 .15l-19.09 47.84a.56.56 0 0 0 .59.77l2.7-.32a.57.57 0 0 0 .46-.35l.72-1.8 2.37-.28a.56.56 0 0 0 .46-.35l1.17-2.91 1.09.44a.56.56 0 0 0 .73-.31l.86-2.14 1.09.44a.56.56 0 0 0 .73-.31l.31-.77 4.51 1.8-1.4 3.46a.56.56 0 0 0 .31.73l2.48 1a.56.56 0 0 0 .73-.31l1.38-3.44 30.9 12.36A.56.56 0 0 0 71 196l1.93-4.83a.56.56 0 0 0-.31-.73l-30.9-12.36L47 164.77l22.26 8.91 8.63 3.45a.56.56 0 0 0 .73-.31L80.6 172a.56.56 0 0 0-.31-.74zm-43.41-9.06l1.09.44a.56.56 0 0 0 .73-.31l.31-.77 4.51 1.8-5.32 13.29-4.51-1.8.31-.77a.56.56 0 0 0-.31-.73l-1.09-.44zm345.46 17.66a.6.6 0 0 0 .11-.18v-.05a.63.63 0 0 0 0-.2.74.74 0 0 0 0-.14v-.06a.64.64 0 0 0-.13-.17.62.62 0 0 0-.26-.14l-37-8.56 16.2-17.89a.64.64 0 0 0 .11-.19v-.05a.63.63 0 0 0 0-.21.66.66 0 0 0 0-.15v-.05a.65.65 0 0 0-.13-.17.63.63 0 0 0-.15-.09h-.06l-36.2-8.37a.63.63 0 0 0-.75.81l7 22.28.66 2.09L347 217.45l8.61 27.45a.64.64 0 0 0 1.08.24l24.94-27.54a.65.65 0 0 0 .11-.19v-.06a.64.64 0 0 0 0-.2.62.62 0 0 0 0-.16v-.05a.62.62 0 0 0-.13-.18.67.67 0 0 0-.18-.1l-26.62-6.16 27.65-30.53zM32.46 192.89c-.27 0-.46.2-.7.27a1.63 1.63 0 0 1 .25-.39c-.12.22-.76.2-1 .84-.1-.11-.05-.41.06-.6a3.11 3.11 0 0 0-.72 1.95l-.11.17h-.06a3.28 3.28 0 0 1 0-1.19 4.15 4.15 0 0 0-.23.4 1.15 1.15 0 0 1 0-.19 1.25 1.25 0 0 0-.19.55 2.53 2.53 0 0 0-.14.57 1 1 0 0 1 .06-.65 1.24 1.24 0 0 0-.46.72c0 .22-.13-.22 0-.39-.21.15-.33 1.16-.32.46a1.69 1.69 0 0 0-.1 1.17c0 .13-.19-.35-.21-.58a1.93 1.93 0 0 0-.1 1.24c-.26.13-.1.56-.29.24.06.46.24.6.19.78s0 .13 0 .19v1.14l.06.17.05.13c-.15-.06-.22-.11-.16-.28-.18.25-.24.15-.23 0a1.59 1.59 0 0 0 .08-.5c-.23.42-.63.17-.34.15a3.57 3.57 0 0 1-1-2.15 3.25 3.25 0 0 1 .71-2.2 2.89 2.89 0 0 0-.64.21c-.12 0-.13 0 .07-.2-.44.2-.59.92-.6.54-.16.42 0 .93-.17.65 0 .82-.06.38-.13.16-.09.18.12 1-.07.44-.08.42.18 1.44-.06.85 0 .36.28 1.07-.1.36a1.4 1.4 0 0 0 .51.76c.12.13-.31-.07-.5-.29a1.23 1.23 0 0 0 .73.63c.26.12-.45 0-.64-.21.22.73 1.23 1.38.38.83a2.57 2.57 0 0 0 1 .85c.19.11-.19 0-.28.08a1.48 1.48 0 0 0 .31.12h.06-.13a1.61 1.61 0 0 0-.29-.07l.11.06a3.79 3.79 0 0 1-1-.22 4.82 4.82 0 0 1-1.84-1.11 1 1 0 0 0 .56.62c.11 0-.29.05-.47-.09.2.27.68.34.74.4s-.22.05-.4-.1a1.17 1.17 0 0 0 .85.39c.1 0-.19.08-.4 0 .3.2.86.22.59.28.33 0 .17.14 0 .12a.7.7 0 0 0 .31.18 1.7 1.7 0 0 0-.3.09c.18 0 .49.07.41.14s-.4 0-.57.05c.51 0-.35 0-.66.5.18-.07.39 0 0 .14.32 0-.32.17-.62.48.22-.16.56-.19.45-.13a1.49 1.49 0 0 0-.89.69c.17-.22.5-.3.44-.22s-.59.29-.76.66c.17-.22.63-.32.51-.24a1.27 1.27 0 0 0-.52.85 6.17 6.17 0 0 1 1.88-1.77 4.37 4.37 0 0 1 .92-.46l-.1.05c.18-.09.67 0 .6 0s-.6.07-.85.32c.21-.09.57 0 .47 0a2.45 2.45 0 0 0-.84.49c.18-.07.56-.09.52 0s-.41.13-.55.24c.55-.13-.36.13-.36.77.14-.14.42-.1.1.15.33-.1-.21.29-.33.74.13-.25.46-.39.39-.29a1.19 1.19 0 0 0-.48 1.05c0-.3.33-.49.32-.39s-.42.51-.37 1c0-.31.45-.57.38-.44a1.32 1.32 0 0 0 0 1.13 5.2 5.2 0 0 1 .79-2.59 3.79 3.79 0 0 1 1.24-1.26c.07.29.19.62 0 .27a1.17 1.17 0 0 0 .25.69 2 2 0 0 1-.7.06c.31.24.92.19.73.24a1.84 1.84 0 0 1-1.08 0c.19.2.51.18.51.3s-.48.08-.73 0c.3.26.92.2.82.25a2.9 2.9 0 0 1-1 .17c.35.26 1.42 0 1.2.13a3.36 3.36 0 0 1-1.39.28c.13.25.66.13.53.21a3.8 3.8 0 0 1-.6.24c.22.19.93-.13.71 0a.74.74 0 0 1-.67.13c.2.27.76.22.89.17a.9.9 0 0 1-.79.23c0 .66 1.14 1.39.42 1 .09.32.6.39.22.46.27.24 1.28.75.29.34.37.53 1 .37.51.53.69.09.44.26.13.18.26.22.87.29.38.32.18 0 .85.05.29.28a2 2 0 0 0 1.81.76 3.34 3.34 0 0 0-.54 1.73l-.11.17h-.06a3.31 3.31 0 0 1 0-1.19 4.37 4.37 0 0 0-.23.4 1 1 0 0 1 0-.19 1.22 1.22 0 0 0-.19.54 2.5 2.5 0 0 0-.14.57 1 1 0 0 1 .05-.65 1.22 1.22 0 0 0-.46.72c0 .22-.13-.22 0-.39-.2.15-.33 1.16-.32.46a1.69 1.69 0 0 0-.1 1.17c0 .14-.19-.35-.21-.58a1.94 1.94 0 0 0-.11 1.24c-.26.13-.1.56-.29.24.06.46.23.61.19.78s0 .13 0 .19v1.14l.06.17.05.13c-.15-.05-.22-.11-.16-.27-.18.24-.24.15-.23 0s.11-.27.08-.5c-.23.42-.63.17-.34.14a3.58 3.58 0 0 1-1-2.15 3.23 3.23 0 0 1 .71-2.2 2.92 2.92 0 0 0-.64.21c-.12 0-.13 0 .07-.2-.44.2-.59.92-.61.54-.16.42 0 .94-.17.65 0 .82-.06.38-.13.16-.09.18.12 1-.07.43-.08.42.18 1.44-.06.85 0 .36.28 1.07-.1.36a1.41 1.41 0 0 0 .51.76c.12.13-.3-.07-.5-.29a1.23 1.23 0 0 0 .73.63c.26.12-.45 0-.64-.21.22.73 1.23 1.38.38.82a2.56 2.56 0 0 0 1 .85c.19.11-.19 0-.28.08a1.69 1.69 0 0 0 .31.12h.06-.13a1.34 1.34 0 0 0-.29-.07l.11.06a3.78 3.78 0 0 1-1-.22 4.78 4.78 0 0 1-1.84-1.11 1 1 0 0 0 .56.61c.11 0-.29.06-.47-.09.2.27.68.34.74.4s-.22.06-.41-.09a1.18 1.18 0 0 0 .85.39c.1 0-.19.08-.4 0 .3.2.86.22.59.28.34 0 .17.14 0 .12a.69.69 0 0 0 .31.17 1.65 1.65 0 0 0-.3.09c.18 0 .49.07.41.14s-.39 0-.57 0c.51 0-.35 0-.66.5.18-.07.39 0 0 .14.32 0-.32.17-.62.48.22-.16.56-.19.46-.12a1.49 1.49 0 0 0-.89.69c.17-.22.5-.3.44-.22s-.59.29-.76.65c.17-.22.63-.32.51-.24a1.27 1.27 0 0 0-.52.86 6.15 6.15 0 0 1 1.88-1.77 4.39 4.39 0 0 1 .93-.46l-.1.05c.18-.09.67 0 .6 0s-.6.06-.85.32c.21-.09.57 0 .47 0a2.46 2.46 0 0 0-.84.49c.18-.07.56-.08.52 0s-.41.13-.56.25c.55-.13-.35.13-.36.77.14-.14.42-.1.1.15.34-.1-.21.29-.33.74.13-.25.46-.39.39-.29a1.19 1.19 0 0 0-.48 1.05c0-.3.33-.49.32-.39s-.42.51-.36 1c0-.31.45-.57.38-.44a1.3 1.3 0 0 0 0 1.13 5.18 5.18 0 0 1 .79-2.59 3.75 3.75 0 0 1 1.24-1.26c.07.29.19.62 0 .27a1.17 1.17 0 0 0 .25.69 2 2 0 0 1-.7.06c.31.24.92.19.73.24a1.85 1.85 0 0 1-1.08 0c.19.19.51.18.51.3s-.48.08-.73 0c.3.26.92.2.82.25a2.9 2.9 0 0 1-1 .17c.35.26 1.42 0 1.2.13a3.37 3.37 0 0 1-1.39.28c.13.25.65.13.53.21a3.55 3.55 0 0 1-.6.24c.22.19.93-.13.71 0a.74.74 0 0 1-.67.13c.2.27.76.22.89.17a.89.89 0 0 1-.79.23c0 .66 1.14 1.39.42 1 .09.32.6.39.22.46.27.24 1.28.75.29.34.38.53 1 .37.51.53.69.09.44.26.13.18.26.22.87.29.38.32.18 0 .85.05.29.28a2 2 0 0 0 1.83.76v-.01l.2-.06a1.41 1.41 0 0 0 .41.71c-.28-.84.25.31.56.41-.19-.17-.23-.74-.11-.49a1.43 1.43 0 0 0 .85.66c-.37-.29-.37-1.37-.24-1.09s.18 1.09.76 1.53c-.37-.54-.28-1.43-.08-1.26a1.65 1.65 0 0 0 1 .5c-.38-.17-.75-.86-.57-.73a2.64 2.64 0 0 0 1.47.42 2.93 2.93 0 0 1-1.1-.47 12 12 0 0 1-1.52-1.2l-.08-.07-.06-.05-.49-.46a4 4 0 0 1-1.09-3.57v.12a1 1 0 0 1 .1-.48c.06-.12 0 .55-.05 1 .07-.24.28-.55.25-.4a2 2 0 0 0 .06 1.38c.09-.67 0 0 .17.45 0-.38.09-.84.11-.69a1.67 1.67 0 0 0 .23 1.1c-.13-.23-.15-.83-.08-.73.18.3.18.75.53 1.11-.14-.28-.12-.7-.06-.57a4.8 4.8 0 0 0 .73 1.14c-.11-.24-.19-.71-.05-.63s.21.53.38.73c-.24-.7.22.46 1 .6-.19-.2-.19-.54.16-.09-.18-.44.38.32.93.55-.32-.21-.54-.65-.4-.54a2 2 0 0 0 1.33.8c-.37-.1-.65-.51-.52-.47a5.85 5.85 0 0 0 1.45.4 3.68 3.68 0 0 1-.9-.52c.13.09.36 0 1.19-.2a6.4 6.4 0 0 1-2.78-.81 4.88 4.88 0 0 1-1-1c0-.21.29.23.57.27a1.6 1.6 0 0 1-.08-1 1.57 1.57 0 0 0 .76 1.14 2.8 2.8 0 0 1-.32-1.17c.14.52.44 1 .87 1a1.14 1.14 0 0 1-.43-.67c.17.13.23.28.52.28-.37-.19 0-.16.29-.38-.26 0-.41-.28-.48-.45.12.13.65.06.93-.12-.3 0-.7.09-.93-.24.16.14.79 0 1.22-.34a1 1 0 0 1-.7-.08 11.43 11.43 0 0 1 1.06-.6c-1.2.13-1.83 1-2.39.69-.27-.17-.74-.56-1-.72a4 4 0 0 1-.88-1.37h.07c-.27-.32-.06-.18.27 0v.06-.05l.2.08a.74.74 0 0 1-.14-.39A2.13 2.13 0 0 0 32 221c-.34-.69 0 0 .43.31-.24-.36-.44-.86-.33-.73a1.83 1.83 0 0 0 .9.89c-.27-.13-.65-.69-.52-.63.35.15.63.58 1.18.69-.3-.17-.55-.58-.42-.5a4.92 4.92 0 0 0 1.37.59c-.25-.15-.61-.54-.44-.56s.53.36.8.43c-.66-.5.49.29 1.27-.1-.29-.06-.51-.37.09-.2-.44-.29.56 0 1.21-.12-.43 0-.9-.24-.71-.24a2.13 2.13 0 0 0 1.73-.15c-.4.15-.91 0-.76-.09s1 .12 1.54-.23c-.4.15-1.1-.12-.87-.13a1.7 1.7 0 0 0 1.07-.45A40 40 0 0 1 50 223c-2.07 3.35-3.39 7.41-2.68 11.38-1 .5-2.1 1-3.21 1.39a1.69 1.69 0 0 0-1.16-.23c-.23 0 .43-.38.87-.31-.58-.24-1.44.12-1.59.1s.33-.33.76-.26a2.21 2.21 0 0 0-1.77.22c-.19 0 .25-.32.68-.39-.68 0-1.63.52-1.24.14-.58.3-.41-.06-.12-.18-.85-.23-1.89.81-1.3.17-.26.13-.56.59-.74.61s.12-.46.35-.66a5.35 5.35 0 0 0-1.3.89c-.12.11.07-.36.34-.6-.54.23-.75.72-1.08.95-.13.09.17-.56.43-.75a2 2 0 0 0-.77 1.09c-.09.16 0-.39.22-.8-.36.41-.62 1.18-.39.41a2.35 2.35 0 0 0-.69 1.28.81.81 0 0 1 .08-.43l-.19.12v-.05.07c-.31.21-.5.39-.28 0l-.06.06a4.35 4.35 0 0 1 .67-1.57c.25-.22.67-.72.91-.94.51-.48 1.3.31 2.53.18-.58-.12-.64-.23-1.17-.38a1.06 1.06 0 0 1 .7-.24c-.48-.21-1.15-.25-1.29-.08.18-.38.6-.37.9-.44-.31-.12-.85-.08-1 .08 0-.18.15-.51.42-.55-.33-.16-.7-.06-.35-.32-.29.06-.34.23-.48.4a1.27 1.27 0 0 1 .33-.77c-.44.12-.65.67-.71 1.23a3 3 0 0 1 .14-1.25 1.73 1.73 0 0 0-.59 1.32 1.66 1.66 0 0 1-.08-1c-.28.11-.55.64-.54.41a5.43 5.43 0 0 1 .9-1.26 7 7 0 0 1 2.75-1.86c-.88 0-1.12-.06-1.24.05a4 4 0 0 1 .82-.71 6.2 6.2 0 0 0-1.39.72c-.12.07.09-.4.45-.58a2.23 2.23 0 0 0-1.22 1.09c-.12.14 0-.35.32-.63-.52.35-1 1.24-.86.76-.29.53-.34.18-.18-.06-.74.29-1 1.58-.89.81-.14.23-.14.72-.27.82s-.12-.38 0-.65a5.21 5.21 0 0 0-.55 1.31c0 .14-.12-.29 0-.6-.29.45-.22.9-.36 1.24 0 .12-.13-.49 0-.75a1.79 1.79 0 0 0-.05 1.17c0 .15-.17-.28-.22-.68-.07.48.1 1.15-.1.49a2 2 0 0 0 .16 1.41c.06.15-.21-.12-.32-.35.08.41.29 1.07.21 1s-.09-.13-.18-.47v.15a4.24 4.24 0 0 1 .53-3.86c.19-.24.62-.86 1.14-1.48l.07-.08.17-.19.07-.08.31-.33.08-.08a3.25 3.25 0 0 1 1.08-.75 2.93 2.93 0 0 0-1.42.73c-.16.18.1-.61.46-.86a1.77 1.77 0 0 0-.9.71c-.17.21-.41-.67-.12-1.29-.52.57-.42 1.35-.52 1.71s-.26-.78.07-1.16a1.61 1.61 0 0 0-.75.85c-.09.27-.13-.31 0-.51-.3.16-.65 1.45-.51.53a1.57 1.57 0 0 0-.3.81h-.21a.74.74 0 0 1 0-.07v.07a2.22 2.22 0 0 0-1.73 1.16c.6.11-.07.28-.25.34.51-.07-.1.13-.33.41.3-.15.58 0-.1.22.55 0-.14 0-.43.65.93-.63 0 .1-.24.41.4 0-.11.17-.15.51.67-.56-.34.42-.26 1.09a.92.92 0 0 1 .83.07c-.14 0-.71 0-.87.36a.74.74 0 0 1 .7 0c.25.13-.52 0-.71.2a4 4 0 0 1 .65.12c.14.06-.41 0-.51.32a3.45 3.45 0 0 1 1.46 0c.24.07-.89 0-1.2.39a2.91 2.91 0 0 1 1 0c.11 0-.52.09-.79.43.24-.16.72-.32.74-.19s-.31.18-.47.41a2 2 0 0 1 1.09-.24c.2 0-.43.09-.7.4a2.06 2.06 0 0 1 .71-.09 1.27 1.27 0 0 0-.14.75c.19-.41.12 0 .09.26a3.59 3.59 0 0 1-1.46-1 5.06 5.06 0 0 1-1.22-2.45 1.33 1.33 0 0 0 .16 1.15c.09.11-.37-.06-.45-.36 0 .49.5.82.53.92s-.3 0-.38-.32a1.15 1.15 0 0 0 .65 1c.09.09-.27 0-.45-.2.18.43.8.71.45.68.36.19.08.29-.08.18.1.64 1.06.71.48.7.16.09.54 0 .6.13s-.32.17-.52.14a2.39 2.39 0 0 0 .93.31c.1 0-.25.16-.48.12.3.2.67.06.91.14.09 0-.4.2-.59.15a4.28 4.28 0 0 1-.94-.25 5.8 5.8 0 0 1-2.18-1.39 1.22 1.22 0 0 0 .66.76c.13.06-.35.06-.56-.13.23.33.8.43.88.5s-.27.06-.48-.13a1.4 1.4 0 0 0 1 .5c.12 0-.23.08-.48 0 .35.25 1 .29.7.36.4 0 .21.18 0 .14.38.42 1.25.22.75.36.18 0 .48-.13.57-.07s-.2.2-.39.23a1.63 1.63 0 0 0 .32 0 .75.75 0 0 0-.29.24c.16-.06.34 0 0 .12.29 0-.28.15-.55.41.2-.13.5-.15.4-.1a1.31 1.31 0 0 0-.8.58c.16-.19.45-.25.4-.18s-.52.24-.68.56c.16-.19.56-.27.46-.2a1.11 1.11 0 0 0-.47.74A5.3 5.3 0 0 1 30 241a4 4 0 0 1 1-.44l-.1.07a1.54 1.54 0 0 0 .29-.13h.13l-.06.06a1.54 1.54 0 0 0-.28.18c.1 0 .47-.13.29 0a2.84 2.84 0 0 0-.86 1.07c.77-.74-.14.13-.25.91.15-.29.86-.53.61-.35a1.34 1.34 0 0 0-.64.8c.16-.26.56-.57.46-.4a1.53 1.53 0 0 0-.4.87c.27-.8.14 0 .16.34.15-.65 0 .44.2.84.1-.66 0 .27.14.42 0-.23 0-.69.16.14.17-.34 0 .23.27.62 0-.39.22.31.7.42-.23-.18-.23-.2-.12-.19a3.05 3.05 0 0 0 .68.08 3.16 3.16 0 0 1-1.07-2.07 3.88 3.88 0 0 1 .69-2.39c-.29 0 .07-.3.37.08 0-.24-.13-.34-.17-.49s0-.21.24 0c-.09-.15 0-.22.12-.31v1.19q0 .11.06.22v.05c0 .06 0 .12.06.19s-.08.35-.07.83c.15-.37.05.09.33.17a2 2 0 0 0 .31 1.24c0-.23.11-.77.12-.63 0 .75.1.89.29 1.16-.13-.71.16.28.39.39-.13-.15-.11-.62 0-.4a1.15 1.15 0 0 0 .59.62 1 1 0 0 1-.16-.65 2.57 2.57 0 0 0 .23.54 1.24 1.24 0 0 0 .29.52 1.07 1.07 0 0 1-.07-.2 4.09 4.09 0 0 0 .3.36 3.35 3.35 0 0 1-.23-1.13h.06l.14.15a3 3 0 0 0 1 1.82c-.15-.17-.24-.47-.16-.6.32.6 1 .44 1.12.64-.07-.08-.28-.24-.32-.34.26 0 .48.18.75.12-.87-.45.18-.06.61-.31a5.47 5.47 0 0 1-.78-.31 4.66 4.66 0 0 1-.54-.31l-.08-.05a4.64 4.64 0 0 1-.42-.32l-.09-.08-.15-.14.3.08a1.71 1.71 0 0 1-.49-.26l-.07-.08-.25-.3-.05-.08-.19-.28-.06-.09-.14-.26v-.09l-.09-.2v-.08l-.05-.13a5.77 5.77 0 0 1-.38-1.64v-.31c0-.83 0 1.09.79 1.68-.43-1.35 0-.13.44.22-.16-.21-.2-.5 0-1.25a2.83 2.83 0 0 0 .31 1.59c-.19-.51 0-.85.1-.91s-.14.61.17 1.16c-.15-.55 0-1 .31.09a5.33 5.33 0 0 1 .1-.94 2.75 2.75 0 0 0 .4 1.34 2.5 2.5 0 0 1 .23-1.82c.2-.26-.42 1 .33 1.82a1 1 0 0 1-.12-1c.09-.13-.13.4.36.89a1 1 0 0 1 0-.7c.22-.52 0 .28.17.7a1.31 1.31 0 0 1 .14-.82c.08-.05 0 .66.6 1.09a1.27 1.27 0 0 1-.2-1.17c.05-.19 0 .76.65 1.13a1.15 1.15 0 0 1-.19-.91c0-.19.22.73.46.88a1 1 0 0 1-.06-.82c.05-.18.08.56.56.8a.73.73 0 0 1-.22-.66c.06-.24.11.4.77.56a.94.94 0 0 1-.38-.67c0-.17.3.34.79.34-.25-.14-.38-.21-.41-.43s.33.31 1 .25c-.41-.11-.75-.52-.57-.41a2.07 2.07 0 0 0 1.3 0c-1.06.09-3.25-1.16-3.77-1.47l-.1-.05-.13-.07h-.14l-.13-.06a4.13 4.13 0 0 1-.39-.23l-.18-.13-.19-.15-.47-.42-.25-.27-.23-.28-.08-.1-.09-.12a.69.69 0 0 0 .49.15.85.85 0 0 1-.31-.58c0-.06.13 0 .4.37 0-.13-.1-.34.48.34-.38-.8.48.63 1.19 1 0-.11-.23-.28-.25-.37a4.65 4.65 0 0 0 1 .85 1.33 1.33 0 0 1-.45-.53 2.58 2.58 0 0 0 1.72.72 2.85 2.85 0 0 1-1.16-1.14c-.12-.3 1 1.21 2.39 1-.21 0-.47-.18-.48-.33.59.23 1-.33 1.23-.3a1.68 1.68 0 0 1-.44 0c.21-.17.47-.19.64-.43-.92.26.1-.17.28-.65a5.6 5.6 0 0 1-.78.31 5.09 5.09 0 0 1-.63.15 4.28 4.28 0 0 1-.55.06h-.6l-.45-.06-.38-.1-.3-.11L39 241l-.16-.08a5.57 5.57 0 0 1-.87-.59H38a.64.64 0 0 1-.35-.83c.17.17.52.51.81.51a.69.69 0 0 1-.29-.6.76.76 0 0 0 .75.39 1.41 1.41 0 0 1-.61-.49 1.84 1.84 0 0 0 1 .21c-.31-.09-.69-.34-.45-.45a3.48 3.48 0 0 1 1.12-.17l-.24-.07-.36-.08h-.45a1.56 1.56 0 0 1-.33 0c-.1 0-.11-.26-.1-.42a39.65 39.65 0 0 0 9.07-2.84 11.93 11.93 0 0 0 .37 1.14 8.28 8.28 0 0 0 .36.77v.27a.15.15 0 0 0 .13.08c.48.87 1 1.67 1.48 2.6 1 2.17 1.37 4.45 2.75 6.52a16.75 16.75 0 0 0 2.83 3.13 38.41 38.41 0 0 1-4.49 2 1.54 1.54 0 0 0-1.06-.21c-.21 0 .4-.35.79-.29-.53-.22-1.32.11-1.45.09s.3-.3.69-.23a2 2 0 0 0-1.61.2c-.17 0 .23-.29.62-.36-.62 0-1.49.48-1.13.13-.53.28-.38-.06-.11-.17-.78-.21-1.73.74-1.19.15-.24.12-.52.54-.68.56s.11-.42.32-.61a5 5 0 0 0-1.19.81c-.11.1.06-.33.32-.55-.49.21-.68.65-1 .87-.11.08.16-.52.39-.68a1.86 1.86 0 0 0-.7 1c-.08.14 0-.36.2-.73-.33.38-.57 1.08-.36.37a2.14 2.14 0 0 0-.63 1.16.72.72 0 0 1 .08-.39l-.17.11v.06c-.29.2-.45.36-.25 0h-.06a4 4 0 0 1 .6-1.43c.23-.2.61-.66.83-.86.46-.44 1.19.28 2.31.16a10.67 10.67 0 0 1-1.07-.35 1 1 0 0 1 .64-.22c-.44-.19-1-.23-1.18-.07.16-.35.55-.34.82-.41-.28-.11-.78-.07-.87.07 0-.17.14-.46.38-.51-.3-.14-.64 0-.32-.29-.26.05-.31.21-.44.36a1.18 1.18 0 0 1 .3-.71c-.4.11-.6.61-.65 1.12a2.67 2.67 0 0 1 .12-1.14 1.57 1.57 0 0 0-.54 1.21 1.5 1.5 0 0 1-.07-.92c-.25.1-.5.57-.49.37a5 5 0 0 1 .82-1.15 6.45 6.45 0 0 1 2.51-1.7c-.8 0-1-.06-1.13 0a3.61 3.61 0 0 1 .75-.65 5.67 5.67 0 0 0-1.27.66c-.11.06.08-.37.41-.53a2 2 0 0 0-1.12 1c-.11.13 0-.32.3-.58-.48.32-.89 1.13-.78.69-.26.48-.31.17-.16-.05-.68.27-.94 1.44-.81.74-.12.22-.13.66-.24.75s-.11-.35 0-.59a4.66 4.66 0 0 0-.51 1.2c0 .13-.11-.26 0-.55-.27.41-.2.82-.33 1.13 0 .11-.12-.44 0-.69a1.62 1.62 0 0 0 0 1.07c0 .14-.15-.26-.2-.62-.06.44.09 1.06-.09.45a1.87 1.87 0 0 0 .15 1.29c.05.14-.19-.11-.29-.32.08.37.27 1 .19.87s-.09-.12-.16-.43v.13a3.87 3.87 0 0 1 .49-3.53c.17-.22.56-.78 1-1.34l.07-.08.15-.17.07-.08.27-.29.08-.08a3 3 0 0 1 1-.68 2.69 2.69 0 0 0-1.3.67c-.15.16.09-.55.42-.78a1.62 1.62 0 0 0-.82.65c-.16.2-.38-.61-.11-1.18-.47.52-.38 1.23-.48 1.56s-.24-.71.06-1.06a1.48 1.48 0 0 0-.69.78c-.08.25-.12-.28 0-.47-.27.15-.6 1.32-.47.48a1.42 1.42 0 0 0-.28.74h-.19v-.07.07a2 2 0 0 0-1.58 1.06c.55.1-.06.25-.23.31.46-.06-.09.12-.3.37.27-.13.53 0-.09.2.5 0-.13 0-.4.59.85-.57 0 .09-.22.37.37 0-.1.16-.14.47.61-.51-.31.38-.24 1a.84.84 0 0 1 .76.06c-.13 0-.65 0-.8.33a.67.67 0 0 1 .64 0c.23.12-.47 0-.65.18a3.66 3.66 0 0 1 .59.11c.13.05-.37 0-.46.3a3.15 3.15 0 0 1 1.33 0c.22.06-.81 0-1.09.35a2.67 2.67 0 0 1 .93 0c.1 0-.48.09-.72.39.22-.15.66-.29.67-.18s-.28.16-.43.38a1.78 1.78 0 0 1 1-.22c.18 0-.39.08-.64.37a1.93 1.93 0 0 1 .65-.08 1.14 1.14 0 0 0-.13.68c.17-.37.11 0 .09.24a3.26 3.26 0 0 1-1.33-.93 4.61 4.61 0 0 1-1.19-2.28 1.2 1.2 0 0 0 .14 1c.08.1-.34-.05-.41-.33 0 .44.46.74.48.84s-.27 0-.35-.3a1 1 0 0 0 .59.88c.08.08-.25 0-.41-.19.17.39.74.65.41.62.33.17.07.26-.07.16.09.59 1 .65.44.64.15.08.49 0 .55.11s-.29.15-.47.13a2.19 2.19 0 0 0 .85.29c.09 0-.23.14-.44.11.28.18.61.06.83.13s-.37.18-.54.14a3.85 3.85 0 0 1-.86-.22 5.31 5.31 0 0 1-2-1.27 1.1 1.1 0 0 0 .6.69c.12.06-.32.05-.51-.12.21.3.73.4.8.46s-.25.05-.44-.12a1.28 1.28 0 0 0 .92.46c.11 0-.21.08-.44 0 .32.22.94.26.64.33.37 0 .19.16 0 .13.35.38 1.14.2.68.33.16 0 .44-.11.52-.06s-.18.19-.35.21a1.43 1.43 0 0 0 .29 0 .69.69 0 0 0-.26.22c.15-.05.31 0 0 .11.26 0-.25.13-.5.38.18-.12.45-.14.37-.09a1.19 1.19 0 0 0-.73.53c.14-.17.41-.23.36-.16s-.48.22-.63.51c.14-.17.51-.24.42-.18a1 1 0 0 0-.43.68 4.84 4.84 0 0 1 1.54-1.38 3.65 3.65 0 0 1 .92-.4l-.09.07a1.47 1.47 0 0 0 .26-.12h.12-.05a1.52 1.52 0 0 0-.26.17c.09 0 .43-.12.27 0a2.63 2.63 0 0 0-.78 1c.7-.68-.13.12-.22.83.13-.27.79-.48.56-.32a1.23 1.23 0 0 0-.58.73c.15-.24.51-.52.42-.36a1.4 1.4 0 0 0-.36.79c.25-.73.13 0 .14.31.14-.6 0 .4.18.77.09-.61 0 .24.12.39 0-.21 0-.63.14.13.15-.31 0 .21.25.57 0-.35.2.28.64.38-.21-.16-.21-.19-.1-.17a2.85 2.85 0 0 0 .62.07 2.88 2.88 0 0 1-1-1.89 3.55 3.55 0 0 1 .63-2.19c-.27 0 .06-.27.34.07 0-.22-.12-.31-.15-.45s0-.19.22 0c-.08-.14 0-.2.11-.28v1.3c0 .06 0 .11.06.17s-.07.32-.06.76c.13-.34.05.08.31.16a1.79 1.79 0 0 0 .28 1.13c0-.21.11-.7.11-.57 0 .68.09.81.26 1.06-.12-.65.15.26.36.35-.12-.14-.1-.56 0-.36a1.06 1.06 0 0 0 .53.57 1 1 0 0 1-.15-.59 2.23 2.23 0 0 0 .21.49 1.12 1.12 0 0 0 .26.48 1 1 0 0 1-.06-.18 3.84 3.84 0 0 0 .28.33 3 3 0 0 1-.22-1.09h.06l.12.14a2.76 2.76 0 0 0 1 1.67c-.13-.15-.22-.43-.15-.55.29.55.88.4 1 .58-.07-.07-.26-.22-.29-.31.24 0 .44.17.69.11-.79-.41.17-.06.56-.28a4.84 4.84 0 0 1-.72-.28 4.67 4.67 0 0 1-.49-.28l-.08-.05a4.66 4.66 0 0 1-.38-.29l-.08-.07-.13-.13.28.07a1.59 1.59 0 0 1-.45-.24l-.06-.07-.22-.27-.05-.07-.17-.26-.05-.08-.13-.23v-.08l-.09-.19v-.07l-.05-.13a5.37 5.37 0 0 1-.35-1.49v-.29c0-.76 0 1 .72 1.53-.39-1.24 0-.12.4.2-.15-.19-.18-.45 0-1.14a2.58 2.58 0 0 0 .29 1.45c-.17-.47 0-.77.09-.83s-.12.56.16 1.06c-.14-.5 0-.88.28.09a4.73 4.73 0 0 1 .09-.86 2.52 2.52 0 0 0 .37 1.23 2.28 2.28 0 0 1 .21-1.66c.19-.24-.38.9.3 1.66a.87.87 0 0 1-.11-.89c.08-.12-.12.37.33.81a.94.94 0 0 1 0-.64c.2-.48 0 .25.16.64a1.19 1.19 0 0 1 .13-.75c.07 0 0 .6.55 1a1.16 1.16 0 0 1-.19-1.07c0-.17 0 .69.59 1a1.06 1.06 0 0 1-.18-.83c0-.18.2.67.42.8a1 1 0 0 1-.06-.75c0-.17.07.51.51.73a.66.66 0 0 1-.2-.61c.05-.22.1.36.7.51a.85.85 0 0 1-.35-.61c0-.16.27.31.72.31-.23-.13-.34-.2-.37-.39s.31.28.91.23c-.37-.1-.68-.47-.52-.37a1.88 1.88 0 0 0 1.19 0c-1 .08-3-1.06-3.44-1.34h-.09l-.14-.07h-.08l-.11-.05-.35-.21-.17-.12-.17-.14a4.66 4.66 0 0 1-.44-.44l-.21-.26-.06-.09-.08-.11a.64.64 0 0 0 .45.14.77.77 0 0 1-.29-.53c0-.06.12 0 .36.34 0-.11-.09-.31.44.31-.35-.73.44.58 1.09.9 0-.1-.21-.26-.23-.34a4.27 4.27 0 0 0 .92.78 1.22 1.22 0 0 1-.41-.48 2.36 2.36 0 0 0 1.57.66 2.6 2.6 0 0 1-1.06-1c-.11-.27.9 1.11 2.18.94-.19 0-.43-.16-.44-.3.54.21.9-.3 1.12-.27a1.68 1.68 0 0 1-.4 0c.19-.16.43-.18.58-.39-.84.24.09-.16.26-.59a4.77 4.77 0 0 1-.71.29 4.69 4.69 0 0 1-.57.14 4 4 0 0 1-.5.05h-.55l-.4-.06L47 257l-.27-.1-.21-.09-.14-.07a5 5 0 0 1-.8-.54h.07a.59.59 0 0 1-.32-.76c.16.16.48.47.74.47a.63.63 0 0 1-.27-.55.69.69 0 0 0 .68.36 1.29 1.29 0 0 1-.56-.45 1.68 1.68 0 0 0 .88.19c-.29-.08-.63-.31-.41-.41a3.18 3.18 0 0 1 1-.15l-.22-.06-.33-.07h-.42a1.73 1.73 0 0 1-.3 0c-.09 0-.1-.24-.09-.39a36.38 36.38 0 0 0 10.43-3.64 11 11 0 0 0 5.37 2.51l4-53c-.91 1.13-1.62 2.47-2.43 3.63-1.4 2-3.53 3.1-5.62 4.24-3.12-1.36-10.89-6.87-23-6.56 0-.15-.06-.36 0-.43l.33-.07h.15l.16-.06h.06l.18-.08h.14l.22-.11a3.43 3.43 0 0 1-1.1.06c-.24-.06.08-.37.37-.52a1.87 1.87 0 0 0-.89.39 1.47 1.47 0 0 1 .51-.6.8.8 0 0 0-.65.53.71.71 0 0 1 .19-.64c-.28.06-.56.45-.7.65a.64.64 0 0 1 .21-.86h-.06a5.84 5.84 0 0 1 .74-.74l.14-.11.2-.14.26-.16h.05l.34-.16.39-.14h.06l.45-.11h.08a4.11 4.11 0 0 1 .52-.05h.06a4.62 4.62 0 0 1 .61 0 5.25 5.25 0 0 1 .78.14c-.24-.42-1.29-.63-.37-.57-.2-.19-.45-.16-.68-.28a1.61 1.61 0 0 1 .47-.5c-.22.09-.68-.37-1.21 0 0-.15.2-.35.41-.42-1.37.11-2.21 1.78-2.13 1.47a3 3 0 0 1 .94-1.32 2.69 2.69 0 0 0-1.54 1 1.4 1.4 0 0 1 .35-.6 4.72 4.72 0 0 0-.84 1c0-.09.18-.3.19-.4-.62.48-1.23 2-1 1.18-.45.76-.44.55-.41.42-.2.38-.29.49-.32.44a.86.86 0 0 1 .21-.62.71.71 0 0 0-.45.25l.06-.13.07-.13.13-.24.05-.09.18-.28.07-.1.12-.15.08-.1.1-.12.08-.09.1-.1.08-.08.1-.09.11-.09.1-.09.07-.06.07-.05.08-.06h.06l.1-.08.08-.07c.45-.41 2.35-2 3.38-2.17a2.05 2.05 0 0 0-1.25.22c-.15.15.11-.31.48-.5-.64.08-.91.65-.91.44s.11-.31.33-.49c-.47.1-.69.66-.7.48a1 1 0 0 1 .27-.71c-.6.29-.56.91-.65.69a.73.73 0 0 1 .11-.68c-.42.32-.33 1-.41.87a1 1 0 0 1-.06-.8c-.2.19-.23 1.1-.31.93a1.17 1.17 0 0 1 0-.91c-.53.48-.37 1.39-.45 1.21a1.24 1.24 0 0 1 0-1.17c-.53.54-.33 1.2-.41 1.17a1.21 1.21 0 0 1-.26-.76c-.11.44.23 1.16-.06.71a1 1 0 0 1-.08-.68c-.4.57-.11 1-.21.92a.92.92 0 0 1 0-1c-.6.94.19 2 0 1.81a2.31 2.31 0 0 1-.5-1.69 2.74 2.74 0 0 0-.18 1.36 5.28 5.28 0 0 1-.24-.88c-.12 1.07-.34.7-.28.15-.21.59.13 1.18 0 1.14s-.34-.32-.23-.85a2.77 2.77 0 0 0-.06 1.59c-.34-.67-.35-1-.22-1.18-.36.41-.6 1.68-.39.3-.65.73-.33 2.59-.5 1.74v-.28a5.92 5.92 0 0 1 .12-1.64c0-.1.06-.27.13-.48 0-.1.07-.22.12-.33a5.19 5.19 0 0 1 .42-.83 1.81 1.81 0 0 1 .43-.35l-.28.14.15-.21a5.12 5.12 0 0 1 .93-.9 5.86 5.86 0 0 1 .71-.46c-.39-.21-1.33.38-.57-.23zm1.42 50.35c0-.06 0-.12-.07-.18.06-.21.06-.06.07.19zm-.12-.31a2.78 2.78 0 0 1-.11-.44c.04-.03.09.02.11.45zm0-2.16q-.06.14-.11.32c0-.12 0-.24.07-.37zm-2-1.53c.09-.05 0 .07-.15.19h-.21a3 3 0 0 0 .39-.17zm.46 0l-.11.09-.29.07c.28-.09.49-.19.42-.13zm-2 .2a2.24 2.24 0 0 0 .59-.17c.09 0-.1.1-.33.21zm.59 0h-.08c.14.04.18.03.12.07zm2.87-.15l-.07.06-.13.14-.06.07-.09.1v-.13l.05-.08a1.14 1.14 0 0 1 .28-.2zm-2.83-1.14c0-.05 0 0 .06 0zm1.13.28h-.18a2.19 2.19 0 0 1 .54-.27 4 4 0 0 0-.34.33zm6 0a.25.25 0 0 1 0-.12h.1zm-5.3-8.14v.66c0 .28-.12-.25-.17-.57zm.06 6.84c-.62-.25-1-1-1.32-1.52a3.44 3.44 0 0 1 0-3.67c.35-.41 0-.87.92-1.44a2.38 2.38 0 0 0-.2 1.26c-.37.13-.23.71-.43.26 0 .61.21.83.13 1 0 .06 0 .12-.06.18a.6.6 0 0 1-.05.13v1.62c0 .08 0 .15.07.23l.06.16.1.23.07.14.13.23.07.12.16.23.07.09.19.24.05.06.23.25.29.27zm1.89.67v-.67l.12.17a.74.74 0 0 0 .07.56zm2.2-.12zm7.07-1.89a36.13 36.13 0 0 1-6.57 1.82.69.69 0 0 1 0-.09.53.53 0 0 0-.07.1H37a.68.68 0 0 1 0-.12 8.49 8.49 0 0 1 3.3-1.54 11.9 11.9 0 0 1 3.62-.11zm-2.2 23c0-.05 0-.11-.06-.17s.08-.05.09.2zm-.11-.28a2.68 2.68 0 0 1-.1-.4s.11.03.13.43zm0-2c0 .09-.07.19-.11.3 0-.11 0-.23.07-.34zm-1.83-1.39c.08-.05 0 .07-.13.18h-.19a2.48 2.48 0 0 0 .37-.12zm.42 0l-.1.09-.26.06c.28-.05.48-.14.41-.09zm-1.81.18a2 2 0 0 0 .54-.16c.09 0-.09.09-.3.19zm.54 0h-.07c.16.08.16.07.16.1zm2.62-.14l-.06.06-.12.13-.06.06-.07.08a.42.42 0 0 1 0-.08l.06-.1a1 1 0 0 1 .25-.17zm-2.58-1H39zm1 .26h-.17a2 2 0 0 1 .49-.25 3.27 3.27 0 0 0-.27.31zm5.45 0a.24.24 0 0 1 0-.11h.09zM40.65 247a5.93 5.93 0 0 0 0 .61c0 .13-.11-.23-.15-.52zm.05 6.24c-.56-.23-.88-.9-1.21-1.39a3.14 3.14 0 0 1 0-3.35c.32-.38 0-.8.84-1.31a2.2 2.2 0 0 0-.18 1.15c-.34.12-.21.65-.4.23 0 .55.19.76.11 1s0 .11-.05.16v.12a.9.9 0 0 0 0 .09v1.39l.06.21.05.15.09.2-.01.11.11.21.07.11.14.21.06.09.17.21.05.06.2.22.23.22zm1.87.66h-.14v-.62l.11.15a.68.68 0 0 0 .03.51zm8.33-1.88a33.12 33.12 0 0 1-6 1.66.58.58 0 0 1 0-.09l-.06.09h-.24a.65.65 0 0 1 0-.11 7.72 7.72 0 0 1 3-1.41 10.83 10.83 0 0 1 3.3-.1zm-22.75-50.33h.28l.12.06c.07.06-.14 0-.4-.06zm-.46 0h.25c.15.09.26.19.17.16a2.87 2.87 0 0 0-.42-.12zm-.51.09h-.08zm-.31.08c.24.06.44.14.34.13a1.55 1.55 0 0 0-.68 0zm1.41.71l.17-.06a3.37 3.37 0 0 0 .39.21 2.06 2.06 0 0 1-.56-.11zm2.78 0l.14-.08a.72.72 0 0 0 0 .55l-.09.18c-.01-.17-.03-.38-.05-.6zm-3.65.43h.05c-.01.08-.02.09-.05 0zm1.43 5.84a3.31 3.31 0 0 1-.52-3.52 3.79 3.79 0 0 1 1-1.73l.36-.23a6.42 6.42 0 0 0-.45.65c-.06.1-.12.22-.18.33-.05.1-.1.21-.14.31v.08c0 .1-.07.2-.1.3v.1c0 .1-.05.19-.07.29v1.4c0 .08.05.16.08.24s0 .13.08.19v.08l.08.13.08.15c.12.19-.05.45 0 1 .13-.48.09.11.45.15a2.29 2.29 0 0 0 .38 1.18c-.89-.22-.65-.73-1.05-1.05zm1.38 1.28v-.09l-.07.08h-.06c0-.31 0-.71.07-.57a6.09 6.09 0 0 0 .13.63zm0 .1h.16v.13a.89.89 0 0 0-.19.32.48.48 0 0 1-.01-.4zm-1.56 4.62v-.19c.04.35.05.44-.03.24zm-.06.57a2.9 2.9 0 0 1 0-.44c.04.48 0 .53-.04.49zm.22 1.33c.05.11.11.2.16.29v.06a.518.518 0 0 1-.19-.3zm4.54 1.63l.1.11h-.1a.23.23 0 0 1-.03-.06zm-4.47 0l-.08-.1.1.09h.05l.16.12h.13a1.05 1.05 0 0 1-.39-.1zm-1.55.4h.27l.12.06c.05.06-.17 0-.42-.06zm-.46 0h.25c.15.09.26.19.17.16a2.8 2.8 0 0 0-.45-.12zm-.51.09h-.08zM26 219c.24.06.43.14.34.13a1.56 1.56 0 0 0-.69 0zm1.41.72l.17-.06a3.38 3.38 0 0 0 .39.21 2.09 2.09 0 0 1-.53-.18zm1.92 7c0 .27.09.47.13.63l-.2-.05c.03-.38.08-.78.1-.65zm-.94-5.5l-.18.33-.14.31v.07c0 .1-.07.2-.11.3v.1c0 .1-.05.19-.07.29v.54a2.71 2.71 0 0 0 0 .27v.59c0 .08.05.16.08.24l.08.19v.08l.08.13c0 .05 0 .1.08.15s-.05.45 0 1c.13-.47.09.11.45.15a2.3 2.3 0 0 0 .38 1.17c-.95-.36-.7-.87-1.1-1.19a3.31 3.31 0 0 1-.52-3.52 3.79 3.79 0 0 1 1-1.73l.36-.23a6.12 6.12 0 0 0-.36.69zm-1.85-1h.05c.02-.06 0-.05-.02-.09zm3.81 0l-.09.18c0-.22-.06-.43-.07-.65l.14-.08a.71.71 0 0 0 .05.5zm5.56.11a7.91 7.91 0 0 1-3.39-.81.7.7 0 0 1 0-.11h.26l.08.08a.79.79 0 0 1 0-.09 34.22 34.22 0 0 1 6.56.41 11.63 11.63 0 0 1-3.48.48zm20.12-11.34a10.27 10.27 0 0 0-3.44 3.14c-1.17 1.83.05 3.6-.3 5.8a10.29 10.29 0 0 1-1.69 4.1 38.19 38.19 0 0 0-16.83-3.46c0-.15-.05-.36 0-.43l.33-.07h.15l.16-.06h.06l.18-.08h.14l.22-.11a3.36 3.36 0 0 1-1.1.06c-.24-.06.08-.37.37-.52a1.86 1.86 0 0 0-.89.39A1.46 1.46 0 0 1 34 217a.79.79 0 0 0-.65.53.7.7 0 0 1 .19-.64c-.28.06-.56.45-.7.65a.64.64 0 0 1 .21-.86H33a6 6 0 0 1 .74-.74l.14-.11.2-.14.26-.16h.05l.34-.16.38-.14h.06l.45-.11h.08a4.36 4.36 0 0 1 .52-.05h.06a4.51 4.51 0 0 1 .61 0 5.43 5.43 0 0 1 .78.14c-.24-.42-1.29-.63-.37-.57-.2-.19-.45-.16-.68-.28a1.64 1.64 0 0 1 .42-.12c-.22.09-.68-.38-1.21 0 0-.15.2-.35.4-.42-1.37.11-2.2 1.78-2.13 1.47a3 3 0 0 1 .94-1.32 2.69 2.69 0 0 0-1.54 1 1.41 1.41 0 0 1 .35-.6 4.76 4.76 0 0 0-.84 1c0-.09.17-.3.19-.4-.62.48-1.23 2-1 1.19-.45.76-.44.55-.41.42-.2.38-.3.48-.32.44a.87.87 0 0 1 .21-.62.69.69 0 0 0-.45.25l.06-.13.07-.13.13-.24.05-.09.18-.28.07-.09.12-.15.08-.1.1-.12.08-.09.1-.1.08-.08.1-.09.11-.09.1-.09.07-.06.07-.05.08-.06h.06l.1-.07.08-.07c.45-.4 2.35-2 3.38-2.17a2.06 2.06 0 0 0-1.25.22c-.15.14.1-.31.48-.5-.64.08-.91.65-.91.44s.11-.31.33-.49c-.47.1-.69.66-.7.48a1 1 0 0 1 .27-.71c-.6.29-.56.91-.65.69a.73.73 0 0 1 .11-.68c-.42.32-.33 1-.41.87a1 1 0 0 1-.06-.8c-.2.19-.23 1.1-.31.93a1.17 1.17 0 0 1 0-.91c-.53.48-.37 1.39-.45 1.21a1.24 1.24 0 0 1 0-1.17c-.53.54-.33 1.2-.41 1.17a1.2 1.2 0 0 1-.26-.76c-.11.44.23 1.16-.06.71a1 1 0 0 1-.08-.67c-.4.57-.11 1-.21.92a.91.91 0 0 1 0-1c-.6.94.2 2 0 1.81a2.32 2.32 0 0 1-.5-1.69 2.76 2.76 0 0 0-.18 1.36 5.05 5.05 0 0 1-.24-.87c-.12 1.07-.34.7-.28.15-.21.59.13 1.18 0 1.14s-.34-.32-.23-.85a2.76 2.76 0 0 0-.06 1.59c-.34-.67-.35-1-.22-1.18-.36.41-.6 1.68-.39.3-.65.73-.33 2.59-.5 1.74v-.28a6 6 0 0 1 .12-1.64c0-.1.06-.27.13-.47 0-.1.07-.22.12-.34a5.13 5.13 0 0 1 .42-.83 1.75 1.75 0 0 1 .43-.35l-.28.14.15-.21a5 5 0 0 1 .39-.43.85.85 0 0 0 .31.29.73.73 0 0 1-.18-.41l.08-.06a1.42 1.42 0 0 0 .84.65 1.46 1.46 0 0 1-.31-1.08h.05c.16.32.18 1.09.76 1.53-.37-.54-.28-1.43-.08-1.26a1.64 1.64 0 0 0 1 .5c-.38-.17-.75-.86-.57-.73a2.62 2.62 0 0 0 1.47.42 2.93 2.93 0 0 1-1.1-.47 11.92 11.92 0 0 1-1.51-1.2l-.08-.07-.06-.05-.49-.46a4 4 0 0 1-.94-3.87v.13a1 1 0 0 1 .1-.48 5.31 5.31 0 0 1-.05 1c.07-.24.28-.55.25-.4a2 2 0 0 0 .06 1.38c.08-.67 0 0 .17.45 0-.38.1-.84.11-.69a1.68 1.68 0 0 0 .23 1.1c-.13-.23-.14-.83-.08-.73.18.3.18.75.53 1.11-.14-.27-.12-.7-.07-.57a4.84 4.84 0 0 0 .73 1.14c-.12-.24-.19-.71-.05-.63s.21.53.38.73c-.24-.7.22.46 1 .6-.19-.2-.19-.54.16-.09-.18-.43.38.32.93.55-.32-.21-.54-.65-.41-.54a2 2 0 0 0 1.34.8c-.37-.1-.65-.51-.52-.47a5.81 5.81 0 0 0 1.45.4 3.66 3.66 0 0 1-.9-.52c.13.09.36 0 1.19-.2a6.4 6.4 0 0 1-2.91-1.22 4.88 4.88 0 0 1-1-1c0-.21.29.23.57.27a1.61 1.61 0 0 1-.08-1 1.58 1.58 0 0 0 .76 1.14 2.81 2.81 0 0 1-.32-1.17c.14.52.43 1 .87 1a1.14 1.14 0 0 1-.43-.68c.17.13.23.28.52.28-.37-.19 0-.16.29-.38-.26 0-.41-.28-.48-.45.12.13.65.05.93-.12-.3 0-.7.09-.93-.24.16.14.79 0 1.22-.34a1 1 0 0 1-.7-.08 11.05 11.05 0 0 1 1.06-.6c-1.2.13-1.83 1-2.39.69-.27-.17-.74-.56-1-.72a4 4 0 0 1-.88-1.37h.07c-.27-.32-.06-.18.27 0v.06-.05l.19.08a.76.76 0 0 1-.14-.39 2.14 2.14 0 0 0 .85 1.08c-.34-.69 0 0 .44.31-.24-.36-.44-.86-.33-.73a1.83 1.83 0 0 0 .9.89c-.27-.13-.65-.69-.52-.63.35.15.63.58 1.18.69-.3-.17-.55-.58-.42-.51a4.85 4.85 0 0 0 1.38.59c-.25-.15-.62-.54-.44-.56s.53.36.8.43c-.66-.49.49.29 1.27-.1-.3-.06-.51-.37.09-.2-.44-.29.56 0 1.21-.12-.43 0-.9-.24-.71-.24a2.12 2.12 0 0 0 1.72-.15c-.4.15-.91 0-.76-.09s1 .12 1.54-.23c-.4.15-1.1-.12-.88-.13a1.7 1.7 0 0 0 1.08-.45 38.64 38.64 0 0 1 15.62 6.25zm-15.82-6.27a11.61 11.61 0 0 1-3.46.53 7.87 7.87 0 0 1-3.39-.81.8.8 0 0 1 0-.11h.26l.08.08a.62.62 0 0 1 0-.09 34.18 34.18 0 0 1 6.54.36zm-10.53-1.46l.16.12h.13a1 1 0 0 1-.3-.13l-.08-.1.11.08zm4.56.24h-.1a.26.26 0 0 1 0-.12zm-4.45-1.5v.06c0-.12-.09-.23-.13-.35.02.11.07.21.13.29zm-.38-1.62a3.06 3.06 0 0 1 0-.44c.08.43.04.49-.01.44zm.06-.57v-.19c.07.27.08.38 0 .19z"/><path class="cls-3" d="M354.57 255.64h2.3v-1.85h5.38v1.85l2.3.01v-1.86h5.37v1.86h2.3v-1.86h5.37v1.86h2.31v-1.86h5.37v1.86h2.3v-1.86h13.05v1.86h2.3v-2.62l5.13-1.56-5.13-1.55v-.26l9.7-2.94-9.7-2.93v-.26l5.13-1.55-5.13-1.56v-2.61h-2.3v1.85h-13.05v-1.85h-2.3v1.85h-5.37v-1.85h-2.31v1.85h-5.37v-1.85h-2.3v1.85h-5.37v-1.85h-2.3v1.85h-5.38v-1.85h-2.3v1.85h-8.53v14.13h8.53v1.85zm58.05 16.86l-9.7-2.93v-.26l5.13-1.56-5.13-1.55v-2.62h-2.3v1.86h-13.05v-1.86h-2.3v1.86h-5.37v-1.86h-2.31v1.86h-5.37v-1.86h-2.3v1.86h-5.37v-1.86h-2.3v1.86h-5.38v-1.86h-2.3v1.86h-8.53v14.13h8.53v1.85h2.3v-1.85h5.38v1.85h2.3v-1.85h5.37v1.85h2.3v-1.85h5.37v1.85h2.31v-1.85h5.37v1.85h2.3v-1.85h13.05v1.85h2.3v-2.61l5.13-1.56-5.13-1.55v-.26l9.7-2.94z"/><circle class="cls-1" cx="205.7" cy="238.7" r="145.26"/><path class="cls-2" d="M311.92 145.13V144c-.87-.11-1.44.09-1.53.77.52.1.73.52 1.53.36zm-70.61 24.95c-3.62 1.16-1.43 3.73-2.3 5.37 3.28-1.32 9.84.63 9.6-4.22-2.61-1.36-4-4-5.76-6.14.34-.68.93-1.12 1.15-1.92-2.27 0-1.14-1.88-2.3-2.3-2.34.73-4.83 1.32-4.22 5 .94 1.72 4.01 1.34 3.83 4.21z"/><path class="cls-2" d="M237.09 171.61c-.38-2 .65-2.67 1.15-3.84-2.36-2.47-4.75.21-6.91 1.15.83 2-.22 2.36-.77 3.84 2.27 1.12 4.76-.52 6.53-1.15zm22.64 19.19c.16-.73 1.1-.69.77-1.92a2.16 2.16 0 0 0-1.54.38c-.1.88.09 1.45.77 1.54zm-1.15 4.6c2.54.54 2.58-2.3 1.92-3.84-2.5-.71-2.77 2.44-1.92 3.84zm11.51 1.54c-1.52.27-4.25-.67-4.61.77a6.46 6.46 0 0 0 4.22 1.54c-.27-1.18.67-1.13.39-2.31zm28.4 5.76c.58.59 2.63.68 2.3-.77-1.01.01-2.26-.21-2.3.77zm26.87 90.19c-1.57 1.1-3.57 1-4.61 2.3-1.2 1.53.36 3.87 0 5.76-.59 3.08-4 6.14-.77 10 1.66.85 3.51.05 5-.38 1.51-7.28 9.47-15.85 5-23-1.82 1.76-2.5 3.82-4.62 5.32z"/><path class="cls-2" d="M341.09 216.9c1.22 3 4.75 3.49 8.72 3.38a144.29 144.29 0 0 0-8.81-34.64 1.29 1.29 0 0 1-.26.56 1.9 1.9 0 0 1-1.92-2.3 1.84 1.84 0 0 1 1.56.24 145.22 145.22 0 0 0-23.47-38.9 29.37 29.37 0 0 0-8.8 2.59c-1.17-.53 1.13-2.31-.77-2.3h-1.53c-1.36 1 1.11 2.43 0 3.07q-4.26-.42-5 2.69c-1.26 0-1.91-.65-3.46-.38-.51 1.08 2 1 .77 1.53-2.56 0-3.64-1.48-4.22-3.45 3-.35 7 1.64 8.06-1.15-3-4.6-12.89-2.44-15.74-6.14-7.34-.58-12.4 1.78-18.8 3.07-.19 3.22-4.2 5-5.76 8.06-3.57 0-5.12 2-7.67 3.07-1 6.82 4.2 7.48 8.06 4.61 1 1.39 2.43 2.44 2.69 4.61-.83.32-1.31 1-2.69.77 0-1 .15-2.19-.38-2.69a3.77 3.77 0 0 0-3.45 1.92c.24 1.42 1 2.28.77 4.22a16 16 0 0 1-4.6.38c-2.74 3.12-6.27 7.16-11.13 6.91-.46.57-.33 1.72-1.54 1.54-1.67.3-2.78-1.07-3.07.77 2.67.88 6.93 5.13 3.45 8.44-4.23.67-9.06-1.63-11.51.77.54 5.05-1.86 6.63-.38 10.75 2.64-.34 4.44.16 4.61 2.3-1.38 4.51-7.83 3.94-7.3 10.36a40.67 40.67 0 0 0-13.43 15.35c3.84 4.65-1.2 10.15 0 16.5 2.53 2.33 6 3.76 6.52 8.06 3.8 1.43 5.53 5.89 9.59 6.14 3.13.19 6.42-2.9 10.36-.77 3-1.59 6-3.16 11.13-2.69 1 1 1.09 3 2.69 3.45 1.82.28 2.64-.43 4.22-.38 4.89 2.36 0 7.06.77 10.75.32 1.6 3 3.14 4.22 5 2.79 4.12 3 8.39 4.22 13-1.49 3.62-4.74 6.77-3.84 11.51.51 2.68 3.66 5.23 4.61 8.44.85 2.87.38 6.25 1.54 8.83 1.26 2.81 4.54 5.28 5 8.44a3.42 3.42 0 0 0 1.53 4.61c12.84-.59 22-4.9 23.79-16.5 4.76-.26 6.12-5.44 3.84-9.59 2.56-4 8-5 10.75-8.83.94-7.73-2.24-11.32-2.69-17.65 4.7-12.32 20.75-15.32 20.72-31.09-4.35.58-14 5.09-13.43-1.54 6-.69 13.08-3.53 17.27-7.29 5.85-.93 7.87-5.69 10.36-10-1.74-2.87-6.18-3-7.29-6.52-1.42 1.91-3.12 3.53-6.91 3.07-.54-5.09-6.78-4.47-6.91-10 .51-.39 1.41-.38 1.92-.77 3.29 2.83 6.54 8.6 13.02 5.81zm-47.59-34.54c3.33-.51 3.64 2 5.37 3.07a6 6 0 0 0 3.07-.77c.41-1.43-1.44-.61-1.15-1.92a4.86 4.86 0 0 1 4.22-1.15c.39 1.67-.79 1.76-1.15 2.69 1.87 3.12 7.93 2.05 8.06 6.91-6.26 2.6-11.95-4.11-16.89.38-1.08.32-1-.54-1.92-.38-1.61-.07-1.19 1.88-3.07 1.53.09-2.54.74-7.58 3.46-10.36zm-22.26-18c.28-1.17-.66-1.13-.38-2.3.79-1.13 2.55-1.28 3.07-2.69-.32-1.21-2-1.09-2.3-2.3-.29-4.51 5.49-2.95 5.76-6.91 1.29-.14 2.8-.87 3.45.38-.43 2.25-3.45 1.92-4.22 3.84-1 8.31 7.8 2.21 10.75 5-2.89.82-7.75-.33-8.83 2.3.39.75 3.7-1.12 3.07 1.54-1.08 1-1.57-.68-3.07-.38-1.34.58-1.61 2.22-1.53 4.22-2.38 1.94-5.61-.29-8.44 1.92-1.85-1.69-5.71.86-6.52-1.53 4.03-.1 6.35-1.88 9.19-3.13zm24.18 109.76c1.11.81.62 3.22 1.54 4.22-1.28-.57-2.5-2.72-1.54-4.26zm1.58-65.67c-1.07.08-1.89 1.13-3.07 1.15-5.51.09-10.11-4.83-15.73-2.69-.58 1-.09 3-.77 3.84-5.91-1.38-9.76-4.82-15.74-6.14 1-1.85 1.51-4.22 0-6.14-4.2.24-7.46.46-11.51.38-3.79-.07-5.26 2.46-8.44 3.07-1.45.27-4.55.78-5.76-1.15 2.4-1.82 7-1.45 8.83-3.84-1-4.94 5.42-4.79 6.14-9.21 3.89 1.33 5.86-.17 8.44-1.92 3 3.76 8 5.53 11.51 8.83.28 1.17-.39 1.4-.38 2.3 1.91.24 2.94-2.24 1.53-3.07 0-1 1.29-.76 2.3-.77-2.75-3.26-8.33-3.69-9.21-8.83 4 .23 6.87 4.88 11.13 6.14 0 4.65 3.47 5.74 4.61 9.21H282c1.14-.52 1.25-2.08 2.69-2.3.26-2.31-2.68-1.41-2.3-3.84 1.85.43 2.62-2.22 3.84-1.15 2.22 2.89 2.11 8.13 7.29 8.06 1.65.24 1.57-1.25 3.07-1.15a7.36 7.36 0 0 0 2.3 1.53c1.78-.14 2.4-1.43 4.61-1.15 1.78 3.28-.52 6.83-1.53 9.6-1.97.79-3.07-.91-4.97-.76zm2.68 61c-.44-3.13.62-4.75 3.84-4.22.57 1.96-1.08 5.71-3.88 4.25zm4.61 18.81c-1.46-.35-.28-1.54-.38-2.69 1.39-.29.66 2.43.34 2.71zm4.22-58c-.36-6.57-6.11-9.73-6.52-15h1.92c2.61 3.28 5.72 6.05 6.91 10.75 1.57 3.18 7 6.15 5.75 9.59 1.78 1.42 2.45 3.94 3.07 6.52-5.19-2.42-7.83-7.46-11.17-11.79zm16.49-33.7a4.52 4.52 0 0 1 1.15-3.07c-1.81-2.92-4.76-4.7-6.14-8.06 1.45-2.64 3.92-4.27 8.44-3.84 0 .9.66 1.13.38 2.3a3.49 3.49 0 0 0-3.45 1.54c1.89 3.1 4.59 4.71 7.29 6.14.39 1.29-1.2.6-1.92.77.16 2.7 3.43 3.73 2.3 6.52-2.88 1.73-6.49-.44-8.05-2.3zm-126.29 77.91c-6.27-1.26-7.8-5.62-15.73-4.61-1.58-4.51-8-2-10-5.76.86-2-2.21-3.41-1.92-6.14-2.28-3.86-7-2.22-10.36-3.45-2.78-1-3-4.86-6.14-5a17.26 17.26 0 0 0-1.15-3.07c-1.33 1.94-1.77-.85-3.84-.38-3.69 1.75-7.51 0-10.75-1.92-1.51-.1-1.43 1.39-3.07 1.15-.15-1.17 1-2-.38-2.3-1.31 1.63-3.62 2.27-6.14 2.69-1.28 1.28-1.27 3.85-3.46 4.22-1.9-1.93-5.24-1.68-7.68-.38a7.36 7.36 0 0 1-3.84-4.22 63.69 63.69 0 0 0 1.53-7.29c-1.77-2.47-5.73-.39-8.83-1.54 1.05-3.17 3.08-5.36 3.45-9.21-1.13-1.48-3.43-.31-5 0-1.15 3.59-4 5.46-9.21 5-5.75-3.53-2-10.54-.77-16.12 3.43-2.57 7.64-5.59 13-3.07 2.91-3.14 9.91-2.3 12.28 0a7.18 7.18 0 0 1-.38 3.07 7.25 7.25 0 0 0 4.61 1.54c-.07-2.74-.84-4.79-.77-7.68 3.06-4 8.23-5.84 12.66-8.44v-4.22h1.92c2-3.65 5.68-5.57 10.36-6.52 0-5.22 5.95-4.54 9.59-6.14-.41.78-1.84 1.57-.77 2.69 2.92-2.45 9.09-1.65 10.75-5.37-2.09-.56-4.71 2.68-6.52 0-.48-2.53 1.57-2.52 1.92-4.22-1-1.31-2.4.15-3.46-.77 1.46-3.55 5.36-.23 6.91.77 1.38-.95-1.74-1.5-.77-1.92 4.07.43 7-1.84 10-1.92-1.28 2.23-5.1 3.79-5 6.14 3.76-.3 6.07.84 8.83 1.54.64-1.33-.31-2.54 0-4.61-.52-.76-2.68.12-2.69-1.15.61-2.08 2.11-3.26 2.3-5.76a10.13 10.13 0 0 0-4.61-3.84c-.73-2.47 0-6.36-1.92-7.68-2.46.48-2.91 3-5.76 3.07-.66-.49-1.51-.79-1.53-1.92-.19-1.21 1.18-.87.77-2.3-1.63-.42-2.35-1.74-3.45-2.69-1.9.94-3.93-.11-6.14 0-4.78 3.64-1 14.26-11.13 13-1.05 2.27-1 5.7-4.22 5.76-2.27-2.28.06-4.09.77-6.52-5.58.46-6.62-3.61-11.9-3.45.59-2.2-.13-1.92-.77-3.45 4.28-5.18 12.44-6.49 19.19-9.21-.28 1.1-2.59 1.44-1.54 2.69 2.45.35 5.29-1.18 7.67-.38.31-2.62-4-2.67-3.45-4.22 3.9 1.5 7.89-2.26 9.59-5.37a19.54 19.54 0 0 0 5.37-.38 49.92 49.92 0 0 0 3.84 3.45c-1.88 3.37-7.95 2.54-10.75 5 1.45 1.07 3.07-.34 5 0 2 2.25 4.27 4.18 8.45 4.22.64-1.21-1.43-1.57-.38-1.92 2.07.79 3.59.75 4.22-1.54.08-1.61-1.88-1.19-1.53-3.07 1.92-1.44 2.21 1.47 3.84 1.53 1.76-.67 3.77-1.1 4.22-3.07-1.06-1.63-4.06-1.31-5-3.07-.31-1.33.57-1.47.38-2.69-2.45-1.26-6-1.4-6.91-4.22-7.62.23-17.62-1.86-18 4.61.36.92 2.79-.23 2.3 1.54a10.73 10.73 0 0 1-5 3.07c-1-.94.81-.82.38-2.3-.88-.53-2.39-.42-2.3-1.92.4-.88.24-2.32.77-3.07 1.79-.9 5.35 0 5.76-2.3-3.73-2.32-6.12 1.62-8.83 2.69.17-1.11 1.36-1.2 1.15-2.69-2.69-.58-6.09 1.21-7.68 1.92.67 1.87 2.8 1.69 4.22 1.92-1.11.92-1.35 2.11-.77 3.84a5.45 5.45 0 0 1-2.69 1.15c-.33-1.49 1.68-.63 1.15-2.3-2.38-1.35-4.29.73-5 2.3-2.91-.29-7.31.92-8.06-1.54 3.24.88 5.45-.05 7.68-1.15.27-1.54-1.62-.94-1.53-2.3.26-1.91 2.56-1.79 3.07-3.45-2-1.27-4.13 1.77-6.14 1.92s-6-2.45-6.91-2.69c-6.15-1.64-11.55 0-14.2 3.84 1.24 1.85 4.65-1.36 6.52 0-.56 1.36-.85 3-1.92 3.84-3.45-1.42-9.34-.38-12.28-2.3a43.62 43.62 0 0 1-8.68 1.49 144.82 144.82 0 0 0-31.19 61.25c1.24 2.67 1 6.8 2.74 9 .06 1.08-1.15.89-1.15 1.92.55 1.24 2.21 1.37 3.07 2.3-.43 3.19 2 5.35 3.84 5-1.68-4.46-3.38-8.9-5-13.43.6-.43.8-1.25 1.92-1.15 1.45.8 1 2 .77 3.84 2.74 4.93 6.67 8.68 8.83 14.2 0 1.26-1.09 1.47-.77 3.07 4.67 3.4 10.53 8.36 18 6.52 2.29.55 2.59 3.1 5 4.22 3.56 1.67 9.13.58 8.83 6.52 3.1 1.76 5.59 4.14 9.21 5.37.56-1.36.58-3.26 2.69-3.07 1.83 2.13 2.7 5.23 2.3 9.59-2.21 3-5.83 4.66-6.14 9.59-.21 1.36 1.36.94 1.15 2.3-.39 1.27-2.13 1.2-1.92 3.07 3.73 5.86 8 11.24 10.75 18 3.94 3.81 8.45 2.24 10.75 6.91 2.74 5.59-.35 14.54 1.54 22.26.79 3.24 1.8 8.28.38 11.9 2.53 2.08.81 8.4 3.84 10 .22-.67-.46-2.25.38-2.3a4.77 4.77 0 0 1 .77 3.45c-.06.71-1.3.23-1.53.77a5.23 5.23 0 0 1 .38 3.84c.3.85 1.8.5 1.92 1.54-.39.5-.37 1.41-.77 1.92 1 2.19 3.09 3.31 3.84 5.76a9.19 9.19 0 0 1 4.22 3.45c3.66.61 9.36 5.44 12.66 1.54-3.19-2.06-7.15-3.35-8.44-7.29 1.4-1.29 1.68-3.69 2.69-5.37-.86-1.31-3.61-.74-3.84-2.69 1.68-1.51 2.18-4.22 3.07-6.52-1.35-.18-2.42-.65-2.69-1.92 1.3-.1 3.11.3 3.84-.38.08-1.2-.26-2.82.38-3.45 7.79 1.18 7.42-5.8 4.22-8.06 1.84.08 2.81 1 5 .77 2.85-.74 2.26-4.11 3.84-6.91 1.78-3.13 6-4.65 3.84-10 2.33-2.66 5.64-4.33 10.36-4.61a22.49 22.49 0 0 0 4.22-16.89c2.36-4.55 9.68-8.78 5.39-15.31zm-57.95-87.89c0 1.72-2.77 1.15-3.84.77.47-1.07 2.36-.72 3.84-.77zM173 148.2c0 .37-.47.3-.77.38.01-.37.47-.29.77-.38zm-51 41.83c1-3.59 2.55-6.66 6.91-6.91-3.57 1.1-3.21 6.06-6.96 6.88zm6.91.38c1.15-1.15 3.51-1.1 5.37-1.53-1 1.2-3.55 2.49-5.42 1.54zm2.3-7.29c1.85-.66 3.41.5 5 .38v1.5c-2.89-.58-3.09 1.51-4.22 2.69-1.99-.5-.76-3.69-.83-4.57zm-.38-1.92c-3.43 1.66-6.39-1-9.59 0 1.93-1.71 9.21-5.57 9.54.01zm-12.67-36.08c1.66-.52 4.66.62 6.91.77-1 .83-5.08.51-6.91.38zm-.38 24.56c.15 1.56-.14 2.67-1.53 2.68-.83-.95-.5-3.27 1.48-2.67zm-14.2-12.28c1.31-1.06 3.32-3.06 5-1.54-1.12 1.14-3 1.42-5.05 1.55zm4.61-7.68c-2.59-.42-3.38 1-5.75.77-.35-2.49 5.56-3.39 5.69-.76zm27.63 99c-.67-.09-.88-.66-.77-1.54 1.14-.18 1.32 1 .72 1.57z"/></g></g></svg>