<svg xmlns="http://www.w3.org/2000/svg" xmlns:xlink="http://www.w3.org/1999/xlink" viewBox="0 0 501.7 578.67"><defs><style>.cls-1{isolation:isolate}.cls-2{fill:url(#linear-gradient)}.cls-3{fill:#535997}.cls-11,.cls-14,.cls-17,.cls-27,.cls-35,.cls-36,.cls-37,.cls-38,.cls-39,.cls-4,.cls-40{mix-blend-mode:multiply}.cls-4{fill:url(#linear-gradient-2)}.cls-5{font-size:36.29px}.cls-13,.cls-16,.cls-23,.cls-25,.cls-30,.cls-32,.cls-34,.cls-5{fill:#26685d}.cls-13,.cls-5{font-family:RobotoCondensed-Bold,RobotoCondensed Bold;font-weight:700}.cls-6{letter-spacing:0}.cls-7{letter-spacing:-.01em}.cls-8{letter-spacing:0}.cls-9{fill:url(#linear-gradient-3)}.cls-10{letter-spacing:.02em}.cls-11{fill:url(#linear-gradient-4)}.cls-12{fill:url(#linear-gradient-5)}.cls-13{font-size:31.2px}.cls-14{fill:url(#linear-gradient-6)}.cls-15{fill:url(#linear-gradient-7)}.cls-16{font-size:37.73px}.cls-16,.cls-23,.cls-25,.cls-27,.cls-30,.cls-32,.cls-34{font-family:Lato-Regular,Lato}.cls-17{fill:url(#linear-gradient-8)}.cls-18{fill:url(#linear-gradient-9)}.cls-19{fill:url(#linear-gradient-10)}.cls-20{fill:url(#linear-gradient-11)}.cls-21{fill:#cbdf89}.cls-22{fill:#3d85c2}.cls-23{font-size:28.84px}.cls-24{fill:url(#linear-gradient-12)}.cls-25{font-size:30.83px}.cls-26{fill:url(#linear-gradient-13)}.cls-27{font-size:30px}.cls-28{letter-spacing:-.02em}.cls-29{fill:url(#linear-gradient-14)}.cls-30{font-size:33.51px}.cls-31{fill:url(#linear-gradient-15)}.cls-32{font-size:31.7px}.cls-33{fill:url(#linear-gradient-16)}.cls-34{font-size:26px}.cls-35{fill:url(#linear-gradient-17)}.cls-36{fill:url(#linear-gradient-18)}.cls-37{fill:url(#linear-gradient-19)}.cls-38{fill:url(#linear-gradient-20)}.cls-39{fill:url(#linear-gradient-21)}.cls-40{fill:url(#linear-gradient-22)}</style><linearGradient id="linear-gradient" x1="-1600.71" y1="125.31" x2="-1424.77" y2="125.31" gradientTransform="translate(1882.8)" gradientUnits="userSpaceOnUse"><stop offset="0" stop-color="#e4e4aa"/><stop offset="1" stop-color="#fff"/></linearGradient><linearGradient id="linear-gradient-2" x1="-1600.71" y1="125.31" x2="-1424.77" y2="125.31" gradientTransform="translate(1882.8)" gradientUnits="userSpaceOnUse"><stop offset="0" stop-color="#ccbb87"/><stop offset=".05" stop-color="#d4c59a"/><stop offset=".15" stop-color="#e1d7b9"/><stop offset=".26" stop-color="#ece6d2"/><stop offset=".39" stop-color="#f5f1e6"/><stop offset=".53" stop-color="#faf9f4"/><stop offset=".7" stop-color="#fefefd"/><stop offset="1" stop-color="#fff"/></linearGradient><linearGradient id="linear-gradient-3" x1="-1600.71" y1="255.56" x2="-1424.77" y2="255.56" xlink:href="#linear-gradient"/><linearGradient id="linear-gradient-4" x1="-1600.71" y1="255.55" x2="-1424.77" y2="255.55" gradientTransform="translate(1882.8)" gradientUnits="userSpaceOnUse"><stop offset="0" stop-color="#ccbb87"/><stop offset="0" stop-color="#cdbc8a"/><stop offset=".06" stop-color="#dacea9"/><stop offset=".13" stop-color="#e6ddc4"/><stop offset=".21" stop-color="#efeada"/><stop offset=".3" stop-color="#f6f3eb"/><stop offset=".41" stop-color="#fbfaf6"/><stop offset=".57" stop-color="#fefefd"/><stop offset="1" stop-color="#fff"/></linearGradient><linearGradient id="linear-gradient-5" x1="-4884.18" y1="84.22" x2="-4711.99" y2="84.22" gradientTransform="matrix(-.99 -.1 -.1 .99 -4612.85 -321.53)" xlink:href="#linear-gradient"/><linearGradient id="linear-gradient-6" x1="-4884.18" y1="84.21" x2="-4711.98" y2="84.21" gradientTransform="matrix(-.99 -.1 -.1 .99 -4612.85 -321.53)" gradientUnits="userSpaceOnUse"><stop offset="0" stop-color="#ccbb87"/><stop offset="1" stop-color="#fff"/></linearGradient><linearGradient id="linear-gradient-7" x1="-6269.79" y1="116.9" x2="-6079.13" y2="116.9" gradientTransform="matrix(-1 0 0 1 -6030.55 0)" xlink:href="#linear-gradient"/><linearGradient id="linear-gradient-8" x1="-6269.79" y1="116.89" x2="-6079.12" y2="116.89" gradientTransform="matrix(-1 0 0 1 -6030.55 0)" xlink:href="#linear-gradient-6"/><linearGradient id="linear-gradient-9" x1="246.1" y1="578.67" x2="246.1" y2="14.63" gradientUnits="userSpaceOnUse"><stop offset="0" stop-color="#16aab2"/><stop offset=".2" stop-color="#19abb2"/><stop offset=".34" stop-color="#22adb2"/><stop offset=".47" stop-color="#32b2b1"/><stop offset=".59" stop-color="#49b8b0"/><stop offset=".7" stop-color="#66c0af"/><stop offset=".8" stop-color="#89cbae"/><stop offset=".9" stop-color="#b3d6ac"/><stop offset="1" stop-color="#e3e4aa"/><stop offset="1" stop-color="#e4e4aa"/></linearGradient><linearGradient id="linear-gradient-10" x1="-7016.83" y1="578.67" x2="-7016.83" y2="14.63" gradientTransform="matrix(-1 0 0 1 -6743.22 0)" gradientUnits="userSpaceOnUse"><stop offset="0" stop-color="#1aaec9"/><stop offset=".12" stop-color="#1eb0ca"/><stop offset=".25" stop-color="#2bb4cd"/><stop offset=".39" stop-color="#41bcd2"/><stop offset=".53" stop-color="#5fc6d9"/><stop offset=".67" stop-color="#85d4e2"/><stop offset=".81" stop-color="#b4e5ed"/><stop offset=".95" stop-color="#ebf8fa"/><stop offset="1" stop-color="#fff"/></linearGradient><linearGradient id="linear-gradient-11" x1="9.64" y1="54.19" x2="248.17" y2="54.19" gradientUnits="userSpaceOnUse"><stop offset="0" stop-color="#fff"/><stop offset="1" stop-color="#e4e4aa"/></linearGradient><linearGradient id="linear-gradient-12" x1="271.42" y1="59.8" x2="492.06" y2="59.8" xlink:href="#linear-gradient"/><linearGradient id="linear-gradient-13" x1="271.17" y1="181.14" x2="440.53" y2="181.14" xlink:href="#linear-gradient"/><linearGradient id="linear-gradient-14" x1="71.68" y1="190.7" x2="247.75" y2="190.7" xlink:href="#linear-gradient-11"/><linearGradient id="linear-gradient-15" x1="72.15" y1="311.4" x2="248.98" y2="311.4" xlink:href="#linear-gradient-11"/><linearGradient id="linear-gradient-16" x1="271.17" y1="320.36" x2="419.95" y2="320.36" xlink:href="#linear-gradient"/><linearGradient id="linear-gradient-17" x1="9.63" y1="54.18" x2="248.17" y2="54.18" gradientUnits="userSpaceOnUse"><stop offset="0" stop-color="#fff"/><stop offset=".29" stop-color="#fefefc"/><stop offset=".46" stop-color="#faf9f4"/><stop offset=".61" stop-color="#f4f1e6"/><stop offset=".73" stop-color="#ece5d2"/><stop offset=".85" stop-color="#e1d6b7"/><stop offset=".95" stop-color="#d3c498"/><stop offset="1" stop-color="#ccbb87"/></linearGradient><linearGradient id="linear-gradient-18" x1="271.42" y1="59.79" x2="492.06" y2="59.79" xlink:href="#linear-gradient-2"/><linearGradient id="linear-gradient-19" x1="271.17" y1="181.14" x2="440.52" y2="181.14" xlink:href="#linear-gradient-4"/><linearGradient id="linear-gradient-20" x1="71.68" y1="190.69" x2="247.75" y2="190.69" gradientUnits="userSpaceOnUse"><stop offset="0" stop-color="#fff"/><stop offset="1" stop-color="#ccbb87"/></linearGradient><linearGradient id="linear-gradient-21" x1="72.15" y1="311.39" x2="248.98" y2="311.39" gradientUnits="userSpaceOnUse"><stop offset="0" stop-color="#fff"/><stop offset=".23" stop-color="#fefdfc"/><stop offset=".41" stop-color="#faf8f2"/><stop offset=".57" stop-color="#f3efe2"/><stop offset=".72" stop-color="#e9e2cb"/><stop offset=".86" stop-color="#dcd1ae"/><stop offset=".99" stop-color="#cdbd8a"/><stop offset="1" stop-color="#ccbb87"/></linearGradient><linearGradient id="linear-gradient-22" x1="271.17" y1="320.35" x2="419.95" y2="320.35" xlink:href="#linear-gradient-4"/></defs><title>Fact03</title><g class="cls-1"><g id="Layer_2" data-name="Layer 2"><g id="Layer_1-2" data-name="Layer 1"><path class="cls-2" d="M284.17 124.16l161.59 42.56 12.27-13.88-11.11-17.59-164.83-51.36 2.08 40.27z"/><path class="cls-3" d="M445.76 166.72l-7.63 1.62-154.19-39.45.23-4.73 161.59 42.56z"/><path class="cls-4" d="M284.17 124.16l161.59 42.56 12.27-13.88-11.11-17.59-164.83-51.36 2.08 40.27z"/><text class="cls-5" transform="matrix(.67 .18 -.03 1 335.46 133.51)"><tspan class="cls-6">A</tspan><tspan class="cls-7" x="22.1" y="0">r</tspan><tspan x="33.67" y="0">ge</tspan><tspan class="cls-8" x="72.13" y="0">n</tspan><tspan x="92.13" y="0">tina</tspan></text><path class="cls-9" d="M284.17 254.41l161.59 42.57 12.27-13.88-11.11-17.59-164.83-51.36 2.08 40.26z"/><path class="cls-3" d="M445.76 296.98l-7.63 1.62-154.19-39.45.23-4.74 161.59 42.57z"/><text class="cls-5" transform="matrix(.67 .18 -.03 1 376.46 272.77)"><tspan class="cls-10">I</tspan><tspan x="9.25" y="0">taly</tspan></text><path class="cls-11" d="M284.17 254.4l161.59 42.57 12.26-13.88-11.1-17.59-164.84-51.36 2.09 40.26z"/><path class="cls-12" d="M234.93 261.45L75.01 285.44l-11.69-16.33 13.92-17.74 164.39-33.1-6.7 43.18z"/><path class="cls-3" d="M75.01 285.44l8.05 2.58 151.6-21.43.27-5.14-159.92 23.99z"/><text class="cls-13" transform="matrix(.89 -.15 .05 1 82.86 278.21)">China</text><path class="cls-14" d="M234.93 261.44L75.01 285.42 63.32 269.1l13.91-17.74 164.39-33.1-6.69 43.18z"/><path class="cls-15" d="M237.16 113.66L60.84 160.4l-12.26-13.88 11.1-17.59L239.24 73.4l-2.08 40.26z"/><path class="cls-3" d="M60.84 160.4l7.63 1.62 168.92-43.62-.23-4.74L60.84 160.4z"/><text class="cls-16" transform="matrix(.74 -.2 -.05 1 74.05 153.39)">USA</text><path class="cls-17" d="M237.16 113.65L60.84 160.39l-12.27-13.88 11.11-17.59 179.56-55.53-2.08 40.26z"/><path class="cls-18" d="M259.86 14.63l-27.52 8.77v555.27h27.52V14.63z"/><path class="cls-19" d="M259.86 14.63l27.51 8.77v555.27h-27.51V14.63z"/><path class="cls-20" d="M248.17 66.19v42.18L25.64 48.25l-16-29.33L25.88.01l222.29 66.18z"/><path class="cls-21" d="M25.88.01l-7.45 1.94L0 21.44l9.64-2.52L25.88.01z"/><path class="cls-22" d="M0 21.44l17.89 29.93 7.75-3.12-16-29.33L0 21.44z"/><path class="cls-3" d="M17.89 51.37l220.8 59.79 9.48-2.79L25.64 48.25l-7.75 3.12z"/><text class="cls-23" transform="matrix(.88 .24 -.07 1 39.73 39.61)">The Netherlands</text><path class="cls-24" d="M271.42 65.74v42.18l204.64-48.01 16-29.33-16.24-18.91-204.4 54.07z"/><path class="cls-21" d="M475.82 11.67l7.45 1.94L501.7 33.1l-9.64-2.52-16.24-18.91z"/><path class="cls-22" d="M501.7 33.1l-17.9 29.93-7.74-3.12 16-29.33 9.64 2.52z"/><path class="cls-3" d="M483.8 63.03l-202.9 47.68-9.48-2.79 204.64-48.01 7.74 3.12z"/><text class="cls-25" transform="matrix(1.01 -.24 -.03 1 328.75 83.43)">Singapore</text><path class="cls-26" d="M271.17 175l144.74-32.85 24.62 20.18-23.77 30.25-145.59 27.55V175z"/><path class="cls-21" d="M415.91 142.15l7.18 1.2 24.1 20.34-6.66-1.36-24.62-20.18z"/><path class="cls-22" d="M447.19 163.69l-24.44 30.6-5.99-1.71 23.77-30.25 6.66 1.36z"/><path class="cls-3" d="M422.75 194.29L280.4 221.16l-9.23-1.03 145.59-27.55 5.99 1.71z"/><text class="cls-27" transform="matrix(.98 -.19 .01 1 306.48 198.89)">Mal<tspan class="cls-28" x="50.49" y="0">a</tspan><tspan x="65.22" y="0">ysia</tspan></text><path class="cls-29" d="M247.75 183.69L96.3 152.58l-24.62 18.98 23.76 30.25 152.31 27.01v-45.13z"/><path class="cls-21" d="M96.3 152.58l-7.18 1.2-24.1 19.14 6.66-1.36 24.62-18.98z"/><path class="cls-22" d="M65.02 172.92l24.44 30.6 5.98-1.71-23.76-30.25-6.66 1.36z"/><path class="cls-3" d="M89.46 203.52l149.06 26.33 9.23-1.03-152.31-27.01-5.98 1.71z"/><text class="cls-30" transform="matrix(.9 .16 .01 1 99.52 191.31)">UK</text><path class="cls-31" d="M248.98 297.11v37.46l-161-6.95-15.83-21.63 15.3-17.76 161.53 8.88z"/><path class="cls-21" d="M87.45 288.23h-6.86l-15.57 18.46 7.13-.7 15.3-17.76z"/><path class="cls-22" d="M65.02 306.69l15.22 21.46 7.74-.53-15.83-21.63-7.13.7z"/><path class="cls-3" d="M80.24 328.15l165.86 7.19 2.88-.77-161-6.95-7.74.53z"/><text class="cls-32" transform="matrix(.94 .05 .03 1 91.79 319.86)">Vietnam</text><path class="cls-33" d="M271.17 309.33v37.46l132.95-13.47 15.83-21.63-15.3-17.76-133.48 15.4z"/><path class="cls-21" d="M404.65 293.93h6.86l15.57 18.46-7.13-.7-15.3-17.76z"/><path class="cls-22" d="M427.08 312.39l-15.22 21.46-7.74-.53 15.83-21.63 7.13.7z"/><path class="cls-3" d="M411.86 333.85l-137.81 13.72-2.88-.78 132.95-13.47 7.74.53z"/><text class="cls-34" transform="matrix(1.05 -.12 -.02 1 295.97 334.76)">Myanmar</text><path class="cls-35" d="M248.17 66.18v42.18L25.63 48.24l-16-29.33L25.88 0l222.29 66.18z"/><path class="cls-36" d="M271.42 65.73v42.18L476.06 59.9l16-29.33-16.25-18.91-204.39 54.07z"/><path class="cls-37" d="M271.17 175l144.74-32.84 24.61 20.16-23.76 30.26-145.59 27.55V175z"/><path class="cls-38" d="M247.75 183.68L96.3 152.57l-24.62 18.97 23.76 30.26 152.31 27.01v-45.13z"/><path class="cls-39" d="M248.98 297.1v37.46l-161.01-6.95-15.82-21.63 15.3-17.77 161.53 8.89z"/><path class="cls-40" d="M271.17 309.32v37.46l132.95-13.47 15.83-21.63-15.3-17.77-133.48 15.41z"/></g></g></g></svg>