<svg xmlns="http://www.w3.org/2000/svg" viewBox="0 0 243.16 262.91"><defs><style>.cls-1,.cls-3,.cls-4{fill:none;stroke-linecap:round;stroke-linejoin:round}.cls-1{stroke:#7f7f7f}.cls-1,.cls-4{stroke-width:2.5px}.cls-2{fill:#791029}.cls-3{stroke:#736458;stroke-width:4px}.cls-4{stroke:#8e8e8e}.cls-5{fill:#921928}.cls-6{fill:#736458}.cls-7{fill:#998776}</style></defs><title>Fact05</title><g id="Layer_2" data-name="Layer 2"><g id="Layer_1-2" data-name="Layer 1"><path class="cls-1" d="M198.4 243.37v-16.43a9.29 9.29 0 0 1 6.49-8.85l15.11-4.77a11.15 11.15 0 0 0 7.68-9l14.23-97.88H133.4l14.23 97.88a11.15 11.15 0 0 0 7.68 9l15.07 4.76a9.29 9.29 0 0 1 6.49 8.88v16.42c-16.93 1.09-29.36 4.7-29.36 9 0 5.14 18 9.31 40.17 9.31s40.17-4.17 40.17-9.31c-.03-4.32-12.48-7.92-29.45-9.01z"/><path class="cls-2" d="M150.59 160.12l5.65 38.83a8.87 8.87 0 0 0 6.11 7.19l14.41 2.12a77.8 77.8 0 0 0 22.66 0l14.41-2.12a8.87 8.87 0 0 0 6.11-7.19l4.78-32.86c-14.66-2.92-26-9.72-48.27-10a74.82 74.82 0 0 0-25.86 4.03z"/><path class="cls-3" d="M43.34 79.05s-19.58-1.18-16.8 17.52c1.45 9.74 1.87 23.63-5.18 27.37"/><path class="cls-3" d="M45.64 82s-15.4-12.13-23.78 4.83C17.5 95.66 9.92 107.31 2 106.35"/><path class="cls-4" d="M16 169.37c8.7-24.16 27.23-64.53 25.59-99.45S24.27 1.25 24.27 1.25h68.2S76.79 35 75.15 69.92s16.9 75.3 25.59 99.45c7 19.48 16.6 55.29-8.27 82.4-2.87 3.76-17 6.63-34.09 6.63s-31.23-2.86-34.09-6.63C-.61 224.67 9 188.85 16 169.37z"/><path class="cls-5" d="M58.37 251.78c-19.91 0-28.42-3.74-29.16-4.43a4.05 4.05 0 0 0-.39-.44c-9.6-10.51-14.41-23.76-14.23-39.33.12-10.69 2.52-22.39 7.34-35.78.58-1.62 1.22-3.33 1.89-5.11a127.88 127.88 0 0 0 23.69-9.4c12.64-6.5 25.12-10.66 37.13-12.36 1.83 5 3.65 9.69 5.27 13.9 1.82 4.72 3.5 9.1 4.89 13 4.82 13.39 7.22 25.1 7.34 35.78.17 15.58-4.62 28.81-14.24 39.34a5.06 5.06 0 0 0-.42.49c-.69.56-9.21 4.34-29.11 4.34z"/><path class="cls-6" d="M40 82.16h36.72a3.12 3.12 0 0 0 3.11-3.11 3.12 3.12 0 0 0-3.11-3.11H40a3.12 3.12 0 0 0-3.11 3.11A3.12 3.12 0 0 0 40 82.16zM40 70h36.72a3.12 3.12 0 0 0 3.11-3.11 3.12 3.12 0 0 0-3.11-3.11H40a3.12 3.12 0 0 0-3.11 3.11A3.12 3.12 0 0 0 40 70z"/><path class="cls-7" d="M40 76.1h36.72a3.12 3.12 0 0 0 3.11-3.1 3.12 3.12 0 0 0-3.11-3.11H40A3.12 3.12 0 0 0 36.91 73 3.12 3.12 0 0 0 40 76.1zm0 11.82h36.72a3.12 3.12 0 0 0 3.11-3.11 3.12 3.12 0 0 0-3.11-3.11H40a3.12 3.12 0 0 0-3.11 3.11A3.12 3.12 0 0 0 40 87.92z"/></g></g></svg>