<svg id="Layer_1" data-name="Layer 1" xmlns="http://www.w3.org/2000/svg" viewBox="0 0 78 60.86"><defs><style>.cls-1{fill:#3c7385}</style></defs><title>how-work-compare</title><g id="_Group_" data-name="&amp;lt;Group&amp;gt;"><g id="_Group_2" data-name="&amp;lt;Group&amp;gt;"><path id="_Compound_Path_" data-name="&amp;lt;Compound Path&amp;gt;" class="cls-1" d="M4594.88 1076.34v30.27H4642v-30.27h-47.08zm3.57 16.39h8.62v2.94h-8.62v-2.94zm9.67 10.09h-9.35v-2.94h9.35v2.94zm.42-10.09h8.62v2.94h-8.62v-2.94zm9.67 4.3v1.29h-4.1V1097h4.1zm5.25 5.79h-13.34v-2.94h13.34v2.94zm3.57-4.51h-7.88V1097h7.85v1.29zm.21-2.64h-8.62v-2.94h8.62v2.94zm10.09 0h-8.62v-2.94h8.62v2.94zm.42-6.94h-8.2v-8.41h8.2v8.41z" transform="translate(-4594.88 -1076.34)"/><path id="_Compound_Path_2" data-name="&amp;lt;Compound Path&amp;gt;" class="cls-1" d="M4644.35 1091v16.39h8v2.94h-8v.19h-34.5v10.74h47.08V1091h-12.58zm-15.27 20.69h4.1v1.31h-4.1v-1.29zm-6 5.79h-9.35v-2.94h9.35v2.94zm15.34 0h-13.35v-2.94h13.35v2.94zm3.57-4.5h-7.88v-1.29h7.89v1.31zm10.72-9.58h-8.2v-8.4h8.2v8.41z" transform="translate(-4594.88 -1076.34)"/><path id="_Compound_Path_3" data-name="&amp;lt;Compound Path&amp;gt;" class="cls-1" d="M4660.3 1106.94v16.39h8v2.94h-8v.19h-34.5v10.74h47.08v-30.26h-12.58zm-15.3 20.68h4.1v1.29h-4.1v-1.29zm-6 5.79h-9.35v-2.94h9.35v2.94zm15.34 0H4641v-2.94h13.34v2.94zm3.57-4.51h-7.88v-1.29h7.97v1.29zm10.72-9.58h-8.2v-8.41h8.2v8.41z" transform="translate(-4594.88 -1076.34)"/></g></g></svg>