<svg width="234" height="171" viewBox="0 0 234 171" xmlns="http://www.w3.org/2000/svg"><title>Skyline</title><g fill="none" fill-rule="evenodd"><g stroke-width="3.85" stroke="#3B7282"><path d="M47.1 168.171h186.183M226.065 167.921s.332-127.42.132-143.719c-.2-16.298-5.42-22.674-5.42-22.674M190.4 168.099s-.331-127.422-.131-143.72c.2-16.298 5.42-22.674 5.42-22.674M191.439 13.032l33.569-.243M197.645 12.849s-.204-.199.816-4.651c.954-4.166 2.413-6.338 2.413-6.338M219.055 12.704s.205-.199-.815-4.652c-.954-4.165-2.414-6.337-2.414-6.337M203.932 12.663c.977-6.752 2.52-10.566 2.52-10.566M212.936 12.534c-.977-6.751-2.52-10.566-2.52-10.566M164.27 168.455V59.528l-15.446-17.55-15.446 17.55v108.927M148.246 41.978v126.477"/><path d="M133.378 59.528l15.446 21.938-15.446 21.939 15.446 21.938-15.446 21.938 15.446 19.744M148.824 167.025l15.446-19.744-15.446-21.938 15.446-21.938-15.446-21.939 15.446-21.938M164.27 103.405l14.571 22.598v42.452"/><path d="M178.841 126.003L164.27 147.28l14.571 19.286M148.246 41.978V13.003M158.14 52.03V18.798M148.824 30.388l9.617 5.795v-5.795l-9.617-5.795M97.365 143.757s-5.341-17.926-24.256-17.753c-17.622.162-24.256 17.753-24.256 17.753M92.9 148.567s8.858-9.337 20.463-9.247c10.811.084 13.021 9.247 13.021 9.247M59.418 165.61h29.018M95.133 152.442h29.019M95.133 159.026h29.019M95.133 165.61h29.019M61.392 137.1v24.413M85.579 137.1v24.413M190.498 24.045h34.972M190.498 37.214h34.972M190.498 51.48h34.972M190.498 64.65h34.972M190.498 78.916h34.972M190.498 92.084h34.972M190.498 106.35h34.972M190.498 119.52h34.972M190.498 132.688h34.972M190.498 146.955h34.972M190.498 160.123h34.972"/></g><path d="M6.83 98.447c0-.372-.053-.712-.158-1.022a2.294 2.294 0 0 0-.459-.8 2.048 2.048 0 0 0-.734-.522 2.476 2.476 0 0 0-.98-.185c-.769 0-1.376.223-1.823.67-.447.448-.724 1.067-.833 1.859H6.83zm1.296 4.275c-.199.24-.435.448-.711.626a4.427 4.427 0 0 1-.887.436 5.964 5.964 0 0 1-1.975.342c-.63 0-1.211-.106-1.742-.32a3.822 3.822 0 0 1-1.377-.935c-.387-.412-.688-.92-.904-1.526-.217-.606-.325-1.302-.325-2.088 0-.636.098-1.23.293-1.782a4.2 4.2 0 0 1 .841-1.435 3.874 3.874 0 0 1 1.341-.955c.529-.23 1.122-.346 1.783-.346.546 0 1.051.091 1.516.274a3.43 3.43 0 0 1 1.206.792c.339.346.604.771.796 1.278.193.508.289 1.085.289 1.733 0 .252-.027.42-.082.504-.054.084-.155.126-.306.126H1.79c.018.576.097 1.077.238 1.503.141.426.337.781.59 1.067.252.285.551.497.9.638a3.09 3.09 0 0 0 1.17.212c.402 0 .748-.046 1.039-.14.291-.093.541-.193.752-.301.21-.108.385-.209.526-.301.141-.093.262-.14.365-.14.132 0 .233.051.306.153l.45.585zM17.72 104h-1.54a.441.441 0 0 1-.31-.103.955.955 0 0 1-.184-.23l-2.296-3.573c-.024.084-.049.166-.076.248a.805.805 0 0 1-.113.22l-2.123 3.105c-.06.084-.125.16-.194.23a.383.383 0 0 1-.284.103H9.17l3.194-4.68-3.069-4.437h1.54c.132 0 .227.021.287.063.06.042.114.102.162.18l2.241 3.42c.049-.174.123-.342.226-.504l1.962-2.88a.845.845 0 0 1 .175-.203.353.353 0 0 1 .23-.076h1.476l-3.07 4.356L17.72 104zm3.087-2.196c.294.396.614.675.963.837a2.74 2.74 0 0 0 1.17.243c.852 0 1.505-.303 1.961-.909.457-.606.684-1.47.684-2.592 0-.594-.052-1.104-.157-1.53-.105-.426-.256-.775-.454-1.048a1.768 1.768 0 0 0-.73-.599 2.425 2.425 0 0 0-.98-.189c-.523 0-.98.12-1.373.36s-.754.579-1.084 1.017v4.41zm-.081-5.508a4.723 4.723 0 0 1 1.332-1.143c.504-.288 1.08-.432 1.727-.432.529 0 1.005.1 1.431.301.427.202.79.498 1.09.891.3.394.53.881.692 1.463.163.582.243 1.251.243 2.007a6.29 6.29 0 0 1-.27 1.877c-.18.579-.439 1.08-.778 1.502a3.659 3.659 0 0 1-1.242 1 3.66 3.66 0 0 1-1.652.364c-.558 0-1.036-.094-1.435-.284a3.373 3.373 0 0 1-1.058-.787v4.032h-1.61V94.883h.962c.229 0 .37.111.423.333l.145 1.08zm14.66 2.151c0-.372-.052-.712-.157-1.022a2.294 2.294 0 0 0-.459-.8 2.048 2.048 0 0 0-.734-.522 2.476 2.476 0 0 0-.98-.185c-.769 0-1.376.223-1.823.67-.447.448-.724 1.067-.832 1.859h4.985zm1.296 4.275c-.198.24-.434.448-.71.626a4.427 4.427 0 0 1-.887.436 5.964 5.964 0 0 1-1.976.342c-.63 0-1.21-.106-1.741-.32a3.822 3.822 0 0 1-1.377-.935c-.387-.412-.688-.92-.904-1.526-.217-.606-.325-1.302-.325-2.088 0-.636.098-1.23.293-1.782a4.2 4.2 0 0 1 .841-1.435 3.874 3.874 0 0 1 1.341-.955c.529-.23 1.122-.346 1.783-.346.546 0 1.051.091 1.516.274a3.43 3.43 0 0 1 1.206.792c.339.346.604.771.797 1.278.192.508.288 1.085.288 1.733 0 .252-.027.42-.081.504-.055.084-.156.126-.306.126h-6.093c.018.576.097 1.077.238 1.503.141.426.337.781.59 1.067.252.285.551.497.9.638a3.09 3.09 0 0 0 1.17.212c.402 0 .748-.046 1.039-.14.291-.093.541-.193.752-.301.21-.108.385-.209.526-.301.141-.093.262-.14.364-.14.133 0 .234.051.306.153l.45.585zm3.627-6.012c.289-.624.642-1.111 1.063-1.462.42-.352.932-.527 1.538-.527.193 0 .377.021.554.063.177.042.334.108.473.198l-.117 1.197c-.037.15-.126.225-.27.225-.085 0-.207-.018-.37-.054a2.54 2.54 0 0 0-.548-.054 2.19 2.19 0 0 0-.77.126 1.8 1.8 0 0 0-.603.374 2.64 2.64 0 0 0-.477.611c-.141.244-.268.521-.382.833V104h-1.611v-9.117h.917c.175 0 .294.033.36.099.067.066.111.18.136.342l.108 1.386zm7.83 7.434c-.72 0-1.273-.201-1.66-.603-.387-.402-.58-.981-.58-1.737v-5.58H44.8a.359.359 0 0 1-.242-.086c-.067-.057-.1-.145-.1-.265v-.639l1.495-.189.368-2.817a.355.355 0 0 1 .369-.306h.81v3.141h2.638v1.161H47.5v5.472c0 .384.092.669.279.855a.974.974 0 0 0 .72.279c.168 0 .313-.022.436-.067.123-.046.23-.095.32-.149.09-.054.166-.104.229-.148a.3.3 0 0 1 .166-.068c.085 0 .16.051.225.153l.468.765c-.276.258-.608.46-.998.608-.39.147-.792.22-1.206.22zm8.964-7.758a.355.355 0 0 1-.333.198.627.627 0 0 1-.306-.099 7.055 7.055 0 0 0-.418-.22 3.93 3.93 0 0 0-.59-.225 2.812 2.812 0 0 0-.81-.104c-.27 0-.512.034-.729.103a1.75 1.75 0 0 0-.553.284c-.153.12-.27.26-.351.419a1.124 1.124 0 0 0-.121.517c0 .234.067.429.202.585.135.156.313.291.535.405.223.114.474.214.757.302.282.087.571.18.868.278.297.1.586.209.869.329.282.12.533.27.756.45.222.18.4.4.535.661.135.262.203.575.203.941 0 .42-.075.808-.225 1.166-.15.357-.372.665-.667.926a3.212 3.212 0 0 1-1.08.617c-.426.15-.917.225-1.476.225a4.604 4.604 0 0 1-1.727-.31 4.379 4.379 0 0 1-1.315-.797l.378-.612a.55.55 0 0 1 .171-.18.462.462 0 0 1 .252-.063c.109 0 .222.042.343.126.12.084.265.177.436.279.171.102.38.195.626.279.246.084.551.126.918.126.312 0 .584-.04.819-.121a1.72 1.72 0 0 0 .584-.329 1.3 1.3 0 0 0 .347-.477c.075-.18.113-.372.113-.576a.955.955 0 0 0-.203-.626 1.709 1.709 0 0 0-.535-.422 4.364 4.364 0 0 0-.761-.306 55.98 55.98 0 0 1-.873-.275 9.838 9.838 0 0 1-.873-.329 3.069 3.069 0 0 1-.76-.463 2.1 2.1 0 0 1-.536-.689c-.135-.273-.203-.604-.203-.994a2.46 2.46 0 0 1 .846-1.85 3.103 3.103 0 0 1 1.017-.58 4.07 4.07 0 0 1 1.378-.216c.6 0 1.138.094 1.615.283.477.19.89.449 1.238.779l-.36.585zm10.27 3.159c.324 0 .608-.045.855-.135.246-.09.452-.216.62-.378.169-.162.294-.355.379-.58.084-.226.126-.473.126-.743 0-.558-.17-1.002-.509-1.332-.339-.33-.83-.495-1.471-.495-.649 0-1.142.165-1.481.495-.339.33-.508.774-.508 1.332 0 .27.043.517.13.742.087.226.214.419.383.581.168.162.374.288.62.378.247.09.531.135.856.135zm2.888 4.95a.77.77 0 0 0-.188-.54 1.26 1.26 0 0 0-.509-.324 3.272 3.272 0 0 0-.742-.166c-.283-.034-.581-.059-.896-.077l-.959-.054a11.257 11.257 0 0 1-.936-.09 2.51 2.51 0 0 0-.823.59c-.213.237-.32.514-.32.832 0 .204.053.394.158.572.105.177.265.33.481.459.217.129.488.23.815.305.327.076.712.113 1.157.113.432 0 .818-.039 1.16-.117.343-.078.632-.189.869-.333.237-.144.418-.315.544-.513.127-.198.19-.417.19-.657zm1.63-9.252v.594c0 .198-.126.324-.379.378l-1.034.135c.204.396.306.834.306 1.314 0 .444-.086.847-.257 1.21a2.772 2.772 0 0 1-.707.932c-.3.258-.66.456-1.08.594-.42.138-.875.207-1.367.207-.427 0-.828-.051-1.207-.153a1.62 1.62 0 0 0-.44.383.676.676 0 0 0-.153.409c0 .216.088.38.265.49.177.112.41.191.698.239.288.048.616.078.985.09.369.012.747.032 1.134.059.387.026.765.073 1.134.139.369.066.697.174.986.324.288.15.52.357.697.621.177.264.266.606.266 1.026 0 .39-.098.768-.293 1.134a3.068 3.068 0 0 1-.841.977 4.329 4.329 0 0 1-1.346.683 5.845 5.845 0 0 1-1.795.257c-.667 0-1.248-.066-1.746-.198-.499-.132-.912-.309-1.242-.531a2.314 2.314 0 0 1-.743-.77 1.826 1.826 0 0 1-.248-.913c0-.45.141-.831.423-1.143.283-.312.67-.561 1.162-.747-.27-.12-.485-.28-.644-.482-.159-.2-.239-.472-.239-.814 0-.132.024-.268.072-.41.049-.14.122-.281.221-.422a2.26 2.26 0 0 1 .365-.401 2.37 2.37 0 0 1 .504-.333 2.802 2.802 0 0 1-1.053-1.003c-.253-.418-.379-.902-.379-1.454 0-.444.086-.847.257-1.21.171-.364.41-.672.715-.927.307-.256.671-.452 1.094-.59a4.462 4.462 0 0 1 1.39-.207c.397 0 .765.043 1.108.13.342.088.653.215.935.383h2.475zm3.32-4.5V104H73.61V90.743h1.603zm6.436 3.996c.666 0 1.265.111 1.8.333.534.222.99.537 1.367.945.379.408.668.901.869 1.48.201.58.301 1.226.301 1.94 0 .72-.1 1.368-.301 1.944a4.154 4.154 0 0 1-.869 1.476 3.808 3.808 0 0 1-1.367.94c-.535.22-1.134.329-1.8.329-.673 0-1.277-.11-1.814-.329a3.8 3.8 0 0 1-1.373-.94 4.154 4.154 0 0 1-.868-1.476c-.201-.576-.302-1.224-.302-1.944 0-.714.101-1.36.302-1.94.201-.579.49-1.072.868-1.48a3.848 3.848 0 0 1 1.373-.945c.537-.222 1.141-.333 1.814-.333zm0 8.136c.9 0 1.571-.301 2.015-.904.445-.604.666-1.445.666-2.525 0-1.086-.221-1.932-.666-2.538-.444-.606-1.115-.909-2.016-.909-.456 0-.853.078-1.192.234a2.215 2.215 0 0 0-.846.675 2.998 2.998 0 0 0-.504 1.085 5.813 5.813 0 0 0-.166 1.453c0 1.08.223 1.921.67 2.525.447.603 1.126.904 2.038.904zm7.974-1.071c.294.396.616.675.967.837.351.162.736.243 1.157.243.858 0 1.514-.303 1.97-.909.457-.606.684-1.509.684-2.709 0-1.116-.202-1.936-.607-2.462-.405-.525-.982-.787-1.733-.787-.522 0-.976.12-1.363.36s-.745.579-1.075 1.017v4.41zm0-5.607a4.688 4.688 0 0 1 1.3-1.062c.483-.264 1.04-.396 1.67-.396.534 0 1.015.102 1.444.306.429.204.793.5 1.094.886.3.388.529.857.688 1.409.159.552.239 1.173.239 1.863 0 .738-.09 1.41-.27 2.016a4.575 4.575 0 0 1-.779 1.553 3.533 3.533 0 0 1-1.238.998 3.688 3.688 0 0 1-1.638.356c-.6 0-1.105-.112-1.516-.338a3.317 3.317 0 0 1-1.075-.958l-.082.828c-.048.228-.185.342-.413.342H88.01V90.743h1.61v5.454zm13.41 3.699c-.739.024-1.367.082-1.886.175-.519.094-.942.215-1.269.365-.327.15-.564.327-.711.531-.147.204-.22.432-.22.684 0 .24.038.447.117.621.078.174.184.316.319.427.135.112.294.192.477.243.183.052.38.077.59.077.282 0 .54-.029.774-.086.234-.057.454-.139.661-.247a3.73 3.73 0 0 0 .594-.387c.189-.15.373-.321.553-.513v-1.89zm-5.175-3.726a5.206 5.206 0 0 1 1.629-1.089 5.03 5.03 0 0 1 1.934-.36c.51 0 .963.084 1.36.252.396.168.728.402.999.702.27.3.473.663.611 1.089.139.426.208.894.208 1.404V104h-.712a.698.698 0 0 1-.36-.076c-.084-.052-.15-.152-.198-.302l-.18-.864c-.24.222-.473.418-.702.59a3.91 3.91 0 0 1-1.525.702 4.407 4.407 0 0 1-.95.094c-.354 0-.686-.05-.998-.148a2.308 2.308 0 0 1-.815-.446 2.095 2.095 0 0 1-.549-.751c-.135-.304-.203-.662-.203-1.076 0-.36.1-.706.297-1.04.199-.333.52-.628.963-.886.445-.258 1.023-.47 1.737-.635.715-.165 1.59-.259 2.629-.283v-.711c0-.708-.153-1.243-.46-1.607-.306-.363-.752-.544-1.34-.544-.397 0-.728.05-.995.148a3.73 3.73 0 0 0-.693.334 12.42 12.42 0 0 0-.504.333.727.727 0 0 1-.418.148.46.46 0 0 1-.28-.086.784.784 0 0 1-.197-.211l-.288-.513zm10.836-5.427V104h-1.602V90.743h1.602zm4.248 0V104h-1.602V90.743h1.602zm10.457 4.14l-5.085 11.808a.839.839 0 0 1-.202.288c-.081.072-.205.108-.373.108h-1.188l1.664-3.618-3.761-8.586h1.386a.49.49 0 0 1 .328.104.543.543 0 0 1 .166.229l2.44 5.742c.096.252.176.516.242.792.085-.282.175-.549.27-.801l2.367-5.733a.512.512 0 0 1 .478-.333h1.268zM20.285 52.226c.18-1.248.528-2.343 1.044-3.285a7.877 7.877 0 0 1 1.935-2.358 8.015 8.015 0 0 1 2.664-1.422 10.624 10.624 0 0 1 3.231-.477c1.2 0 2.283.171 3.249.513.966.342 1.791.816 2.475 1.422a6.229 6.229 0 0 1 1.575 2.133 6.39 6.39 0 0 1 .549 2.646c0 .828-.093 1.557-.279 2.187a5.2 5.2 0 0 1-.801 1.647 4.73 4.73 0 0 1-1.296 1.188 8.066 8.066 0 0 1-1.746.81c1.56.492 2.724 1.242 3.492 2.25.768 1.008 1.152 2.274 1.152 3.798 0 1.296-.24 2.442-.72 3.438a7.387 7.387 0 0 1-1.944 2.511 8.472 8.472 0 0 1-2.835 1.539 10.998 10.998 0 0 1-3.411.522c-1.308 0-2.448-.15-3.42-.45-.972-.3-1.818-.744-2.538-1.332a8.044 8.044 0 0 1-1.836-2.16c-.504-.852-.936-1.836-1.296-2.952l1.962-.81c.516-.216.999-.273 1.449-.171.45.102.777.345.981.729.216.42.453.834.711 1.242.258.408.567.771.927 1.089.36.318.783.576 1.269.774.486.198 1.065.297 1.737.297.756 0 1.416-.123 1.98-.369a4.3 4.3 0 0 0 1.413-.963c.378-.396.66-.837.846-1.323.186-.486.279-.975.279-1.467a6.79 6.79 0 0 0-.198-1.701 2.521 2.521 0 0 0-.828-1.305c-.42-.36-1.023-.642-1.809-.846-.786-.204-1.839-.306-3.159-.306v-3.168c1.092-.012 1.998-.114 2.718-.306s1.293-.459 1.719-.801c.426-.342.723-.753.891-1.233.168-.48.252-1.008.252-1.584 0-1.224-.342-2.154-1.026-2.79-.684-.636-1.596-.954-2.736-.954a4.53 4.53 0 0 0-1.458.225c-.444.15-.843.36-1.197.63-.354.27-.651.585-.891.945s-.42.756-.54 1.188c-.204.552-.471.918-.801 1.098-.33.18-.795.222-1.395.126l-2.34-.414zm26.244 2.196a16.23 16.23 0 0 1 1.656-.261 15.046 15.046 0 0 1 1.53-.081c1.368 0 2.574.204 3.618.612 1.044.408 1.92.972 2.628 1.692a7.099 7.099 0 0 1 1.602 2.529c.36.966.54 2.007.54 3.123 0 1.38-.243 2.64-.729 3.78a8.553 8.553 0 0 1-2.025 2.925c-.864.81-1.887 1.437-3.069 1.881-1.182.444-2.469.666-3.861.666-.816 0-1.59-.084-2.322-.252a11.52 11.52 0 0 1-3.843-1.647 11.265 11.265 0 0 1-1.467-1.161l1.368-1.89c.288-.408.666-.612 1.134-.612.3 0 .606.096.918.288.312.192.669.402 1.071.63.402.228.876.438 1.422.63.546.192 1.203.288 1.971.288.816 0 1.536-.132 2.16-.396a4.208 4.208 0 0 0 1.557-1.107 4.74 4.74 0 0 0 .936-1.692c.21-.654.315-1.365.315-2.133 0-1.416-.411-2.523-1.233-3.321-.822-.798-2.037-1.197-3.645-1.197-1.236 0-2.502.228-3.798.684l-2.772-.792 2.16-12.636h12.852v1.89c0 .636-.198 1.152-.594 1.548-.396.396-1.068.594-2.016.594h-7.146l-.918 5.418zm21.312 1.458h1.134c.456 0 .834-.063 1.134-.189.3-.126.558-.327.774-.603l7.182-9.09c.3-.384.615-.651.945-.801.33-.15.747-.225 1.251-.225h4.176L75.671 55.79c-.516.66-1.05 1.128-1.602 1.404.396.144.753.345 1.071.603.318.258.621.597.909 1.017L85.085 71h-4.266c-.576 0-1.005-.081-1.287-.243a2.016 2.016 0 0 1-.711-.711l-7.362-9.612c-.228-.324-.492-.552-.792-.684-.3-.132-.732-.198-1.296-.198h-1.53V71h-4.842V44.972h4.842V55.88zm36.162 4.68h-6.984v7.416h-3.618V60.56h-6.948v-3.294h6.948v-7.38h3.618v7.38h6.984v3.294z" fill="#F38C6E"/></g></svg>