<svg id="Layer_1" data-name="Layer 1" xmlns="http://www.w3.org/2000/svg" viewBox="0 0 75.82 64.8"><defs><style>.cls-1{fill:#3c7385}</style></defs><title>how-work-connect</title><g id="_Group_" data-name="&amp;lt;Group&amp;gt;"><g id="_Group_2" data-name="&amp;lt;Group&amp;gt;"><g id="_Group_3" data-name="&amp;lt;Group&amp;gt;"><path id="_Compound_Path_" data-name="&amp;lt;Compound Path&amp;gt;" class="cls-1" d="M5068.63 1111.72l3.19-2.19-1.85-5.69-3.86.1-3-4.16 1.29-3.65-4.84-3.51-3.07 2.35-4.9-1.58-1.09-3.72h-6l-1.09 3.72-4.9 1.58-3.05-2.35-4.84 3.51 1.3 3.65-3 4.16-3.87-.1-1.85 5.69 3.19 2.19v5.14l-3.19 2.19 1.85 5.69 3.87-.1 3 4.16-1.3 3.65 4.84 3.52 3.05-2.35 4.9 1.58 1.09 3.71h6l1.09-3.71 4.9-1.58 3.07 2.35 4.84-3.52-1.29-3.65 3-4.16 3.86.1 1.85-5.69-3.19-2.19v-5.14zm-10.44 5.88l-.09.3a11.26 11.26 0 0 1-3.89 5.35l-.27.19a11.2 11.2 0 0 1-6.29 2h-.31a11.22 11.22 0 0 1-6.3-2l-.25-.19a11.21 11.21 0 0 1-3.9-5.35l-.09-.3a11.2 11.2 0 0 1 0-6.63l.09-.3a11.25 11.25 0 0 1 3.9-5.36l.25-.18a11.2 11.2 0 0 1 6.3-2h.31a11.19 11.19 0 0 1 6.29 2l.27.18a11.29 11.29 0 0 1 3.89 5.36l.09.3a11.13 11.13 0 0 1 0 6.63z" transform="translate(-5023.18 -1074.09)"/></g></g><g id="_Group_4" data-name="&amp;lt;Group&amp;gt;"><g id="_Group_5" data-name="&amp;lt;Group&amp;gt;"><path id="_Compound_Path_2" data-name="&amp;lt;Compound Path&amp;gt;" class="cls-1" d="M5095.46 1092.88l3.54-1.88-.73-4.11-4-.55-1.73-3 1.51-3.71-3.2-2.7-3.4 2.13-3.25-1.18-1.24-3.81h-4.17l-1.24 3.81-3.25 1.18-3.4-2.13-3.2 2.7 1.5 3.71-1.72 3-4 .55-.73 4.11 3.54 1.88.6 3.41-2.68 3 2.08 3.62 3.92-.83 2.65 2.22-.15 4 3.93 1.43 2.46-3.16h3.45l2.46 3.16 3.93-1.43-.15-4 2.65-2.22 3.92.83 2.08-3.62-2.68-3zm-7 1.52l-.07.21a7.74 7.74 0 0 1-2.74 3.77l-.18.13a7.89 7.89 0 0 1-4.47 1.49h-.21a7.89 7.89 0 0 1-4.44-1.45l-.18-.13a7.94 7.94 0 0 1-2.74-3.77l-.06-.21a7.77 7.77 0 0 1 0-4.66l.06-.21a8 8 0 0 1 2.74-3.77l.18-.13a7.85 7.85 0 0 1 4.44-1.43h.21a7.85 7.85 0 0 1 4.44 1.43l.18.13a7.81 7.81 0 0 1 2.74 3.77l.07.21a8 8 0 0 1 .03 4.62z" transform="translate(-5023.18 -1074.09)"/></g></g></g></svg>