<svg width="307" height="192" viewBox="0 0 307 192" xmlns="http://www.w3.org/2000/svg" xmlns:xlink="http://www.w3.org/1999/xlink"><title>98.9%</title><defs><path id="a" d="M.322 40h66.835V.697H.322V40z"/><path id="c" d="M66.897 39.242V.784H.058v38.458h66.839z"/><path id="e" d="M67.16.784H.323v39.299H67.16V.784z"/></defs><g fill="none" fill-rule="evenodd"><path d="M87.94 76.784c0 1.452.375 2.559 1.125 3.321s1.815 1.143 3.195 1.143c.72 0 1.362-.114 1.926-.342a4.08 4.08 0 0 0 1.422-.936c.384-.396.675-.864.873-1.404.198-.54.297-1.122.297-1.746 0-.708-.108-1.341-.324-1.899a3.896 3.896 0 0 0-.918-1.413 4.027 4.027 0 0 0-1.413-.882 5.079 5.079 0 0 0-1.791-.306c-.672 0-1.278.111-1.818.333a4.048 4.048 0 0 0-1.386.927 4.027 4.027 0 0 0-.882 1.413 5.079 5.079 0 0 0-.306 1.791zm5.904 8.118a25.316 25.316 0 0 0 1.098-1.458 7.18 7.18 0 0 1-1.98.873 8.516 8.516 0 0 1-2.268.297c-.9 0-1.782-.156-2.646-.468a6.625 6.625 0 0 1-2.304-1.413c-.672-.63-1.215-1.41-1.629-2.34-.414-.93-.621-2.019-.621-3.267 0-1.164.216-2.256.648-3.276a8.229 8.229 0 0 1 1.818-2.682c.78-.768 1.716-1.374 2.808-1.818 1.092-.444 2.298-.666 3.618-.666 1.332 0 2.529.21 3.591.63 1.062.42 1.968 1.008 2.718 1.764a7.69 7.69 0 0 1 1.728 2.718c.402 1.056.603 2.214.603 3.474a12.131 12.131 0 0 1-.792 4.365 14.068 14.068 0 0 1-.918 1.953c-.36.636-.762 1.266-1.206 1.89l-5.958 8.496c-.204.288-.51.531-.918.729-.408.198-.87.297-1.386.297h-4.086l8.082-10.098zm19.476 6.912c.732 0 1.374-.105 1.926-.315a3.971 3.971 0 0 0 1.395-.873c.378-.372.663-.816.855-1.332a4.763 4.763 0 0 0 .288-1.674c0-1.428-.396-2.508-1.188-3.24-.792-.732-1.884-1.098-3.276-1.098s-2.484.366-3.276 1.098c-.792.732-1.188 1.812-1.188 3.24 0 .6.096 1.158.288 1.674.192.516.477.96.855 1.332.378.372.843.663 1.395.873.552.21 1.194.315 1.926.315zm0-19.782c-.66 0-1.23.102-1.71.306a3.45 3.45 0 0 0-1.197.819 3.23 3.23 0 0 0-.702 1.179c-.15.444-.225.912-.225 1.404 0 .516.063 1.017.189 1.503s.339.918.639 1.296.696.681 1.188.909c.492.228 1.098.342 1.818.342s1.326-.114 1.818-.342a3.204 3.204 0 0 0 1.188-.909c.3-.378.513-.81.639-1.296s.189-.987.189-1.503c0-.492-.078-.96-.234-1.404a3.405 3.405 0 0 0-.702-1.179 3.357 3.357 0 0 0-1.188-.819c-.48-.204-1.05-.306-1.71-.306zm4.392 9.396c1.584.516 2.754 1.305 3.51 2.367.756 1.062 1.134 2.361 1.134 3.897 0 1.152-.219 2.196-.657 3.132a6.868 6.868 0 0 1-1.845 2.394c-.792.66-1.743 1.17-2.853 1.53-1.11.36-2.337.54-3.681.54-1.344 0-2.571-.18-3.681-.54-1.11-.36-2.061-.87-2.853-1.53a6.868 6.868 0 0 1-1.845-2.394c-.438-.936-.657-1.98-.657-3.132 0-1.536.378-2.835 1.134-3.897.756-1.062 1.926-1.851 3.51-2.367-1.26-.528-2.205-1.278-2.835-2.25-.63-.972-.945-2.142-.945-3.51 0-.984.201-1.902.603-2.754a6.76 6.76 0 0 1 1.683-2.223c.72-.63 1.581-1.122 2.583-1.476 1.002-.354 2.103-.531 3.303-.531 1.2 0 2.301.177 3.303.531 1.002.354 1.863.846 2.583 1.476a6.76 6.76 0 0 1 1.683 2.223c.402.852.603 1.77.603 2.754 0 1.368-.315 2.538-.945 3.51-.63.972-1.575 1.722-2.835 2.25zm7.596 11.124c0-.372.069-.726.207-1.062.138-.336.327-.624.567-.864.24-.24.528-.432.864-.576a2.712 2.712 0 0 1 1.08-.216c.384 0 .741.072 1.071.216.33.144.618.336.864.576.246.24.441.528.585.864.144.336.216.69.216 1.062a2.675 2.675 0 0 1-1.665 2.493c-.33.138-.687.207-1.071.207-.384 0-.744-.069-1.08-.207a2.606 2.606 0 0 1-.864-.567 2.628 2.628 0 0 1-.567-.855 2.748 2.748 0 0 1-.207-1.071zm12.942-15.768c0 1.452.375 2.559 1.125 3.321s1.815 1.143 3.195 1.143c.72 0 1.362-.114 1.926-.342a4.08 4.08 0 0 0 1.422-.936c.384-.396.675-.864.873-1.404.198-.54.297-1.122.297-1.746 0-.708-.108-1.341-.324-1.899a3.896 3.896 0 0 0-.918-1.413 4.027 4.027 0 0 0-1.413-.882 5.079 5.079 0 0 0-1.791-.306c-.672 0-1.278.111-1.818.333a4.048 4.048 0 0 0-1.386.927 4.027 4.027 0 0 0-.882 1.413 5.079 5.079 0 0 0-.306 1.791zm5.904 8.118a25.316 25.316 0 0 0 1.098-1.458 7.18 7.18 0 0 1-1.98.873 8.516 8.516 0 0 1-2.268.297c-.9 0-1.782-.156-2.646-.468a6.625 6.625 0 0 1-2.304-1.413c-.672-.63-1.215-1.41-1.629-2.34-.414-.93-.621-2.019-.621-3.267 0-1.164.216-2.256.648-3.276a8.229 8.229 0 0 1 1.818-2.682c.78-.768 1.716-1.374 2.808-1.818 1.092-.444 2.298-.666 3.618-.666 1.332 0 2.529.21 3.591.63 1.062.42 1.968 1.008 2.718 1.764a7.69 7.69 0 0 1 1.728 2.718c.402 1.056.603 2.214.603 3.474a12.131 12.131 0 0 1-.792 4.365 14.068 14.068 0 0 1-.918 1.953c-.36.636-.762 1.266-1.206 1.89l-5.958 8.496c-.204.288-.51.531-.918.729-.408.198-.87.297-1.386.297h-4.086l8.082-10.098zm22.446-9.63c0 .984-.165 1.872-.495 2.664a6.27 6.27 0 0 1-1.323 2.025 5.746 5.746 0 0 1-1.926 1.287c-.732.3-1.494.45-2.286.45-.864 0-1.662-.15-2.394-.45a5.464 5.464 0 0 1-1.899-1.287 5.921 5.921 0 0 1-1.251-2.025c-.3-.792-.45-1.68-.45-2.664 0-1.008.15-1.92.45-2.736.3-.816.717-1.506 1.251-2.07a5.51 5.51 0 0 1 1.899-1.305 6.145 6.145 0 0 1 2.394-.459c.864 0 1.665.153 2.403.459a5.582 5.582 0 0 1 1.917 1.305c.54.564.96 1.254 1.26 2.07.3.816.45 1.728.45 2.736zm-3.42 0c0-.696-.069-1.278-.207-1.746-.138-.468-.324-.846-.558-1.134a2.017 2.017 0 0 0-.828-.621 2.735 2.735 0 0 0-1.017-.189c-.36 0-.696.063-1.008.189a1.903 1.903 0 0 0-.801.621c-.222.288-.399.666-.531 1.134-.132.468-.198 1.05-.198 1.746 0 .672.066 1.233.198 1.683.132.45.309.813.531 1.089.222.276.489.474.801.594.312.12.648.18 1.008.18s.699-.06 1.017-.18c.318-.12.594-.318.828-.594.234-.276.42-.639.558-1.089.138-.45.207-1.011.207-1.683zm12.078-5.598c.156-.18.339-.342.549-.486.21-.144.507-.216.891-.216h3.24l-19.332 25.362a2.032 2.032 0 0 1-.558.477c-.216.126-.48.189-.792.189h-3.312l19.314-25.326zm6.048 19.206c0 .984-.165 1.872-.495 2.664a6.27 6.27 0 0 1-1.323 2.025 5.86 5.86 0 0 1-1.926 1.296 5.87 5.87 0 0 1-2.286.459 6.145 6.145 0 0 1-2.394-.459 5.57 5.57 0 0 1-1.899-1.296 5.921 5.921 0 0 1-1.251-2.025c-.3-.792-.45-1.68-.45-2.664 0-1.008.15-1.92.45-2.736.3-.816.717-1.506 1.251-2.07a5.51 5.51 0 0 1 1.899-1.305 6.145 6.145 0 0 1 2.394-.459c.864 0 1.665.153 2.403.459a5.49 5.49 0 0 1 1.908 1.305c.534.564.954 1.254 1.26 2.07.306.816.459 1.728.459 2.736zm-3.438 0c0-.696-.066-1.278-.198-1.746-.132-.468-.315-.846-.549-1.134a2.017 2.017 0 0 0-.828-.621 2.735 2.735 0 0 0-1.017-.189c-.36 0-.696.063-1.008.189a1.965 1.965 0 0 0-.81.621c-.228.288-.405.666-.531 1.134-.126.468-.189 1.05-.189 1.746 0 .672.063 1.236.189 1.692.126.456.303.822.531 1.098.228.276.498.474.81.594.312.12.648.18 1.008.18s.699-.06 1.017-.18c.318-.12.594-.318.828-.594.234-.276.417-.642.549-1.098.132-.456.198-1.02.198-1.692zM90.614 120.503a.715.715 0 0 1-.144.153.323.323 0 0 1-.198.054.534.534 0 0 1-.297-.112 5.226 5.226 0 0 0-.4-.248 3.204 3.204 0 0 0-.585-.247 2.782 2.782 0 0 0-.851-.113c-.45 0-.846.08-1.188.239a2.286 2.286 0 0 0-.86.688c-.23.3-.404.663-.521 1.089a5.403 5.403 0 0 0-.176 1.431c0 .552.063 1.042.189 1.472.126.429.304.788.535 1.08.232.29.51.512.838.665.327.154.694.23 1.102.23.39 0 .711-.046.963-.14.252-.093.46-.196.626-.31.165-.114.302-.218.413-.31a.516.516 0 0 1 .329-.14c.132 0 .234.051.306.153l.45.585a3.192 3.192 0 0 1-.675.63c-.252.174-.523.32-.814.436a4.429 4.429 0 0 1-.914.257 5.796 5.796 0 0 1-.972.081c-.57 0-1.1-.105-1.588-.315a3.622 3.622 0 0 1-1.274-.914 4.278 4.278 0 0 1-.846-1.471c-.204-.582-.306-1.245-.306-1.989 0-.678.094-1.305.284-1.881a4.262 4.262 0 0 1 .828-1.49c.363-.417.81-.742 1.34-.976.532-.234 1.142-.351 1.832-.351.642 0 1.207.103 1.697.31.489.208.922.5 1.3.878l-.423.576zm5.931-1.764c.666 0 1.266.111 1.8.333.534.222.99.537 1.368.945.378.408.667.901.869 1.48.2.58.301 1.226.301 1.94 0 .72-.1 1.368-.301 1.944a4.154 4.154 0 0 1-.869 1.476 3.808 3.808 0 0 1-1.368.94c-.534.22-1.134.329-1.8.329-.672 0-1.276-.11-1.814-.328a3.8 3.8 0 0 1-1.372-.941 4.154 4.154 0 0 1-.868-1.476c-.202-.576-.302-1.224-.302-1.944 0-.714.1-1.36.302-1.94.2-.579.49-1.072.868-1.48a3.848 3.848 0 0 1 1.373-.945c.537-.222 1.141-.333 1.813-.333zm0 8.136c.9 0 1.572-.301 2.016-.904.444-.604.666-1.445.666-2.525 0-1.086-.222-1.932-.666-2.538-.444-.606-1.116-.909-2.016-.909-.456 0-.853.078-1.192.234a2.215 2.215 0 0 0-.846.675 2.998 2.998 0 0 0-.505 1.085 5.813 5.813 0 0 0-.166 1.453c0 1.08.223 1.921.67 2.525.448.603 1.127.904 2.039.904zm6.363 1.125v-9.117h.963c.228 0 .369.111.423.333l.117.936a4.64 4.64 0 0 1 1.134-1.017c.42-.264.906-.396 1.458-.396.612 0 1.108.171 1.49.513.38.342.655.804.823 1.386a2.902 2.902 0 0 1 2.03-1.791c.29-.072.586-.108.886-.108.48 0 .907.076 1.282.23.376.153.693.376.955.67.26.294.46.655.598 1.085.138.429.207.919.207 1.471V128h-1.611v-5.805c0-.714-.156-1.255-.468-1.624-.312-.37-.762-.554-1.35-.554-.264 0-.514.047-.751.14a1.81 1.81 0 0 0-1.053 1.089c-.106.273-.158.589-.158.949V128h-1.611v-5.805c0-.732-.147-1.278-.441-1.638-.294-.36-.723-.54-1.287-.54-.396 0-.762.106-1.098.32a3.643 3.643 0 0 0-.927.868V128h-1.611zm16.416-2.196c.294.396.615.675.963.837a2.74 2.74 0 0 0 1.17.243c.852 0 1.506-.303 1.962-.909.456-.606.684-1.47.684-2.592 0-.594-.052-1.104-.157-1.53-.106-.426-.257-.775-.455-1.048a1.768 1.768 0 0 0-.729-.599 2.425 2.425 0 0 0-.981-.189c-.522 0-.98.12-1.373.36s-.754.579-1.084 1.017v4.41zm-.081-5.508a4.723 4.723 0 0 1 1.332-1.143c.504-.288 1.08-.432 1.728-.432.528 0 1.005.1 1.431.301.426.202.789.498 1.089.891.3.394.531.881.693 1.463.162.582.243 1.251.243 2.007a6.29 6.29 0 0 1-.27 1.877c-.18.579-.44 1.08-.779 1.502a3.659 3.659 0 0 1-1.241 1 3.66 3.66 0 0 1-1.652.364c-.558 0-1.036-.094-1.435-.284a3.373 3.373 0 0 1-1.058-.787v4.032h-1.611v-12.204h.963c.228 0 .369.111.423.333l.144 1.08zm10.215-5.553V128h-1.602v-13.257h1.602zm8.694 7.704c0-.372-.052-.712-.157-1.022a2.294 2.294 0 0 0-.46-.8 2.048 2.048 0 0 0-.733-.522 2.476 2.476 0 0 0-.981-.185c-.768 0-1.375.223-1.822.67-.448.448-.725 1.067-.833 1.859h4.986zm1.296 4.275c-.198.24-.435.448-.711.626a4.427 4.427 0 0 1-.886.436c-.316.114-.641.2-.977.257a5.964 5.964 0 0 1-.999.085c-.63 0-1.21-.106-1.742-.32a3.822 3.822 0 0 1-1.377-.935c-.387-.412-.688-.92-.904-1.526-.216-.606-.324-1.302-.324-2.088 0-.636.097-1.23.293-1.782a4.2 4.2 0 0 1 .841-1.435 3.874 3.874 0 0 1 1.341-.955c.528-.23 1.122-.346 1.782-.346.546 0 1.051.091 1.517.274a3.43 3.43 0 0 1 1.206.792c.339.346.604.771.796 1.278.192.508.288 1.085.288 1.733 0 .252-.027.42-.081.504-.054.084-.156.126-.306.126h-6.093c.018.576.097 1.077.239 1.503.14.426.337.781.589 1.067.252.285.552.497.9.638a3.09 3.09 0 0 0 1.17.212c.402 0 .748-.046 1.04-.14.29-.093.541-.193.751-.301.21-.108.385-.209.526-.301.142-.093.263-.14.365-.14.132 0 .234.051.306.153l.45.585zm4.842 1.422c-.72 0-1.273-.201-1.66-.603-.388-.402-.581-.981-.581-1.737v-5.58h-1.098a.359.359 0 0 1-.243-.086c-.066-.056-.099-.145-.099-.265v-.639l1.494-.189.369-2.817a.355.355 0 0 1 .369-.306h.81v3.141h2.637v1.161h-2.637v5.472c0 .384.093.669.279.855a.974.974 0 0 0 .72.279c.168 0 .313-.022.436-.067.124-.046.23-.095.32-.149.09-.054.166-.104.23-.148a.3.3 0 0 1 .166-.068c.084 0 .159.051.225.153l.468.765c-.276.258-.609.46-.999.607-.39.148-.792.221-1.206.221zm9.711-5.697c0-.372-.052-.712-.157-1.022a2.294 2.294 0 0 0-.46-.8 2.048 2.048 0 0 0-.733-.522 2.476 2.476 0 0 0-.981-.185c-.768 0-1.375.223-1.822.67-.448.448-.725 1.067-.833 1.859h4.986zm1.296 4.275c-.198.24-.435.448-.711.626a4.427 4.427 0 0 1-.887.436c-.315.114-.64.2-.976.257a5.964 5.964 0 0 1-.999.085c-.63 0-1.21-.106-1.742-.32a3.822 3.822 0 0 1-1.376-.935c-.388-.412-.689-.92-.905-1.526-.216-.606-.324-1.302-.324-2.088 0-.636.097-1.23.292-1.782a4.2 4.2 0 0 1 .842-1.435 3.874 3.874 0 0 1 1.341-.955c.528-.23 1.122-.346 1.782-.346.546 0 1.051.091 1.517.274a3.43 3.43 0 0 1 1.206.792c.339.346.604.771.796 1.278.192.508.288 1.085.288 1.733 0 .252-.027.42-.081.504-.054.084-.156.126-.306.126h-6.093c.018.576.097 1.077.238 1.503.142.426.338.781.59 1.067.252.285.552.497.9.638a3.09 3.09 0 0 0 1.17.212c.402 0 .748-.046 1.04-.14.29-.093.541-.193.751-.301.21-.108.385-.209.526-.301.142-.093.263-.14.365-.14.132 0 .234.051.306.153l.45.585zm8.046-5.67c-.3-.402-.624-.682-.972-.842a2.784 2.784 0 0 0-1.17-.238c-.846 0-1.497.303-1.953.909-.456.606-.684 1.47-.684 2.592 0 .594.051 1.102.153 1.526.102.423.252.77.45 1.044.198.273.441.472.729.598s.615.189.981.189c.528 0 .988-.12 1.381-.36.394-.24.755-.579 1.085-1.017v-4.401zm1.602-6.309V128h-.954c-.228 0-.372-.111-.432-.333l-.144-1.107c-.39.468-.834.846-1.332 1.134-.498.288-1.074.432-1.728.432-.522 0-.996-.1-1.422-.302a2.949 2.949 0 0 1-1.089-.886c-.3-.39-.531-.876-.693-1.458-.162-.582-.243-1.251-.243-2.007 0-.672.09-1.297.27-1.876.18-.58.438-1.082.774-1.508.336-.426.748-.76 1.238-1.004a3.66 3.66 0 0 1 1.651-.364c.558 0 1.036.094 1.435.283a3.48 3.48 0 0 1 1.067.788v-5.049h1.602zm13.491 5.76a.715.715 0 0 1-.144.153.323.323 0 0 1-.198.054.534.534 0 0 1-.297-.112 5.226 5.226 0 0 0-.4-.248 3.204 3.204 0 0 0-.585-.247 2.782 2.782 0 0 0-.851-.113c-.45 0-.846.08-1.188.239a2.286 2.286 0 0 0-.86.688c-.23.3-.404.663-.522 1.089a5.403 5.403 0 0 0-.175 1.431c0 .552.063 1.042.189 1.472.126.429.304.788.535 1.08.232.29.51.512.838.665.327.154.694.23 1.102.23.39 0 .711-.046.963-.14.252-.093.46-.196.626-.31.165-.114.302-.218.413-.31a.516.516 0 0 1 .329-.14c.132 0 .234.051.306.153l.45.585a3.192 3.192 0 0 1-.675.63c-.252.174-.523.32-.815.436a4.429 4.429 0 0 1-.913.257 5.796 5.796 0 0 1-.972.081c-.57 0-1.1-.105-1.589-.315a3.622 3.622 0 0 1-1.273-.914 4.278 4.278 0 0 1-.846-1.471c-.204-.582-.306-1.245-.306-1.989 0-.678.094-1.305.284-1.881a4.262 4.262 0 0 1 .828-1.49c.363-.417.81-.742 1.34-.976.532-.234 1.142-.351 1.832-.351.642 0 1.207.103 1.697.31.489.208.922.5 1.3.878l-.423.576zm7.191 3.393c-.738.024-1.366.082-1.886.175-.519.094-.941.215-1.269.365-.327.15-.563.327-.71.531-.148.204-.221.432-.221.684 0 .24.039.447.117.621.078.174.184.316.32.427.135.112.293.192.476.243.184.052.38.077.59.077.282 0 .54-.029.774-.086.234-.057.454-.139.661-.247a3.73 3.73 0 0 0 .594-.387c.19-.15.374-.321.554-.513v-1.89zm-5.175-3.726a5.206 5.206 0 0 1 1.629-1.089 5.03 5.03 0 0 1 1.935-.36c.51 0 .963.084 1.359.252.396.168.729.402.999.702.27.3.474.663.612 1.089.138.426.207.894.207 1.404V128h-.711a.698.698 0 0 1-.36-.077c-.084-.05-.15-.151-.198-.301l-.18-.864c-.24.222-.474.418-.702.59a3.91 3.91 0 0 1-1.525.702 4.407 4.407 0 0 1-.95.094c-.354 0-.687-.05-.999-.149a2.308 2.308 0 0 1-.815-.445 2.095 2.095 0 0 1-.548-.751c-.136-.304-.203-.662-.203-1.076 0-.36.099-.706.297-1.04.198-.333.519-.628.963-.886.444-.258 1.023-.47 1.737-.635.714-.165 1.59-.259 2.628-.283v-.711c0-.708-.153-1.243-.459-1.607-.306-.363-.753-.544-1.341-.544-.396 0-.727.05-.994.148a3.73 3.73 0 0 0-.694.334 12.42 12.42 0 0 0-.504.333.727.727 0 0 1-.418.148.46.46 0 0 1-.279-.086.784.784 0 0 1-.198-.211l-.288-.513zm10.836-5.427V128h-1.602v-13.257h1.602zm4.248 0V128h-1.602v-13.257h1.602zm7.902 5.643a.355.355 0 0 1-.333.198.627.627 0 0 1-.306-.099 7.055 7.055 0 0 0-.418-.22 3.93 3.93 0 0 0-.59-.225 2.812 2.812 0 0 0-.81-.104c-.27 0-.513.034-.729.103a1.75 1.75 0 0 0-.554.284c-.153.12-.27.26-.35.419a1.124 1.124 0 0 0-.122.517c0 .234.067.429.203.585.135.156.313.291.535.405.222.114.474.215.756.302.282.087.571.18.869.278.297.1.586.209.868.329.282.12.534.27.756.45.222.18.4.4.536.661.135.262.202.575.202.941 0 .42-.075.808-.225 1.166-.15.357-.372.665-.666.927a3.212 3.212 0 0 1-1.08.616c-.426.15-.918.225-1.476.225a4.604 4.604 0 0 1-1.728-.31 4.379 4.379 0 0 1-1.314-.797l.378-.612a.55.55 0 0 1 .171-.18.462.462 0 0 1 .252-.063c.108 0 .222.042.342.126.12.084.265.177.437.279.17.102.379.195.625.279.246.084.552.126.918.126.312 0 .585-.04.819-.121a1.72 1.72 0 0 0 .585-.329 1.3 1.3 0 0 0 .346-.477c.076-.18.113-.372.113-.576a.955.955 0 0 0-.203-.626 1.709 1.709 0 0 0-.535-.422 4.364 4.364 0 0 0-.76-.306 55.98 55.98 0 0 1-.873-.275 9.837 9.837 0 0 1-.874-.329 3.069 3.069 0 0 1-.76-.463 2.1 2.1 0 0 1-.536-.689c-.135-.273-.202-.604-.202-.994a2.46 2.46 0 0 1 .846-1.85 3.103 3.103 0 0 1 1.017-.58 4.07 4.07 0 0 1 1.377-.216c.6 0 1.138.094 1.615.283.478.19.89.449 1.238.779l-.36.585zm19.296-1.503L219.782 128h-1.269c-.156 0-.264-.102-.324-.306l-2.016-6.183a3.473 3.473 0 0 1-.117-.418l-.09-.419-.09.418c-.03.142-.069.284-.117.428l-2.052 6.174c-.054.204-.174.306-.36.306h-1.206l-2.952-9.117h1.26a.513.513 0 0 1 .495.333l1.746 5.868c.102.432.183.84.243 1.224l.167-.603c.056-.204.118-.411.184-.621l1.926-5.904a.475.475 0 0 1 .157-.225.426.426 0 0 1 .275-.09h.702c.12 0 .219.03.297.09.078.06.132.135.162.225l1.881 5.904c.066.21.126.417.18.621.054.204.105.405.153.603.03-.198.067-.397.113-.599.044-.2.094-.409.148-.625l1.782-5.868a.481.481 0 0 1 .468-.333h1.206zm3.258 0V128h-1.602v-9.117h1.602zm.342-2.862c0 .156-.031.301-.095.436a1.257 1.257 0 0 1-.251.36 1.157 1.157 0 0 1-.815.338c-.156 0-.301-.03-.436-.09a1.132 1.132 0 0 1-.356-.248 1.228 1.228 0 0 1-.243-.36 1.126 1.126 0 0 1 0-.882c.06-.14.141-.263.243-.368.102-.106.22-.188.356-.248a1.126 1.126 0 0 1 .882 0c.14.06.263.142.369.248.105.105.189.227.251.369.064.14.095.289.095.445zm5.085 12.123c-.72 0-1.273-.201-1.66-.603-.388-.402-.581-.981-.581-1.737v-5.58h-1.098a.359.359 0 0 1-.243-.086c-.066-.056-.099-.145-.099-.265v-.639l1.494-.189.369-2.817a.355.355 0 0 1 .369-.306h.81v3.141h2.637v1.161h-2.637v5.472c0 .384.093.669.279.855a.974.974 0 0 0 .72.279c.168 0 .313-.022.436-.067.124-.046.23-.095.32-.149.09-.054.167-.104.23-.148a.3.3 0 0 1 .166-.068c.084 0 .159.051.225.153l.468.765c-.276.258-.609.46-.999.607-.39.148-.792.221-1.206.221zm5.265-8.046c.39-.414.822-.744 1.296-.99.474-.246 1.02-.369 1.638-.369.498 0 .937.082 1.319.248.38.165.698.398.953.702a3.1 3.1 0 0 1 .581 1.093c.132.426.198.897.198 1.413V128h-1.611v-5.805c0-.69-.157-1.225-.472-1.606-.316-.382-.794-.572-1.436-.572-.474 0-.916.114-1.328.342-.41.228-.79.537-1.138.927V128h-1.611v-13.257h1.611v5.355zm19.143 2.349c0-.372-.052-.712-.157-1.022a2.294 2.294 0 0 0-.46-.8 2.048 2.048 0 0 0-.733-.522 2.476 2.476 0 0 0-.981-.185c-.768 0-1.375.223-1.823.67-.447.448-.724 1.067-.832 1.859h4.986zm1.296 4.275c-.198.24-.435.448-.711.626a4.427 4.427 0 0 1-.886.436c-.316.114-.641.2-.977.257a5.964 5.964 0 0 1-.999.085c-.63 0-1.21-.106-1.742-.32a3.822 3.822 0 0 1-1.376-.935c-.388-.412-.689-.92-.905-1.526-.216-.606-.324-1.302-.324-2.088 0-.636.097-1.23.292-1.782a4.2 4.2 0 0 1 .842-1.435 3.874 3.874 0 0 1 1.341-.955c.528-.23 1.122-.346 1.782-.346.546 0 1.051.091 1.516.274a3.43 3.43 0 0 1 1.207.792c.339.346.604.771.796 1.278.192.508.288 1.085.288 1.733 0 .252-.027.42-.081.504-.054.084-.156.126-.306.126h-6.093c.018.576.097 1.077.238 1.503.142.426.338.781.59 1.067.252.285.552.497.9.638a3.09 3.09 0 0 0 1.17.212c.402 0 .748-.046 1.04-.14.29-.093.541-.193.751-.301.21-.108.385-.209.526-.301.142-.093.263-.14.365-.14.132 0 .234.051.306.153l.45.585zM266.6 128h-1.539a.441.441 0 0 1-.31-.103.955.955 0 0 1-.185-.23l-2.295-3.573c-.024.084-.05.166-.077.248a.805.805 0 0 1-.112.22l-2.124 3.105c-.06.084-.125.16-.194.23a.383.383 0 0 1-.283.103h-1.431l3.195-4.68-3.069-4.437h1.539c.132 0 .228.021.288.063.06.042.114.102.162.18l2.241 3.42c.048-.174.123-.342.225-.504l1.962-2.88a.845.845 0 0 1 .175-.203.353.353 0 0 1 .23-.076h1.476l-3.069 4.356L266.6 128zm3.087-2.196c.294.396.615.675.963.837a2.74 2.74 0 0 0 1.17.243c.852 0 1.506-.303 1.962-.909.456-.606.684-1.47.684-2.592 0-.594-.052-1.104-.158-1.53-.105-.426-.256-.775-.454-1.048a1.768 1.768 0 0 0-.729-.599 2.425 2.425 0 0 0-.981-.189c-.522 0-.98.12-1.373.36s-.754.579-1.084 1.017v4.41zm-.081-5.508a4.723 4.723 0 0 1 1.332-1.143c.504-.288 1.08-.432 1.728-.432.528 0 1.005.1 1.431.301.426.202.789.498 1.089.891.3.394.531.881.693 1.463.162.582.243 1.251.243 2.007a6.29 6.29 0 0 1-.27 1.877c-.18.579-.44 1.08-.778 1.502a3.659 3.659 0 0 1-1.243 1 3.66 3.66 0 0 1-1.651.364c-.558 0-1.036-.094-1.435-.284a3.373 3.373 0 0 1-1.058-.787v4.032h-1.611v-12.204h.963c.228 0 .369.111.423.333l.144 1.08zm14.661 2.151c0-.372-.052-.712-.157-1.022a2.294 2.294 0 0 0-.46-.8 2.048 2.048 0 0 0-.733-.522 2.476 2.476 0 0 0-.981-.185c-.768 0-1.375.223-1.822.67-.448.448-.725 1.067-.833 1.859h4.986zm1.296 4.275c-.198.24-.435.448-.711.626a4.427 4.427 0 0 1-.886.436c-.316.114-.641.2-.977.257a5.964 5.964 0 0 1-.999.085c-.63 0-1.21-.106-1.742-.32a3.822 3.822 0 0 1-1.376-.935c-.388-.412-.689-.92-.905-1.526-.216-.606-.324-1.302-.324-2.088 0-.636.097-1.23.293-1.782a4.2 4.2 0 0 1 .841-1.435 3.874 3.874 0 0 1 1.341-.955c.528-.23 1.122-.346 1.782-.346.546 0 1.051.091 1.517.274a3.43 3.43 0 0 1 1.206.792c.339.346.604.771.796 1.278.192.508.288 1.085.288 1.733 0 .252-.027.42-.081.504-.054.084-.156.126-.306.126h-6.093c.018.576.097 1.077.239 1.503.14.426.337.781.589 1.067.252.285.552.497.9.638a3.09 3.09 0 0 0 1.17.212c.402 0 .748-.046 1.04-.14.29-.093.541-.193.751-.301.21-.108.385-.209.526-.301.142-.093.263-.14.365-.14.132 0 .234.051.306.153l.45.585zm3.627-6.012c.288-.624.642-1.111 1.062-1.462.42-.352.933-.527 1.539-.527.192 0 .376.021.553.063.178.042.335.108.473.198l-.117 1.197c-.036.15-.126.225-.27.225-.084 0-.207-.018-.369-.054a2.54 2.54 0 0 0-.549-.054 2.19 2.19 0 0 0-.77.126 1.8 1.8 0 0 0-.603.374 2.64 2.64 0 0 0-.476.611c-.142.244-.269.521-.383.833V128h-1.611v-9.117h.918c.174 0 .294.033.36.099s.111.18.135.342l.108 1.386zm7.83 7.434c-.72 0-1.273-.201-1.66-.603-.388-.402-.581-.981-.581-1.737v-5.58h-1.098a.359.359 0 0 1-.243-.086c-.066-.056-.099-.145-.099-.265v-.639l1.494-.189.369-2.817a.355.355 0 0 1 .369-.306h.81v3.141h2.637v1.161h-2.637v5.472c0 .384.093.669.279.855a.974.974 0 0 0 .72.279c.168 0 .313-.022.437-.067.123-.046.229-.095.319-.149.09-.054.166-.104.23-.148a.3.3 0 0 1 .166-.068c.084 0 .159.051.225.153l.468.765c-.276.258-.609.46-.999.607-.39.148-.792.221-1.206.221zm8.964-7.758a.355.355 0 0 1-.333.198.627.627 0 0 1-.306-.099 7.055 7.055 0 0 0-.419-.22 3.93 3.93 0 0 0-.589-.225 2.812 2.812 0 0 0-.81-.104c-.27 0-.513.034-.729.103a1.75 1.75 0 0 0-.553.284c-.154.12-.27.26-.351.419a1.124 1.124 0 0 0-.122.517c0 .234.067.429.202.585.136.156.314.291.536.405.222.114.474.215.756.302.282.087.571.18.868.278.298.1.587.209.869.329.282.12.534.27.756.45.222.18.4.4.536.661.135.262.202.575.202.941 0 .42-.075.808-.225 1.166-.15.357-.372.665-.666.927a3.212 3.212 0 0 1-1.08.616c-.426.15-.918.225-1.476.225a4.604 4.604 0 0 1-1.728-.31 4.379 4.379 0 0 1-1.314-.797l.378-.612a.55.55 0 0 1 .171-.18.462.462 0 0 1 .252-.063c.108 0 .222.042.342.126.12.084.265.177.436.279.172.102.38.195.626.279.246.084.552.126.918.126.312 0 .585-.04.819-.121a1.72 1.72 0 0 0 .585-.329 1.3 1.3 0 0 0 .346-.477c.076-.18.113-.372.113-.576a.955.955 0 0 0-.203-.626 1.709 1.709 0 0 0-.535-.422 4.364 4.364 0 0 0-.76-.306 55.98 55.98 0 0 1-.873-.275 9.837 9.837 0 0 1-.873-.329 3.069 3.069 0 0 1-.761-.463 2.1 2.1 0 0 1-.535-.689c-.136-.273-.203-.604-.203-.994a2.46 2.46 0 0 1 .846-1.85 3.103 3.103 0 0 1 1.017-.58 4.07 4.07 0 0 1 1.377-.216c.6 0 1.138.094 1.615.283.478.19.89.449 1.238.779l-.36.585z" fill="#F58C6A"/><path d="M70.927 52.423l-12.385-21.45C36.557 43.833 21.755 67.63 21.63 94.909H46c.372-18.128 10.282-33.876 24.928-42.486M45.944 95.957c0-.122.017-.235.02-.348H21.63c.126 27.274 14.928 51.078 36.913 63.936l11.786-20.416c-14.599-8.857-24.384-24.852-24.384-43.172M120.808 51.696l12.166-21.074a74.132 74.132 0 0 0-36.911-9.805 74.126 74.126 0 0 0-36.915 9.805L71.522 52.06c7.367-4.194 15.864-6.624 24.945-6.624a50.275 50.275 0 0 1 24.343 6.259M70.927 139.49l-11.779 20.397a74.025 74.025 0 0 0 36.914 9.81 74.03 74.03 0 0 0 36.912-9.81l-11.572-20.03c-7.359 4.191-15.859 6.615-24.937 6.615-9.332 0-18.04-2.572-25.538-6.982" fill="#387283"/><g transform="translate(28 151.216)"><mask id="b" fill="#fff"><use xlink:href="#a"/></mask><path d="M11.933.697L.323 12.31C17.498 29.332 41.093 39.874 67.156 40V24.15C45.588 23.8 26.097 14.914 11.933.697" fill="#387283" mask="url(#b)"/></g><path d="M96.055 175.387v15.829c26.063-.12 49.658-10.663 66.84-27.683l-10.776-10.78c-14.375 14.008-34.003 22.644-55.654 22.644-.14 0-.273-.01-.41-.01M27.687 28.311C10.667 45.493.12 69.086 0 95.155h16.686c.122-21.477 8.728-40.933 22.635-55.205L27.687 28.311z" fill="#387283"/><g transform="translate(96 -.784)"><mask id="d" fill="#fff"><use xlink:href="#c"/></mask><path d="M.465 16.603c21.651 0 41.28 8.638 55.654 22.64l10.778-10.774C49.72 11.45 26.125.9.058.784v15.831c.134 0 .27-.012.407-.012" fill="#387283" mask="url(#d)"/></g><g transform="translate(28 -.784)"><mask id="f" fill="#fff"><use xlink:href="#e"/></mask><path d="M67.16 16.636V.784C41.098.904 17.502 11.45.323 28.47l11.615 11.613C26.104 25.863 45.591 16.98 67.16 16.636" fill="#387283" mask="url(#f)"/></g><path d="M0 96.052c.12 26.055 10.664 49.656 27.685 66.835l11.627-11.63c-13.904-14.274-22.51-33.73-22.625-55.205H0z" fill="#387283"/></g></svg>