<svg width="306" height="164" viewBox="0 0 306 164" xmlns="http://www.w3.org/2000/svg" xmlns:xlink="http://www.w3.org/1999/xlink"><title>73</title><defs><path id="a" d="M1.573 1.394v-1H.591v1h.982z"/><path id="c" d="M.573 3.927V.297H.05v3.63h.523z"/><path id="e" d="M.573 1.587v-1H.384v1h.189z"/><path id="g" d="M71.138.049H.832v46.286h70.306V.049z"/><path id="i" d="M.878 1h1V.964h-1V1z"/></defs><g fill="none" fill-rule="evenodd"><path d="M265.19 72.117c-.335.596-.666 1.239-1.22 1.64-.266.19-.653-.066-.982-.05-1.46.073-2.92.163-4.376.306-.328.034-.645.298-.967.222-.275-.063-.332-.59-.613-.584-.513.01-.92.452-1.403.623-.186.066-.405.002-.585.091-.976.458-1.269 1.395-2.17 1.934-.528.317-1.108.552-1.686.752-.198.07-.478-.11-.623.04-.402.413-.435 1.11-.867 1.5-.437.397-1.04.59-1.612.749-.333.091-.906-.063-1.325.045a.503.503 0 0 1 .071-.106c.214-.248.565-.371.766-.632.125-.163-.015-.51.176-.592.555-.25 1.21-.168 1.803-.294.085-.017.271-.087.211-.142-.37-.33-.906-.451-1.269-.796-.218-.205-.22-.572-.416-.8-.27-.317-.84-.402-.95-.802-.13-.487.227-.981.324-1.47.188-.931.39-1.855.528-2.793.04-.246-.122-.535.01-.75.2-.323.598-.47.891-.707 0 0 .303-.904.428-1.366.127-.464.115-.976.327-1.406.134-.281.384-.531.675-.644.2-.075.587.359.616.154.056-.39-.726-1.367-.487-1.063.336.434.622.925.787 1.45.04.124-.34.24-.234.316.54.368 1.568.147 2.078-.051.083-.034.053-.255.14-.233.152.037.374.198.315.346-.104.262-1.653.82-1.255 1.368.287.394 1.07-.085 1.448.225.23.19-.274 1.547.45 1.202.347-.167.526-.564.838-.787.211-.151.535-.14.718-.33.19-.197.096-.606.321-.752.295-.194 1.285.113 1.044-.14-.35-.367-1.03-.103-1.489-.332-.22-.11-1.073-1.035-.979-1.243.878-1.946.648-.528 1.963-1.452.146-.103.03-.382.154-.51a4.694 4.694 0 0 1 1.182-.86c.382-.204.935-.717 1.226-.403.938.997-1.455 1.324-1.505 1.384-.643.748 1.015.08 1.33.836.095.228-.636-.01-.705.228-.13.45.444.968.235 1.385-.212.416-1.525.249-1.25.618.495.668 1.543.635 2.343.86.223.066.483-.076.7.004.62.228 1.113.742 1.748.938 1.555.474 2.535.413 3.212 2.162.086.222.025.504-.09.712m-2.862 26.64a.958.958 0 0 1 .111-.247c.08-.123-.015.031-.11.247m-21.075-14.454c.07-.025-.078-.237 0-.23.446.068.996.075 1.304.41.154.173-.26.48-.493.495-.308.017-.84-.319-1.347-.497.182-.05.363-.114.536-.177m-22.286-41.05c-.07.03-.195.026-.312.018.166-.023.392-.053.312-.018m32.04-28.551c-.094-.038-.185-.153-.269-.266.382.106.76.218 1.126.365.262.109-.59.005-.857-.1m-2.878-3.743c-.227-.025-.499-.204-.733-.29.472.037.931.09 1.325.252.184.075-.397.063-.592.038m56.864 59.989c-.013-.265-.17-.51-.2-.775-.115-1.154-.122-2.317-.228-3.47-.014-.136.032-.33.072-.523.023.058.048.12.07.165l-.06-.23c.033-.175.055-.346.008-.465l-.19-.856c-1.183-5.265-2.789-10.407-4.937-15.361a82.465 82.465 0 0 0-16.37-24.502c-11.2-11.577-25.962-19.93-41.767-23.21-3.662-.76-6.635-1.129-9.815-1.383 2.65.275 5.276.642 7.826 1.465.464.15 2.555.62 2.937.81.327.166.528.51.813.746.824.692 1.987.843 3.023 1.144.096.024.195-.11.291-.072.42.173.806.425 1.186.681.213.144.343.4.577.511.001 0 1.967.442 1.985.51.102.476-.534.84-.617 1.315-.042.22.378.405.28.6-.083.162-.642-.252-.518-.121.428.446 1.262.543 1.483 1.123.135.352-.747-.242-1.117-.16-.14.037.135.274.254.364.206.157.485.194.69.356.318.258.537.62.851.883.028.022.066.05.107.077-1.286-.75-3.468-2.053-4.26-2.19-.075-.012-3.376-.003-2.91.957.538 1.114 1.584 1.226 2.616 1.306a.246.246 0 0 0-.098.075c-.24.293.376.655.543.995.176.356.221.789.48 1.09.354.403.933.56 1.298.954.072.074-.373.101-.276.143.43.175.88.301 1.328.425-.245.41-.288.98-.096 1.408.14.317.632.296.977.37.812.167 1.661.134 2.47.342.277.076.463.357.713.492.52.282 1.174.364 1.608.77.22.203-.603-.014-.89-.102-.11-.034-2.879-1.556-3.368-.58-.745 1.503 2.301 1.188 2.322 1.216.223.346-.777.326-1.194.36-.223.021-1.698-1.017-1.842-1.087-.193-.095-.792-.27-.64-.116.308.313.83.338 1.154.636.295.276.308.799.644 1.024.393.264.93.183 1.378.34.14.05.25.17.365.268.288.238 1.307 1.316 1.821 1.242.464-.065.704-.713 1.164-.793 1.497-.255.661.748 1.661 1.05.21.065.77-.415.603-.268-.197.175-.443.409-.705.356-.106-.023-1.452-1.21-1.899-.925-.22.142-.199.57-.05.787.338.502 1.128.484 1.58.892 1.73 1.574.216.226.997 1.694.082.152.501.195.398.337-.724.95-1.688.634-1.704.456-.017-.313.51-.497.487-.814-.046-.767-.972-1.796-1.612-2.13-.3-.155-.694-.034-1-.18-.675-.32-1.308-.727-1.917-1.15-.277-.19-.488-.49-.79-.634-.349-.174-.793-.1-1.126-.3-.522-.306-1.188-1.425-1.602-1.285-2.144.706.175 1.297.457 1.862.154.311.165.707.405.959.146.157.435.04.63.129.951.436 1.825 1.023 2.787 1.436-.463.206-.91.451-1.405.57-1.24.302-1.024-.518-2.247.335-.553.39.473.471.762.76.204.206.241.527.4.767.106.164.535.305.386.43-.318.28-.837.16-1.233.305-1.29.462-.502.299-1.346 1.248-.08.085.117-.224.084-.332-.095-.303-.16-.707-.45-.84-.189-.084-.333.26-.435.443-.095.162-.06.375-.136.55-.32.727-.775 1.398-1.049 2.142-.16.42.13 1.081-.248 1.328-.332.218-.945-.084-1.099-.448-.142-.331.811-.765.508-.956-.447-.276-1.218-.1-1.533.319-.599.78 1.433 1.454 1.5 1.611.326.746-1.216.602-1.258.635-.152.131.064.42-.006.608-.152.399-.5.701-.65 1.102-.183.502 1.351.578 1.178 1.083-.188.528-.998.562-1.552.657-.135.021.186-.35.06-.406-.4-.189-.909-.355-1.318-.183-.214.091-.056.55.128.682.39.28 1.015.092 1.38.398.202.172.308.742.048.8-.633.14-1.269-.243-1.894-.392-.222-.049-.48-.056-.65-.209-.37-.32-.733-.7-.914-1.154-.079-.194.322-.407.214-.589-.175-.309-1.132-.323-.889-.58.456-.485 1.28-.407 1.938-.535.13-.023.252.073.385.094.091.014.228.087.28.008.877-1.31 1.895-2.01.462-2.766-.285-.154-.636-.146-.947-.238-1.063-.305-2.077-.933-3.18-.948-.438-.005-.885-.066-1.307.038-.127.026-.078.334-.2.317-.466-.07-.853-.41-1.306-.541-.212-.061-.477.104-.65-.027-.41-.307-.576-.87-.978-1.19-.173-.135-.436-.064-.655-.105-.322-.065-.63-.236-.956-.21-2.898.224.476.433-2.005 1.934a.623.623 0 0 1-.42.069c.02.08-.047.177-.264.29-.24.126-.522-.197-.798-.191-.239.006-.469.12-.685.223-1.932.919.07.447-1.2 2.452-.144.229-.574-.143-.806-.01-.12.069.245.2.232.336-.195 2.19-.17.663-1.369 1.27-.18.093-.083.422-.23.562-.15.138-.529-.008-.58.189-.064.236.365.404.356.653-.023.506-.23.994-.459 1.452-1.69 3.425.598-2.046-1.19.95-.074.119.328.308.201.367-1.128.514-.055-.928-.932.052-.295.328-1.148.784-.8 1.055.41.314.933-.544 1.453-.55.185-.002.288.439.13.53-.424.243-1.004.04-1.449.235-.298.128-.409.523-.686.69-.192.114-.456.03-.659.115-.09.041-.075.218-.169.239-.307.081-.722-.165-.95.052-.366.346-.167 1.115-.585 1.396-.312.208-.722-.34-1.093-.273-.153.029-.14.407.007.468.458.185 1.303-.339 1.474.12.346.92-1.487.663-1.775.944-.079.075.087.252.2.261 1.351.12.915-.23 1.936-.218.124 0 .48.056.362.093-.79.242-1.615.343-2.413.544-.14-.008-.246-.009-.187.067.257.334.7.496 1.102.62.273.084.855-.309.86-.02.024 1.317-3.52 1.408-1.837 2.908.668.595 1.666.657 2.484 1.023.08.038.124.234.193.18.44-.364.773-.834 1.131-1.275.101-.128.123-.315.244-.428.268-.26.67-.38.903-.676.13-.17.018-.813.12-.624.175.337-.017.794.15 1.142.28.568.926.925 1.15 1.519.128.347-.25.74-.173 1.102 1.057 4.962.191-.615 1.27 1.864.098.22.097.524-.047.715-.079.11-.4-.252-.394-.111.006.145.021.293.046.441-.187.09-.828.395-1.195.52-.172.06-.519-.12-.54.061-.042.343.09 1.07.42.956.63-.215.895-.98 1.322-1.502.07.404.204.802.407 1.155.107.19 1.463-.005 1.49-.037.34-.363.13-1.045.46-1.418.47-.532 1.344-.6 1.8-1.148.19-.236-.129-.602-.104-.909.011-.132.227-.204.21-.335-.04-.268-.363-.465-.365-.738 0-.12.311.118.36.01a.92.92 0 0 0-.045-.752c-.14-.246-.814-.277-.666-.517.207-.335.79-.098 1.147-.267s.771-.364.941-.724c.081-.169-.429.038-.548-.104a1.282 1.282 0 0 1-.233-.458.498.498 0 0 0 .15.207c.242.147 1.11-.685 1.125-.71.202-.28-1.149-1.215-1.247-1.384-.11-.195-1.05-2.625-.959-3.075.066-.31.532-.349.73-.592.322-.387.45-.922.81-1.272.247-.246.706-.201.948-.459 1.614-1.69.176-.566-.047-1.644-.04-.208.346-.319.35-.53.004-.14-.315-.119-.329-.255-.096-1.07 1.466-1.033 2.001-.97.508.057 1.532.371 1.346 1.199-.053.227-.499.12-.626.319-.243.383-.212.89-.405 1.303-.124.258-.326.474-.526.675-.1.104-.315.094-.366.23-.049.13.2.273.13.39-.203.364-.845.489-.86.904-.036.957.466 1.86.722 2.784.07.255.041.6.255.761.007.005 1.936.754 1.936.76.04.164-.483.462-.318.408.502-.17.908-.554 1.393-.768.147-.067.338.019.473-.063.413-.258.696-.718 1.135-.934.11-.047.092.298.207.283.34-.036.6-.423.943-.402.831.052 1.708.189 2.43.608.308.181-.72.082-1.059.194-.277.094-.494.328-.772.422-1.41.477-2.11.353-3.276 1.115-.095.063-.054.245-.15.306-.16.103-.5-.026-.56.155-.048.148.332 1.353.59 1.468.25.111.628-.274.812-.072.198.22-.118.596-.073.89.048.345.558.709.348.99-1.34 1.79-1.327-1.85-2.798-.265-.16.17-.145.442-.186.67-.092.498-.26 1.002-.207 1.504.072.7.378 1.362.574 2.045.043.148.286.375.146.437-.425.194-.99-.111-1.39.133-.264.165 0 .745-.273.904-.715.413-.899-.608-1.476-.55-.532.049-1.009.352-1.516.52-.13.042-.29.023-.398.114-.169.14-.193.424-.382.538-.278.163-.637.136-.938.255-.417.158-.848.308-1.209.56-.07.05.14.282.066.24-.7-.386-1.232-1.122-2.009-1.317-.269-.068-.209.572-.455.701-1.07.578-1.836.367-2.53-.635-.113-.158.23-.413.12-.572-.109-.16-.526.09-.574-.098-.129-.518-.052-1.096.15-1.589.067-.156.396.132.506.004.23-.258.115-.727.358-.977.1-.11.256.272.39.21.623-.307.032-2.494-.144-2.83-.1-.2-.442.142-.616.29-.239.2-.58.413-.585.724-.005.197.675.012.568.183-.184.295-.7.188-.95.427-.255.244-1.319 1.474-1.128 2.203.105.403.282.78.457 1.16a.803.803 0 0 0-.256.078c-.063.034-.03.142-.048.21.11-.058.28-.073.365-.151.143.311.281.625.37.954.057.218-.22.48-.099.667.237.364 1.458.646 1.046.78-.472.148-.828-.788-1.313-.694-.335.067.09.877-.229 1.005-.28.108-.283-.724-.582-.691-.416.045-.515.768-.925.854-.464.101-.907-.438-1.377-.364-.369.055-.614.406-.919.627a.598.598 0 0 0-.177.11c-.13.042-.33-.14-.41-.026-.269.387-.282.905-.485 1.329-.123.26-.423.43-.488.71-.05.221.367.549.171.665-.287.174-.675-.255-1-.166-.447.12-.735.563-1.157.748-.38.166-.949-.021-1.208.297-.27.334.191.95-.077 1.282-.3.367-.92.254-1.345.462-.287.142-.54.355-.77.58-.088.085-.035.322-.158.335-.46.045-.99.068-1.386-.172-.2-.124.14-.531-.02-.702-.194-.198-.669-.404-.817-.167-1.165 1.895 2.117.196-.354 1.922-.279.195-.674.36-.994.245-.293-.105-.233-.651-.517-.78-.058-.028-2.063.212-2.038.344.207.912.937 1.651 1.626 2.287.187.175.86-.718.971.079.025.147-.387.246-.278.346.253.234.864-.022.983.302.104.284-.565.355-.634.651-.062.254.222.475.31.722.23.626.558 1.233.641 1.895.228 1.853-.12 1.275-.649 2.415-.202.439-.265.943-.507 1.36-.289.498-1.139-.076-1.715-.117-.147-.011-.258.236-.402.197-.274-.077-.417-.438-.692-.504-.408-.094-.842.133-1.25.052-1.114-.221-2.167-.674-3.269-.945-.042-.01-.03.14-.069.114-.353-.217-.564-.776-.977-.761-3.795.136-1.27 1.034-1.556 2.48-.184.957-.499 1.886-.695 2.84-.01.063.1.12.078.18-.255.692-.908 1.791-1.406 2.305-.072.075-.26-.07-.31.02-.209.365-.418.776-.384 1.195.146 1.695.851 2.71 2.308 3.558.243.14.635-.203.838-.011.305.278.181.825.412 1.165.366.538.89.944 1.34 1.412.006.007.015.007.025.007 1.54-.169 3.075-.434 4.623-.514.132-.007.212.327.321.245.387-.282.472-.89.884-1.135.418-.251 1.06.047 1.445-.251.273-.21-.004-.737.2-1.017.262-.358.836-.403 1.094-.77.018-.025-.296-1.7-.282-1.763.068-.327.382-.547.591-.806.833-1.032 1.187-1.695 2.468-2.132 1.15-.39.928.56 2.188-.863.312-.353.406-.86.483-1.325.074-.439-.4-1.075-.037-1.335.771-.557 1.832-.55 2.78-.633.132-.013-.095.276-.027.386.092.15.287.218.452.288.36.157.732.502 1.108.39.7-.209 1.191-.84 1.788-1.25.273-.186.73-.123.973-.288.394-.27.535-.968 1.011-1.008 1.58-.135 2.16 1.25 2.446 2.367.05.188-.138.41-.049.584.201.4.503.769.86 1.04.203.157.53.052.745.192.171.115.171.381.317.52.49.463 1.164.73 1.601 1.243.081.099.077.297.202.325.32.058.685-.243.975-.097.301.155.24.678.521.866.307.206.798-.008 1.092.218.38.29.412.892.774 1.203.15.129.475-.189.595-.03.46.626.806 1.365.941 2.13.078.431-1.215 1.48-.792 1.834.742.62 1.187-.456 1.38-.925.085-.22-.137-.525.003-.715.2-.27.701-.201.88-.484.816-1.29-1.722-.335-1.009-2.055.42-1.014.833-1.158 1.82-.483.204.14.157.478.322.66.25.272 1.02.448.656-.445-.635-1.578-2.65-1.526-3.886-2.27-.929-.556-2.024-1.231-2.776-2.022-.476-.499-.353-1.619-.806-1.956-.548-.406-2.316-1.112-1.968-2.225.272-.864 1.054-1.495 1.734-2.098.105-.093.117.273.24.348.366.23.882.23 1.18.54.346.364.343.96.642 1.365.195.26.684.267.795.579.063.17-.602.016-.525.182 1.135 2.463 3.154.372 3.805 2.401.016.05-.009.073-.049.082.491.148.984.285 1.452.493.075.03-.155.127-.12.206.49 1.246 1.188 2.406 1.647 3.664.035.092-.354-.013-.288.062.254.283.67.38.923.66.162.172.161.454.292.654.172.267.421.469.616.718.217.284.35.638.615.882.34.303.701.626 1.128.774-.208.142-.353.44-.387.998-.022.374.72.347.911.674.208.35-.1.935.208 1.207.197.174.396-.582.636-.47.333.148.124.867.472.978.258.085.18-.662.456-.68.328-.02.457.612.787.605.217-.006-.107-.427-.203-.624-.236-.496-.668-.912-.785-1.451-.104-.469.81-1.154 1.142-1.11.342.05.49.835.79.664.308-.177.118-.778-.095-1.062-.175-.235-1.152-.741-1.655-.835-.26-.046-.879.154-.785-.087.173-.435 1.075-.352 1.138-.813.161-1.221-.998-.777-1.303-1.456-.117-.265-.408-.757-.135-.864.663-.25 1.656 1.114 2.143.716.217-.178-.514-.59-.304-.772.222-.2.973.564.844.296-.219-.447-.912-.51-1.158-.938-.093-.166.387-.025.57-.085.326-.106.65-.233.945-.407.164-.097.23-.386.415-.395.462-.018 1.005.024 1.348.333.325.292.028 1.078.416 1.253-.002.067-.002.136.004.213.06.773.17 1.11.306 1.242.057.255.156.534.383.569.186.027.031-.279-.06-.525.33-.112.72-.46 1.02.543.061.21-.507.3-.43.508.088.236.847.048.706.258-.262.39-1.423.15-1.28.597.171.512 1.153.004 1.588.324.183.144-.456.481-.29.646.465.466 1.167.627 1.783.858.107.038.42-.145.334-.069-.39.36-1.133.434-1.283.944-.095.327.698.169 1.004.028.27-.127.225-.731.521-.73 5.708.069-2.592 1.252 2.004 1.064 2.16-.095.007-1.895 1.67-1.836.494.02 1.001.044 1.464.221.426.168.637.984 1.293.707 4.098-1.73-1.045-.004 2.216-2.172.285-.192.695.364 1.007.221.376-.17.327-1.138.723-1.018.39.123-.065.823-.03 1.23.04.462.1.93.253 1.368.045.12.265.106.321.226.931 2.102.082 3.3-.237 5.926-.068.535.068 1.95-.535 2.249-1.036.508-2.275.398-3.412.593-.43.073-.908.014-1.298.213-.413.206-.627.69-1.005.953-.133.093-.352-.01-.482.087-.105.078-.788 1.102-1.163 1.1-1.474-.019-2.936-.276-4.405-.407-.238-.02-.486-.103-.722-.056-.323.069-.583.422-.907.39-.77-.073-1.483-.424-2.21-.676-.033-.013.016-.087-.012-.098-.332-.123-.766.27-1.062.073-.26-.183-.14-.7-.41-.868-.46-.289-1.047-.316-1.584-.387-.429-.055-2.33.703-2.452 1.046-.973 2.817.455 2.822-1.68 4.534-.63.507-1.678-.647-1.922-.766a5.545 5.545 0 0 0-1.404-.454c-.954-.177-2.456.162-3.117-.874-.277-.423-.142-1.14-.576-1.4-4.386-2.672-1.733-.225-4.683-.678-1.207-.184-1.626-1.12-2.642-1.648-.179-.099-.457.124-.62-.004-1.752-1.386 1.37-1.524 1.32-2.96-.01-.33-1.174-1.5-1.107-1.715.6-1.813 2.653-1.489-.916-2.38-1.072-.267-1.029.532-1.932.74-.43.102-.88-.032-1.322-.041-.315-.01-.629.05-.937-.007-.372-.07-.695-.358-1.072-.377-.16-.007-.228.242-.376.306-.46.195-.93.49-1.426.465-.835-.044-1.594-.53-2.419-.666-1.128-.192-4.413.183-5.33.77-.25.16-.335.549-.614.636-.399.13-.86-.18-1.259-.04-.607.207-1.036.77-1.622 1.026-.764.335-1.194-.743-1.716-.89-.234-.067-.378.36-.616.38-.082.008-1.647-.086-2.039-.434a3.287 3.287 0 0 1-.708-.852c-.133-.24.006-1.49-.92-.573-.574.565-1.16 2.853-2.067 3.157-.83.28-1.837.165-2.537.7-.239.18-.426.42-.664.606-.212.166-.528.218-.684.435-.136.187-.003.48-.119.678-.189.33-.64.493-.762.855-.863 2.613.505 1.964-1.223 3.697-.65.653-2.52 1.55-3.338 1.713-1.029.203-1.127-.592-1.72.227-.274.369-.328.901-.679 1.195-.466.388-1.332.26-1.644.781-.253.425-.54.834-.73 1.287-.14.33-.034.77-.26 1.046-.295.366-.779.528-1.19.753-.205.112-1.017.13-.63.381.12.077.434-.343.377-.207-.197.48-.535.895-.834 1.323-.057.086-.17.12-.225.205-.127.197-.143.468-.309.636-.188.19-.499.203-.696.382-.084.081-.067.227-.095.338-.114.507-.378 1.007-.33 1.52.017.204.375.19.504.35.25.31.607.633.607 1.035-.006.434-.607.71-.62 1.145-.023.98.846 1.99.483 2.904-.202.515-.558.96-.754 1.476-.343.908.227 1.075-.729 1.876-.259.216-.772.023-.967.294-.119.166.346.228.493.369.403.385.841.753 1.148 1.22.055.081-.142.151-.183.25-.069.154-.157.316-.139.485.016.174.122.331.231.467.086.108.357.105.335.242-.132.812-.507-.64-.812-.617-.2.013-.167.438-.04.596.437.562 1.098.907 1.611 1.407.16.154-.362-.273-.56-.378-.102-.05-1.413-.794-1.029.025.185.389.491.73.84.98.176.123.508-.094.638.075.095.123-.535.172-.395.24.436.207 1.105-.11 1.43.25.2.222-.718.237-.723.54-.01.371.476.578.69.89.19.274.296.614.526.858.288.313.724.468 1.003.781.425.476.78 1.012 1.085 1.57.065.127-.042.297.006.43.184.512.505.97.68 1.49.021.075-.18.16-.12.215.33.332 1.24.51 1.221.831-.008.165-.572-.02-.475.113.243.333.71.425 1.044.672 1.68 1.213-.1-.065.76.83 2.866 2.986-.446-.522 1.663 1.268.966.822 2.61 3.03 3.952 3.21 2.763.363 5.773.305 8.466 1.245.136.048-.559-.016-.423.019 1.044.237 2.086.522 3.15.606.51.037 1.006-.219 1.516-.243 2.616-.108 5.241-.143 7.857-.156.901-.004.8.578 1.747 1.018.134.06.336-.284.413-.16.556.869-.11 2.03 1.502 2.159.422.032.677-.61 1.096-.629.597-.028 1.13.405 1.714.507.375.065.815.183 1.141-.01.165-.104-.388-.45-.216-.551.654-.374.944.941 1.693 1.252.352.148.833-.347 1.14-.12.946.714.212 1.416.128 2.127-.059.51.155 1.051-.014 1.533-2.544 7.047.983-5.808-1.906 1.724-.097.25.322.425.481.642.164.212.282.462.481.64.013.013.033.017.047.025.507.222 1.08.335 1.515.673.2.159-.955-.246-.763-.077.677.601 2.743 1.427 3.612 2.002.904.596-.038.43.82 1.377.298.338 1.797 1.606 1.872 2.095.033.25-.723.046-.686.29.07.439 1.891 1.2 1.268 1.875-.377.41-.96.567-1.459.82-.217.111-.509.107-.687.282-.279.278-.353.72-.623 1.004-.176.188-.54.148-.673.367-.118.2.021.47.035.704.008.126-.067.308.042.382.341.229.777.264 1.162.416.862.334 1.721.688 2.58 1.04.067.03.18.04.193.112.012.067-.216.12-.149.14 1.346.346 2.722.589 4.083.883a52.267 52.267 0 0 0 4.302-.54 86.844 86.844 0 0 0 11.585-2.832l.16-.006c2.223-.742 4.275-1.739 6.424-2.636.361-.145 1.642-.572 1.895-.867.308-.363.32-.935.65-1.285.213-.233.59-.214.87-.351 1.235-.613 1.715-1.034 2.748-1.71 1.905-1.248 4.888-2.21 6.18-4.213.25-.398.538-.782.737-1.212.121-.258.032-.585.165-.84.137-.268.46-.41.617-.67.034-.06-.17.049-.209-.008-.273-.43-.666-.862-.67-1.371-.006-.371.687-.524.653-.893-.02-.276-.795-.06-.765-.343.095-.859 1.33-1.823 1.827-2.472.192-.255.287-.566.475-.822.065-.088.211-.095.268-.191.116-.185.087-.454.237-.62.318-.36.8-.552 1.13-.905.066-.07-.098-.214-.037-.284.161-.16.431-.168.608-.306.496-.39.705-1.05 1.093-1.551 1.11-1.439 2.421-2.84 3.614-4.233.722-.849 1.566-1.578 2.285-2.43.994-1.165 1.915-2.55 2.675-3.892.525-.937 1.09-1.949 1.505-2.934.393-.944.641-1.953 1.061-2.884.394-.866.986-1.803 1.205-2.737.1-.406-.04-.856.101-1.252.032-.09.1-.157.176-.222-.02.004-.035-.004-.044-.026-.154-.394.018-.849.077-1.264.037-.291.342-.589.211-.848-.085-.17-.42.034-.555.178-.33.344-.472.843-.774 1.22-.286.356-.647.65-.97.968-1.13 1.105.897-.888-.838.537-.186.151-.267.403-.456.55-.264.205-.627.26-.875.49-.446.413-.693 1.022-1.166 1.403-.226.189-.568.157-.85.238-1.076.314-2.17.593-3.234.95-.35.118-1.077.838-1.002.475.113-.575.966-.766 1.173-1.313.234-.63-2.868-2.174-3.145-2.237-.46-.12-.958.266-1.416.146-.246-.06-.195-.662-.442-.62-.25.045.034.82-.203.728-.894-.334-1.003-3.002-1.905-3.808-.355-.32-.85-.434-1.3-.592-.158-.057-.422.1-.505-.048-.253-.446-.239-.997-.37-1.492-.166-.612-.449-1.203-.527-1.83-.012-.115.327-.066.287-.166-.12-.294-.493-.425-.639-.708-.106-.206.072-.513-.082-.69-.278-.314-.727-.436-1.1-.644-.333-.18-.853-.17-1.01-.517-.2-.433.327-1.001.123-1.431-.198-.401-.833-.367-1.148-.68-1.128-1.112-.519-.974-1.154-1.793-.554-.715-.545-.156-1.15-1.337-.07-.144.106-.334.031-.474-.273-.512-.745-.906-1.04-1.407-.03-.055.21-.036.168-.084-.997-1.092-1.847-.88-2.346-2.599-.055-.184.398-.22.574-.129 1.12.584 1.014 3.066 2.677 2.576.304-.09.38-.418.441-.776.008.024.013.05.03.066.244.219.65-.368.951-.242.497.206 1.23 1.39 1.601 1.867.23.294.44.609.717.85.081.075.245-.038.313.045.1.131-.006.354.1.483.242.291.61.453.887.706.458.415.844.915 1.326 1.302.243.198.624.21.835.444.52.57 1.022 1.197 1.31 1.91.113.287-.222.606-.175.912.064.43.245.85.496 1.2 1.138 1.62.764.293 2.43 1.201.91.505.661 1.633 1.72 2.384.214.154.644.009.751.258.412.98.33 2.118.672 3.133.048.154.362.064.445.207.27.48.427 1.024.552 1.567.008.028-.244 1.48.377 1.305 2.316-.66 1.578-1.128 2.703-2.441.224-.26.953-.609 1.278-.901 4.028-3.605-2.307 2.026 1.556-1.87.23-.225.623-.26.83-.508.328-.398.422-.951.726-1.372.387-.544.877-1.004 1.301-1.515.59-.723 1.39-1.212 1.755-2.138.12-.313-.106-.69.006-1.005.156-.421 1.477-2.296 1.753-2.532.31-.275.764-.422.954-.787.23-.448.014-1.032.22-1.487.167-.376.668-.525.847-.897.23-.475.125-1.065.273-1.573.671-2.272 1.55-5.117 1.694-7.554.046-.79-1.1.457-2.817-.486-.718-.395-.852-2.534-1.456-1.987-.225.214-.497.398-.63.675-.107.23-.005.514-.056.763-.147.71-.328 1.418-.54 2.118-.147.473-2.403 2.157-2.623 2.227-1.397.453-.427-1.264-.47-1.317-.218-.29-.868-.42-1.087-.129-.232.311.734 1.05.353 1.112-1.078.188-1.01-2.23-1.42-2.593a4.364 4.364 0 0 0-1.354-.818c-.159-.058-.365.253-.494.141-.393-.328-.505-.892-.853-1.27-.34-.365-.97-.466-1.185-.918-.11-.227.465-.335.47-.587.003-.262-.512-.388-.454-.646.055-.234.478-.138.67-.285.727-.56.604-1.078 1.611-1.32.27-.067 1.368 1.231 1.655 1.7.188.305.242.77.571.91.44.177.948-.174 1.408-.097 1.083.182 1.572 1.12 2.567.25.507-.443 1.168-2.804 1.746-2.615.634.206.546 1.248 1.01 1.722.082.085 1.171-.408 1.63-.75.462-.334.727-.905 1.198-1.226.287-.194.65-.27.915-.493.08-.072 2.138-2.364 2.171-2.41.051-.08-.052-.204-.008-.288.184-.37.475-.677.663-1.044.118-.225.005-.62.237-.712.185-.079.236.343.41.451.437.276.933.457 1.396.69.295.15.612.648.885.459.428-.302.131-1.168.557-1.469.287-.205.082.706.025 1.05-.03.197-.085.386-.147.575.41-.922.774-1.885 1.501-2.552.374-.34.041 1.014.136 1.51.195 1.046.438 2.087.732 3.114.045.148-.013-.62.036-.47.2.615.3 1.26.43 1.897.09.434.095.891.228 1.316.567 1.791.662 1.069.883 2.377.234 1.374.41 2.76.642 4.13.016.083.085.308.1.227 1.434-9.434.834-13.293.315-24.352" fill="#387283"/><path d="M227.971 16.127s-.978.266-1.478.367c-.174.037-.587-.14-.537.033.46 1.466 1.677-.14 2.015-.4M205.23 8.295c.095.017.186.049.278.084-.033.007-.068.01-.101.018-.174.045-.277.236-.434.327-.303.177-.6.392-.941.477-.172.042-.43.133-.656.18.248.156.035.82.33.825 4.094.05.689-1.052 2.29-.776 1.42.244 2.822.96 4.249.78.562-.07.62-.955.932-1.432 0 0-1.143.21-1.077-.145.087-.463 1.157-.231 1.23-.693.06-.388-.637-.626-1.027-.584-.412.04-.565.66-.956.797-.327.114-.696-.192-1.032-.112a4.967 4.967 0 0 0-.44.137c-.003-.023-.021-.043-.058-.056-.036-.014-.074-.012-.113-.017.122-.045.245-.091.365-.14.144-.062-.6.018-.461-.056.638-.331 1.348-.508 2.024-.765-1.787-.027-3.635-.25-5.11 1.08-.177.16.475.027.709.07M202.935 9.337c.07.092.242.085.44.045l-.007-.008a.558.558 0 0 0-.433-.037" fill="#387283"/><path d="M204.003 8.377c-.025-.384-.768.106-1.154.12-.244.007-.574-.242-.728-.053-.233.277.061.76-.113 1.072-.137.252-.464.35-.727.46-.14.061-.485-.093-.445.05.326 1.18 1.27-.466 2.1-.689a.166.166 0 0 1-.036-.104c-.016-.464 1.137-.393 1.103-.856M243.045 8.93c-.452-.16-1.762-.17-1.423.166.623.618 1.656.586 2.488.88 0 0-.6-.88-1.065-1.046M207.7 5.3c.085.16.357.04.537.058 0 0-.039-.24-.13-.247-.148-.016-.478.059-.407.19M224.63 18.718c.52.026 1.11-.607 1.527-.298.369.272-1.064.066-1.298.462-.707 1.196 1.04 1.016 1.277 1.184.115.083-.403.012-.401.155 0 .176.289.503.4.362.407-.523.572-1.205.74-1.844.04-.132-.225-.286-.133-.393.19-.232.974-.17.8-.42-.29-.434-1.037-.268-1.467-.567-.114-.083.15-.298.07-.41-.144-.188-.537-.55-.623-.33-.16.402.657 1.137.248 1.272-.458.148-.538-.88-.991-1.03-.332-.112-.657.245-.981.371 0 0 .65.693.88 1.107.066.108-.171.37-.048.38M207.959 3.714c-.358-.08-1.216-.028-1.06.304.193.418.892.204 1.34.304 0 0-.064-.558-.28-.608M202.957 7.188c.25.052.425-.29.636-.437-.006-.066.047-.185-.016-.2-.36-.08-.846-.306-1.102-.042-.19.196.212.62.482.68" fill="#387283"/><path d="M199.412 10.634c.067.201.473-.088.568-.274.222-.459-.037-1.123.311-1.499.302-.33.9-.116 1.317-.27.323-.12.584-.36.876-.54 0 0 1.088-.676.745-.792-.404-.138-.692.505-1.078.678-1.728.777-3.75-.36-2.739 2.697M205.327 5.052s.472-.747.223-.71c-.63.094-1.072.73-1.68.93-.24.073-.92-.31-.73-.155 1.07.874 1.186.465 2.187-.065M240.33 3.63c-.037.306 1.223 1.085 1.689 1.022.248-.037.444-.236.662-.35 0 0-.808-.371-1.232-.493-.363-.103-1.078-.554-1.118-.179M244.152 18.75c.112-.172-.425-.636-.579-.94-.034-.069.027-.148.037-.223.08-.543.144-1.09.234-1.628 0-.027.06-.078.04-.064-.869.523-1.976.869-1.657 2.107.046.17.265.235.382.367.206.233.388.483.584.727 0 0 .078 1.57.677 1.796.037.014.069.009.102.006-.474.288.206.863.77 2.152 0 0 1.893.308 2.843.418.194.02 1.59.075.871-.425-.312-.212-.758-.104-1.117-.226a7.119 7.119 0 0 1-1.269-.587c-.465-.267-1.022-.803-1.218-1.319-.032-.083.226-.242.135-.23-.371.034-.637.076-.823.134.234-.242.323-.892.295-1.25-.026-.309-.641-.262-.749-.548-.059-.16.35-.122.442-.267M196.638 9.041c.824-.1 1.54-.62 2.31-.933-.586-.06-.987-.134-1.639.194-.295.148-1.003.776-.67.74M247.942 6.516c-.106-.035-.228.253-.131.311.472.274 1.034.342 1.55.514 0 0-.9-.652-1.42-.825M202.769 3.705c-.257.218-.26.954.073 1.01.675.12 1.298-.44 1.942-.66 0 0 1.289.102 1.116-.24-.382-.761-2.761-.43-3.131-.11M197.406 7.469c-.134.204.448.255.69.229.558-.058 1.078-.315 1.616-.475-.7-.164-1.711-.64-2.306.246M215.594 12.002c.326.044.606.257.921.362-.56-.107-1.179-.007-1.715-.204-.254-.095.523-.192.794-.158m.921 3.145c.27-.091 1.06-.155.806-.276-.67-.32-1.452-.328-2.19-.384-.167-.012-.306.124-.468.177-.12.04-.487.168-.372.109.678-.371 2.555-.649.682-1.578-.315-.157-.849.266-1.048-.023-.165-.237.516-.346.805-.328.452.03.828.409 1.28.469.336.048.751.073 1-.159.167-.155.096-.584-.11-.677a1.812 1.812 0 0 0-.175-.061c.118.015.25.012.213-.061-.62-1.191-1.45-.526-2.578-.416-.345.032-.533-.6-.878-.561-.507.061-.83.665-1.336.745-1.88.289 0-1.098-.912-1.508-.365-.167-.643.617-1.045.6-.36-.015-.484-.616-.837-.69-2.778-.596-1.228.006-2.719.603-1.273.507-.369-.683-2.017-.638-1.203.033-1.637.974-1.627.986.14.154.466.084.56.267.055.111-.198.242-.318.204-.367-.124-.584-.632-.97-.641-.38-.009-.658.39-.98.595-.169.111-.545.167-.49.365.315 1.15 1.417.222.553 1.523-.91 1.361-.448.292-1.3.984-.339.272-.572.663-.918.919-.294.216-.659.302-.977.478-.29.156-.604.288-.84.518-.06.06.125.209.051.242-.707.34-1.658.241-2.21.794-.342.341 1.307-.477 1.44-.015.35 1.264-1.187 1.095-1.685 1.483-.26.2-.512.438-.665.727-.008.019.01.031.033.039-.317-.053-.654-.19-.89-.006-.185.141.606.384.437.545-.6.57-1.4.958-2.207 1.141-.357.079-.76-.677-1.015-.411-.292.302.523.977.201 1.252-.28.235-.256-.753-.573-.937-.149-.09-.098.384-.256.452-.338.143-1-.238-1.099.115-.12.418 1.156.871.762 1.059-.418.199-.566-.946-1.03-.931-.458.016-.59.709-.946.997a.43.43 0 0 1-.187.058c.453-.03.906-.08 1.358-.109.231-.015.87.237.642.27-.19.03-.339-.223-.529-.228-.429-.02-.852.105-1.279.152-.173.017-.498-.133-.524.042-.052.397.617.833.368 1.147-.234.296-.746-.318-1.105-.213-.34.094-.499.495-.743.746-.374.387-.816.72-1.109 1.169-.063.094.31-.081.33.032.06.301-1.813 1.727-1.835 1.758-.115.165.022.397.03.596 0 .057.031.128-.005.166-.243.245-.592.375-.808.643-.045.063.26.156.182.149-.092-.007-.546-.417-.479.09.017.121.213.182.204.302-.015.236-.093.494-.265.656-.105.101-.523-.104-.435.015.223.312.577.537.935.677.216.084.597-.256.69-.044.293.679-1.238 1.2-1.384 1.285-.335.199.471.941.836.808.686-.249.94-1.13 1.521-1.568.091-.071.097.326.197.274.248-.136.298-.499.526-.67.057-.043.06.208.125.175.361-.167.642-.459.968-.687.736-.519 1.392-1.194 2.22-1.558.16-.07.064.619.19.495.241-.245.03-.774.295-.991.174-.138.424.382.608.257.364-.239.312-.902.692-1.116.374-.207.857.084 1.281.02.121-.02.154-.296.271-.26.174.055.15.493.324.443.477-.128.751-.67 1.211-.855.102-.045.081.21.136.306.11.203.234.396.35.594 0 0 .845.005 1.23-.135.475-.178.846-.565 1.297-.796.055-.029.127.062.184.034.15-.076.22-.279.382-.321.221-.056.494.168.686.042.35-.225.345-1.015.762-.987 3.23.214 1.264 1.777 3.515 1.088.5-.153.91-.532 1.41-.678.111-.033.174.194.288.183.39-.041 1.43-.067 1.137-.329-.775-.698-2.076-.555-2.877-1.226-.343-.287.96.16 1.351-.057.215-.117-.145-.607.066-.727.37-.208.76-.144 1.054-.083.111.85.21 1.701.694 1.483.203-.09.28-.58.462-.468.185.108-.388.315-.364.525.018.146.345.206.433.088.244-.309 1.66-2.104.587-2.792-.209-.139-.484.27-.724.199-.14-.041.244-.188.296-.327.181-.471-.028-1.176.387-1.463.358-.244.828.318 1.258.335.18.01.35-.39.467-.257.08.084-.14 2.133 1.088.879.362-.372.004-1.212.445-1.488.35-.222.917.825 1.148.476.255-.369-.936-.777-.69-1.154.253-.388 1.036.389 1.391.091.364-.309.117-.946.183-1.418.022-.149-.075-.454.076-.447.457.016.825.414 1.273.497.123.019.332-.082.307-.203-.089-.413-.737-.721-.598-1.122.102-.3 2.25-1.638 2.892-2.041.523-.163 1.042-.341 1.56-.514" fill="#387283"/><path d="M187.47 23.292c-.055.002-.109.009-.164.012-.073 0 .042.004.164-.012M194.994 18.572c.003-.011.02-.032.011-.032-.77.135-.396.096-.01.032M195.75 7.376c1.564-.795 3.415-.622 4.955-1.474.082-.045-.174.04-.266.058-.597.104-1.192.23-1.792.3-.075.013-.285-.037-.213-.058.441-.133.917-.138 1.352-.282.604-.197 1.294-.689 1.82-1.027 0 0 .473-.391.441-.652-.025-.181-.316.19-.494.224-.395.086-.82.003-1.199.13-.41.131-.736.44-1.12.625-.404.192-1.529.86-1.246.514.417-.51 1.238-.55 1.676-1.04.221-.253-.66.128-.973.245-.457.171-.87.442-1.33.609-.278.098-.629.005-.87.175-.423.3-.614.856-1.029 1.16-.339.25-.798.27-1.172.46-.28.145-.975.286-.778.534.533.664 1.877-.32 2.237-.501M191.893 20.364c.535-.313.985-.755 1.475-1.132 0 0-.933.473-1.346.788-.095.073-.234.405-.129.344M190.574 13.175c.125-.045.21-.159.316-.242-.103-.078-.44.289-.316.242M192.694 8.645c-.48.216-.892.593-1.214 1.01-.15.194.448-.204.672-.307.5-.22 1.005-.44 1.505-.662-.323-.012-.669-.17-.964-.041M226.48 31.164s.128.103.175.066c.095-.083.25-.259.16-.347-.18-.17-1 .37-.336.281M225.916 31.84c-.11.02-.194.12-.29.178 0 0 .398-.203.29-.178" fill="#387283"/><path d="M183.832 17.038c.04-.25-.389-.592-.599-.456-.34.217-.556 1.524-.849 1.91-.463.6-1.36.957-1.764 1.606-.176.286-.184.656-.365.938-.176.274-.527.409-.686.69-.215.39-.665.904-.417 1.277.211.308.713-.211 1.075-.301.174-.043.358-.037.528-.097 1.104-.396 1.778-1.472 2.54-2.293.456-.494.495-.36 1.086-.838.373-.301.61-1.046 1.081-.951.426.085.57.849.386 1.243-.209.443-.894.416-1.298.689-.165.113-.242.316-.38.45-.128.129-.593.333-.415.339.795.03 2.17-.893 2.76-1.052.098-.027.062.358.121.277.303-.396.4-.926.686-1.335.321-.457.901-.738 1.128-1.248.093-.205-.68.385-.644.167.058-.317.485-.417.727-.623 0 0 .382-.862.781-1.012.295-.114.597.548.865.384.288-.181-.084-.751.136-1.005.438-.504 2.27.978 2.108-.833-.039-.467-1.75.443-1.399.132.652-.588 1.7-.535 2.413-1.042.256-.176-.698.196-.929-.011-.156-.133.148-.403.315-.525a5.295 5.295 0 0 1 1.397-.702c.11-.034.205.198.304.146.316-.164.908-.38.794-.717-.134-.404-1.449-.132-1.184-.46.42-.521 1.312-.288 1.951-.49.31-.095.884-.08.884-.402-.003-.354-.543-.521-.892-.571-1.154-.16-1.617.675-2.68.857-.118.02-.206-.301-.095-.341.905-.35 1.863-.551 2.82-.706.381-.064 1.503.234 1.16.053-1.28-.667-2.256-.502-3.464-.022-.513.198-1.23.234-1.48.722-.194.372-.209.83-.465 1.165-.266.347-1.207.388-1.048.799.16.42 1.292-.46 1.348-.015.077.619-2.856 1.389-3.128 1.715-.33.384-.416.945-.777 1.296-.405.396-.942.647-1.459.876-.239.109-.625-.09-.777.124-.247.352.11.977-.203 1.267-.243.227-.656-.097-.979-.168-.59-.132-1.31-.03-1.76-.432-.22-.197.698-.186.742-.474M198.948 34.763s.268.55.508.715c.388.26.844.554 1.312.517.925-.076 1.746-.657 2.655-.848.216-.045.447.265.637.167.335-.178.444-.614.711-.875.22-.212.721-.226.742-.531.125-2.244-1.836-.811-2.794-1.03-.315-.074-.205-.702-.503-.84-.167-.078-.143.385-.31.462-.17.079-.377-.097-.56-.062-.126.02-.189.21-.315.208-.095-.005-.092-.267-.176-.228-.222.11-.546.786-.487.547.11-.446.65-.76.65-1.221 0-.378-.274-.948-.649-.924-.56.045-.804.805-1.299 1.07-.07.039-.217-.005-.332-.051.374.183.765.329 1.152.486.116.046.484.073.365.127-1.063.444-3.392.262-1.307 2.31M198.738 31.839c-.044-.022-.09-.039-.134-.062-.073-.038.014.013.134.062M205.522 47.54c.107-.06.152-.19.226-.286 0 0-.217.07-.286.156-.028.04.018.153.06.13M206.507 50.721c.023-.049-.09-.014-.164-.014-.204.269-.377.56-.467.878-.095.345.484-.54.631-.864" fill="#387283"/><path d="M205.441 60.727c.19.129.372.47.581.378.274-.117.107-.737.396-.797.4-.081.721.504 1.13.482.481-.026.823-.587 1.306-.61.582-.032 1.131.288 1.692.454.092.025.213.208.261.126.221-.398.106-.953.391-1.307 1.066-1.321 1.42.227 1.9-1.74.28-1.141-.903-.547-1.256-1.02-.313-.418-.246-1.01-.372-1.517-.11-.431-.187-.873-.345-1.291-.235-.618-.605-1.18-.829-1.8-.04-.113.125-.275.037-.36-.364-.348-.828-.59-1.273-.83-.208-.112-.63.015-.67-.214-.184-.941 3.671-.643 2.532-2.255-.476-.674-1.709-.022-2.445-.394-.773-.391 1.891-.557 1.475-1.32-.288-.528-1.11-.476-1.663-.712 0 0-.133.983-.457 1.309-.167.173-.56-.302-.716-.114-.17.209.153.526.156.797 0 .187-.063.372-.138.545-.16.35-.649.637-.564 1.016.06.252.763-.53.735-.271-.062.573-1.05.825-1.017 1.4.002.02.026.025.056.025.08-.105.164-.21.252-.308.161-.182.518-.56.637-.348.232.413-.089.947-.039 1.416.056.466.263.903.363 1.365.161.764.22 1.55.42 2.303.052.175.496.396.321.445-.698.2-1.958-.883-2.386.54-.264.882 1.708.392.276 1.169-.43.23-1.238.029-1.38.495-.12.379.716.348 1.057.55.368.214.642.663 1.066.698.421.033.914-.874 1.156-.525.238.349-.51.749-.913.873-.447.14-.95-.295-1.399-.148-1.972.647-1.047 1.006-.334 1.495M203.204 56.898c.195.04.47.273.585.11.486-.723.748-1.578.973-2.419.056-.22-.17-.444-.15-.675.01-.117.15-.18.222-.27 0 0 .858-.713.94-1.22.056-.35-.28-.727-.604-.867-.705-.319-2.632 1.435-2.634 1.435-.73.053-1.166-1.036-1.692-.172-2.695 4.43 1.3-1.95.752 1.816-.084.566-1.385.345-1.452.912-.057.44 1.302-.346 1.33.097.024.463-.845.413-1.3.512-.265.057-1.083-.123-.815-.06 1.27.314 2.56.538 3.845.8M163.634 43.768c.002-.179-.17.123-.35.333.027.13.061.278.103.442.135-.247.244-.502.247-.775M162.492 45.743c-.047.108.078.377.173.307.348-.263.548-.674.797-1.03.07-.095.07-.237.155-.316.203-.17.917-.278.683-.403-.277-.152-.822.595-.901.287-.004-.017-.006-.029-.011-.045-.095.174-.201.344-.298.511-.151.266-.478.41-.598.69M159.731 42.535c-.119.196.278.642.467.513.463-.312.875-1.42.875-1.42-.446.305-1.057.45-1.342.907M220.476 78.708c.494-.447.688-1.118.919-1.763-.315.224-.845.184-1.03.525-.198.362-.198 1.518.11 1.238M221.66 76.296a6.337 6.337 0 0 0-.265.65c.02-.016.047-.02.064-.037.16-.144.2-.613.2-.613M219.905 84c.21.156.47.375.727.312 1.44-.358 1.336-1.052 1.375-2.284.005-.23-.275-.09-.17-.362.075-.2.384-.34.33-.55-.138-.531-.56-.94-.84-1.413 0 0-.782 2.817-1.241 4.203-.021.064-.236.054-.181.094M229.902 85.585c-.458.094-.918.186-1.368.31-.133.042-.243.216-.379.178-.729-.192-.661-.957-1.597-.38-.253.153-.611.49-.475.756.202.39.793.372 1.17.592.318.188.585.474.922.626.24.103.551.005.781.133.529.299.295 1.17 1.328.755.993-.4-.117-1.247-.069-1.622.076-.56.503-1.02.749-1.532 0 0-.71.112-1.062.184M256.483 87.677c.888 1.98 1.607.005 2-.325.16-.135.496.006.598-.173.26-.453.246-1.009.368-1.514 0 0-.54.6-.89.783-.396.208-.92.117-1.292.363-.136.093.138.365.027.482-.2.223-.932.111-.81.384M287.782 89.25c.403-.326.5-.912.75-1.368 0 0-.388.211-.487.397-.16.294-.524 1.186-.263.971" fill="#387283"/><g transform="translate(304 65.951)"><mask id="b" fill="#fff"><use xlink:href="#a"/></mask><path d="M.591.394l.014.052c.022.031.01 0-.014-.052" fill="#387283" mask="url(#b)"/></g><g transform="translate(305 90.951)"><mask id="d" fill="#fff"><use xlink:href="#c"/></mask><path d="M.45.296c-.069.762-.157 1.522-.233 2.28-.021.433-.326.958-.057 1.297.236.303.132-.748.19-1.127C.416 2.35.578 1.172.574.95.566.73.502.514.45.296" fill="#387283" mask="url(#d)"/></g><g transform="translate(305 89.951)"><mask id="f" fill="#fff"><use xlink:href="#e"/></mask><path d="M.385.897c.006.135.035.267.066.4C.47 1.067.499.84.514.608.52.505.378.792.384.897" fill="#387283" mask="url(#f)"/></g><path d="M277.822 142.872c-.536.549-1.217.958-1.679 1.566-.032.045.194-.026.154.013-.473.454-.984.87-1.499 1.283-.069.052.217-.271.151-.215-.309.26-.569.575-.883.83-.684.557-1.663 1-2.37 1.572a9.783 9.783 0 0 0-1.276 1.192c-.22.25-.286.626-.52.87-.126.133-2.202 1.615-2.318 1.7l2.96-1.7c2.34-1.62 4.747-3.457 6.632-5.593.178-.202.264-.47.453-.666.38-.393 2.033-1.264 1.364-2.267-.018-.026-.995 1.239-1.169 1.415M151.456 44.67c.225-.364.48-.715.627-1.115.007-.021.006-.032.001-.037-.049.095-.093.191-.144.285-.105.197-.329.597-.484.867M149.676 46.6c-.014.033.033-.07.05-.102l-.006.015c.036-.076.077-.15.113-.227l-.03.05c-.052.082-.083.175-.127.264M170.08 34.136c-.057.076-.119.151-.179.225.01.031.01.048.027.082.047.107.221-.399.152-.307M151.456 44.67c-.04.066-.083.132-.12.199-.09.162-.009.027.12-.199" fill="#387283"/><g transform="translate(149 -.049)"><mask id="h" fill="#fff"><use xlink:href="#g"/></mask><path d="M4.928 40.978a2.695 2.695 0 0 0-.152.203 50.78 50.78 0 0 0-1.212 1.645c.075-.135.16-.304.212-.39.335-.541.66-1.085.984-1.63-.207.357-.42.712-.611 1.078-.07.133.168-.25.252-.377.248-.373.445-.784.742-1.12.043-.047.15.085.12.136-.034.054-.162.225-.335.455m31.652-28.04c.23-.206.544-.308.791-.498.2-.15.294-.537.542-.518.219.016-.23.385-.393.53-.629.546-.984.717-1.16.8.063-.114.126-.231.22-.314m-8.423 11.947c-.145-.44-.858.355-1.282.54-.226.097-.418.31-.66.31-.625.012-1.331.07-1.85-.274-.305-.204.773-.035 1.08-.234.418-.278.701-.724 1-1.126.04-.052-.06-.157-.009-.2.262-.231.654-.301.887-.565.133-.153-.056-.505.122-.594.349-.181.863.159 1.175-.08.293-.215.142-.724.32-1.043.133-.25.37-.431.586-.61.06-.05.194.016.23-.055.291-.54.428-1.155.712-1.705.024-.048.134.04.17-.002.221-.268.471-.544.56-.88.03-.101-.223-.08-.317-.028-.418.22-.759.56-1.159.81-.45.283-1.366.81-1.974 1.049-.122.047-1.463.429-1.816.767-1.148 1.098-.652 1.042-1.993 1.932-.619.412-1.22.905-1.938 1.11-.292.084-.565-.39-.859-.31-.508.136-.707.789-1.125 1.105-.302.229-.637.418-.924.664-.355.297-.613.704-.997.97-.131.095-.325.035-.49.062-.446.077-1.186 1.296-1.054.862.265-.862.855-.942 1.32-1.488 1.102-1.283 1.869-2.01 3.242-2.992.346-.251.858-.332 1.072-.698.216-.377.256-.837.482-1.203.07-.115.258-.08.361-.165.224-.176.413-.394.608-.606.265-.293.488-.625.77-.904.735-.73 1.913-1.282 2.425-2.212.08-.146.049-.35.16-.473.08-.09.242-.048.35-.106.633-.353 1.68-.99 2.215-1.541.072-.075-.372.19-.287.126.434-.334 1.35-.912 1.886-1.047.834-.213 1.69-.332 2.541-.452.07-.006.136.104.195.07.43-.228.822-.526 1.21-.821.212-.162.37-.382.589-.541.125-.091.493-.324.42-.19-.356.64-1.278 1.034-1.3 1.764-.008.434.882-.086 1.264-.286a.538.538 0 0 0 .173-.165l.004.007c.058.1.111.183.16.258-.684.257-1.341.583-2.04.8-.922.283-.514-.95-1.496.893-.192.355-.487.972-.157 1.198.31.216.584-.476.889-.686.462-.318.944-.6 1.417-.895 0 0 .416-.554.684-.762.236-.182.52-.292.786-.428a.102.102 0 0 1 .015.019c-.087.033-.16.079-.174.162-.02.105.11.027.248-.063.566.684.255-.965 1.573-.717.346.066-.454.69-.32 1.016.088.21.452-.094.66-.195.386-.188.736-.454 1.108-.671.146-.088.28-.248.453-.242.102.004.06.269.166.263.336-.014 1.35-.553 1.583-.778.277-.273 1.027-.754.688-.942-.438-.245-.94.348-1.401.542-.127.052-.227.215-.363.195-.087-.011.197-.235.108-.23-.588.04-1.16.236-1.737.342-.069.013-.26.05-.2.014a17.481 17.481 0 0 1 1.68-.86c.041-.017.053.148.072.106.091-.171.017-.441.17-.565.256-.206.63-.192.928-.32.375-.158.734-.345 1.093-.536.019-.01.008-.044.022-.054.148-.12.277-.298.467-.337.156-.035.3.18.457.142.452-.122.976-.24 1.267-.602.133-.168-.142-.5-.352-.545-.254-.057-.472.208-.71.303-.53.217-1.092.36-1.6.629-.08.042.356.066.27.083-.963.204-1.93.43-2.91.478-.355.016.65-.271.986-.385.559-.192.903-.183 1.465-.451.236-.112.916-.456.654-.434-.495.044-.903.478-1.4.502-.24.008.372-.307.556-.465.298-.262.566-.564.892-.798.549-.391 2.639-1.092 2.744-1.27.285-.48-1.137-.11-1.035-.153.387-.17.807-.265 1.19-.447.066-.032.06-.136.115-.181.311-.242 1.218-.727 1.515-.82.354-.11.746-.072 1.102-.181.299-.092.55-.298.834-.416 3.34-1.363.14.057 3.24-1.13.367-.14.699-.371 1.073-.49.335-.106.698-.1 1.04-.183 3.004-.776-.697.084 1.898-.777.803-.27 1.63-.463 2.447-.675C62.55.812 67.513.434 71.138.048c-7.288.389-14.442 1.57-21.418 3.81C28.43 10.7 10.58 26.27.834 46.335c.286-.456.512-.968.903-1.34.099-.09.016.385.147.375.19-.021.288-.26.381-.423.185-.325.24-.712.436-1.032.073-.122.347-.381.384-.348.123-.236.241-.473.357-.712-.008.04-.021.078-.024.12-.004.05.008.056.03.035a.527.527 0 0 0-.06.12c-.035.393.603-.534.84-.852.18-.25.284-.403.345-.505.006.024 0 .053.013.074.285.398.73-.66 1.053-1.021.075-.083.035-.354.128-.3.213.124.295.403.426.616.045.074.03.295.101.243.18-.127 1.28-1.5 1.4-1.514.502-.066.975.404 1.473.34.262-.034.264-.67.515-.6.258.073-.103.685.143.785.3.114.789-.683.9-.377.12.332-.645.41-.77.743-.106.287.445.814.154.908-.409.137-.726-.594-1.158-.573-.167.012-1.082 1.37-.89 1.545.36.326.98.002 1.45.12.297.078.659.728.806.457.378-.681.087-1.56.234-2.324.072-.392.243-.762.416-1.12.224-.437.43-.901.764-1.26.184-.201.627-.107.748-.355.22-.455-.253-1.218.16-1.508.316-.217.348.798.719.896.247.063.394-.346.51-.576.145-.296.531-.797.241-.958-.734-.42-1.68-.178-2.516-.326-.093-.015-.32-.112-.24-.165.418-.274 1.02-.245 1.389-.585.273-.26.007-1.056.385-1.065.47-.007.507.924.963 1.036.397.098.883-.877 1.098-.533.373.61-.127 3.018.636 3.419.25.132.573.024.846-.06.244-.075.404-.463.655-.407.752.169.521.73.598.925-.027-.001-.056-.01-.082-.001-.358.092-.607.426-.924.618-.596.36-2.087 1.379-2.675 1.637-.114.048.284-.18.234-.293-.05-.105-.314-.077-.352.035-.058.187.24.387.158.566-.349.764-1.539.916-.739 2.043.139.193.792-.178.717.049-.165.492-.806.675-1.095 1.11-.09.133-.12.432.034.48.29.093.627-.057.905-.186a.627.627 0 0 0 .18-.161c-.477-2.294 1.248.26 1.463-.466.061-.228-.526-.204-.556-.438-.022-.162.38.075.485-.051.098-.118-.18-.35-.072-.455.197-.2.81.01.793-.271-.014-.364-.732-.36-.837-.71-.134-.461-.075-1.04.205-1.433.122-.171 2.213-1.432 2.686-1.855-.11-.04-.218-.114-.328-.167.177-.05.49-.218 1.066-.578 2.408-1.513.51-.666 1.049-2.3.127-.386.405-.698.665-1.016-.293-.77.704-.066.77-.303.119-.461-.384-.924-.313-1.394.053-.31.55-.392.637-.691.046-.148-.53.197-.445.069.397-.606 1.023-1.03 1.456-1.611.25-.333.367-.744.576-1.101.037-.06-.113.2-.046.2.937-.016.951-.82 1.55-1.448.204-.22.614-.234.75-.505.07-.132-.473-.134-.372-.247.354-.406.953-.527 1.357-.886.093-.083.008-.257.059-.371.291-.64 2.009.965 1.276-1.237" fill="#387283" mask="url(#h)"/></g><g transform="translate(232 162.951)"><mask id="j" fill="#fff"><use xlink:href="#i"/></mask><path d="M1.176 1L1.005.964.878.977 1.176 1z" fill="#387283" mask="url(#j)"/></g><path d="M286.772 116.239c-.07.055-.137.11-.202.165.049-.006.128-.081.202-.165M286.772 116.239a.67.67 0 0 0 .19-.208c.048-.09-.067.07-.19.208M220.986 149.596a.71.71 0 0 1-.122-.064l-.018-.006c-.063-.027.025.015.14.07M221.121 149.66c.14.064.263.118.196.079-.059-.035-.128-.056-.196-.08M230.233 28.658c.318.07.663.269.98.313-.071-.307-1.387-.4-.98-.313M233.452 76.365c-.334-.1-.667-.2-.989-.333-.282-.114.748.393.99.333M299.637 84.375c.082-.206.164-.414.236-.625-.125.28-.253.557-.397.82-.04.077.13-.117.161-.195M159.086 132.842a.674.674 0 0 1 .085.102c.021.035-.042-.045-.085-.102m-.424-.62c-.203.131.204.393.422.618.449.612.906 1.2 1.393 1.79l-.28-.449c-.525-.64-1.029-1.303-1.535-1.96M164.285 145.676c.003-.522-1.347-2.83-1.704-3.302-2.331-3.122.019.434-1.592-1.855-1.059-1.505-1.841-3.228-2.972-4.682-.553-.706-1.117-1.363-1.593-2.115-.315-.504-.528-1.074-.896-1.542-.144-.179-.479-.195-.56-.414-.174-.464-.227-.97-.428-1.42-.326-.757-.781-1.456-1.148-2.2-.144-.291-.222-.765-.447-1.026-.229-.268-.572-.435-.773-.726-.13-.19-.101-.454-.185-.674-.184-.467-1.365-2.999-1.423-3.414-.02-.127.306-.074.331-.201.126-.634-.435-1.214-.608-1.837-.296-1.071-.516-2.167-.792-3.243-.378-1.477-1.201-4.469-1.714-6.133-.028-.089.046.372.027.277A76.9 76.9 0 0 1 147 107c.007.267.011.536.018.804.035 1.349.439 2.66.693 3.983.67 3.523 1.632 7.004 2.785 10.398 2.909 8.57 7.249 16.525 12.699 23.595l.005-.005c.149-.09 1.068 1.991 1.085-.099" fill="#387283"/><path d="M35.956 56.709l-.009 1.422H28V45.234h7.947v1.422h-6.201v4.284h5.022v1.368h-5.022v4.401h6.21zm9.549 1.422h-1.539a.441.441 0 0 1-.31-.103.955.955 0 0 1-.185-.23l-2.295-3.573c-.024.084-.05.166-.077.247a.805.805 0 0 1-.112.221l-2.124 3.105c-.06.084-.124.16-.194.23a.383.383 0 0 1-.283.103h-1.431l3.195-4.68-3.069-4.437h1.539c.132 0 .228.021.288.063.06.042.114.102.162.18l2.241 3.42c.048-.174.123-.342.225-.504l1.962-2.88a.845.845 0 0 1 .175-.203.353.353 0 0 1 .23-.076h1.476L42.31 53.37l3.195 4.761zm3.087-2.196c.294.396.615.675.963.837a2.74 2.74 0 0 0 1.17.243c.852 0 1.506-.303 1.962-.909.456-.606.684-1.47.684-2.592 0-.594-.052-1.104-.157-1.53-.106-.426-.257-.775-.455-1.049a1.768 1.768 0 0 0-.729-.598 2.425 2.425 0 0 0-.981-.189c-.522 0-.98.12-1.373.36s-.754.579-1.084 1.017v4.41zm-.081-5.508a4.723 4.723 0 0 1 1.332-1.143c.504-.288 1.08-.432 1.728-.432.528 0 1.005.1 1.431.302.426.2.789.497 1.089.89.3.394.531.881.693 1.463.162.582.243 1.251.243 2.007a6.29 6.29 0 0 1-.27 1.877c-.18.579-.44 1.08-.779 1.503a3.659 3.659 0 0 1-1.242.998 3.66 3.66 0 0 1-1.651.365c-.558 0-1.036-.094-1.435-.283a3.373 3.373 0 0 1-1.058-.788v4.032h-1.611V49.014h.963c.228 0 .369.111.423.333l.144 1.08zm14.661 2.151c0-.372-.052-.712-.157-1.022a2.294 2.294 0 0 0-.46-.8 2.048 2.048 0 0 0-.733-.523 2.476 2.476 0 0 0-.981-.184c-.768 0-1.375.223-1.822.67-.448.448-.725 1.067-.833 1.859h4.986zm1.296 4.275c-.198.24-.435.448-.711.625a4.427 4.427 0 0 1-.886.437c-.316.114-.641.2-.977.257a5.964 5.964 0 0 1-.999.085c-.63 0-1.21-.106-1.742-.32a3.822 3.822 0 0 1-1.377-.935c-.387-.412-.688-.92-.904-1.526-.216-.606-.324-1.302-.324-2.088 0-.636.097-1.23.292-1.782a4.2 4.2 0 0 1 .842-1.436 3.874 3.874 0 0 1 1.341-.953c.528-.232 1.122-.347 1.782-.347.546 0 1.051.091 1.517.275a3.43 3.43 0 0 1 1.206.791c.339.346.604.771.796 1.279.192.507.288 1.084.288 1.732 0 .252-.027.42-.081.504-.054.084-.156.126-.306.126h-6.093c.018.576.097 1.077.239 1.503.14.426.337.781.589 1.067.252.285.552.497.9.639a3.09 3.09 0 0 0 1.17.211c.402 0 .748-.046 1.04-.14.29-.093.541-.193.751-.301.21-.108.385-.208.526-.301.142-.094.263-.14.365-.14.132 0 .234.051.306.153l.45.585zm3.627-6.012c.288-.624.642-1.111 1.062-1.462.42-.352.933-.527 1.539-.527.192 0 .376.021.553.063.178.042.335.108.473.198l-.117 1.197c-.036.15-.126.225-.27.225-.084 0-.207-.018-.369-.054a2.54 2.54 0 0 0-.549-.054 2.19 2.19 0 0 0-.77.126 1.8 1.8 0 0 0-.603.373 2.64 2.64 0 0 0-.477.612c-.14.244-.268.521-.382.833v5.76h-1.611v-9.117h.918c.174 0 .294.033.36.099s.111.18.135.342l.108 1.386zm7.83 7.434c-.72 0-1.273-.201-1.66-.603-.388-.402-.581-.981-.581-1.737v-5.58h-1.098a.359.359 0 0 1-.243-.085c-.066-.058-.099-.146-.099-.266v-.639l1.494-.189.369-2.817a.355.355 0 0 1 .369-.306h.81v3.141h2.637v1.161h-2.637v5.472c0 .384.093.669.279.855a.974.974 0 0 0 .72.279c.168 0 .313-.022.437-.067.123-.046.229-.095.319-.149.09-.054.166-.103.23-.148a.3.3 0 0 1 .166-.068c.084 0 .159.051.225.153l.468.765c-.276.258-.609.46-.999.607-.39.148-.792.221-1.206.221zm8.964-7.758a.355.355 0 0 1-.333.198.627.627 0 0 1-.306-.099 7.055 7.055 0 0 0-.418-.22 3.93 3.93 0 0 0-.59-.226 2.812 2.812 0 0 0-.81-.103c-.27 0-.513.034-.729.103a1.75 1.75 0 0 0-.553.284c-.154.12-.27.26-.352.419a1.124 1.124 0 0 0-.121.517c0 .234.067.429.202.585.136.156.314.291.536.405.222.114.474.214.756.301.282.088.571.18.868.28.298.099.587.208.869.328.282.12.534.27.756.45.222.18.4.4.535.662.136.26.203.574.203.94 0 .42-.075.808-.225 1.166-.15.357-.372.665-.666.927a3.212 3.212 0 0 1-1.08.616c-.426.15-.918.225-1.476.225a4.604 4.604 0 0 1-1.728-.31 4.379 4.379 0 0 1-1.314-.797l.378-.612a.55.55 0 0 1 .171-.18.462.462 0 0 1 .252-.063c.108 0 .222.042.342.126.12.084.265.177.437.279.17.102.379.195.625.279.246.084.552.126.918.126.312 0 .585-.04.819-.121a1.72 1.72 0 0 0 .585-.329 1.3 1.3 0 0 0 .347-.477c.075-.18.112-.372.112-.576a.955.955 0 0 0-.203-.625 1.709 1.709 0 0 0-.535-.423 4.364 4.364 0 0 0-.76-.306 55.98 55.98 0 0 1-.873-.275 9.838 9.838 0 0 1-.874-.328 3.069 3.069 0 0 1-.76-.464 2.1 2.1 0 0 1-.535-.688c-.136-.274-.203-.605-.203-.995a2.46 2.46 0 0 1 .846-1.85 3.103 3.103 0 0 1 1.017-.58 4.07 4.07 0 0 1 1.377-.216c.6 0 1.138.094 1.615.284.478.189.89.448 1.238.778l-.36.585zm8.784-1.503v9.117h-1.602v-9.117h1.602zm.342-2.862c0 .156-.031.301-.094.437a1.257 1.257 0 0 1-.253.36 1.157 1.157 0 0 1-.814.337c-.156 0-.301-.03-.436-.09a1.132 1.132 0 0 1-.356-.247 1.228 1.228 0 0 1-.243-.36 1.126 1.126 0 0 1 0-.882c.06-.142.141-.264.243-.37.102-.105.22-.187.356-.247a1.126 1.126 0 0 1 .882 0c.14.06.263.142.368.247.106.106.19.228.252.37.064.14.095.289.095.445zm3.798 4.185a5.41 5.41 0 0 1 .63-.603c.222-.18.457-.334.707-.464a3.587 3.587 0 0 1 1.696-.4c.498 0 .937.082 1.319.248.38.165.698.398.953.701a3.1 3.1 0 0 1 .581 1.094c.132.426.198.897.198 1.413v5.805h-1.611v-5.805c0-.69-.157-1.225-.472-1.607-.316-.38-.794-.571-1.436-.571-.474 0-.916.114-1.328.342-.41.228-.79.537-1.138.927v6.714h-1.611v-9.117h.963c.228 0 .369.111.423.333l.126.99zM6.858 91.697a.715.715 0 0 1-.144.153.323.323 0 0 1-.198.054.534.534 0 0 1-.297-.112 5.226 5.226 0 0 0-.4-.248 3.204 3.204 0 0 0-.585-.248 2.782 2.782 0 0 0-.851-.112c-.45 0-.846.08-1.188.239a2.286 2.286 0 0 0-.86.688c-.23.3-.404.663-.522 1.089a5.403 5.403 0 0 0-.175 1.431c0 .552.063 1.042.189 1.472.126.429.304.788.535 1.08.232.29.51.512.837.665.328.154.695.23 1.103.23.39 0 .711-.046.963-.14.252-.093.46-.196.626-.31.165-.114.302-.217.413-.31a.516.516 0 0 1 .329-.14c.132 0 .234.051.306.153l.45.585a3.192 3.192 0 0 1-.675.63c-.252.174-.523.32-.815.436a4.429 4.429 0 0 1-.913.257 5.796 5.796 0 0 1-.972.081c-.57 0-1.1-.105-1.589-.315a3.622 3.622 0 0 1-1.273-.913 4.278 4.278 0 0 1-.846-1.472C.102 96.038 0 95.375 0 94.631c0-.678.094-1.305.283-1.881a4.262 4.262 0 0 1 .829-1.49c.363-.417.81-.742 1.34-.976.532-.234 1.142-.351 1.832-.351.642 0 1.207.103 1.697.31.489.208.922.5 1.3.878l-.423.576zm5.931-1.764c.666 0 1.266.111 1.8.333.534.222.99.537 1.368.945.378.408.667.901.869 1.48.2.58.301 1.226.301 1.94 0 .72-.1 1.368-.301 1.944a4.154 4.154 0 0 1-.869 1.476 3.808 3.808 0 0 1-1.368.94c-.534.22-1.134.329-1.8.329-.672 0-1.276-.11-1.813-.328a3.8 3.8 0 0 1-1.373-.941 4.154 4.154 0 0 1-.868-1.476c-.202-.576-.302-1.224-.302-1.944 0-.714.1-1.36.302-1.94.2-.579.49-1.072.868-1.48a3.848 3.848 0 0 1 1.373-.945c.537-.222 1.141-.333 1.813-.333zm0 8.136c.9 0 1.572-.301 2.016-.904.444-.604.666-1.445.666-2.525 0-1.086-.222-1.932-.666-2.538-.444-.606-1.116-.909-2.016-.909-.456 0-.853.078-1.192.234a2.215 2.215 0 0 0-.846.675 2.998 2.998 0 0 0-.505 1.084 5.813 5.813 0 0 0-.166 1.454c0 1.08.223 1.921.67 2.525.448.603 1.127.904 2.039.904zm13.86-7.992v9.117h-.954c-.228 0-.372-.111-.432-.333l-.126-.981c-.396.438-.84.79-1.332 1.058-.492.267-1.056.4-1.692.4-.498 0-.937-.082-1.319-.247a2.614 2.614 0 0 1-.958-.698 2.962 2.962 0 0 1-.58-1.089 4.862 4.862 0 0 1-.194-1.413v-5.814h1.602v5.814c0 .69.157 1.224.473 1.602.315.378.796.567 1.444.567.474 0 .916-.112 1.328-.338.41-.225.79-.535 1.138-.931v-6.714h1.602zm4.05 1.323a5.41 5.41 0 0 1 .63-.603c.222-.18.457-.334.706-.463a3.587 3.587 0 0 1 1.697-.401c.498 0 .937.082 1.319.247.38.166.698.4.953.702a3.1 3.1 0 0 1 .581 1.094c.132.426.198.897.198 1.413v5.805h-1.611v-5.805c0-.69-.157-1.225-.472-1.606-.316-.382-.794-.572-1.436-.572-.474 0-.916.114-1.328.342-.41.228-.79.537-1.138.927v6.714h-1.611v-9.117h.963c.228 0 .369.111.423.333l.126.99zm11.205 7.938c-.72 0-1.273-.201-1.66-.603-.388-.402-.581-.981-.581-1.737v-5.58h-1.098a.359.359 0 0 1-.243-.086c-.066-.057-.099-.145-.099-.265v-.639l1.494-.189.369-2.817a.355.355 0 0 1 .369-.306h.81v3.141h2.637v1.161h-2.637v5.472c0 .384.093.669.279.855a.974.974 0 0 0 .72.279c.168 0 .313-.022.436-.067.124-.046.23-.095.32-.149.09-.054.166-.103.23-.149a.3.3 0 0 1 .166-.067c.084 0 .159.051.225.153l.468.765c-.276.258-.609.46-.999.608-.39.147-.792.22-1.206.22zm5.175-7.434c.288-.624.642-1.111 1.062-1.462.42-.352.933-.527 1.539-.527.192 0 .376.021.553.063.178.042.335.108.473.198l-.117 1.197c-.036.15-.126.225-.27.225-.084 0-.207-.018-.369-.054a2.54 2.54 0 0 0-.549-.054 2.19 2.19 0 0 0-.77.126 1.8 1.8 0 0 0-.602.374 2.64 2.64 0 0 0-.478.612c-.14.243-.268.52-.382.832v5.76h-1.611v-9.117h.918c.174 0 .294.033.36.099s.111.18.135.342l.108 1.386zm6.723-1.827v9.117H52.2v-9.117h1.602zm.342-2.862c0 .156-.031.301-.094.436a1.257 1.257 0 0 1-.252.36 1.157 1.157 0 0 1-.815.338c-.156 0-.301-.03-.436-.09a1.132 1.132 0 0 1-.356-.248 1.228 1.228 0 0 1-.243-.36 1.126 1.126 0 0 1 0-.882c.06-.14.141-.263.243-.369.102-.105.22-.187.355-.247a1.126 1.126 0 0 1 .882 0c.142.06.264.142.37.247.105.106.188.228.252.37.063.14.094.289.094.445zm8.388 6.426c0-.372-.052-.712-.157-1.022a2.294 2.294 0 0 0-.46-.8 2.048 2.048 0 0 0-.733-.523 2.476 2.476 0 0 0-.981-.184c-.768 0-1.375.223-1.822.67-.448.448-.725 1.067-.833 1.859h4.986zm1.296 4.275c-.198.24-.435.448-.711.626a4.427 4.427 0 0 1-.886.436c-.316.114-.641.2-.977.257a5.964 5.964 0 0 1-.999.085c-.63 0-1.21-.106-1.742-.32a3.822 3.822 0 0 1-1.377-.936c-.387-.41-.688-.919-.904-1.525-.216-.606-.324-1.302-.324-2.088 0-.636.097-1.23.292-1.782a4.2 4.2 0 0 1 .842-1.435 3.874 3.874 0 0 1 1.341-.954c.528-.232 1.122-.347 1.782-.347.546 0 1.051.091 1.517.274a3.43 3.43 0 0 1 1.206.793c.339.345.604.77.796 1.278.192.507.288 1.084.288 1.732 0 .252-.027.42-.081.504-.054.084-.156.126-.306.126h-6.093c.018.576.097 1.077.239 1.503.14.426.337.781.589 1.067.252.285.552.497.9.639a3.09 3.09 0 0 0 1.17.211c.402 0 .748-.046 1.04-.14.29-.093.541-.193.751-.301.21-.108.385-.208.527-.302.14-.093.262-.139.364-.139.132 0 .234.051.306.153l.45.585zm7.416-6.336a.355.355 0 0 1-.333.198.627.627 0 0 1-.306-.099 7.055 7.055 0 0 0-.419-.22 3.93 3.93 0 0 0-.589-.225 2.812 2.812 0 0 0-.81-.104c-.27 0-.513.034-.729.104a1.75 1.75 0 0 0-.554.283c-.153.12-.27.26-.35.419a1.124 1.124 0 0 0-.122.517c0 .234.067.429.203.585.135.156.313.291.535.405.222.114.474.214.756.302.282.087.571.18.868.278.298.1.587.209.869.329.282.12.534.27.756.45.222.18.4.4.535.661.136.262.203.575.203.941 0 .42-.075.808-.225 1.166-.15.357-.372.665-.666.927a3.212 3.212 0 0 1-1.08.616c-.426.15-.918.225-1.476.225a4.604 4.604 0 0 1-1.728-.31 4.379 4.379 0 0 1-1.314-.797l.378-.612a.55.55 0 0 1 .171-.18.462.462 0 0 1 .252-.063c.108 0 .222.042.342.126.12.084.265.177.436.279.172.102.38.195.626.279.246.084.552.126.918.126.312 0 .585-.04.819-.122a1.72 1.72 0 0 0 .585-.328 1.3 1.3 0 0 0 .346-.477c.076-.18.113-.372.113-.576a.955.955 0 0 0-.203-.626 1.709 1.709 0 0 0-.535-.422 4.364 4.364 0 0 0-.76-.306 55.98 55.98 0 0 1-.874-.275 9.838 9.838 0 0 1-.873-.329 3.069 3.069 0 0 1-.76-.463 2.1 2.1 0 0 1-.535-.689c-.136-.273-.203-.604-.203-.994a2.46 2.46 0 0 1 .846-1.85 3.103 3.103 0 0 1 1.017-.58 4.07 4.07 0 0 1 1.377-.216c.6 0 1.138.094 1.615.283.478.19.89.449 1.238.779l-.36.585zm10.17 1.26c-.636.336-1.114.744-1.436 1.224a2.761 2.761 0 0 0-.481 1.566c0 .39.072.733.216 1.03.144.298.333.548.567.752.234.204.501.358.801.463.3.106.606.158.918.158.672 0 1.276-.123 1.814-.369a4.634 4.634 0 0 0 1.408-.99l-3.807-3.834zm8.316 6.354h-1.557c-.174 0-.315-.021-.423-.063a1.035 1.035 0 0 1-.351-.261l-1.305-1.314a6.538 6.538 0 0 1-1.948 1.3c-.736.322-1.544.482-2.426.482-.48 0-.95-.081-1.409-.243a3.928 3.928 0 0 1-1.237-.707 3.519 3.519 0 0 1-.882-1.129 3.315 3.315 0 0 1-.333-1.503c0-.42.07-.817.212-1.192.14-.376.337-.722.589-1.04.252-.318.549-.603.891-.855a5.91 5.91 0 0 1 1.125-.648c-.366-.468-.636-.92-.81-1.355a3.615 3.615 0 0 1-.261-1.354c0-.438.08-.849.239-1.233.159-.384.388-.718.688-1.003.3-.286.664-.51 1.094-.675.429-.166.91-.248 1.444-.248.474 0 .906.076 1.296.23.39.153.726.355 1.008.607.282.252.505.544.67.878.166.333.26.679.284 1.039l-.999.198c-.198.048-.345-.045-.441-.279a2.18 2.18 0 0 0-.203-.486 1.838 1.838 0 0 0-.891-.801 1.805 1.805 0 0 0-.724-.135 2.2 2.2 0 0 0-.814.144 1.731 1.731 0 0 0-1.013 1.004c-.09.23-.135.481-.135.751 0 .21.024.411.072.603.048.192.124.387.23.585.105.198.238.399.4.603.162.204.357.42.585.648l3.708 3.771a6.716 6.716 0 0 0 .819-2.592.461.461 0 0 1 .108-.27.323.323 0 0 1 .252-.099h.981a6.883 6.883 0 0 1-.324 2.03 7.132 7.132 0 0 1-.909 1.867l2.7 2.745zm12.375-7.497a.715.715 0 0 1-.144.153.323.323 0 0 1-.198.054.534.534 0 0 1-.297-.112 5.226 5.226 0 0 0-.4-.248 3.204 3.204 0 0 0-.585-.248 2.782 2.782 0 0 0-.851-.112c-.45 0-.846.08-1.188.239a2.286 2.286 0 0 0-.86.688c-.23.3-.404.663-.521 1.089a5.403 5.403 0 0 0-.176 1.431c0 .552.063 1.042.189 1.472.126.429.304.788.535 1.08.232.29.51.512.838.665.327.154.694.23 1.102.23.39 0 .711-.046.963-.14.252-.093.46-.196.626-.31.165-.114.302-.217.413-.31a.516.516 0 0 1 .329-.14c.132 0 .234.051.306.153l.45.585a3.192 3.192 0 0 1-.675.63c-.252.174-.523.32-.814.436a4.429 4.429 0 0 1-.914.257 5.796 5.796 0 0 1-.972.081c-.57 0-1.1-.105-1.588-.315a3.622 3.622 0 0 1-1.274-.913 4.278 4.278 0 0 1-.846-1.472c-.204-.582-.306-1.245-.306-1.989 0-.678.094-1.305.284-1.881a4.262 4.262 0 0 1 .828-1.49c.363-.417.81-.742 1.34-.976.532-.234 1.142-.351 1.832-.351.642 0 1.207.103 1.697.31.489.208.922.5 1.3.878l-.423.576zm5.931-1.764c.666 0 1.266.111 1.8.333.534.222.99.537 1.368.945.378.408.667.901.869 1.48.2.58.301 1.226.301 1.94 0 .72-.1 1.368-.301 1.944a4.154 4.154 0 0 1-.869 1.476 3.808 3.808 0 0 1-1.368.94c-.534.22-1.134.329-1.8.329-.672 0-1.276-.11-1.814-.328a3.8 3.8 0 0 1-1.372-.941 4.154 4.154 0 0 1-.868-1.476c-.202-.576-.302-1.224-.302-1.944 0-.714.1-1.36.301-1.94.202-.579.491-1.072.869-1.48a3.848 3.848 0 0 1 1.373-.945c.537-.222 1.141-.333 1.813-.333zm0 8.136c.9 0 1.572-.301 2.016-.904.444-.604.666-1.445.666-2.525 0-1.086-.222-1.932-.666-2.538-.444-.606-1.116-.909-2.016-.909-.456 0-.853.078-1.192.234a2.215 2.215 0 0 0-.846.675 2.998 2.998 0 0 0-.505 1.084 5.813 5.813 0 0 0-.166 1.454c0 1.08.223 1.921.67 2.525.448.603 1.127.904 2.039.904zm13.86-7.992v9.117h-.954c-.228 0-.372-.111-.432-.333l-.126-.981c-.396.438-.84.79-1.332 1.058-.492.267-1.056.4-1.692.4-.498 0-.937-.082-1.319-.247a2.614 2.614 0 0 1-.958-.698 2.962 2.962 0 0 1-.58-1.089 4.862 4.862 0 0 1-.194-1.413v-5.814h1.602v5.814c0 .69.157 1.224.472 1.602.316.378.797.567 1.445.567.474 0 .916-.112 1.328-.338.41-.225.79-.535 1.138-.931v-6.714h1.602zm4.05 1.323a5.41 5.41 0 0 1 .63-.603c.222-.18.457-.334.707-.463a3.587 3.587 0 0 1 1.696-.401c.498 0 .937.082 1.319.247.38.166.698.4.953.702a3.1 3.1 0 0 1 .581 1.094c.132.426.198.897.198 1.413v5.805h-1.611v-5.805c0-.69-.157-1.225-.473-1.606-.315-.382-.793-.572-1.435-.572-.474 0-.916.114-1.328.342-.41.228-.79.537-1.138.927v6.714h-1.611v-9.117h.963c.228 0 .369.111.423.333l.126.99zm16.866 7.794h-1.602v-7.776h-4.698v5.472c0 .384.093.669.279.855a.974.974 0 0 0 .72.279c.168 0 .313-.022.436-.067.124-.046.23-.095.32-.149.09-.054.167-.103.23-.149a.3.3 0 0 1 .166-.067c.084 0 .159.051.225.153l.468.765c-.276.258-.609.46-.999.608-.39.147-.792.22-1.206.22-.72 0-1.273-.201-1.66-.603-.388-.402-.581-.981-.581-1.737v-5.58h-1.098a.359.359 0 0 1-.243-.086c-.066-.057-.099-.145-.099-.265v-.639l1.494-.198.369-2.808a.355.355 0 0 1 .369-.306h.81v3.141h6.3v8.937zm.396-12.042c0 .156-.031.301-.095.436a1.196 1.196 0 0 1-.616.599c-.138.06-.285.09-.441.09-.156 0-.301-.03-.437-.09a1.17 1.17 0 0 1-.598-.599 1.126 1.126 0 0 1 0-.882c.06-.14.141-.263.243-.368.102-.106.22-.188.355-.248.136-.06.281-.09.437-.09.156 0 .303.03.441.09s.26.142.364.248c.106.105.19.227.252.369.064.14.095.289.095.445zm3.744 4.248a5.41 5.41 0 0 1 .63-.603c.222-.18.457-.334.707-.463a3.587 3.587 0 0 1 1.696-.401c.498 0 .937.082 1.319.247.38.166.698.4.953.702a3.1 3.1 0 0 1 .581 1.094c.132.426.198.897.198 1.413v5.805h-1.611v-5.805c0-.69-.157-1.225-.473-1.606-.315-.382-.793-.572-1.435-.572-.474 0-.916.114-1.327.342-.412.228-.791.537-1.139.927v6.714h-1.611v-9.117h.963c.228 0 .369.111.423.333l.126.99zm11.709 3.339c.324 0 .609-.045.855-.135.246-.09.453-.216.621-.378.168-.162.294-.355.378-.58.084-.226.126-.473.126-.743 0-.558-.17-1.002-.508-1.332-.34-.33-.83-.495-1.472-.495-.648 0-1.141.165-1.48.495-.34.33-.509.774-.509 1.332 0 .27.043.517.13.742.088.226.215.419.383.581.168.162.375.288.621.378.246.09.531.135.855.135zm2.889 4.95a.77.77 0 0 0-.189-.54 1.26 1.26 0 0 0-.508-.324 3.272 3.272 0 0 0-.743-.166c-.282-.034-.58-.059-.896-.077l-.958-.054a11.256 11.256 0 0 1-.936-.09 2.51 2.51 0 0 0-.823.59c-.214.237-.32.514-.32.832 0 .204.052.394.157.572.106.177.266.33.482.459.216.129.487.23.815.305.327.076.712.113 1.156.113.432 0 .819-.039 1.161-.117.342-.078.631-.189.868-.333.238-.144.419-.315.545-.513.126-.198.189-.417.189-.657zm1.629-9.252v.594c0 .198-.126.324-.378.378l-1.035.135c.204.396.306.834.306 1.314 0 .444-.085.847-.257 1.21a2.772 2.772 0 0 1-.706.932c-.3.258-.66.456-1.08.594-.42.138-.876.207-1.368.207-.426 0-.828-.051-1.206-.153a1.62 1.62 0 0 0-.441.383.676.676 0 0 0-.153.409c0 .216.088.38.266.49.177.112.409.191.697.239.288.048.616.078.986.09.369.012.746.031 1.133.058.388.028.765.074 1.134.14.37.066.698.174.986.324.288.15.52.357.698.621.177.264.265.606.265 1.026 0 .39-.097.768-.293 1.134a3.068 3.068 0 0 1-.841.977 4.329 4.329 0 0 1-1.345.683 5.845 5.845 0 0 1-1.796.257c-.666 0-1.248-.066-1.746-.198s-.912-.309-1.242-.531a2.314 2.314 0 0 1-.743-.77 1.826 1.826 0 0 1-.247-.913c0-.45.141-.831.423-1.143.282-.312.669-.561 1.161-.747-.27-.12-.484-.28-.643-.482-.16-.2-.239-.472-.239-.814 0-.132.024-.268.072-.41.048-.14.121-.281.22-.422a2.26 2.26 0 0 1 .365-.401 2.37 2.37 0 0 1 .504-.333 2.802 2.802 0 0 1-1.053-1.004c-.252-.417-.378-.901-.378-1.453 0-.444.085-.847.256-1.21.172-.364.41-.672.716-.927.306-.256.67-.452 1.094-.59a4.462 4.462 0 0 1 1.39-.207c.396 0 .765.043 1.107.13.342.088.654.215.936.383h2.475zm1.395 7.767a1.144 1.144 0 0 1 .32-.801 1.1 1.1 0 0 1 .796-.333c.156 0 .303.03.441.09a1.154 1.154 0 0 1 .603.603c.06.138.09.285.09.441 0 .162-.03.31-.09.446a1.17 1.17 0 0 1-.243.355 1.094 1.094 0 0 1-.36.239 1.144 1.144 0 0 1-.441.085c-.156 0-.303-.028-.441-.085a1.045 1.045 0 0 1-.356-.239 1.134 1.134 0 0 1-.32-.801h.001zm9.261 0a1.144 1.144 0 0 1 .32-.801 1.1 1.1 0 0 1 .796-.333c.156 0 .303.03.441.09a1.154 1.154 0 0 1 .603.603c.06.138.09.285.09.441 0 .162-.03.31-.09.446a1.17 1.17 0 0 1-.243.355 1.094 1.094 0 0 1-.36.239 1.144 1.144 0 0 1-.441.085c-.156 0-.303-.028-.441-.085a1.045 1.045 0 0 1-.355-.239 1.134 1.134 0 0 1-.32-.801zm-4.635 0a1.144 1.144 0 0 1 .32-.801 1.1 1.1 0 0 1 .796-.333c.156 0 .303.03.441.09a1.154 1.154 0 0 1 .603.603c.06.138.09.285.09.441 0 .162-.03.31-.09.446a1.17 1.17 0 0 1-.243.355 1.094 1.094 0 0 1-.36.239 1.144 1.144 0 0 1-.441.085c-.156 0-.303-.028-.441-.085a1.045 1.045 0 0 1-.356-.239 1.134 1.134 0 0 1-.32-.801h.001zM126.982 40.288v1.926c0 .576-.06 1.041-.18 1.395-.12.354-.24.651-.36.891l-9.864 20.304c-.204.42-.492.777-.864 1.071-.372.294-.87.441-1.494.441h-3.222l10.062-19.89c.228-.408.453-.783.675-1.125a8.3 8.3 0 0 1 .747-.981h-12.456a.985.985 0 0 1-.72-.306.985.985 0 0 1-.306-.72v-3.006h17.982zm3.168 7.254c.18-1.248.528-2.343 1.044-3.285a7.877 7.877 0 0 1 1.935-2.358 8.015 8.015 0 0 1 2.664-1.422 10.624 10.624 0 0 1 3.231-.477c1.2 0 2.283.171 3.249.513.966.342 1.791.816 2.475 1.422a6.229 6.229 0 0 1 1.575 2.133 6.39 6.39 0 0 1 .549 2.646c0 .828-.093 1.557-.279 2.187a5.2 5.2 0 0 1-.801 1.647 4.73 4.73 0 0 1-1.296 1.188 8.066 8.066 0 0 1-1.746.81c1.56.492 2.724 1.242 3.492 2.25.768 1.008 1.152 2.274 1.152 3.798 0 1.296-.24 2.442-.72 3.438a7.387 7.387 0 0 1-1.944 2.511 8.472 8.472 0 0 1-2.835 1.539 10.998 10.998 0 0 1-3.411.522c-1.308 0-2.448-.15-3.42-.45-.972-.3-1.818-.744-2.538-1.332a8.044 8.044 0 0 1-1.836-2.16c-.504-.852-.936-1.836-1.296-2.952l1.962-.81c.516-.216.999-.273 1.449-.171.45.102.777.345.981.729.216.42.453.834.711 1.242.258.408.567.771.927 1.089.36.318.783.576 1.269.774.486.198 1.065.297 1.737.297.756 0 1.416-.123 1.98-.369a4.3 4.3 0 0 0 1.413-.963c.378-.396.66-.837.846-1.323.186-.486.279-.975.279-1.467a6.79 6.79 0 0 0-.198-1.701 2.521 2.521 0 0 0-.828-1.305c-.42-.36-1.023-.642-1.809-.846-.786-.204-1.839-.306-3.159-.306v-3.168c1.092-.012 1.998-.114 2.718-.306s1.293-.459 1.719-.801c.426-.342.723-.753.891-1.233.168-.48.252-1.008.252-1.584 0-1.224-.342-2.154-1.026-2.79-.684-.636-1.596-.954-2.736-.954a4.53 4.53 0 0 0-1.458.225c-.444.15-.843.36-1.197.63-.354.27-.651.585-.891.945s-.42.756-.54 1.188c-.204.552-.471.918-.801 1.098-.33.18-.795.222-1.395.126l-2.34-.414z" fill="#F58C6A"/></g></svg>