<svg id="Layer_1" data-name="Layer 1" xmlns="http://www.w3.org/2000/svg" viewBox="0 0 66.11 66.03"><defs><style>.cls-1{fill:#3c7385}</style></defs><title>how-work-broswer</title><path id="_Compound_Path_" data-name="&amp;lt;Compound Path&amp;gt;" class="cls-1" d="M4253.41 1109.81a32.13 32.13 0 0 0-.64-10.89 1.06 1.06 0 0 0 0-.61l-.41-1.58h-.19a32.82 32.82 0 0 0-4.48-9.18 1.07 1.07 0 0 0-.23-.95l-.81-1.09-.15-.19-.09.07.08-.09-.19.15a1 1 0 0 1 .24.54 33.46 33.46 0 0 0-7.74-7.18c.08-.37-.25-.78-1-1.2l-.22-.14-.44-.26-.11-.06-.53-.3-.11-.06-.52-.29a26.08 26.08 0 0 0-10-2.91l-.76-.06h-.06l-.07.1v-.18l-.77-.15a28.37 28.37 0 0 0-5.09-.47 27.34 27.34 0 0 0-6.69.83l-.64.17-.42.12c-.83.29-1 .66-.95.95a33.78 33.78 0 0 0-9.46 4.89.8.8 0 0 1 .41-.72l-.07-.09.08.09-.14-.19-.21.16-1.08.82a1 1 0 0 0-.45 1.08 33.33 33.33 0 0 0-7 7.89.78.78 0 0 1 .11-.44v-.06l-.2-.12-.84 1.41a1.09 1.09 0 0 0-.09.88 32.35 32.35 0 0 0-3.56 10h-.14l-.1.68-.13 1a1 1 0 0 0 .06.49 31.79 31.79 0 0 0 .71 11l.07.27c.06.2.1.4.16.59l.17.59v.17c.11.36.23.73.35 1.09s.34.87.53 1.35l.22-.09c-.19-.5-.36-1-.52-1.5a9.91 9.91 0 0 0 2.7 1.86c.43.21.92.43 1.44.65a29 29 0 0 0 3.63 8.61l-.83-.38a6.65 6.65 0 0 1-2.2-1.5l-.06-.07-.19.14 1 1.3a6.62 6.62 0 0 0 2.16 1.48c.34.17.71.33 1.11.5a23.89 23.89 0 0 0 5.58 5.49l-.09.15 1.53.86.18.09.61.28c.6.32 1.22.61 1.84.88l.42.17.61.24V1136.66l-.61-.24-.19-.08c.67.2 1.4.39 2.18.57a7.55 7.55 0 0 0 2.68 1.25l.43.1v-.24a5.54 5.54 0 0 1-1.89-.83c1.38.29 2.87.56 4.36.77-.08.73-.08.73 0 .76l.38.05a.85.85 0 0 0 .54-.68q2.3.3 4.45.43a7.34 7.34 0 0 1-1.92.26h-.15v.22h.77a9.19 9.19 0 0 0 2.84-.45h2.42v.15l.82-.12 1-.2.37-.07 1.7-.41v-.06a24.87 24.87 0 0 0 7.73-4 7.13 7.13 0 0 0 2.83-.89l1.32-1-.15-.19-.08.06a6.5 6.5 0 0 1-2.44.83 29.13 29.13 0 0 0 6.06-7.28c2.14-.35 3.51-.86 4.06-1.53l.53-.84.31-.56.07-.12-.1-.06-.1-.06h.22l-.21-.11-.08.14c-.49.63-1.82 1.14-3.85 1.48a34.23 34.23 0 0 0 3.32-10 9 9 0 0 0 4.18-1.43 31.63 31.63 0 0 1-2.84 8.47l.3.25.64-1.26.92-2.2a31.87 31.87 0 0 0 1.56-5.76 1 1 0 0 0 .05-.21l.16-1 .09-.67zm-52.11-30.71l-.07-.09zm37.31.13a33.6 33.6 0 0 1 7.73 7.34c-.31.33-1.06.75-2.92 1.06a33.75 33.75 0 0 0-6.49-7.75 3.39 3.39 0 0 0 1.68-.64zm-15.65 7.59c-3.1-.44-6.21-1-9-1.62a37 37 0 0 1 4.57-6.79c1.72.38 3.63.72 5.54 1-.33 2.07-.7 4.59-1.07 7.42zm1.5 1.76c3.43.44 6.73.74 9.87.9a59.38 59.38 0 0 1 1.39 10c-3.87-.19-8-.56-12.3-1.12.4-3.48.75-6.76 1.03-9.77zm-15 7.32a66.87 66.87 0 0 1 3.74-9.27c3 .66 6.26 1.25 9.54 1.72-.43 3-.9 6.24-1.39 9.69-4.1-.58-8.21-1.32-11.9-2.13zm11.64 3.92c-.5 3.52-1 7.22-1.55 10.95-4.48-.64-9-1.45-13-2.34a80.07 80.07 0 0 1 2.4-10.79c3.75.84 7.95 1.59 12.13 2.19zm-8.62-15a59.6 59.6 0 0 1-7-2.05 32.89 32.89 0 0 1 7.79-5.89 35.67 35.67 0 0 0 4.24 1.25 35.64 35.64 0 0 0-5.05 6.74zm-.81 1.41a60.19 60.19 0 0 0-4.05 9.2 77.64 77.64 0 0 1-9.27-2.72 40 40 0 0 1 5.9-8.66 63.17 63.17 0 0 0 7.4 2.24zm-4.62 10.92a70.61 70.61 0 0 0-2.51 10.77 84.44 84.44 0 0 1-10.15-3 41.5 41.5 0 0 1 3.18-10.57 80 80 0 0 0 9.43 2.86zm-.78 13.12c4 .9 8.54 1.71 13 2.34-.51 3.68-1 7.08-1.41 10.15-4.17-.6-8.36-1.35-12.13-2.18a64.91 64.91 0 0 1 .52-10.26zm13.46 14.33c4.27.55 8.39.93 12.24 1.11a32.92 32.92 0 0 1-3.84 7.29c-3.08-.15-6.37-.44-9.78-.89.41-2.06.87-4.58 1.36-7.46zm.26-1.56c.51-3.1 1-6.51 1.55-10.12 4.7.61 9.23 1 13.47 1.22a57.6 57.6 0 0 1-2.47 10c-3.97-.14-8.2-.47-12.54-1.05zm1.81-12c.51-3.68 1-7.36 1.42-11 4.39.57 8.63 1 12.6 1.14a70.21 70.21 0 0 1-.54 11c-4.28-.08-8.8-.49-13.5-1.1zm13.7-23.12a34 34 0 0 0-3.5-7.83h1.2a26.15 26.15 0 0 0 3-.15 33.15 33.15 0 0 1 6.25 7.78 42.5 42.5 0 0 1-4.7.23q-1.11.05-2.27.05zm2.73 1.62a44.16 44.16 0 0 0 5.06-.25 38.57 38.57 0 0 1 3.55 9.93 55.41 55.41 0 0 1-6.25.31h-2.91a54.65 54.65 0 0 0-1.72-10c.77.04 1.53.05 2.25.05zm-1.89-12.5l.16.08a1.47 1.47 0 0 1 .74.74 33.23 33.23 0 0 0-8.83-3.62 27.17 27.17 0 0 1 7.91 2.83zm.73 1.16a3.33 3.33 0 0 1-1.51.5 28.12 28.12 0 0 0-8-4.41 32.94 32.94 0 0 1 9.49 3.95zm-10.58-4a26.2 26.2 0 0 1 8.32 4.57c-.68.07-1.5.1-2.41.1h-1.21a16.25 16.25 0 0 0-4.8-4.64zm-1.25 0l.59.05a14.28 14.28 0 0 1 4.37 4.6c-1.57-.08-3.24-.23-5-.45a36 36 0 0 0 .02-4.17zm-.07 5.33c2 .26 3.9.43 5.73.52a34.89 34.89 0 0 1 3 7.81c-2.94-.14-6.08-.43-9.33-.85.29-2.84.43-5.35.59-7.44zm-.89-5.49l.59.11c-.14.87-.36 2.27-.63 4.11-1.65-.24-3.3-.53-4.8-.86a13.23 13.23 0 0 1 4.82-3.33zm-.53-.14a14.93 14.93 0 0 0-5.27 3.28 33.22 33.22 0 0 1-3.68-1.06 24.48 24.48 0 0 1 8.79-2.27zm-9.71 1.92l-.58-.26a3.78 3.78 0 0 1-1.1-.72 33.05 33.05 0 0 1 9-1.24h1.44a26.55 26.55 0 0 0-8.8 2.26zm-1.83-1.47a1.11 1.11 0 0 1 .68-.44 28.51 28.51 0 0 1 6.28-.7c.84 0 1.67 0 2.51.11h-.78a33.46 33.46 0 0 0-8.73 1.16.27.27 0 0 1 .02-.09zm-1.61 1a4 4 0 0 0 1.38 1l.48.22a33.41 33.41 0 0 0-8.05 5.79c-.38-.16-.74-.32-1.06-.48a6.11 6.11 0 0 1-2.16-1.49 33.8 33.8 0 0 1 9.39-4.97zm-10.83 6.13a6.72 6.72 0 0 0 2.34 1.64c.32.16.68.31 1 .47a39 39 0 0 0-6.1 8.59c-.5-.21-1-.42-1.39-.63a7.76 7.76 0 0 1-2.87-2 33.59 33.59 0 0 1 7-8zm-8 34.73a7.78 7.78 0 0 1-2.94-2.08 31.51 31.51 0 0 1-.74-10.68 9.57 9.57 0 0 0 3.09 2.11c.47.23 1 .47 1.56.7a35.44 35.44 0 0 0 .35 10.54c-.5-.12-.94-.32-1.34-.52zm1.22-11.85c-.54-.22-1-.45-1.49-.67a8.38 8.38 0 0 1-3.16-2.24 32.5 32.5 0 0 1 3.53-10.32 8.63 8.63 0 0 0 3 2c.43.21.91.43 1.42.64a39.79 39.79 0 0 0-3.29 10.67zm1.14 2.45a84.49 84.49 0 0 0 10.15 3 58.48 58.48 0 0 0-.41 10.33 77.81 77.81 0 0 1-9.43-2.77 36.36 36.36 0 0 1-.33-10.48zm.66 12.25a78.57 78.57 0 0 0 9.19 2.69 34 34 0 0 0 1.63 8 61.07 61.07 0 0 1-7.3-2.15 28.49 28.49 0 0 1-3.54-8.46zm10.58 15.75a21.9 21.9 0 0 1-6.08-5.73 60.5 60.5 0 0 0 6.8 2 14.42 14.42 0 0 0 3.18 4.92 34.83 34.83 0 0 1-3.92-1.11zm10.56 2.43c-1.87-.27-3.75-.61-5.44-1a13 13 0 0 1-2.9-4.87c2.77.61 5.84 1.16 8.89 1.59-.27 1.98-.48 3.42-.57 4.36zm.7-5.39c-3.25-.46-6.52-1.05-9.46-1.7a35.91 35.91 0 0 1-1.35-8c3.69.81 7.77 1.55 11.83 2.12-.41 3.01-.75 5.56-1.04 7.66zm6 6c-1.77-.08-3.66-.25-5.61-.5.3-.91.66-2.31 1.06-4.18 3.19.41 6.26.69 9.19.84a13.66 13.66 0 0 1-4.64 3.99zm5.13-.09a25.31 25.31 0 0 1-2.93.15h-.83a15.42 15.42 0 0 0 4.89-3.83h2.24a43 43 0 0 0 4.43-.2 23.56 23.56 0 0 1-7.8 4zm9.18-5a43.3 43.3 0 0 1-5 .25h-2.16a31.6 31.6 0 0 0 4.13-7.26h2.92a55.38 55.38 0 0 0 6.14-.29 28.56 28.56 0 0 1-6.02 7.43zm6.87-8.86a55.36 55.36 0 0 1-6.42.32h-2.9a52.46 52.46 0 0 0 2.59-10c1.1 0 2.17.05 3.19.05a60.26 60.26 0 0 0 6.83-.34 34.93 34.93 0 0 1-3.28 10.07zm3.57-11.94a59.6 59.6 0 0 1-6.88.34c-1 0-2.06 0-3.16-.05a62.52 62.52 0 0 0 .42-11h3a56.84 56.84 0 0 0 6.43-.32 39.31 39.31 0 0 1 .2 11.16zm-3.07-22.91a6 6 0 0 0 3.09-1.14 33.28 33.28 0 0 1 4.52 9.61c-.52.61-1.86 1.11-3.87 1.44a37.82 37.82 0 0 0-3.74-9.78zm8.62 21.13c-.55.68-2 1.23-4.22 1.59a38 38 0 0 0-.31-11c2-.33 3.34-.81 4-1.42a32.14 32.14 0 0 1 .53 10.97z" transform="translate(-4187.47 -1072.97)"/></svg>