<svg xmlns="http://www.w3.org/2000/svg" viewBox="0 0 78.59 21.71"><defs><style>.cls-1{fill:#118381}.cls-2{fill:#689f9f}.cls-3{fill:#699f9f}.cls-4{fill:#138382}.cls-5{fill:#128382}</style></defs><title>logo</title><g id="Layer_2" data-name="Layer 2"><g id="Layer_1-2" data-name="Layer 1"><path id="_Path_" data-name="&amp;lt;Path&amp;gt;" class="cls-1" d="M52.45 4.51V16.8c0 .63-.18.77-.78.76-1.64 0-1.64 0-1.64-1.6V4.37c-.31 0-.36.17-.47.29q-5.22 6.07-10.41 12.15a1.84 1.84 0 0 1-1.58.73h-9.56c-.57 0-.76-.13-.75-.73V.73c0-.54.15-.7.7-.7C29.92 0 29.92 0 29.92 2v12.35c0 .59.13.81.77.8h6a1.39 1.39 0 0 0 1.2-.54C41.75 10 45.71 5.47 49.56.86A2.61 2.61 0 0 1 52 .07c.33 0 .46.32.63.53l9.78 12c.14.17.23.41.5.46a1.51 1.51 0 0 0 .07-.82C63 8.45 63 4.7 63 .94c0-.67.11-1 .87-.92 1.59.06 1.59 0 1.59 1.65v11.67c.46-.51.81-.9 1.15-1.3 3.25-3.79 6.52-7.57 9.73-11.4.59-.7 1.24-.59 1.94-.59.08 0 .24.1.24.14 0 .67.28 1.39-.25 2L65.48 17.11a1.92 1.92 0 0 1-2.53-.06L53.31 5.28l-.68-.83z"/><g id="_Group_" data-name="&amp;lt;Group&amp;gt;"><path id="_Path_2" data-name="&amp;lt;Path&amp;gt;" class="cls-2" d="M8.11 5.43L3.42 3.19c-1-.46-1.91-.93-2.88-1.34C-.24 1.52 0 .89.06.38S.62.06.91.06C4.31 0 7.7 0 11.09 0h.08c.61 0 1.47.51 1.5.88s-.91 1-1.48 1H5.61l-.05.15A20.79 20.79 0 0 1 8 3.26a3.7 3.7 0 0 0 4.47 0 37.59 37.59 0 0 1 3.83-1.93c.5-.25.62-.17.68.41a1.66 1.66 0 0 1-1.21 2c-1.1.42-2.14 1-3.34 1.58L16 7a1.74 1.74 0 0 1 .91 2.2c-.16.46-.42.14-.61.05-1.48-.69-2.94-1.4-4.41-2.11-.82-.4-.83-.4-.83.5v9.16c0 .86-.39.81-1 .82s-1 0-1-.85c.06-3 0-6 0-8.93 0-.86 0-.86-.81-.48C7 8.09 5.5 8.77 4.06 9.48c-.42.2-.63.18-.57-.35a.52.52 0 0 0 0-.15 1.53 1.53 0 0 1 1.16-1.92C5.78 6.62 6.85 6 8.11 5.43z"/><path id="_Path_3" data-name="&amp;lt;Path&amp;gt;" class="cls-2" d="M0 10.48C0 8.54.05 6.6 0 4.66c0-.57 0-.76.7-.51A1.64 1.64 0 0 1 2 6c-.07 3.05 0 6.11 0 9.16a.88.88 0 0 0 .58.95c2.37 1.1 4.73 2.23 7.08 3.37a1.27 1.27 0 0 0 1.24 0c1.79-.88 3.61-1.68 5.39-2.58a1.35 1.35 0 0 1 1.38.13c.45.24.15 1.26-.46 1.55-1.49.72-3 1.42-4.49 2.13-.49.23-1 .43-1.47.7a1.84 1.84 0 0 1-1.95 0c-2.78-1.37-5.6-2.69-8.41-4A1.13 1.13 0 0 1 0 16.23c.07-1.91 0-3.83 0-5.75z"/><path id="_Path_4" data-name="&amp;lt;Path&amp;gt;" class="cls-3" d="M20.13 10.06v5.44c0 .61 0 .82-.75.55a1.63 1.63 0 0 1-1.17-1.84c.07-3.18.06-6.37 0-9.55 0-.86.42-.81 1-.82s1 0 .93.8c-.05 1.8-.01 3.61-.01 5.42z"/></g><path id="_Path_5" data-name="&amp;lt;Path&amp;gt;" class="cls-4" d="M77.58 17.56c-.67.17-1.05-.19-1.44-.66q-1.73-2.09-3.53-4.12c-.33-.37-.3-.61 0-1 1.22-1.43 1.2-1.44 2.41 0 1.05 1.24 2.09 2.5 3.18 3.7a2 2 0 0 1 .3 1.83c-.07.5-.62.14-.92.25z"/><path id="_Path_6" data-name="&amp;lt;Path&amp;gt;" class="cls-5" d="M37.69 0a1.38 1.38 0 0 1 1.46.66q1.73 2.09 3.53 4.12c.31.35.34.6 0 .9a1.53 1.53 0 0 0-.16.17c-1.1 1.25-1.1 1.25-2.16 0S38.15 3.29 37 2a1.89 1.89 0 0 1-.24-1.74c.07-.45.63-.06.93-.26z"/></g></g></svg>