<svg xmlns="http://www.w3.org/2000/svg" viewBox="0 0 170 170"><defs><style>.cls-1{fill:none}.cls-2{fill:#f6a100}.cls-3{fill:#ed9a00}.cls-4{clip-path:url(#clip-path)}.cls-5{fill:#d9a78c}.cls-6{fill:#c74043}.cls-7{fill:#eac0a7}.cls-8{fill:#f2d7bc}.cls-9{fill:#fff}.cls-10{fill:#553828}.cls-11{fill:#0f958c}</style><clipPath id="clip-path"><circle class="cls-1" cx="85" cy="85" r="85"/></clipPath></defs><title>M01</title><g id="Layer_2" data-name="Layer 2"><g id="Objects"><g id="men_5" data-name="men 5"><circle class="cls-2" cx="85" cy="85" r="85"/><path class="cls-3" d="M170 85A85 85 0 0 0 85 0v170a85 85 0 0 0 85-85z"/><g class="cls-4"><path class="cls-5" d="M72.87 106.44h24.89v27.29H72.87z"/><path class="cls-6" d="M97.61 121h4.25c7.91 2 16.56 3.48 22.32 10.15C127.76 135.27 134 170 134 170H85.16v-39.32c6.84 0 12.45-4.35 12.45-9.68zM72.71 121h-4.24c-7.91 2-16.57 3.48-22.33 10.15-3.58 4.12-9.82 38.85-9.82 38.85h48.84v-39.32c-6.88 0-12.45-4.35-12.45-9.68z"/><path class="cls-7" d="M85.32 28.33c12.09 0 31.2 6.87 31.2 39.07 0 18.59-6.06 30.77-8.7 34.14-2.43 3.1-16.09 9.7-22.5 9.7z"/><path class="cls-7" d="M122.53 75.08c.53-5.14-1.92-9.71-5.47-10.2s-6.87 3.29-7.41 8.43 1.92 9.71 5.48 10.2 6.87-3.29 7.4-8.43z"/><path class="cls-8" d="M85.32 28.33c-12.09 0-31.2 6.87-31.2 39.07 0 18.59 6.06 30.77 8.7 34.14 2.43 3.1 16.09 9.7 22.5 9.7z"/><path class="cls-8" d="M48.1 75.08c-.53-5.14 1.92-9.71 5.47-10.2s6.87 3.29 7.4 8.43-1.91 9.69-5.46 10.2-6.87-3.29-7.41-8.43z"/><path class="cls-9" d="M85.32 99.1c5.63 0 10.2-1.86 10.2-4.16h-20.4c0 2.29 4.56 4.16 10.2 4.16z"/><path class="cls-10" d="M110.46 70c1.3-3.32 3.87-5.45 6.6-5.07a20.28 20.28 0 0 0 0-13.18c-9-25.62 1.22-30.2 1.22-30.2s-10-.45-17.67 5.95c5.32-8.25 7.72-10.38 7.72-10.38s-11.18-2.4-23.16 9.85a34.08 34.08 0 0 1 5.86-10s-25 .19-34.08 18.29c-5.16 10.32-5.56 21.5-4.31 29.95a4.65 4.65 0 0 1 .94-.25 4.9 4.9 0 0 1 3.37.83v-7.9c4.79-2.13 9.85-4.79 9.58-15.44h35.14s-.8 12 8.79 14.91z"/><path class="cls-11" d="M85.16 133.83c9.21 0 16.69-5.76 16.69-12.87h-4.27c0 5.36-5.55 9.7-12.41 9.72s-12.42-4.36-12.42-9.68h-4.28c0 7.07 7.48 12.83 16.69 12.83z"/></g></g></g></g></svg>