<svg xmlns="http://www.w3.org/2000/svg" viewBox="0 0 170 170"><defs><style>.cls-1{fill:none}.cls-2{fill:#827977}.cls-3{fill:#7b7270}.cls-4{fill:#29a69c}.cls-5{clip-path:url(#clip-path)}.cls-6{fill:#d9a78c}.cls-7{fill:#f1f2f2}.cls-8{fill:#e6e7e8}.cls-9{fill:#eac0a7}.cls-10{fill:#f2d7bc}.cls-11{fill:#2f343a}.cls-12{fill:#a0b2be}.cls-13{fill:#fff}</style><clipPath id="clip-path"><circle class="cls-1" cx="85" cy="85" r="85"/></clipPath></defs><title>M02</title><g id="Layer_2" data-name="Layer 2"><g id="Objects"><g id="men_6" data-name="men 6"><circle class="cls-2" cx="85" cy="85" r="85"/><path class="cls-3" d="M170 85A85 85 0 0 0 85 0v170a85 85 0 0 0 85-85z"/><circle class="cls-4" cx="85" cy="85" r="85"/><g class="cls-5"><path class="cls-6" d="M97.45 133.73L85.3 163.22l-12.75-29.49v-27.29h24.9v27.29z"/><path class="cls-7" d="M72.55 122.7s-26.69 3.46-30.18 7.1C39.33 133 33 163.34 31.54 170H85v-16z"/><path class="cls-8" d="M97.45 122.7s26.69 3.46 30.18 7.1c3 3.17 9.37 33.54 10.83 40.2H85v-16z"/><path class="cls-9" d="M85 28.33c12.09 0 31.2 6.87 31.2 39.07 0 18.59-6.06 30.77-8.7 34.14-2.43 3.1-16.09 9.71-22.5 9.71z"/><path class="cls-9" d="M122.21 75.08c.53-5.14-1.92-9.71-5.47-10.2s-6.87 3.29-7.4 8.43 1.92 9.71 5.47 10.2 6.87-3.29 7.4-8.43z"/><path class="cls-10" d="M85 28.33c-12.09 0-31.2 6.87-31.2 39.07 0 18.59 6.06 30.77 8.7 34.14 2.43 3.1 16.09 9.71 22.5 9.71z"/><path class="cls-10" d="M47.79 75.08c-.53-5.14 1.92-9.71 5.47-10.2s6.87 3.29 7.41 8.43-1.92 9.69-5.48 10.2-6.87-3.29-7.4-8.43z"/><path class="cls-11" d="M58 75.64h2.15s-1.31-8.38 2.53-11.09v-5.42s-1.49-.17-1.49-6.55S68.75 41.67 85 41.67V18.35s-32.11.68-32.11 24V64.9a5.4 5.4 0 0 1 4 1c1.82 1.5 1.11 9.74 1.11 9.74zM112 75.64h-2.15s1.31-8.38-2.53-11.09v-5.42s1.48-.17 1.48-6.55-7.56-10.91-23.8-10.91V18.35s32.11-.73 32.11 22.57v24a5.4 5.4 0 0 0-4 1c-1.82 1.48-1.11 9.72-1.11 9.72z"/><path class="cls-12" d="M85 153.99l-8.46-28.9-3.12 13.02L85 153.99z"/><path class="cls-13" d="M72.2 119.71l4.44 5.77-3.22 12.63-6.82-9.2 5.6-9.2z"/><path class="cls-12" d="M85 153.99l7.66-29.24 3.92 13.36L85 153.99z"/><path class="cls-13" d="M97.8 119.71l-5.24 5.43 4.02 12.97 7.42-9.2-6.2-9.2zM85 97.38c5.63 0 10.2-1.86 10.2-4.16H74.8c0 2.3 4.56 4.16 10.2 4.16z"/></g></g></g></g></svg>