<svg xmlns="http://www.w3.org/2000/svg" viewBox="0 0 170 170"><defs><style>.cls-1{fill:none}.cls-2{fill:#b5332b}.cls-3{fill:#a22d26}.cls-4{clip-path:url(#clip-path)}.cls-5{fill:#d9a78c}.cls-6{fill:#c0d4df}.cls-7{fill:#eac0a7}.cls-8{fill:#f2d7bc}.cls-9{fill:#cfe1eb}.cls-10{fill:#fff}.cls-11{fill:#8b5f3c}</style><clipPath id="clip-path"><circle class="cls-1" cx="85" cy="85" r="85"/></clipPath></defs><title>M03</title><g id="Layer_2" data-name="Layer 2"><g id="Objects"><g id="men_1" data-name="men 1"><circle class="cls-2" cx="85" cy="85" r="85"/><path class="cls-3" d="M170 85A85 85 0 0 0 85 0v170a85 85 0 0 0 85-85z"/><g class="cls-4"><path class="cls-5" d="M72.55 106.43h24.89v27.29H72.55z"/><path class="cls-6" d="M100.46 122.7s23.67 3.46 27.16 7.1c3 3.17 9.37 33.53 10.83 40.2H85v-46z"/><path class="cls-7" d="M85 28.33c12.09 0 31.2 6.87 31.2 39.07 0 18.59-6.06 30.77-8.7 34.14-2.43 3.1-16.09 9.7-22.5 9.7z"/><path class="cls-7" d="M122.21 75.08c.53-5.14-1.92-9.71-5.47-10.2s-6.87 3.29-7.41 8.43 1.92 9.71 5.48 10.2 6.87-3.29 7.4-8.43z"/><path class="cls-8" d="M85 28.33c-12.09 0-31.2 6.87-31.2 39.07 0 18.59 6.06 30.77 8.7 34.14 2.43 3.1 16.09 9.7 22.5 9.7z"/><path class="cls-8" d="M47.79 75.08c-.53-5.14 1.92-9.71 5.47-10.2s6.87 3.29 7.4 8.43-1.91 9.69-5.47 10.2-6.87-3.29-7.4-8.43z"/><path class="cls-9" d="M69.53 122.7s-23.67 3.46-27.16 7.1C39.33 133 33 163.34 31.54 170H85v-46z"/><path class="cls-10" d="M85 123.99l-12.64-5.09-3.11 3.16 6.29 13.95L85 123.99zM85 123.99l12.64-5.09 3.11 3.16-6.29 13.95L85 123.99z"/><path class="cls-11" d="M116.88 65.64S127.11 19 84.79 19c-42.55 0-31.87 45.36-31.87 45.36s5.81-3.36 5.81 11.55h1.07A167.38 167.38 0 0 0 62.49 57c15 0 28.19-1.92 39.32-11.12 6.32 0 7.18 7.87 7.18 13.89l-2.77 1.07s2.68 5.24 2.87 15.09H111s-.28-16.44 5.88-10.29z"/><path class="cls-10" d="M85 99.1c5.63 0 10.2-1.86 10.2-4.16H74.8c0 2.29 4.57 4.16 10.2 4.16z"/></g></g></g></g></svg>