<svg id="Layer_1" data-name="Layer 1" xmlns="http://www.w3.org/2000/svg" viewBox="0 0 36.88 34.39"><defs><style>.cls-1{fill:#f68c6b}</style></defs><title>section-4-map-icon-6</title><g id="_Group_" data-name="&amp;lt;Group&amp;gt;"><g id="_Group_2" data-name="&amp;lt;Group&amp;gt;"><g id="_Group_3" data-name="&amp;lt;Group&amp;gt;"><path id="_Path_" data-name="&amp;lt;Path&amp;gt;" class="cls-1" d="M4972.37 2829.88a3 3 0 0 0-3-3h-9.91a2.55 2.55 0 0 1 0-1 16.34 16.34 0 0 1 1.79-4.56c.73-1.28 1-7.36-.32-8.29a3 3 0 0 0-4.12.76l-1.68 6.12-3.33 4.83c-.6.87-3.72 4.48-3.72 4.48v16.17l5.19 1.5h11.47a61.11 61.11 0 0 1 5-6.91 3 3 0 0 1 1.43-5.08 2.94 2.94 0 0 1 1.2-5.02z" transform="translate(-4935.5 -2812.51)"/></g></g><g id="_Group_4" data-name="&amp;lt;Group&amp;gt;"><g id="_Group_5" data-name="&amp;lt;Group&amp;gt;"><path id="_Path_2" data-name="&amp;lt;Path&amp;gt;" class="cls-1" d="M0 15.3h10.8v19.09H0z"/></g></g></g></svg>