<svg id="Layer_1" data-name="Layer 1" xmlns="http://www.w3.org/2000/svg" viewBox="0 0 23.73 33.98"><defs><style>.cls-1{fill:#f68c6b}</style></defs><title>section-4-map-icon-4</title><path id="_Compound_Path_" data-name="&amp;lt;Compound Path&amp;gt;" class="cls-1" d="M4963.49 2466q-2.31-2.06-7.83-3.38v-5.8a2.82 2.82 0 0 1 2.17.92 4.22 4.22 0 0 1 .85 2.56h6.7a8.14 8.14 0 0 0-2.66-6.11 10.7 10.7 0 0 0-7-2.31v-2.43h-3.06v2.47a11.87 11.87 0 0 0-7.45 2.34 7.26 7.26 0 0 0-2.77 5.92 6.67 6.67 0 0 0 2.32 5.31q2.31 2 7.52 3.15v6.31a2.87 2.87 0 0 1-2.3-1 5.66 5.66 0 0 1-.86-3.14h-7a8.76 8.76 0 0 0 2.73 6.74q2.69 2.44 7.6 2.63v3.25h2.93v-3.21q5.24-.31 7.85-2.46a7.59 7.59 0 0 0 2.61-6.21 7.07 7.07 0 0 0-2.35-5.55zm-10.63-4a7.64 7.64 0 0 1-2.71-1.08 1.9 1.9 0 0 1-.77-1.58 2.25 2.25 0 0 1 .83-1.91 4.1 4.1 0 0 1 2.5-.63h.15v5.2zm5.06 12.36a4.92 4.92 0 0 1-2.78.65v-5.61a8.5 8.5 0 0 1 2.93 1.25 2.4 2.4 0 0 1-.15 3.66z" transform="translate(-4942.07 -2449.46)"/></svg>