<svg id="Layer_1" data-name="Layer 1" xmlns="http://www.w3.org/2000/svg" viewBox="0 0 39.82 34.03"><defs><style>.cls-1{fill:#f68c6b}</style></defs><title>section-4-map-icon-5</title><g id="_Group_" data-name="&amp;lt;Group&amp;gt;"><g id="_Group_2" data-name="&amp;lt;Group&amp;gt;"><g id="_Group_3" data-name="&amp;lt;Group&amp;gt;"><path id="_Compound_Path_" data-name="&amp;lt;Compound Path&amp;gt;" class="cls-1" d="M4957.9 2656l1.67-1.15-1-3-2 .05-1.59-2.18.68-1.92-2.54-1.85-1.61 1.24-2.57-.83-.57-2h-3.14l-.57 2-2.57.83-1.6-1.24-2.54 1.85.68 1.92-1.59 2.18-2-.05-1 3 1.67 1.15v2.7l-1.67 1.15 1 3 2-.05 1.59 2.18-.68 1.92 2.54 1.85 1.6-1.24 2.57.83.57 1.95h3.14l.57-1.95 2.57-.83 1.61 1.24 2.54-1.85-.66-1.9 1.59-2.18 2 .05 1-3-1.67-1.15V2656zm-5.48 3.09v.16a5.91 5.91 0 0 1-2 2.81l-.14.1a5.88 5.88 0 0 1-3.3 1.07h-.16a5.89 5.89 0 0 1-3.31-1.07l-.13-.1a5.89 5.89 0 0 1-2-2.81v-.16a5.88 5.88 0 0 1 0-3.48v-.16a5.91 5.91 0 0 1 2-2.82l.13-.09a5.88 5.88 0 0 1 3.31-1.07h.16a5.88 5.88 0 0 1 3.3 1.07l.14.09a5.93 5.93 0 0 1 2 2.82v.16a5.85 5.85 0 0 1-.01 3.5z" transform="translate(-4934.03 -2636.25)"/></g></g><g id="_Group_4" data-name="&amp;lt;Group&amp;gt;"><g id="_Group_5" data-name="&amp;lt;Group&amp;gt;"><path id="_Compound_Path_2" data-name="&amp;lt;Compound Path&amp;gt;" class="cls-1" d="M4972 2646.12l1.86-1-.38-2.16-2.08-.29-.91-1.57.79-1.95-1.68-1.42-1.78 1.12-1.7-.62-.65-2h-2.19l-.65 2-1.7.62-1.78-1.12-1.68 1.42.79 1.95-.91 1.57-2.08.29-.38 2.16 1.86 1 .31 1.79-1.41 1.56 1.09 1.9 2.06-.44 1.39 1.16-.08 2.1 2.07.75 1.29-1.66h1.81l1.29 1.66 2.07-.75-.08-2.1 1.39-1.16 2.06.44 1.09-1.9-1.41-1.56zm-3.68.8v.11a4.06 4.06 0 0 1-1.44 2l-.09.07a4.14 4.14 0 0 1-2.33.76h-.11a4.14 4.14 0 0 1-2.33-.76l-.09-.07a4.17 4.17 0 0 1-1.44-2v-.11a4.08 4.08 0 0 1 0-2.45v-.11a4.21 4.21 0 0 1 1.44-2l.09-.07a4.12 4.12 0 0 1 2.33-.75h.11a4.12 4.12 0 0 1 2.33.75l.09.07a4.1 4.1 0 0 1 1.44 2v.11a4.2 4.2 0 0 1-.01 2.45z" transform="translate(-4934.03 -2636.25)"/></g></g></g></svg>