<svg id="Layer_1" data-name="Layer 1" xmlns="http://www.w3.org/2000/svg" viewBox="0 0 46.13 29.88"><defs><style>.cls-1{fill:#f68c6b}</style></defs><title>section-4-map-icon-1</title><g id="_Group_" data-name="&amp;lt;Group&amp;gt;"><path id="_Compound_Path_" data-name="&amp;lt;Compound Path&amp;gt;" class="cls-1" d="M4063.13 2460.4h-43a1.55 1.55 0 0 0-1.55 1.55.78.78 0 0 0 .78.79.7.7 0 0 1 .53.35 1.54 1.54 0 0 1 .26.65l1.1 10a1.74 1.74 0 0 0 1.73 1.55h13.73a2 2 0 0 0 1.68-1.59l.87-3.15a1.73 1.73 0 0 1 1.67-1.27h1.39a2 2 0 0 1 1.68 1.59l.87 3.15a1.74 1.74 0 0 0 1.67 1.27h13.75a2 2 0 0 0 1.73-1.84l1.11-10a.78.78 0 0 1 .78-.7.79.79 0 0 0 .78-.79 1.55 1.55 0 0 0-1.56-1.56zm-26 5.26l-.62 5.88a2.6 2.6 0 0 1-2.59 2.33h-8.51a2.6 2.6 0 0 1-2.59-2.33l-.62-5.88a2.6 2.6 0 0 1 2.58-2.87h9.75a2.6 2.6 0 0 1 2.64 2.87zm23.2 5.88a2.61 2.61 0 0 1-2.59 2.33h-8.51a2.6 2.6 0 0 1-2.59-2.33l-.62-5.88a2.6 2.6 0 0 1 2.59-2.87h9.74a2.6 2.6 0 0 1 2.59 2.87z" transform="translate(-4018.56 -2460.4)"/><path id="_Path_" data-name="&amp;lt;Path&amp;gt;" class="cls-1" d="M4049.78 2483.16c-2.3-2.27-3.65-3.63-6.46-2.69a1.84 1.84 0 0 1-3.45 0c-2.82-.94-4.16.42-6.46 2.69-3.1 3-7.22 3.24-12.56-.67a15.4 15.4 0 0 0 6.93 6.43c3.11 1.53 10.16 2.17 13.27-.35a5.19 5.19 0 0 0 .55-.52 5 5 0 0 0 .55.52c3.11 2.53 10.16 1.88 13.27.35a15.39 15.39 0 0 0 6.93-6.43c-5.35 3.91-9.48 3.72-12.57.67z" transform="translate(-4018.56 -2460.4)"/></g></svg>