<svg xmlns="http://www.w3.org/2000/svg" viewBox="0 0 209.96 110.17"><defs><style>.cls-1{fill:#3c7385}.cls-2{fill:#d3e2e1}.cls-3{fill:#689f9f}.cls-4{fill:#badbdb}.cls-5{fill:#a3d0ca}.cls-6{fill:#89c6ba}.cls-7{fill:#5b90a8}.cls-8{fill:#7bb8ad}.cls-9{fill:#77afae}.cls-10{fill:#7ca7bc}.cls-11{fill:#4b7e93}.cls-12{fill:#414042}</style></defs><title>Asset 11</title><g id="Layer_2" data-name="Layer 2"><g id="Layer_1-2" data-name="Layer 1"><path class="cls-1" d="M54.92 55l-26.65-5.1-25.45-4.8C1 44.76.94 44.78 1.41 43 7.32 20.44 21.7 6.51 44.36 1.1A50.53 50.53 0 0 1 53.83 0c.63 0 1 0 1 .83"/><path class="cls-2" d="M55.4 54.92v-1.34q-.07-26-.18-52c0-1.25.35-1.5 1.5-1.44A55.35 55.35 0 0 1 108.94 43c.24 1 .23 1.56-1.09 1.8-8 1.48-16 3.08-24 4.63l-25.48 4.94c-.95.18-1.91.34-2.97.55z"/><path class="cls-3" d="M35.28 105.35c-.3.75-.57 1-1.38.61a56 56 0 0 1-20.24-14.61c-.46-.52-.58-.79.06-1.33q20-16.61 40-33.24c.16-.12.76-.5.93-.6"/><path class="cls-4" d="M55.84 55.24l29.61-5.64c7.63-1.48 15.26-2.93 22.86-4.44.88-.18 1.14 0 1.29.88a56.15 56.15 0 0 1-1.36 24.45c-.31 1.12-.73 1.26-1.78.91"/><path class="cls-5" d="M56 55.75l6.58 2.08 43.52 14c1 .31 1.17.64.81 1.64a56.41 56.41 0 0 1-10.7 18.16c-.58.67-.91.85-1.68.13Q78.79 77 63 62.25"/><path class="cls-6" d="M66.21 65.75l28.33 26.42c.65.6.42.88-.06 1.35a56.61 56.61 0 0 1-17.58 12.1c-1 .45-1.29.14-1.65-.75Q67.66 85.75 60 66.64l-4.16-10.46"/><path class="cls-7" d="M45.86 58.76L5.19 75c-.85.34-1.12.23-1.45-.63A58.2 58.2 0 0 1 .29 57c-.05-1.08.21-1.37 1.33-1.38 17.31 0 35.57 0 52.87-.12"/><path class="cls-8" d="M55.52 56.39l11.92 29.87c2.51 6.29 5 12.58 7.55 18.86.37.92.34 1.32-.68 1.67a56.32 56.32 0 0 1-17.56 3.34c-.79 0-1.17-.07-1.18-1"/><path class="cls-9" d="M55.14 106.3v3c0 .72-.23.9-.91.89a55.92 55.92 0 0 1-18.06-3.37c-1.11-.4-.57-1-.36-1.53q4.27-10.92 8.56-21.83l10.09-25.65.54-1.38"/><path class="cls-10" d="M13.89 89.44c-.66.55-.93.56-1.47-.14a56.59 56.59 0 0 1-7.5-12.64c-.25-.59-.4-.91.42-1.24 15.74-6.25 33.39-13.3 49.11-19.6"/><path class="cls-11" d="M54.66 55.16l-4.72-.24-48.57.16c-1 0-1.44-.17-1.35-1.32.19-2.56.37-5.11.75-7.65.09-.59.28-.81 1-.68q22 4.16 44.11 8.27"/><rect class="cls-2" x="126.65" y="4.84" width="5.03" height="5.03" rx="2.52" ry="2.52"/><rect class="cls-4" x="126.65" y="14.11" width="5.03" height="5.03" rx="2.52" ry="2.52"/><rect class="cls-5" x="126.65" y="23.37" width="5.03" height="5.03" rx="2.52" ry="2.52"/><rect class="cls-6" x="126.65" y="32.64" width="5.03" height="5.03" rx="2.52" ry="2.52"/><rect class="cls-8" x="126.65" y="41.91" width="5.03" height="5.03" rx="2.52" ry="2.52"/><rect class="cls-9" x="126.65" y="51.18" width="5.03" height="5.03" rx="2.52" ry="2.52"/><rect class="cls-1" x="126.65" y="97.51" width="5.03" height="5.03" rx="2.52" ry="2.52"/><rect class="cls-11" x="126.65" y="88.24" width="5.03" height="5.03" rx="2.52" ry="2.52"/><rect class="cls-7" x="126.65" y="78.98" width="5.03" height="5.03" rx="2.52" ry="2.52"/><rect class="cls-10" x="126.65" y="69.71" width="5.03" height="5.03" rx="2.52" ry="2.52"/><rect class="cls-3" x="126.65" y="60.44" width="5.03" height="5.03" rx="2.52" ry="2.52"/><path class="cls-12" d="M140.14 8.56a.12.12 0 0 1 .08 0l.23.25a1.86 1.86 0 0 1-.64.48 2.2 2.2 0 0 1-.92.17 2.15 2.15 0 0 1-.85-.16 1.85 1.85 0 0 1-.65-.45 2 2 0 0 1-.42-.7 2.61 2.61 0 0 1-.15-.9 2.52 2.52 0 0 1 .15-.9 2 2 0 0 1 .43-.7 1.93 1.93 0 0 1 .67-.45 2.21 2.21 0 0 1 .86-.16 2.09 2.09 0 0 1 .82.15 2.06 2.06 0 0 1 .62.4l-.19.27h-.08a.24.24 0 0 1-.13-.06l-.21-.13a1.62 1.62 0 0 0-.32-.13 1.6 1.6 0 0 0-.47-.06 1.56 1.56 0 0 0-.61.12 1.33 1.33 0 0 0-.48.34 1.56 1.56 0 0 0-.31.54 2.16 2.16 0 0 0-.11.72 2.08 2.08 0 0 0 .12.72 1.58 1.58 0 0 0 .32.54 1.33 1.33 0 0 0 .47.33 1.52 1.52 0 0 0 .59.11h.35a1.38 1.38 0 0 0 .29-.07 1.15 1.15 0 0 0 .25-.12 1.63 1.63 0 0 0 .15-.11.16.16 0 0 1 .14-.04zM142.24 6.35a1.57 1.57 0 0 1 .6.11 1.3 1.3 0 0 1 .46.32 1.41 1.41 0 0 1 .29.5 2.16 2.16 0 0 1 0 1.3 1.41 1.41 0 0 1-.29.49 1.27 1.27 0 0 1-.46.32 1.72 1.72 0 0 1-1.21 0 1.26 1.26 0 0 1-.46-.32 1.41 1.41 0 0 1-.29-.49 2.16 2.16 0 0 1 0-1.3 1.41 1.41 0 0 1 .29-.5 1.29 1.29 0 0 1 .46-.32 1.58 1.58 0 0 1 .61-.11zm0 2.73a.79.79 0 0 0 .68-.3 1.41 1.41 0 0 0 .22-.85 1.42 1.42 0 0 0-.22-.85.78.78 0 0 0-.68-.3.94.94 0 0 0-.4.08.73.73 0 0 0-.28.23 1 1 0 0 0-.17.36 2 2 0 0 0-.06.49 1.39 1.39 0 0 0 .23.85.79.79 0 0 0 .68.29zM144.37 9.45V6.39h.32a.13.13 0 0 1 .14.11v.33a1.7 1.7 0 0 1 .45-.36 1.16 1.16 0 0 1 .57-.14 1.12 1.12 0 0 1 .44.08.86.86 0 0 1 .32.24 1 1 0 0 1 .2.37 1.6 1.6 0 0 1 .07.47v1.96h-.54V7.5a.82.82 0 0 0-.16-.54.59.59 0 0 0-.48-.19.91.91 0 0 0-.45.12 1.42 1.42 0 0 0-.38.31v2.25zM149.52 6.9a.12.12 0 0 1-.11.07.21.21 0 0 1-.1 0l-.14-.07-.2-.08a.94.94 0 0 0-.27 0 .8.8 0 0 0-.25 0 .6.6 0 0 0-.19.09.43.43 0 0 0-.12.14.38.38 0 0 0 0 .17.29.29 0 0 0 .07.2.61.61 0 0 0 .18.14l.25.1.29.09.29.11a1.05 1.05 0 0 1 .25.15.66.66 0 0 1 .25.54 1 1 0 0 1-.08.39.84.84 0 0 1-.22.31 1.07 1.07 0 0 1-.36.21 1.48 1.48 0 0 1-.5.08 1.55 1.55 0 0 1-.58-.1 1.46 1.46 0 0 1-.44-.27l.13-.21.06-.06h.08a.2.2 0 0 1 .12 0l.07.1.21.09a1 1 0 0 0 .31 0 .83.83 0 0 0 .27 0A.58.58 0 0 0 149 9a.44.44 0 0 0 .12-.16.49.49 0 0 0 0-.19.32.32 0 0 0-.07-.21.56.56 0 0 0-.18-.14l-.25-.1-.29-.09-.23-.11a1 1 0 0 1-.25-.16.7.7 0 0 1-.18-.23.75.75 0 0 1-.07-.33.82.82 0 0 1 .28-.62 1 1 0 0 1 .34-.19 1.35 1.35 0 0 1 .46-.07 1.46 1.46 0 0 1 .54.1 1.28 1.28 0 0 1 .42.26zM150.86 6.39v2a.82.82 0 0 0 .16.54.6.6 0 0 0 .48.19.93.93 0 0 0 .44-.11 1.37 1.37 0 0 0 .38-.31V6.39h.54v3.06h-.32a.14.14 0 0 1-.14-.11v-.33a1.69 1.69 0 0 1-.45.35 1.17 1.17 0 0 1-.57.13 1.1 1.1 0 0 1-.44-.08.86.86 0 0 1-.32-.23 1 1 0 0 1-.2-.37 1.64 1.64 0 0 1-.06-.47v-2zM153.72 9.45V6.39h.28a.13.13 0 0 1 .14.11v.31a1.57 1.57 0 0 1 .38-.34.91.91 0 0 1 .49-.13.72.72 0 0 1 .5.17 1 1 0 0 1 .28.46 1 1 0 0 1 .4-.49 1 1 0 0 1 .28-.11 1.21 1.21 0 0 1 .3 0 1.14 1.14 0 0 1 .43.08.86.86 0 0 1 .32.23 1 1 0 0 1 .2.36 1.62 1.62 0 0 1 .07.49v1.92h-.54V7.5a.83.83 0 0 0-.16-.54.56.56 0 0 0-.45-.19.68.68 0 0 0-.25 0 .61.61 0 0 0-.21.14.65.65 0 0 0-.14.23.89.89 0 0 0-.05.32v1.99h-.54V7.5a.86.86 0 0 0-.15-.55.53.53 0 0 0-.43-.18.68.68 0 0 0-.37.11 1.24 1.24 0 0 0-.31.29v2.28zM159.94 6.35a1.37 1.37 0 0 1 .51.09 1.15 1.15 0 0 1 .41.27 1.22 1.22 0 0 1 .27.43 1.63 1.63 0 0 1 .1.58.35.35 0 0 1 0 .17.11.11 0 0 1-.1 0h-2a1.66 1.66 0 0 0 .08.5 1 1 0 0 0 .2.36.79.79 0 0 0 .3.21 1 1 0 0 0 .39.07 1.15 1.15 0 0 0 .35 0l.25-.1.18-.1a.23.23 0 0 1 .12 0 .12.12 0 0 1 .1.05l.15.2a1 1 0 0 1-.24.21 1.45 1.45 0 0 1-.3.15 1.94 1.94 0 0 1-.33.09h-.34a1.56 1.56 0 0 1-.58-.11 1.3 1.3 0 0 1-.46-.31 1.45 1.45 0 0 1-.3-.51 2.08 2.08 0 0 1-.11-.7 1.78 1.78 0 0 1 .1-.6 1.41 1.41 0 0 1 .28-.48 1.31 1.31 0 0 1 .45-.32 1.48 1.48 0 0 1 .52-.15zm0 .4a.83.83 0 0 0-.61.23 1.06 1.06 0 0 0-.28.62h1.67a1.06 1.06 0 0 0-.05-.34.77.77 0 0 0-.15-.27.69.69 0 0 0-.25-.17.83.83 0 0 0-.32-.08zM161.87 9.45V6.39h.31a.17.17 0 0 1 .12 0 .21.21 0 0 1 0 .11v.46a1.38 1.38 0 0 1 .36-.49.79.79 0 0 1 .52-.18h.19a.5.5 0 0 1 .16.07v.4a.09.09 0 0 1-.09.08h-.3a.72.72 0 0 0-.26 0 .61.61 0 0 0-.2.13.86.86 0 0 0-.16.2 1.76 1.76 0 0 0-.13.28v2zM168.43 9.38a2.67 2.67 0 0 1-.81.12 2.61 2.61 0 0 1-.94-.16 2.06 2.06 0 0 1-.72-.45 2 2 0 0 1-.46-.7 2.44 2.44 0 0 1-.16-.9 2.51 2.51 0 0 1 .16-.9 2 2 0 0 1 .44-.7 2 2 0 0 1 .7-.45 2.51 2.51 0 0 1 .92-.16 2.82 2.82 0 0 1 .48 0 2.26 2.26 0 0 1 .41.11 1.94 1.94 0 0 1 .35.17 2.12 2.12 0 0 1 .3.23l-.17.27a.18.18 0 0 1-.1.08.18.18 0 0 1-.14 0l-.17-.1-.23-.12a1.87 1.87 0 0 0-.32-.09 2.07 2.07 0 0 0-.43 0 1.74 1.74 0 0 0-.66.12 1.38 1.38 0 0 0-.5.34 1.49 1.49 0 0 0-.32.54 2.32 2.32 0 0 0 0 1.44 1.51 1.51 0 0 0 .33.55 1.43 1.43 0 0 0 .52.34 1.93 1.93 0 0 0 .69.12h.53l.23-.08.23-.11v-1h-.67a.13.13 0 0 1-.09 0 .11.11 0 0 1 0-.08v-.44h1.33V9a2.41 2.41 0 0 1-.73.38zM171.15 6.35a1.57 1.57 0 0 1 .6.11 1.3 1.3 0 0 1 .46.32 1.41 1.41 0 0 1 .29.5 2.16 2.16 0 0 1 0 1.3 1.41 1.41 0 0 1-.29.49 1.27 1.27 0 0 1-.46.32 1.72 1.72 0 0 1-1.21 0 1.26 1.26 0 0 1-.46-.32 1.41 1.41 0 0 1-.29-.49 2.16 2.16 0 0 1 0-1.3 1.41 1.41 0 0 1 .29-.5 1.29 1.29 0 0 1 .46-.32 1.58 1.58 0 0 1 .61-.11zm0 2.73a.79.79 0 0 0 .68-.3 1.41 1.41 0 0 0 .22-.85 1.42 1.42 0 0 0-.22-.85.78.78 0 0 0-.68-.3.94.94 0 0 0-.4.08.73.73 0 0 0-.28.23 1 1 0 0 0-.17.36 2 2 0 0 0-.06.49 1.39 1.39 0 0 0 .23.85.79.79 0 0 0 .68.29zM174.57 6.35a1.57 1.57 0 0 1 .6.11 1.3 1.3 0 0 1 .46.32 1.41 1.41 0 0 1 .29.5 2.16 2.16 0 0 1 0 1.3 1.41 1.41 0 0 1-.29.49 1.27 1.27 0 0 1-.46.32 1.72 1.72 0 0 1-1.21 0 1.26 1.26 0 0 1-.46-.32 1.41 1.41 0 0 1-.29-.49 2.16 2.16 0 0 1 0-1.3 1.41 1.41 0 0 1 .29-.5 1.29 1.29 0 0 1 .46-.32 1.58 1.58 0 0 1 .61-.11zm0 2.73a.79.79 0 0 0 .68-.3 1.41 1.41 0 0 0 .22-.85 1.42 1.42 0 0 0-.22-.85.78.78 0 0 0-.68-.3.94.94 0 0 0-.4.08.73.73 0 0 0-.28.23 1 1 0 0 0-.17.36 2 2 0 0 0-.06.49 1.39 1.39 0 0 0 .23.85.79.79 0 0 0 .68.29zM178.92 9.45a.14.14 0 0 1-.14-.11v-.37a1.59 1.59 0 0 1-.45.38 1.15 1.15 0 0 1-.58.14 1.11 1.11 0 0 1-.48-.1 1 1 0 0 1-.37-.3 1.43 1.43 0 0 1-.23-.49 2.55 2.55 0 0 1-.08-.67 2.11 2.11 0 0 1 .09-.63 1.54 1.54 0 0 1 .26-.51 1.22 1.22 0 0 1 .42-.34 1.23 1.23 0 0 1 .55-.12 1.12 1.12 0 0 1 .48.1 1.15 1.15 0 0 1 .36.27V5h.54v4.45zm-1-.39a.87.87 0 0 0 .46-.12 1.34 1.34 0 0 0 .36-.34V7.12a.9.9 0 0 0-.33-.28.93.93 0 0 0-.39-.08.77.77 0 0 0-.66.3 1.43 1.43 0 0 0-.23.87 2.21 2.21 0 0 0 .05.51 1 1 0 0 0 .15.35.59.59 0 0 0 .24.2.8.8 0 0 0 .3.07zM181.87 6.9a.12.12 0 0 1-.11.07.21.21 0 0 1-.1 0l-.14-.07-.2-.08a.94.94 0 0 0-.27 0 .8.8 0 0 0-.25 0 .6.6 0 0 0-.19.09.43.43 0 0 0-.12.14.38.38 0 0 0 0 .17.29.29 0 0 0 .07.2.61.61 0 0 0 .18.14l.25.1.29.09.29.11a1.05 1.05 0 0 1 .25.15.66.66 0 0 1 .25.54 1 1 0 0 1-.08.39.84.84 0 0 1-.22.31 1.07 1.07 0 0 1-.36.21 1.48 1.48 0 0 1-.5.08 1.55 1.55 0 0 1-.58-.1 1.46 1.46 0 0 1-.44-.27l.13-.21.06-.06h.08a.2.2 0 0 1 .12 0l.15.09.21.09a1 1 0 0 0 .31 0 .83.83 0 0 0 .27 0 .58.58 0 0 0 .2-.11.44.44 0 0 0 .12-.16.49.49 0 0 0 0-.19.32.32 0 0 0-.07-.21.56.56 0 0 0-.18-.14l-.25-.1-.29-.09-.3-.08a1 1 0 0 1-.25-.16.7.7 0 0 1-.18-.23.75.75 0 0 1-.07-.33.82.82 0 0 1 .28-.62 1 1 0 0 1 .34-.19 1.35 1.35 0 0 1 .46-.07 1.46 1.46 0 0 1 .54.1 1.28 1.28 0 0 1 .42.26zM139.77 14.38v.48h-2.08v1.44h1.68v.46h-1.68v1.48h2.08v.48h-2.67v-4.34zM140.38 18.7v-3.06h.32a.13.13 0 0 1 .14.11v.33a1.7 1.7 0 0 1 .45-.36 1.16 1.16 0 0 1 .57-.14 1.12 1.12 0 0 1 .44.08.86.86 0 0 1 .32.24 1 1 0 0 1 .2.37 1.6 1.6 0 0 1 .07.47v1.96h-.54v-1.95a.82.82 0 0 0-.16-.54.59.59 0 0 0-.48-.19.91.91 0 0 0-.45.12 1.42 1.42 0 0 0-.38.31v2.25zM145 15.6a1.37 1.37 0 0 1 .51.09 1.15 1.15 0 0 1 .41.27 1.22 1.22 0 0 1 .27.43 1.63 1.63 0 0 1 .1.58.35.35 0 0 1 0 .17.11.11 0 0 1-.1 0h-2a1.66 1.66 0 0 0 .08.5 1 1 0 0 0 .2.36.79.79 0 0 0 .3.21 1 1 0 0 0 .39.07 1.15 1.15 0 0 0 .35 0l.25-.1.18-.1a.23.23 0 0 1 .12 0 .12.12 0 0 1 .1.05l.15.2a1 1 0 0 1-.24.21 1.45 1.45 0 0 1-.3.15 1.94 1.94 0 0 1-.33.09h-.34a1.56 1.56 0 0 1-.58-.11 1.3 1.3 0 0 1-.46-.31 1.45 1.45 0 0 1-.3-.51 2.08 2.08 0 0 1-.11-.7 1.78 1.78 0 0 1 .1-.6A1.41 1.41 0 0 1 144 16a1.31 1.31 0 0 1 .45-.32 1.48 1.48 0 0 1 .55-.08zm0 .4a.83.83 0 0 0-.61.23 1.06 1.06 0 0 0-.28.62h1.67a1.06 1.06 0 0 0-.05-.34.77.77 0 0 0-.15-.27.69.69 0 0 0-.25-.17.83.83 0 0 0-.33-.07zM146.94 18.7v-3.06h.31a.17.17 0 0 1 .12 0 .21.21 0 0 1 0 .11v.46a1.38 1.38 0 0 1 .36-.49.79.79 0 0 1 .52-.18h.19a.5.5 0 0 1 .16.07v.4a.09.09 0 0 1-.09.08h-.3a.72.72 0 0 0-.26 0 .61.61 0 0 0-.2.13.86.86 0 0 0-.16.2 1.76 1.76 0 0 0-.13.28v2zM150.12 15.59a1.49 1.49 0 0 1 .37 0 1.17 1.17 0 0 1 .31.13h.83V16c0 .07 0 .11-.13.13h-.35a1 1 0 0 1-.22 1.16 1.07 1.07 0 0 1-.36.2 1.48 1.48 0 0 1-.46.07 1.56 1.56 0 0 1-.41-.05.51.51 0 0 0-.15.13.24.24 0 0 0 0 .14.18.18 0 0 0 .09.17.65.65 0 0 0 .23.08H150.96a1.14 1.14 0 0 1 .33.11.62.62 0 0 1 .23.21.61.61 0 0 1 .09.34.81.81 0 0 1-.1.38 1 1 0 0 1-.28.33 1.46 1.46 0 0 1-.45.23 2 2 0 0 1-.6.09 2.32 2.32 0 0 1-.59-.07 1.37 1.37 0 0 1-.42-.18.77.77 0 0 1-.25-.26.61.61 0 0 1-.08-.31.55.55 0 0 1 .14-.38 1 1 0 0 1 .39-.25.55.55 0 0 1-.21-.16.48.48 0 0 1-.05-.41.58.58 0 0 1 .07-.14l.12-.13a.82.82 0 0 1 .17-.11.94.94 0 0 1-.35-.34.93.93 0 0 1-.13-.49.94.94 0 0 1 .09-.41.91.91 0 0 1 .24-.31 1.1 1.1 0 0 1 .37-.2 1.51 1.51 0 0 1 .43.02zm1 3.28a.26.26 0 0 0-.06-.18.42.42 0 0 0-.17-.11 1.14 1.14 0 0 0-.25-.06H149.71a.86.86 0 0 0-.28.2.4.4 0 0 0-.11.28.37.37 0 0 0 .05.19.45.45 0 0 0 .16.15 1 1 0 0 0 .27.1 1.8 1.8 0 0 0 .39 0 1.75 1.75 0 0 0 .39 0 1 1 0 0 0 .29-.11.55.55 0 0 0 .18-.17.41.41 0 0 0 .04-.29zm-1-1.66a.84.84 0 0 0 .29 0 .6.6 0 0 0 .21-.13.53.53 0 0 0 .13-.2.72.72 0 0 0 0-.25.59.59 0 0 0-.17-.45.68.68 0 0 0-.49-.17.69.69 0 0 0-.5.17.6.6 0 0 0-.17.45.68.68 0 0 0 0 .25.52.52 0 0 0 .13.2.6.6 0 0 0 .21.13.84.84 0 0 0 .36 0zM153.13 19.6a.29.29 0 0 1-.07.1.18.18 0 0 1-.12 0h-.4l.56-1.21-1.26-2.88h.46a.17.17 0 0 1 .11 0 .18.18 0 0 1 .06.08l.82 1.93v.26c0-.09.06-.18.09-.27l.79-1.92a.17.17 0 0 1 .06-.08.17.17 0 0 1 .1 0h.43zM158.29 14.33a1.19 1.19 0 0 1 .43.08 1.11 1.11 0 0 1 .34.2 1 1 0 0 1 .22.29.92.92 0 0 1 .1.35l-.34.07c-.07 0-.12 0-.15-.09a.73.73 0 0 0-.07-.16.64.64 0 0 0-.12-.15.59.59 0 0 0-.42-.16.74.74 0 0 0-.27 0 .59.59 0 0 0-.34.34.68.68 0 0 0 0 .25.81.81 0 0 0 0 .2.85.85 0 0 0 .08.2 1.3 1.3 0 0 0 .13.2l.2.22 1.24 1.26a2.14 2.14 0 0 0 .18-.43 2.36 2.36 0 0 0 .09-.44.15.15 0 0 1 0-.09.11.11 0 0 1 .08 0h.33a2.28 2.28 0 0 1-.11.68 2.47 2.47 0 0 1-.3.63l.91.92h-.64a.35.35 0 0 1-.12-.09l-.44-.44a2.2 2.2 0 0 1-.65.43 2 2 0 0 1-.81.16 1.4 1.4 0 0 1-.47-.08 1.32 1.32 0 0 1-.42-.24 1.19 1.19 0 0 1-.3-.38 1.18 1.18 0 0 1 0-.9 1.28 1.28 0 0 1 .2-.35 1.49 1.49 0 0 1 .3-.29 2 2 0 0 1 .38-.22 1.75 1.75 0 0 1-.27-.45 1.24 1.24 0 0 1-.09-.46 1.06 1.06 0 0 1 .08-.41 1 1 0 0 1 .23-.34 1.1 1.1 0 0 1 .37-.23 1.35 1.35 0 0 1 .44-.08zm-.36 4a1.44 1.44 0 0 0 .61-.12 1.64 1.64 0 0 0 .47-.33l-1.28-1.29a1.3 1.3 0 0 0-.48.41.92.92 0 0 0-.16.52.77.77 0 0 0 .26.6.81.81 0 0 0 .27.16.93.93 0 0 0 .31.03zM163 14.38l2.5 3.26v-.15V14.38h.51v4.32h-.29a.25.25 0 0 1-.12 0 .29.29 0 0 1-.09-.08l-2.5-3.26v3.34h-.51v-4.32h.5zM169 18.7a.24.24 0 0 1-.12 0 .17.17 0 0 1-.07-.1l-.06-.29-.24.19a1.4 1.4 0 0 1-.24.14 1.32 1.32 0 0 1-.27.09 1.46 1.46 0 0 1-.32 0 1.1 1.1 0 0 1-.33 0 .77.77 0 0 1-.27-.15.72.72 0 0 1-.18-.25.89.89 0 0 1-.07-.36.67.67 0 0 1 .1-.35.87.87 0 0 1 .32-.3 2.08 2.08 0 0 1 .58-.21 4.47 4.47 0 0 1 .88-.1v-.24a.82.82 0 0 0-.15-.54.56.56 0 0 0-.45-.18 1 1 0 0 0-.33 0 1.26 1.26 0 0 0-.23.11l-.17.11a.24.24 0 0 1-.14 0 .16.16 0 0 1-.09 0l-.07-.07-.1-.17a1.75 1.75 0 0 1 .55-.37 1.69 1.69 0 0 1 .65-.12 1.15 1.15 0 0 1 .46.08.93.93 0 0 1 .33.24 1 1 0 0 1 .21.37 1.5 1.5 0 0 1 .07.47v2zm-1.15-.33a1.12 1.12 0 0 0 .26 0l.22-.08a1.11 1.11 0 0 0 .2-.13l.19-.17v-.63a4.43 4.43 0 0 0-.63.06 1.84 1.84 0 0 0-.43.12.6.6 0 0 0-.24.18.39.39 0 0 0-.07.23.5.5 0 0 0 0 .21.38.38 0 0 0 .11.14.43.43 0 0 0 .16.08zM171 18.75a.74.74 0 0 1-.56-.2.81.81 0 0 1-.2-.58v-1.88h-.37a.12.12 0 0 1-.08 0 .11.11 0 0 1 0-.09v-.21l.5-.06.12-.95a.14.14 0 0 1 0-.07.12.12 0 0 1 .08 0h.27v.99h.88v.39h-.88v1.84a.39.39 0 0 0 .09.29.33.33 0 0 0 .24.09h.4a.09.09 0 0 1 .08.05l.16.26a1 1 0 0 1-.33.2 1.15 1.15 0 0 1-.4-.07zM172.7 15.64v2a.82.82 0 0 0 .16.54.6.6 0 0 0 .48.19.93.93 0 0 0 .44-.11 1.37 1.37 0 0 0 .38-.31v-2.31h.54v3.06h-.32a.14.14 0 0 1-.14-.11v-.33a1.69 1.69 0 0 1-.45.35 1.17 1.17 0 0 1-.57.13 1.1 1.1 0 0 1-.44-.08.86.86 0 0 1-.32-.23 1 1 0 0 1-.2-.37 1.64 1.64 0 0 1-.06-.47v-2zM175.56 18.7v-3.06h.31a.17.17 0 0 1 .12 0 .21.21 0 0 1 0 .11v.46a1.38 1.38 0 0 1 .36-.49.79.79 0 0 1 .52-.18h.19a.5.5 0 0 1 .16.07v.4a.09.09 0 0 1-.09.08h-.3a.72.72 0 0 0-.26 0 .61.61 0 0 0-.2.13.86.86 0 0 0-.16.2 1.76 1.76 0 0 0-.13.28v2zM179.65 18.7a.24.24 0 0 1-.12 0 .17.17 0 0 1-.07-.1l-.06-.29-.24.19a1.4 1.4 0 0 1-.24.14 1.32 1.32 0 0 1-.27.09 1.46 1.46 0 0 1-.32 0 1.1 1.1 0 0 1-.33 0 .77.77 0 0 1-.27-.15.72.72 0 0 1-.18-.25.89.89 0 0 1-.07-.36.67.67 0 0 1 .1-.35.87.87 0 0 1 .32-.3 2.08 2.08 0 0 1 .58-.21 4.47 4.47 0 0 1 .88-.1v-.24a.82.82 0 0 0-.15-.54.56.56 0 0 0-.45-.18 1 1 0 0 0-.33 0 1.26 1.26 0 0 0-.23.11l-.17.11a.24.24 0 0 1-.14 0 .16.16 0 0 1-.09 0l-.07-.07-.1-.17a1.75 1.75 0 0 1 .55-.37 1.69 1.69 0 0 1 .65-.12 1.15 1.15 0 0 1 .46.08.93.93 0 0 1 .33.24 1 1 0 0 1 .21.37 1.5 1.5 0 0 1 .07.47v2zm-1.15-.33a1.12 1.12 0 0 0 .26 0l.22-.08a1.11 1.11 0 0 0 .2-.13l.19-.17v-.63a4.43 4.43 0 0 0-.63.06 1.84 1.84 0 0 0-.43.12.6.6 0 0 0-.24.18.39.39 0 0 0-.07.23.5.5 0 0 0 0 .21.38.38 0 0 0 .11.14.43.43 0 0 0 .16.08zM181.26 14.26v4.44h-.54v-4.44zM184.39 16.9v1.8h-.58v-4.32H185a2.66 2.66 0 0 1 .71.08 1.34 1.34 0 0 1 .49.24 1 1 0 0 1 .29.38 1.34 1.34 0 0 1 0 .93 1.12 1.12 0 0 1-.21.36 1.28 1.28 0 0 1-.33.27 1.57 1.57 0 0 1-.45.17.68.68 0 0 1 .19.18L187 18.7h-.52a.26.26 0 0 1-.24-.12L185.12 17a.33.33 0 0 0-.11-.1.4.4 0 0 0-.18 0zm0-.43h.61a1.46 1.46 0 0 0 .45-.06.92.92 0 0 0 .33-.17.73.73 0 0 0 .22-.24.89.89 0 0 0 .07-.35.69.69 0 0 0-.25-.58 1.23 1.23 0 0 0-.76-.2h-.64zM188.52 15.6a1.37 1.37 0 0 1 .51.09 1.15 1.15 0 0 1 .41.27 1.22 1.22 0 0 1 .27.43 1.63 1.63 0 0 1 .1.58.35.35 0 0 1 0 .17.11.11 0 0 1-.1 0h-2a1.66 1.66 0 0 0 .08.5 1 1 0 0 0 .2.36.79.79 0 0 0 .3.21 1 1 0 0 0 .39.07 1.15 1.15 0 0 0 .35 0l.25-.1.18-.1a.23.23 0 0 1 .12 0 .12.12 0 0 1 .1.05l.15.2a1 1 0 0 1-.24.21 1.45 1.45 0 0 1-.3.15 1.94 1.94 0 0 1-.33.09h-.34a1.56 1.56 0 0 1-.58-.11 1.3 1.3 0 0 1-.46-.31 1.45 1.45 0 0 1-.3-.51 2.08 2.08 0 0 1-.11-.7 1.78 1.78 0 0 1 .1-.6 1.41 1.41 0 0 1 .28-.48 1.31 1.31 0 0 1 .45-.32 1.48 1.48 0 0 1 .52-.15zm0 .4a.83.83 0 0 0-.61.23 1.06 1.06 0 0 0-.28.62h1.67a1.06 1.06 0 0 0-.05-.34.77.77 0 0 0-.15-.27.69.69 0 0 0-.25-.17.83.83 0 0 0-.32-.07zM192.23 16.15a.12.12 0 0 1-.11.07.21.21 0 0 1-.1 0l-.14-.07-.2-.08a.94.94 0 0 0-.27 0 .8.8 0 0 0-.25 0 .6.6 0 0 0-.19.09.43.43 0 0 0-.12.14.38.38 0 0 0 0 .17.29.29 0 0 0 .07.2.61.61 0 0 0 .18.14l.25.1.29.09.29.11a1.05 1.05 0 0 1 .25.15.66.66 0 0 1 .25.54 1 1 0 0 1-.08.39.84.84 0 0 1-.22.31 1.07 1.07 0 0 1-.36.21 1.48 1.48 0 0 1-.5.08 1.55 1.55 0 0 1-.58-.1 1.46 1.46 0 0 1-.44-.27l.13-.21.06-.06h.08a.2.2 0 0 1 .12 0l.15.09.21.09a1 1 0 0 0 .31 0 .83.83 0 0 0 .27 0 .58.58 0 0 0 .2-.11.44.44 0 0 0 .12-.16.49.49 0 0 0 0-.19.32.32 0 0 0-.07-.21.56.56 0 0 0-.18-.14l-.25-.1-.29-.09-.29-.11a1 1 0 0 1-.25-.16.7.7 0 0 1-.18-.23.75.75 0 0 1-.07-.33.82.82 0 0 1 .28-.62 1 1 0 0 1 .34-.19 1.35 1.35 0 0 1 .46-.07 1.46 1.46 0 0 1 .54.1 1.28 1.28 0 0 1 .42.26zM194.35 15.6a1.57 1.57 0 0 1 .6.11 1.3 1.3 0 0 1 .46.32 1.41 1.41 0 0 1 .29.5 2.16 2.16 0 0 1 0 1.3 1.41 1.41 0 0 1-.29.49 1.27 1.27 0 0 1-.46.32 1.72 1.72 0 0 1-1.21 0 1.26 1.26 0 0 1-.46-.32 1.41 1.41 0 0 1-.29-.49 2.16 2.16 0 0 1 0-1.3 1.41 1.41 0 0 1 .29-.5 1.29 1.29 0 0 1 .46-.32 1.58 1.58 0 0 1 .61-.11zm0 2.73A.79.79 0 0 0 195 18a1.41 1.41 0 0 0 .22-.85 1.42 1.42 0 0 0-.22-.85.78.78 0 0 0-.68-.3.94.94 0 0 0-.4.08.73.73 0 0 0-.28.23 1 1 0 0 0-.17.36 2 2 0 0 0-.06.49 1.39 1.39 0 0 0 .23.85.79.79 0 0 0 .71.32zM197 15.64v2a.82.82 0 0 0 .16.54.6.6 0 0 0 .48.19.93.93 0 0 0 .44-.11 1.37 1.37 0 0 0 .38-.31v-2.31h.54v3.06h-.32a.14.14 0 0 1-.14-.11v-.33a1.69 1.69 0 0 1-.45.35 1.17 1.17 0 0 1-.57.13 1.1 1.1 0 0 1-.44-.08.86.86 0 0 1-.32-.23 1 1 0 0 1-.2-.37 1.64 1.64 0 0 1-.06-.47v-2zM199.85 18.7v-3.06h.31a.17.17 0 0 1 .12 0 .21.21 0 0 1 0 .11v.46a1.38 1.38 0 0 1 .36-.49.79.79 0 0 1 .52-.18h.19a.5.5 0 0 1 .16.07v.4a.09.09 0 0 1-.09.08h-.3a.72.72 0 0 0-.26 0 .61.61 0 0 0-.2.13.86.86 0 0 0-.16.2 1.76 1.76 0 0 0-.13.28v2zM204.05 16.19v.05h-.07a.18.18 0 0 1-.1 0l-.13-.08-.2-.08a1.05 1.05 0 0 0-.68 0 .76.76 0 0 0-.29.23 1.06 1.06 0 0 0-.18.37 1.83 1.83 0 0 0-.06.48 1.76 1.76 0 0 0 .06.49 1 1 0 0 0 .18.36.78.78 0 0 0 .28.22.87.87 0 0 0 .37.08 1 1 0 0 0 .32 0 1 1 0 0 0 .21-.1l.14-.1a.17.17 0 0 1 .11 0 .12.12 0 0 1 .1.05l.15.2a1 1 0 0 1-.23.21 1.35 1.35 0 0 1-.27.15 1.41 1.41 0 0 1-.31.09h-.33a1.33 1.33 0 0 1-.53-.11 1.22 1.22 0 0 1-.43-.31 1.44 1.44 0 0 1-.28-.49 2.18 2.18 0 0 1 0-1.3 1.45 1.45 0 0 1 .28-.5 1.27 1.27 0 0 1 .45-.33 1.51 1.51 0 0 1 .61-.12 1.45 1.45 0 0 1 .57.1 1.38 1.38 0 0 1 .44.29zM206 15.6a1.37 1.37 0 0 1 .51.09 1.15 1.15 0 0 1 .41.27 1.22 1.22 0 0 1 .27.43 1.63 1.63 0 0 1 .1.58.35.35 0 0 1 0 .17.11.11 0 0 1-.1 0h-2a1.66 1.66 0 0 0 .08.5 1 1 0 0 0 .2.36.79.79 0 0 0 .3.21 1 1 0 0 0 .39.07 1.15 1.15 0 0 0 .35 0l.25-.1.18-.1a.23.23 0 0 1 .12 0 .12.12 0 0 1 .1.05l.15.2a1 1 0 0 1-.24.21 1.45 1.45 0 0 1-.3.15 1.94 1.94 0 0 1-.33.09h-.34a1.56 1.56 0 0 1-.58-.11 1.3 1.3 0 0 1-.46-.31 1.45 1.45 0 0 1-.3-.51 2.08 2.08 0 0 1-.11-.7 1.78 1.78 0 0 1 .1-.6A1.41 1.41 0 0 1 205 16a1.31 1.31 0 0 1 .45-.32 1.48 1.48 0 0 1 .55-.08zm0 .4a.83.83 0 0 0-.61.23 1.06 1.06 0 0 0-.28.62h1.67a1.06 1.06 0 0 0-.05-.34.77.77 0 0 0-.15-.27.69.69 0 0 0-.25-.17.83.83 0 0 0-.33-.07zM209.72 16.15a.12.12 0 0 1-.11.07.21.21 0 0 1-.1 0l-.14-.07-.2-.08a.94.94 0 0 0-.27 0 .8.8 0 0 0-.25 0 .6.6 0 0 0-.19.09.43.43 0 0 0-.12.14.38.38 0 0 0 0 .17.29.29 0 0 0 .07.2.61.61 0 0 0 .18.14l.25.1.29.09.29.11a1.05 1.05 0 0 1 .25.15.66.66 0 0 1 .25.54 1 1 0 0 1-.08.39.84.84 0 0 1-.22.31 1.07 1.07 0 0 1-.36.21 1.48 1.48 0 0 1-.5.08 1.55 1.55 0 0 1-.58-.1 1.46 1.46 0 0 1-.44-.27l.13-.21.06-.06h.08a.2.2 0 0 1 .12 0l.15.09.21.09a1 1 0 0 0 .31 0 .83.83 0 0 0 .27 0 .58.58 0 0 0 .2-.11.44.44 0 0 0 .12-.16.49.49 0 0 0 0-.19.32.32 0 0 0-.07-.21.56.56 0 0 0-.18-.14l-.25-.1-.29-.09-.29-.11A1 1 0 0 1 208 17a.7.7 0 0 1-.18-.23.75.75 0 0 1-.07-.33.82.82 0 0 1 .28-.62 1 1 0 0 1 .34-.19 1.35 1.35 0 0 1 .46-.07 1.46 1.46 0 0 1 .54.1 1.28 1.28 0 0 1 .42.26zM137.11 28v-4.37h1.38a2.66 2.66 0 0 1 .69.08 1.34 1.34 0 0 1 .47.22.87.87 0 0 1 .27.35 1.21 1.21 0 0 1 .09.47 1 1 0 0 1 0 .31.91.91 0 0 1-.15.27 1 1 0 0 1-.25.23 1.4 1.4 0 0 1-.36.16 1.33 1.33 0 0 1 .71.34.89.89 0 0 1 .24.65 1.22 1.22 0 0 1-.1.5 1.08 1.08 0 0 1-.3.39 1.38 1.38 0 0 1-.48.25 2.15 2.15 0 0 1-.65.09zm.58-2.39h.77a1.49 1.49 0 0 0 .43-.05.86.86 0 0 0 .3-.15.59.59 0 0 0 .18-.23.77.77 0 0 0 .06-.3.67.67 0 0 0-.23-.56 1.17 1.17 0 0 0-.71-.18h-.8zm0 .42v1.51h.94a1.44 1.44 0 0 0 .43-.06.8.8 0 0 0 .3-.16.63.63 0 0 0 .17-.25.86.86 0 0 0 .05-.32.65.65 0 0 0-.24-.53 1.11 1.11 0 0 0-.72-.19zM142.78 28a.24.24 0 0 1-.12 0 .17.17 0 0 1-.07-.1l-.06-.29-.24.19a1.4 1.4 0 0 1-.24.14 1.32 1.32 0 0 1-.27.09 1.46 1.46 0 0 1-.32 0 1.1 1.1 0 0 1-.33 0 .77.77 0 0 1-.27-.15.72.72 0 0 1-.18-.25.89.89 0 0 1-.07-.36.67.67 0 0 1 .1-.35.87.87 0 0 1 .32-.3 2.08 2.08 0 0 1 .58-.21 4.47 4.47 0 0 1 .88-.1V26a.82.82 0 0 0-.15-.54.56.56 0 0 0-.45-.18 1 1 0 0 0-.33 0 1.26 1.26 0 0 0-.23.11l-.17.11a.24.24 0 0 1-.14 0 .16.16 0 0 1-.09 0l-.07-.07-.1-.17a1.75 1.75 0 0 1 .55-.37 1.69 1.69 0 0 1 .65-.12 1.15 1.15 0 0 1 .46.08.93.93 0 0 1 .33.24 1 1 0 0 1 .21.37 1.5 1.5 0 0 1 .04.54v2zm-1.15-.33a1.12 1.12 0 0 0 .26 0l.22-.08a1.11 1.11 0 0 0 .2-.13l.19-.17v-.63a4.43 4.43 0 0 0-.63.06 1.84 1.84 0 0 0-.43.12.6.6 0 0 0-.24.18.39.39 0 0 0-.07.23.5.5 0 0 0 0 .21.38.38 0 0 0 .11.14.43.43 0 0 0 .16.08zM143.83 28v-3.11h.32a.13.13 0 0 1 .14.11v.33a1.7 1.7 0 0 1 .45-.36 1.16 1.16 0 0 1 .57-.14 1.12 1.12 0 0 1 .44.08.86.86 0 0 1 .32.24 1 1 0 0 1 .2.37 1.6 1.6 0 0 1 .07.47V28h-.54v-2a.82.82 0 0 0-.16-.54.59.59 0 0 0-.48-.19.91.91 0 0 0-.45.12 1.42 1.42 0 0 0-.38.31V28zM147.74 23.51v2.62H147.98a.24.24 0 0 0 .09-.07l1-1 .09-.08a.24.24 0 0 1 .13 0h.49l-1.13 1.2a.67.67 0 0 1-.17.16l.1.08.08.11 1.2 1.51h-.6a.2.2 0 0 1-.09-.08l-1-1.25a.24.24 0 0 0-.09-.08h-.28V28h-.54v-4.49zM150.95 23.93a.33.33 0 0 1 0 .15.44.44 0 0 1-.08.12.4.4 0 0 1-.12.08.39.39 0 0 1-.15 0 .36.36 0 0 1-.15 0 .38.38 0 0 1-.12-.08.43.43 0 0 1-.08-.12.36.36 0 0 1 0-.15.39.39 0 0 1 0-.15.42.42 0 0 1 .08-.12.38.38 0 0 1 .12-.08.36.36 0 0 1 .15 0 .38.38 0 0 1 .27.11.42.42 0 0 1 .08.12.35.35 0 0 1 0 .12zm-.11 1V28h-.54v-3.11zM151.72 28v-3.11h.28a.13.13 0 0 1 .14.11v.33a1.7 1.7 0 0 1 .45-.36 1.16 1.16 0 0 1 .57-.14 1.12 1.12 0 0 1 .44.08.86.86 0 0 1 .32.24 1 1 0 0 1 .2.37 1.6 1.6 0 0 1 .07.47V28h-.54v-2a.82.82 0 0 0-.16-.54.59.59 0 0 0-.48-.19.91.91 0 0 0-.45.12 1.42 1.42 0 0 0-.38.31V28zM156.15 24.84a1.49 1.49 0 0 1 .37 0 1.17 1.17 0 0 1 .31.13h.83v.2c0 .07 0 .11-.13.13h-.35a1 1 0 0 1-.22 1.16 1.07 1.07 0 0 1-.36.2 1.48 1.48 0 0 1-.46.07 1.56 1.56 0 0 1-.41-.05.51.51 0 0 0-.15.13.24.24 0 0 0 0 .14.18.18 0 0 0 .09.17.65.65 0 0 0 .23.08H156.99a1.14 1.14 0 0 1 .33.11.62.62 0 0 1 .23.21.61.61 0 0 1 .09.34.81.81 0 0 1-.1.38 1 1 0 0 1-.28.33 1.46 1.46 0 0 1-.45.23 2 2 0 0 1-.6.09 2.32 2.32 0 0 1-.59-.07 1.37 1.37 0 0 1-.42-.18.77.77 0 0 1-.25-.26.61.61 0 0 1-.08-.31.55.55 0 0 1 .14-.38 1 1 0 0 1 .39-.25.55.55 0 0 1-.21-.16.48.48 0 0 1-.05-.41.58.58 0 0 1 .07-.14l.12-.13a.82.82 0 0 1 .17-.11.94.94 0 0 1-.35-.34.93.93 0 0 1-.13-.49.94.94 0 0 1 .09-.41.91.91 0 0 1 .24-.31 1.1 1.1 0 0 1 .37-.2 1.51 1.51 0 0 1 .43.1zm1 3.28a.26.26 0 0 0-.06-.18.42.42 0 0 0-.17-.11 1.14 1.14 0 0 0-.25-.06H155.74a.86.86 0 0 0-.28.2.4.4 0 0 0-.11.28.37.37 0 0 0 .05.19.45.45 0 0 0 .16.15 1 1 0 0 0 .27.1 1.8 1.8 0 0 0 .39 0 1.75 1.75 0 0 0 .39 0 1 1 0 0 0 .29-.11.55.55 0 0 0 .18-.17.41.41 0 0 0 .04-.29zm-1-1.66a.84.84 0 0 0 .29 0 .6.6 0 0 0 .21-.13.53.53 0 0 0 .13-.2.72.72 0 0 0 0-.25.59.59 0 0 0-.17-.45.68.68 0 0 0-.49-.17.69.69 0 0 0-.5.17.6.6 0 0 0-.17.45.68.68 0 0 0 0 .25.52.52 0 0 0 .13.2.6.6 0 0 0 .21.13.84.84 0 0 0 .36 0zM161.36 23.58a1.19 1.19 0 0 1 .43.08 1.11 1.11 0 0 1 .34.2 1 1 0 0 1 .22.29.92.92 0 0 1 .1.35l-.34.07c-.07 0-.12 0-.15-.09a.73.73 0 0 0-.07-.16.64.64 0 0 0-.12-.15.59.59 0 0 0-.42-.16.74.74 0 0 0-.27 0 .59.59 0 0 0-.34.34.68.68 0 0 0 0 .25.81.81 0 0 0 0 .2.85.85 0 0 0 .08.2 1.3 1.3 0 0 0 .13.2l.2.22 1.24 1.26a2.14 2.14 0 0 0 .18-.43 2.36 2.36 0 0 0 .09-.44.15.15 0 0 1 0-.09.11.11 0 0 1 .08 0h.33a2.28 2.28 0 0 1-.11.68 2.47 2.47 0 0 1-.3.63l.91.92h-.66a.35.35 0 0 1-.12-.09l-.44-.44a2.2 2.2 0 0 1-.65.43 2 2 0 0 1-.81.16 1.4 1.4 0 0 1-.47-.08 1.32 1.32 0 0 1-.42-.24 1.19 1.19 0 0 1-.3-.38 1.18 1.18 0 0 1 0-.9 1.28 1.28 0 0 1 .2-.35 1.49 1.49 0 0 1 .3-.29 2 2 0 0 1 .38-.22 1.75 1.75 0 0 1-.27-.45 1.24 1.24 0 0 1-.09-.46 1.06 1.06 0 0 1 .08-.41 1 1 0 0 1 .23-.34 1.1 1.1 0 0 1 .37-.23 1.35 1.35 0 0 1 .46-.08zm-.36 4a1.44 1.44 0 0 0 .61-.12 1.64 1.64 0 0 0 .47-.33l-1.28-1.29a1.3 1.3 0 0 0-.48.41.92.92 0 0 0-.16.52.77.77 0 0 0 .26.6.81.81 0 0 0 .27.16.93.93 0 0 0 .31.03zM168.41 23.63v.48h-2.08v1.51h1.78v.48h-1.78V28h-.58v-4.37zM169.71 23.93a.33.33 0 0 1 0 .15.44.44 0 0 1-.08.12.4.4 0 0 1-.12.08.39.39 0 0 1-.15 0 .36.36 0 0 1-.15 0 .38.38 0 0 1-.12-.08.43.43 0 0 1-.08-.12.36.36 0 0 1 0-.15.39.39 0 0 1 0-.15.42.42 0 0 1 .08-.12.38.38 0 0 1 .12-.08.36.36 0 0 1 .15 0 .38.38 0 0 1 .27.11.42.42 0 0 1 .08.12.35.35 0 0 1 0 .12zm-.11 1V28h-.54v-3.11zM170.48 28v-3.11h.32a.13.13 0 0 1 .14.11v.33a1.7 1.7 0 0 1 .45-.36 1.16 1.16 0 0 1 .57-.14 1.12 1.12 0 0 1 .44.08.86.86 0 0 1 .32.24 1 1 0 0 1 .2.37 1.6 1.6 0 0 1 .08.48v2h-.54v-2a.82.82 0 0 0-.16-.54.59.59 0 0 0-.48-.19.91.91 0 0 0-.45.12 1.42 1.42 0 0 0-.38.31V28zM175.79 28a.24.24 0 0 1-.12 0 .17.17 0 0 1-.07-.1l-.06-.29-.24.19a1.4 1.4 0 0 1-.24.14 1.32 1.32 0 0 1-.27.09 1.46 1.46 0 0 1-.32 0 1.1 1.1 0 0 1-.33 0 .77.77 0 0 1-.27-.15.72.72 0 0 1-.18-.25.89.89 0 0 1-.07-.36.67.67 0 0 1 .1-.35.87.87 0 0 1 .32-.3 2.08 2.08 0 0 1 .58-.21 4.47 4.47 0 0 1 .88-.1V26a.82.82 0 0 0-.15-.54.56.56 0 0 0-.45-.18 1 1 0 0 0-.33 0 1.26 1.26 0 0 0-.23.11l-.17.11a.24.24 0 0 1-.14 0 .16.16 0 0 1-.09 0l-.07-.07-.1-.17a1.75 1.75 0 0 1 .55-.37 1.69 1.69 0 0 1 .65-.12 1.15 1.15 0 0 1 .46.08.93.93 0 0 1 .33.24 1 1 0 0 1 .21.37 1.5 1.5 0 0 1 .03.54v2zm-1.15-.33a1.12 1.12 0 0 0 .26 0l.22-.08a1.11 1.11 0 0 0 .2-.13l.19-.17v-.63a4.43 4.43 0 0 0-.63.06 1.84 1.84 0 0 0-.43.12.6.6 0 0 0-.24.18.39.39 0 0 0-.07.23.5.5 0 0 0 0 .21.38.38 0 0 0 .11.14.43.43 0 0 0 .16.08zM176.85 28v-3.11h.32a.13.13 0 0 1 .14.11v.33a1.7 1.7 0 0 1 .45-.36 1.16 1.16 0 0 1 .57-.14 1.12 1.12 0 0 1 .44.08.86.86 0 0 1 .32.24 1 1 0 0 1 .2.37 1.6 1.6 0 0 1 .07.47V28h-.54v-2a.82.82 0 0 0-.16-.54.59.59 0 0 0-.48-.19.91.91 0 0 0-.45.12 1.42 1.42 0 0 0-.38.31V28zM182.34 25.44v.05h-.07a.18.18 0 0 1-.1 0l-.13-.08-.2-.08a1.05 1.05 0 0 0-.68 0 .76.76 0 0 0-.29.23 1.06 1.06 0 0 0-.18.37 1.83 1.83 0 0 0-.06.48 1.76 1.76 0 0 0 .06.49 1 1 0 0 0 .18.36.78.78 0 0 0 .28.22.87.87 0 0 0 .37.08 1 1 0 0 0 .32 0 1 1 0 0 0 .21-.1l.14-.1a.17.17 0 0 1 .11 0 .12.12 0 0 1 .1.05l.15.2a1 1 0 0 1-.23.21 1.35 1.35 0 0 1-.27.15 1.41 1.41 0 0 1-.31.09h-.33a1.33 1.33 0 0 1-.53-.11 1.22 1.22 0 0 1-.43-.31 1.44 1.44 0 0 1-.28-.49 2.18 2.18 0 0 1 0-1.3 1.45 1.45 0 0 1 .28-.5 1.27 1.27 0 0 1 .45-.33 1.51 1.51 0 0 1 .61-.12 1.45 1.45 0 0 1 .57.1 1.38 1.38 0 0 1 .44.29zM184.29 24.85a1.37 1.37 0 0 1 .51.09 1.15 1.15 0 0 1 .41.27 1.22 1.22 0 0 1 .27.43 1.63 1.63 0 0 1 .1.58.35.35 0 0 1 0 .17.11.11 0 0 1-.1 0h-2a1.66 1.66 0 0 0 .08.5 1 1 0 0 0 .2.36.79.79 0 0 0 .3.21 1 1 0 0 0 .39.07 1.15 1.15 0 0 0 .35 0l.25-.1.18-.1a.23.23 0 0 1 .12 0 .12.12 0 0 1 .1.05l.15.2a1 1 0 0 1-.24.21 1.45 1.45 0 0 1-.3.15 1.94 1.94 0 0 1-.33.09h-.34a1.56 1.56 0 0 1-.58-.11 1.3 1.3 0 0 1-.46-.31 1.45 1.45 0 0 1-.3-.51 2.08 2.08 0 0 1-.11-.7 1.78 1.78 0 0 1 .1-.6 1.41 1.41 0 0 1 .28-.48 1.31 1.31 0 0 1 .45-.32 1.48 1.48 0 0 1 .52-.15zm0 .4a.83.83 0 0 0-.61.23 1.06 1.06 0 0 0-.28.62h1.67a1.06 1.06 0 0 0-.05-.34.77.77 0 0 0-.15-.27.69.69 0 0 0-.25-.17.83.83 0 0 0-.31-.08zM139.77 32.88v.48h-2.08v1.44h1.68v.46h-1.68v1.48h2.08v.48h-2.67v-4.34zM142.55 37.2a.14.14 0 0 1-.14-.11v-.37a1.59 1.59 0 0 1-.45.38 1.15 1.15 0 0 1-.58.14 1.11 1.11 0 0 1-.48-.1 1 1 0 0 1-.37-.3 1.43 1.43 0 0 1-.23-.49 2.55 2.55 0 0 1-.08-.67 2.11 2.11 0 0 1 .09-.63 1.54 1.54 0 0 1 .26-.51 1.22 1.22 0 0 1 .42-.34 1.23 1.23 0 0 1 .55-.12 1.12 1.12 0 0 1 .48.1 1.15 1.15 0 0 1 .36.27v-1.7h.54v4.45zm-1-.39a.87.87 0 0 0 .46-.12 1.34 1.34 0 0 0 .36-.34v-1.48a.9.9 0 0 0-.33-.28.93.93 0 0 0-.39-.08.77.77 0 0 0-.66.3 1.43 1.43 0 0 0-.23.87 2.21 2.21 0 0 0 .05.51 1 1 0 0 0 .15.35.59.59 0 0 0 .24.2.8.8 0 0 0 .3.07zM144.23 34.14v2a.82.82 0 0 0 .16.54.6.6 0 0 0 .48.19.93.93 0 0 0 .44-.11 1.37 1.37 0 0 0 .38-.31v-2.31h.54v3.06h-.32a.14.14 0 0 1-.14-.11v-.33a1.69 1.69 0 0 1-.45.35 1.17 1.17 0 0 1-.57.13 1.1 1.1 0 0 1-.44-.08.86.86 0 0 1-.32-.23 1 1 0 0 1-.2-.37 1.64 1.64 0 0 1-.06-.47v-2zM149.21 34.69v.05h-.07a.18.18 0 0 1-.1 0l-.13-.08-.2-.08a1.05 1.05 0 0 0-.68 0 .76.76 0 0 0-.29.23 1.06 1.06 0 0 0-.18.37 1.83 1.83 0 0 0-.06.48 1.76 1.76 0 0 0 .06.49 1 1 0 0 0 .18.36.78.78 0 0 0 .28.22.87.87 0 0 0 .37.08 1 1 0 0 0 .32 0 1 1 0 0 0 .21-.1l.14-.1a.17.17 0 0 1 .11 0 .12.12 0 0 1 .1.05l.15.2a1 1 0 0 1-.23.21 1.35 1.35 0 0 1-.27.15 1.41 1.41 0 0 1-.31.09h-.33a1.33 1.33 0 0 1-.53-.11 1.22 1.22 0 0 1-.43-.31 1.44 1.44 0 0 1-.28-.49 2.18 2.18 0 0 1 0-1.3 1.45 1.45 0 0 1 .28-.5 1.27 1.27 0 0 1 .45-.33 1.51 1.51 0 0 1 .61-.12 1.45 1.45 0 0 1 .57.1 1.38 1.38 0 0 1 .44.29zM151.91 37.2a.24.24 0 0 1-.12 0 .17.17 0 0 1-.07-.1l-.06-.29-.24.19a1.4 1.4 0 0 1-.24.14 1.32 1.32 0 0 1-.27.09 1.46 1.46 0 0 1-.32 0 1.1 1.1 0 0 1-.33 0A.77.77 0 0 1 150 37a.72.72 0 0 1-.18-.25.89.89 0 0 1-.07-.36.67.67 0 0 1 .1-.35.87.87 0 0 1 .32-.3 2.08 2.08 0 0 1 .58-.21 4.47 4.47 0 0 1 .88-.1v-.24a.82.82 0 0 0-.15-.54.56.56 0 0 0-.45-.18 1 1 0 0 0-.33 0 1.26 1.26 0 0 0-.23.11l-.17.11a.24.24 0 0 1-.14 0 .16.16 0 0 1-.09 0l-.07-.07-.1-.17a1.75 1.75 0 0 1 .55-.37 1.69 1.69 0 0 1 .65-.12 1.15 1.15 0 0 1 .46.08.93.93 0 0 1 .33.24 1 1 0 0 1 .21.37 1.5 1.5 0 0 1 .07.47v2zm-1.15-.33a1.12 1.12 0 0 0 .26 0l.22-.08a1.11 1.11 0 0 0 .2-.13l.19-.17v-.63a4.43 4.43 0 0 0-.63.06 1.84 1.84 0 0 0-.43.12.6.6 0 0 0-.24.18.39.39 0 0 0-.07.23.5.5 0 0 0 0 .21.38.38 0 0 0 .11.14.43.43 0 0 0 .16.08zM153.87 37.25a.74.74 0 0 1-.56-.2.81.81 0 0 1-.2-.58v-1.88h-.37a.12.12 0 0 1-.08 0 .11.11 0 0 1 0-.09v-.21l.5-.06.12-.95a.14.14 0 0 1 0-.07.12.12 0 0 1 .08 0h.27v.99h2.11v3h-.54v-2.61h-1.58v1.84a.39.39 0 0 0 .09.29.33.33 0 0 0 .24.09h.4a.09.09 0 0 1 .08.05l.16.26a1 1 0 0 1-.33.2 1.15 1.15 0 0 1-.39-.07zm2-4.09a.35.35 0 0 1 0 .15.4.4 0 0 1-.08.12.42.42 0 0 1-.12.08.38.38 0 0 1-.15 0 .36.36 0 0 1-.15 0 .4.4 0 0 1-.2-.2.36.36 0 0 1 0-.15.39.39 0 0 1 0-.15.41.41 0 0 1 .08-.12.36.36 0 0 1 .12-.08.35.35 0 0 1 .15 0 .36.36 0 0 1 .15 0 .39.39 0 0 1 .12.08.42.42 0 0 1 .08.12.38.38 0 0 1 .03.15zM157.94 34.09a1.57 1.57 0 0 1 .6.11 1.3 1.3 0 0 1 .46.32 1.41 1.41 0 0 1 .29.5 2.16 2.16 0 0 1 0 1.3 1.41 1.41 0 0 1-.29.49 1.27 1.27 0 0 1-.46.32 1.72 1.72 0 0 1-1.21 0 1.26 1.26 0 0 1-.46-.32 1.41 1.41 0 0 1-.29-.49 2.16 2.16 0 0 1 0-1.3 1.41 1.41 0 0 1 .29-.5 1.29 1.29 0 0 1 .46-.32 1.58 1.58 0 0 1 .61-.11zm0 2.73a.79.79 0 0 0 .68-.3 1.41 1.41 0 0 0 .22-.85 1.42 1.42 0 0 0-.22-.85.78.78 0 0 0-.68-.3.94.94 0 0 0-.4.08.73.73 0 0 0-.28.23 1 1 0 0 0-.17.36 2 2 0 0 0-.06.49 1.39 1.39 0 0 0 .23.85.79.79 0 0 0 .68.29zM160.07 37.2v-3.06h.32a.13.13 0 0 1 .14.11v.33a1.7 1.7 0 0 1 .45-.36 1.16 1.16 0 0 1 .57-.14 1.12 1.12 0 0 1 .44.08.86.86 0 0 1 .32.24 1 1 0 0 1 .2.37 1.6 1.6 0 0 1 .07.47v1.96h-.54v-1.95a.82.82 0 0 0-.16-.54.59.59 0 0 0-.48-.19.91.91 0 0 0-.45.12 1.42 1.42 0 0 0-.38.31v2.25zM137.69 46h1.87v.49h-2.45v-4.36h.58zM141.15 43.34a1.57 1.57 0 0 1 .6.11 1.3 1.3 0 0 1 .46.32 1.41 1.41 0 0 1 .29.5 2.16 2.16 0 0 1 0 1.3 1.41 1.41 0 0 1-.29.49 1.27 1.27 0 0 1-.46.32 1.72 1.72 0 0 1-1.21 0 1.26 1.26 0 0 1-.46-.32 1.41 1.41 0 0 1-.29-.49 2.16 2.16 0 0 1 0-1.3 1.41 1.41 0 0 1 .29-.5 1.29 1.29 0 0 1 .46-.32 1.58 1.58 0 0 1 .61-.11zm0 2.73a.79.79 0 0 0 .68-.3 1.41 1.41 0 0 0 .22-.85 1.42 1.42 0 0 0-.22-.85.78.78 0 0 0-.68-.3.94.94 0 0 0-.4.08.73.73 0 0 0-.28.23 1 1 0 0 0-.17.36 2 2 0 0 0-.06.49 1.39 1.39 0 0 0 .23.85.79.79 0 0 0 .68.29zM144.35 43.34a1.49 1.49 0 0 1 .37 0 1.17 1.17 0 0 1 .31.13h.83v.2c0 .07 0 .11-.13.13h-.35a1 1 0 0 1-.22 1.16 1.07 1.07 0 0 1-.36.2 1.48 1.48 0 0 1-.46.07 1.56 1.56 0 0 1-.41-.05.51.51 0 0 0-.15.13.24.24 0 0 0 0 .14.18.18 0 0 0 .09.17.65.65 0 0 0 .23.08H145.19a1.14 1.14 0 0 1 .33.11.62.62 0 0 1 .23.21.61.61 0 0 1 .09.34.81.81 0 0 1-.1.38 1 1 0 0 1-.28.33 1.46 1.46 0 0 1-.45.23 2 2 0 0 1-.6.09 2.32 2.32 0 0 1-.59-.07 1.37 1.37 0 0 1-.42-.18.77.77 0 0 1-.25-.26.61.61 0 0 1-.08-.31.55.55 0 0 1 .14-.38 1 1 0 0 1 .39-.25.55.55 0 0 1-.21-.16.48.48 0 0 1-.05-.41.58.58 0 0 1 .07-.14l.12-.13a.82.82 0 0 1 .17-.11.94.94 0 0 1-.35-.34.93.93 0 0 1-.13-.49.94.94 0 0 1 .09-.41.91.91 0 0 1 .24-.31 1.1 1.1 0 0 1 .37-.2 1.51 1.51 0 0 1 .43.1zm1 3.28a.26.26 0 0 0-.06-.18.42.42 0 0 0-.17-.11 1.14 1.14 0 0 0-.25-.06H143.94a.86.86 0 0 0-.28.2.4.4 0 0 0-.11.28.37.37 0 0 0 .05.19.45.45 0 0 0 .16.15 1 1 0 0 0 .27.1 1.8 1.8 0 0 0 .39 0 1.75 1.75 0 0 0 .39 0 1 1 0 0 0 .29-.11.54.54 0 0 0 .18-.17.41.41 0 0 0 .03-.29zm-1-1.66a.84.84 0 0 0 .29 0 .6.6 0 0 0 .21-.13.53.53 0 0 0 .13-.2.72.72 0 0 0 0-.25.59.59 0 0 0-.17-.45.68.68 0 0 0-.49-.17.69.69 0 0 0-.5.17.6.6 0 0 0-.17.45.68.68 0 0 0 0 .25.52.52 0 0 0 .13.2.6.6 0 0 0 .21.13.84.84 0 0 0 .36.04zM147.1 42.43a.33.33 0 0 1 0 .15.44.44 0 0 1-.08.12.4.4 0 0 1-.12.08.39.39 0 0 1-.15 0 .36.36 0 0 1-.15 0 .38.38 0 0 1-.12-.08.43.43 0 0 1-.08-.12.36.36 0 0 1 0-.15.39.39 0 0 1 0-.15.42.42 0 0 1 .08-.12.38.38 0 0 1 .12-.08.36.36 0 0 1 .15 0 .38.38 0 0 1 .27.11.42.42 0 0 1 .08.12.35.35 0 0 1 0 .12zm-.11 1v3.06h-.54v-3.1zM149.65 43.9a.12.12 0 0 1-.11.07.21.21 0 0 1-.1 0l-.14-.07-.2-.08a.94.94 0 0 0-.27 0 .8.8 0 0 0-.25 0 .6.6 0 0 0-.19.09.43.43 0 0 0-.12.14.38.38 0 0 0 0 .17.29.29 0 0 0 .07.2.61.61 0 0 0 .18.14l.25.1.29.09.29.11a1.05 1.05 0 0 1 .25.15.66.66 0 0 1 .25.54 1 1 0 0 1-.08.39.84.84 0 0 1-.22.31 1.07 1.07 0 0 1-.36.21 1.48 1.48 0 0 1-.5.08 1.55 1.55 0 0 1-.58-.1 1.46 1.46 0 0 1-.44-.27l.13-.21.06-.06h.08a.2.2 0 0 1 .12 0l.15.09.21.09a1 1 0 0 0 .31 0 .83.83 0 0 0 .27 0 .58.58 0 0 0 .2-.11.44.44 0 0 0 .12-.16.49.49 0 0 0 0-.19.32.32 0 0 0-.07-.21.56.56 0 0 0-.18-.14l-.25-.1-.29-.09-.29-.11a1 1 0 0 1-.25-.16.7.7 0 0 1-.18-.23.75.75 0 0 1-.07-.33.82.82 0 0 1 .28-.62 1 1 0 0 1 .34-.19 1.35 1.35 0 0 1 .46-.07 1.46 1.46 0 0 1 .54.1 1.28 1.28 0 0 1 .42.26zM151.42 46.5a.74.74 0 0 1-.56-.2.81.81 0 0 1-.2-.58v-1.88h-.37a.12.12 0 0 1-.08 0 .11.11 0 0 1 0-.09v-.21l.5-.06.12-.95a.14.14 0 0 1 0-.07.12.12 0 0 1 .08 0h.27v1.05h2.11v3h-.54v-2.67h-1.58v1.84a.39.39 0 0 0 .09.29.33.33 0 0 0 .24.09h.4a.09.09 0 0 1 .1-.06l.16.26a1 1 0 0 1-.33.2 1.15 1.15 0 0 1-.41.04zm2-4.09a.35.35 0 0 1 0 .15.4.4 0 0 1-.08.12.42.42 0 0 1-.12.08.38.38 0 0 1-.15 0 .36.36 0 0 1-.15 0 .4.4 0 0 1-.2-.2.36.36 0 0 1 0-.15.39.39 0 0 1 0-.15.41.41 0 0 1 .08-.12.36.36 0 0 1 .12-.08.35.35 0 0 1 .15 0 .36.36 0 0 1 .15 0 .39.39 0 0 1 .12.08.42.42 0 0 1 .08.12.38.38 0 0 1 .03.15zM156.33 43.94v.05h-.07a.18.18 0 0 1-.1 0l-.13-.08-.2-.08a1.05 1.05 0 0 0-.68 0 .76.76 0 0 0-.29.23 1.06 1.06 0 0 0-.18.37 1.83 1.83 0 0 0-.06.48 1.76 1.76 0 0 0 .06.49 1 1 0 0 0 .18.36.78.78 0 0 0 .28.22.87.87 0 0 0 .37.08 1 1 0 0 0 .32 0 1 1 0 0 0 .21-.1l.14-.1a.17.17 0 0 1 .11 0 .12.12 0 0 1 .1.05l.15.2a1 1 0 0 1-.23.21 1.35 1.35 0 0 1-.27.15 1.41 1.41 0 0 1-.31.09h-.33a1.33 1.33 0 0 1-.53-.11 1.22 1.22 0 0 1-.43-.31 1.44 1.44 0 0 1-.28-.49 2.18 2.18 0 0 1 0-1.3 1.45 1.45 0 0 1 .28-.5 1.27 1.27 0 0 1 .45-.33 1.51 1.51 0 0 1 .61-.12 1.45 1.45 0 0 1 .57.1 1.38 1.38 0 0 1 .44.29zM160.22 42.08a1.19 1.19 0 0 1 .43.08 1.11 1.11 0 0 1 .34.2 1 1 0 0 1 .22.29.92.92 0 0 1 .1.35l-.34.07c-.07 0-.12 0-.15-.09a.73.73 0 0 0-.07-.16.64.64 0 0 0-.12-.15.59.59 0 0 0-.42-.16.74.74 0 0 0-.27 0 .59.59 0 0 0-.34.34.68.68 0 0 0 0 .25.81.81 0 0 0 0 .2.85.85 0 0 0 .08.2 1.3 1.3 0 0 0 .13.2l.2.22 1.24 1.26a2.14 2.14 0 0 0 .18-.43 2.36 2.36 0 0 0 .09-.44.15.15 0 0 1 0-.09.11.11 0 0 1 .08 0h.4a2.28 2.28 0 0 1-.11.68 2.47 2.47 0 0 1-.3.63l.91.92h-.66a.35.35 0 0 1-.12-.09l-.44-.44a2.2 2.2 0 0 1-.65.43 2 2 0 0 1-.81.16 1.4 1.4 0 0 1-.47-.08 1.32 1.32 0 0 1-.42-.24 1.19 1.19 0 0 1-.3-.38 1.18 1.18 0 0 1 0-.9 1.28 1.28 0 0 1 .2-.35 1.49 1.49 0 0 1 .3-.29 2 2 0 0 1 .38-.22 1.75 1.75 0 0 1-.27-.45 1.24 1.24 0 0 1-.09-.46 1.06 1.06 0 0 1 .08-.41 1 1 0 0 1 .23-.34 1.1 1.1 0 0 1 .37-.23 1.35 1.35 0 0 1 .39-.08zm-.36 4a1.44 1.44 0 0 0 .61-.12 1.64 1.64 0 0 0 .47-.33l-1.28-1.29a1.3 1.3 0 0 0-.48.41.92.92 0 0 0-.16.52.77.77 0 0 0 .26.6.81.81 0 0 0 .27.16.93.93 0 0 0 .31.03zM168.35 44.29a2.44 2.44 0 0 1-.15.88 2 2 0 0 1-.43.68 1.93 1.93 0 0 1-.67.44 2.36 2.36 0 0 1-.87.16h-1.63v-4.32h1.61a2.36 2.36 0 0 1 .87.16 1.92 1.92 0 0 1 .67.44 2 2 0 0 1 .43.68 2.44 2.44 0 0 1 .17.88zm-.6 0a2.18 2.18 0 0 0-.11-.71 1.51 1.51 0 0 0-.31-.53 1.32 1.32 0 0 0-.48-.33 1.68 1.68 0 0 0-.63-.11h-1V46h1a1.66 1.66 0 0 0 .63-.12 1.32 1.32 0 0 0 .48-.33 1.48 1.48 0 0 0 .31-.53 2.17 2.17 0 0 0 .11-.73zM169.69 42.43a.33.33 0 0 1 0 .15.44.44 0 0 1-.08.12.4.4 0 0 1-.12.08.39.39 0 0 1-.15 0 .36.36 0 0 1-.15 0 .38.38 0 0 1-.12-.08.43.43 0 0 1-.08-.12.36.36 0 0 1 0-.15.39.39 0 0 1 0-.15.42.42 0 0 1 .08-.12.38.38 0 0 1 .12-.08.36.36 0 0 1 .15 0 .38.38 0 0 1 .27.11.42.42 0 0 1 .08.12.35.35 0 0 1 0 .12zm-.11 1v3.06H169v-3.1zM172.23 43.9a.12.12 0 0 1-.11.07.21.21 0 0 1-.1 0l-.14-.07-.2-.08a.94.94 0 0 0-.27 0 .8.8 0 0 0-.25 0 .6.6 0 0 0-.19.09.43.43 0 0 0-.12.14.38.38 0 0 0 0 .17.29.29 0 0 0 .07.2.61.61 0 0 0 .18.14l.25.1.29.09.29.11a1.05 1.05 0 0 1 .25.15.66.66 0 0 1 .25.54 1 1 0 0 1-.08.39.84.84 0 0 1-.22.31 1.07 1.07 0 0 1-.36.21 1.48 1.48 0 0 1-.5.08 1.55 1.55 0 0 1-.58-.1 1.46 1.46 0 0 1-.44-.27l.13-.21.06-.06h.08a.2.2 0 0 1 .12 0l.15.09.21.09a1 1 0 0 0 .31 0 .83.83 0 0 0 .27 0 .58.58 0 0 0 .2-.11.44.44 0 0 0 .12-.16.49.49 0 0 0 0-.19.32.32 0 0 0-.07-.21.56.56 0 0 0-.18-.14l-.25-.1-.29-.09-.29-.11a1 1 0 0 1-.25-.16.7.7 0 0 1-.18-.23.75.75 0 0 1-.07-.33.82.82 0 0 1 .28-.62 1 1 0 0 1 .34-.19 1.35 1.35 0 0 1 .46-.07 1.46 1.46 0 0 1 .54.1 1.28 1.28 0 0 1 .42.26zM174 46.5a.74.74 0 0 1-.56-.2.81.81 0 0 1-.2-.58v-1.88h-.37a.12.12 0 0 1-.08 0 .11.11 0 0 1 0-.09v-.21l.5-.06.12-.95a.14.14 0 0 1 0-.07.12.12 0 0 1 .08 0h.27v1.05h.88v.39h-.88v1.84a.39.39 0 0 0 .09.29.33.33 0 0 0 .24.09h.4a.09.09 0 0 1 .08.05l.16.26a1 1 0 0 1-.33.2 1.15 1.15 0 0 1-.4-.13zM175.23 46.45v-3.06h.31a.17.17 0 0 1 .12 0 .21.21 0 0 1 0 .11v.46a1.38 1.38 0 0 1 .36-.49.79.79 0 0 1 .52-.18h.19a.5.5 0 0 1 .16.07v.4a.09.09 0 0 1-.09.08h-.3a.72.72 0 0 0-.26 0 .61.61 0 0 0-.2.13.86.86 0 0 0-.16.2 1.76 1.76 0 0 0-.13.28v1.93zM178.11 42.43a.33.33 0 0 1 0 .15.44.44 0 0 1-.08.12.4.4 0 0 1-.12.08.39.39 0 0 1-.15 0 .36.36 0 0 1-.15 0 .38.38 0 0 1-.12-.08.43.43 0 0 1-.08-.12.36.36 0 0 1 0-.15.39.39 0 0 1 0-.15.42.42 0 0 1 .08-.12.38.38 0 0 1 .12-.08.36.36 0 0 1 .15 0 .38.38 0 0 1 .27.11.42.42 0 0 1 .08.12.35.35 0 0 1 0 .12zm-.11 1v3.06h-.54v-3.1zM178.88 46.45V42h.54v1.83a1.52 1.52 0 0 1 .43-.36 1.17 1.17 0 0 1 .56-.13 1.12 1.12 0 0 1 .48.1 1 1 0 0 1 .37.3 1.38 1.38 0 0 1 .23.47 2.24 2.24 0 0 1 .08.63 2.36 2.36 0 0 1-.09.68 1.52 1.52 0 0 1-.26.52 1.18 1.18 0 0 1-.42.33 1.23 1.23 0 0 1-.55.12 1 1 0 0 1-.51-.11 1.1 1.1 0 0 1-.36-.32v.28a.13.13 0 0 1-.14.11zm1.36-2.68a.86.86 0 0 0-.46.12 1.29 1.29 0 0 0-.36.34v1.48a.86.86 0 0 0 .32.28.91.91 0 0 0 .39.08.78.78 0 0 0 .66-.3 1.5 1.5 0 0 0 .23-.91 1.35 1.35 0 0 0-.2-.83.69.69 0 0 0-.58-.26zM182.77 43.39v2a.82.82 0 0 0 .16.54.6.6 0 0 0 .48.19.93.93 0 0 0 .44-.11 1.37 1.37 0 0 0 .38-.31v-2.31h.54v3.06h-.32a.14.14 0 0 1-.14-.11v-.33a1.69 1.69 0 0 1-.45.35 1.17 1.17 0 0 1-.57.13 1.1 1.1 0 0 1-.44-.08.86.86 0 0 1-.32-.23 1 1 0 0 1-.2-.37 1.64 1.64 0 0 1-.06-.47v-2zM186.56 46.5a.74.74 0 0 1-.56-.2.81.81 0 0 1-.2-.58v-1.88h-.37a.12.12 0 0 1-.08 0 .11.11 0 0 1 0-.09v-.21l.5-.06.12-.95a.14.14 0 0 1 0-.07.12.12 0 0 1 .08 0h.27v1.05h2.11v3h-.54v-2.67h-1.58v1.84a.39.39 0 0 0 .09.29.33.33 0 0 0 .24.09h.4a.09.09 0 0 1 .08.05l.16.26a1 1 0 0 1-.33.2 1.15 1.15 0 0 1-.39-.07zm2-4.09a.35.35 0 0 1 0 .15.4.4 0 0 1-.08.12.42.42 0 0 1-.12.08.38.38 0 0 1-.15 0 .36.36 0 0 1-.15 0 .4.4 0 0 1-.2-.2.36.36 0 0 1 0-.15.39.39 0 0 1 0-.15.41.41 0 0 1 .08-.12.36.36 0 0 1 .12-.08.35.35 0 0 1 .15 0 .36.36 0 0 1 .15 0 .39.39 0 0 1 .12.08.42.42 0 0 1 .08.12.38.38 0 0 1 .03.15zM190.63 43.34a1.57 1.57 0 0 1 .6.11 1.3 1.3 0 0 1 .46.32 1.41 1.41 0 0 1 .29.5 2.16 2.16 0 0 1 0 1.3 1.41 1.41 0 0 1-.29.49 1.27 1.27 0 0 1-.46.32 1.72 1.72 0 0 1-1.21 0 1.26 1.26 0 0 1-.46-.32 1.41 1.41 0 0 1-.29-.49 2.16 2.16 0 0 1 0-1.3 1.41 1.41 0 0 1 .29-.5 1.29 1.29 0 0 1 .46-.32 1.58 1.58 0 0 1 .61-.11zm0 2.73a.79.79 0 0 0 .68-.3 1.41 1.41 0 0 0 .22-.85 1.42 1.42 0 0 0-.22-.85.78.78 0 0 0-.68-.3.94.94 0 0 0-.4.08.73.73 0 0 0-.28.23 1 1 0 0 0-.17.36 2 2 0 0 0-.06.49 1.39 1.39 0 0 0 .23.85.79.79 0 0 0 .68.29zM192.77 46.45v-3.06h.32a.13.13 0 0 1 .14.11v.33a1.7 1.7 0 0 1 .45-.36 1.16 1.16 0 0 1 .57-.14 1.12 1.12 0 0 1 .44.08.86.86 0 0 1 .32.24 1 1 0 0 1 .2.37 1.6 1.6 0 0 1 .07.47v1.95h-.54V44.5a.82.82 0 0 0-.16-.54.59.59 0 0 0-.48-.19.91.91 0 0 0-.45.12 1.42 1.42 0 0 0-.38.31v2.25zM140 51.37v.49h-1.4v3.84h-.6v-3.83h-1.4v-.49zM141.06 52.59a1.37 1.37 0 0 1 .51.09 1.15 1.15 0 0 1 .43.32 1.22 1.22 0 0 1 .27.43 1.63 1.63 0 0 1 .1.58.35.35 0 0 1 0 .17.11.11 0 0 1-.1 0h-2a1.66 1.66 0 0 0 .08.5 1 1 0 0 0 .2.36.79.79 0 0 0 .3.21 1 1 0 0 0 .39.07 1.15 1.15 0 0 0 .35 0l.25-.1.18-.1a.23.23 0 0 1 .12 0 .12.12 0 0 1 .1.05l.15.2a1 1 0 0 1-.24.21 1.45 1.45 0 0 1-.3.15 1.94 1.94 0 0 1-.33.09h-.34a1.56 1.56 0 0 1-.58-.11 1.3 1.3 0 0 1-.46-.31 1.45 1.45 0 0 1-.3-.51 2.08 2.08 0 0 1-.11-.7 1.78 1.78 0 0 1 .1-.6A1.41 1.41 0 0 1 140 53a1.31 1.31 0 0 1 .45-.32 1.48 1.48 0 0 1 .61-.09zm0 .4a.83.83 0 0 0-.61.23 1.06 1.06 0 0 0-.28.62h1.67a1.06 1.06 0 0 0-.05-.34.77.77 0 0 0-.15-.27.69.69 0 0 0-.25-.17.83.83 0 0 0-.32-.06zM145.12 53.19v.05h-.07a.18.18 0 0 1-.1 0l-.13-.08-.2-.08a1.05 1.05 0 0 0-.68 0 .76.76 0 0 0-.29.23 1.06 1.06 0 0 0-.18.37 1.83 1.83 0 0 0-.06.48 1.76 1.76 0 0 0 .06.49 1 1 0 0 0 .18.36.78.78 0 0 0 .28.22.87.87 0 0 0 .37.08 1 1 0 0 0 .32 0 1 1 0 0 0 .21-.1l.14-.1a.17.17 0 0 1 .11 0 .12.12 0 0 1 .1.05l.15.2a1 1 0 0 1-.23.21 1.35 1.35 0 0 1-.27.15 1.41 1.41 0 0 1-.31.09h-.33a1.33 1.33 0 0 1-.53-.11 1.22 1.22 0 0 1-.43-.31 1.44 1.44 0 0 1-.28-.49 2.18 2.18 0 0 1 0-1.3 1.45 1.45 0 0 1 .28-.5 1.27 1.27 0 0 1 .45-.33 1.51 1.51 0 0 1 .61-.12 1.45 1.45 0 0 1 .57.1 1.38 1.38 0 0 1 .44.29zM145.88 55.7v-4.45h.54v1.8a1.64 1.64 0 0 1 .43-.33 1.16 1.16 0 0 1 .55-.13 1.12 1.12 0 0 1 .44.08.86.86 0 0 1 .32.24 1 1 0 0 1 .2.37 1.6 1.6 0 0 1 .07.47v1.95h-.54v-1.95a.82.82 0 0 0-.16-.54.59.59 0 0 0-.48-.19.91.91 0 0 0-.45.12 1.42 1.42 0 0 0-.38.31v2.25zM149.24 55.7v-3.06h.32a.13.13 0 0 1 .14.11v.33a1.7 1.7 0 0 1 .45-.36 1.16 1.16 0 0 1 .57-.14 1.12 1.12 0 0 1 .44.08.86.86 0 0 1 .32.24 1 1 0 0 1 .2.37 1.6 1.6 0 0 1 .07.47v1.96h-.54v-1.95a.82.82 0 0 0-.16-.54.59.59 0 0 0-.48-.19.91.91 0 0 0-.45.12 1.42 1.42 0 0 0-.38.31v2.25zM153.9 52.59a1.57 1.57 0 0 1 .6.11 1.3 1.3 0 0 1 .5.3 1.41 1.41 0 0 1 .29.5 2.16 2.16 0 0 1 0 1.3 1.41 1.41 0 0 1-.29.49 1.27 1.27 0 0 1-.46.32 1.72 1.72 0 0 1-1.21 0 1.26 1.26 0 0 1-.46-.32 1.41 1.41 0 0 1-.29-.49 2.16 2.16 0 0 1 0-1.3 1.41 1.41 0 0 1 .29-.5 1.29 1.29 0 0 1 .46-.32 1.58 1.58 0 0 1 .57-.09zm0 2.73a.79.79 0 0 0 .68-.3 1.41 1.41 0 0 0 .22-.85 1.42 1.42 0 0 0-.22-.85.78.78 0 0 0-.68-.3.94.94 0 0 0-.4.08.73.73 0 0 0-.28.23 1 1 0 0 0-.17.36 2 2 0 0 0-.06.49 1.39 1.39 0 0 0 .23.85.79.79 0 0 0 .68.29zM156.59 51.25v4.45h-.54v-4.45zM158.75 52.59a1.57 1.57 0 0 1 .6.11 1.3 1.3 0 0 1 .46.32 1.41 1.41 0 0 1 .29.5 2.16 2.16 0 0 1 0 1.3 1.41 1.41 0 0 1-.29.49 1.27 1.27 0 0 1-.46.32 1.72 1.72 0 0 1-1.21 0 1.26 1.26 0 0 1-.46-.32 1.41 1.41 0 0 1-.29-.49 2.16 2.16 0 0 1 0-1.3 1.41 1.41 0 0 1 .29-.5 1.29 1.29 0 0 1 .46-.32 1.58 1.58 0 0 1 .61-.11zm0 2.73a.79.79 0 0 0 .68-.3 1.41 1.41 0 0 0 .22-.85 1.42 1.42 0 0 0-.22-.85.78.78 0 0 0-.68-.3.94.94 0 0 0-.4.08.73.73 0 0 0-.28.23 1 1 0 0 0-.17.36 2 2 0 0 0-.06.49 1.39 1.39 0 0 0 .23.85.79.79 0 0 0 .68.29zM161.95 52.59a1.49 1.49 0 0 1 .37 0 1.17 1.17 0 0 1 .31.13h.83V53c0 .07 0 .11-.13.13h-.35a1 1 0 0 1-.22 1.16 1.07 1.07 0 0 1-.36.2 1.48 1.48 0 0 1-.46.07 1.56 1.56 0 0 1-.41-.05.51.51 0 0 0-.15.13.24.24 0 0 0 0 .14.18.18 0 0 0 .09.17.65.65 0 0 0 .23.08H162.79a1.14 1.14 0 0 1 .33.11.62.62 0 0 1 .23.21.61.61 0 0 1 .09.34.81.81 0 0 1-.1.38 1 1 0 0 1-.28.33 1.46 1.46 0 0 1-.45.23 2 2 0 0 1-.6.09 2.32 2.32 0 0 1-.59-.07 1.37 1.37 0 0 1-.42-.18.77.77 0 0 1-.25-.26.61.61 0 0 1-.08-.31.55.55 0 0 1 .14-.38 1 1 0 0 1 .39-.25.55.55 0 0 1-.21-.16.48.48 0 0 1-.05-.41.58.58 0 0 1 .07-.14l.12-.13a.82.82 0 0 1 .17-.11.94.94 0 0 1-.35-.34.93.93 0 0 1-.13-.49.94.94 0 0 1 .09-.41.91.91 0 0 1 .24-.31 1.1 1.1 0 0 1 .37-.2 1.51 1.51 0 0 1 .43.02zm1 3.28a.26.26 0 0 0-.06-.18.42.42 0 0 0-.17-.11 1.14 1.14 0 0 0-.25-.06H161.54a.86.86 0 0 0-.28.2.4.4 0 0 0-.11.28.37.37 0 0 0 .05.19.45.45 0 0 0 .16.15 1 1 0 0 0 .27.1 1.8 1.8 0 0 0 .39 0 1.75 1.75 0 0 0 .39 0 1 1 0 0 0 .29-.11.54.54 0 0 0 .18-.17.41.41 0 0 0 .04-.29zm-1-1.66a.84.84 0 0 0 .29 0 .6.6 0 0 0 .21-.13.53.53 0 0 0 .13-.2.72.72 0 0 0 0-.25.59.59 0 0 0-.17-.45.68.68 0 0 0-.49-.17.69.69 0 0 0-.5.17.6.6 0 0 0-.17.45.68.68 0 0 0 0 .25.52.52 0 0 0 .13.2.6.6 0 0 0 .21.13.84.84 0 0 0 .36 0zM165 56.6a.29.29 0 0 1-.07.1.18.18 0 0 1-.12 0h-.4l.56-1.21-1.26-2.88h.46a.17.17 0 0 1 .11 0 .18.18 0 0 1 .06.08l.82 1.93v.26c0-.09.06-.18.09-.27l.79-1.92a.17.17 0 0 1 .06-.08.17.17 0 0 1 .1 0h.43zM137.69 65h-.58v-4.38h.58zM138.62 65v-3.11h.32a.13.13 0 0 1 .14.11v.33a1.7 1.7 0 0 1 .45-.36 1.16 1.16 0 0 1 .57-.14 1.12 1.12 0 0 1 .44.08.86.86 0 0 1 .32.24 1 1 0 0 1 .2.37 1.6 1.6 0 0 1 .07.47V65h-.54v-2a.82.82 0 0 0-.16-.54.59.59 0 0 0-.48-.19.91.91 0 0 0-.45.12 1.42 1.42 0 0 0-.38.31V65zM144.2 65a.14.14 0 0 1-.14-.11v-.37a1.59 1.59 0 0 1-.45.38 1.15 1.15 0 0 1-.61.1 1.11 1.11 0 0 1-.48-.1 1 1 0 0 1-.37-.3 1.43 1.43 0 0 1-.23-.49 2.55 2.55 0 0 1-.08-.67 2.11 2.11 0 0 1 .09-.63 1.54 1.54 0 0 1 .26-.51 1.22 1.22 0 0 1 .42-.34 1.23 1.23 0 0 1 .55-.12 1.12 1.12 0 0 1 .48.1 1.15 1.15 0 0 1 .36.27V60.5h.54V65zm-1-.39a.87.87 0 0 0 .46-.12 1.34 1.34 0 0 0 .36-.34v-1.53a.9.9 0 0 0-.33-.28.93.93 0 0 0-.39-.08.77.77 0 0 0-.66.3 1.43 1.43 0 0 0-.23.87 2.21 2.21 0 0 0 .05.51 1 1 0 0 0 .15.35.59.59 0 0 0 .24.2.8.8 0 0 0 .31.07zM145.88 61.89v2a.82.82 0 0 0 .16.54.6.6 0 0 0 .48.19.93.93 0 0 0 .44-.11 1.37 1.37 0 0 0 .38-.31v-2.31h.54V65h-.32a.14.14 0 0 1-.14-.11v-.33a1.69 1.69 0 0 1-.45.35 1.17 1.17 0 0 1-.57.13 1.1 1.1 0 0 1-.44-.08.86.86 0 0 1-.32-.23 1 1 0 0 1-.2-.37 1.64 1.64 0 0 1-.06-.47v-2zM150.52 62.4a.12.12 0 0 1-.11.07.21.21 0 0 1-.1 0l-.14-.07-.2-.08a.94.94 0 0 0-.27 0 .8.8 0 0 0-.25 0 .6.6 0 0 0-.19.09.43.43 0 0 0-.12.14.38.38 0 0 0 0 .17.29.29 0 0 0 .07.2.61.61 0 0 0 .18.14l.25.1.29.09.29.11a1.05 1.05 0 0 1 .25.15.66.66 0 0 1 .25.54 1 1 0 0 1-.08.39.84.84 0 0 1-.22.31 1.07 1.07 0 0 1-.36.21 1.48 1.48 0 0 1-.5.08 1.55 1.55 0 0 1-.58-.1 1.46 1.46 0 0 1-.44-.27l.13-.21.06-.06h.08a.2.2 0 0 1 .12 0l.15.09.21.09a1 1 0 0 0 .31 0 .83.83 0 0 0 .27 0 .58.58 0 0 0 .2-.11.44.44 0 0 0 .12-.16.49.49 0 0 0 0-.19.32.32 0 0 0-.07-.21.56.56 0 0 0-.18-.14l-.25-.1-.29-.09-.29-.11a1 1 0 0 1-.25-.16.7.7 0 0 1-.18-.23.75.75 0 0 1-.07-.33.82.82 0 0 1 .28-.62 1 1 0 0 1 .34-.19 1.35 1.35 0 0 1 .46-.07 1.46 1.46 0 0 1 .54.1 1.28 1.28 0 0 1 .42.26zM152.29 65a.74.74 0 0 1-.56-.2.81.81 0 0 1-.2-.58v-1.88h-.37a.12.12 0 0 1-.08 0 .11.11 0 0 1 0-.09V62l.5-.06.12-.95a.14.14 0 0 1 0-.07.12.12 0 0 1 .08 0h.27V62h.95v.39h-.88v1.84a.39.39 0 0 0 .09.29.33.33 0 0 0 .24.09h.4a.09.09 0 0 1 .08.05l.16.26a1 1 0 0 1-.33.2 1.15 1.15 0 0 1-.47-.12zM153.52 65v-3.11h.31a.17.17 0 0 1 .12 0 .21.21 0 0 1 0 .11v.46a1.38 1.38 0 0 1 .36-.49.79.79 0 0 1 .52-.18h.19a.5.5 0 0 1 .16.07v.4a.09.09 0 0 1-.09.08h-.3a.72.72 0 0 0-.26 0 .61.61 0 0 0-.2.13.86.86 0 0 0-.16.2 1.76 1.76 0 0 0-.13.28V65zM156.4 60.93a.33.33 0 0 1 0 .15.44.44 0 0 1-.08.12.4.4 0 0 1-.12.08.39.39 0 0 1-.15 0 .36.36 0 0 1-.15 0 .38.38 0 0 1-.12-.08.43.43 0 0 1-.08-.12.36.36 0 0 1 0-.15.39.39 0 0 1 0-.15.42.42 0 0 1 .08-.12.38.38 0 0 1 .12-.08.36.36 0 0 1 .15 0 .38.38 0 0 1 .27.11.42.42 0 0 1 .08.12.35.35 0 0 1 0 .12zm-.11 1V65h-.54v-3.11zM159.11 65a.24.24 0 0 1-.12 0 .17.17 0 0 1-.07-.1l-.06-.29-.24.19a1.4 1.4 0 0 1-.24.14 1.32 1.32 0 0 1-.27.09 1.46 1.46 0 0 1-.32 0 1.1 1.1 0 0 1-.33 0 .77.77 0 0 1-.27-.15.72.72 0 0 1-.18-.25.89.89 0 0 1-.07-.36.67.67 0 0 1 .1-.35.87.87 0 0 1 .32-.3 2.08 2.08 0 0 1 .58-.21 4.47 4.47 0 0 1 .88-.1V63a.82.82 0 0 0-.15-.54.56.56 0 0 0-.45-.18 1 1 0 0 0-.33 0 1.26 1.26 0 0 0-.23.11l-.17.11a.24.24 0 0 1-.14 0 .16.16 0 0 1-.09 0l-.07-.07-.1-.17a1.75 1.75 0 0 1 .55-.37 1.69 1.69 0 0 1 .65-.12 1.15 1.15 0 0 1 .46.08.93.93 0 0 1 .33.24 1 1 0 0 1 .21.37 1.5 1.5 0 0 1 .07.47v2zm-1.11-.38a1.12 1.12 0 0 0 .26 0l.22-.08a1.11 1.11 0 0 0 .2-.13l.19-.17v-.63a4.43 4.43 0 0 0-.63.06 1.84 1.84 0 0 0-.43.12.6.6 0 0 0-.24.18.39.39 0 0 0-.07.23.5.5 0 0 0 0 .21.38.38 0 0 0 .11.14.43.43 0 0 0 .16.08zM160.72 60.5V65h-.54v-4.5zM163.37 62.4a.12.12 0 0 1-.11.07.21.21 0 0 1-.1 0l-.14-.07-.2-.08a.94.94 0 0 0-.27 0 .8.8 0 0 0-.25 0 .6.6 0 0 0-.19.09.43.43 0 0 0-.12.14.38.38 0 0 0 0 .17.29.29 0 0 0 .07.2.61.61 0 0 0 .18.14l.25.1.29.09.29.11a1.05 1.05 0 0 1 .25.15.66.66 0 0 1 .25.54 1 1 0 0 1-.08.39.84.84 0 0 1-.22.31 1.07 1.07 0 0 1-.36.21 1.48 1.48 0 0 1-.5.08 1.55 1.55 0 0 1-.58-.1 1.46 1.46 0 0 1-.44-.27l.13-.21.06-.06h.08a.2.2 0 0 1 .12 0l.15.09.21.09a1 1 0 0 0 .31 0 .83.83 0 0 0 .27 0 .58.58 0 0 0 .2-.11.44.44 0 0 0 .12-.16.49.49 0 0 0 0-.19.32.32 0 0 0-.07-.21.56.56 0 0 0-.18-.14l-.25-.1-.29-.09-.29-.11a1 1 0 0 1-.25-.16.7.7 0 0 1-.18-.23.75.75 0 0 1-.07-.33.82.82 0 0 1 .28-.62 1 1 0 0 1 .34-.19 1.35 1.35 0 0 1 .46-.07 1.46 1.46 0 0 1 .54.1 1.28 1.28 0 0 1 .42.26zM167.34 60.58a1.19 1.19 0 0 1 .43.08 1.11 1.11 0 0 1 .34.2 1 1 0 0 1 .22.29.92.92 0 0 1 .1.35l-.34.07c-.07 0-.12 0-.15-.09a.73.73 0 0 0-.07-.16.64.64 0 0 0-.12-.15.59.59 0 0 0-.42-.16.74.74 0 0 0-.27 0 .59.59 0 0 0-.34.34.68.68 0 0 0 0 .25.81.81 0 0 0 0 .2.85.85 0 0 0 .08.2 1.3 1.3 0 0 0 .13.2l.2.22 1.24 1.26a2.14 2.14 0 0 0 .18-.43 2.36 2.36 0 0 0 .09-.44.15.15 0 0 1 0-.09.11.11 0 0 1 .08 0h.33a2.28 2.28 0 0 1-.11.68 2.47 2.47 0 0 1-.3.63l.91.92H168.86a.35.35 0 0 1-.12-.09l-.44-.44a2.2 2.2 0 0 1-.65.43 2 2 0 0 1-.81.16 1.4 1.4 0 0 1-.47-.08 1.32 1.32 0 0 1-.42-.24 1.19 1.19 0 0 1-.3-.38 1.18 1.18 0 0 1 0-.9 1.28 1.28 0 0 1 .2-.35 1.49 1.49 0 0 1 .3-.29 2 2 0 0 1 .38-.22 1.75 1.75 0 0 1-.27-.45 1.24 1.24 0 0 1-.09-.46 1.06 1.06 0 0 1 .08-.41 1 1 0 0 1 .23-.34 1.1 1.1 0 0 1 .37-.23 1.35 1.35 0 0 1 .49-.08zm-.36 4a1.44 1.44 0 0 0 .61-.12 1.64 1.64 0 0 0 .47-.33l-1.28-1.29a1.3 1.3 0 0 0-.48.41.92.92 0 0 0-.16.52.77.77 0 0 0 .26.6.81.81 0 0 0 .27.16.93.93 0 0 0 .33.03zM173.92 63.54l.07.16.06-.16.07-.15 1.47-2.66a.16.16 0 0 1 .08-.08h.55V65h-.51v-3.23-.14-.15l-1.48 2.7a.22.22 0 0 1-.21.14h-.08a.23.23 0 0 1-.21-.14l-1.51-2.71V65h-.51v-4.38h.55a.18.18 0 0 1 .08.08l1.49 2.66zM179 65a.24.24 0 0 1-.12 0 .17.17 0 0 1-.07-.1l-.06-.29-.24.19a1.4 1.4 0 0 1-.24.14 1.32 1.32 0 0 1-.27.09 1.46 1.46 0 0 1-.32 0 1.1 1.1 0 0 1-.33 0 .77.77 0 0 1-.27-.15.72.72 0 0 1-.18-.25.89.89 0 0 1-.07-.36.67.67 0 0 1 .1-.35.87.87 0 0 1 .32-.3 2.08 2.08 0 0 1 .58-.21 4.47 4.47 0 0 1 .88-.1V63a.82.82 0 0 0-.15-.54.56.56 0 0 0-.45-.18 1 1 0 0 0-.33 0 1.26 1.26 0 0 0-.23.11l-.17.11a.24.24 0 0 1-.14 0 .16.16 0 0 1-.09 0l-.07-.07-.1-.17a1.75 1.75 0 0 1 .55-.37 1.69 1.69 0 0 1 .65-.12 1.15 1.15 0 0 1 .46.08.93.93 0 0 1 .33.24 1 1 0 0 1 .21.37 1.5 1.5 0 0 1 .07.47v2zm-1.15-.33a1.12 1.12 0 0 0 .26 0l.22-.08a1.11 1.11 0 0 0 .2-.13l.19-.17v-.63a4.43 4.43 0 0 0-.63.06 1.84 1.84 0 0 0-.43.12.6.6 0 0 0-.24.18.39.39 0 0 0-.07.23.5.5 0 0 0 0 .21.38.38 0 0 0 .11.14.43.43 0 0 0 .16.08zM180.11 65v-3.11h.32a.13.13 0 0 1 .14.11v.33a1.7 1.7 0 0 1 .45-.36 1.16 1.16 0 0 1 .57-.14 1.12 1.12 0 0 1 .44.08.86.86 0 0 1 .32.24 1 1 0 0 1 .2.37 1.6 1.6 0 0 1 .07.47V65h-.54v-2a.82.82 0 0 0-.16-.54.59.59 0 0 0-.48-.19.91.91 0 0 0-.45.12 1.42 1.42 0 0 0-.38.31V65zM184 61.89v2a.82.82 0 0 0 .16.54.6.6 0 0 0 .48.19.93.93 0 0 0 .44-.11 1.37 1.37 0 0 0 .38-.31v-2.31h.54V65h-.32a.14.14 0 0 1-.14-.11v-.33a1.69 1.69 0 0 1-.45.35 1.17 1.17 0 0 1-.57.13 1.1 1.1 0 0 1-.44-.08.86.86 0 0 1-.32-.23 1 1 0 0 1-.2-.37 1.64 1.64 0 0 1-.06-.47v-2zM187 65v-2.6H186.56a.11.11 0 0 1 0-.09V62h.44v-.3a1.35 1.35 0 0 1 .07-.47.94.94 0 0 1 .21-.34.89.89 0 0 1 .33-.21 1.24 1.24 0 0 1 .43-.07 1.12 1.12 0 0 1 .38.06v.27a.08.08 0 0 1-.08.08h-.2a.84.84 0 0 0-.25 0 .47.47 0 0 0-.19.12.54.54 0 0 0-.13.21 1.06 1.06 0 0 0 0 .33V62h.88v.39h-.86V65zM190.9 65a.24.24 0 0 1-.12 0 .17.17 0 0 1-.07-.1l-.06-.29-.24.19a1.4 1.4 0 0 1-.24.14 1.32 1.32 0 0 1-.27.09 1.46 1.46 0 0 1-.32 0 1.1 1.1 0 0 1-.33 0 .77.77 0 0 1-.27-.15.72.72 0 0 1-.18-.25.89.89 0 0 1-.07-.36.67.67 0 0 1 .1-.35.87.87 0 0 1 .32-.3 2.08 2.08 0 0 1 .58-.21 4.47 4.47 0 0 1 .88-.1V63a.82.82 0 0 0-.15-.54.56.56 0 0 0-.45-.18 1 1 0 0 0-.33 0 1.26 1.26 0 0 0-.23.11l-.17.11a.24.24 0 0 1-.14 0 .16.16 0 0 1-.09 0H189l-.1-.17a1.75 1.75 0 0 1 .55-.37 1.69 1.69 0 0 1 .65-.12 1.15 1.15 0 0 1 .46.08.93.93 0 0 1 .33.24 1 1 0 0 1 .21.37 1.5 1.5 0 0 1 .07.47v2zm-1.15-.33a1.12 1.12 0 0 0 .26 0l.22-.08a1.11 1.11 0 0 0 .2-.13l.19-.17v-.63a4.43 4.43 0 0 0-.63.06 1.84 1.84 0 0 0-.43.12.6.6 0 0 0-.24.18.39.39 0 0 0-.07.23.5.5 0 0 0 0 .21.38.38 0 0 0 .11.14.43.43 0 0 0 .16.08zM194.08 62.44v.05h-.07a.18.18 0 0 1-.1 0l-.13-.08-.2-.08a1.05 1.05 0 0 0-.68 0 .76.76 0 0 0-.29.23 1.06 1.06 0 0 0-.18.37 1.83 1.83 0 0 0-.06.48 1.76 1.76 0 0 0 .06.49 1 1 0 0 0 .18.36.78.78 0 0 0 .28.22.87.87 0 0 0 .37.08 1 1 0 0 0 .32 0 1 1 0 0 0 .21-.1l.14-.1a.17.17 0 0 1 .11 0 .12.12 0 0 1 .1.05l.15.2a1 1 0 0 1-.23.21 1.35 1.35 0 0 1-.27.15 1.41 1.41 0 0 1-.31.09h-.33a1.33 1.33 0 0 1-.53-.11 1.22 1.22 0 0 1-.43-.31 1.44 1.44 0 0 1-.28-.49 2.18 2.18 0 0 1 0-1.3 1.45 1.45 0 0 1 .28-.5 1.27 1.27 0 0 1 .45-.33 1.51 1.51 0 0 1 .61-.12 1.45 1.45 0 0 1 .57.1 1.38 1.38 0 0 1 .44.29zM195.78 65a.74.74 0 0 1-.56-.2.81.81 0 0 1-.2-.58v-1.88h-.37a.12.12 0 0 1-.08 0 .11.11 0 0 1 0-.09V62l.5-.06.12-.95a.14.14 0 0 1 0-.07.12.12 0 0 1 .08 0h.27V62h.88v.39h-.88v1.84a.39.39 0 0 0 .09.29.33.33 0 0 0 .24.09h.4a.09.09 0 0 1 .08.05l.16.26a1 1 0 0 1-.33.2 1.15 1.15 0 0 1-.4-.12zM197.51 61.89v2a.82.82 0 0 0 .16.54.6.6 0 0 0 .48.19.93.93 0 0 0 .44-.11 1.37 1.37 0 0 0 .38-.31v-2.31h.54V65h-.32a.14.14 0 0 1-.14-.11v-.33a1.69 1.69 0 0 1-.45.35 1.17 1.17 0 0 1-.6.09 1.1 1.1 0 0 1-.44-.08.86.86 0 0 1-.32-.23 1 1 0 0 1-.2-.37 1.64 1.64 0 0 1-.06-.47v-2zM200.37 65v-3.11h.31a.17.17 0 0 1 .12 0 .21.21 0 0 1 0 .11v.46a1.38 1.38 0 0 1 .36-.49.79.79 0 0 1 .52-.18h.19a.5.5 0 0 1 .16.07v.4a.09.09 0 0 1-.09.08h-.3a.72.72 0 0 0-.26 0 .61.61 0 0 0-.2.13.86.86 0 0 0-.16.2 1.76 1.76 0 0 0-.13.28V65zM203.25 60.93a.33.33 0 0 1 0 .15.44.44 0 0 1-.08.12.4.4 0 0 1-.12.08.39.39 0 0 1-.15 0 .36.36 0 0 1-.15 0 .38.38 0 0 1-.12-.08.43.43 0 0 1-.08-.12.36.36 0 0 1 0-.15.39.39 0 0 1 0-.15.42.42 0 0 1 .08-.12.38.38 0 0 1 .12-.08.36.36 0 0 1 .15 0 .38.38 0 0 1 .27.11.42.42 0 0 1 .08.12.35.35 0 0 1 0 .12zm-.11 1V65h-.54v-3.11zM204 65v-3.11h.32a.13.13 0 0 1 .14.11v.33A1.7 1.7 0 0 1 205 62a1.16 1.16 0 0 1 .57-.14 1.12 1.12 0 0 1 .44.08.86.86 0 0 1 .32.24 1 1 0 0 1 .2.37 1.6 1.6 0 0 1 .07.47V65h-.6v-2a.82.82 0 0 0-.16-.54.59.59 0 0 0-.48-.19.91.91 0 0 0-.45.12 1.42 1.42 0 0 0-.38.31V65zM208.45 61.84a1.49 1.49 0 0 1 .37 0 1.17 1.17 0 0 1 .31.13h.87v.2c0 .07 0 .11-.13.13h-.35a1 1 0 0 1-.22 1.16 1.07 1.07 0 0 1-.36.2 1.48 1.48 0 0 1-.46.07 1.56 1.56 0 0 1-.41-.05.51.51 0 0 0-.15.13.24.24 0 0 0 0 .14.18.18 0 0 0 .09.17.65.65 0 0 0 .23.08H209.33a1.14 1.14 0 0 1 .33.11.62.62 0 0 1 .23.21.61.61 0 0 1 .09.34.81.81 0 0 1-.1.38 1 1 0 0 1-.28.33 1.46 1.46 0 0 1-.45.23 2 2 0 0 1-.6.09 2.32 2.32 0 0 1-.59-.07 1.37 1.37 0 0 1-.42-.18.77.77 0 0 1-.25-.26.61.61 0 0 1-.08-.31.55.55 0 0 1 .14-.38 1 1 0 0 1 .39-.25.55.55 0 0 1-.21-.16.48.48 0 0 1-.05-.41.58.58 0 0 1 .07-.14l.12-.13a.82.82 0 0 1 .17-.11.94.94 0 0 1-.35-.34.93.93 0 0 1-.13-.49.94.94 0 0 1 .09-.41.91.91 0 0 1 .24-.31 1.1 1.1 0 0 1 .37-.2 1.51 1.51 0 0 1 .39.1zm1 3.28a.26.26 0 0 0-.06-.18.42.42 0 0 0-.17-.11 1.14 1.14 0 0 0-.25-.06H208.04a.86.86 0 0 0-.28.2.4.4 0 0 0-.11.28.37.37 0 0 0 .05.19.45.45 0 0 0 .16.15 1 1 0 0 0 .27.1 1.8 1.8 0 0 0 .39 0 1.75 1.75 0 0 0 .39 0 1 1 0 0 0 .29-.11.55.55 0 0 0 .18-.17.41.41 0 0 0 .04-.29zm-1-1.66a.84.84 0 0 0 .29 0 .6.6 0 0 0 .21-.13.53.53 0 0 0 .13-.2.72.72 0 0 0 0-.25.59.59 0 0 0-.17-.45.68.68 0 0 0-.49-.17.69.69 0 0 0-.5.17.6.6 0 0 0-.17.45.68.68 0 0 0 0 .25.52.52 0 0 0 .13.2.6.6 0 0 0 .21.13.84.84 0 0 0 .36 0zM140.61 74.2H140v-2h-2.33v2h-.58v-4.33h.58v1.93H140v-1.93h.58zM142.75 71.09a1.37 1.37 0 0 1 .51.09 1.15 1.15 0 0 1 .41.27 1.22 1.22 0 0 1 .27.43 1.63 1.63 0 0 1 .1.58.35.35 0 0 1 0 .17.11.11 0 0 1-.1 0h-2a1.66 1.66 0 0 0 .08.5 1 1 0 0 0 .2.36.79.79 0 0 0 .3.21 1 1 0 0 0 .39.07 1.15 1.15 0 0 0 .35 0l.25-.1.18-.1a.23.23 0 0 1 .12 0 .12.12 0 0 1 .1.05l.15.2a1 1 0 0 1-.24.21 1.45 1.45 0 0 1-.3.15 1.94 1.94 0 0 1-.33.09h-.34a1.56 1.56 0 0 1-.58-.11 1.3 1.3 0 0 1-.46-.31 1.45 1.45 0 0 1-.3-.51 2.08 2.08 0 0 1-.11-.7 1.78 1.78 0 0 1 .1-.6 1.41 1.41 0 0 1 .28-.48 1.31 1.31 0 0 1 .45-.32 1.48 1.48 0 0 1 .52-.15zm0 .4a.83.83 0 0 0-.61.23 1.06 1.06 0 0 0-.28.62h1.67a1.06 1.06 0 0 0-.05-.34.77.77 0 0 0-.15-.27.69.69 0 0 0-.25-.17.83.83 0 0 0-.32-.07zM146.62 74.2a.24.24 0 0 1-.12 0 .17.17 0 0 1-.07-.1l-.06-.29-.24.19a1.4 1.4 0 0 1-.24.14 1.32 1.32 0 0 1-.27.09 1.46 1.46 0 0 1-.32 0 1.1 1.1 0 0 1-.33 0 .77.77 0 0 1-.27-.15.72.72 0 0 1-.18-.25.89.89 0 0 1-.07-.36.67.67 0 0 1 .1-.35.87.87 0 0 1 .32-.3 2.08 2.08 0 0 1 .58-.21 4.47 4.47 0 0 1 .88-.1v-.24a.82.82 0 0 0-.15-.54.56.56 0 0 0-.45-.18 1 1 0 0 0-.33 0 1.26 1.26 0 0 0-.23.11l-.17.11a.24.24 0 0 1-.14 0 .16.16 0 0 1-.09 0l-.07-.07-.1-.17a1.75 1.75 0 0 1 .55-.37 1.69 1.69 0 0 1 .65-.12 1.15 1.15 0 0 1 .46.08.93.93 0 0 1 .33.24 1 1 0 0 1 .21.37 1.5 1.5 0 0 1 .07.47v2zm-1.15-.33a1.12 1.12 0 0 0 .26 0l.22-.08a1.11 1.11 0 0 0 .2-.13l.19-.17v-.63a4.43 4.43 0 0 0-.63.06 1.84 1.84 0 0 0-.43.12.6.6 0 0 0-.24.18.39.39 0 0 0-.07.23.5.5 0 0 0 0 .21.38.38 0 0 0 .11.14.43.43 0 0 0 .16.08zM148.24 69.75v4.45h-.54v-4.45zM150 74.25a.74.74 0 0 1-.56-.2.81.81 0 0 1-.2-.58v-1.88h-.37a.12.12 0 0 1-.08 0 .11.11 0 0 1 0-.09v-.21l.5-.06.12-.95a.14.14 0 0 1 0-.07.12.12 0 0 1 .08 0h.27v.99h.88v.39h-.88v1.84a.39.39 0 0 0 .09.29.33.33 0 0 0 .24.09h.4a.09.09 0 0 1 .08.05l.16.26a1 1 0 0 1-.33.2 1.15 1.15 0 0 1-.4-.07zM151.27 74.2v-4.45h.54v1.8a1.64 1.64 0 0 1 .43-.33 1.16 1.16 0 0 1 .55-.13 1.12 1.12 0 0 1 .44.08.86.86 0 0 1 .32.24 1 1 0 0 1 .2.37 1.6 1.6 0 0 1 .07.47v1.95h-.54v-1.95a.82.82 0 0 0-.16-.54.59.59 0 0 0-.48-.19.91.91 0 0 0-.45.12 1.42 1.42 0 0 0-.38.31v2.25zM156.77 71.68v.05h-.07a.18.18 0 0 1-.1 0l-.13-.08-.2-.08a1.05 1.05 0 0 0-.68 0 .76.76 0 0 0-.29.23 1.06 1.06 0 0 0-.18.37 1.83 1.83 0 0 0-.06.48 1.76 1.76 0 0 0 .06.49 1 1 0 0 0 .18.36.78.78 0 0 0 .28.22.87.87 0 0 0 .37.08 1 1 0 0 0 .32 0 1 1 0 0 0 .21-.1l.14-.1a.17.17 0 0 1 .11 0 .12.12 0 0 1 .1.05l.15.2a1 1 0 0 1-.23.21 1.35 1.35 0 0 1-.27.15 1.41 1.41 0 0 1-.31.09h-.33a1.33 1.33 0 0 1-.53-.11 1.22 1.22 0 0 1-.43-.31 1.44 1.44 0 0 1-.28-.49 2.18 2.18 0 0 1 0-1.3 1.45 1.45 0 0 1 .28-.5 1.27 1.27 0 0 1 .45-.33 1.51 1.51 0 0 1 .61-.12 1.45 1.45 0 0 1 .57.1 1.38 1.38 0 0 1 .44.29zM159.46 74.2a.24.24 0 0 1-.12 0 .17.17 0 0 1-.07-.1l-.06-.29-.21.19a1.4 1.4 0 0 1-.24.14 1.32 1.32 0 0 1-.27.09 1.46 1.46 0 0 1-.32 0 1.1 1.1 0 0 1-.33 0 .77.77 0 0 1-.27-.15.72.72 0 0 1-.18-.25.89.89 0 0 1-.07-.36.67.67 0 0 1 .1-.35.87.87 0 0 1 .32-.3 2.08 2.08 0 0 1 .58-.21 4.47 4.47 0 0 1 .88-.1v-.24a.82.82 0 0 0-.15-.54.56.56 0 0 0-.45-.18 1 1 0 0 0-.33 0 1.26 1.26 0 0 0-.23.11l-.17.11a.24.24 0 0 1-.14 0 .16.16 0 0 1-.09 0l-.07-.07-.1-.17a1.75 1.75 0 0 1 .55-.37 1.69 1.69 0 0 1 .65-.12 1.15 1.15 0 0 1 .46.08.93.93 0 0 1 .33.24 1 1 0 0 1 .21.37 1.5 1.5 0 0 1 .07.47v2zm-1.15-.33a1.12 1.12 0 0 0 .26 0l.22-.08a1.11 1.11 0 0 0 .2-.13l.19-.17v-.63a4.43 4.43 0 0 0-.63.06 1.84 1.84 0 0 0-.43.12.6.6 0 0 0-.24.18.39.39 0 0 0-.07.23.5.5 0 0 0 0 .21.38.38 0 0 0 .11.14.43.43 0 0 0 .16.08zM160.52 74.2v-3.06h.31a.17.17 0 0 1 .12 0 .21.21 0 0 1 0 .11v.46a1.38 1.38 0 0 1 .36-.49.79.79 0 0 1 .52-.18h.19a.5.5 0 0 1 .16.07v.4a.09.09 0 0 1-.09.08h-.3a.72.72 0 0 0-.26 0 .61.61 0 0 0-.2.13.86.86 0 0 0-.16.2 1.76 1.76 0 0 0-.13.28v2zM163.85 71.09a1.37 1.37 0 0 1 .51.09 1.15 1.15 0 0 1 .41.27 1.22 1.22 0 0 1 .27.43 1.63 1.63 0 0 1 .1.58.35.35 0 0 1 0 .17.11.11 0 0 1-.1 0h-2a1.66 1.66 0 0 0 .08.5 1 1 0 0 0 .2.36.79.79 0 0 0 .3.21 1 1 0 0 0 .39.07 1.15 1.15 0 0 0 .35 0l.25-.1.18-.1a.23.23 0 0 1 .12 0 .12.12 0 0 1 .1.05l.15.2a1 1 0 0 1-.24.21 1.45 1.45 0 0 1-.3.15 1.94 1.94 0 0 1-.33.09h-.34a1.56 1.56 0 0 1-.58-.11 1.3 1.3 0 0 1-.46-.31 1.45 1.45 0 0 1-.3-.51 2.08 2.08 0 0 1-.11-.7 1.78 1.78 0 0 1 .1-.6 1.41 1.41 0 0 1 .28-.48 1.31 1.31 0 0 1 .45-.32 1.48 1.48 0 0 1 .52-.15zm0 .4a.83.83 0 0 0-.61.23 1.06 1.06 0 0 0-.28.62h1.67a1.06 1.06 0 0 0-.05-.34.77.77 0 0 0-.15-.27.69.69 0 0 0-.25-.17.83.83 0 0 0-.32-.07zM139.3 82l.07.16.06-.16.07-.15 1.5-2.63a.16.16 0 0 1 .08-.08h.55v4.33h-.51v-3.2-.14-.15l-1.48 2.7a.22.22 0 0 1-.21.14h-.08a.23.23 0 0 1-.21-.14L137.6 80v3.47h-.51v-4.35h.55a.18.18 0 0 1 .08.08l1.49 2.66zM143.74 80.34a1.37 1.37 0 0 1 .51.09 1.15 1.15 0 0 1 .41.27 1.22 1.22 0 0 1 .27.43 1.63 1.63 0 0 1 .1.58.35.35 0 0 1 0 .17.11.11 0 0 1-.1 0h-2a1.66 1.66 0 0 0 .08.5 1 1 0 0 0 .2.36.79.79 0 0 0 .3.21 1 1 0 0 0 .39.07 1.15 1.15 0 0 0 .35 0l.25-.1.18-.1a.23.23 0 0 1 .12 0 .12.12 0 0 1 .1.05l.15.2a1 1 0 0 1-.24.21 1.45 1.45 0 0 1-.3.15 1.94 1.94 0 0 1-.33.09h-.34a1.56 1.56 0 0 1-.58-.11 1.3 1.3 0 0 1-.46-.31 1.45 1.45 0 0 1-.3-.51 2.08 2.08 0 0 1-.11-.7 1.78 1.78 0 0 1 .1-.6 1.41 1.41 0 0 1 .28-.48 1.31 1.31 0 0 1 .45-.32 1.48 1.48 0 0 1 .52-.15zm0 .4a.83.83 0 0 0-.61.23 1.06 1.06 0 0 0-.28.62h1.67a1.06 1.06 0 0 0-.05-.34.77.77 0 0 0-.15-.27.69.69 0 0 0-.25-.17.83.83 0 0 0-.32-.07zM147.89 83.45a.14.14 0 0 1-.14-.11v-.37a1.59 1.59 0 0 1-.45.38 1.15 1.15 0 0 1-.58.14 1.11 1.11 0 0 1-.48-.1 1 1 0 0 1-.37-.3 1.43 1.43 0 0 1-.23-.49 2.55 2.55 0 0 1-.08-.67 2.11 2.11 0 0 1 .09-.63 1.54 1.54 0 0 1 .26-.51 1.22 1.22 0 0 1 .42-.34 1.23 1.23 0 0 1 .55-.12 1.12 1.12 0 0 1 .48.1 1.15 1.15 0 0 1 .36.27V79h.54v4.45zm-1-.39a.87.87 0 0 0 .46-.12 1.34 1.34 0 0 0 .36-.34v-1.48a.9.9 0 0 0-.33-.28.93.93 0 0 0-.39-.08.77.77 0 0 0-.66.3 1.43 1.43 0 0 0-.23.87 2.21 2.21 0 0 0 .05.51 1 1 0 0 0 .15.35.59.59 0 0 0 .24.2.8.8 0 0 0 .3.07zM149.74 79.43a.33.33 0 0 1 0 .15.44.44 0 0 1-.08.12.4.4 0 0 1-.12.08.39.39 0 0 1-.15 0 .36.36 0 0 1-.15 0 .38.38 0 0 1-.12-.08.43.43 0 0 1-.08-.12.36.36 0 0 1 0-.15.39.39 0 0 1 0-.15.42.42 0 0 1 .08-.12.38.38 0 0 1 .12-.08.36.36 0 0 1 .15 0 .38.38 0 0 1 .27.11.42.42 0 0 1 .08.12.35.35 0 0 1 0 .12zm-.11 1v3.06h-.54v-3.1zM152.45 83.45a.24.24 0 0 1-.12 0 .17.17 0 0 1-.07-.1l-.06-.35-.24.19a1.4 1.4 0 0 1-.24.14 1.32 1.32 0 0 1-.27.09 1.46 1.46 0 0 1-.32 0 1.1 1.1 0 0 1-.33 0 .77.77 0 0 1-.27-.15.72.72 0 0 1-.18-.25.89.89 0 0 1-.07-.36.67.67 0 0 1 .1-.35.87.87 0 0 1 .32-.3 2.08 2.08 0 0 1 .58-.21 4.47 4.47 0 0 1 .88-.1v-.24A.82.82 0 0 0 152 81a.56.56 0 0 0-.45-.18 1 1 0 0 0-.33 0 1.26 1.26 0 0 0-.23.11l-.17.11a.24.24 0 0 1-.14 0 .16.16 0 0 1-.09 0l-.07-.07-.1-.17a1.75 1.75 0 0 1 .55-.37 1.69 1.69 0 0 1 .65-.12 1.15 1.15 0 0 1 .46.08.93.93 0 0 1 .33.24 1 1 0 0 1 .21.37 1.5 1.5 0 0 1 .07.47v2zm-1.15-.33a1.12 1.12 0 0 0 .26 0l.22-.08a1.11 1.11 0 0 0 .2-.13l.19-.17v-.63a4.43 4.43 0 0 0-.63.06 1.84 1.84 0 0 0-.43.12.6.6 0 0 0-.24.18.39.39 0 0 0-.07.23.5.5 0 0 0 0 .21.38.38 0 0 0 .11.14.43.43 0 0 0 .16.08zM156.64 79.08a1.19 1.19 0 0 1 .43.08 1.11 1.11 0 0 1 .34.2 1 1 0 0 1 .22.29.92.92 0 0 1 .1.35l-.34.07c-.07 0-.12 0-.15-.09a.73.73 0 0 0-.07-.16.64.64 0 0 0-.12-.15.59.59 0 0 0-.42-.16.74.74 0 0 0-.27 0 .59.59 0 0 0-.34.34.68.68 0 0 0 0 .25.81.81 0 0 0 0 .2.85.85 0 0 0 .08.2 1.3 1.3 0 0 0 .13.2l.2.22 1.24 1.26a2.14 2.14 0 0 0 .18-.43 2.36 2.36 0 0 0 .09-.44.15.15 0 0 1 0-.09.11.11 0 0 1 .08 0h.33a2.28 2.28 0 0 1-.11.68 2.47 2.47 0 0 1-.3.63l.91.92h-.66a.35.35 0 0 1-.12-.09l-.44-.44a2.2 2.2 0 0 1-.65.43 2 2 0 0 1-.81.16 1.4 1.4 0 0 1-.47-.08 1.32 1.32 0 0 1-.42-.24 1.19 1.19 0 0 1-.3-.38 1.18 1.18 0 0 1 0-.9 1.28 1.28 0 0 1 .2-.35 1.49 1.49 0 0 1 .3-.29 2 2 0 0 1 .38-.22 1.75 1.75 0 0 1-.27-.45 1.24 1.24 0 0 1-.09-.46 1.06 1.06 0 0 1 .08-.41 1 1 0 0 1 .23-.34 1.1 1.1 0 0 1 .37-.23 1.35 1.35 0 0 1 .46-.08zm-.36 4a1.44 1.44 0 0 0 .61-.12 1.64 1.64 0 0 0 .47-.33l-1.28-1.29a1.3 1.3 0 0 0-.48.41.92.92 0 0 0-.16.52.77.77 0 0 0 .26.6.81.81 0 0 0 .3.13.93.93 0 0 0 .28.06zM163.77 79.12v.49h-1.4v3.83h-.58v-3.82h-1.4v-.49zM164.8 80.34a1.37 1.37 0 0 1 .51.09 1.15 1.15 0 0 1 .41.27 1.22 1.22 0 0 1 .27.43 1.63 1.63 0 0 1 .1.58.35.35 0 0 1 0 .17.11.11 0 0 1-.1 0h-2a1.66 1.66 0 0 0 .08.5 1 1 0 0 0 .2.36.79.79 0 0 0 .3.21 1 1 0 0 0 .39.07 1.15 1.15 0 0 0 .35 0l.25-.1.18-.1a.23.23 0 0 1 .12 0 .12.12 0 0 1 .1.05l.15.2a1 1 0 0 1-.24.21 1.45 1.45 0 0 1-.3.15 1.94 1.94 0 0 1-.33.09h-.34a1.56 1.56 0 0 1-.58-.11 1.3 1.3 0 0 1-.46-.31 1.45 1.45 0 0 1-.3-.51 2.08 2.08 0 0 1-.11-.7 1.78 1.78 0 0 1 .1-.6 1.41 1.41 0 0 1 .28-.48 1.31 1.31 0 0 1 .45-.32 1.48 1.48 0 0 1 .52-.15zm0 .4a.83.83 0 0 0-.61.23 1.06 1.06 0 0 0-.28.62h1.67a1.06 1.06 0 0 0-.05-.34.77.77 0 0 0-.15-.27.69.69 0 0 0-.25-.17.83.83 0 0 0-.32-.07zM167.29 79v4.45h-.54V79zM169.41 80.34a1.37 1.37 0 0 1 .51.09 1.15 1.15 0 0 1 .41.27 1.22 1.22 0 0 1 .27.43 1.63 1.63 0 0 1 .1.58.35.35 0 0 1 0 .17.11.11 0 0 1-.1 0h-2a1.66 1.66 0 0 0 .08.5 1 1 0 0 0 .2.36.79.79 0 0 0 .3.21 1 1 0 0 0 .39.07 1.15 1.15 0 0 0 .35 0l.25-.1.18-.1a.23.23 0 0 1 .12 0 .12.12 0 0 1 .1.05l.15.2a1 1 0 0 1-.24.21 1.45 1.45 0 0 1-.3.15 1.94 1.94 0 0 1-.33.09h-.34a1.56 1.56 0 0 1-.58-.11 1.3 1.3 0 0 1-.46-.31 1.45 1.45 0 0 1-.3-.51 2.08 2.08 0 0 1-.11-.7 1.78 1.78 0 0 1 .1-.6 1.41 1.41 0 0 1 .28-.48 1.31 1.31 0 0 1 .45-.32 1.48 1.48 0 0 1 .52-.15zm0 .4a.83.83 0 0 0-.61.23 1.06 1.06 0 0 0-.28.62h1.67a1.06 1.06 0 0 0-.05-.34.77.77 0 0 0-.14-.25.69.69 0 0 0-.25-.17.83.83 0 0 0-.33-.09zM173.47 80.93v.05h-.07a.18.18 0 0 1-.1 0l-.13-.08-.2-.08a1.05 1.05 0 0 0-.68 0 .76.76 0 0 0-.29.23 1.06 1.06 0 0 0-.18.37 1.83 1.83 0 0 0-.06.48 1.76 1.76 0 0 0 .06.49 1 1 0 0 0 .18.36.78.78 0 0 0 .28.22.87.87 0 0 0 .37.08 1 1 0 0 0 .32 0 1 1 0 0 0 .21-.1l.14-.1a.17.17 0 0 1 .11 0 .12.12 0 0 1 .1.05l.15.2a1 1 0 0 1-.23.21 1.35 1.35 0 0 1-.27.15 1.41 1.41 0 0 1-.31.09h-.33a1.33 1.33 0 0 1-.53-.11 1.22 1.22 0 0 1-.43-.31 1.44 1.44 0 0 1-.28-.49 2.18 2.18 0 0 1 0-1.3 1.45 1.45 0 0 1 .28-.5 1.27 1.27 0 0 1 .45-.33 1.51 1.51 0 0 1 .61-.12 1.45 1.45 0 0 1 .57.1 1.38 1.38 0 0 1 .44.29zM175.46 80.34a1.57 1.57 0 0 1 .6.11 1.3 1.3 0 0 1 .46.32 1.41 1.41 0 0 1 .29.5 2.16 2.16 0 0 1 0 1.3 1.41 1.41 0 0 1-.29.49 1.27 1.27 0 0 1-.46.32 1.72 1.72 0 0 1-1.21 0 1.26 1.26 0 0 1-.46-.32 1.41 1.41 0 0 1-.29-.49 2.16 2.16 0 0 1 0-1.3 1.41 1.41 0 0 1 .29-.5 1.29 1.29 0 0 1 .46-.32 1.58 1.58 0 0 1 .61-.11zm0 2.73a.79.79 0 0 0 .68-.3 1.41 1.41 0 0 0 .22-.85 1.42 1.42 0 0 0-.22-.85.78.78 0 0 0-.68-.3.94.94 0 0 0-.4.08.73.73 0 0 0-.28.23 1 1 0 0 0-.17.36 2 2 0 0 0-.06.49 1.39 1.39 0 0 0 .23.85.79.79 0 0 0 .68.29zM177.6 83.45v-3.06h.32a.13.13 0 0 1 .14.11v.31a1.57 1.57 0 0 1 .38-.34.91.91 0 0 1 .49-.13.72.72 0 0 1 .5.17 1 1 0 0 1 .28.46 1 1 0 0 1 .4-.49 1 1 0 0 1 .28-.11 1.21 1.21 0 0 1 .3 0 1.14 1.14 0 0 1 .43.08.86.86 0 0 1 .32.23 1 1 0 0 1 .2.36 1.62 1.62 0 0 1 .07.49v1.95h-.54V81.5a.83.83 0 0 0-.17-.5.56.56 0 0 0-.45-.19.68.68 0 0 0-.25 0 .61.61 0 0 0-.21.14.65.65 0 0 0-.14.23.89.89 0 0 0-.05.32v1.95h-.54V81.5a.86.86 0 0 0-.15-.55.53.53 0 0 0-.43-.18.68.68 0 0 0-.37.11 1.24 1.24 0 0 0-.31.29v2.28zM137.69 92.21h1.87v.49h-2.45v-4.33h.58zM141.11 89.59a1.37 1.37 0 0 1 .51.09 1.15 1.15 0 0 1 .38.32 1.22 1.22 0 0 1 .27.43 1.63 1.63 0 0 1 .1.58.35.35 0 0 1 0 .17.11.11 0 0 1-.1 0h-2a1.66 1.66 0 0 0 .08.5 1 1 0 0 0 .2.36.79.79 0 0 0 .3.21 1 1 0 0 0 .39.07 1.15 1.15 0 0 0 .35 0l.25-.1.18-.1a.23.23 0 0 1 .12 0 .12.12 0 0 1 .1.05l.15.2a1 1 0 0 1-.24.21 1.45 1.45 0 0 1-.3.15 1.94 1.94 0 0 1-.33.09h-.34a1.56 1.56 0 0 1-.58-.11 1.3 1.3 0 0 1-.46-.31 1.45 1.45 0 0 1-.3-.51 2.08 2.08 0 0 1-.11-.7 1.78 1.78 0 0 1 .1-.6 1.41 1.41 0 0 1 .28-.48 1.31 1.31 0 0 1 .45-.32 1.48 1.48 0 0 1 .55-.2zm0 .4a.83.83 0 0 0-.61.23 1.06 1.06 0 0 0-.28.62h1.67a1.06 1.06 0 0 0-.05-.34.77.77 0 0 0-.15-.27.69.69 0 0 0-.25-.17.83.83 0 0 0-.32-.06zM144.11 89.59a1.49 1.49 0 0 1 .37 0 1.17 1.17 0 0 1 .31.13h.83V90c0 .07 0 .11-.13.13h-.35a1 1 0 0 1-.22 1.16 1.07 1.07 0 0 1-.36.2 1.48 1.48 0 0 1-.46.07 1.56 1.56 0 0 1-.41-.05.51.51 0 0 0-.15.13.24.24 0 0 0 0 .14.18.18 0 0 0 .09.17.65.65 0 0 0 .23.08H144.95a1.14 1.14 0 0 1 .33.11.62.62 0 0 1 .23.21.61.61 0 0 1 .09.34.81.81 0 0 1-.1.38 1 1 0 0 1-.28.33 1.46 1.46 0 0 1-.45.23 2 2 0 0 1-.6.09 2.32 2.32 0 0 1-.59-.07 1.37 1.37 0 0 1-.42-.18.77.77 0 0 1-.25-.26.61.61 0 0 1-.08-.31.55.55 0 0 1 .14-.38 1 1 0 0 1 .39-.25.55.55 0 0 1-.21-.16.48.48 0 0 1-.05-.41.58.58 0 0 1 .07-.14l.12-.13a.82.82 0 0 1 .17-.11.94.94 0 0 1-.35-.34.93.93 0 0 1-.13-.49.94.94 0 0 1 .09-.41.91.91 0 0 1 .24-.31 1.1 1.1 0 0 1 .37-.2 1.51 1.51 0 0 1 .43.02zm1 3.28a.26.26 0 0 0-.06-.18.42.42 0 0 0-.17-.11 1.14 1.14 0 0 0-.25-.06H143.7a.86.86 0 0 0-.28.2.4.4 0 0 0-.11.28.37.37 0 0 0 .05.19.45.45 0 0 0 .16.15 1 1 0 0 0 .27.1 1.8 1.8 0 0 0 .39 0 1.75 1.75 0 0 0 .39 0 1 1 0 0 0 .29-.11.55.55 0 0 0 .18-.17.41.41 0 0 0 .04-.3zm-1-1.66a.84.84 0 0 0 .29 0 .6.6 0 0 0 .21-.13.53.53 0 0 0 .13-.2.72.72 0 0 0 0-.25.59.59 0 0 0-.17-.45.68.68 0 0 0-.49-.17.69.69 0 0 0-.5.17.6.6 0 0 0-.17.45.68.68 0 0 0 0 .25.52.52 0 0 0 .13.2.6.6 0 0 0 .21.13.84.84 0 0 0 .36-.01zM148.13 92.7a.24.24 0 0 1-.12 0 .17.17 0 0 1-.07-.1l-.06-.29-.24.19a1.4 1.4 0 0 1-.24.14 1.32 1.32 0 0 1-.27.09 1.46 1.46 0 0 1-.32 0 1.1 1.1 0 0 1-.33 0 .77.77 0 0 1-.27-.15.72.72 0 0 1-.18-.25.89.89 0 0 1-.07-.36.67.67 0 0 1 .1-.35.87.87 0 0 1 .32-.3 2.08 2.08 0 0 1 .58-.21 4.47 4.47 0 0 1 .88-.1v-.24a.82.82 0 0 0-.15-.54.56.56 0 0 0-.45-.18 1 1 0 0 0-.33 0 1.26 1.26 0 0 0-.23.11l-.17.11a.24.24 0 0 1-.14 0 .16.16 0 0 1-.09 0l-.07-.07-.1-.17a1.75 1.75 0 0 1 .55-.37 1.69 1.69 0 0 1 .65-.12 1.15 1.15 0 0 1 .46.08.93.93 0 0 1 .33.24 1 1 0 0 1 .21.37 1.5 1.5 0 0 1 .07.47v2zm-1.13-.33a1.12 1.12 0 0 0 .26 0l.22-.08a1.11 1.11 0 0 0 .2-.13l.19-.17v-.63a4.43 4.43 0 0 0-.63.06 1.84 1.84 0 0 0-.43.12.6.6 0 0 0-.24.18.39.39 0 0 0-.07.23.5.5 0 0 0 0 .21.38.38 0 0 0 .11.14.43.43 0 0 0 .16.08zM149.74 88.25v4.45h-.54v-4.45zM153.74 88.32a1.19 1.19 0 0 1 .43.08 1.11 1.11 0 0 1 .34.2 1 1 0 0 1 .22.29.92.92 0 0 1 .1.35l-.34.07c-.07 0-.12 0-.15-.09a.73.73 0 0 0-.07-.16.64.64 0 0 0-.12-.15.59.59 0 0 0-.42-.16.74.74 0 0 0-.27 0 .59.59 0 0 0-.34.34.68.68 0 0 0 0 .25.81.81 0 0 0 0 .2.85.85 0 0 0 .08.2 1.3 1.3 0 0 0 .13.2l.2.22 1.24 1.26a2.14 2.14 0 0 0 .18-.43 2.36 2.36 0 0 0 .09-.44.15.15 0 0 1 0-.09.11.11 0 0 1 .08 0h.33a2.28 2.28 0 0 1-.11.68 2.47 2.47 0 0 1-.3.63l.91.92h-.66a.35.35 0 0 1-.12-.09l-.44-.44a2.2 2.2 0 0 1-.65.43 2 2 0 0 1-.81.16 1.4 1.4 0 0 1-.47-.08 1.32 1.32 0 0 1-.42-.24 1.19 1.19 0 0 1-.3-.38 1.18 1.18 0 0 1 0-.9 1.28 1.28 0 0 1 .2-.35 1.49 1.49 0 0 1 .3-.29 2 2 0 0 1 .38-.22 1.75 1.75 0 0 1-.27-.45 1.24 1.24 0 0 1-.09-.46 1.06 1.06 0 0 1 .08-.41 1 1 0 0 1 .23-.34 1.1 1.1 0 0 1 .37-.23 1.35 1.35 0 0 1 .46-.08zm-.36 4a1.44 1.44 0 0 0 .61-.12 1.64 1.64 0 0 0 .47-.33l-1.28-1.29a1.3 1.3 0 0 0-.48.41.92.92 0 0 0-.16.52.77.77 0 0 0 .26.6.81.81 0 0 0 .27.16.93.93 0 0 0 .31.04zM158.71 90.89v1.8h-.58v-4.32h1.22a2.66 2.66 0 0 1 .71.08 1.34 1.34 0 0 1 .49.24 1 1 0 0 1 .29.38 1.34 1.34 0 0 1 0 .93 1.12 1.12 0 0 1-.21.36 1.28 1.28 0 0 1-.33.27 1.57 1.57 0 0 1-.45.17.68.68 0 0 1 .19.18l1.26 1.72h-.52a.26.26 0 0 1-.24-.12l-1.1-1.58a.33.33 0 0 0-.11-.1.4.4 0 0 0-.18 0zm0-.43h.62a1.46 1.46 0 0 0 .45-.06.92.92 0 0 0 .33-.17.73.73 0 0 0 .2-.27.89.89 0 0 0 .07-.35.69.69 0 0 0-.25-.58 1.23 1.23 0 0 0-.76-.2h-.64zM162.84 89.59a1.37 1.37 0 0 1 .51.09 1.15 1.15 0 0 1 .41.27 1.22 1.22 0 0 1 .27.43 1.63 1.63 0 0 1 .1.58.35.35 0 0 1 0 .17.11.11 0 0 1-.1 0h-2a1.66 1.66 0 0 0 .08.5 1 1 0 0 0 .2.36.79.79 0 0 0 .3.21 1 1 0 0 0 .39.07 1.15 1.15 0 0 0 .35 0l.25-.1.18-.1a.23.23 0 0 1 .12 0 .12.12 0 0 1 .1.05l.15.2a1 1 0 0 1-.24.21 1.45 1.45 0 0 1-.3.15 1.94 1.94 0 0 1-.33.09h-.34a1.56 1.56 0 0 1-.58-.11 1.3 1.3 0 0 1-.46-.31 1.45 1.45 0 0 1-.3-.51 2.08 2.08 0 0 1-.11-.7 1.78 1.78 0 0 1 .1-.6 1.41 1.41 0 0 1 .28-.48 1.31 1.31 0 0 1 .45-.32 1.48 1.48 0 0 1 .52-.15zm0 .4a.83.83 0 0 0-.61.23 1.06 1.06 0 0 0-.28.62h1.67a1.06 1.06 0 0 0-.05-.34.77.77 0 0 0-.15-.27.69.69 0 0 0-.25-.17.83.83 0 0 0-.32-.06zM165.84 89.59a1.49 1.49 0 0 1 .37 0 1.17 1.17 0 0 1 .31.13h.83V90c0 .07 0 .11-.13.13h-.35a1 1 0 0 1-.22 1.16 1.07 1.07 0 0 1-.36.2 1.48 1.48 0 0 1-.46.07 1.56 1.56 0 0 1-.41-.05.51.51 0 0 0-.15.13.24.24 0 0 0 0 .14.18.18 0 0 0 .09.17.65.65 0 0 0 .23.08H166.68a1.14 1.14 0 0 1 .33.11.62.62 0 0 1 .23.21.61.61 0 0 1 .09.34.81.81 0 0 1-.1.38 1 1 0 0 1-.28.33 1.46 1.46 0 0 1-.45.23 2 2 0 0 1-.6.09 2.32 2.32 0 0 1-.59-.07 1.37 1.37 0 0 1-.42-.18.77.77 0 0 1-.25-.26.61.61 0 0 1-.08-.31.55.55 0 0 1 .14-.38 1 1 0 0 1 .39-.25.55.55 0 0 1-.21-.16.48.48 0 0 1-.05-.41.58.58 0 0 1 .07-.14l.12-.13a.82.82 0 0 1 .17-.11.94.94 0 0 1-.35-.34.93.93 0 0 1-.13-.49.94.94 0 0 1 .09-.41.91.91 0 0 1 .24-.31 1.1 1.1 0 0 1 .37-.2 1.51 1.51 0 0 1 .43.02zm1 3.28a.26.26 0 0 0-.06-.18.42.42 0 0 0-.17-.11 1.14 1.14 0 0 0-.25-.06H165.43a.86.86 0 0 0-.28.2.4.4 0 0 0-.11.28.37.37 0 0 0 .05.19.45.45 0 0 0 .16.15 1 1 0 0 0 .27.1 1.8 1.8 0 0 0 .39 0 1.75 1.75 0 0 0 .39 0 1 1 0 0 0 .29-.11.54.54 0 0 0 .18-.17.41.41 0 0 0 .04-.3zm-1-1.66a.84.84 0 0 0 .29 0 .6.6 0 0 0 .21-.13.53.53 0 0 0 .13-.2.72.72 0 0 0 0-.25.59.59 0 0 0-.17-.45.68.68 0 0 0-.49-.17.69.69 0 0 0-.5.17.6.6 0 0 0-.17.45.68.68 0 0 0 0 .25.52.52 0 0 0 .13.2.6.6 0 0 0 .21.13.84.84 0 0 0 .36-.01zM168.42 89.64v2a.82.82 0 0 0 .16.54.6.6 0 0 0 .48.19.93.93 0 0 0 .44-.11 1.37 1.37 0 0 0 .38-.31v-2.31h.54v3.06h-.32a.14.14 0 0 1-.14-.11v-.33a1.69 1.69 0 0 1-.45.35 1.17 1.17 0 0 1-.57.13 1.1 1.1 0 0 1-.44-.08.86.86 0 0 1-.32-.23 1 1 0 0 1-.2-.37 1.64 1.64 0 0 1-.06-.47v-2zM171.83 88.25v4.45h-.54v-4.45zM174.64 92.7a.24.24 0 0 1-.12 0 .17.17 0 0 1-.07-.1l-.06-.29-.24.19a1.4 1.4 0 0 1-.24.14 1.32 1.32 0 0 1-.27.09 1.46 1.46 0 0 1-.32 0 1.1 1.1 0 0 1-.33 0 .77.77 0 0 1-.27-.15.72.72 0 0 1-.18-.25.89.89 0 0 1-.07-.36.67.67 0 0 1 .1-.35.87.87 0 0 1 .32-.3 2.08 2.08 0 0 1 .58-.21 4.47 4.47 0 0 1 .88-.1v-.24a.82.82 0 0 0-.15-.54.56.56 0 0 0-.45-.18 1 1 0 0 0-.33 0 1.26 1.26 0 0 0-.23.11l-.17.11a.24.24 0 0 1-.14 0 .16.16 0 0 1-.09 0l-.07-.07-.1-.17a1.75 1.75 0 0 1 .55-.37 1.69 1.69 0 0 1 .65-.12 1.15 1.15 0 0 1 .46.08.93.93 0 0 1 .33.24 1 1 0 0 1 .21.37 1.5 1.5 0 0 1 .07.47v2zm-1.15-.33a1.12 1.12 0 0 0 .26 0l.22-.08a1.11 1.11 0 0 0 .2-.13l.19-.17v-.63a4.43 4.43 0 0 0-.63.06 1.84 1.84 0 0 0-.43.12.6.6 0 0 0-.24.18.39.39 0 0 0-.07.23.5.5 0 0 0 0 .21.38.38 0 0 0 .11.14.43.43 0 0 0 .16.08zM176.6 92.75a.74.74 0 0 1-.56-.2.81.81 0 0 1-.2-.58v-1.88h-.37a.12.12 0 0 1-.08 0 .11.11 0 0 1 0-.09v-.21l.5-.06.12-.95a.14.14 0 0 1 0-.07.12.12 0 0 1 .08 0h.27v.99h.88v.39h-.88v1.84a.39.39 0 0 0 .09.29.33.33 0 0 0 .24.09h.4a.09.09 0 0 1 .08.05l.16.26a1 1 0 0 1-.33.2 1.15 1.15 0 0 1-.4-.07zM179.11 89.59a1.57 1.57 0 0 1 .6.11 1.3 1.3 0 0 1 .46.32 1.41 1.41 0 0 1 .29.5 2.16 2.16 0 0 1 0 1.3 1.41 1.41 0 0 1-.29.49 1.27 1.27 0 0 1-.46.32 1.72 1.72 0 0 1-1.21 0 1.26 1.26 0 0 1-.46-.32 1.41 1.41 0 0 1-.29-.49 2.16 2.16 0 0 1 0-1.3A1.41 1.41 0 0 1 178 90a1.29 1.29 0 0 1 .46-.32 1.58 1.58 0 0 1 .65-.09zm0 2.73a.79.79 0 0 0 .68-.3 1.41 1.41 0 0 0 .22-.85 1.42 1.42 0 0 0-.22-.85.78.78 0 0 0-.68-.3.94.94 0 0 0-.4.08.73.73 0 0 0-.28.23 1 1 0 0 0-.17.36 2 2 0 0 0-.06.49 1.39 1.39 0 0 0 .23.85.79.79 0 0 0 .68.29zM181.25 92.7v-3.06h.31a.17.17 0 0 1 .12 0 .21.21 0 0 1 0 .11v.46a1.38 1.38 0 0 1 .36-.49.79.79 0 0 1 .52-.18h.19a.5.5 0 0 1 .16.07v.4a.09.09 0 0 1-.09.08h-.3a.72.72 0 0 0-.26 0 .61.61 0 0 0-.2.13.86.86 0 0 0-.16.2 1.76 1.76 0 0 0-.13.28v2zM184.38 93.6a.29.29 0 0 1-.07.1.18.18 0 0 1-.12 0h-.4l.56-1.21-1.26-2.88h.46a.17.17 0 0 1 .11 0 .18.18 0 0 1 .06.08l.82 1.93v.26c0-.09.06-.18.09-.27l.79-1.92a.17.17 0 0 1 .06-.08.17.17 0 0 1 .1 0h.43zM141.1 99.79a2.5 2.5 0 0 1-.15.89 2 2 0 0 1-.43.7 1.93 1.93 0 0 1-.67.45 2.43 2.43 0 0 1-1.74 0 2 2 0 0 1-.67-.45 2.06 2.06 0 0 1-.43-.7 2.67 2.67 0 0 1 0-1.78 2.06 2.06 0 0 1 .43-.7 2 2 0 0 1 .67-.46 2.4 2.4 0 0 1 1.74 0 2 2 0 0 1 .67.46 2 2 0 0 1 .43.7 2.5 2.5 0 0 1 .15.89zm-.6 0a2.21 2.21 0 0 0-.11-.72 1.52 1.52 0 0 0-.31-.54 1.33 1.33 0 0 0-.48-.34 1.76 1.76 0 0 0-1.26 0 1.34 1.34 0 0 0-.48.34 1.5 1.5 0 0 0-.31.54 2.41 2.41 0 0 0 0 1.43 1.5 1.5 0 0 0 .31.53 1.33 1.33 0 0 0 .48.33 1.78 1.78 0 0 0 1.26 0 1.32 1.32 0 0 0 .48-.33 1.53 1.53 0 0 0 .31-.53 2.19 2.19 0 0 0 .11-.71zM142.75 102a.74.74 0 0 1-.56-.2.81.81 0 0 1-.2-.58v-1.88h-.37a.12.12 0 0 1-.08 0 .11.11 0 0 1 0-.09V99l.5-.06.12-.95a.14.14 0 0 1 0-.07.12.12 0 0 1 .08 0h.27V99h.88v.39h-.88v1.84a.39.39 0 0 0 .09.29.33.33 0 0 0 .24.09h.4a.09.09 0 0 1 .08.05l.16.26a1 1 0 0 1-.33.2 1.15 1.15 0 0 1-.4-.12zM144 101.95V97.5h.54v1.8a1.64 1.64 0 0 1 .43-.33 1.16 1.16 0 0 1 .55-.13 1.12 1.12 0 0 1 .44.08.86.86 0 0 1 .32.24 1 1 0 0 1 .2.37 1.6 1.6 0 0 1 .07.47v1.95H146V100a.82.82 0 0 0-.16-.54.59.59 0 0 0-.48-.19.91.91 0 0 0-.45.12 1.42 1.42 0 0 0-.38.31v2.25zM148.6 98.84a1.37 1.37 0 0 1 .51.09 1.15 1.15 0 0 1 .41.27 1.22 1.22 0 0 1 .27.43 1.63 1.63 0 0 1 .1.58.35.35 0 0 1 0 .17.11.11 0 0 1-.1 0h-2a1.66 1.66 0 0 0 .08.5 1 1 0 0 0 .2.36.79.79 0 0 0 .3.21 1 1 0 0 0 .39.07 1.15 1.15 0 0 0 .35 0l.25-.1.18-.1a.23.23 0 0 1 .12 0 .12.12 0 0 1 .1.05l.15.2a1 1 0 0 1-.24.21 1.45 1.45 0 0 1-.3.15 1.94 1.94 0 0 1-.33.09h-.34a1.56 1.56 0 0 1-.58-.11 1.3 1.3 0 0 1-.46-.31 1.45 1.45 0 0 1-.3-.51 2.08 2.08 0 0 1-.11-.7 1.78 1.78 0 0 1 .1-.6 1.41 1.41 0 0 1 .28-.48A1.31 1.31 0 0 1 148 99a1.48 1.48 0 0 1 .6-.16zm0 .4a.83.83 0 0 0-.61.23 1.06 1.06 0 0 0-.28.62h1.67a1.06 1.06 0 0 0-.05-.34.77.77 0 0 0-.15-.27.69.69 0 0 0-.25-.17.83.83 0 0 0-.32-.07zM150.53 101.95v-3.06h.31a.17.17 0 0 1 .12 0 .21.21 0 0 1 0 .11v.46a1.38 1.38 0 0 1 .36-.49.79.79 0 0 1 .52-.18h.19a.5.5 0 0 1 .16.07v.4a.09.09 0 0 1-.09.08h-.3a.72.72 0 0 0-.26 0 .61.61 0 0 0-.2.13.86.86 0 0 0-.16.2 1.76 1.76 0 0 0-.13.28v1.93zM154.51 99.39a.12.12 0 0 1-.11.07.21.21 0 0 1-.1 0l-.14-.07-.2-.08a.94.94 0 0 0-.27 0 .8.8 0 0 0-.25 0 .6.6 0 0 0-.19.09.43.43 0 0 0-.12.14.38.38 0 0 0 0 .17.29.29 0 0 0 .07.2.61.61 0 0 0 .18.14l.25.1.29.09.29.11a1.05 1.05 0 0 1 .25.15.66.66 0 0 1 .25.54 1 1 0 0 1-.08.39.84.84 0 0 1-.22.31 1.07 1.07 0 0 1-.36.21 1.48 1.48 0 0 1-.5.08 1.55 1.55 0 0 1-.58-.1 1.46 1.46 0 0 1-.44-.27l.13-.21.06-.06h.08a.2.2 0 0 1 .12 0l.15.09.21.09a1 1 0 0 0 .31 0 .83.83 0 0 0 .27 0 .58.58 0 0 0 .2-.11.44.44 0 0 0 .12-.16.49.49 0 0 0 0-.19.32.32 0 0 0-.07-.21.56.56 0 0 0-.18-.14l-.25-.1-.29-.09-.29-.11a1 1 0 0 1-.25-.16.7.7 0 0 1-.18-.23.75.75 0 0 1-.07-.33.82.82 0 0 1 .28-.62 1 1 0 0 1 .34-.19 1.35 1.35 0 0 1 .46-.07 1.46 1.46 0 0 1 .54.1 1.28 1.28 0 0 1 .42.26z"/></g></g></svg>