<svg xmlns="http://www.w3.org/2000/svg" viewBox="0 0 62.39 62.39"><defs><style>.cls-1{fill:none;stroke:#3c7385;stroke-miterlimit:10}.cls-2{fill:#f68c6b}</style></defs><title>car-3</title><g id="Layer_2" data-name="Layer 2"><g id="Layer_1-2" data-name="Layer 1"><g id="_Group_" data-name="&amp;lt;Group&amp;gt;"><g id="_Group_2" data-name="&amp;lt;Group&amp;gt;"><path id="_Path_" data-name="&amp;lt;Path&amp;gt;" class="cls-1" d="M31.19 61.89a30.69 30.69 0 1 1 30.7-30.7 30.78 30.78 0 0 1-30.7 30.7z"/></g></g><g id="_Group_3" data-name="&amp;lt;Group&amp;gt;"><path id="_Path_2" data-name="&amp;lt;Path&amp;gt;" class="cls-2" d="M30.59 30.43a7.42 7.42 0 0 0-1.25.84 18 18 0 0 0-1.56 1.48l-.84.88-.43.45-.44.46a24.43 24.43 0 0 0-1.65 2 22 22 0 0 0-1.3 1.93l-.24.41-.31-.57c-.81-1.46-1.92-2.64-2.85-4 .66 1.1 1.42 2.24 2 3.38a6.9 6.9 0 0 1 .71 1.64c.11.56-.37 1.06-.56 1.59-.1.29-.52 1-.3 1.27s.61.11.81 0a1.85 1.85 0 0 0 1-1.25 15.48 15.48 0 0 1 .81-1.94 22.15 22.15 0 0 1 1-2 24.4 24.4 0 0 1 1.43-2l.38-.5.39-.5.74-1a18.37 18.37 0 0 1 1.37-1.61 7.34 7.34 0 0 1 1.13-1 4.7 4.7 0 0 1 .48-.29 4.23 4.23 0 0 0-.52.33z"/><path id="_Path_3" data-name="&amp;lt;Path&amp;gt;" class="cls-2" d="M13.78 26a14.71 14.71 0 0 0 .36 4.31 12.78 12.78 0 0 0 3.11 5.48c1.17 1.25 3.77 1.9 4.61.94a4.3 4.3 0 0 0 .85-3.14 8.25 8.25 0 0 0-3-5C17.15 26.36 15 26.65 13.78 26z"/><path id="_Path_4" data-name="&amp;lt;Path&amp;gt;" class="cls-2" d="M50.8 26.85a13.83 13.83 0 0 0-9.13-6.71c-4.92-1-11 .12-14.5 4-2.83 3.1-2.95 7.94.62 10.55 5.52 4 11.29-1.16 15.53-4.7 2.28-1.99 6.09-2.91 7.48-3.14z"/></g></g></g></svg>