<svg xmlns="http://www.w3.org/2000/svg" viewBox="0 0 62.39 62.39"><defs><style>.cls-1{fill:none;stroke:#3c7385;stroke-miterlimit:10}.cls-2{fill:#f68c6b}</style></defs><title>car-2</title><g id="Layer_2" data-name="Layer 2"><g id="Layer_1-2" data-name="Layer 1"><path class="cls-1" d="M31.19 61.89a30.69 30.69 0 1 1 30.7-30.7 30.78 30.78 0 0 1-30.7 30.7z" id="_Group_" data-name="&amp;lt;Group&amp;gt;"/><g id="_Group_2" data-name="&amp;lt;Group&amp;gt;"><g id="_Group_3" data-name="&amp;lt;Group&amp;gt;"><g id="_Group_4" data-name="&amp;lt;Group&amp;gt;"><path id="_Path_" data-name="&amp;lt;Path&amp;gt;" class="cls-2" transform="rotate(-47.93 29.296 25.496)" d="M18.86 24.1h20.87v2.79H18.86z"/></g></g><g id="_Group_5" data-name="&amp;lt;Group&amp;gt;"><g id="_Group_6" data-name="&amp;lt;Group&amp;gt;"><path id="_Path_2" data-name="&amp;lt;Path&amp;gt;" class="cls-2" transform="rotate(-47.93 36.582 32.076)" d="M26.15 30.68h20.87v2.79H26.15z"/></g></g><g id="_Group_7" data-name="&amp;lt;Group&amp;gt;"><g id="_Group_8" data-name="&amp;lt;Group&amp;gt;"><path id="_Path_3" data-name="&amp;lt;Path&amp;gt;" class="cls-2" transform="rotate(-47.93 32.94 28.786)" d="M22.5 25.96h20.87v5.64H22.5z"/></g></g><g id="_Group_9" data-name="&amp;lt;Group&amp;gt;"><g id="_Group_10" data-name="&amp;lt;Group&amp;gt;"><path id="_Path_4" data-name="&amp;lt;Path&amp;gt;" class="cls-2" d="M18.66 41.81l-.88 3.77 3.66-1.26a3.87 3.87 0 0 0-2.78-2.51z"/></g></g><g id="_Group_11" data-name="&amp;lt;Group&amp;gt;"><g id="_Group_12" data-name="&amp;lt;Group&amp;gt;"><path id="_Path_5" data-name="&amp;lt;Path&amp;gt;" class="cls-2" d="M18.94 41a4.52 4.52 0 0 1 3.26 3l7.75-2.67-9.15-8.28z"/></g></g></g></g></g></svg>