<svg xmlns="http://www.w3.org/2000/svg" viewBox="0 0 62.39 62.39"><defs><style>.cls-1{fill:none;stroke:#3c7385;stroke-miterlimit:10}.cls-2{fill:#f68c6b}</style></defs><title>car-7</title><g id="Layer_2" data-name="Layer 2"><g id="Layer_1-2" data-name="Layer 1"><g id="_Group_" data-name="&amp;lt;Group&amp;gt;"><g id="_Group_2" data-name="&amp;lt;Group&amp;gt;"><path id="_Path_" data-name="&amp;lt;Path&amp;gt;" class="cls-1" d="M31.19 61.89a30.69 30.69 0 1 1 30.7-30.7 30.78 30.78 0 0 1-30.7 30.7z"/></g></g><g id="_Group_3" data-name="&amp;lt;Group&amp;gt;"><g id="_Group_4" data-name="&amp;lt;Group&amp;gt;"><g id="_Group_5" data-name="&amp;lt;Group&amp;gt;"><path id="_Path_2" data-name="&amp;lt;Path&amp;gt;" class="cls-2" d="M47.77 32a2.49 2.49 0 0 0-2.49-2.49H37a2.15 2.15 0 0 1 0-.87 13.73 13.73 0 0 1 1.5-3.83c.62-1.08.86-6.19-.27-7a2.49 2.49 0 0 0-3.46.64l-1.41 5.14-2.8 4.06c-.51.73-3.13 3.77-3.13 3.77V45l4.36 1.26h9.64a2.48 2.48 0 0 0 2.31-3.4 2.48 2.48 0 0 0 1.09-4.24 2.48 2.48 0 0 0 1.18-4.28A2.48 2.48 0 0 0 47.77 32z"/></g></g><g id="_Group_6" data-name="&amp;lt;Group&amp;gt;"><g id="_Group_7" data-name="&amp;lt;Group&amp;gt;"><path id="_Path_3" data-name="&amp;lt;Path&amp;gt;" class="cls-2" d="M16.77 30.27h9.08v16.05h-9.08z"/></g></g></g></g></g></svg>