<svg xmlns="http://www.w3.org/2000/svg" viewBox="0 0 62.39 62.39"><defs><style>.cls-1{fill:none;stroke:#3c7385;stroke-miterlimit:10}.cls-2{fill:#f68c6b}</style></defs><title>car-5</title><g id="Layer_2" data-name="Layer 2"><g id="Layer_1-2" data-name="Layer 1"><g id="_Group_" data-name="&amp;lt;Group&amp;gt;"><g id="_Group_2" data-name="&amp;lt;Group&amp;gt;"><path id="_Path_" data-name="&amp;lt;Path&amp;gt;" class="cls-1" d="M31.19 61.89a30.69 30.69 0 1 1 30.7-30.7 30.78 30.78 0 0 1-30.7 30.7z"/></g></g><path id="_Compound_Path_" data-name="&amp;lt;Compound Path&amp;gt;" class="cls-2" d="M46.15 33.29a14.61 14.61 0 0 0-.29-5 .48.48 0 0 0 0-.28l-.19-.72h-.09a14.93 14.93 0 0 0-2-4.18.49.49 0 0 0-.1-.43l-.37-.49-.11-.01-.08.07a.45.45 0 0 1 .11.25 15.22 15.22 0 0 0-3.52-3.26c0-.17-.11-.35-.43-.55l-.1-.06-.2-.12-.24-.14h-.05l-.24-.13a11.86 11.86 0 0 0-4.54-1.32h-.34l-.35-.07a12.9 12.9 0 0 0-2.32-.21 12.43 12.43 0 0 0-3 .38l-.29.08L27 17c-.38.13-.45.3-.43.43a15.37 15.37 0 0 0-4.3 2.22.37.37 0 0 1 .19-.33l-.06-.09-.1.07-.49.37a.45.45 0 0 0-.2.49 15.16 15.16 0 0 0-3.17 3.59.36.36 0 0 1 0-.2l-.09-.06-.38.64a.5.5 0 0 0 0 .4 14.71 14.71 0 0 0-1.62 4.56h-.06v.31l-.06.47a.45.45 0 0 0 0 .22 14.46 14.46 0 0 0 .32 5v.12l.07.27.08.27v.08l.16.5.24.61h.1c-.09-.23-.16-.45-.24-.68a4.51 4.51 0 0 0 1.19.77l.65.3a13.2 13.2 0 0 0 1.65 3.91l-.31-.24a3 3 0 0 1-1-.68l-.09.06.46.59a3 3 0 0 0 1 .67l.51.23a10.87 10.87 0 0 0 2.54 2.5v.07l.7.39h.08l.28.13c.27.15.55.28.84.4l.19.08.28.11v-.11l-.28-.11h-.08c.3.09.64.18 1 .26a3.43 3.43 0 0 0 1.22.57h.19v-.06a2.52 2.52 0 0 1-.86-.38c.63.13 1.3.25 2 .35v.34h.17c.08 0 .16-.09.24-.31q1 .13 2 .19a3.34 3.34 0 0 1-.87.12h-.15v.11h.35a4.18 4.18 0 0 0 1.29-.21h1.1v.07l.37-.06.48-.09h.17l.77-.18a11.31 11.31 0 0 0 3.51-1.8 3.24 3.24 0 0 0 1.29-.4l.6-.44-.07-.09a3 3 0 0 1-1.11.38A13.25 13.25 0 0 0 42 40.39a3.21 3.21 0 0 0 1.85-.7l.24-.38.14-.25v-.05h.1l-.09-.05v.06a3 3 0 0 1-1.75.67A15.57 15.57 0 0 0 44 35.12a4.1 4.1 0 0 0 1.9-.65 14.38 14.38 0 0 1-1.29 3.85h.1l.29-.57.42-1a14.5 14.5 0 0 0 .58-2.59.44.44 0 0 0 0-.1l.07-.47v-.3zm-23.7-14zm17 .06a15.28 15.28 0 0 1 3.52 3.34 2.39 2.39 0 0 1-1.33.48 15.35 15.35 0 0 0-3-3.53 1.54 1.54 0 0 0 .78-.26zm-7.15 3.49c-1.41-.2-2.83-.45-4.1-.74a16.85 16.85 0 0 1 2.08-3.1c.78.17 1.65.33 2.52.45-.15.96-.31 2.1-.5 3.39zm.68.8c1.56.2 3.06.34 4.49.41a27 27 0 0 1 .63 4.53c-1.76-.08-3.64-.25-5.6-.51.19-1.57.35-3.07.5-4.43zM26.16 27a30.41 30.41 0 0 1 1.7-4.22c1.35.3 2.85.57 4.34.78l-.63 4.41c-1.87-.3-3.73-.63-5.41-.97zm5.29 1.78c-.23 1.6-.46 3.28-.7 5-2-.29-4.08-.66-5.92-1.07a36.42 36.42 0 0 1 1.09-4.91c1.71.33 3.63.68 5.53.95zm-3.92-6.8a27.11 27.11 0 0 1-3.19-.98 15 15 0 0 1 3.54-2.68 16.22 16.22 0 0 0 1.93.57 16.21 16.21 0 0 0-2.28 3.06zm-.37.64a27.38 27.38 0 0 0-1.84 4.18 35.31 35.31 0 0 1-4.22-1.24 18.21 18.21 0 0 1 2.69-3.94 28.73 28.73 0 0 0 3.37.97zm-2.1 5a32.11 32.11 0 0 0-1.14 4.9 38.41 38.41 0 0 1-4.62-1.36 18.87 18.87 0 0 1 1.44-4.81 36.37 36.37 0 0 0 4.32 1.21zm-.35 6c1.84.41 3.89.78 5.92 1.06L30 39.2c-1.9-.27-3.8-.61-5.51-1a29.52 29.52 0 0 1 .21-4.68zM30.82 40c1.94.25 3.81.42 5.57.5a15 15 0 0 1-1.75 3.31c-1.4-.07-2.9-.2-4.45-.4.2-.91.41-2.06.63-3.41zm.12-.71c.23-1.41.47-3 .7-4.6 2.14.28 4.2.46 6.13.56a26.2 26.2 0 0 1-1.13 4.57c-1.79-.06-3.71-.23-5.7-.49zm.82-5.46c.23-1.67.45-3.35.65-5 2 .26 3.92.44 5.73.52a31.93 31.93 0 0 1-.25 5c-1.89-.02-3.99-.21-6.13-.48zM38 23.35a15.48 15.48 0 0 0-1.59-3.56h.55a11.89 11.89 0 0 0 1.35-.07 15.08 15.08 0 0 1 2.84 3.54 19.33 19.33 0 0 1-2.14.1zm1.24.74a20.09 20.09 0 0 0 2.3-.11 17.54 17.54 0 0 1 1.62 4.52 25.2 25.2 0 0 1-2.84.14H39a24.86 24.86 0 0 0-.78-4.54zm-.86-5.69h.07c.2.12.32.24.34.33a15.12 15.12 0 0 0-4-1.65 12.36 12.36 0 0 1 3.59 1.32zm.33.53a1.52 1.52 0 0 1-.69.23 12.79 12.79 0 0 0-3.65-2 15 15 0 0 1 4.34 1.77zm-4.81-1.81a11.92 11.92 0 0 1 3.79 2.08H36a7.39 7.39 0 0 0-2.18-2.11zm-.57 0h.27a6.5 6.5 0 0 1 2 2.09c-.71 0-1.47-.11-2.26-.21a16.35 16.35 0 0 0-.01-1.89zm0 2.43c.9.12 1.78.2 2.61.24a15.87 15.87 0 0 1 1.38 3.55 47.94 47.94 0 0 1-4.25-.39c.09-1.32.18-2.46.23-3.42zM32.89 17h.27c-.07.39-.16 1-.29 1.87-.75-.11-1.5-.24-2.18-.39a6 6 0 0 1 2.2-1.48zm-.24 0a6.79 6.79 0 0 0-2.4 1.49 15.11 15.11 0 0 1-1.67-.49 11.14 11.14 0 0 1 4-1zm-4.41.87l-.24-.14a1.72 1.72 0 0 1-.5-.33 15 15 0 0 1 4.07-.56h.66a12.07 12.07 0 0 0-3.99 1.01zm-.83-.67c0-.05.1-.13.31-.2a13 13 0 0 1 2.86-.32c.38 0 .76 0 1.14.05h-.35a15.22 15.22 0 0 0-4 .53.12.12 0 0 1 .03-.08zm-.73.47a1.81 1.81 0 0 0 .63.44l.22.1a15.2 15.2 0 0 0-3.66 2.64l-.48-.22a2.78 2.78 0 0 1-1-.68 15.37 15.37 0 0 1 4.28-2.3zm-4.93 2.79a3.06 3.06 0 0 0 1.07.75l.48.22a17.75 17.75 0 0 0-2.77 3.91l-.65-.34a3.53 3.53 0 0 1-1.3-.92 15.28 15.28 0 0 1 3.16-3.64zm-3.64 15.8a3.54 3.54 0 0 1-1.34-.95 14.33 14.33 0 0 1-.34-4.86 4.35 4.35 0 0 0 1.41 1l.71.32a16.12 16.12 0 0 0 .16 4.8zm.55-5.39l-.66-.33a3.81 3.81 0 0 1-1.44-1 14.78 14.78 0 0 1 1.61-4.69 3.93 3.93 0 0 0 1.34.93l.64.29a18.1 18.1 0 0 0-1.49 4.78zm.52 1.13a38.43 38.43 0 0 0 4.62 1.35 26.6 26.6 0 0 0-.19 4.7 35.39 35.39 0 0 1-4.29-1.26 16.54 16.54 0 0 1-.14-4.79zm.3 5.57a35.73 35.73 0 0 0 4.18 1.22 15.46 15.46 0 0 0 .74 3.66 27.77 27.77 0 0 1-3.32-1 13 13 0 0 1-1.6-3.92zm4.81 7.16a10 10 0 0 1-2.76-2.6 27.52 27.52 0 0 0 3.09.9 6.56 6.56 0 0 0 1.45 2.24 15.84 15.84 0 0 1-1.78-.58zm4.8 1.11c-.85-.12-1.7-.28-2.47-.45a5.9 5.9 0 0 1-1.32-2.21c1.26.28 2.66.53 4 .73-.07.81-.15 1.47-.2 1.89zm.32-2.45c-1.48-.21-3-.48-4.3-.77a16.33 16.33 0 0 1-.61-3.63c1.68.37 3.53.7 5.38 1-.18 1.24-.34 2.4-.47 3.36zm2.74 2.75c-.81 0-1.66-.11-2.55-.23.14-.41.3-1.05.48-1.9 1.45.19 2.85.32 4.18.38a6.21 6.21 0 0 1-2.11 1.71zm2.33 0a11.51 11.51 0 0 1-1.33.07h-.39A7 7 0 0 0 35 44.38h1a19.56 19.56 0 0 0 2-.09 10.71 10.71 0 0 1-3.51 1.77zm4.18-2.27a19.69 19.69 0 0 1-2.29.11h-1a14.37 14.37 0 0 0 1.88-3.3h1.33a25.19 25.19 0 0 0 2.79-.13 13 13 0 0 1-2.71 3.24zm3.12-4a25.18 25.18 0 0 1-2.92.15h-1.32a23.86 23.86 0 0 0 1.18-4.56h1.45a27.41 27.41 0 0 0 3.11-.15 15.89 15.89 0 0 1-1.49 4.45zm1.62-5.43a27.11 27.11 0 0 1-3.13.16h-1.44a28.44 28.44 0 0 0 .19-5h1.34a25.85 25.85 0 0 0 2.92-.14 17.88 17.88 0 0 1 .13 4.87zM42 23.91a2.71 2.71 0 0 0 1.4-.52 15.13 15.13 0 0 1 2.05 4.37 3.19 3.19 0 0 1-1.76.65 17.2 17.2 0 0 0-1.69-4.5zm3.92 9.61a3.4 3.4 0 0 1-1.92.72 17.26 17.26 0 0 0-.14-5 3.6 3.6 0 0 0 1.81-.65 14.62 14.62 0 0 1 .26 4.93z"/></g></g></svg>