<svg xmlns="http://www.w3.org/2000/svg" viewBox="0 0 62.39 62.39"><defs><style>.cls-1{fill:none;stroke:#3c7385;stroke-miterlimit:10}.cls-2{fill:#f68c6b}</style></defs><title>car-8</title><g id="Layer_2" data-name="Layer 2"><g id="Layer_1-2" data-name="Layer 1"><g id="_Group_" data-name="&amp;lt;Group&amp;gt;"><g id="_Group_2" data-name="&amp;lt;Group&amp;gt;"><path id="_Path_" data-name="&amp;lt;Path&amp;gt;" class="cls-1" d="M31.19 61.89a30.69 30.69 0 1 1 30.7-30.7 30.78 30.78 0 0 1-30.7 30.7z"/></g></g><path id="_Compound_Path_" data-name="&amp;lt;Compound Path&amp;gt;" class="cls-2" d="M46.27 22.19h-9v-2.13a2 2 0 0 0-2-2h-7.82a2 2 0 0 0-2 2v2.13h-9.3a2 2 0 0 0-2 2v17.62a2 2 0 0 0 2 2h30.12a2 2 0 0 0 2-2V24.23a2 2 0 0 0-2-2.04zm-19.5-2.13a.68.68 0 0 1 .68-.68h7.82a.68.68 0 0 1 .68.68v2.13h-9.18zm9.47 13.78h-3.55v3.55H30v-3.55h-3.51v-2.65H30v-3.55h2.65v3.55h3.55z"/></g></g></svg>