<svg xmlns="http://www.w3.org/2000/svg" viewBox="0 0 62.39 62.39"><defs><style>.cls-1{fill:none;stroke:#3c7385;stroke-miterlimit:10}.cls-2{fill:#f68c6b}</style></defs><title>car-4</title><g id="Layer_2" data-name="Layer 2"><g id="Layer_1-2" data-name="Layer 1"><g id="_Group_" data-name="&amp;lt;Group&amp;gt;"><g id="_Group_2" data-name="&amp;lt;Group&amp;gt;"><path id="_Path_" data-name="&amp;lt;Path&amp;gt;" class="cls-1" d="M31.19 61.89a30.69 30.69 0 1 1 30.7-30.7 30.78 30.78 0 0 1-30.7 30.7z"/></g></g><g id="_Group_3" data-name="&amp;lt;Group&amp;gt;"><circle id="_Path_2" data-name="&amp;lt;Path&amp;gt;" class="cls-2" cx="27.56" cy="23.52" r="6.2"/><path id="_Path_3" data-name="&amp;lt;Path&amp;gt;" class="cls-2" d="M32.73 37.26a5.68 5.68 0 0 1-.22-7.26 9.05 9.05 0 0 1-9.84 0 19.54 19.54 0 0 0-2.91 10.57H31a12.14 12.14 0 0 1 1.41-2.83z"/><path id="_Path_4" data-name="&amp;lt;Path&amp;gt;" class="cls-2" d="M32.36 33.49a4.63 4.63 0 1 0 .75-2.49 4.64 4.64 0 0 0-.75 2.49z"/><path id="_Path_5" data-name="&amp;lt;Path&amp;gt;" class="cls-2" d="M40.67 38.28A6.78 6.78 0 0 1 37 39.37a6.56 6.56 0 0 1-1.66-.21 6.63 6.63 0 0 1-2-.87 10.59 10.59 0 0 0-1.15 2.23 16.64 16.64 0 0 0-1 5.67h11.65a14.64 14.64 0 0 0-2.17-7.91z"/></g></g></g></svg>