<svg width="50" height="50" viewBox="0 0 50 50" xmlns="http://www.w3.org/2000/svg"><title>Group 2 Copy</title><g fill="none" fill-rule="evenodd"><circle fill="#E98667" cx="25" cy="25" r="25"/><path d="M24.677 14.286c-5.74 0-10.391 4.761-10.391 10.637 0 2.116.604 4.088 1.645 5.746a1.55 1.55 0 0 1 .13.201c.123.23.196.494.196.776 0 .096-.968 4-.968 4h.002a.571.571 0 0 0 .41.69c.117.028.23.019.334-.022l.087-.043 3.077-1.502c.047-.027.096-.052.148-.075l.003-.001a1.539 1.539 0 0 1 1.166-.019l.013.005c.027.01.056.023.085.036 1.246.545 2.62.846 4.063.846 5.74 0 10.39-4.763 10.39-10.637 0-5.877-4.651-10.638-10.39-10.638zm-4.333 12.337c-.838 0-1.515-.694-1.515-1.552 0-.857.677-1.552 1.515-1.552.838 0 1.516.695 1.516 1.552 0 .858-.678 1.552-1.516 1.552zm4.333 0c-.839 0-1.516-.694-1.516-1.552 0-.857.677-1.552 1.516-1.552.838 0 1.515.695 1.515 1.552 0 .858-.677 1.552-1.515 1.552zm4.332 0c-.838 0-1.515-.694-1.515-1.552 0-.857.677-1.552 1.515-1.552.838 0 1.516.695 1.516 1.552 0 .858-.678 1.552-1.516 1.552z" fill="#FFF"/></g></svg>