<svg width="50" height="50" viewBox="0 0 50 50" xmlns="http://www.w3.org/2000/svg"><title>Group Copy</title><g fill="none" fill-rule="evenodd"><circle fill="#E98667" cx="25" cy="25" r="25"/><g fill="#FFF"><path d="M35.098 20.437a.599.599 0 0 0-.325.094s-9.227 7.215-9.305 7.268a1.395 1.395 0 0 1-1.586-.004c-.075-.052-9.3-7.266-9.3-7.266a.62.62 0 0 0-.946.527v9.998c0 .768.626 1.392 1.398 1.392h19.288c.771 0 1.397-.624 1.397-1.392v-9.998a.62.62 0 0 0-.62-.619z"/><path d="M23.616 26.131a1.11 1.11 0 0 0 1.302-.003l8.916-6.798.143-.12a.61.61 0 0 0 .157-.41.62.62 0 0 0-.622-.618H15.018a.62.62 0 0 0-.432 1.061l9.03 6.888z"/></g></g></svg>