<svg xmlns="http://www.w3.org/2000/svg" viewBox="0 0 212.24 150.12"><defs><style>.cls-1{fill:#3c7385}</style></defs><title>Asset 20</title><g id="Layer_2" data-name="Layer 2"><g id="Layer_1-2" data-name="Layer 1"><g id="_Group_" data-name="&amp;lt;Group&amp;gt;"><path id="_Path_" data-name="&amp;lt;Path&amp;gt;" class="cls-1" d="M4.57 117.72V87.27a4.42 4.42 0 0 0-1.07-2.39 12.87 12.87 0 0 0-2.28-2.07A2.83 2.83 0 0 1 0 80.29C.06 78 0 78 2.36 77.64c.38-.06 1-.5 1-.77 0-1.37.87-1.43 1.89-1.42h52.08c1.82 0 1.71 0 1.44 1.74s-.55 3.49.93 5a2.92 2.92 0 0 1 .55 1.9v43.84a4.1 4.1 0 0 1-1.25 2.64 7.5 7.5 0 0 0-2.46 6.43c.22 3.81.06 7.65.07 11.47 0 .81.07 1.66-1.13 1.61s-1-.85-1-1.59c0-11.92-.07-23.83.06-35.75 0-3.64-.09-7.14-1.94-10.39-2.76-4.85-7.15-7.67-12.15-9.72a1.65 1.65 0 0 0-1.12 0c-5.42 2.17-10.17 5.25-12.57 10.82a18 18 0 0 0-1.45 6.81c-.1 12.7 0 25.4.05 38.1 0 1.41-.57 1.74-1.85 1.73-5.74 0-11.48-.07-17.21 0-1.4 0-1.76-.48-1.75-1.79v-30.6z"/><path id="_Path_2" data-name="&amp;lt;Path&amp;gt;" class="cls-1" d="M180.85 75.46h26.19c1 0 1.66.17 1.88 1.36.07.37 1 .83 1.53.83 1.34 0 1.7.48 1.78 1.82a4 4 0 0 1-1.88 4c-2.13 1.37-2.7 3.27-2.69 5.82.12 19.66.05 39.33.1 59 0 1.4-.36 1.88-1.8 1.86q-8.6-.1-17.21 0c-1.46 0-1.81-.52-1.8-1.89q.1-19.12.1-38.25c0-6.12-3.12-10.6-7.92-14a45.84 45.84 0 0 0-5.78-3.17 2.1 2.1 0 0 0-1.54-.17c-5.89 2.4-10.94 5.82-13.19 12.13a16.74 16.74 0 0 0-1 5.46c0 12.75 0 25.49.08 38.24 0 .76 0 1.56-1 1.59s-1-.83-1-1.55V135.3a3.74 3.74 0 0 0-1.21-3.16c-2.08-1.76-2.52-4-2.5-6.66.13-13.73 0-27.46.1-41.19a5.29 5.29 0 0 1 .92-2.64 5.34 5.34 0 0 0 .34-4.78c-.4-1.22 0-1.36 1-1.35h26.48z"/><path id="_Path_3" data-name="&amp;lt;Path&amp;gt;" class="cls-1" d="M32.51 59.1H6.91c-.52 0-1.47-.27-1.49-.49a7.1 7.1 0 0 1 .4-2 12 12 0 0 0 .46-2.49c0-1 .32-1.44 1.34-1.42h5.3c1 0 1.48.38 1.39 1.41-.07.73 0 1.43 1 1.44s1.25-.61 1.18-1.46c-.1-1.14.49-1.43 1.52-1.39 1.52.05 3 0 4.56 0 1 0 1.51.33 1.41 1.37s.3 1.35 1.26 1.35 1.24-.43 1.16-1.27c-.1-1.12.49-1.46 1.51-1.45h5c1 0 1.45.42 1.35 1.43-.07.73 0 1.43 1 1.45s1.39-.55 1.31-1.5.39-1.42 1.4-1.39h4.12c.8 0 1.36.2 1.28 1.15s.19 1.3 1.13 1.32 1-.51 1.21-1.28a1.72 1.72 0 0 1 1.12-1.14c1.56-.13 3.13 0 4.7 0 .9 0 1.1.52 1.21 1.32.06.44.57.81.87 1.22.24-.41.66-.8.68-1.22.05-1 .49-1.4 1.48-1.34a20.61 20.61 0 0 0 2.5 0c1.28-.08 2.28.06 2.09 1.76 0 .23.42.52.65.78.25-.25.66-.47.71-.75a12.74 12.74 0 0 0 .06-2.05v-12.8c0-1.16.39-1.55 1.53-1.53 3.28.05 6.57.07 9.86 0 1.23 0 1.49.49 1.48 1.57v15.45A2.09 2.09 0 0 0 76 57.37c.73.29 1.89.75 1.94 1.23.15 1.35.34 3.23-.41 4.05-2 2.23-2.08 4.7-2 7.38s-.14 5.15 1.44 7.5c.67 1 .32 2.2-.43 3.29a5 5 0 0 0-.95 2.62q-.08 22.66 0 45.31a4.08 4.08 0 0 0 1.22 2.66 7.43 7.43 0 0 1 2.4 6.42c-.21 3.47-.09 7 0 10.44 0 1.29-.3 1.84-1.72 1.82-5.64-.07-11.28-.06-16.92 0-1.33 0-1.81-.37-1.79-1.75.07-4.27 0-8.53.07-12.8a3.74 3.74 0 0 1 1-2.45c2.1-1.95 2.72-4.2 2.7-7.06-.13-14.27 0-28.54-.07-42.81a3.71 3.71 0 0 0-.86-2.22 3 3 0 0 1-.52-3.54c1.61-2.57 1.26-5.34 1.38-8.11.11-2.43-.12-4.64-2-6.46a2.91 2.91 0 0 1-.59-2c.06-1.44-.5-1.84-1.9-1.83-8.48.06-17 0-25.45 0z"/><path id="_Path_4" data-name="&amp;lt;Path&amp;gt;" class="cls-1" d="M179.7 59H154c-1.07 0-1.78.31-1.62 1.49A4 4 0 0 1 151 64a4.35 4.35 0 0 0-1.21 3.48 44.16 44.16 0 0 1 0 4.56A8.65 8.65 0 0 0 151 77a3.23 3.23 0 0 1-.37 3.95 3.32 3.32 0 0 0-.78 1.94q-.07 23 0 46a3.51 3.51 0 0 0 1.08 2.27 8 8 0 0 1 2.61 6.94c-.23 3.42-.09 6.86 0 10.29 0 1.24-.46 1.62-1.65 1.61-5.74 0-11.48-.05-17.21 0-1.32 0-1.7-.51-1.69-1.73 0-4.27 0-8.53.09-12.8a4.05 4.05 0 0 1 1.13-2.56 8.51 8.51 0 0 0 2.56-6.81c-.13-14.27 0-28.54-.08-42.81a4.35 4.35 0 0 0-.89-2.48 3 3 0 0 1-.4-3.56 10.47 10.47 0 0 0 1.33-6.48 14.73 14.73 0 0 1 0-2.65 5.59 5.59 0 0 0-1.68-4.93c-1.37-1.38-.78-3.15-.7-4.76 0-.38.88-.89 1.43-1 1.45-.36 1.9-1.13 1.87-2.64-.09-5 0-10 0-15 0-1.31.36-1.81 1.77-1.76 3.18.11 6.37.08 9.56 0 1.32 0 1.66.45 1.64 1.72-.07 4.56 0 9.12 0 13.68a2.08 2.08 0 0 0 0 .87 4.46 4.46 0 0 0 .75.86c.22-.27.66-.56.63-.8-.16-1.57.67-1.84 2-1.71a12 12 0 0 0 2.06 0c1.24-.09 2.15.1 2 1.69 0 .27.48.58.74.88.28-.31.83-.65.81-.94-.13-1.53.73-1.69 1.91-1.63s2.35 0 3.53 0c.92 0 1.56.18 1.53 1.26 0 .86.41 1.25 1.27 1.22s1.23-.47 1.18-1.31.42-1.2 1.27-1.18h4.12c1 0 1.47.35 1.38 1.39-.07.79 0 1.49 1.08 1.52s1.3-.64 1.23-1.53c-.08-1 .45-1.39 1.42-1.37h5c.93 0 1.4.38 1.33 1.31s.27 1.37 1.23 1.4 1.4-.43 1.31-1.43.41-1.31 1.34-1.29h4.71c1 0 1.49.36 1.38 1.4-.08.84.11 1.47 1.14 1.48s1.19-.7 1.1-1.5c-.12-1.06.38-1.39 1.36-1.37h5.15c1 0 1.44.36 1.4 1.4a3.74 3.74 0 0 0 .85 3c.84.94.05 2-1.37 2H179.7z"/><path id="_Path_5" data-name="&amp;lt;Path&amp;gt;" class="cls-1" d="M106.07 59.07H82.24c-1.24 0-2.1-.08-2-1.7 0-.43-.73-1.1-1.27-1.32-2.18-.91-2.19-.86-2.18-3.15V29.36c0-1.88.07-2 2-2h1.18c.95 0 1.34.42 1.3 1.34a9.38 9.38 0 0 0 0 2.05c.06.33.49.59.76.88.31-.3.63-.59.91-.91.07-.08 0-.28 0-.43-.08-3.2-.07-2.87 3-2.93h.59c3.11 0 3.08 0 3.26 3.07 0 .48.47.93.71 1.39.27-.49.75-1 .77-1.46.1-3 .06-3 3-3 3.68 0 3.13-.19 3.23 3 0 .48.44.94.68 1.41a4.16 4.16 0 0 0 .63-1.39c.1-3.06-.59-3 3-3 2.32 0 2.38 0 2.3 2.36 0 1.35.41 1.82 1.77 1.81s2.16-.11 2.11-1.77c-.06-2.39 0-2.39 2.38-2.42h1.18c1.5-.15 2.07.53 1.87 2a4.4 4.4 0 0 0 0 1.46 3.2 3.2 0 0 0 .54.91c.23-.32.6-.62.66-1a10.79 10.79 0 0 0 0-2.05c0-.94.42-1.35 1.33-1.35h3.53c1 0 1.45.38 1.4 1.4a12 12 0 0 0 .06 2.35 1 1 0 0 0 .76.67c.25 0 .66-.44.7-.72a12.53 12.53 0 0 0 0-2.35c-.05-.93.28-1.37 1.26-1.34q2.06.06 4.12 0c1 0 1.45.36 1.38 1.39a7 7 0 0 0 0 2c.08.35.6.6.92.89a9.18 9.18 0 0 0 .72-1c.09-.15 0-.38 0-.58 0-2.8.77-3.42 3.55-2.7.4.11.84 1 .85 1.53.08 3.23.05 6.47.06 9.71 0 4.9-.07 9.81 0 14.71a2.08 2.08 0 0 1-1.75 2.42c-1.15.27-1.85.8-1.7 2.12.12 1-.65 1.06-1.36 1.06h-24.38z"/><path id="_Path_6" data-name="&amp;lt;Path&amp;gt;" class="cls-1" d="M106.19 75.47h25.89c1 0 1.5.1 1.1 1.43-.53 1.75-.81 3.61.77 5.21a3.16 3.16 0 0 1 .53 2v43.69a4 4 0 0 1-1.13 2.69c-2.08 1.89-2.65 4.11-2.51 6.83.19 3.67.07 7.35 0 11 0 1.71-.05 1.64-2.54 1.71-1.38 0-1.62-.57-1.61-1.77v-33c0-1 .05-1.83-1.18-2.2-.29-.09-.51-1-.5-1.46.1-6.51-1.07-12.68-4.74-18.2a21.81 21.81 0 0 0-13.39-9.15c-1.27-.32-2.9.28-4.24.79a22 22 0 0 0-14.17 16.46c-.8 3.4-.86 7-1.29 10.46-.05.44-.24 1.18-.48 1.23-1.35.27-1.17 1.26-1.17 2.18v32.66c0 .64-.18 1.78-.43 1.83a10.6 10.6 0 0 1-3.31 0c-.21 0-.43-.91-.43-1.4 0-4.27-.08-8.53 0-12.8a4.81 4.81 0 0 0-1.6-4.05 6.57 6.57 0 0 1-2.13-5.48c.09-13.63 0-27.26 0-40.89a7.86 7.86 0 0 1 1.16-4 7.1 7.1 0 0 0 .34-4.24c-.24-1.51-.42-1.56 1.17-1.56z"/><path id="_Path_7" data-name="&amp;lt;Path&amp;gt;" class="cls-1" d="M52.33 128.69v19.56c0 1.4-.38 2-1.82 1.86a20.23 20.23 0 0 0-2.94 0c-1 .05-1.39-.35-1.38-1.37v-13.09c0-1.62.13-3.26-1.5-4.35-.26-.18-.29-.8-.31-1.22v-3.67a4.89 4.89 0 0 0-4.33-4.59 4.93 4.93 0 0 0-4.69 4.56 25.55 25.55 0 0 0 0 2.65 3.56 3.56 0 0 1-1.05 3.16 3.53 3.53 0 0 0-.62 2.31c-.06 4.66-.07 9.31 0 14 0 1.31-.44 1.76-1.71 1.66a16.69 16.69 0 0 0-2.79 0c-1.3.11-1.71-.43-1.7-1.7q.07-9.7 0-19.41c0-6.37-.2-12.74-.12-19.11.07-6 3.58-9.83 8.25-13.08 3.21-2.23 5.9-1.91 8.9.26 3.17 2.28 6 4.8 7.19 8.63a14 14 0 0 1 .65 4c.07 6.32 0 12.64 0 19z"/><path id="_Path_8" data-name="&amp;lt;Path&amp;gt;" class="cls-1" d="M184.77 128.61v19.71c0 1.33-.35 1.79-1.74 1.78-4.41-.06-4.41 0-4.41-4.41v-11a3.9 3.9 0 0 0-1.24-3.16 2.47 2.47 0 0 1-.58-1.56c-.09-1.32 0-2.65-.06-4a4.73 4.73 0 0 0-5.27-4.13 5.36 5.36 0 0 0-3.73 4.28v2.94a3.67 3.67 0 0 1-1 3.06 3.79 3.79 0 0 0-.69 2.43c-.06 4.61-.07 9.22 0 13.83 0 1.3-.41 1.79-1.69 1.71a27.19 27.19 0 0 0-3.09 0c-1 .05-1.41-.39-1.4-1.39v-7.21c0-9.61.07-19.22 0-28.83 0-2.77-.12-5.48 1.06-8.06 2.17-4.75 6.1-7.53 10.72-9.51a2.16 2.16 0 0 1 1.54.08c4.3 1.9 8 4.47 10.24 8.82a13 13 0 0 1 1.38 6.09v18.53z"/><path id="_Path_9" data-name="&amp;lt;Path&amp;gt;" class="cls-1" d="M106.18 73.28h-26c-2.41 0-2.41 0-2.45-2.41a13.47 13.47 0 0 1 .05-2.79 16.4 16.4 0 0 1 1.08-3.22A14.68 14.68 0 0 1 80.4 62a2.14 2.14 0 0 1 1.53-.67h48.22c1.06 0 1.77.14 1.94 1.42a3.71 3.71 0 0 0 1 1.72 4.65 4.65 0 0 1 1.39 3.86 19.79 19.79 0 0 0 0 2.64c0 2.38 0 2.37-2.29 2.37h-26z"/><path id="_Path_10" data-name="&amp;lt;Path&amp;gt;" class="cls-1" d="M179.62 73.28h-25.43c-2.08 0-2.11 0-2.11-2.13a19.18 19.18 0 0 0 0-2.2 5.57 5.57 0 0 1 1.61-4.81c.3-.31.71-.72.71-1.09 0-2 1.32-1.77 2.63-1.77h48.66a4.37 4.37 0 0 1 1 0c.52.13 1 .35 1.54.53a8 8 0 0 0-.82 1.2 4 4 0 0 0-.4 1.49c0 2.3-.1 4.61 0 6.91.06 1.43-.42 1.86-1.83 1.85-8.53-.05-17.05 0-25.58 0z"/><path id="_Path_11" data-name="&amp;lt;Path&amp;gt;" class="cls-1" d="M32.72 73.3H7.14c-1.83 0-1.92-.1-1.91-1.9v-6c0-1 .17-2-.93-2.73-.62-.43-.36-1.22.53-1.32a21.23 21.23 0 0 1 2.5 0h48.82a1.38 1.38 0 0 1 1.62 1.25A5.38 5.38 0 0 0 59 64.61a4.89 4.89 0 0 1 1.28 3.9 18.54 18.54 0 0 0 0 3.23c.08 1.16-.4 1.56-1.53 1.56H32.73z"/><path id="_Path_12" data-name="&amp;lt;Path&amp;gt;" class="cls-1" d="M68.91 0c.28 1.56 1.9 2.54 1.5 4.36-.08.35.35.91.67 1.23a11 11 0 0 1 3.52 8.52c-.15 6.66-.07 13.33 0 20 0 1.42-.47 1.87-1.88 1.82-3.13-.09-6.27-.06-9.41 0-1.23 0-1.62-.44-1.61-1.64 0-5.93-.1-11.86.07-17.79a16.37 16.37 0 0 1 4.35-10.65 4.12 4.12 0 0 0 .93-1.43c.23-.76.13-1.64.42-2.37A11 11 0 0 1 68.91 0z"/><path id="_Path_13" data-name="&amp;lt;Path&amp;gt;" class="cls-1" d="M143.93.07c.42 1.53.82 3.07 1.27 4.59a2.14 2.14 0 0 0 .54.86 16.85 16.85 0 0 1 4.83 11.93c.13 5.54 0 11.08.06 16.62 0 1.44-.49 1.89-1.87 1.86-3.14-.07-6.28-.06-9.41 0-1.28 0-1.7-.46-1.69-1.73 0-6.81.12-13.63 0-20.44a11 11 0 0 1 3.29-7.89c.35-.39.94-.9.88-1.27-.31-1.87 1.14-3 1.65-4.48z"/></g></g></g></svg>