<svg xmlns="http://www.w3.org/2000/svg" viewBox="0 0 272.88 130.37"><defs><style>.cls-1{isolation:isolate}.cls-2{mix-blend-mode:multiply}.cls-3{fill:#3e7385}.cls-3,.cls-4,.cls-5{stroke:#3e7385;stroke-miterlimit:10}.cls-4{fill:#fff}.cls-5{fill:#fefefe}</style></defs><title>Asset 18</title><g class="cls-1"><g id="Layer_2" data-name="Layer 2"><g id="Layer_1-2" data-name="Layer 1"><g id="_Group_" data-name="&amp;lt;Group&amp;gt;" class="cls-2"><path id="_Compound_Path_" data-name="&amp;lt;Compound Path&amp;gt;" class="cls-3" d="M57.85 60.15c.89-1.34.31-2.8.36-4.21v-1.2C60.89 52 61.92 48 65.38 45.9c.8-.48.52-1.38.53-2.11v-7c1.07 1.58.63 3.26.78 4.88.13 1.33-.59 3 .34 4 2.11 2.21 4.22 4.27 5.7 7.09.85 1.6 1.77 2.92 1.61 4.79-.11 1.28-.17 2.59 1.09 3.44s1.51 2.29 1.5 3.8c0 6.62 0 13.25-.06 19.87 0 1.36.22 1.91 1.69 1.19a36.33 36.33 0 0 1 4.49-1.74c1.14-.38 1.43-1.08 1.48-2.25.4-8.66-.33-17.31.65-26 .79-7 .25-14.23 1.62-21.28.27-1.4 0-3 .39-4.29a75.49 75.49 0 0 1 4.66-11.32c.62-1.23 1.29-2.5 2.87-2.36 2.06.19 4.61-.95 6 1.59a52.9 52.9 0 0 1 5.09 12.49A93.45 93.45 0 0 1 107.26 42c.75 7 .28 14.08 1 21.14.49 4.54.09 9.17.09 13.75 0 4.21 0 4.12 4.18 5.39 1.93.59 2.6.48 2.58-1.83-.16-24.89 0-49.77.83-74.65 0-1.13-.62-2.66.52-3.31s1.94 1 3 1.41c.13.06.32 0 .48 0 .38-3.39.38-3.4 3.94-3.4h7.39c3.82 0 3.82 0 4.74 3.43 3.82-2.25 3.78-2.25 3.9 2.33.68 26.24.85 52.49.69 78.74 0 4.64 0 4.55 4.61 5.83 1.82.51 2.3.25 2.28-1.7-.09-9.34.3-18.7-.17-28-.25-5 1-8.44 5.72-10.38 1.75-.72 2.18-2 2.08-3.85-.17-3 0-6.07 0-9.11h.8v6.49c0 .72-.18 1.68 1 1.58s.65-1 .66-1.57c.05-2.19 0-4.39 0-6.59h.88c-.29 3.84.49 7.58.76 11.33a122.85 122.85 0 0 1 0 18.08c-.4 5.12.8 8.8 5.79 10.81a30.14 30.14 0 0 1 3 1.93 2.8 2.8 0 0 1 1.56 2.89c-.1 2.43 0 4.87 0 7.57a26.39 26.39 0 0 1 3-1.24c2.4-.66 3.15-2 3.08-4.6-.22-7.55-.11-15.12-.08-22.68 0-.72-.59-2.05.67-2.06 1.91 0 1.42-1.21 1.45-2.21a7.07 7.07 0 0 1 .45-2.41c1.16-3 3.44-5.23 5.46-7.61a4.8 4.8 0 0 0 1.29-3.36c0-1.3-.6-2.85.54-3.89s1.13-2.16 1.11-3.46v-7.14c0-.5-.26-1.26.82-1.21.32 3 .07 5.91.76 8.89.43 1.85 2.35 3 1.94 5-1 3.88 1.8 6.13 3.85 8.58 1.72 2.07 3.37 4 2.82 6.94-.1.56-.07 1.42.73 1.35 2.35-.21 1.82 1.42 1.82 2.69v26.7c0 .87-.43 1.87.41 2.63-.76 2.8-.35 5.66-.46 8.5 0 .83.24 1.22 1.15 1.21 3.46 0 6.92.13 10.37-.06 2.27-.12-.65-1 .09-1.49a5 5 0 0 0 4.44-.32c4.32-2.07 9-2.5 13.25-.2 3.57 1.92 7.18 2.15 11 2 2.12-.06 4.25 0 6.37 0a18.8 18.8 0 0 1 6.4 1.5c.62.24 1.14.54.89 1.27s-1 .5-1.51.35c-1-.27-1.84-.86-2.9-.75-.51 1.78-.33 2.7 2 2.89a14 14 0 0 1 9.8 5.33c.37.44 1 .85.7 1.52-1.65 3.91-.34 8-.78 12-.16 1.43.74 1.41 1.74 1.4h8.16c1.23 0 2 .6 2 1.78s-.85 1.61-1.92 1.65H2.56c-1.17 0-2.08-.53-2.05-1.76s.9-1.7 2.1-1.68c2.29 0 4.6-.14 6.88 0s3-.41 3-2.82c-.16-9.09-.08-18.18 0-27.27 0-.81-.53-2 .95-2.22s3.65.66 3.41-2.23c0-.09.56-.33.87-.34h5.61c.54 0 1.08.18 1 .84-.23 1.9 1 1.83 2.24 1.69 1.58-.18 2 .45 2 2-.1 3.9 0 7.81 0 11.72v8.13c2.57-.79 3.58-2 3.48-4.52-.21-5.09 0-10.19-.06-15.29 0-1.08-.06-2.08 1.49-2 1.39 0 3 .33 2.85-2 0-.48.56-.58 1-.59h5.61c.58 0 1 .27.94.91-.18 1.72 1 1.74 2.11 1.61 1.83-.2 2.39.62 2.29 2.36-.12 2 0 4 0 6.55l7.19-5.15c1-2.85.18-5.8.44-8.69.1-1.13-.53-2.47 1.56-2.68 1-.1 1-1.57 1-2.61V66.95c0-.72.47-1.91-1-1.81-1.21.09-.8 1.12-.8 1.78v16c0 .81.24 1.68-.85 2.46v-22.8l.2-.58zM197.58 99.4v-37c0-.45.26-1-.48-1.23-.78.57-.42 1.4-.42 2.1v36c0 .53-.34 1.21.42 1.55.9-.21.48-.94.48-1.42zm-29.62 20a41 41 0 0 1 0-6.08c.18-1.66-.75-1.14-1.55-1.12-.07-1 1.1-1.43 1.22-2.57a51.21 51.21 0 0 0-8.19 0l1 2.09a1.35 1.35 0 0 0-1.11 1.55c.08 2.41 0 4.82 0 7.2 1.17.39.94-1.57 2.08-1.1.07 1.14-1.2 1.58-1.41 2.76h7c.52-.87-1.31-1.27-.6-2.27.6-.08 1.65 1.88 1.6-.49zM157.6 96h-8.27c.31 1.36 1.74 2 1.95 3.39-1.15.56-1-1.11-2.12-1.06 0 2.54.06 5.11 0 7.68 0 1 .68.78 1.12 1.05-1 1.52-1.26 3 0 4.57-.4.32-1.16.12-1.11 1.1.11 2.2 0 4.41 0 6.61 0 .75.13 1.21 1 .69a.57.57 0 0 1 .82.32c1.24 3 3.76 1.55 5.76 1.84.69-1-1.18-1.45-.45-2.42.61.19 1.59 1.64 1.48-.5a27.87 27.87 0 0 1 .05-5.85c.21-1.27-1.33-1.29-1.1-2.3 1.64-1.33.29-2.7 0-4.05.54-.14 1-.18 1-1-.08-2.57 0-5.14 0-7.71-1.26-.12-.94 1.36-1.83 1.44-.05 0-.13-.09-.17-.15a1.14 1.14 0 0 1-.09-.23c.21-1.29 1.36-2.03 1.96-3.42zm-7.6 29.86c-.31-.58-.84-.33-1.31-.26H106v.74h43.6c.4-.01.48-.26.4-.48zm16.53-31.53c.76 0 1.49.17 1.47-1-.06-2.85 0-5.71 0-8.57 0-2.43-1.45 0-2-.59-.07-1.26 1.41-1.14 1.9-2.28l-8.25-5.57v11.2c.62.46 1-1.16 1.8-.37-.12 1.09-1.44.94-1.81 2 0 .57 1.09.31 1.16 1 0 .05-.09.12-.15.16a1.2 1.2 0 0 1-.23.09c-1.42-.27-1 .83-1 1.44v9.23c2.27-.2 3.31-2.78 5.58-2.69-1 1.72-3.1 2.08-4.5 3.67l7.46 4.94c0-3.26-.08-6 0-8.79.06-1.58-1-.51-1.49-.8.98-1.7.98-1.7.02-3.07zm-17.36-36.46v9.12c1.07.28 1.58-.94 2.52-.84 0 1.53-1.75 1.32-2.29 2.41.18.93 1.8.67 1.78 1.88-.73.7-1.1-.51-2-.23 0 3.12.05 6.34 0 9.55 0 .89.58.94 1 1.26-1.15.89.16 1.76 0 2.65-.69-.08-1.06.08-1 .91v8.71c2.37-1.56 4.41-3 6.53-4.28 1.16-.7.06-1.23 0-1.83l2 .39v-9.82c0-2.21-1.68.44-2-.74 1.33-1.25 1.33-1.25 0-3.58 1.4.51 2.14.41 2-1.48-.19-2.83 0-5.68 0-8.55-1.56-.24-2.15 1.49-3.48 1.35 0-.07-.15-.18-.14-.2 1.47-1.79 1.71-3.76.64-5.4 1.13-.24 1.61 1.19 3 1 0-2.23.09-4.48 0-6.72-.1-2-1.54-2.66-3.19-1.59-1.35.88-2.63 1.87-4 2.65-.93.52-.37 1-.26 1.59-1.09.26-1.12.98-1.11 1.79zM178 116.26v-5.12-2.53-25.52V61.21c0-.33-.22-.34-.42-.31s-.13.2-.19.31c-.05 9.57-.12 19.13-.15 28.7v24.65c0 .75-.52 1.69.47 2.27.4-.03.41-.27.29-.57zm51.09-4.95v-4.82c0-.76.47-1.88-.74-2.12-.78-.15-1.88-.45-2.41.19s-.67 2.32 0 2.8c1 .78.72.73 0 1.47a2.57 2.57 0 0 0 0 2.87c.56.88 2-.11 2.9.79-1.4.46-3.65-.27-3.18 2.54.21 1.27.83 1.1 1.68 1.24 2.78.44 1.4-2 2.24-3.23.48 1.63 0 3.9 2.81 3.26 1.58-.36.83-1.39 1-2.14s.11-1.44-1.1-1.46c-.8 0-1.88.71-2.46-.52 3-.5 5.15-5 3.42-7.39-.62-.85-1.71-.5-2.57-.41s-.91 1.09-.68 1.59c1 2.13-.31 4.15-.15 6.22-1.05.24-.73-.43-.73-.87zm-9.33.08c0 .39.23.81.19 1.19-.36 3.81-.37 3.75 3.19 3.66 1.2 0 1.63-.34 1.6-1.57-.1-4.57-.11-9.14-.16-13.71.51-2.07-1.11-1.71-2.09-1.62s-2.76-.83-2.8 1.34c0 .94-.48 2 .33 2.81-.62 2.62-.02 5.27-.23 7.91zM201 108.48c-3.36-1-3.3-1-3.38 2.38 0 1.67.58 2 2 1.92.75-.05 2-.43 2.06.79 0 1.44-1.31 1-2.14 1-1.61.06-3.22 0-4.84 0-.59 0-1.28-.09-1.26-.91s.66-.86 1.28-.89h1.27c.42 0 .67-.4.62-.87s-.42-.63-.89-.52a27.19 27.19 0 0 0-9.23 4.12c-.62.44.81 1.76-.65 2.12 1.57 1-1 2.77.65 3.77.36.22.49.54.1.72-1.93.9.82 2.68-.72 3.78-.31.22.59.56 1.08.56h8.41c.61 0 1.25 0 1.26-.84s-.76-.71-1.29-.77c-.8-.09-2 .24-1.84-1.05s1.34-.66 2.1-.8c3.57-.67 6.9 1.24 10.43.93.61-.05 1.38.37 1.81-.47 2-.29 2.49-.76 2-3.2a20.63 20.63 0 0 1 .45-6.59 1.42 1.42 0 0 0-.92-1.83c-1.9-.69-3.79-1.42-5.68-2.14a6.47 6.47 0 0 0-2.68-1.21zM86.37 84.79q0 20.57.09 41.15c.08.76.59.47 1 .41h1c2.26.54 3-.15 3-2.64-.12-20.75-.09-41.5-.09-62.25 0-1.33.19-2.71-1.9-2.13h-2.53c-.32-.09-.54 0-.48.36-.03 8.31-.09 16.73-.09 25.1zm20.36 33.66V61.13c0-.61.37-1.38-.43-1.82a4.87 4.87 0 0 0-3.36-.25c.36-1.56 3 .46 2.9-1.83v-3.82c0-3.23-.08-6.45 0-9.68.05-1.36-.51-1.71-1.6-1.44-.93.22-2.61-1-2.61 1.23v13.74a6.74 6.74 0 0 0 .6 1.87c-1 .44-.58 1.31-.58 2v63.14c0 .8-.66 2.16 1.2 2.15s1.14-1.26 1.29-2.14c.27-1.58-1.08-4 2.14-4 .87-.45.45-1.23.45-1.82zm76.43-32.79c.56 1.16-.93 2.11-.9 3.52.17 8.07.08 16.14.08 24.22v.76c0 .74.1 1.55 1 1.3a1 1 0 0 0 .36-1.69c-1-1.2-.18-2 .59-2.55 2-1.48 2.46-3.46 2.22-5.78 0-.44-.22-1 .61-1.44.65 1.29 0 2.74.49 4.11 1-.4 1.89-.8 2.83-1.15 1.55-.58 3.46-1 1.06-3a.74.74 0 0 1-.16-.9c1.46-3.87 1.65-11.89.32-16.55-.33-1.14.81-1.62.81-2.54V68.68c0-.64-.24-.93-.88-.88-1.07.07-1.88-.17-1.69-1.51.14-1-.49-1.09-1.25-1.06-1.1 0-2.21.06-3.31.08-.3-.11-.71-.14-.89-.35s0-.64.38-.64c1.7 0 3.4-.05 5.1 0 .77 0 .86.67.9 1.29 0 .47-.12 1.21.6 1.16 2.65-.17 2 1.78 2 3.13v31.83c2 .11 2.61-.65 2.6-2.5q-.12-18.1 0-36.19c0-1.59-.31-2.27-2.07-2.22-4.33.12-8.67.08-13 0-1.42 0-2.13.2-2.12 1.91q.09 26.25 0 52.5c0 3.09 2 1.49 3.44 1.66-1.1-1-.85-2.31-.85-3.51V70.06c0-3.26 0-3.26 3.35-3.25v.24c-3.82 1.24-2 4.44-2.38 6.86a4.61 4.61 0 0 0 .06 1v.51c.23 3.44-.92 6.91.7 10.25zM120.46 46c-.07.58-.15 1.16-.22 1.75-.2 1.71.44 2.33 2.26 2.25 3.55-.15 7.1-.08 10.65 0 1.75 0 2.76-.31 2.37-2.35a20.35 20.35 0 0 1-.16-2.77c.13-13.74-.7-27.45-1.4-41.17-.05-1-.16-1.54-1.39-1.5q-4.58.14-9.16 0c-1.34 0-1.54.64-1.58 1.7-.13 3.13-.31 6.27-.43 9.4-.35 9-.95 17.95-.81 26.94a4.15 4.15 0 0 0-.07 2.5zm.14 55c.13 5.26 1.1 10.44 1.58 15.67.1 1.06.68 1.2 1.54 1.19h8.4c2.47 0 2-2.42 2.12-3.56 1.69-12.46 1.28-25 1.27-37.54 0-.59-.07-1.18-.11-1.77 0-7.3.06-14.61.13-21.91 0-1-.24-1.53-1.39-1.52q-6.24.07-12.48 0c-1.19 0-1.42.53-1.41 1.54q.08 11 .11 21.91v8.11c0 5.65-.37 11.3.17 16.94zM77.89 87c-1.41.5-1 1.64-1 2.55v21.38a3.89 3.89 0 0 1-1.45 3.56 2.9 2.9 0 0 0-1.16 2.65c.09 2.54.12 5.09 0 7.63-.06 1.39.45 1.74 1.74 1.68 2.7-.12 6.21.9 7.89-.43s.53-5.07.54-7.74c.07-10.35 0-20.7 0-31.05v-2.82c-2.34.95-4.45 1.82-6.56 2.59zm22.85 2.27c0-1.5-.3-2-1.94-2-6.61 0-6.61-.11-6.61 6.52v25.47c0 1.61.34 2.15 2.09 2.14 6.45 0 6.45 0 6.45-6.38v-10.7c-.02-5.05-.08-10.06.01-15.06zm7.62 29.54c0 1.45.58 1.61 1.8 1.64 5 .1 5 .14 5-4.81 0-9.68-.08-19.36.07-29 0-2.25-.71-3.16-2.78-3.45-1.24-.18-2.46-.59-4-1-.06 12.33-.03 24.47-.09 36.61zm66.74-29.93c-5.52 2.07-5.52 2.07-5.52 8 0 9 .05 18 0 27 0 1.89.31 2.68 2.45 2.57 3.56-.2 3.57 0 3.57-3.73V89.58v-.59c-.34-.06-.44-.13-.5-.11zm-127 22.8c0 4.33.06 8.65 0 13 0 1.47.44 1.87 1.86 1.8 2.28-.12 4.58-.07 6.87 0 1.1 0 1.49-.35 1.47-1.46-.06-2.8 0-5.6 0-8.4a1.63 1.63 0 0 0-.6-1.57c-2.18-1.36-2-3.48-2-5.62.07-3.37 0-6.74 0-10.44-7.58 4.43-7.58 4.43-7.58 12.69zm92.5 6.86c0 1.39.33 1.89 1.82 1.92 5.08.1 5.08.16 5.08-5 0-6.87-.07-13.75 0-20.62 0-1.93-.42-2.78-2.46-3.22-4.48-1-4.45-1.13-4.45 3.5v10.69c.06 4.24.11 8.49.03 12.73zM100.73 65c0-1.18-.28-1.69-1.56-1.6a35.55 35.55 0 0 1-5.07 0c-1.69-.13-1.91.65-1.9 2.1.06 5.42.08 10.84-.05 16.25 0 1.75.57 2.08 2.17 2.09 6.39 0 6.39.09 6.39-6.18V73.6c0-2.79-.05-5.67.02-8.6zm141.67 56.28c-.63 0-1.32-.12-1.33-.85s.75-.77 1.33-.77h7.9c.69 0 1.69.33 1.74-.88s-1-.92-1.65-.93h-7.9c-.57 0-1.35.14-1.41-.68-.07-1 .79-.91 1.45-.91h8.16c.56 0 1.27.17 1.34-.73s-.68-1-1.37-1h-8.15c-.58 0-1.36.06-1.44-.69-.09-.94.73-1 1.42-1h2c1.19 0 2.54.46 2.49-1.73-.08-3.5-.14-3.71-3.53-2.54-2.72.94-5.35 2.13-8 3.14-2.17.81-1.56 2.9-1.08 3.85.87 1.77-1 3.6.52 5.11-1.83 3.87 2 2.48 3.21 3.18 1.73 1 3.4-.94 5.28-.84 2.37.13 4.76 0 7.14 0 .62 0 1.51.26 1.54-.8s-.88-.82-1.49-.84h-4.08zM136.92 104c-.45 4.85-1.13 9.69-1.74 14.52-.11.9-.73 2 .94 1.82 1.06-.14 3 1.05 2.85-1.5v-1.27-60.16a9.69 9.69 0 0 1 .41-4c.23-.55.59-1.78-.88-1.87s-1.09 1-1.09 1.74v23.71c-.25 8.53.36 17.8-.49 27.01zM63.35 89.23c0-1.24 0-2.39-1.85-1.55A2.2 2.2 0 0 0 59.89 90c.07 7.8 0 15.6 0 23.4 0 .8-.23 1.62.91 2 .63.24.47.63-.29.8-1.12.24-.59 1.24-.57 1.88 0 .89.85.61 1.38.62h9.92c1.12 0 1.43-.35 1.45-1.44s-.68-1.21-1.46-1.13c-1.13.12-2.35-.43-3.37.62-.52.53-1 1.85-1.88 1.16-1.08-.87-2.72-1.39-2.68-3.35.09-4.32 0-8.65 0-13q.05-6.09.05-12.33zm55.21-15.1V53.48c0-.68.59-2-.9-1.86-1.18.09-.67 1.22-.67 1.85v65c0 3.53 2.47 1.25 4.35 2.33-3.34-15.89-2.78-31.29-2.78-46.66zM98.13 58.47c2.06 0 2.84-.42 2.65-2.62a68.47 68.47 0 0 1 0-7.86c0-1.22-.38-1.72-1.59-1.57a6 6 0 0 1-.76 0c-6.2 0-6.2 0-6.19 6.09-.04 5.93-.04 5.84 5.89 5.96zm-53.65 55.19c.63 0 1.71.53 1.77-.74.07-1.49-1.18-.91-1.86-.93-2.78-.08-5.57 0-8.36 0v-.81h10.14c0-1.11-.65-.94-1.11-.95-3.31 0-6.62.06-9.93 0-1.23 0-1.65.36-1.62 1.58.06 2.71 0 5.43 0 8.15 0 1.11.39 1.47 1.48 1.45 3.31-.06 6.62 0 9.93 0 .68 0 1.45.11 1.36-1-.07-.88-.78-.74-1.34-.75h-7.13c-.6 0-1.33.29-2.09-.82h8.5c.71 0 1.94.56 2-.77s-1.21-.86-1.91-.88c-2.75-.07-5.5 0-8.25 0v-.85H44.59c.76 0 1.74.37 1.67-.89s-1.11-.8-1.78-.81h-6.11c-.78 0-1.56-.13-2.34-.2v-.62c2.84-.13 5.64-.1 8.45-.16zm24.68-22.1c.17 7.2.09 14.41 0 21.62 0 1.33 0 2.17 1.8 2.2s1.69-1 1.69-2.23v-23.4a5.39 5.39 0 0 0-.9-3.24c-2.01 1.11-2.64 2.72-2.59 5.05zm-44.35 27.17c.69 0 2 .6 1.91-.84s-1.31-.72-2-.75c-2.21-.08-4.42 0-6.63 0-.61 0-1.36.27-1.95-.89h9c.65 0 1.72.42 1.61-.91-.09-1.07-1-.69-1.59-.7H16.4v-.9c2 0 4 .13 6 0 1.46-.13 4.21.79 4.11-.69-.13-2.05-2.75-.65-4.25-.85a43.77 43.77 0 0 0-5.9-.06v-.83h10.29c0-1-.44-1-.83-1-3.4 0-6.8.05-10.19 0-1.23 0-1.63.36-1.59 1.58q.11 4.08 0 8.16c0 1.18.46 1.41 1.5 1.4 3.23-.05 6.46 0 9.69 0 .59 0 1.49.37 1.53-.76s-.86-.83-1.47-.84H17.9c-.52 0-1.22.33-1.65-.89 2.97-.2 5.75-.15 8.56-.23zM135.89 8.31c.77 13.3 1.14 26.62 1.43 39.95 0 .66-.31 1.74 1 1.61 1-.11.65-1 .65-1.62q-.31-21-.68-42a10.68 10.68 0 0 0-.17-1.17c-1.73.69-2.33 1.6-2.23 3.23zm-91.38 95.15c.64 0 1.73.49 1.75-.79s-1-.89-1.71-.9h-8.48v-.82h8.35c.69 0 1.92.57 1.82-.94-.08-1.22-1.14-.77-1.79-.78-2.82-.05-5.65 0-8.47 0v-.72h10.16c.08-1.15-.55-1-1-1h-9.69c-1.37 0-2 .3-1.94 1.83.11 2.29 0 4.59 0 6.88 0 .79 0 1.54 1.14 1.53h11.38v-.7h-10v-.91h9c.62 0 1.2 0 1.16-.91s-.7-.8-1.27-.8h-7.14a2.09 2.09 0 0 1-2.17-.81c3.28-.14 6.09-.11 8.9-.16zm52.88-62.15c3.31 0 3.31 0 3.31-3.31v-.51c-.05-2 .66-4.69-.36-5.87-1.21-1.39-4-.22-6-.48-1.68-.21-2.31.39-2.13 2.06a28.56 28.56 0 0 1 0 3c.03 5.11.03 5.11 5.18 5.11zm-70.68 57v-.85h-8.64c-4 0-4.09 0-4 3.95 0 2-.9 4.63.38 5.88s3.87.32 5.88.38 4.19 0 6.28 0v-.76H16.47V106h8.64c.63 0 1.72.48 1.66-.86s-1.09-.81-1.75-.82h-8.55v-.83h9c.64 0 1.25.16 1.29-.77 0-1.08-.73-1-1.39-1h-7.65c-.46 0-1 .26-1.47-.81h8.8c.67 0 1.72.39 1.69-.88s-1-.83-1.73-.84h-7.13c-.53 0-1.21.28-1.65-.86zm90.24-50c0 .6-.36 1.5.7 1.58 1.29.1.92-.93.93-1.61.19-13.32.62-26.63 1.44-39.92a3 3 0 0 0-2-3.22l-1.11.18q.03 21.49.09 42.99zm-47.5 4.93c-2 .08-4.07-.06-6.1 0s-3.46 1-3.43 3.35v4.32c0 1-.16 1.9 1.37 1.74 1.13-.12 2.24.06 2.06-1.68-.08-.8-.35-1.76.42-2.39.93-.75 1.53-2.57 2.93-1.91s2.74 1.73 2.51 3.72c-.16 1.38 0 2.49 1.94 2.29 1.2-.12 1.64-.41 1.57-1.63-.1-1.6.42-3.44-.22-4.76-.78-1.63-2.69-.05-4.11-.39-2.43-.58-5 .27-8-.52 2.29-.77 4.15-.33 6-.41s3.55 0 5.58 0c-.65-1.26-1.33-1.78-2.52-1.74zm-6.08 13.33c.09-1.21-1.25-1.68-1-2.8-.08 1.58-2.56.46-2.49 2.21v17.78c0 1.4.32 1.93 1.81 1.89s1.7-.55 1.66-1.82c-.08-2.88 0-5.76 0-8.64-.05-2.86-.2-5.75.02-8.62zm23.73-9.73c-.1 1.83 1.1 1.57 2.17 1.53s2.19.34 2.14-1.54q-.18-6.46 0-12.93c.06-2-1.22-1.57-2.31-1.63s-2.17-.12-2 1.64c.16 2.1 0 4.22 0 6.34.02 2.2.11 4.4 0 6.59zm-17.91 27c-.06 1.56.65 1.73 2 1.78 1.53.06 1.58-.72 1.57-1.87v-17.3c0-.91.24-1.93-1.32-1.76-1.21.13-2.13.37-2.12 1.85v8.9c-.11 2.86-.02 5.66-.14 8.45zm184.16 30.8c-2.18 1.33 1.33 1.25 1.18 2.46-.13 1-3.36.79-1 2.48 1.11.79 1.42 1.08 0 1.7-1.14.51-1.2 1.11 0 1.64 1.36.62 1.3 1.21 0 1.75a.94.94 0 0 0-.71 1.14c.12.72.71.59 1.18.6h2.54c2.08 0 1.37-.13 1.66-1.87.18-1.1-.79-2.46.37-3.41a.71.71 0 0 0 .2-.42c-1.35-1.06.91-2.86-.78-3.85-.15-.09-.13-.31 0-.58 1.55-3.59.46-5-3.41-4.51a10.32 10.32 0 0 0-1.65.51c.64.77 3.07.79.41 2.41zM100.73 26.17c0-3.59 0-3.59-3.58-3.59-5 0-5 0-5 5 0 3.15-.66 2.66 4.52 2.69 4.05.02 4.05.02 4.06-4.1zM65.79 89.38c0-.56.45-1.56-.68-1.54-.94 0-.82.92-.82 1.57v23.68c0 .55-.17 1.32.75 1.3s.75-.75.76-1.33v-12c.01-3.87.02-7.78-.01-11.68zm2.71.37c0-.63.26-1.46-.8-1.54-1.25-.1-1 .84-1 1.56v23.19c0 .64-.2 1.52.79 1.59 1.17.09 1-.85 1-1.61v-11.47c.01-3.9.02-7.81 0-11.72zm-12 20.35c0 .73-.45 1.91.94 1.9 1.2 0 .84-1.07.84-1.74V89.97c0-.66.41-1.69-.82-1.74-1.47-.06-.95 1.13-1 1.84v10.15c0 3.39 0 6.58.04 9.88zM76.14 90c0-.65.42-1.68-.82-1.74-1.46-.06-1 1.1-1 1.83v20.06c0 .74-.44 1.94.95 1.89s.83-1.26.84-2c.06-3.3 0-6.6 0-9.9.05-3.42.07-6.8.03-10.14zM106 124.07v.46h44v-.46zM65.74 66.92c0-.6.36-1.52-.74-1.51-.91 0-.64.81-.64 1.35v17c0 .63-.51 1.78.76 1.73s.67-1.17.68-1.81c.06-2.79 0-5.58 0-8.36h-.05c0-2.83.01-5.61-.01-8.4zm.94 17.16c0 .63-.24 1.48.81 1.53 1.24.07 1-.9 1-1.61V66.67c0-.65.17-1.44-.92-1.4s-.84.87-.85 1.48v8.66c-.05 2.89-.06 5.78-.04 8.67zm9.47-17.51c0-.7.06-1.4-1-1.34-.86.06-.83.66-.83 1.26v17.78c0 .71 0 1.42 1 1.35s.8-.91.81-1.53V75.2c0-2.96.01-5.75.02-8.63zm-47.76 54.09a15.29 15.29 0 0 1 0 3.8c-.13 1.5.32 2 1.95 2.06 1.81 0 1.56-1 1.56-2.12v-9c-2.69 1.01-3.97 2.53-3.51 5.26zm63-88.16c0-1-.26-1.39-1.28-1.38s-1.46.16-1.52 1.19c-.16 2.62-.34 5.24-.59 7.85-.12 1.21.58 1.24 1.39 1.13s2 .47 1.95-1.17c-.06-1.27 0-2.54 0-3.81.06-1.31.02-2.55.08-3.81zm158.17 75.25c-1.87-.3-2 .95-1.83 2.16s-1.06 3 1.47 2.87c1.16-.06 2.24.26 3.27-1.08s3-.57 4.88-.73c-2.44-2.22-5.07-2.79-7.76-3.23zM101.64 39.53c-.15 1.46.43 1.8 1.84 1.83 1.77 0 1.38-1 1.31-2-.15-2.28-.4-4.56-.49-6.84 0-1.15-.54-1.4-1.57-1.41-1.24 0-1.07.8-1.07 1.54v3.56a31.33 31.33 0 0 1-.02 3.32zM246 106.11c1.57-.18.83-1.35.93-2.14.11-1-.41-1.29-1.36-1.33-2.87-.12-4.87 1.53-6.11 5.41a32.81 32.81 0 0 1 6.54-1.94zm-56-56c-.1-1.77-.63-2.77-2.67-2.81-2.63-.05-2.34 1.7-2.51 3.37-.24 2.36 1.44 1.66 3 1.8 1.69.53 2.3-.4 2.18-2.32zm2 9.06c.92 0 1.63 0 1.57-1.28s-.35-1-1.42-1.06a43.7 43.7 0 0 0-9.2.07c-1 .13-1.1.18-1.16 1.06-.07 1.11.45 1.24 1.34 1.21h4.56c1.56 0 2.86.01 4.31.04zm3.59 50.4c.65-.14 1.13-.34 1.08-1.12s-.48-.81-1.05-.77c-3.73.28-7.09 1.4-9.62 4.33a1.24 1.24 0 0 0 .05 1.52 31.2 31.2 0 0 1 9.52-3.91zm4.38-6.84c-.89-.13-2.15-.71-2.3 1-.11 1.23-.45 2.58 1.66 2.52a11.22 11.22 0 0 1 2.91.78c.85.22 1.6.84 2.57.7-.64-3.13-1.97-4.53-4.81-4.96zm-93.87 19.59v.38h43.47l-.09-.38zm43.84-27.42h3.46c4.45 0 4.45 0 4.25-5.14zm9.78 8.69c-.22.23-.31.28-.31.33-.33 4.65-.32 4.65 4.18 4.66h2.71l.2-.51zm-90.43 21.24c0-3.26-2.31-1.51-3.58-1.82s-2.4-.33-2.39 1.74c0 2.68 1.85 1.38 3 1.77 1-.52 2.96 1.06 2.97-1.69zm121.34-69c1.06.05 1-.67 1-1.34s.15-1.11-1-1.12a52.13 52.13 0 0 0-6.2 0c-1.09.11-1.18.34-1.23 1.2-.05 1 .43 1.32 1.37 1.28s2 0 3 0c1.04.01 2.05-.03 3.06.02zm-90.76 68c.45 0 .83-.09.85-.66s-.11-1-.79-1h-6.87c-.62 0-.89.35-.88 1s.57.73 1.07.74h3.31zm98.91.92c-.49 0-1.05 0-1.11.7-.07.89.54.9 1.16.9h8.65c.61 0 1.26 0 1.23-.88s-.7-.82-1.29-.83h-4.58v.06c-1.35.1-2.71.09-4.06.1zm-134-5.15c-1-.13-1.36.17-1.38 1.21s.48 1.47 1.52 1.39c.84-.06 1.68 0 2.52 0s1.85.25 1.89-1.24-.81-1.4-1.79-1.37h-1.26a11.14 11.14 0 0 1-1.53.07zm181.2 6.79c.55 0 1-.16 1-.83s-.47-.86-1-.86h-9.11c-.57 0-1 .16-1 .83s.37.87 1 .87h9.11zm-122-7.61c-.5 0-1.27-.31-1.31.67s.56.89 1.19.89h8.12c1.15 0 1.42-.63 1.65-1.61-3.26.09-6.47.07-9.63.1zm93.8.85c.68 0 1.17-.14 1.15-.94s-.58-.88-1.21-.87l-5.05.05c-.57 0-1.27-.12-1.32.74-.06 1 .69 1 1.38.95H215v.07c.9.05 1.82.02 2.75.05zm8.84-1.82c-.59 0-.93.23-.93.88a.81.81 0 0 0 .91.93h5.81a.81.81 0 0 0 .92-.91.79.79 0 0 0-.9-.92h-5.81zm-47.72 7.56c0 .56.16 1 .83 1s1.46.31 1.57-.36a13 13 0 0 0-.06-5.26c-.15-.59-.92-.41-1.33-.3-1.93.49-.55 2.12-1 2.94-.04.85-.04 1.44-.04 2.03zm45.92-7.14c0-2-1.54-1.23-2.39-1.16s-2.8-1-2.75 1.34 1.75.84 2.6 1.26c1-.17 2.55.71 2.51-1.39zm-63.6 8c.31-2.3 1.5-2.82 3.67-2.52.93.13 1.33.06 1.26 1.07-.05.75-.19 1.58 1 1.52 1 0 .81-.72.74-1.26-.09-.79.57-2.05-1-2.08h-6.18zm-3.88-3a6.83 6.83 0 0 0-5.17 0c-1.06.43-.26 2-.47 3.4 1.62-.82.41-2.29 1.35-3 .81.75-.22 2 .94 2.85.73-.87-.82-3.41 2-2.75 1.93.45.16 2 1.51 2.8.26-1.27.8-2.85-.19-3.3zm-64.12 1.52c-.54 0-1 .18-1 .84s.43.85 1 .85h6.57c.57 0 1-.15 1-.84s-.36-.87-1-.86h-3.56c-1.01 0-2.03-.02-3.04 0zm124.21-8.48c1.58.12 1.47-.8 1.55-1.89.1-1.46-.57-1.62-1.8-1.61s-1.93.38-1.6 1.81c-.47 1.64.62 1.6 1.82 1.69zm6.29 10.19c.53 0 1-.08 1.06-.75s-.42-.91-1.1-1c-2.15-.25-4.27.69-6.43.05-.59-.17-.87.33-.84.93s.51.74 1 .76c1 0 2-.37 2.92 0zm-40.22-5.9c-2.12-.11-.79 1.87-1.15 2.87a1.27 1.27 0 0 0 0 .74c.24.8-.72 2.26 1 2.24s.65-1.51 1-2.27a3.1 3.1 0 0 0 0-.94c-.45-.74.81-2.56-.87-2.64zM37.91 92.36c-.58 0-.93.21-.92.87a.81.81 0 0 0 .91.92h3.77c.76 0 1.35-.14 1.32-1.06s-.75-.73-1.3-.75-1.34 0-2 0zm181 9.34c-.1-.65.51-2-1-1.69-1 .23-2.38.25-2.43 2 0 1.58.83 1.58 1.82 1.44 1.7.36 1.77-.69 1.6-1.76zm14.17 20.3c0-1.41-2.21-.47-3.42-.66a20.5 20.5 0 0 0-3 0c-.57 0-.93.15-1 .83s.49.74 1 .75h3.23c.89-.57 3.16 1.08 3.19-.92zm-15.2.93c.51 0 1-.07 1-.78s-.43-.85-1-.85h-5.57c-.52 0-1 0-1 .74s.43.81 1 .81h2.79c.9.15 1.9.15 2.78.15zm-.58-15.29c1.42.14 1.7-.48 1.66-1.74 0-1.11-.19-1.77-1.54-1.62-1.14.13-2.36 0-1.86 1.71-.39 1.67.66 1.58 1.74 1.69zm12-5.5c.05-2.17-1.76-2-2.76-2.11s-.49 1.42-.75 2.17c-.51 1.5.86 1.19 1.72 1.24s1.71.28 1.75-1.26zm-11.81 6.41c-.69.12-1.79-.33-1.65 1.05s.2 2.42 2.06 2.44c1.59 0 .92-1 1-1.38.1-1.3.1-2.35-1.45-2.07zm-4.36 0c-.75.08-1.81-.39-1.7 1.08.12 1.63 1.44 2 2.6 2.2s.87-.88 1-1.95c.3-1.19-.66-1.4-1.94-1.25zm-.17 7.61c1.13-.05 1.67-.2 1.65-1.53s-.31-2-1.83-1.94c-1.34 0-1.66.51-1.39 1.55-.29 1.46.09 2.06 1.53 1.99zm-8.35-13.59l2 3.71 3-3.71zm30.45 0l2.9 3.72a13.83 13.83 0 0 1 2.47-3.72zm-52.19 17.13c.75 0 1.14-.33 1.08-1-.08-1-.94-.84-1.55-.76-1.17.15-2.57-.67-3.45.56-.38.54.19 1.12.87 1.2a14.83 14.83 0 0 0 1.77 0c.41 0 .86-.02 1.28 0zM19.09 92.36c-.52.08-1.26-.34-1.49.46a1.35 1.35 0 0 0 .19 1.18 1.33 1.33 0 0 0 1.62 0c.84-.63 1.83.17 2.64-.4.52.91 1 .82 1.26-.13s-.43-1.11-1.2-1.08h-1.76a8.07 8.07 0 0 0-1.26-.03zm192.19 13.88c-.11 1.43.75 1.34 1.74 1.41 1.3.09 1.52-.51 1.54-1.63 0-1.32-.37-2-1.67-1.57-1.75-.37-1.53.76-1.61 1.78zm-110.75-20v-.41H92.4v.41zm.09-23.81V62h-8.24v.49zm0-2.53v-.44h-8.27v.44zm-8.23-14.71c2.72.71 5.44.3 8.16.07a23 23 0 0 0-8.16-.07zm128 76.21c-.52 0-.86.44-.65.83.8 1.49 2.22.45 3.35.68.54.11 1.42.42 1.64-.59.13-.59-.14-1-.8-1h-1.77c-.61.07-1.16.05-1.79.08zM89.84 29.53c-.1.49.25.76.76.71s.82-.39.8-1v-4.73c-1.55 1.92-1.27 3.55-1.56 5.02zM62.62 52.2H70a12.65 12.65 0 0 0-7.38 0zm29.9-9.85a12 12 0 0 0 8 0zM252 125.56c-.05-1.39-1.42-.76-2.21-.79s-2-.5-2 .75c-.06 1.58 1.37.63 2.1 1 .71-.37 2.16.58 2.11-.96zm-56.77-22.3c-.85.17-1.88.21-1.83 1.61 0 1 .35 1.27 1.33 1.26 1.28 0 1.3-.77 1.25-1.78-.12-.35.28-1.35-.76-1.09zm-14.1-47.4c1.07.17 1.27-.48 1.19-1.35 0-.55.13-1.33-.77-1.23s-1.31 1.11-1.74 1.83c.07 1 .81.67 1.31.75zm-79.49-26.7c0 .62 0 1.23.91 1.11.7-.1.76-.62.61-1.12-.4-1.31-.1-2.81-1.52-4v4.01zm92.08 26.7c.51-.07 1.4.25 1.25-.66a2.24 2.24 0 0 0-1.72-1.91c-.91-.16-.65.71-.71 1.06-.1 1.04.1 1.65 1.17 1.51zm-16.08 70.46a9.81 9.81 0 0 0 .08-5.78 9.86 9.86 0 0 0-.09 5.79zm-107.45-.81c1.08-.23 2.15-.84 2.22-1.65s-1.16-1.2-2.22-1.82zm-7.74-3.33c-1 .34-2.15.82-2.19 1.72 0 .56 1.18 1.17 2.19 2.08zm2.62-59.67c.66 0 .77-.53.72-1.07s0-1.29-.86-1.19c-.74.08-.51.72-.56 1.18s-.05 1.11.69 1.1zm2.39.12c1 .11 1-.62 1-1.31s0-1.2-.87-1.18-.94.52-.92 1.17-.06 1.25.78 1.34zm-27 60.44c0 .91.67.8 1.24.79s1.3.14 1.3-.75-.7-1-1.38-1-1.17.14-1.15.97zm-2-.9c-.57.1-1.47-.45-1.55.7 0 .72.29 1.12 1.05 1 .59-.08 1.42.31 1.54-.72.14-.82-.29-1.1-1.01-.97zm-2.42.68c-.11-.84-.76-.71-1.35-.69s-1.19.09-1.17.93c0 1.15 1 .59 1.28.76.99.1 1.37-.25 1.27-.99zm-14.16 1c.6 0 1.41.27 1.44-.81 0-.79-.48-.95-1.13-.93s-1.39-.14-1.44.86.55.95 1.16.91zm-4.41-.79c0 .95.68.78 1.23.79s1.26.11 1.3-.77c.05-1-.72-.92-1.38-1s-1.12.19-1.12 1.01zM98.21 19.83c0 .68-.45 1.55.48 2a1 1 0 0 0 .9-.2 2.19 2.19 0 0 0-.11-2.13c-.16-.41-.31-1-1-1-.48.35-.29.9-.27 1.33zm131.93 81.75c-.8 2.52 1 1.69 2.43 1.89a4.27 4.27 0 0 0-2.43-1.88zm-21.52 6a.87.87 0 0 0 1.25.48c1-.8.26-1.87.23-2.88-.72.68-1.91 1.07-1.47 2.39zm.84 18.1c0 .94.71.75 1.28.77s1.22.14 1.27-.78-.49-1-1.58-.94c-.24 0-.99-.12-.96.94zm24.16.77c.53 0 1.24.24 1.32-.68.07-.73-.16-1.09-1-.87-.57.16-1.36-.2-1.57.5.04 1.1.63 1.07 1.25 1.04zm-189.87-1c-.11.78.32 1.11 1 1 .56-.09 1.48.42 1.5-.77 0-.84-.49-1-1.17-.92s-1.21-.19-1.33.68zm1.17-1.56c.52 0 1.25.3 1.37-.65s-.62-1-1.3-1.06-1.23 0-1.27.83.59.92 1.2.87zm-9.86 2.57c.73.06 1.09-.26 1-1s-.77-.7-1.33-.69-1.22 0-1.18 1 .89.63 1.51.68zm1.93-.79c0 .92.7.77 1.26.79s1.22.09 1.27-.79-.49-.95-1.14-.92-1.43-.19-1.38.91zm-10.21.06c.07-.8-.38-1.05-1.07-1s-1.45-.21-1.46.87c0 .86.6.86 1.22.85s1.23.18 1.31-.73zm15.2.72c.73.05 1.11-.32 1-1.05s-.84-.62-1.39-.65-1.16.14-1.08 1c.05 1.02.88.65 1.49.7zm172.12 0c.54 0 1.26.25 1.35-.69s-.61-1-1.31-1-1.24 0-1.22.86.59.85 1.18.82zm13.12 0c.77.07 1.08-.35 1-1.07s-.87-.61-1.4-.65-1.19.12-1.1 1c.07 1.02.89.67 1.49.72zm3.13 0c.58 0 1.25.12 1.31-.75.08-1.06-.72-.92-1.37-1s-1.2 0-1.16.88.62.88 1.21.87zm-209.54-1c-.1 1 .65 1 1.34 1s1.21 0 1.21-.85-.57-.9-1.37-.86c-.39.06-1.1-.12-1.19.74zm-3.29.13c0 .85.58.86 1.2.84s1.42 0 1.32-1-.81-.65-1.35-.71-1.18.09-1.18.9zm-1.91-1.74c.78.09 1.07-.34 1-1.06-.14-.89-.86-.61-1.39-.63s-1.23.07-1.1 1 .88.66 1.49.72zm8.65-.87c0 1.11.8.82 1.43.88s1.16-.08 1.11-.92-.72-.75-1.28-.79-1.24-.01-1.26.86zm-10.2 2.52c-.05 1.09.72.91 1.38.93s1.19 0 1.16-.89-.66-.81-1.3-.84c-.5.11-1.2-.08-1.25.83z"/><path id="_Path_" data-name="&amp;lt;Path&amp;gt;" class="cls-4" d="M55.31 97.84c1-2.85.18-5.8.44-8.69.1-1.13-.53-2.47 1.56-2.68 1-.1 1-1.57 1-2.61V67.05c0-.72.47-1.91-1-1.81-1.21.09-.8 1.12-.8 1.78v16c0 .81.24 1.68-.85 2.46v-22.8c-.44 2.18-2.88 4.17-.51 6.65.4.42.19 1.47.19 2.22q-.02 13.17-.03 26.29z"/><path id="_Path_2" data-name="&amp;lt;Path&amp;gt;" class="cls-4" d="M58.2 55.94v-1.2c-1.45-.14-1.47-1.41-1.86-2.38-.22-.54-.32-1.31-1.09-1.07s-.47 1-.38 1.54c.19 1.15.74 2.19 1 3.32.56 2.07-.69 4-.12 6l2-2c-.54-1.47-.97-2.92.45-4.21z"/><path id="_Compound_Path_2" data-name="&amp;lt;Compound Path&amp;gt;" class="cls-5" d="M120.5 100c-.53-5.64-.22-11.29-.17-16.94 0-1.53 1.42-3.06 0-4.6v-3.51c1.61 0 3.23-.15 4.82 0 2 .16 2.67-.45 2.61-2.53-.14-5.5.07-11-.1-16.5-.07-2.28 1-2.43 2.74-2.38s3.09-.19 3 2.38c-.19 5.58 0 11.17-.08 16.76 0 1.53.25 2.52 2.06 2.26 0 .59.11 1.18.11 1.77 0 12.53.42 25.08-1.27 37.54-.15 1.13.35 3.51-2.12 3.56h-8.4c-.86 0-1.44-.14-1.54-1.19-.48-5.23-1.45-10.41-1.58-15.67zm13.38-22.11v-.84c.63-.37.17-.64-.08-.94-4.07-.2-8.14-.77-12.18.3V78.52c3.26 1.2 6.63.28 9.95.5.92.06 2.06.49 2.78-.6zm-.64 6.11c.28-.3 1.39-.08.63-1l.45-1a1.41 1.41 0 0 1 0-.33c-.3-.68-.92-.68-1.5-.64-3.73.29-7.51-.66-11.21.5v.54l.49.95c.06 1 1.15.64 1.59 1.14zm-11.51-4.25v.5h12.46v-.5zm2.56 30.61v.44h7.3v-.44zm7.22-1.62h-7.21a11.74 11.74 0 0 0 7.22.05zm0 3.8v-.33h-7.28v.33z"/><path id="_Compound_Path_3" data-name="&amp;lt;Compound Path&amp;gt;" class="cls-5" d="M134.32 46.54l-12.62-.11c-.57.26-1 .2-1.24-.47l.06-3.24.07-2.5c-.14-9 .46-18 .81-26.94.12-3.13.31-6.27.43-9.4 0-1.06.24-1.74 1.58-1.7q4.58.14 9.16 0c1.23 0 1.34.53 1.39 1.5.71 13.71 1.53 27.42 1.4 41.17-1.08.15-.96.97-1.04 1.69zm-.2-23.14c-4.09-1.06-8.2-.79-12.3-.68v.68zm0 3.3v-.45h-12.38v.45zm-10.6-9v.45h8.83v-.45zm8.84-9.7v-.37h-8.89v.39zm-10.6 16.55v.38h12.41v-.38z"/><path id="_Compound_Path_4" data-name="&amp;lt;Compound Path&amp;gt;" class="cls-5" d="M185.38 65.33c1.1 0 2.21 0 3.31-.08.75 0 1.39.05 1.25 1.06-.19 1.34.61 1.59 1.69 1.51.64 0 .88.24.88.88v15.29c0 .92-1.13 1.4-.81 2.54 1.33 4.66 1.14 12.68-.32 16.55a.74.74 0 0 0 .16.9c2.41 2 .49 2.4-1.06 3-.93.35-1.85.75-2.83 1.15-.48-1.36.16-2.82-.49-4.11-.83.41-.66 1-.61 1.44.25 2.32-.18 4.3-2.22 5.78-.77.56-1.6 1.35-.59 2.55a1 1 0 0 1-.36 1.69c-.92.25-1-.56-1-1.3v-.76c0-8.07.09-16.15-.08-24.22 0-1.41 1.46-2.35.9-3.52-1.62-3.34-.47-6.81-.75-10.2a2.27 2.27 0 0 0 .18-.36s-.1-.1-.16-.15a4.61 4.61 0 0 1-.06-1c.38-2.42-1.45-5.63 2.38-6.86v-.24c.62-.33.56-.96.59-1.54zM189 81.6l.83-1c.13.29.18.75.4.84.61.25.67-.27.67-.69v-9.71c-1.4 1.23-.74 2.43-1 3.37-.88-1.25.13-2.81-.68-4.07-.33-.62-.65-.57-1 0a1.05 1.05 0 0 1-1.58 0c-.32-.56-.64-.63-1 0-.74.9.11 2.16-.69 3-.25-.56.29-1.36-.79-1.88v10h.8V76c1.06 1.74-.4 3.88.87 5.59.85.1.6-.62.77-1 .79-2.34-.05-4.82.5-7.23 1.21.37.42 1.61 1.1 2.13v1a5.33 5.33 0 0 0 0 4.05c.2.46-.08 1.15.8 1.06zm-2.62 8H186v10.6l.36.06zm2.1 10.61h.37V89.64h-.37zm-1-13c.61 0 .79-.54.82-1.08s-.12-1.27-.83-1.33-.88.61-1 1.22.21 1.23 1.01 1.19zm-2.67 0c.78 0 1-.59 1-1.2s-.22-1.27-1-1.2-.86.7-.85 1.41c.04.45.24.97.86.98zm5.23 0c.6 0 .8-.53.84-1.08s-.17-1.27-.86-1.32-.92.59-1 1.24.25 1.2.98 1.15z"/><path id="_Path_3" data-name="&amp;lt;Path&amp;gt;" class="cls-4" d="M184.74 66.85c.67-.31.61-.94.64-1.52-.3-.11-.71-.14-.89-.35s0-.64.38-.64c1.7 0 3.4-.05 5.1 0 .77 0 .86.67.9 1.29 0 .47-.12 1.21.6 1.16 2.65-.17 2 1.78 2 3.13v31.83c2 .11 2.61-.65 2.6-2.5q-.12-18.1 0-36.19c0-1.59-.31-2.27-2.07-2.22-4.33.12-8.67.08-13 0-1.42 0-2.13.2-2.12 1.91q.09 26.25 0 52.5c0 3.09 2 1.49 3.44 1.66-1.1-1-.85-2.31-.85-3.51V70.08c-.08-3.24-.09-3.24 3.27-3.23z"/><path id="_Path_4" data-name="&amp;lt;Path&amp;gt;" class="cls-5" d="M106.3 59.32a4.87 4.87 0 0 0-3.36-.25l-.68.08c-1 .44-.58 1.31-.58 2v63.14c0 .8-.66 2.16 1.2 2.15s1.14-1.26 1.29-2.14c.27-1.58-1.08-4 2.14-4q-.01-30.51-.01-60.98z"/><path id="_Path_5" data-name="&amp;lt;Path&amp;gt;" class="cls-5" d="M100.71 104.28c0-5-.05-10 0-15 0-1.5-.3-2-1.94-2-6.61 0-6.61-.11-6.61 6.52v25.47c0 1.61.34 2.15 2.09 2.14 6.45 0 6.45 0 6.45-6.38q.01-5.4.01-10.75z"/><path id="_Compound_Path_5" data-name="&amp;lt;Compound Path&amp;gt;" class="cls-4" d="M120.24 53.07c0-1 .23-1.56 1.41-1.54q6.24.08 12.48 0c1.16 0 1.41.47 1.39 1.52-.07 7.3-.1 14.61-.13 21.91-1.81.26-2.07-.73-2.06-2.26.06-5.59-.11-11.18.08-16.76.09-2.57-1.32-2.34-3-2.38s-2.82.1-2.74 2.38c.17 5.5 0 11 .1 16.5.05 2.08-.66 2.69-2.61 2.53-1.6-.13-3.21 0-4.82 0q-.04-10.97-.1-21.9zm1.51-.42V53h12.42v-.39z"/><path id="_Path_6" data-name="&amp;lt;Path&amp;gt;" class="cls-5" d="M89.48 59.33h-2.53l-.48.36c0 8.38-.1 16.75-.1 25.13q0 20.57.09 41.15l1 .41h1c1.23-.66 1-1.82 1-2.9q.03-32.09.02-64.15z"/><path id="_Compound_Path_6" data-name="&amp;lt;Compound Path&amp;gt;" class="cls-4" d="M202.7 112.31c.05 2.88.11 5.76 0 8.63-.08 1.83.4 2.73 2.38 2.48a22 22 0 0 1 2.79 0c-.42.84-1.19.41-1.81.47-3.53.31-6.86-1.6-10.43-.93-.77.14-2-.38-2.1.8s1 1 1.84 1.05c.52.06 1.3-.18 1.29.77s-.65.84-1.26.84H187c-.49 0-1.39-.34-1.08-.56 1.55-1.1-1.21-2.87.72-3.78.4-.19.26-.5-.1-.72-1.64-1 .92-2.75-.65-3.77 1.45-.35 0-1.68.65-2.12a27.19 27.19 0 0 1 9.23-4.12c.47-.12.83-.06.89.52s-.06.84-.62.87-.85 0-1.27 0c-.62 0-1.26.09-1.28.89s.67.9 1.26.91c1.61 0 3.23.08 4.84 0 .83 0 2.19.43 2.14-1 0-1.22-1.31-.84-2.06-.79-1.47.1-2.08-.26-2-1.92.08-3.37 0-3.42 3.38-2.38a6.47 6.47 0 0 1 2.76 1.16 2.88 2.88 0 0 0-1.11 2.7zm-8.14 7.32c-.52 0-1.06.13-1.09.79s.4.92 1 .93h6.37a.86.86 0 0 0 1-.93c0-.65-.57-.78-1.09-.8h-3.31c-1.01.01-1.95-.01-2.88.01zm5.23-1.74c.74-.08 2 .45 1.94-.89 0-1.07-1.12-.79-1.83-.8h-4.84c-.65 0-1.52-.14-1.59.81s.83.86 1.47.88h2.8a18.86 18.86 0 0 0 2.05 0z"/><path id="_Path_7" data-name="&amp;lt;Path&amp;gt;" class="cls-5" d="M100.71 73.69v-8.64c0-1.18-.28-1.69-1.56-1.6a35.55 35.55 0 0 1-5.07 0c-1.69-.13-1.91.65-1.9 2.1.06 5.42.08 10.84-.05 16.25 0 1.75.57 2.08 2.17 2.09 6.39 0 6.39.09 6.39-6.18q.02-1.99.02-4.02z"/><path id="_Path_8" data-name="&amp;lt;Path&amp;gt;" class="cls-4" d="M246.47 121.33h-4.08c-.63 0-1.32-.12-1.33-.85s.75-.77 1.33-.77h7.9c.69 0 1.69.33 1.74-.88s-1-.92-1.65-.93h-7.9c-.57 0-1.35.14-1.41-.68-.07-1 .79-.91 1.45-.91h8.16c.56 0 1.27.17 1.34-.73s-.68-1-1.37-1h-8.15c-.58 0-1.36.06-1.44-.69-.09-.94.73-1 1.42-1h2c1.19 0 2.54.46 2.49-1.73-.08-3.5-.14-3.71-3.53-2.54-2.72.94-5.35 2.13-8 3.14-2.17.81-1.56 2.9-1.08 3.85.87 1.77-1 3.6.52 5.11-1.83 3.87 2 2.48 3.21 3.18 1.73 1 3.4-.94 5.28-.84 2.37.13 4.76 0 7.14 0 .62 0 1.51.26 1.54-.8s-.88-.82-1.49-.84c-1.37-.12-2.73-.09-4.09-.09z"/><path id="_Path_9" data-name="&amp;lt;Path&amp;gt;" class="cls-4" d="M89.48 59.33v64.11c0 1.08.21 2.25-1 2.9 2.26.54 3-.15 3-2.64-.12-20.75-.09-41.5-.09-62.25-.01-1.32.17-2.7-1.91-2.12z"/><path id="_Path_10" data-name="&amp;lt;Path&amp;gt;" class="cls-5" d="M137.37 77c-.21 8.48.4 17.75-.45 27-.45 4.85-1.13 9.69-1.74 14.52-.11.9-.73 2 .94 1.82 1.06-.14 3 1.05 2.85-1.5v-1.27-60.16a9.69 9.69 0 0 1 .41-4c.23-.55.59-1.78-.88-1.87s-1.09 1-1.09 1.74c-.05 7.72-.04 15.34-.04 23.72z"/><path id="_Path_11" data-name="&amp;lt;Path&amp;gt;" class="cls-4" d="M63.36 101.7V89.24c0-1.24 0-2.39-1.85-1.55A2.2 2.2 0 0 0 59.89 90c.07 7.8 0 15.6 0 23.4 0 .8-.23 1.62.91 2 .63.24.47.63-.29.8-1.12.24-.59 1.24-.57 1.88 0 .89.85.61 1.38.62h9.92c1.12 0 1.43-.35 1.45-1.44s-.68-1.21-1.46-1.13c-1.13.12-2.35-.43-3.37.62-.52.53-1 1.85-1.88 1.16-1.08-.87-2.72-1.39-2.68-3.35.12-4.22.06-8.56.06-12.86z"/><path id="_Path_12" data-name="&amp;lt;Path&amp;gt;" class="cls-5" d="M121.28 120.82c-3.26-15.92-2.72-31.31-2.72-46.68V53.49c0-.68.59-2-.9-1.86-1.18.09-.67 1.22-.67 1.85v65c-.06 3.52 2.41 1.26 4.29 2.34z"/><path id="_Path_13" data-name="&amp;lt;Path&amp;gt;" class="cls-4" d="M92.19 52.53c0 5.92 0 5.83 5.94 5.95 2.06 0 2.84-.42 2.65-2.62a68.47 68.47 0 0 1 0-7.86c0-1.22-.38-1.72-1.59-1.57a6 6 0 0 1-.76 0c-6.24-.01-6.24-.01-6.24 6.1z"/><path id="_Path_14" data-name="&amp;lt;Path&amp;gt;" class="cls-4" d="M36.06 113.69h8.41c.63 0 1.71.53 1.77-.74.07-1.49-1.18-.91-1.86-.93-2.78-.08-5.57 0-8.36 0v-.81h10.15c0-1.11-.65-.94-1.11-.95-3.31 0-6.62.06-9.93 0-1.23 0-1.65.36-1.62 1.58.06 2.71 0 5.43 0 8.15 0 1.11.39 1.47 1.48 1.45 3.31-.06 6.62 0 9.93 0 .68 0 1.45.11 1.36-1-.07-.88-.78-.74-1.34-.75h-7.13c-.6 0-1.33.29-2.09-.82h8.5c.71 0 1.94.56 2-.77s-1.21-.86-1.91-.88c-2.75-.07-5.5 0-8.25 0v-.85H44.59c.76 0 1.74.37 1.67-.89s-1.11-.8-1.78-.81h-6.11c-.78 0-1.56-.13-2.34-.2z"/><path id="_Path_15" data-name="&amp;lt;Path&amp;gt;" class="cls-4" d="M71.81 86.5c-2.07 1.11-2.71 2.72-2.65 5.06.17 7.2.09 14.41 0 21.62 0 1.33 0 2.17 1.8 2.2s1.69-1 1.69-2.23v-23.4a5.39 5.39 0 0 0-.84-3.25z"/><path id="_Path_16" data-name="&amp;lt;Path&amp;gt;" class="cls-5" d="M16.24 118.76h8.56c.69 0 2 .6 1.91-.84s-1.31-.72-2-.75c-2.21-.08-4.42 0-6.63 0-.61 0-1.36.27-1.95-.89h9c.65 0 1.72.42 1.61-.91-.09-1.07-1-.69-1.59-.7h-8.76v-.9c2 0 4 .13 6 0 1.46-.13 4.21.79 4.11-.69-.13-2.05-2.75-.65-4.25-.85a43.77 43.77 0 0 0-5.9-.06v-.83h10.3c0-1-.44-1-.83-1-3.4 0-6.8.05-10.19 0-1.23 0-1.63.36-1.59 1.58q.11 4.08 0 8.16c0 1.18.46 1.41 1.5 1.4 3.23-.05 6.46 0 9.69 0 .59 0 1.49.37 1.53-.76s-.86-.83-1.47-.84H17.9c-.53-.24-1.23.12-1.66-1.12z"/><path id="_Path_17" data-name="&amp;lt;Path&amp;gt;" class="cls-5" d="M203.74 109.64a2.88 2.88 0 0 0-1 2.67c.05 2.88.11 5.76 0 8.63-.08 1.83.4 2.73 2.38 2.48a22 22 0 0 1 2.79 0c2-.29 2.49-.76 2-3.2a20.63 20.63 0 0 1 .45-6.59 1.42 1.42 0 0 0-.92-1.83c-1.93-.71-3.81-1.44-5.7-2.16z"/><path id="_Path_18" data-name="&amp;lt;Path&amp;gt;" class="cls-4" d="M138.09 5.07c-1.7.71-2.3 1.61-2.2 3.25.77 13.3 1.14 26.62 1.43 39.95 0 .66-.31 1.74 1 1.61 1-.11.65-1 .65-1.62q-.31-21-.68-42a10.68 10.68 0 0 0-.2-1.19z"/><path id="_Path_19" data-name="&amp;lt;Path&amp;gt;" class="cls-4" d="M35.69 103.48h8.82c.64 0 1.73.49 1.75-.79s-1-.89-1.71-.9h-8.48v-.82h8.35c.69 0 1.92.57 1.82-.94-.08-1.22-1.14-.77-1.79-.78-2.82-.05-5.65 0-8.47 0v-.72h10.16c.08-1.15-.55-1-1-1h-9.69c-1.37 0-2 .3-1.94 1.83.11 2.29 0 4.59 0 6.88 0 .79 0 1.54 1.14 1.53h11.38v-.7h-10v-.91h9c.62 0 1.2 0 1.16-.91s-.7-.8-1.27-.8h-7.14a2.09 2.09 0 0 1-2.09-.97z"/><path id="_Path_20" data-name="&amp;lt;Path&amp;gt;" class="cls-5" d="M92.2 36.24c0 5.07 0 5.07 5.19 5.07 3.31 0 3.31 0 3.31-3.31v-.51c-.05-2 .66-4.69-.36-5.87-1.21-1.39-4-.22-6-.48-1.68-.21-2.31.39-2.13 2.06a28.56 28.56 0 0 1-.01 3.04z"/><path id="_Path_21" data-name="&amp;lt;Path&amp;gt;" class="cls-4" d="M16.26 98.3h10.45v-.85h-8.64c-4 0-4.09 0-4 3.95 0 2-.9 4.63.38 5.88s3.87.32 5.88.38 4.19 0 6.28 0v-.76H16.47v-.9h8.64c.63 0 1.72.48 1.66-.86s-1.09-.81-1.75-.82h-8.55v-.83h9c.64 0 1.25.16 1.29-.77 0-1.08-.73-1-1.39-1h-7.65c-.46 0-1 .26-1.47-.81h8.8c.67 0 1.72.39 1.69-.88s-1-.83-1.73-.84h-7.13c-.5-.03-1.18.25-1.62-.89z"/><path id="_Path_22" data-name="&amp;lt;Path&amp;gt;" class="cls-4" d="M116.94 5.31v43c0 .6-.36 1.5.7 1.58 1.29.1.92-.93.93-1.61.19-13.32.62-26.63 1.44-39.92a3 3 0 0 0-2-3.22z"/><path id="_Path_23" data-name="&amp;lt;Path&amp;gt;" class="cls-4" d="M72 55c-.66-1.29-1.34-1.81-2.53-1.76-2 .08-4.07-.06-6.1 0s-3.46 1-3.43 3.35v4.32c0 1-.16 1.9 1.37 1.74 1.13-.12 2.24.06 2.06-1.68-.08-.8-.35-1.76.42-2.39.93-.75 1.53-2.57 2.93-1.91s2.74 1.73 2.51 3.72c-.16 1.38 0 2.49 1.94 2.29 1.2-.12 1.64-.41 1.57-1.63-.1-1.6.42-3.44-.22-4.76-.78-1.63-2.69-.05-4.11-.39-2.43-.58-5 .27-8-.52 2.29-.77 4.15-.33 6-.41S69.95 55 72 55z"/><path id="_Path_24" data-name="&amp;lt;Path&amp;gt;" class="cls-4" d="M63.3 75.21c0-2.88-.15-5.77.07-8.64.09-1.21-1.25-1.68-1-2.8-.08 1.58-2.56.46-2.49 2.21v17.78c0 1.4.32 1.93 1.81 1.89s1.7-.55 1.66-1.82c-.08-2.88 0-5.76 0-8.64z"/><path id="_Path_25" data-name="&amp;lt;Path&amp;gt;" class="cls-5" d="M220.06 103.49c-.66 2.61-.08 5.27-.26 7.9 0 .39.23.81.19 1.19-.36 3.81-.37 3.75 3.19 3.66 1.2 0 1.63-.34 1.6-1.57-.1-4.57-.11-9.14-.16-13.71a8.31 8.31 0 0 1-2 0c-2.33-.61-2.86.52-2.56 2.53z"/><path id="_Path_26" data-name="&amp;lt;Path&amp;gt;" class="cls-4" d="M87.12 50.25c0 2.2.09 4.4 0 6.59-.1 1.83 1.1 1.57 2.17 1.53s2.19.34 2.14-1.54q-.18-6.46 0-12.93c.06-2-1.22-1.57-2.31-1.63s-2.17-.12-2 1.64c.16 2.1 0 4.22 0 6.34z"/><path id="_Path_27" data-name="&amp;lt;Path&amp;gt;" class="cls-4" d="M69.21 75.5c0 2.8.08 5.6 0 8.4-.06 1.56.65 1.73 2 1.78 1.53.06 1.58-.72 1.57-1.87v-17.3c0-.91.24-1.93-1.32-1.76-1.21.13-2.13.37-2.12 1.85v8.9z"/><path id="_Path_28" data-name="&amp;lt;Path&amp;gt;" class="cls-4" d="M252.92 112.31c.66.74 3.07.76.42 2.38-2.18 1.33 1.33 1.25 1.18 2.46-.13 1-3.36.79-1 2.48 1.11.79 1.42 1.08 0 1.7-1.14.51-1.2 1.11 0 1.64 1.36.62 1.3 1.21 0 1.75a.94.94 0 0 0-.71 1.14c.12.72.71.59 1.18.6h2.54c2.08 0 1.37-.13 1.66-1.87.18-1.1-.79-2.46.37-3.41a.71.71 0 0 0 .2-.42c-1.35-1.06.91-2.86-.78-3.85-.15-.09-.13-.31 0-.58 1.55-3.59.46-5-3.41-4.51a10.32 10.32 0 0 0-1.65.49z"/><path id="_Path_29" data-name="&amp;lt;Path&amp;gt;" class="cls-4" d="M96.7 30.29c4 0 4 0 4-4.12 0-3.59 0-3.59-3.58-3.59-5 0-5 0-5 5 .1 3.17-.6 2.68 4.58 2.71z"/><path id="_Path_30" data-name="&amp;lt;Path&amp;gt;" class="cls-4" d="M102.26 59.15l.68-.08c.36-1.56 3 .46 2.9-1.83v-3.82c0-3.23-.08-6.45 0-9.68.05-1.36-.51-1.71-1.6-1.44-.93.22-2.61-1-2.61 1.23v13.74a6.74 6.74 0 0 0 .63 1.88z"/><path id="_Path_31" data-name="&amp;lt;Path&amp;gt;" class="cls-4" d="M166.49 94.33c.76 0 1.49.17 1.47-1-.06-2.85 0-5.71 0-8.57 0-2.43-1.45 0-2-.59a4.32 4.32 0 0 1-3.09 2.07 1.29 1.29 0 0 1-1.56 1c-.12 1.09-1.44.94-1.81 2 0 .57 1.09.31 1.16 1 0 .05-.09.12-.15.16a1.2 1.2 0 0 1-.23.09 14.2 14.2 0 0 0 6.21 3.84z"/><path id="_Path_32" data-name="&amp;lt;Path&amp;gt;" class="cls-5" d="M150.24 107.09c-1 1.52-1.26 3 0 4.57.57.15 1 .39.52 1 .9-.21.93.45 1 1 .55.16 1 .39.52 1l2 .51c-.46-.66-.08-.91.52-1-.11-.44.28-.49.52-.65.07-1 .16-2.08 1.44-2.39 1.64-1.33.29-2.7 0-4.05-.64.28-.56-.16-.54-.53-.65-.11-1-.37-.52-1-.94.25-1-.36-1-1-.48.12-.54-.18-.53-.54a1.05 1.05 0 0 0-1.52 0 1.36 1.36 0 0 1-.89 1.45c-.26.44-.41 1.09-1.15.56.48.68.11.93-.52 1.05z"/><path id="_Path_33" data-name="&amp;lt;Path&amp;gt;" class="cls-4" d="M65.81 101.09V89.38c0-.56.45-1.56-.68-1.54-.94 0-.82.92-.82 1.57v23.68c0 .55-.17 1.32.75 1.3s.75-.75.76-1.33v-12z"/><path id="_Path_34" data-name="&amp;lt;Path&amp;gt;" class="cls-4" d="M68.5 101.47V89.75c0-.63.26-1.46-.8-1.54-1.25-.1-1 .84-1 1.56v23.19c0 .64-.2 1.52.79 1.59 1.17.09 1-.85 1-1.61v-11.47z"/><path id="_Path_35" data-name="&amp;lt;Path&amp;gt;" class="cls-4" d="M155.76 87.19l2 .39v-9.82c0-2.21-1.68.44-2-.74v-.05c.3 1-.36 1-1 1a1.33 1.33 0 0 1-1.57 1 4.43 4.43 0 0 1-3.09 2.07c-1.15.89.16 1.76 0 2.65h-.06c1.18-.64 1.56.34 2.07 1 1 .17 2 .36 2.07 1.65.16.97.9.85 1.58.85z"/><path id="_Path_36" data-name="&amp;lt;Path&amp;gt;" class="cls-4" d="M229.74 112.19c-.95.23-.62-.44-.62-.88v-4.82c0-.76.47-1.88-.74-2.12-.78-.15-1.88-.45-2.41.19s-.67 2.32 0 2.8c1 .78.72.73 0 1.47a2.57 2.57 0 0 0 0 2.87c.56.88 2-.11 2.9.79-1.4.46-3.65-.27-3.18 2.54.21 1.27.83 1.1 1.68 1.24 2.78.44 1.4-2 2.24-3.23.48 1.63 0 3.9 2.81 3.26 1.58-.36.83-1.39 1-2.14s.11-1.44-1.1-1.46c-.8 0-1.88.71-2.46-.52z"/><path id="_Path_37" data-name="&amp;lt;Path&amp;gt;" class="cls-4" d="M151.7 66.16c0 1.53-1.75 1.32-2.29 2.41.18.93 1.8.67 1.78 1.88v-.06c.88-.2 1.31.28 1.56 1 .79-.06 1.39.18 1.56 1a1.25 1.25 0 0 1 1.56 1c1.4.51 2.14.41 2-1.48-.19-2.83 0-5.68 0-8.55-1.56-.24-2.15 1.49-3.48 1.35-.24.52-.32 1.38-1.18.53-.42.58-1.59-.24-1.51.92z"/><path id="_Path_38" data-name="&amp;lt;Path&amp;gt;" class="cls-5" d="M165.95 84.13c-.07-1.26 1.41-1.14 1.9-2.28l-8.25-5.57v11.24c.62.46 1-1.16 1.8-.37 0-1.1.68-1.24 1.56-1A3.21 3.21 0 0 1 166 84.1z"/><path id="_Path_39" data-name="&amp;lt;Path&amp;gt;" class="cls-5" d="M178 116.26v-5.12a2.2 2.2 0 0 1 0-2.53V83.09a4.06 4.06 0 0 1 0-3.54v-5.62c-.06 0-.17-.1-.16-.13a2.13 2.13 0 0 1 .14-.36V61.21h-.61c-.05 9.57-.12 19.13-.15 28.7v24.65c0 .75-.52 1.69.47 2.26z"/><path id="_Path_40" data-name="&amp;lt;Path&amp;gt;" class="cls-5" d="M151.7 66.16c-.09-1.14 1.09-.34 1.38-.9.3-.38.43-1.14 1.18-.53 0-.07-.15-.18-.14-.2 1.47-1.79 1.71-3.76.64-5.4a3.14 3.14 0 0 1-3.09-2.06c-.88.19-1.52 0-1.56-1-1 .21-1 .93-1 1.74v9.12c1.13.34 1.65-.87 2.59-.77z"/><path id="_Path_41" data-name="&amp;lt;Path&amp;gt;" class="cls-5" d="M155.75 77c1.33-1.25 1.33-1.25 0-3.58-.93.26-1.55.08-1.56-1-.89.2-1.59.13-1.56-1-.92.26-1.54.06-1.56-1v.06c-.73.7-1.1-.51-2-.23 0 3.12.05 6.34 0 9.55 0 .89.58.94 1 1.26a3.19 3.19 0 0 1 3.17-2.06c0-1.11.67-1.26 1.57-1-.24-.93.46-.93 1-1z"/><path id="_Path_42" data-name="&amp;lt;Path&amp;gt;" class="cls-5" d="M166.49 94.33a14.2 14.2 0 0 1-6.13-3.94c-1.42-.27-1 .83-1 1.44v9.23c2.27-.2 3.31-2.78 5.58-2.69.07-1 .67-1.25 1.56-1 .95-1.67.95-1.67-.01-3.04z"/><path id="_Path_43" data-name="&amp;lt;Path&amp;gt;" class="cls-4" d="M56.49 100.21v9.89c0 .73-.45 1.91.94 1.9 1.2 0 .84-1.07.84-1.74V89.97c0-.66.41-1.69-.82-1.74-1.47-.06-.95 1.13-1 1.84.01 3.37.04 6.75.04 10.14z"/><path id="_Path_44" data-name="&amp;lt;Path&amp;gt;" class="cls-4" d="M76.16 100.11V89.95c0-.65.42-1.68-.82-1.74-1.46-.06-1 1.1-1 1.83v20.06c0 .74-.44 1.94.95 1.89s.83-1.26.84-2c.06-3.3 0-6.6 0-9.9z"/><path id="_Path_45" data-name="&amp;lt;Path&amp;gt;" class="cls-4" d="M150 124.07h-44v.46h44z"/><path id="_Path_46" data-name="&amp;lt;Path&amp;gt;" class="cls-4" d="M154.73 59.16c1.13-.24 1.61 1.19 3 1 0-2.23.09-4.48 0-6.72-.1-2-1.54-2.66-3.19-1.59-1.35.88-2.63 1.87-4 2.65-.93.52-.37 1-.26 1.59a1.3 1.3 0 0 1 1.56 1 4.29 4.29 0 0 1 3.09 2.06z"/><path id="_Path_47" data-name="&amp;lt;Path&amp;gt;" class="cls-4" d="M150.24 111.66c-.4.32-1.16.12-1.11 1.1.11 2.2 0 4.41 0 6.61 0 .75.13 1.21 1 .69a.57.57 0 0 1 .82.32c1.24 3 3.76 1.55 5.76 1.84.69-1-1.18-1.45-.45-2.42-1.06.37-1-.41-1.06-1-.65-.12-1-.38-.53-1.07-.84.68-.93-1.06-1.72-.53-.28.28-.35 1.12-.67.88-.51-.37-.28-1 .28-1.42.42-.8-.79-1.25-.45-2-.74-.07-1-.36-.52-1-1 .31-1-.33-1-1-.71-.08-1-.37-.52-1z"/><path id="_Path_48" data-name="&amp;lt;Path&amp;gt;" class="cls-4" d="M65.75 75.28v-8.36c0-.6.36-1.52-.74-1.51-.91 0-.64.81-.64 1.35v17c0 .63-.51 1.78.76 1.73s.67-1.17.68-1.81c.06-2.79 0-5.58 0-8.36z"/><path id="_Path_49" data-name="&amp;lt;Path&amp;gt;" class="cls-4" d="M66.67 75.42v8.66c0 .63-.24 1.48.81 1.53 1.24.07 1-.9 1-1.61V66.67c0-.65.17-1.44-.92-1.4s-.84.87-.85 1.48v8.66z"/><path id="_Path_50" data-name="&amp;lt;Path&amp;gt;" class="cls-4" d="M76.15 75.21v-8.64c0-.7.06-1.4-1-1.34-.86.06-.83.66-.83 1.26v17.78c0 .71 0 1.42 1 1.35s.8-.91.81-1.53c.03-2.96.02-5.92.02-8.88z"/><path id="_Path_51" data-name="&amp;lt;Path&amp;gt;" class="cls-4" d="M165 98.37c-1 1.72-3.1 2.08-4.5 3.67l7.46 4.94c0-3.26-.08-6 0-8.79.06-1.58-1-.51-1.49-.8a1.29 1.29 0 0 1-1.56 1z"/><path id="_Path_52" data-name="&amp;lt;Path&amp;gt;" class="cls-5" d="M155.76 87.19c-.67 0-1.42.12-1.5-.88-.88-.32-2.06-.25-2.07-1.65-1.06.39-1.56-.34-2.07-1h.06c-.69-.08-1.06.08-1 .91v8.71c2.37-1.56 4.41-3 6.53-4.28 1.17-.68.07-1.21.05-1.81z"/><path id="_Path_53" data-name="&amp;lt;Path&amp;gt;" class="cls-4" d="M31.9 115.35c-2.69 1.05-4 2.58-3.51 5.31a15.29 15.29 0 0 1 0 3.8c-.13 1.5.32 2 1.95 2.06 1.81 0 1.56-1 1.56-2.12v-9.05z"/><path id="_Compound_Path_7" data-name="&amp;lt;Compound Path&amp;gt;" class="cls-4" d="M135.52 47.63c.39 2-.62 2.4-2.37 2.35-3.55-.1-7.11-.17-10.65 0-1.82.08-2.46-.54-2.26-2.25.07-.58.15-1.17.22-1.75.22.67.67.73 1.24.47 0 .57.1 1 .79 1h11.08c.54 0 .66-.41.74-.84.08-.72 0-1.57 1-1.68a20.35 20.35 0 0 0 .21 2.7zm-13.69.73v.38h12.35v-.38z"/><path id="_Path_54" data-name="&amp;lt;Path&amp;gt;" class="cls-4" d="M91.4 36.3v-3.81c0-1-.26-1.39-1.28-1.38s-1.46.16-1.52 1.19c-.16 2.62-.34 5.24-.59 7.85-.12 1.21.58 1.24 1.39 1.13s2 .47 1.95-1.17c-.06-1.27 0-2.54 0-3.81z"/><path id="_Path_55" data-name="&amp;lt;Path&amp;gt;" class="cls-4" d="M257.38 111c-2.46-2.21-5.09-2.78-7.79-3.22-1.87-.3-2 .95-1.83 2.16s-1.06 3 1.47 2.87c1.16-.06 2.24.26 3.27-1.08s2.96-.61 4.88-.73z"/><path id="_Path_56" data-name="&amp;lt;Path&amp;gt;" class="cls-4" d="M106.3 59.32v60.94c.84-.43.42-1.21.42-1.8V61.14c.01-.61.38-1.38-.42-1.82z"/><path id="_Path_57" data-name="&amp;lt;Path&amp;gt;" class="cls-5" d="M148.65 125.6h-29v.74h30z"/><path id="_Path_58" data-name="&amp;lt;Path&amp;gt;" class="cls-5" d="M101.66 36.23a32 32 0 0 1 0 3.3c-.15 1.46.43 1.8 1.84 1.83 1.77 0 1.38-1 1.31-2-.15-2.28-.4-4.56-.49-6.84 0-1.15-.54-1.4-1.57-1.41-1.24 0-1.07.8-1.07 1.54-.03 1.2-.02 2.35-.02 3.58z"/><path id="_Path_59" data-name="&amp;lt;Path&amp;gt;" class="cls-5" d="M155.64 99.42c.21-1.29 1.4-2 2-3.39h-8.27c.31 1.36 1.74 2 1.95 3.39a2.59 2.59 0 0 1 1.54 2c.51 0 1 .22 1.49-.16-.12-.96.1-1.76 1.29-1.84z"/><path id="_Path_60" data-name="&amp;lt;Path&amp;gt;" class="cls-5" d="M166.44 112.17c-.07-1 1.1-1.43 1.22-2.57a51.21 51.21 0 0 0-8.19 0l1 2.09c.54.17 1 .39.52 1.05.91-.22.94.44 1 1 1 .31 1.22 1.77 2.52 1.52a1.73 1.73 0 0 1 1.55-2.07c-.45-.66-.09-.92.52-1z"/><path id="_Path_61" data-name="&amp;lt;Path&amp;gt;" class="cls-4" d="M239.45 108.05a32.81 32.81 0 0 1 6.54-1.94c1.57-.18.83-1.35.93-2.14.11-1-.41-1.29-1.36-1.33-2.86-.12-4.87 1.53-6.11 5.41z"/><path id="_Path_62" data-name="&amp;lt;Path&amp;gt;" class="cls-4" d="M187.85 52.51c1.67.49 2.27-.43 2.16-2.36-.1-1.77-.63-2.77-2.67-2.81-2.63-.05-2.34 1.7-2.51 3.37-.24 2.36 1.44 1.67 3.02 1.8z"/><path id="_Path_63" data-name="&amp;lt;Path&amp;gt;" class="cls-4" d="M229.73 112.18c3-.5 5.15-5 3.42-7.39-.62-.85-1.71-.5-2.57-.41s-.91 1.09-.68 1.59c1 2.13-.31 4.15-.15 6.22z"/><path id="_Compound_Path_8" data-name="&amp;lt;Compound Path&amp;gt;" class="cls-4" d="M183.12 59.22c-.89 0-1.41-.1-1.34-1.21.06-.88.18-.93 1.16-1.06a43.7 43.7 0 0 1 9.2-.07c1.07.08 1.37-.1 1.42 1.06s-.65 1.3-1.57 1.28h-4.31c-1.44 0-3.04-.05-4.56 0zm-.07-1.5v.38h9.15l.07-.38z"/><path id="_Path_64" data-name="&amp;lt;Path&amp;gt;" class="cls-4" d="M161.44 119.31c.07 1.14-1.2 1.58-1.41 2.76h7c.52-.87-1.31-1.27-.6-2.27h.05c-1.08.39-1-.42-1.06-1-.66-.12-1-.38-.53-1.07-.69.33-.77.05-.55-.54a1.38 1.38 0 0 1-1.57-.52c.47 1.07 0 1.49-1 1.58.49.68.12.94-.52 1.07z"/><path id="_Path_65" data-name="&amp;lt;Path&amp;gt;" class="cls-4" d="M186 113.58a31.2 31.2 0 0 1 9.54-4c.65-.14 1.13-.34 1.08-1.12s-.48-.81-1.05-.77c-3.73.28-7.09 1.4-9.62 4.33a1.24 1.24 0 0 0 .05 1.56z"/><path id="_Path_66" data-name="&amp;lt;Path&amp;gt;" class="cls-4" d="M204.79 107.73c-.62-3.13-2-4.54-4.84-5-.89-.13-2.15-.71-2.3 1-.11 1.23-.45 2.58 1.66 2.52a11.22 11.22 0 0 1 2.91.78c.85.23 1.61.85 2.57.7z"/><path id="_Path_67" data-name="&amp;lt;Path&amp;gt;" class="cls-4" d="M156.71 111.15c-1.28.32-1.37 1.35-1.44 2.39.33.13.62.3.25.67s-.52.41-.77 0c.48.68.18 1-.52 1-.28 1 .29 1.74.54 2.59.55.17 1 .39.53 1.07.92-.23 1 .44 1.06 1 .61.19 1.59 1.64 1.48-.5a27.87 27.87 0 0 1 .05-5.85c.11-1.34-1.41-1.36-1.18-2.37z"/><path id="_Path_68" data-name="&amp;lt;Path&amp;gt;" class="cls-4" d="M155.64 99.42c-1.19.08-1.41.89-1.39 1.87a6 6 0 0 1 0 2.77c.19 0 .32-.33.59-.05s0 .4-.06.59c1-.29 1 .42 1 1 .64.12 1 .37.52 1 .7-.35.6.11.54.53.54-.14 1-.18 1-1-.08-2.57 0-5.14 0-7.71-1.26-.12-.94 1.36-1.83 1.44-.05 0-.13-.09-.17-.15a1.14 1.14 0 0 1-.2-.29z"/><path id="_Path_69" data-name="&amp;lt;Path&amp;gt;" class="cls-5" d="M149.47 122.36h-43.39v.38h43.47z"/><path id="_Path_70" data-name="&amp;lt;Path&amp;gt;" class="cls-4" d="M151.83 105.54a1.36 1.36 0 0 0 .89-1.45v-2.65c-1.3-.09-1.66-.89-1.54-2.05-1.15.56-1-1.11-2.12-1.06 0 2.54.06 5.11 0 7.68 0 1 .68.78 1.12 1.05-.49-.68-.13-.94.52-1.05.07-.71.61-.57 1.13-.47z"/><path id="_Path_71" data-name="&amp;lt;Path&amp;gt;" class="cls-4" d="M157.65 89.76l-7.71 5.14h3.46c4.44-.01 4.44-.01 4.25-5.14z"/><path id="_Path_72" data-name="&amp;lt;Path&amp;gt;" class="cls-4" d="M166.5 108.07l-6.78-4.48c-.22.23-.31.28-.31.33-.33 4.65-.32 4.65 4.18 4.66h2.71z"/><path id="_Path_73" data-name="&amp;lt;Path&amp;gt;" class="cls-4" d="M166.47 119.8c.53 0 1.58 1.95 1.48-.43a41 41 0 0 1 0-6.08c.18-1.66-.75-1.14-1.55-1.12.5.69.2 1-.52 1a2.12 2.12 0 0 1-1.55 2.07v2.09c.54-.18.57.16.55.54.56.17 1 .39.53 1.07.92-.23.94.46 1.06 1z"/><path id="_Path_74" data-name="&amp;lt;Path&amp;gt;" class="cls-5" d="M197.12 100.86c.9-.25.46-1 .46-1.46v-37c0-.45.26-1-.48-1.23l.02 39.69z"/><path id="_Path_75" data-name="&amp;lt;Path&amp;gt;" class="cls-4" d="M197.12 100.86V61.18c-.78.57-.42 1.4-.42 2.1v36c0 .55-.34 1.23.42 1.58z"/><path id="_Path_76" data-name="&amp;lt;Path&amp;gt;" class="cls-4" d="M66.34 126.52c1-.52 2.94 1.06 3-1.69 0-3.26-2.31-1.51-3.58-1.82s-2.4-.33-2.39 1.74c-.05 2.68 1.8 1.38 2.97 1.77z"/><path id="_Path_77" data-name="&amp;lt;Path&amp;gt;" class="cls-4" d="M160.44 111.66a1.35 1.35 0 0 0-1.11 1.55c.08 2.41 0 4.82 0 7.2 1.17.39.94-1.57 2.08-1.1-.48-.68 0-.9.52-1.07a1.73 1.73 0 0 1 1-1.58c.52-1.29-1.69-1.73-1-3.09-1 .31-1.05-.33-1-1-.72-.08-1-.37-.52-1.05z"/><path id="_Compound_Path_9" data-name="&amp;lt;Compound Path&amp;gt;" class="cls-4" d="M187.6 55.88h-3c-1 0-1.42-.25-1.37-1.28 0-.85.14-1.08 1.23-1.2a52.13 52.13 0 0 1 6.2 0c1.16 0 1 .5 1 1.12s.06 1.4-1 1.34-2 0-3 0zm-2.91-1.24a9.61 9.61 0 0 0 5.42-.12 8.42 8.42 0 0 0-5.42.12z"/><path id="_Path_78" data-name="&amp;lt;Path&amp;gt;" class="cls-4" d="M96.56 123.89h3.31c.45 0 .83-.09.85-.66s-.11-1-.79-1h-6.87c-.62 0-.89.35-.88 1s.57.73 1.07.74c1.11-.07 2.21-.08 3.31-.08z"/><path id="_Path_79" data-name="&amp;lt;Path&amp;gt;" class="cls-4" d="M202.84 124.8h-4.07c-.49 0-1.05 0-1.11.7-.07.89.54.9 1.16.9h8.65c.61 0 1.26 0 1.23-.88s-.7-.82-1.29-.83h-4.58z"/><path id="_Path_80" data-name="&amp;lt;Path&amp;gt;" class="cls-4" d="M66.26 119.67a11.14 11.14 0 0 1-1.51 0c-1-.13-1.36.17-1.38 1.21s.48 1.47 1.52 1.39c.84-.06 1.68 0 2.52 0s1.85.25 1.89-1.24-.81-1.4-1.79-1.37h-1.26z"/><path id="_Path_81" data-name="&amp;lt;Path&amp;gt;" class="cls-4" d="M241.64 126.45h4.3c.55 0 1-.16 1-.83s-.47-.86-1-.86h-9.11c-.57 0-1 .16-1 .83s.37.87 1 .87z"/><path id="_Path_82" data-name="&amp;lt;Path&amp;gt;" class="cls-5" d="M133.6 118.82h-9.65c-.5 0-1.27-.31-1.31.67s.56.89 1.19.89h8.12c1.15.09 1.42-.58 1.65-1.56z"/><path id="_Path_83" data-name="&amp;lt;Path&amp;gt;" class="cls-4" d="M215 119.68h2.78c.68 0 1.17-.14 1.15-.94s-.58-.88-1.21-.87l-5.05.05c-.57 0-1.27-.12-1.32.74-.06 1 .69 1 1.38.95H215z"/><path id="_Path_84" data-name="&amp;lt;Path&amp;gt;" class="cls-4" d="M229.37 117.87h-2.78c-.59 0-.93.23-.93.88a.81.81 0 0 0 .91.93h5.81a.81.81 0 0 0 .92-.91.79.79 0 0 0-.9-.92z"/><path id="_Path_85" data-name="&amp;lt;Path&amp;gt;" class="cls-4" d="M178.87 123.45v2c0 .62.16 1 .83 1s1.46.31 1.57-.36a13 13 0 0 0-.06-5.26c-.15-.59-.92-.41-1.33-.3-1.93.47-.56 2.1-1.01 2.92z"/><path id="_Path_86" data-name="&amp;lt;Path&amp;gt;" class="cls-4" d="M222.25 119.72c1-.22 2.58.66 2.55-1.43s-1.54-1.23-2.39-1.16-2.8-1-2.75 1.34 1.74.83 2.59 1.25z"/><path id="_Path_87" data-name="&amp;lt;Path&amp;gt;" class="cls-4" d="M160.7 123l.49 3.27c.31-2.3 1.5-2.82 3.67-2.52.93.13 1.33.06 1.26 1.07-.05.75-.19 1.58 1 1.52 1 0 .81-.72.74-1.26-.09-.79.57-2.05-1-2.08-2.01-.06-4.04 0-6.16 0z"/><path id="_Path_88" data-name="&amp;lt;Path&amp;gt;" class="cls-4" d="M119.6 126.36v-.74H106v.74z"/><path id="_Path_89" data-name="&amp;lt;Path&amp;gt;" class="cls-4" d="M157.49 126.53c.27-1.27.82-2.85-.18-3.3a6.83 6.83 0 0 0-5.17 0c-1.06.43-.26 2-.47 3.4 1.62-.82.41-2.29 1.35-3 .81.75-.22 2 .94 2.85.73-.87-.82-3.41 2-2.75 1.95.45.18 2.01 1.53 2.8z"/><path id="_Path_90" data-name="&amp;lt;Path&amp;gt;" class="cls-4" d="M96.23 124.74h-3c-.54 0-1 .18-1 .84s.43.85 1 .85h6.57c.57 0 1-.15 1-.84s-.36-.87-1-.86c-1.22.02-2.4.01-3.57.01z"/><path id="_Path_91" data-name="&amp;lt;Path&amp;gt;" class="cls-4" d="M215.55 114.57c-.44 1.65.65 1.61 1.85 1.7 1.58.12 1.47-.8 1.55-1.89.1-1.46-.57-1.62-1.8-1.61s-1.93.37-1.6 1.8z"/><path id="_Path_92" data-name="&amp;lt;Path&amp;gt;" class="cls-4" d="M220.34 126.46h3.35c.53 0 1-.08 1.06-.75s-.42-.91-1.1-1c-2.15-.25-4.27.69-6.43.05-.59-.17-.87.33-.84.93s.51.74 1 .76c1.04.04 2.04-.36 2.96.01z"/><path id="_Path_93" data-name="&amp;lt;Path&amp;gt;" class="cls-4" d="M184.35 123.2c-.45-.74.81-2.56-.87-2.64-2.12-.11-.79 1.87-1.15 2.87a1.27 1.27 0 0 0 0 .74c.24.8-.72 2.26 1 2.24s.65-1.51 1-2.27a3.1 3.1 0 0 0 .02-.94z"/><path id="_Path_94" data-name="&amp;lt;Path&amp;gt;" class="cls-4" d="M39.67 92.35h-1.76c-.58 0-.93.21-.92.87a.81.81 0 0 0 .91.92h3.77c.76 0 1.35-.14 1.32-1.06s-.75-.73-1.3-.75-1.35.02-2.02.02z"/><path id="_Path_95" data-name="&amp;lt;Path&amp;gt;" class="cls-4" d="M217.29 103.43c1.69.38 1.78-.67 1.61-1.73-.1-.65.51-2-1-1.69-1 .23-2.38.25-2.43 2-.05 1.55.83 1.55 1.82 1.42z"/><path id="_Path_96" data-name="&amp;lt;Path&amp;gt;" class="cls-5" d="M229.85 122.95c.92-.6 3.2 1.05 3.22-.91 0-1.41-2.21-.47-3.42-.66a20.5 20.5 0 0 0-3 0c-.57 0-.93.15-1 .83s.49.74 1 .75c.98.04 1.99-.01 3.2-.01z"/><path id="_Path_97" data-name="&amp;lt;Path&amp;gt;" class="cls-4" d="M215.09 123h2.79c.51 0 1-.07 1-.78s-.43-.85-1-.85h-5.57c-.52 0-1 0-1 .74s.43.81 1 .81h2.79z"/><path id="_Path_98" data-name="&amp;lt;Path&amp;gt;" class="cls-4" d="M215.56 106c-.39 1.64.66 1.56 1.74 1.66 1.42.14 1.7-.48 1.66-1.74 0-1.11-.19-1.77-1.54-1.62-1.14.14-2.36-.01-1.86 1.7z"/><path id="_Path_99" data-name="&amp;lt;Path&amp;gt;" class="cls-4" d="M227.47 103.48c.94.05 1.75.24 1.79-1.3.05-2.17-1.76-2-2.76-2.11s-.49 1.42-.75 2.17c-.51 1.5.86 1.19 1.72 1.24z"/><path id="_Path_100" data-name="&amp;lt;Path&amp;gt;" class="cls-4" d="M218.88 110.71c.13-1.35.17-2.4-1.43-2.12-.69.12-1.79-.33-1.65 1.05s.2 2.42 2.06 2.44c1.59.03.92-.97 1.02-1.37z"/><path id="_Path_101" data-name="&amp;lt;Path&amp;gt;" class="cls-4" d="M215 110c.35-1.27-.6-1.47-1.89-1.33-.75.08-1.81-.39-1.7 1.08.12 1.63 1.44 2 2.6 2.2s.84-.95.99-1.95z"/><path id="_Path_102" data-name="&amp;lt;Path&amp;gt;" class="cls-4" d="M211.36 114.31c-.26 1.39.12 2 1.56 1.92 1.13-.05 1.67-.2 1.65-1.53s-.31-2-1.83-1.94c-1.33.01-1.66.5-1.38 1.55z"/><path id="_Path_103" data-name="&amp;lt;Path&amp;gt;" class="cls-4" d="M209.58 102.65h-5l2 3.71z"/><path id="_Path_104" data-name="&amp;lt;Path&amp;gt;" class="cls-4" d="M240.39 102.64H235l2.9 3.72a13.83 13.83 0 0 1 2.49-3.72z"/><path id="_Path_105" data-name="&amp;lt;Path&amp;gt;" class="cls-4" d="M181.61 119.7h1.27c.75 0 1.14-.33 1.08-1-.08-1-.94-.84-1.55-.76-1.17.15-2.57-.67-3.45.56-.38.54.19 1.12.87 1.2a14.83 14.83 0 0 0 1.77 0z"/><path id="_Path_106" data-name="&amp;lt;Path&amp;gt;" class="cls-4" d="M20.35 92.34a8.09 8.09 0 0 0-1.26 0c-.52.08-1.26-.34-1.49.46a1.35 1.35 0 0 0 .19 1.2 1.33 1.33 0 0 0 1.62 0c.84-.63 1.83.17 2.64-.4.52.91 1 .82 1.26-.13s-.43-1.11-1.2-1.08c-.59-.03-1.17-.05-1.76-.05z"/><path id="_Path_107" data-name="&amp;lt;Path&amp;gt;" class="cls-4" d="M212.9 104.44c-1.75-.36-1.53.77-1.61 1.79-.11 1.43.75 1.34 1.74 1.41 1.3.09 1.52-.51 1.54-1.63.01-1.32-.38-2.01-1.67-1.57z"/><path id="_Path_108" data-name="&amp;lt;Path&amp;gt;" class="cls-4" d="M92.39 86.28h8.15v-.41H92.4z"/><path id="_Path_109" data-name="&amp;lt;Path&amp;gt;" class="cls-4" d="M92.38 62.47h8.25V62h-8.25z"/><path id="_Path_110" data-name="&amp;lt;Path&amp;gt;" class="cls-4" d="M220.06 103.49c-.29-2 .23-3.14 2.57-2.55a8.31 8.31 0 0 0 2 0c.51-2.07-1.11-1.71-2.09-1.62s-2.76-.83-2.8 1.34c-.03.96-.5 1.98.32 2.83z"/><path id="_Path_111" data-name="&amp;lt;Path&amp;gt;" class="cls-4" d="M92.35 59.94h8.29v-.44h-8.29z"/><path id="_Path_112" data-name="&amp;lt;Path&amp;gt;" class="cls-4" d="M100.55 45.26a23 23 0 0 0-8.16-.07c2.72.71 5.44.3 8.16.07z"/><path id="_Path_113" data-name="&amp;lt;Path&amp;gt;" class="cls-5" d="M222.13 121.39h-1.77c-.59 0-.86.44-.65.83.8 1.49 2.22.45 3.35.68.54.11 1.42.42 1.64-.59.13-.59-.14-1-.8-1h-1.77z"/><path id="_Path_114" data-name="&amp;lt;Path&amp;gt;" class="cls-4" d="M91.38 24.5c-1.53 1.93-1.25 3.57-1.54 5-.1.49.25.76.76.71s.82-.39.8-1c-.05-1.3-.02-2.63-.02-4.71z"/><path id="_Path_115" data-name="&amp;lt;Path&amp;gt;" class="cls-4" d="M70 52.2a12.65 12.65 0 0 0-7.37 0z"/><path id="_Path_116" data-name="&amp;lt;Path&amp;gt;" class="cls-4" d="M100.56 42.35h-8a12 12 0 0 0 8 0z"/><path id="_Path_117" data-name="&amp;lt;Path&amp;gt;" class="cls-4" d="M249.88 126.51c.72-.36 2.18.59 2.12-.94s-1.42-.76-2.21-.79-2-.5-2 .75c-.07 1.58 1.36.63 2.09.98z"/><path id="_Path_118" data-name="&amp;lt;Path&amp;gt;" class="cls-4" d="M196 104.34c-.11-.38.29-1.29-.75-1.08-.85.17-1.88.21-1.83 1.61 0 1 .35 1.27 1.33 1.26 1.25-.03 1.25-.78 1.25-1.79z"/><path id="_Path_119" data-name="&amp;lt;Path&amp;gt;" class="cls-4" d="M179.8 55.12c.09 1 .82.66 1.32.74 1.07.17 1.27-.48 1.19-1.35 0-.55.13-1.33-.77-1.23s-1.31 1.11-1.74 1.84z"/><path id="_Path_120" data-name="&amp;lt;Path&amp;gt;" class="cls-4" d="M101.64 25.16v4c0 .62 0 1.23.91 1.11.7-.1.76-.62.61-1.12-.41-1.31-.1-2.81-1.52-3.99z"/><path id="_Path_121" data-name="&amp;lt;Path&amp;gt;" class="cls-4" d="M192.54 54.35c-.1 1 .11 1.66 1.18 1.51.51-.07 1.4.25 1.25-.66a2.24 2.24 0 0 0-1.72-1.91c-.91-.16-.65.71-.71 1.06z"/><path id="_Path_122" data-name="&amp;lt;Path&amp;gt;" class="cls-4" d="M177.71 120.55a9.86 9.86 0 0 0-.08 5.78 9.81 9.81 0 0 0 .08-5.78z"/><path id="_Path_123" data-name="&amp;lt;Path&amp;gt;" class="cls-4" d="M70.18 122.05v3.47c1.08-.23 2.15-.84 2.22-1.65s-1.17-1.19-2.22-1.82z"/><path id="_Path_124" data-name="&amp;lt;Path&amp;gt;" class="cls-4" d="M62.44 126v-3.79c-1 .34-2.15.82-2.19 1.72-.03.53 1.17 1.14 2.19 2.07z"/><path id="_Path_125" data-name="&amp;lt;Path&amp;gt;" class="cls-4" d="M64.36 61.44c0 .49 0 1.1.69 1.08s.77-.53.72-1.07 0-1.29-.86-1.19c-.73.08-.5.74-.55 1.18z"/><path id="_Path_126" data-name="&amp;lt;Path&amp;gt;" class="cls-4" d="M66.69 61.32c0 .58-.07 1.23.76 1.32 1 .11 1-.62 1-1.31s0-1.2-.87-1.18-.92.52-.89 1.17z"/><path id="_Path_127" data-name="&amp;lt;Path&amp;gt;" class="cls-4" d="M41.62 122.15c-.65 0-1.17.1-1.15.93s.67.8 1.24.79 1.29.13 1.29-.76-.71-.95-1.38-.96z"/><path id="_Path_128" data-name="&amp;lt;Path&amp;gt;" class="cls-4" d="M39.54 123.17c.1-.84-.32-1.12-1-1-.57.1-1.47-.45-1.55.7 0 .72.29 1.12 1.05 1 .54-.06 1.37.33 1.5-.7z"/><path id="_Path_129" data-name="&amp;lt;Path&amp;gt;" class="cls-4" d="M34.83 123.86c1 .08 1.34-.27 1.24-1s-.76-.71-1.35-.69-1.19.09-1.17.93c.04 1.16.97.59 1.28.76z"/><path id="_Path_130" data-name="&amp;lt;Path&amp;gt;" class="cls-4" d="M20.77 123c0 .85.53.92 1.14.88s1.41.27 1.44-.81c0-.79-.48-.95-1.13-.93s-1.39-.14-1.45.86z"/><path id="_Path_131" data-name="&amp;lt;Path&amp;gt;" class="cls-4" d="M18.66 122.15c-.69 0-1.16.12-1.16.94s.68.78 1.23.79 1.26.11 1.3-.77c.06-1.05-.72-.93-1.37-.96z"/><path id="_Path_132" data-name="&amp;lt;Path&amp;gt;" class="cls-4" d="M98.48 18.5c-.51.35-.29.9-.27 1.33 0 .68-.45 1.55.48 2a1 1 0 0 0 .9-.2 2.19 2.19 0 0 0-.11-2.13c-.16-.43-.31-1.02-1-1z"/><path id="_Path_133" data-name="&amp;lt;Path&amp;gt;" class="cls-4" d="M232.58 103.48a4.27 4.27 0 0 0-2.43-1.89c-.8 2.51 1.04 1.69 2.43 1.89z"/><path id="_Path_134" data-name="&amp;lt;Path&amp;gt;" class="cls-4" d="M210.11 105.17c-.73.69-1.92 1.08-1.48 2.4a.87.87 0 0 0 1.25.48c1.02-.8.26-1.87.23-2.88z"/><path id="_Path_135" data-name="&amp;lt;Path&amp;gt;" class="cls-4" d="M210.43 124.73c-.23 0-1-.12-1 .94s.71.75 1.28.77 1.22.14 1.27-.78-.45-.96-1.55-.93z"/><path id="_Path_136" data-name="&amp;lt;Path&amp;gt;" class="cls-4" d="M232.41 125.4c0 1.1.63 1.07 1.22 1s1.24.24 1.32-.68c.07-.73-.16-1.09-1-.87-.54.2-1.33-.15-1.54.55z"/><path id="_Path_137" data-name="&amp;lt;Path&amp;gt;" class="cls-4" d="M45.13 124.76c-.57 0-1.26-.19-1.38.68s.32 1.11 1 1c.56-.09 1.48.42 1.5-.77.06-.84-.45-.97-1.12-.91z"/><path id="_Path_138" data-name="&amp;lt;Path&amp;gt;" class="cls-4" d="M43.72 123c0 .89.58.93 1.19.88s1.25.3 1.37-.65-.62-1-1.3-1.06-1.22-.03-1.26.83z"/><path id="_Path_139" data-name="&amp;lt;Path&amp;gt;" class="cls-4" d="M33.57 125.71c.09 1 .87.7 1.49.75s1.09-.26 1-1-.77-.7-1.33-.69-1.21 0-1.16.94z"/><path id="_Path_140" data-name="&amp;lt;Path&amp;gt;" class="cls-4" d="M38.38 124.74c-.64 0-1.44-.18-1.39.93 0 .92.7.77 1.26.79s1.22.09 1.27-.79-.52-.96-1.14-.93z"/><path id="_Path_141" data-name="&amp;lt;Path&amp;gt;" class="cls-4" d="M25.47 126.45c.56 0 1.23.18 1.31-.72s-.38-1.05-1.07-1-1.45-.21-1.46.87c0 .86.61.86 1.22.85z"/><path id="_Path_142" data-name="&amp;lt;Path&amp;gt;" class="cls-4" d="M40.48 125.7c.08 1.07.91.7 1.5.74s1.11-.32 1-1.05-.84-.62-1.39-.65-1.19.14-1.11.96z"/><path id="_Path_143" data-name="&amp;lt;Path&amp;gt;" class="cls-4" d="M212.91 125.6c-.08.93.59.88 1.18.85s1.26.25 1.35-.69-.61-1-1.31-1-1.24-.06-1.22.84z"/><path id="_Path_144" data-name="&amp;lt;Path&amp;gt;" class="cls-4" d="M225.68 125.7c.11 1.05.94.7 1.54.75.77.07 1.08-.35 1-1.07s-.87-.61-1.4-.65-1.24.11-1.14.97z"/><path id="_Path_145" data-name="&amp;lt;Path&amp;gt;" class="cls-4" d="M229.13 125.61c0 .91.62.84 1.21.84s1.25.12 1.31-.75c.08-1.06-.72-.92-1.37-1s-1.19.08-1.15.91z"/><path id="_Path_146" data-name="&amp;lt;Path&amp;gt;" class="cls-4" d="M22 124.75c-.38 0-1.1-.13-1.18.72-.1 1 .65 1 1.34 1s1.21 0 1.21-.85-.58-.91-1.37-.87z"/><path id="_Path_147" data-name="&amp;lt;Path&amp;gt;" class="cls-4" d="M18.67 124.74c-.67-.08-1.16.06-1.16.87s.58.86 1.2.84 1.42 0 1.32-1-.82-.65-1.36-.71z"/><path id="_Path_148" data-name="&amp;lt;Path&amp;gt;" class="cls-4" d="M14.06 123.16c.12 1 1 .65 1.54.72.78.09 1.07-.34 1-1.06-.14-.89-.86-.61-1.39-.63s-1.27.06-1.15.97z"/><path id="_Path_149" data-name="&amp;lt;Path&amp;gt;" class="cls-4" d="M25.51 122.17c-.58 0-1.23 0-1.25.83 0 1.11.8.82 1.43.88s1.16-.08 1.11-.92-.72-.75-1.29-.79z"/><path id="_Path_150" data-name="&amp;lt;Path&amp;gt;" class="cls-4" d="M15.28 124.72c-.48.08-1.19-.11-1.23.8-.05 1.09.72.91 1.38.93s1.19 0 1.16-.89-.66-.81-1.31-.84z"/><path id="_Path_151" data-name="&amp;lt;Path&amp;gt;" class="cls-4" d="M120.33 83.09c0-1.53 1.42-3.06 0-4.6v4.6z"/><path id="_Path_152" data-name="&amp;lt;Path&amp;gt;" class="cls-5" d="M58.2 55.94c-1.42 1.29-1 2.74-.36 4.21.9-1.34.32-2.8.36-4.21z"/><path id="_Path_153" data-name="&amp;lt;Path&amp;gt;" class="cls-4" d="M178.05 79.55a4.06 4.06 0 0 0 0 3.54q-.05-1.76 0-3.54z"/><path id="_Path_154" data-name="&amp;lt;Path&amp;gt;" class="cls-4" d="M178 108.62a2.2 2.2 0 0 0 0 2.53v-2.53z"/><path id="_Path_155" data-name="&amp;lt;Path&amp;gt;" class="cls-4" d="M120.51 42.72l.07-2.5a4.15 4.15 0 0 0-.07 2.5z"/><path id="_Path_156" data-name="&amp;lt;Path&amp;gt;" class="cls-4" d="M148.65 125.6l1 .73c.33 0 .45-.25.34-.47-.34-.58-.87-.33-1.34-.26z"/><path id="_Path_157" data-name="&amp;lt;Path&amp;gt;" class="cls-4" d="M120.6 101l-.1-.95z"/><path id="_Path_158" data-name="&amp;lt;Path&amp;gt;" class="cls-4" d="M177.37 61.21h.63c0-.33-.22-.34-.42-.31s-.14.2-.21.31z"/><path id="_Path_159" data-name="&amp;lt;Path&amp;gt;" class="cls-4" d="M87.46 126.35l-1-.41c.08.76.54.47 1 .41z"/><path id="_Path_160" data-name="&amp;lt;Path&amp;gt;" class="cls-4" d="M178 73.44a2.13 2.13 0 0 0-.14.36l.16.13z"/><path id="_Path_161" data-name="&amp;lt;Path&amp;gt;" class="cls-4" d="M178 116.26l-.31.56c.42-.02.43-.26.31-.56z"/><path id="_Path_162" data-name="&amp;lt;Path&amp;gt;" class="cls-4" d="M86.47 59.66l.48-.36c-.32-.09-.54-.04-.48.36z"/><path id="_Path_163" data-name="&amp;lt;Path&amp;gt;" class="cls-4" d="M182.41 75.47a2.27 2.27 0 0 0 .18-.36s-.1-.1-.16-.15z"/><path id="_Path_164" data-name="&amp;lt;Path&amp;gt;" class="cls-3" d="M134.17 79.79h-12.44v.5h12.46z"/><path id="_Path_165" data-name="&amp;lt;Path&amp;gt;" class="cls-4" d="M133.88 77.93v-.84L121.64 77v1z"/><path id="_Path_166" data-name="&amp;lt;Path&amp;gt;" class="cls-4" d="M121.63 82.07l.49.95h11.75l.45-1z"/><path id="_Path_167" data-name="&amp;lt;Path&amp;gt;" class="cls-3" d="M131.56 110.41h-7.26v.44h7.3z"/><path id="_Path_168" data-name="&amp;lt;Path&amp;gt;" class="cls-3" d="M124.3 108.79a11.74 11.74 0 0 0 7.21 0z"/><path id="_Path_169" data-name="&amp;lt;Path&amp;gt;" class="cls-3" d="M121.63 82.07l12.7-.07a1.41 1.41 0 0 1 0-.33 85.9 85.9 0 0 0-12.71-.14z"/><path id="_Path_170" data-name="&amp;lt;Path&amp;gt;" class="cls-3" d="M133.88 83h-11.75c.06 1 1.15.64 1.59 1.14a36.45 36.45 0 0 1 9.53-.11c.28-.28 1.38-.03.63-1.03z"/><path id="_Path_171" data-name="&amp;lt;Path&amp;gt;" class="cls-3" d="M121.64 77l12.24.12c.63-.37.17-.64-.08-.94l-12.18.3z"/><path id="_Path_172" data-name="&amp;lt;Path&amp;gt;" class="cls-4" d="M121.64 81.53a85.9 85.9 0 0 1 12.71.14c-.3-.68-.92-.68-1.5-.64-3.74.29-7.52-.66-11.21.5z"/><path id="_Path_173" data-name="&amp;lt;Path&amp;gt;" class="cls-4" d="M121.61 78.56c3.26 1.2 6.63.28 9.95.5.92.06 2.06.49 2.78-.6a68.87 68.87 0 0 1-12.73.1z"/><path id="_Path_174" data-name="&amp;lt;Path&amp;gt;" class="cls-3" d="M121.61 78.56a68.87 68.87 0 0 0 12.73-.1l-.47-.54-12.23.08z"/><path id="_Path_175" data-name="&amp;lt;Path&amp;gt;" class="cls-4" d="M121.62 76.45l12.18-.3c-4.07-.21-8.15-.77-12.18.3z"/><path id="_Path_176" data-name="&amp;lt;Path&amp;gt;" class="cls-4" d="M133.24 84a36.45 36.45 0 0 0-9.53.11z"/><path id="_Path_177" data-name="&amp;lt;Path&amp;gt;" class="cls-3" d="M124.26 112.59h7.28v-.33h-7.28z"/><path id="_Path_178" data-name="&amp;lt;Path&amp;gt;" class="cls-3" d="M121.76 23.4h12.35c-4.09-1.06-8.2-.79-12.3-.68z"/><path id="_Path_179" data-name="&amp;lt;Path&amp;gt;" class="cls-3" d="M121.7 46.43c0 .57.1 1 .79 1h11.08c.54 0 .66-.41.74-.84z"/><path id="_Path_180" data-name="&amp;lt;Path&amp;gt;" class="cls-3" d="M121.73 26.7h12.39v-.45h-12.38z"/><path id="_Path_181" data-name="&amp;lt;Path&amp;gt;" class="cls-3" d="M132.31 17.71h-8.79v.45h8.83z"/><path id="_Path_182" data-name="&amp;lt;Path&amp;gt;" class="cls-3" d="M123.47 8h8.89v-.37h-8.89z"/><path id="_Path_183" data-name="&amp;lt;Path&amp;gt;" class="cls-3" d="M134.17 24.56h-12.41v.38h12.41z"/><path id="_Path_184" data-name="&amp;lt;Path&amp;gt;" class="cls-3" d="M189.82 80.61c.13.29.18.75.4.84.61.25.67-.27.67-.69v-9.71c-1.4 1.23-.74 2.43-1 3.37z"/><path id="_Path_185" data-name="&amp;lt;Path&amp;gt;" class="cls-3" d="M185 73.4c-.25-.56.29-1.36-.79-1.88v10h.8V73.4z"/><path id="_Path_186" data-name="&amp;lt;Path&amp;gt;" class="cls-4" d="M188.2 70.35a1.05 1.05 0 0 1-1.58 0v10.23c.79-2.34-.05-4.82.5-7.23 1.21.37.42 1.61 1.1 2.13z"/><path id="_Path_187" data-name="&amp;lt;Path&amp;gt;" class="cls-4" d="M189.82 80.61v-6.19c-.88-1.25.13-2.81-.68-4.07L189 81.6z"/><path id="_Path_188" data-name="&amp;lt;Path&amp;gt;" class="cls-4" d="M185 73.4V76c1.06 1.74-.4 3.88.87 5.59l-.19-11.25c-.77.91.09 2.17-.68 3.06z"/><path id="_Path_189" data-name="&amp;lt;Path&amp;gt;" class="cls-3" d="M189 81.6l.19-11.25c-.33-.62-.65-.57-1 0v10.2c.21.45-.07 1.14.81 1.05z"/><path id="_Path_190" data-name="&amp;lt;Path&amp;gt;" class="cls-3" d="M185.65 70.35l.19 11.25c.85.1.6-.62.77-1V70.35c-.31-.56-.61-.63-.96 0z"/><path id="_Path_191" data-name="&amp;lt;Path&amp;gt;" class="cls-3" d="M186.37 100.3V89.64H186v10.6z"/><path id="_Path_192" data-name="&amp;lt;Path&amp;gt;" class="cls-3" d="M188.46 89.59v10.66h.37V89.64z"/><path id="_Path_193" data-name="&amp;lt;Path&amp;gt;" class="cls-3" d="M186.52 86c.07.6.16 1.23 1 1.18.61 0 .79-.54.82-1.08s-.12-1.27-.83-1.33-.92.64-.99 1.23z"/><path id="_Path_194" data-name="&amp;lt;Path&amp;gt;" class="cls-3" d="M184 86.21c.07.46.24 1 .85 1 .78 0 1-.59 1-1.2s-.22-1.27-1-1.2-.9.69-.85 1.4z"/><path id="_Path_195" data-name="&amp;lt;Path&amp;gt;" class="cls-3" d="M189.05 86c.07.6.21 1.21 1 1.16.6 0 .8-.53.84-1.08s-.17-1.27-.86-1.32-.92.63-.98 1.24z"/><path id="_Path_196" data-name="&amp;lt;Path&amp;gt;" class="cls-4" d="M188.22 80.55V76.5a5.33 5.33 0 0 0 0 4.05z"/><path id="_Path_197" data-name="&amp;lt;Path&amp;gt;" class="cls-3" d="M134.17 52.66h-12.42V53h12.42z"/><path id="_Path_198" data-name="&amp;lt;Path&amp;gt;" class="cls-3" d="M197.36 119.63h-2.8c-.52 0-1.06.13-1.09.79s.4.92 1 .93h6.37a.86.86 0 0 0 1-.93c0-.65-.57-.78-1.09-.8h-3.31z"/><path id="_Path_199" data-name="&amp;lt;Path&amp;gt;" class="cls-3" d="M197.75 117.9a19 19 0 0 0 2 0c.74-.08 2 .45 1.94-.89 0-1.07-1.12-.79-1.83-.8h-4.84c-.65 0-1.52-.14-1.59.81s.83.86 1.47.88c.98.03 1.92 0 2.85 0z"/><path id="_Path_200" data-name="&amp;lt;Path&amp;gt;" class="cls-3" d="M166 84.1a3.21 3.21 0 0 0-3.09 2.07A4.32 4.32 0 0 0 166 84.1z"/><path id="_Path_201" data-name="&amp;lt;Path&amp;gt;" class="cls-3" d="M162.93 86.14c-.89-.2-1.54-.05-1.56 1a1.29 1.29 0 0 0 1.56-1z"/><path id="_Path_202" data-name="&amp;lt;Path&amp;gt;" class="cls-3" d="M152.75 101.44v2.65a1.05 1.05 0 0 1 1.52 0 6 6 0 0 0 0-2.77c-.49.34-1.01.16-1.52.12z"/><path id="_Path_203" data-name="&amp;lt;Path&amp;gt;" class="cls-3" d="M154.8 117.8c-.25-.85-.82-1.63-.54-2.59l-2-.51c-.34.78.87 1.23.45 2l.39.54c.77-.5.9 1.24 1.7.56z"/><path id="_Path_204" data-name="&amp;lt;Path&amp;gt;" class="cls-3" d="M155.79 105.59c-.08-.61-.07-1.32-1-1-.03.64.05 1.25 1 1z"/><path id="_Path_205" data-name="&amp;lt;Path&amp;gt;" class="cls-3" d="M150.7 112.66c0 .7 0 1.35 1 1-.06-.55-.1-1.21-1-1z"/><path id="_Path_206" data-name="&amp;lt;Path&amp;gt;" class="cls-3" d="M154.23 115.24c.7-.09 1-.37.52-1-.6.09-.98.34-.52 1z"/><path id="_Path_207" data-name="&amp;lt;Path&amp;gt;" class="cls-3" d="M151.74 113.68c-.5.69-.21 1 .52 1 .45-.61.03-.84-.52-1z"/><path id="_Path_208" data-name="&amp;lt;Path&amp;gt;" class="cls-3" d="M156.28 106.6c.48-.67.12-.93-.52-1-.49.63-.13.89.52 1z"/><path id="_Path_209" data-name="&amp;lt;Path&amp;gt;" class="cls-3" d="M154.75 114.2c.25.43.53.26.77 0s.08-.54-.25-.67c-.27.18-.63.22-.52.67z"/><path id="_Path_210" data-name="&amp;lt;Path&amp;gt;" class="cls-3" d="M151.83 105.54c-.52-.1-1.06-.23-1.15.56.74.53.89-.1 1.15-.56z"/><path id="_Path_211" data-name="&amp;lt;Path&amp;gt;" class="cls-3" d="M150.73 106.06c-.66.11-1 .37-.52 1.05.63-.11 1-.38.52-1.05z"/><path id="_Path_212" data-name="&amp;lt;Path&amp;gt;" class="cls-3" d="M150.21 111.64c-.47.67-.19 1 .52 1 .44-.64.05-.84-.52-1z"/><path id="_Path_213" data-name="&amp;lt;Path&amp;gt;" class="cls-3" d="M156.81 107.12c.07-.42.17-.88-.54-.53-.02.41-.1.81.54.53z"/><path id="_Path_214" data-name="&amp;lt;Path&amp;gt;" class="cls-3" d="M154.76 104.57c0-.19.33-.32.06-.59s-.4 0-.59.05c-.01.36.05.65.53.54z"/><path id="_Path_215" data-name="&amp;lt;Path&amp;gt;" class="cls-3" d="M153.24 79a3.19 3.19 0 0 0-3.09 2.07 4.43 4.43 0 0 0 3.09-2.07z"/><path id="_Path_216" data-name="&amp;lt;Path&amp;gt;" class="cls-3" d="M152.19 84.65c0 1.4 1.19 1.34 2.07 1.65-.1-1.3-1.08-1.48-2.07-1.65z"/><path id="_Path_217" data-name="&amp;lt;Path&amp;gt;" class="cls-3" d="M150.15 83.65c.52.69 1 1.42 2.07 1-.51-.65-.88-1.65-2.07-1z"/><path id="_Path_218" data-name="&amp;lt;Path&amp;gt;" class="cls-3" d="M154.77 78c-.9-.21-1.55-.07-1.57 1a1.33 1.33 0 0 0 1.57-1z"/><path id="_Path_219" data-name="&amp;lt;Path&amp;gt;" class="cls-3" d="M155.78 77c-.58.12-1.28.12-1 1 .64 0 1.3 0 1-1z"/><path id="_Path_220" data-name="&amp;lt;Path&amp;gt;" class="cls-3" d="M154.23 72.42c0 1.12.63 1.3 1.56 1a1.25 1.25 0 0 0-1.56-1z"/><path id="_Path_221" data-name="&amp;lt;Path&amp;gt;" class="cls-3" d="M152.7 71.4c0 1.17.67 1.24 1.56 1-.18-.83-.77-1.06-1.56-1z"/><path id="_Path_222" data-name="&amp;lt;Path&amp;gt;" class="cls-3" d="M151.17 70.39c0 1.1.63 1.3 1.56 1-.25-.72-.68-1.2-1.56-1z"/><path id="_Path_223" data-name="&amp;lt;Path&amp;gt;" class="cls-3" d="M154.26 64.72c-.75-.6-.88.16-1.18.53.86.85.92-.01 1.18-.53z"/><path id="_Path_224" data-name="&amp;lt;Path&amp;gt;" class="cls-3" d="M154.77 59.18a4.29 4.29 0 0 0-3.09-2.06 3.14 3.14 0 0 0 3.09 2.06z"/><path id="_Path_225" data-name="&amp;lt;Path&amp;gt;" class="cls-3" d="M151.71 57.14a1.3 1.3 0 0 0-1.56-1c.03 1.03.67 1.2 1.56 1z"/><path id="_Path_226" data-name="&amp;lt;Path&amp;gt;" class="cls-3" d="M164.94 98.4a1.29 1.29 0 0 0 1.56-1c-.89-.25-1.5-.02-1.56 1z"/><path id="_Path_227" data-name="&amp;lt;Path&amp;gt;" class="cls-3" d="M156.32 119.84c-.1-.6-.14-1.27-1.06-1 .07.59 0 1.38 1.06 1z"/><path id="_Path_228" data-name="&amp;lt;Path&amp;gt;" class="cls-3" d="M152.68 116.73c-.56.4-.79 1-.28 1.42.32.24.39-.6.67-.88z"/><path id="_Path_229" data-name="&amp;lt;Path&amp;gt;" class="cls-3" d="M155.29 118.83c.48-.68 0-.9-.53-1.07-.5.69-.12.95.53 1.07z"/><path id="_Path_230" data-name="&amp;lt;Path&amp;gt;" class="cls-3" d="M134.17 48.36h-12.35v.38h12.35z"/><path id="_Path_231" data-name="&amp;lt;Path&amp;gt;" class="cls-3" d="M151.23 99.41c-.13 1.16.24 2 1.54 2.05a2.59 2.59 0 0 0-1.54-2.05z"/><path id="_Path_232" data-name="&amp;lt;Path&amp;gt;" class="cls-3" d="M161.94 113.68c-.72 1.36 1.49 1.8 1 3.09a1.38 1.38 0 0 0 1.57.52v-2.09c-1.35.26-1.61-1.2-2.57-1.52z"/><path id="_Path_233" data-name="&amp;lt;Path&amp;gt;" class="cls-3" d="M164.43 115.23a2.12 2.12 0 0 0 1.55-2.07 1.73 1.73 0 0 0-1.55 2.07z"/><path id="_Path_234" data-name="&amp;lt;Path&amp;gt;" class="cls-3" d="M160.9 112.66c0 .7 0 1.35 1 1-.06-.56-.09-1.22-1-1z"/><path id="_Path_235" data-name="&amp;lt;Path&amp;gt;" class="cls-3" d="M160.4 111.64c-.48.68-.19 1 .52 1.05.45-.69.03-.88-.52-1.05z"/><path id="_Path_236" data-name="&amp;lt;Path&amp;gt;" class="cls-3" d="M166 113.2c.72-.08 1-.36.52-1-.66.09-1.02.34-.52 1z"/><path id="_Path_237" data-name="&amp;lt;Path&amp;gt;" class="cls-3" d="M192.26 57.72H183v.38h9.15z"/><path id="_Path_238" data-name="&amp;lt;Path&amp;gt;" class="cls-3" d="M162.94 116.74a1.73 1.73 0 0 0-1 1.58c.96-.09 1.47-.51 1-1.58z"/><path id="_Path_239" data-name="&amp;lt;Path&amp;gt;" class="cls-3" d="M166.53 119.84c-.12-.58-.14-1.27-1.06-1 .07.59-.02 1.39 1.06 1z"/><path id="_Path_240" data-name="&amp;lt;Path&amp;gt;" class="cls-3" d="M165.49 118.83c.47-.68 0-.9-.53-1.07-.49.69-.13.96.53 1.07z"/><path id="_Path_241" data-name="&amp;lt;Path&amp;gt;" class="cls-3" d="M161.92 118.28c-.56.17-1 .39-.52 1.07.6-.13 1.01-.35.52-1.07z"/><path id="_Path_242" data-name="&amp;lt;Path&amp;gt;" class="cls-3" d="M165 117.81c0-.38 0-.72-.55-.54-.23.59-.14.87.55.54z"/><path id="_Path_243" data-name="&amp;lt;Path&amp;gt;" class="cls-3" d="M190.11 54.51a8.42 8.42 0 0 0-5.42.12 9.61 9.61 0 0 0 5.42-.12z"/></g></g></g></g></svg>