<svg xmlns="http://www.w3.org/2000/svg" viewBox="0 0 185.83 145.56"><defs><style>.cls-1{fill:#3c7385}</style></defs><title>Asset 19</title><g id="Layer_2" data-name="Layer 2"><g id="Layer_1-2" data-name="Layer 1"><g id="_Group_" data-name="&amp;lt;Group&amp;gt;"><path id="_Compound_Path_" data-name="&amp;lt;Compound Path&amp;gt;" class="cls-1" d="M157.61 145.42c-47.3 0-94.61-.18-141.91 0-5.65 0-8.93-1.53-9.88-7.13a3 3 0 0 0-2.82-2.9c-4.33-.75-3.3-2.83-1.47-5.58 3.12-4.69 8.76-3.29 12.8-5.7.88-.52 1.44 1.07 2.08 1.79 1.45 1.65 3 3.19 5.5 2.72 1.29-.24 2.22 0 2.47 1.62a2.8 2.8 0 0 0 3.26 2.41c2.09-.37 1.23-2.43 1.23-3.75Q29 89.67 29 50.44c0-9-.19-18 .09-27 .12-3.87-1.19-4.9-4.84-4.65A28.76 28.76 0 0 1 6.93 15 3 3 0 0 1 5 12.12c5.4 0 10.78-.15 16.16.06 2.93.11 4.92-.62 5.31-3.72.45-3.6 3.19-2.06 5-2.28 3-.36 6.89 1.33 6.88-4.34C38.4-.38 41.17.45 42.58.6c4.3.47 10.1-2.41 12.6 1.41 3.37 5.15 7 7.86 13 7.84 16.16 0 32.32-.29 48.47.16 4.66.13 7.93-2.2 11.38-4 4.42-2.36 13.51-2.62 17.6.16 2 1.37 4.8 1.63 6.47 3.68a11.34 11.34 0 0 0 9.9 4.68c2.44-.05.77 2.88-.46 3.37-3.05 1.2-3 3.43-3 6q.07 53 0 105.94c0 3.23.5 4.79 3.95 3-2.05 4.02-4.08 8.06-4.88 12.58zm-117-39.47c0 1.84-1.23 4.28 2.1 4.45s3.38-1.9 2.8-4.33l.27-.25-.47-.37a5.67 5.67 0 0 0-3.88-.3c-.63-.15-.9.14-.78.8zm101.79 7.67h-.35l.11.33a3.91 3.91 0 0 0 .15 4.13l-.14.1.1-.14c1.56.91 3.24 1.06 4.46-.28a3 3 0 0 0 .13-3.7c-1.12-1.54-2.86-1.06-4.42-.44zM130.41 78c0-18.16-.11-36.33.09-54.49 0-3.8-1.07-5-4.79-4.68a79.61 79.61 0 0 1-12.49 0c-4.06-.33-5.39.87-5.37 5.15.18 35.16.1 70.32.1 105.48v2.5a2.61 2.61 0 0 0 2.2 2.87c1.46.43 2.11-.28 2.67-1.49.47-1 1.47-2.72 2.39-2 3.24 2.51 7.59 1.2 10.74 3.4 3.9 2.72 4.53 1.22 4.5-2.73-.11-18.01-.04-36.01-.04-54.01zm-50.56-2.21c0-17.48-.08-35 .07-52.44 0-3.45-1-4.78-4.52-4.54a79.75 79.75 0 0 1-12.48 0c-4.55-.42-5.89 1.06-5.86 5.73.21 34.63.12 69.26.13 103.89a25.08 25.08 0 0 0 .16 4c.23 1.42 1.5 2.27 2.47 1.19 4.46-5 9.8-2.63 14.84-1.9 3.77.55 5.33-.14 5.27-4.43-.21-17.2-.08-34.35-.08-51.5zM155.37 116c.36-2.18-.63-3.1-3.05-3.05-2.06 0-3.06.59-2.95 2.84.1 2 .42 3.7 2.85 3.84s3.23-1.24 3.15-3.63zm0-82.2c.25-2.07-.54-3-2.73-3s-2.8 1-2.88 3 .65 2.87 2.81 2.85 3.08-.65 2.77-2.84zm-61.81 71.12c-2.07-.3-2.85.78-2.81 2.83s1.11 2.87 3.08 2.94c2.23.08 2.72-1.11 2.76-3.05.07-2.17-.84-3.01-3.03-2.72zm45.71 2.64c.33-1.93-.76-2.68-2.8-2.72s-3.12.39-3 2.7c.07 1.92.45 3.18 2.73 3.08 1.8-.08 3.21-.57 3.07-3.06zm-50.86.26c.23-2-.43-3-2.67-3-1.92 0-3.15.46-3.1 2.72 0 2 .7 3.09 2.83 3.14s3.16-.68 2.94-2.85zm-34.14 7.92c.23-2.2-1-2.73-3-2.77-2.16 0-2.85.86-2.84 2.94s.81 2.93 2.92 2.86 3.07-.91 2.92-3.02zm82-62.84c2 .19 3.11-.54 3.07-2.76s-.94-2.94-3-3-2.94.79-2.95 2.91.75 3.14 2.88 2.86zm3 62.87c.22-2.22-1.05-2.74-3-2.8-2.16-.06-2.87.86-2.87 2.94s.88 2.93 3 2.87 3.07-.85 2.89-3zm-3.36-43.85c-2-.26-2.45 1-2.51 3-.08 2.27 1.08 2.77 3 2.73s2.94-.85 2.91-3-1.18-2.82-3.39-2.72zM51.35 30.84c-1.83-.26-2.87.47-2.89 2.67 0 1.94.4 3.15 2.68 3.1 1.89 0 3.17-.46 3.17-2.72.01-1.96-.56-3.21-2.96-3.05zm34.53 0c-1.91-.14-3.19.37-3.22 2.61 0 1.94.51 3.12 2.7 3.15 1.89 0 3.17-.32 3.09-2.64-.06-1.83-.24-3.32-2.57-3.12zm50.4 0c-1.8-.28-2.83.47-2.85 2.68 0 2 .42 3.16 2.7 3.09 1.88-.06 3.2-.42 3.2-2.71 0-1.99-.63-3.19-3.06-3.06zM145 31c-1.78 0-3.61-.33-3.4 2.32.14 1.75-.39 3.76 2.57 3.67 2.05-.06 3-.86 3.14-2.89.07-1.76.12-3.45-2.31-3.1zm-5.7 92.9c.13-2.28-1.29-2.65-3.18-2.71-2.32-.07-2.68 1.18-2.69 3.13 0 2.27 1.13 2.78 3.11 2.75 2.17-.07 2.9-1.16 2.75-3.18zm-50.87.23c.26-2.07-.61-3-2.76-2.95s-3 .77-3 2.91.83 3 2.93 3 3.04-.85 2.81-2.96zm-34.14-.21c.15-2.29-1.27-2.67-3.15-2.73-2.32-.08-2.66 1.21-2.67 3.13 0 2.25 1.12 2.78 3.09 2.76 2.19-.08 2.87-1.19 2.71-3.17zM88.39 50c.32-1.92-.54-2.88-2.68-2.88s-3 .76-3 2.86.73 3 2.85 2.94 3.14-.48 2.83-2.92zM46.07 83.16c.17-2.1-.82-3-2.88-3-1.7 0-2.87.36-2.85 2.43 0 1.8.13 3.33 2.51 3.32 1.88-.04 3.25-.55 3.22-2.75zm8.17-.35c.29-2.26-1.2-2.64-3.09-2.68s-2.68.75-2.7 2.68.55 3.19 2.8 3.08c2.01-.07 3.2-.75 2.99-3.09zm31.47-2.64c-2.11-.06-3.1.82-3.06 3s1.33 2.73 3.23 2.76 2.55-.92 2.58-2.75c.04-2.11-.62-3.24-2.75-3.02zm10.83 2.71c.27-2.34-1.17-2.73-3.06-2.7s-2.69.86-2.72 2.71c0 2.11 1 2.92 3 3 2.24.11 3.02-.89 2.78-3.01zm39.36-2.76c-2.1-.16-2.46 1.19-2.48 3.09 0 2.28 1.2 2.72 3.11 2.66 2.09-.06 2.84-1.09 2.8-3.1-.05-2.27-1.44-2.66-3.44-2.65zM94 77.57c1.9.3 2.68-.73 2.62-2.84 0-1.75-.51-2.85-2.5-2.84s-3.23.49-3.34 2.69.85 3.05 3.22 2.99zm49.81 2.61c-1.6-.47-2.23.4-2.24 2.33 0 2.15.58 3.43 3 3.37 1.71 0 2.74-.51 2.8-2.49.04-2.3-.95-3.32-3.58-3.22zm8 0c-1.8-.22-2 1-2 2.76 0 2 .8 3 2.93 3s2.82-1 2.74-3.09c-.16-2.36-1.6-2.67-3.73-2.71zm-63.4-5.36c.36-1.93-.51-2.89-2.67-2.87s-3 .85-3 2.94c0 1.88.85 2.69 2.65 2.75s3.25-.3 2.97-2.85zm-37 35.86c2.14.07 2.94-1 3-3 .06-2.22-1-2.77-3-2.81-2.13 0-2.89.8-2.86 2.9s.76 3.02 2.78 2.87zm93.27 10.59c-2-.18-3 .63-3 2.79 0 2 .58 3.07 2.79 3 2 0 3.05-.64 3.06-2.82-.1-2-.76-3.14-2.93-3.01zm0-10.59c2 .07 2.76-1 2.8-3 0-2.19-1-2.79-3-2.81s-3 .71-2.89 2.86.91 2.97 3.03 2.92zm10.94-3.14c.26-2.18-1-2.62-3-2.67-2.15 0-2.85.88-2.84 2.92s.92 3 3 2.9 2.9-1.09 2.78-3.19zm-109.55 8.15c.12-2.29-1.29-2.66-3.21-2.71-2.49-.06-2.51 1.49-2.53 3.29 0 2 1 2.54 2.82 2.5 2.1-.04 3.1-.95 2.92-3.08zm48 11.35c2.38.17 2.46-1.41 2.53-3.2.08-2.29-1.17-2.71-3.1-2.65-2.18.07-2.79 1.31-2.74 3.21.07 2.18 1.4 2.76 3.32 2.6zm-5.67-11.26c.29-2.17-.8-2.82-2.84-2.79s-2.91.9-2.9 2.95 1.06 2.81 3 2.86c2.2.04 2.97-.98 2.74-3.02zm5.8 3c2.14.29 2.38-1.24 2.4-3.13s-.85-2.65-2.72-2.65-3.12.67-3.11 2.87 1.13 2.95 3.43 2.86zm-48.12 5.2c0-2.13-1.22-2.73-3.16-2.75-2.31 0-2.56 1.31-2.59 3.16 0 2.21 1.06 2.76 3 2.72 2.18-.11 2.83-1.28 2.75-3.18zm106.5-68.61c-2-.14-2.75 1-2.82 3s.82 2.87 2.89 2.84 3-.7 3-2.85-.95-3.12-3.08-3.04zm-8.34 5.74c1.88.15 3.22-.2 3.18-2.55 0-1.91-.54-3.17-2.71-3.22-1.93 0-3.1.55-3.13 2.75-.04 1.91.42 3.18 2.66 2.96zm-4.93-2.74c.09-2.21-1-3-3-3-2.15 0-2.8 1-2.86 3-.07 2.25 1 2.81 3 2.79s3.1-.74 2.85-2.85zm-53.63-3c-2.16-.1-2.94 1-3 3-.09 2.19 1 2.78 3 2.82s2.91-.72 2.86-2.85-.84-3.16-2.87-3.03zM51.25 61c1.84.22 3.11-.26 3.08-2.57 0-1.95-.63-3.13-2.78-3.18-2 0-3.08.58-3.08 2.79-.02 1.96.38 3.3 2.78 2.96zm101.55-8.09c2.32.22 2.87-1.06 2.79-3.06-.09-2.28-1.49-2.71-3.37-2.66s-2.41 1.25-2.46 3c-.06 2.23.99 3 3.04 2.72zm-8 0c2.06.34 2.62-.88 2.61-2.87s-1.06-2.86-3-2.83-2.78 1.09-2.81 3.08c-.08 2.22 1.04 2.83 3.2 2.6zm-51-5.7c-2.19 0-3 1.1-3 3.07 0 2.2 1.25 2.63 3.15 2.7 2.28.09 2.69-1.08 2.69-3-.03-2.15-.95-2.98-2.88-2.79zm-42.38.05c-1.73-.15-2.89.48-2.92 2.68 0 1.93.4 3.13 2.66 3 1.81-.07 3.21-.25 3.15-2.61-.08-1.86-.5-3.2-2.93-3.09zm-8.2 5.64c2.1.3 2.9-.82 2.89-2.88s-1.2-2.87-3.18-2.84-2.57 1-2.6 2.81c-.04 2.01.5 3.25 2.89 2.91zm96.06-10.76c.16-2-.57-3.16-2.76-3.23-2-.07-3.15.46-3.11 2.74 0 1.88.26 3.27 2.65 3.18 1.89-.07 3.36-.37 3.22-2.69zm-45.5-3.19c-2.19-.12-3 1-3 3s1 2.83 3 2.89c2.23.07 2.81-1 2.8-3s-.68-3.16-2.79-2.89zM88.4 42c.2-1.82-.23-3.13-2.56-3.12-2 0-3.12.61-3.17 2.77 0 2 .53 3.12 2.74 3.14 1.95.05 3.26-.39 2.99-2.79zm-37.25-3c-2-.38-2.64.82-2.69 2.85s.54 3.09 2.79 3c2-.06 3.09-.66 3.05-2.87-.03-2.04-.76-3.17-3.15-2.98zm-8 5.8c2.18.15 3-.94 2.94-3s-1-2.85-3-2.9c-2.28-.06-2.69 1.13-2.73 3-.05 2.1.64 3.1 2.79 2.85zm53.39-11c.24-1.79-.3-3-2.57-3-1.91 0-3.15.56-3.19 2.72 0 2 .73 3 2.83 3.11s3.21-.47 2.92-2.88zM46.08 74.82c.1-2.06-1-2.88-3-2.92-2.21 0-2.76 1.1-2.75 3.08s.8 2.67 2.65 2.65 3.26-.51 3.1-2.81zm-2.9-38.25c2.24.1 3-1.09 2.93-3.1 0-2.26-1.42-2.67-3.32-2.68-2.06 0-2.42 1.14-2.47 2.87-.05 2.12.75 3.14 2.86 2.91zm53.38 21.52c.19-2.21-1.07-2.86-3.07-2.79-2.22.08-2.79 1.41-2.71 3.34.1 2.39 1.73 2.41 3.51 2.46 2.22.05 2.37-1.33 2.27-3.01zm56 38.64c-2.15-.24-2.91.8-2.84 2.91.06 1.87.86 2.71 2.69 2.78s3.12-.58 3.15-2.8-.83-3.07-2.96-2.89zm-66.89 5.68c2 .26 2.75-.79 2.76-2.9 0-1.8-.45-2.85-2.48-2.82-1.8 0-3.33.12-3.33 2.55.02 2.03.73 3.19 3.09 3.17zm-31.4-27.5c.21-2.07-.79-3-2.87-3s-3 .77-3 2.92c0 1.87.69 2.78 2.58 2.79s3.42-.3 3.29-2.71zm101.13.43c-.07-2.7-1.27-3.49-3.24-3.42-2.41.09-2.38 1.8-2.4 3.53 0 1.49.24 2.82 2.11 2.53s3.61-.77 3.53-2.64zm-8-33.68c.18-2.07-1-2.73-3-2.76-2.23 0-2.76 1.12-2.79 3.09 0 2.2 1 2.84 3 2.83s2.95-1 2.75-3.16zM141.61 75c.33.87-.63 3.26 1.31 2.6 1.4-.48 4.44.65 4.39-2.65 0-1.65-.22-3-2.26-3s-3.63.3-3.44 3.05zm-87.34-8.25c.16-2-.61-3.06-2.78-3.09s-3.05.65-3 2.83c0 1.79.53 2.81 2.5 2.76 1.7-.06 3.42 0 3.28-2.5zM34.8 113c-2-.42-2.64.77-2.59 2.79 0 1.61.2 2.92 2.3 2.94 1.87 0 3.2-.37 3.23-2.62.02-1.86-.42-3.21-2.94-3.11zm67.07-27.2c1.7.12 2.84-.4 2.87-2.41 0-1.82-.15-3.34-2.57-3.26-1.66.06-2.93.39-3 2.43s.35 3.32 2.7 3.24zm.42-32.91c2.24.38 2.46-1.14 2.45-3s-.74-2.7-2.61-2.72c-2 0-3 .81-3 2.91s.87 3.05 3.16 2.81zm-.11 60.11c-2-.17-3.06.65-3.05 2.79s.91 2.95 3 3c1.86 0 2.66-.77 2.65-2.63s-.22-3.37-2.6-3.16zm37.09-46.52c.2-2.07-1-2.8-3-2.86s-2.9.91-2.9 3 .82 2.64 2.68 2.61 3.43-.23 3.23-2.72zm8.09 0c.21-2.09-1-2.79-3-2.81-2.16 0-2.84 1-2.84 3s1 2.55 2.74 2.55 3.35-.32 3.1-2.75zM34.73 127c1.88.17 3-.59 3-2.75s-.63-3.07-2.79-3.08c-1.78 0-2.81.54-2.75 2.51.06 1.72-.07 3.47 2.54 3.32zM35 47.19c-2.1-.24-2.81.88-2.77 2.9 0 1.62.19 2.88 2.32 2.86 1.85 0 3.21-.29 3.21-2.59-.04-1.89-.5-3.23-2.76-3.17zm66.93 74c-2.3-.12-2.8 1.22-2.75 3.14.06 2.21 1.32 2.71 3.25 2.68 2.08 0 2.32-1.3 2.37-2.94.01-2.07-.8-3.07-2.91-2.84zM34.49 80.16c-1.81-.25-2.25 1-2.3 2.73-.07 2.07.65 3.1 2.86 3 1.86-.09 2.66-.9 2.7-2.77.03-2.12-.9-3.12-3.26-2.96zm70.22-38.31c.19-2.14-.74-3-2.88-3s-2.68 1.41-2.67 3.29 1 2.54 2.79 2.62c2.22.16 2.97-.9 2.76-2.91zm-50.44 90.47c.19-2.2-1-2.82-3-2.8-1.77 0-2.79.51-2.76 2.54s.47 3.16 2.75 3.14c1.96-.02 3.15-.66 3.01-2.88zm85-.27c.22-2.25-1.35-2.48-3.19-2.53s-2.63.78-2.66 2.68c0 2.1.73 3 2.9 3s3.15-.81 2.95-3.15zm4.82-2.47c-2.13-.32-2.54 1.07-2.5 3s1 2.54 2.81 2.59c2.05.06 3-.73 3-2.88s-1.07-2.92-3.31-2.7zm-109.26-52c2 .17 3-.73 2.92-2.88-.06-1.83-.81-2.7-2.68-2.79-2.18-.1-2.91.91-2.88 3 .01 1.79.58 2.83 2.63 2.66zm-.18-46.73c-2.13-.19-2.37 1.15-2.43 2.85-.08 2.17.84 3 3 2.88 2-.08 2.54-1.09 2.55-2.88-.02-2.16-1.03-3.06-3.13-2.86zm19.62 68.46c.31-2-.92-2.64-2.93-2.61-1.67 0-2.89.27-2.87 2.39 0 1.88.33 3.25 2.64 3.22 1.89-.02 3.29-.47 3.16-3zm85 0c.17-2.4-1.41-2.55-3.23-2.59s-2.63.76-2.64 2.65c0 2.11.79 3 2.92 3s3.14-.93 2.97-3.08zm5.4 3c2.1.18 2.7-1.05 2.71-3 0-2.42-1.51-2.51-3.28-2.52-1.93 0-2.53 1-2.55 2.76-.01 2.08.98 2.91 3.14 2.7zm0-13.69c-1.94-.18-3.16.35-3.1 2.64.05 1.74.5 2.85 2.47 2.86 1.75 0 3.31-.09 3.38-2.47.05-2.06-.54-3.27-2.75-3.09zM51.52 94c2.23.12 2.81-1.09 2.78-3.08 0-2.45-1.68-2.39-3.38-2.43-2 0-2.43 1-2.45 2.8-.02 2.26 1.09 2.95 3.05 2.71zm-13.83 13.6c.22-2.15-1-2.75-3-2.75s-2.56.88-2.55 2.69.37 3.19 2.67 3.15c2.19-.03 3.02-1.01 2.88-3.09zm58.83-16.52c.52-2.09-.82-2.61-2.79-2.55-1.61 0-2.93.29-3 2.37s.62 3.11 2.77 3.18c2.01.07 3.26-.47 3.02-3zm-50.39 40.81c.18-1.66-.93-2.51-3-2.43-1.35.05-2.81 0-2.74 2a3.62 3.62 0 0 0 3.46 3.54c1.69.27 2.15-1.14 2.28-3.11zm39.8-43.32c-1.91-.09-3.31.23-3.27 2.57 0 2.06.94 2.94 3 2.94 1.72 0 2.78-.49 2.81-2.46s-.28-3.3-2.54-3.05zm-.28 41c-2.11-.16-3.06.73-3 2.87s1.23 2.77 3.2 2.74 2.51-1 2.57-2.75c.1-2.09-.67-3.1-2.77-2.86zm66.91-41c-2.16-.21-2.88.87-2.77 2.92.1 1.87 1 2.55 2.79 2.58 2 0 3-.7 3-2.83s-1.05-2.86-3.02-2.66zm-56-21.93c.25-2.14-.67-3-2.79-3s-3 1-3 3 1 2.54 2.77 2.58 3.32-.22 3-2.57zm56.3-2.94c-1.89-.18-3 .54-3.06 2.71 0 1.75.42 2.88 2.42 2.82 1.64-.05 3.4.21 3.39-2.33-.03-1.9-.39-3.29-2.77-3.19zm-48.15 10.77c.2-2.13-1.15-2.64-3.11-2.55s-2.45 1.24-2.47 3c0 2.32 1.4 2.68 3.26 2.7 2.12 0 2.45-1.29 2.32-3.15zM85.77 63.69c-2.08-.13-3 .82-3.11 2.87-.1 2.3 1.19 2.69 3.08 2.69s2.74-.51 2.71-2.51-.45-3.25-2.68-3.05zM37.7 58.21c0-2.24-1.17-2.92-3.11-2.91-2.44 0-2.31 1.7-2.39 3.39-.09 2 1 2.41 2.74 2.42 2.15.01 2.96-.98 2.76-2.9zm64.68-21.65c2.38.22 2.3-1.52 2.35-3.23.05-1.92-.93-2.53-2.72-2.53-2.11 0-2.88 1-2.87 3s1.14 2.89 3.24 2.75zM43 63.7c-2.18-.21-2.62 1.1-2.64 3s.85 2.55 2.66 2.54 3.16-.44 3.1-2.7C46 64.48 45.06 63.59 43 63.7zm61.73-5.37c.19-1.94-.49-3.12-2.7-3s-2.85 1.15-2.86 3.13.78 2.63 2.63 2.68 3.2-.52 2.9-2.82zm0 48.81c.36-2.26-1.34-2.25-3.11-2.26-2 0-2.45 1.14-2.45 2.85 0 2.06.92 3 3 2.94 2.25-.03 2.69-1.38 2.54-3.54zm31.74-18.58c-1.95-.21-3.1.4-3 2.67 0 1.75.5 2.85 2.48 2.84 1.78 0 3.27-.21 3.41-2.53.07-2.12-.77-3.1-2.9-2.98zM43.11 94c2.1.14 3-.88 3-2.9.06-2.35-1.38-2.57-3.18-2.61s-2.61.71-2.6 2.61.67 3.17 2.78 2.9zm50.25 41.05c1.55-.42 3.17-.68 3.22-2.94 0-1.9-.72-2.65-2.59-2.63s-3.29.39-3.22 2.66c.06 1.7.59 2.94 2.59 2.95zm.77-38.35c-1.91-.1-3.32.31-3.34 2.58 0 2 .92 3 3 3 1.72 0 2.83-.45 2.84-2.44-.04-1.76-.11-3.35-2.5-3.1zM152.64 39c-2-.27-2.79.81-2.78 2.88 0 1.69.36 2.92 2.43 2.94 1.86 0 3.29-.25 3.29-2.61 0-1.95-.43-3.34-2.94-3.21zm2.89 92.77c.22-2-1.28-2.14-2.89-2.19s-3 .39-2.83 2.45c.1 1.2-.36 3.1 1.79 2.63 1.53-.38 4.01.15 3.93-2.92zM104.62 91.3c.19-1.7-.36-2.75-2.37-2.64-1.54.08-2.93.08-3 2.23 0 2 .61 3.05 2.75 3.07 1.89.04 2.76-.75 2.62-2.66zM35 93.91c2 .07 2.54-1 2.55-2.84 0-2.09-1.16-2.4-2.88-2.45-2.07-.06-2.47 1-2.45 2.79.09 1.97 1 2.7 2.78 2.5zm-.1-30.08c-1.84-.2-2.61.69-2.65 2.59s.44 2.81 2.49 2.74c1.74-.06 2.87-.43 2.83-2.5-.01-1.8-.57-2.89-2.63-2.83zm69.66 68.22c.29-1.56-.45-2.45-2.4-2.41-1.64 0-2.89.32-2.93 2.36s.62 3.08 2.79 3.06c1.98-.06 2.69-.9 2.58-3.01zm-2.71-63c1.67.18 2.84-.21 2.74-2.3-.07-1.56-.1-2.94-2.23-3-1.93 0-3.1.5-3.13 2.69.03 1.92.77 2.8 2.66 2.66zM37.56 99.53c.16-1.67-.42-2.72-2.4-2.71-1.59 0-2.9.06-2.87 2.24 0 1.82.2 3.2 2.56 3.12 1.77-.06 2.78-.7 2.71-2.65zm64.6-2.67c-1.76-.15-2.85.37-2.89 2.36s.78 3 2.88 3 2.48-1 2.5-2.74-.55-2.87-2.49-2.63zm-56.77-39c.3-1.81-1-1.74-2.42-1.87-1.91-.17-2.7.46-2.54 2.42.11 1.36 0 2.67 2 2.6s3.07-.88 2.96-3.19zm106.76 63.55c-1.72-.08-2.28 1-2.29 2.79 0 2.08.92 2.95 3 2.9s2.5-1 2.52-2.8c.02-2.18-1.01-2.99-3.22-2.93zM45.42 98.76c-.2-1-1.06-1.9-2.85-1.93-1.42 0-2.07.5-2.14 2-.08 1.69.5 2.53 2.22 2.37 1.18-.12 2.85.47 2.77-2.44zM32.34 42c-.15 1.55.71 1.9 2.08 2 1.75.08 2.31-.68 2.23-2.33s-1.15-1.69-2.37-1.71c-1.47-.1-2.11.56-1.94 2.04z"/><path id="_Path_" data-name="&amp;lt;Path&amp;gt;" class="cls-1" d="M171.58 131.78c1.17-2.37 2.66-2.72 4.58-.76 3.12 3.17 5.3 7.06 8.68 10.14 2.64 2.4-.61 3.7-2.7 3.86-4.3.33-8.63.19-12.94.28-2 0-4 .16-6 .25-2.13-4.27-1.33-7.58 2.27-7.37 5.28.3 5.88-2.58 6.11-6.4z"/></g></g></g></svg>