<svg xmlns="http://www.w3.org/2000/svg" viewBox="0 0 33.47 28.61"><defs><style>.cls-1{fill:#f68c6b}</style></defs><title>13</title><g id="Layer_2" data-name="Layer 2"><g id="Layer_1-2" data-name="Layer 1"><g id="_Group_" data-name="&amp;lt;Group&amp;gt;"><g id="_Group_2" data-name="&amp;lt;Group&amp;gt;"><g id="_Group_3" data-name="&amp;lt;Group&amp;gt;"><path id="_Compound_Path_" data-name="&amp;lt;Compound Path&amp;gt;" class="cls-1" d="M20.07 16.61l1.41-1-.82-2.51h-1.7l-1.33-1.83.57-1.61-2.15-1.47-1.35 1-2.16-.7-.48-1.64H9.42l-.49 1.68-2.16.7-1.35-1-2.13 1.51.57 1.61-1.34 1.83H.81L0 15.65l1.41 1v2.27L0 19.85l.82 2.51h1.71l1.34 1.83-.57 1.61 2.14 1.55 1.35-1 2.16.7.48 1.64h2.64l.47-1.69 2.16-.7 1.35 1 2.14-1.55-.57-1.61L19 22.31h1.7l.82-2.51-1.41-1zm-4.61 2.6v.13a5 5 0 0 1-1.76 2.36l-.12.09a5 5 0 0 1-2.77.9h-.14a5 5 0 0 1-2.78-.9l-.11-.09a5 5 0 0 1-1.72-2.36v-.13a4.94 4.94 0 0 1 0-2.92v-.13a5 5 0 0 1 1.72-2.37l.11-.08a4.94 4.94 0 0 1 2.78-.9h.14a4.94 4.94 0 0 1 2.77.9l.12.08a5 5 0 0 1 1.72 2.37v.13a4.91 4.91 0 0 1 .04 2.92z"/></g></g><g id="_Group_4" data-name="&amp;lt;Group&amp;gt;"><g id="_Group_5" data-name="&amp;lt;Group&amp;gt;"><path id="_Compound_Path_2" data-name="&amp;lt;Compound Path&amp;gt;" class="cls-1" d="M31.91 8.3l1.56-.83-.32-1.82-1.75-.24-.76-1.32.66-1.64-1.41-1.19-1.5.94L27 1.68 26.41 0h-1.84L24 1.68l-1.43.52-1.5-.94-1.39 1.19.66 1.64-.76 1.32-1.75.24-.32 1.82 1.56.83.26 1.51-1.18 1.31.92 1.6 1.73-.37 1.17 1-.07 1.77 1.74.63 1.09-1.39h1.52l1.08 1.39 1.74-.63-.07-1.8 1.17-1 1.73.37.92-1.6-1.18-1.29zm-3.09.7v.09a3.41 3.41 0 0 1-1.21 1.66l-.08.06a3.48 3.48 0 0 1-2 .64h-.09a3.48 3.48 0 0 1-2-.64l-.08-.06a3.5 3.5 0 0 1-1.16-1.69v-.09a3.43 3.43 0 0 1 0-2.06v-.09a3.54 3.54 0 0 1 1.21-1.66l.08-.06a3.47 3.47 0 0 1 2-.63h.09a3.47 3.47 0 0 1 2 .63l.08.06a3.45 3.45 0 0 1 1.21 1.66v.09A3.53 3.53 0 0 1 28.82 9z"/></g></g></g></g></g></svg>