<svg width="215" height="205" viewBox="0 0 215 205" xmlns="http://www.w3.org/2000/svg"><title>43</title><defs><path id="a" d="M.023 301H312V0H.023z"/></defs><g fill="none" fill-rule="evenodd"><path d="M108.524 133.28h100.55a3.939 3.939 0 0 1 3.933 3.935 3.939 3.939 0 0 1-3.933 3.936h-20.2a3.928 3.928 0 0 0-3.924 3.924v22.687h1.7v-22.687c0-1.224 1-2.221 2.224-2.221h20.2c3.105 0 5.634-2.532 5.634-5.64a5.642 5.642 0 0 0-5.634-5.635l-100.55-.002" fill="#FFF"/><path d="M187.747 166.248c4.306 0 7.8 3.494 7.8 7.798v18.712c0 4.302-3.494 7.793-7.8 7.793h-2.074v-34.303h2.074" fill="#FFF"/><path d="M183.593 166.248h2.08v34.303h-2.08c-4.304 0-7.797-3.491-7.797-7.793v-18.712a7.801 7.801 0 0 1 7.797-7.798" fill="#E6E7E3"/><path d="M188.272 174.523v1.677a2.608 2.608 0 0 1-2.599 2.602v-6.876a2.602 2.602 0 0 1 2.599 2.597" fill="#172E41"/><path d="M185.673 171.926v6.876a2.6 2.6 0 0 1-2.6-2.602v-1.677a2.597 2.597 0 0 1 2.6-2.597" fill="#152830"/><path d="M62.065 109.341l-5.05 20.653h47.14c-1.685-6.885-3.37-13.769-5.052-20.653H62.065" fill="#8A8B87"/><path d="M80.309 129.994h23.845c-1.684-6.885-3.368-13.769-5.05-20.653H80.308v20.653" fill="#8E9391"/><path d="M107.067 129.63H54.1c-1.345 0-2.435 1.277-2.435 2.86v1.072h57.836v-1.073c0-1.582-1.092-2.86-2.435-2.86M.939 101.308v11.381a3.96 3.96 0 0 0 3.967 3.964h151.355a3.965 3.965 0 0 0 3.967-3.964v-11.381H.938" fill="#FFF"/><path d="M160.228 101.308V4.95A3.965 3.965 0 0 0 156.26.985H4.906A3.961 3.961 0 0 0 .94 4.95v96.358h159.289" fill="#152830"/><path fill="#698489" d="M7.464 94.731h146.24V7.181H7.463z"/><path d="M155.482 148.962c0-.997-.873-1.815-1.936-1.815H7.616c-1.063 0-1.932.818-1.932 1.815v53.622c0 .996.87 1.815 1.932 1.815h145.93c1.063 0 1.936-.819 1.936-1.815v-53.622" fill="#8A8B87"/><path d="M155.482 202.584v-53.622c0-.997-.873-1.815-1.936-1.815H48.626l75.652 57.252h29.268c1.063 0 1.936-.819 1.936-1.815" fill="#91928E"/><path d="M17.58 159.52c0 .261-.213.473-.472.473h-7.21a.473.473 0 0 1-.472-.472v-7.208c0-.26.211-.472.472-.472h7.21c.26 0 .471.211.471.472v7.208M32.522 169.449a.471.471 0 0 1-.472.474h-7.21a.471.471 0 0 1-.469-.474v-7.21a.47.47 0 0 1 .47-.47h7.21a.47.47 0 0 1 .471.47v7.21M34.874 179.378a.47.47 0 0 1-.472.47h-7.21a.472.472 0 0 1-.472-.47v-7.212c0-.255.216-.467.471-.467h7.211c.26 0 .472.212.472.467v7.212M30.012 189.306a.472.472 0 0 1-.469.472h-7.21a.473.473 0 0 1-.47-.472v-7.21c0-.258.212-.472.47-.472h7.21c.258 0 .47.214.47.472v7.21M17.58 200.488c0 .26-.213.471-.472.471h-7.21a.472.472 0 0 1-.472-.471v-8.465c0-.255.211-.471.472-.471h7.21c.26 0 .471.216.471.47v8.466M27.478 200.488c0 .26-.211.471-.472.471H19.8a.472.472 0 0 1-.47-.471v-8.465c0-.255.212-.471.47-.471h7.207c.261 0 .472.216.472.47v8.466M37.382 200.488c0 .26-.213.471-.472.471H29.7a.471.471 0 0 1-.47-.471v-8.465c0-.255.21-.471.47-.471h7.21c.26 0 .472.216.472.47v8.466M121.956 200.488c0 .26-.215.471-.474.471h-7.211a.471.471 0 0 1-.47-.471v-8.465c0-.255.212-.471.47-.471h7.211c.259 0 .474.216.474.47v8.466M131.88 200.488c0 .26-.211.471-.47.471h-7.207a.474.474 0 0 1-.476-.471v-3.762c0-.257.213-.471.476-.471h7.207c.259 0 .47.214.47.471v3.762M151.737 200.488c0 .26-.213.471-.473.471h-7.207a.475.475 0 0 1-.474-.471v-3.762c0-.257.215-.471.474-.471h7.207c.26 0 .473.214.473.471v3.762M49.868 200.488a.47.47 0 0 1-.468.471h-9.8a.47.47 0 0 1-.468-.471v-8.465c0-.255.21-.471.468-.471h9.8c.257 0 .468.216.468.47v8.466M112.025 200.488a.47.47 0 0 1-.471.471h-9.797a.475.475 0 0 1-.472-.471v-8.465c0-.255.216-.471.472-.471h9.797c.261 0 .471.216.471.47v8.466M99.511 200.488c0 .26-.214.471-.475.471h-46.92a.475.475 0 0 1-.473-.471v-8.465c0-.255.217-.471.473-.471h46.92c.261 0 .475.216.475.47v8.466M39.94 189.306a.471.471 0 0 1-.47.472h-7.21a.474.474 0 0 1-.47-.472v-7.21c0-.258.215-.472.47-.472h7.21c.26 0 .47.214.47.472v7.21M49.868 189.306a.472.472 0 0 1-.468.472h-7.21a.473.473 0 0 1-.471-.472v-7.21c0-.258.21-.472.47-.472H49.4c.257 0 .468.214.468.472v7.21M59.797 189.306a.473.473 0 0 1-.472.472h-7.21a.477.477 0 0 1-.472-.472v-7.21c0-.258.217-.472.473-.472h7.21c.26 0 .471.214.471.472v7.21M69.724 189.306a.473.473 0 0 1-.468.472h-7.21a.475.475 0 0 1-.472-.472v-7.21c0-.258.214-.472.473-.472h7.209c.256 0 .468.214.468.472v7.21M79.653 189.306a.472.472 0 0 1-.469.472h-7.21a.473.473 0 0 1-.47-.472v-7.21c0-.258.211-.472.47-.472h7.21c.258 0 .469.214.469.472v7.21M89.582 189.306c0 .258-.21.472-.47.472h-7.21a.474.474 0 0 1-.473-.472v-7.21c0-.258.212-.472.473-.472h7.21c.26 0 .47.214.47.472v7.21M99.511 189.306a.476.476 0 0 1-.475.472h-7.208a.472.472 0 0 1-.468-.472v-7.21c0-.258.21-.472.468-.472h7.208c.261 0 .475.214.475.472v7.21M109.439 189.306a.474.474 0 0 1-.472.472h-7.21a.476.476 0 0 1-.472-.472v-7.21c0-.258.216-.472.472-.472h7.21c.26 0 .472.214.472.472v7.21M119.366 189.306a.47.47 0 0 1-.47.472h-7.21a.472.472 0 0 1-.471-.472v-7.21c0-.258.21-.472.47-.472h7.211c.262 0 .47.214.47.472v7.21M129.294 189.306a.474.474 0 0 1-.471.472h-7.208a.475.475 0 0 1-.473-.472v-7.21c0-.258.213-.472.473-.472h7.208c.258 0 .471.214.471.472v7.21M151.657 189.306a.473.473 0 0 1-.47.472H131.54a.473.473 0 0 1-.47-.472v-7.21c0-.258.211-.472.47-.472h19.645c.26 0 .471.214.471.472v7.21M44.799 179.378c0 .261-.207.47-.467.47h-7.214a.469.469 0 0 1-.468-.47v-7.212c0-.255.212-.467.468-.467h7.214c.26 0 .467.212.467.467v7.212M54.73 179.378a.47.47 0 0 1-.472.47h-7.211a.467.467 0 0 1-.467-.47v-7.212a.47.47 0 0 1 .467-.467h7.21c.26 0 .472.212.472.467v7.212M64.655 179.378c0 .261-.207.47-.468.47h-7.212a.468.468 0 0 1-.469-.47v-7.212a.47.47 0 0 1 .47-.467h7.211c.26 0 .468.212.468.467v7.212M74.585 179.378a.47.47 0 0 1-.469.47h-7.214a.468.468 0 0 1-.467-.47v-7.212a.47.47 0 0 1 .467-.467h7.214c.257 0 .469.212.469.467v7.212M84.514 179.378a.47.47 0 0 1-.471.47h-7.21a.473.473 0 0 1-.473-.47v-7.212c0-.255.217-.467.473-.467h7.21c.257 0 .47.212.47.467v7.212M94.44 179.378a.47.47 0 0 1-.47.47h-7.208a.469.469 0 0 1-.471-.47v-7.212c0-.255.21-.467.47-.467h7.21c.258 0 .47.212.47.467v7.212M104.367 179.378c0 .261-.208.47-.469.47h-7.21a.468.468 0 0 1-.47-.47v-7.212a.47.47 0 0 1 .47-.467h7.21c.26 0 .47.212.47.467v7.212M114.298 179.378a.47.47 0 0 1-.47.47h-7.212a.469.469 0 0 1-.47-.47v-7.212c0-.255.212-.467.47-.467h7.212c.256 0 .47.212.47.467v7.212M124.226 179.378a.47.47 0 0 1-.47.47h-7.213a.468.468 0 0 1-.47-.47l.001-7.212a.47.47 0 0 1 .47-.467h7.212c.258 0 .47.212.47.467v7.212M134.152 179.378c0 .261-.211.47-.47.47h-7.207a.47.47 0 0 1-.473-.47v-7.212c0-.255.211-.467.473-.467h7.208c.258 0 .469.212.469.467v7.212M144.08 179.378c0 .261-.211.47-.469.47h-7.213a.467.467 0 0 1-.466-.47v-7.212c0-.255.208-.467.466-.467h7.213c.258 0 .47.212.47.467v7.212M42.45 169.449a.473.473 0 0 1-.472.474h-7.21a.475.475 0 0 1-.472-.474v-7.21c0-.257.214-.47.472-.47h7.21c.26 0 .472.213.472.47v7.21M52.378 169.449a.473.473 0 0 1-.472.474h-7.21a.472.472 0 0 1-.47-.474v-7.21c0-.257.212-.47.47-.47h7.21c.26 0 .472.213.472.47v7.21M62.306 169.449a.473.473 0 0 1-.472.474h-7.21a.471.471 0 0 1-.467-.474v-7.21a.47.47 0 0 1 .467-.47h7.21c.26 0 .472.213.472.47v7.21M72.231 169.449a.472.472 0 0 1-.468.474h-7.21a.473.473 0 0 1-.471-.474v-7.21c0-.257.212-.47.471-.47h7.21c.257 0 .468.213.468.47v7.21M82.161 169.449c0 .262-.21.474-.472.474h-7.21a.472.472 0 0 1-.468-.474v-7.21c0-.257.21-.47.469-.47h7.21c.26 0 .471.213.471.47v7.21M92.087 169.449a.47.47 0 0 1-.468.474h-7.211a.473.473 0 0 1-.471-.474v-7.21c0-.257.211-.47.47-.47h7.212a.47.47 0 0 1 .468.47v7.21M102.016 169.449a.47.47 0 0 1-.469.474h-7.212a.472.472 0 0 1-.468-.474v-7.21c0-.257.211-.47.468-.47h7.212c.26 0 .47.213.47.47v7.21M111.947 169.449a.473.473 0 0 1-.473.474h-7.21a.473.473 0 0 1-.47-.474v-7.21c0-.257.21-.47.47-.47h7.21c.261 0 .473.213.473.47v7.21M121.872 169.449a.472.472 0 0 1-.467.474h-7.212a.472.472 0 0 1-.47-.474v-7.21c0-.257.21-.47.47-.47h7.212c.256 0 .467.213.467.47v7.21M131.802 169.449a.473.473 0 0 1-.473.474h-7.21a.474.474 0 0 1-.469-.474v-7.21c0-.257.214-.47.47-.47h7.21c.26 0 .472.213.472.47v7.21M141.729 169.449a.472.472 0 0 1-.469.474h-7.21a.473.473 0 0 1-.472-.474v-7.21c0-.257.211-.47.471-.47h7.211c.258 0 .469.213.469.47v7.21M22.594 169.449a.473.473 0 0 1-.471.474H9.898a.473.473 0 0 1-.472-.474v-7.21c0-.257.211-.47.472-.47h12.225c.26 0 .471.213.471.47v7.21M151.657 159.52c0 .261-.211.473-.47.473h-12.228a.474.474 0 0 1-.469-.472v-7.208c0-.26.214-.472.47-.472h12.226c.26 0 .471.211.471.472v7.208M24.943 179.378c0 .261-.209.47-.47.47H9.897a.47.47 0 0 1-.472-.47v-7.212c0-.255.211-.467.472-.467h14.574a.47.47 0 0 1 .471.467v7.212M20.087 189.306a.473.473 0 0 1-.471.472H9.898a.473.473 0 0 1-.472-.472v-7.21c0-.258.211-.472.472-.472h9.718c.26 0 .471.214.471.472v7.21M27.505 159.52c0 .261-.21.473-.472.473h-7.206a.473.473 0 0 1-.472-.472v-7.208c0-.26.212-.472.472-.472h7.206c.262 0 .472.211.472.472v7.208M37.434 159.52c0 .261-.211.473-.47.473h-7.212a.471.471 0 0 1-.467-.472v-7.208c0-.26.21-.472.467-.472h7.212c.259 0 .47.211.47.472v7.208M47.365 159.52c0 .261-.216.473-.475.473h-7.21a.472.472 0 0 1-.47-.472v-7.208c0-.26.211-.472.47-.472h7.21c.26 0 .475.211.475.472v7.208M57.29 159.52c0 .261-.212.473-.472.473h-7.21a.474.474 0 0 1-.472-.472v-7.208c0-.26.214-.472.471-.472h7.211c.26 0 .472.211.472.472v7.208M67.214 159.52a.47.47 0 0 1-.468.473h-7.21a.472.472 0 0 1-.47-.472v-7.208c0-.26.211-.472.47-.472h7.21c.26 0 .468.211.468.472v7.208M77.146 159.52c0 .261-.212.473-.472.473h-7.206a.472.472 0 0 1-.472-.472v-7.208c0-.26.21-.472.472-.472h7.206c.26 0 .472.211.472.472v7.208M87.07 159.52c0 .261-.206.473-.468.473h-7.208a.472.472 0 0 1-.472-.472v-7.208c0-.26.21-.472.472-.472h7.208c.262 0 .469.211.469.472v7.208M97 159.52c0 .261-.21.473-.472.473h-7.21a.472.472 0 0 1-.47-.472v-7.208c0-.26.21-.472.47-.472h7.21c.262 0 .473.211.473.472v7.208M106.927 159.52a.47.47 0 0 1-.468.473h-7.21a.472.472 0 0 1-.472-.472v-7.208c0-.26.211-.472.473-.472h7.21a.47.47 0 0 1 .467.472v7.208M116.858 159.52c0 .261-.213.473-.47.473h-7.212a.472.472 0 0 1-.469-.472v-7.208c0-.26.212-.472.469-.472h7.213c.256 0 .469.211.469.472v7.208M126.786 159.52c0 .261-.211.473-.471.473h-7.21a.473.473 0 0 1-.473-.472v-7.208c0-.26.212-.472.473-.472h7.21c.26 0 .47.211.47.472v7.208M136.712 159.52a.47.47 0 0 1-.468.473h-7.215a.471.471 0 0 1-.467-.472v-7.208a.47.47 0 0 1 .467-.472h7.215a.47.47 0 0 1 .468.472v7.208M133.657 196.522v3.966a.466.466 0 0 0 .47.471h7.212c.12 0 .238-.045.332-.138a.46.46 0 0 0 .138-.333v-3.966h-8.152M141.81 195.99v-3.967a.462.462 0 0 0-.14-.33.47.47 0 0 0-.331-.141h-7.211a.476.476 0 0 0-.47.47v3.968h8.151M143.975 161.77a.457.457 0 0 0-.331.138.46.46 0 0 0-.136.33v7.21c0 .122.044.243.136.337a.48.48 0 0 0 .33.138h1.883v9.455a.469.469 0 0 0 .472.47h4.857a.47.47 0 0 0 .474-.47v-17.14c0-.12-.047-.239-.14-.33a.459.459 0 0 0-.334-.139h-7.211" fill="#FFF"/></g></svg>