<svg width="224" height="209" viewBox="0 0 224 209" xmlns="http://www.w3.org/2000/svg"><title>55013-O834Q4</title><g fill="none" fill-rule="evenodd"><path d="M152.241 10.69H98.677a17.834 17.834 0 0 1 2.156 8.505h8.36c5.522 0 10.075 3.809 10.742 8.74h30.5v172.533H9.718V27.935h30.5c.666-4.931 5.225-8.74 10.746-8.74h8.361c0-3.056.774-5.944 2.156-8.505H7.912c-4.328 0-7.836 3.236-7.836 7.23v183.055c0 3.994 3.508 7.23 7.836 7.23h144.329c4.329 0 7.836-3.236 7.836-7.23V17.92c0-3.994-3.507-7.23-7.836-7.23" fill="#6CBB7F"/><path d="M19.202 72.565h124.672v-3.34H19.202v3.34zM137.425 185.12c-3.123-.12-6.247-.245-9.37-.37-1.937-.077-5.026.332-6.656-.758-1.263-.85-1.192-1.4-2.852-.692-1.21.518-2.344 1.815-3.732 1.008-.177-.103-.094-1.77-.023-2.354.006-.076.018-.136.023-.168l.727-3.33c-1.984 3.188-4.116 6.32-6.525 9.241-.668.812-2.35 2.91-3.254 1.112-.177-.354-.053-1.297-.059-1.695 0-.152.006-.305.012-.458 0-.065.006-.125.006-.185v-.74c.006.087.017.168.03.245.153-1.88.714-3.608 1.5-5.422a941.859 941.859 0 0 1 3.04-6.942c-4.358 5.792-8.71 11.59-13.068 17.382.42-.556-.43-1.945 0-2.523 5.262-6.996 10.517-13.992 15.779-20.983v1.487c.07.393.118.769 0 1.036-1.4 3.182-2.8 6.364-4.205 9.546-1.021 2.321-2.25 4.648-2.81 7.11 1.027 1.472 4.647-3.58 5.155-4.266a104.322 104.322 0 0 0 5.243-7.846v1.815c.03.266.042.512 0 .708-.354 1.64-.708 3.28-1.069 4.914 1.163.29 2.185-.752 3.23-1.215 1.713-.757 1.56-.174 2.852.693 1.683 1.122 4.636.675 6.655.757 3.124.125 6.248.245 9.371.37.06.006-.017 2.523 0 2.523zM19.202 162.583h91.911v-3.34h-91.91v3.34zm0-6.43h98.129v-3.34H19.202v3.34zm0-6.429H95v-3.34H19.202v3.34zm0-6.43h104.624v-3.34H19.202v3.34zm0-12.858h112.183v-3.34H19.202v3.34zm0-6.43h91.911v-3.34h-91.91v3.34zm0-6.43h74.87v-3.34h-74.87v3.34zm0-6.428h103.414v-3.34H19.202v3.34zm0-6.43h114.633v-3.34H19.202v3.34zm0-12.859h74.87v-3.345h-74.87v3.345zm0-6.435h114.633v-3.34H19.202v3.34zm0-6.43h109.85v-3.34H19.202v3.34zm100.822-45.442H40.129v-4.364c0-.425.03-.844.09-1.253h-30.5v172.533h140.715V27.935h-30.5c.06.409.09.828.09 1.253v4.364z" fill="#FFF"/><path fill="#1D6D7A" d="M19.202 72.565h124.672v-3.34H19.202zM137.425 182.596c-3.123-.125-6.247-.245-9.37-.37-2.02-.082-4.973.365-6.656-.757-1.293-.867-1.14-1.45-2.852-.693-1.045.463-2.067 1.504-3.23 1.215.36-1.634.715-3.274 1.069-4.914.042-.196.03-.442 0-.708v-1.815a104.322 104.322 0 0 1-5.243 7.846c-.508.686-4.128 5.738-5.155 4.267.56-2.463 1.789-4.79 2.81-7.11 1.406-3.183 2.805-6.365 4.205-9.547.118-.267.07-.643 0-1.036v-1.487c-5.262 6.99-10.517 13.987-15.779 20.983-.43.578.42 1.967 0 2.523 4.358-5.792 8.71-11.59 13.068-17.382a941.859 941.859 0 0 0-3.04 6.942c-.786 1.814-1.347 3.542-1.5 5.422a2.705 2.705 0 0 1-.03-.246v.741c0 .06-.006.12-.006.185-.006.153-.012.306-.012.458.006.398-.118 1.34.059 1.695.904 1.798 2.586-.3 3.254-1.112 2.409-2.92 4.54-6.053 6.525-9.24l-.727 3.329c-.005.032-.017.092-.023.168-.071.583-.154 2.25.023 2.354 1.388.807 2.522-.49 3.732-1.008 1.66-.708 1.589-.158 2.852.692 1.63 1.09 4.719.681 6.655.757 3.124.126 6.248.25 9.371.37-.017 0 .06-2.516 0-2.522M19.202 104.718h114.633v-3.34H19.202zM19.202 85.424h114.633v-3.34H19.202zM19.202 130.436h112.183v-3.34H19.202zM19.202 78.995h109.85v-3.34H19.202zM19.202 143.295h104.624v-3.34H19.202zM19.202 111.148h103.414v-3.34H19.202z"/><path d="M80.076 7.11c2.427 0 4.465 1.515 5.067 3.58.118.403.183.828.183 1.264 0 2.675-2.35 4.844-5.25 4.844-2.899 0-5.249-2.169-5.249-4.844 0-.436.065-.861.183-1.264.602-2.065 2.64-3.58 5.066-3.58zm-29.11 12.085c-5.522 0-10.08 3.809-10.748 8.74-.06.409-.089.828-.089 1.253v4.364h79.895v-4.364c0-.425-.03-.844-.09-1.253-.666-4.931-5.22-8.74-10.74-8.74h-8.361c0-3.056-.774-5.944-2.156-8.505C95.282 4.38 88.225.043 80.077.043c-8.15 0-15.2 4.337-18.595 10.647a17.834 17.834 0 0 0-2.156 8.505h-8.36z" fill="#E0725B"/><path fill="#1D6D7A" d="M19.202 156.154h98.129v-3.34H19.202zM19.202 162.583h91.911v-3.34h-91.91zM19.202 124.006h91.911v-3.34h-91.91z"/><path fill="#FFF" d="M94.296 47.964h-.047l-1.217 7.634h2.48l-1.216-7.634"/><path fill="#1D6D7A" d="M19.202 149.724H95v-3.34H19.202zM19.202 117.577h74.87v-3.34h-74.87zM19.202 91.859h74.87v-3.345h-74.87z"/><path d="M86.306 50.487V49c0-1.08-.401-1.553-1.31-1.553h-1.24v4.637h1.003c.963 0 1.547-.387 1.547-1.597" fill="#FFF"/><path d="M80.076 16.798c2.9 0 5.25-2.169 5.25-4.844 0-.436-.065-.861-.183-1.264H75.01a4.505 4.505 0 0 0-.183 1.264c0 2.675 2.35 4.844 5.25 4.844" fill="#6CBB7F"/><path d="M128.563 174.163s.772 3.793-2.174 7.087l7.945-5.707.307.364-7.818 5.62c1.767-.745 4.569-1.367 8.115-.305l7.166-5.148-6.117-7.248-7.424 5.337" fill="#F5EAAC"/><path fill="#6CBB7F" d="M219.316 122.188v-.003l-7.804-9.238-32.341 23.242.617.733 6.342 7.513.841.998 19.488-14.008 12.857-9.237"/><path d="M183.081 129.965l24.641-17.711c1.272-.912 3.109-.703 4.1.471l-.31.222 7.804 9.238 1.493-1.073c1.603-1.15 2.44-2.884 2.44-4.63a5.532 5.532 0 0 0-1.332-3.587c-2.144-2.542-6.154-3.005-8.91-1.023l.398-.284c-1.67-1.978-4.771-2.335-6.916-.795l-12.756 9.17-11.888 8.542 1.236 1.46M147.287 160.707l-8.442 6.067 6.118 7.247 41.167-29.586-6.118-7.247-32.725 23.52" fill="#1D6D7A"/><path fill="#6CBB7F" d="M135.987 168.826l6.117 7.248 2.859-2.053-6.118-7.247-2.858 2.052"/><path d="M124.723 182.742c.03-.025.14-.117.334-.25-.107.086-.22.17-.334.25zm9.61-7.199l-7.944 5.707-1.83 1.316.31.367 9.772-7.026-.307-.364z" fill="#1D6D7A"/><path d="M125.057 182.492c-.194.16-.304.272-.334.302.113-.097.227-.198.334-.302" fill="#1A1918"/><path d="M73.645 47.975h-3.516v8.9H67.96v-8.9h-3.516V46.37h9.201v1.605zm3.645 3.989c-.43.252-.743.536-.94.853a1.906 1.906 0 0 0-.294 1.021c0 .267.051.506.153.72.102.213.24.393.416.54.174.148.379.262.612.342.234.08.483.12.746.12.473 0 .906-.067 1.299-.2a3.803 3.803 0 0 0 1.064-.556l-3.056-2.84zm7.765 4.91h-1.951c-.205 0-.37-.02-.496-.064a1.092 1.092 0 0 1-.4-.277l-.806-.748a6.17 6.17 0 0 1-1.717.886c-.635.214-1.32.32-2.057.32-.446 0-.885-.069-1.318-.207a3.73 3.73 0 0 1-1.157-.6 3.092 3.092 0 0 1-.819-.947 2.525 2.525 0 0 1-.31-1.254c0-.329.06-.64.177-.933.119-.293.283-.565.492-.817.21-.252.46-.479.75-.68a5.26 5.26 0 0 1 .952-.519c-.29-.363-.5-.718-.63-1.064a2.948 2.948 0 0 1-.193-1.036 2.484 2.484 0 0 1 .863-1.888c.28-.243.624-.435 1.032-.578.409-.143.871-.214 1.387-.214.473 0 .897.065 1.27.196.374.13.694.305.96.523.266.218.475.467.629.748.153.281.243.572.27.872l-1.266.24c-.237.043-.409-.049-.516-.276a1.738 1.738 0 0 0-.19-.36 1.302 1.302 0 0 0-.657-.501 1.509 1.509 0 0 0-.5-.077c-.226 0-.427.036-.605.106-.177.07-.326.164-.447.283a1.225 1.225 0 0 0-.278.414 1.3 1.3 0 0 0-.097.498 1.603 1.603 0 0 0 .21.828c.075.136.173.275.294.418.12.143.27.296.447.461l3.097 2.899a4.895 4.895 0 0 0 .637-1.998.452.452 0 0 1 .129-.269.4.4 0 0 1 .29-.102h1.242a5.69 5.69 0 0 1-1.161 3.436l2.443 2.282zm9.354-2.476c.118 0 .223.04.314.123l.855.836a4.667 4.667 0 0 1-1.746 1.213c-.69.28-1.52.421-2.487.421-.866 0-1.644-.133-2.335-.4a5.186 5.186 0 0 1-1.77-1.11 4.796 4.796 0 0 1-1.125-1.7 5.811 5.811 0 0 1-.39-2.159c0-.789.14-1.512.419-2.168a4.944 4.944 0 0 1 1.181-1.696 5.41 5.41 0 0 1 1.818-1.108c.705-.264 1.484-.396 2.339-.396.85 0 1.603.126 2.262.377a5.477 5.477 0 0 1 1.68.988l-.725.909a.627.627 0 0 1-.165.152.508.508 0 0 1-.278.066.578.578 0 0 1-.25-.062 3.651 3.651 0 0 1-.283-.153c-.102-.06-.22-.127-.354-.2a3.073 3.073 0 0 0-.468-.2 4.151 4.151 0 0 0-.617-.152 4.718 4.718 0 0 0-.81-.062c-.522 0-.999.084-1.432.251a3.12 3.12 0 0 0-1.116.726 3.278 3.278 0 0 0-.726 1.163c-.172.458-.258.98-.258 1.565 0 .591.093 1.117.278 1.577.185.46.437.847.754 1.162.317.315.69.556 1.12.723.43.167.893.25 1.388.25.295 0 .563-.014.802-.043.24-.029.46-.075.661-.138a3.09 3.09 0 0 0 .573-.243c.18-.1.359-.222.536-.367a.772.772 0 0 1 .17-.105.447.447 0 0 1 .185-.04z" fill="#1E6D7A"/></g></svg>