<svg width="272" height="258" viewBox="0 0 272 258" xmlns="http://www.w3.org/2000/svg"><title>meeting_13</title><g fill="none" fill-rule="evenodd"><path d="M137.584 251.137c69.252 0 125.734-56.395 125.734-125.54C263.318 56.453 206.836.058 137.584.058S11.85 56.453 11.85 125.598c0 69.144 56.482 125.539 125.734 125.539" fill="#EEE"/><path d="M137.584.588c69.148 0 125.203 55.969 125.203 125.01 0 69.04-56.055 125.01-125.203 125.01S12.38 194.637 12.38 125.597C12.38 56.556 68.436.587 137.584.587" fill="#EEE"/><path d="M137.584 1.118c68.855 0 124.673 55.731 124.673 124.48 0 68.748-55.818 124.48-124.673 124.48S12.911 194.345 12.911 125.597c0-68.749 55.818-124.48 124.673-124.48" fill="#EEE"/><path d="M137.584 1.647c68.562 0 124.142 55.495 124.142 123.95 0 68.457-55.58 123.95-124.142 123.95S13.442 194.055 13.442 125.598c0-68.455 55.58-123.95 124.142-123.95" fill="#EEE"/><path d="M137.584 2.177c68.269 0 123.611 55.258 123.611 123.42 0 68.164-55.342 123.42-123.611 123.42S13.972 193.762 13.972 125.598c0-68.162 55.343-123.42 123.612-123.42" fill="#EEE"/><path d="M137.584 2.707c67.976 0 123.08 55.02 123.08 122.89 0 67.871-55.104 122.891-123.08 122.891s-123.081-55.02-123.081-122.89c0-67.871 55.105-122.891 123.081-122.891" fill="#EEE"/><path d="M137.584 3.237c67.683 0 122.55 54.782 122.55 122.36 0 67.579-54.867 122.361-122.55 122.361-67.683 0-122.55-54.782-122.55-122.36 0-67.579 54.867-122.361 122.55-122.361" fill="#EFEFEF"/><path d="M137.584 3.767c67.39 0 122.02 54.545 122.02 121.83 0 67.286-54.63 121.832-122.02 121.832-67.39 0-122.02-54.546-122.02-121.832 0-67.285 54.63-121.83 122.02-121.83" fill="#EFEFEF"/><path d="M137.584 4.296c67.096 0 121.49 54.309 121.49 121.301 0 66.994-54.394 121.302-121.49 121.302-67.097 0-121.49-54.308-121.49-121.302 0-66.992 54.393-121.3 121.49-121.3" fill="#EFEFEF"/><path d="M137.584 4.826c66.804 0 120.959 54.071 120.959 120.771S204.388 246.37 137.584 246.37s-120.96-54.071-120.96-120.772c0-66.7 54.156-120.77 120.96-120.77" fill="#EFEFEF"/><path d="M137.584 5.356c66.51 0 120.428 53.834 120.428 120.241 0 66.409-53.918 120.243-120.428 120.243-66.51 0-120.428-53.834-120.428-120.243 0-66.407 53.917-120.241 120.428-120.241" fill="#EFEFEF"/><path d="M137.584 5.885c66.218 0 119.898 53.597 119.898 119.712 0 66.116-53.68 119.713-119.898 119.713-66.218 0-119.898-53.597-119.898-119.713 0-66.115 53.68-119.712 119.898-119.712" fill="#EFEFEF"/><path d="M137.584 6.415c65.924 0 119.367 53.36 119.367 119.182 0 65.823-53.443 119.183-119.367 119.183-65.925 0-119.367-53.36-119.367-119.183 0-65.822 53.442-119.182 119.367-119.182" fill="#EFEFEF"/><path d="M137.584 6.945c65.632 0 118.837 53.122 118.837 118.652S203.216 244.25 137.584 244.25 18.747 191.128 18.747 125.597c0-65.53 53.205-118.652 118.837-118.652" fill="#EFEFEF"/><path d="M137.584 7.475c65.339 0 118.306 52.885 118.306 118.122 0 65.238-52.967 118.124-118.306 118.124S19.278 190.835 19.278 125.597c0-65.237 52.967-118.122 118.306-118.122" fill="#EFEFEF"/><path d="M137.584 8.004c65.046 0 117.775 52.649 117.775 117.593 0 64.946-52.73 117.594-117.775 117.594-65.046 0-117.776-52.648-117.776-117.594 0-64.944 52.73-117.593 117.776-117.593" fill="#EFEFEF"/><path d="M137.584 8.534c64.753 0 117.245 52.412 117.245 117.063 0 64.653-52.492 117.064-117.245 117.064-64.753 0-117.245-52.411-117.245-117.064 0-64.651 52.492-117.063 117.245-117.063" fill="#EFEFEF"/><path d="M137.584 9.064c64.46 0 116.714 52.174 116.714 116.533 0 64.36-52.255 116.535-116.714 116.535-64.46 0-116.714-52.175-116.714-116.535S73.124 9.064 137.584 9.064" fill="#EFEFEF"/><path d="M137.584 9.594c64.166 0 116.184 51.936 116.184 116.003 0 64.068-52.018 116.005-116.184 116.005-64.167 0-116.184-51.937-116.184-116.005C21.4 61.53 73.417 9.594 137.584 9.594" fill="#F0F0F0"/><path d="M137.584 10.124c63.874 0 115.654 51.699 115.654 115.473 0 63.775-51.78 115.475-115.654 115.475-63.874 0-115.654-51.7-115.654-115.475 0-63.774 51.78-115.473 115.654-115.473" fill="#F0F0F0"/><path d="M137.584 10.653c63.58 0 115.123 51.462 115.123 114.944 0 63.483-51.543 114.945-115.123 114.945-63.58 0-115.123-51.462-115.123-114.945 0-63.482 51.543-114.944 115.123-114.944" fill="#F0F0F0"/><path d="M137.584 11.183c63.288 0 114.592 51.225 114.592 114.414 0 63.19-51.304 114.416-114.592 114.416S22.992 188.787 22.992 125.597c0-63.189 51.304-114.414 114.592-114.414" fill="#F0F0F0"/><path d="M137.584 11.712c62.994 0 114.062 50.988 114.062 113.885 0 62.898-51.068 113.886-114.062 113.886S23.522 188.495 23.522 125.597c0-62.897 51.068-113.885 114.062-113.885" fill="#F0F0F0"/><path d="M137.584 12.242c62.701 0 113.531 50.751 113.531 113.355 0 62.605-50.83 113.356-113.531 113.356-62.702 0-113.531-50.751-113.531-113.356 0-62.604 50.83-113.355 113.531-113.355" fill="#F0F0F0"/><path d="M137.584 12.772c62.408 0 113 50.514 113 112.825 0 62.312-50.592 112.826-113 112.826-62.409 0-113-50.514-113-112.826 0-62.311 50.591-112.825 113-112.825" fill="#F0F0F0"/><path d="M137.584 13.302c62.115 0 112.47 50.276 112.47 112.295 0 62.02-50.355 112.297-112.47 112.297-62.116 0-112.47-50.277-112.47-112.297 0-62.019 50.354-112.295 112.47-112.295" fill="#F0F0F0"/><path d="M137.584 13.832c61.822 0 111.94 50.039 111.94 111.765 0 61.727-50.118 111.767-111.94 111.767-61.823 0-111.94-50.04-111.94-111.767 0-61.726 50.117-111.765 111.94-111.765" fill="#F0F0F0"/><path d="M137.584 14.361c61.53 0 111.409 49.802 111.409 111.236 0 61.435-49.88 111.237-111.409 111.237-61.53 0-111.409-49.802-111.409-111.237 0-61.434 49.88-111.236 111.409-111.236" fill="#F0F0F0"/><path d="M137.584 14.89c61.236 0 110.878 49.566 110.878 110.707 0 61.142-49.642 110.707-110.878 110.707S26.706 186.74 26.706 125.597c0-61.14 49.642-110.706 110.878-110.706" fill="#F0F0F0"/><path d="M137.584 15.42c60.943 0 110.348 49.328 110.348 110.177 0 60.85-49.405 110.178-110.348 110.178S27.236 186.447 27.236 125.597c0-60.849 49.405-110.177 110.348-110.177" fill="#F0F0F0"/><path d="M137.584 15.95c60.65 0 109.817 49.09 109.817 109.647s-49.167 109.648-109.817 109.648c-60.65 0-109.817-49.09-109.817-109.648 0-60.556 49.167-109.647 109.817-109.647" fill="#F1F1F1"/><path d="M137.584 16.48c60.358 0 109.287 48.854 109.287 109.117 0 60.264-48.93 109.118-109.287 109.118-60.358 0-109.287-48.854-109.287-109.118 0-60.263 48.93-109.117 109.287-109.117" fill="#F1F1F1"/><path d="M137.584 17.01c60.064 0 108.756 48.616 108.756 108.587 0 59.972-48.692 108.588-108.756 108.588S28.828 185.57 28.828 125.597c0-59.97 48.692-108.587 108.756-108.587" fill="#F1F1F1"/><path d="M137.584 17.54c59.771 0 108.225 48.379 108.225 108.057 0 59.68-48.454 108.059-108.225 108.059-59.772 0-108.226-48.38-108.226-108.059 0-59.678 48.454-108.057 108.226-108.057" fill="#F1F1F1"/><path d="M137.584 18.07c59.478 0 107.695 48.141 107.695 107.527 0 59.387-48.217 107.53-107.695 107.53-59.478 0-107.695-48.143-107.695-107.53 0-59.386 48.217-107.528 107.695-107.528" fill="#F1F1F1"/><path d="M137.584 18.599c59.185 0 107.164 47.905 107.164 106.998 0 59.094-47.979 107-107.164 107-59.186 0-107.164-47.906-107.164-107C30.42 66.504 78.398 18.6 137.584 18.6" fill="#F1F1F1"/><path d="M137.584 19.129c58.892 0 106.634 47.667 106.634 106.468 0 58.802-47.742 106.47-106.634 106.47S30.95 184.398 30.95 125.596c0-58.8 47.742-106.468 106.634-106.468" fill="#F1F1F1"/><path d="M137.584 19.659c58.6 0 106.104 47.43 106.104 105.938 0 58.51-47.505 105.94-106.104 105.94-58.6 0-106.104-47.43-106.104-105.94C31.48 67.09 78.985 19.66 137.584 19.66" fill="#F1F1F1"/><path d="M137.584 20.188c58.306 0 105.573 47.194 105.573 105.41 0 58.216-47.267 105.409-105.573 105.409-58.306 0-105.573-47.193-105.573-105.41 0-58.215 47.267-105.409 105.573-105.409" fill="#F1F1F1"/><path d="M137.584 20.718c58.013 0 105.042 46.956 105.042 104.88 0 57.923-47.03 104.88-105.042 104.88-58.013 0-105.042-46.957-105.042-104.88 0-57.924 47.029-104.88 105.042-104.88" fill="#F1F1F1"/><path d="M137.584 21.247c57.72 0 104.512 46.72 104.512 104.35 0 57.631-46.792 104.35-104.512 104.35S33.072 183.229 33.072 125.598c0-57.63 46.792-104.35 104.512-104.35" fill="#F1F1F1"/><path d="M137.584 21.777c57.427 0 103.98 46.482 103.98 103.82 0 57.339-46.553 103.82-103.98 103.82-57.427 0-103.981-46.481-103.981-103.82 0-57.338 46.554-103.82 103.981-103.82" fill="#F1F1F1"/><path d="M137.584 22.307c57.134 0 103.45 46.245 103.45 103.29 0 57.046-46.316 103.29-103.45 103.29s-103.45-46.244-103.45-103.29c0-57.045 46.316-103.29 103.45-103.29" fill="#F2F2F2"/><path d="M137.584 22.837c56.841 0 102.92 46.007 102.92 102.76 0 56.754-46.079 102.761-102.92 102.761-56.842 0-102.92-46.007-102.92-102.76 0-56.754 46.078-102.761 102.92-102.761" fill="#F2F2F2"/><path d="M137.584 23.367c56.548 0 102.39 45.77 102.39 102.23 0 56.461-45.842 102.232-102.39 102.232s-102.39-45.77-102.39-102.232c0-56.46 45.842-102.23 102.39-102.23" fill="#F2F2F2"/><path d="M137.584 23.896c56.255 0 101.859 45.534 101.859 101.701 0 56.169-45.604 101.702-101.859 101.702-56.255 0-101.859-45.533-101.859-101.702 0-56.167 45.604-101.7 101.859-101.7" fill="#F2F2F2"/><path d="M137.584 24.426c55.962 0 101.328 45.296 101.328 101.171 0 55.876-45.366 101.173-101.328 101.173S36.256 181.473 36.256 125.597c0-55.875 45.366-101.17 101.328-101.17" fill="#F2F2F2"/><path d="M137.584 24.956c55.67 0 100.798 45.059 100.798 100.641 0 55.584-45.129 100.643-100.798 100.643-55.67 0-100.798-45.06-100.798-100.643 0-55.582 45.129-100.641 100.798-100.641" fill="#F2F2F2"/><path d="M137.584 25.485c55.376 0 100.267 44.822 100.267 100.112 0 55.291-44.891 100.113-100.267 100.113S37.316 180.888 37.316 125.597c0-55.29 44.892-100.112 100.268-100.112" fill="#F2F2F2"/><path d="M137.584 26.015c55.083 0 99.737 44.585 99.737 99.582 0 54.998-44.654 99.583-99.737 99.583-55.083 0-99.737-44.585-99.737-99.583 0-54.997 44.654-99.582 99.737-99.582" fill="#F2F2F2"/><path d="M137.584 26.545c54.79 0 99.206 44.347 99.206 99.052 0 54.706-44.416 99.053-99.206 99.053-54.79 0-99.206-44.347-99.206-99.053 0-54.705 44.416-99.052 99.206-99.052" fill="#F2F2F2"/><path d="M137.584 27.075c54.497 0 98.676 44.11 98.676 98.522 0 54.414-44.18 98.524-98.676 98.524-54.497 0-98.676-44.11-98.676-98.524 0-54.412 44.179-98.522 98.676-98.522" fill="#F2F2F2"/><path d="M137.584 27.604c54.204 0 98.145 43.874 98.145 97.993 0 54.12-43.941 97.994-98.145 97.994-54.204 0-98.145-43.873-98.145-97.994 0-54.12 43.941-97.993 98.145-97.993" fill="#F2F2F2"/><path d="M137.584 28.134c53.91 0 97.614 43.636 97.614 97.463 0 53.828-43.703 97.464-97.614 97.464-53.91 0-97.614-43.636-97.614-97.464 0-53.827 43.703-97.463 97.614-97.463" fill="#F2F2F2"/><path d="M137.584 28.664c53.618 0 97.084 43.398 97.084 96.933 0 53.536-43.466 96.934-97.084 96.934S40.5 179.133 40.5 125.597c0-53.535 43.466-96.933 97.084-96.933" fill="#F3F3F3"/><path d="M137.584 29.194c53.325 0 96.554 43.161 96.554 96.403 0 53.243-43.23 96.405-96.554 96.405-53.325 0-96.554-43.162-96.554-96.405 0-53.242 43.229-96.403 96.554-96.403" fill="#F3F3F3"/><path d="M137.584 29.724c53.032 0 96.023 42.924 96.023 95.873 0 52.95-42.991 95.875-96.023 95.875s-96.023-42.925-96.023-95.875 42.991-95.873 96.023-95.873" fill="#F3F3F3"/><path d="M137.584 30.253c52.739 0 95.492 42.688 95.492 95.344 0 52.658-42.753 95.345-95.492 95.345-52.74 0-95.492-42.687-95.492-95.345 0-52.656 42.753-95.344 95.492-95.344" fill="#F3F3F3"/><path d="M137.584 30.783c52.446 0 94.962 42.45 94.962 94.814 0 52.365-42.516 94.816-94.962 94.816-52.446 0-94.962-42.45-94.962-94.816 0-52.364 42.516-94.814 94.962-94.814" fill="#F3F3F3"/><path d="M137.584 31.313c52.153 0 94.431 42.213 94.431 94.284 0 52.073-42.278 94.286-94.431 94.286s-94.431-42.213-94.431-94.286c0-52.071 42.278-94.284 94.431-94.284" fill="#F3F3F3"/><path d="M137.584 31.842c51.86 0 93.9 41.976 93.9 93.755 0 51.78-42.04 93.756-93.9 93.756-51.86 0-93.9-41.976-93.9-93.756 0-51.779 42.04-93.755 93.9-93.755" fill="#F3F3F3"/><path d="M137.584 32.372c51.567 0 93.37 41.738 93.37 93.225 0 51.488-41.803 93.226-93.37 93.226-51.567 0-93.37-41.738-93.37-93.226 0-51.487 41.803-93.225 93.37-93.225" fill="#F3F3F3"/><path d="M137.584 32.902c51.274 0 92.84 41.501 92.84 92.695 0 51.195-41.566 92.697-92.84 92.697s-92.84-41.502-92.84-92.697c0-51.194 41.566-92.695 92.84-92.695" fill="#F3F3F3"/><path d="M137.584 33.432c50.98 0 92.309 41.264 92.309 92.165 0 50.903-41.328 92.167-92.309 92.167-50.98 0-92.309-41.264-92.309-92.167 0-50.901 41.328-92.165 92.309-92.165" fill="#F3F3F3"/><path d="M137.584 33.961c50.688 0 91.778 41.028 91.778 91.636 0 50.61-41.09 91.637-91.778 91.637s-91.778-41.027-91.778-91.637c0-50.608 41.09-91.636 91.778-91.636" fill="#F3F3F3"/><path d="M137.584 34.49c50.394 0 91.248 40.79 91.248 91.107s-40.854 91.107-91.248 91.107c-50.395 0-91.248-40.79-91.248-91.107 0-50.316 40.853-91.106 91.248-91.106" fill="#F3F3F3"/><path d="M137.584 35.02c50.102 0 90.717 40.553 90.717 90.577 0 50.025-40.615 90.577-90.717 90.577s-90.718-40.552-90.718-90.577c0-50.024 40.616-90.576 90.718-90.576" fill="#F4F4F4"/><path d="M137.584 35.55c49.808 0 90.187 40.316 90.187 90.047 0 49.732-40.379 90.048-90.187 90.048-49.809 0-90.187-40.316-90.187-90.048 0-49.731 40.378-90.047 90.187-90.047" fill="#F4F4F4"/><path d="M137.584 36.08c49.516 0 89.656 40.078 89.656 89.517 0 49.44-40.14 89.518-89.656 89.518-49.516 0-89.656-40.078-89.656-89.518 0-49.439 40.14-89.517 89.656-89.517" fill="#F4F4F4"/><path d="M137.584 36.61c49.223 0 89.125 39.841 89.125 88.987 0 49.147-39.902 88.988-89.125 88.988s-89.126-39.84-89.126-88.988c0-49.146 39.903-88.987 89.126-88.987" fill="#F4F4F4"/><path d="M137.584 37.14c48.93 0 88.595 39.603 88.595 88.457 0 48.855-39.665 88.459-88.595 88.459s-88.595-39.604-88.595-88.459c0-48.854 39.665-88.457 88.595-88.457" fill="#F4F4F4"/><path d="M137.584 37.67c48.637 0 88.064 39.366 88.064 87.927 0 48.562-39.427 87.93-88.064 87.93-48.637 0-88.065-39.368-88.065-87.93 0-48.56 39.428-87.928 88.065-87.928" fill="#F4F4F4"/><path d="M137.584 38.199c48.343 0 87.534 39.13 87.534 87.398 0 48.27-39.19 87.4-87.534 87.4-48.344 0-87.534-39.13-87.534-87.4 0-48.268 39.19-87.398 87.534-87.398" fill="#F4F4F4"/><path d="M137.584 38.729c48.05 0 87.004 38.892 87.004 86.868 0 47.977-38.954 86.87-87.004 86.87-48.05 0-87.004-38.893-87.004-86.87 0-47.976 38.953-86.868 87.004-86.868" fill="#F4F4F4"/><path d="M137.584 39.259c47.758 0 86.473 38.655 86.473 86.338 0 47.684-38.715 86.34-86.473 86.34-47.758 0-86.473-38.656-86.473-86.34 0-47.683 38.715-86.338 86.473-86.338" fill="#F4F4F4"/><path d="M137.584 39.788c47.464 0 85.942 38.418 85.942 85.81 0 47.391-38.478 85.809-85.942 85.809-47.465 0-85.942-38.418-85.942-85.81 0-47.39 38.477-85.809 85.942-85.809" fill="#F4F4F4"/><path d="M137.584 40.318c47.172 0 85.412 38.181 85.412 85.28 0 47.098-38.24 85.28-85.412 85.28-47.172 0-85.412-38.182-85.412-85.28 0-47.099 38.24-85.28 85.412-85.28" fill="#F4F4F4"/><path d="M137.584 40.847c46.878 0 84.881 37.944 84.881 84.75 0 46.807-38.003 84.75-84.881 84.75s-84.881-37.943-84.881-84.75c0-46.806 38.003-84.75 84.881-84.75" fill="#F6F6F6"/><path d="M137.584 41.377c46.586 0 84.35 37.707 84.35 84.22 0 46.514-37.764 84.22-84.35 84.22-46.586 0-84.35-37.706-84.35-84.22 0-46.513 37.764-84.22 84.35-84.22" fill="#F6F6F6"/><path d="M137.584 41.907c46.292 0 83.82 37.47 83.82 83.69 0 46.222-37.528 83.69-83.82 83.69-46.292 0-83.82-37.468-83.82-83.69 0-46.22 37.528-83.69 83.82-83.69" fill="#F6F6F6"/><path d="M137.584 42.437c46 0 83.29 37.232 83.29 83.16 0 45.929-37.29 83.161-83.29 83.161-46 0-83.29-37.232-83.29-83.16 0-45.929 37.29-83.161 83.29-83.161" fill="#F6F6F6"/><path d="M137.584 42.967c45.706 0 82.759 36.995 82.759 82.63 0 45.636-37.053 82.632-82.759 82.632-45.707 0-82.759-36.996-82.759-82.632 0-45.635 37.052-82.63 82.759-82.63" fill="#F6F6F6"/><path d="M137.584 43.496c45.413 0 82.228 36.758 82.228 82.101 0 45.344-36.815 82.102-82.228 82.102-45.414 0-82.228-36.758-82.228-82.102 0-45.343 36.814-82.1 82.228-82.1" fill="#F6F6F6"/><path d="M137.584 44.026c45.12 0 81.698 36.521 81.698 81.571 0 45.051-36.578 81.572-81.698 81.572-45.12 0-81.698-36.52-81.698-81.572 0-45.05 36.577-81.57 81.698-81.57" fill="#F6F6F6"/><path d="M137.584 44.556c44.827 0 81.168 36.283 81.168 81.041 0 44.759-36.34 81.042-81.168 81.042s-81.168-36.283-81.168-81.042c0-44.758 36.34-81.041 81.168-81.041" fill="#F6F6F6"/><path d="M137.584 45.086c44.534 0 80.637 36.046 80.637 80.511 0 44.466-36.103 80.513-80.637 80.513s-80.637-36.047-80.637-80.513c0-44.465 36.103-80.511 80.637-80.511" fill="#F6F6F6"/><path d="M137.584 45.615c44.241 0 80.106 35.81 80.106 79.982 0 44.174-35.865 79.983-80.106 79.983-44.242 0-80.106-35.81-80.106-79.983 0-44.172 35.864-79.982 80.106-79.982" fill="#F6F6F6"/><path d="M137.584 46.145c43.948 0 79.576 35.572 79.576 79.452 0 43.88-35.628 79.453-79.576 79.453-43.948 0-79.576-35.572-79.576-79.453 0-43.88 35.628-79.452 79.576-79.452" fill="#F6F6F6"/><path d="M137.584 46.675c43.656 0 79.045 35.335 79.045 78.922 0 43.589-35.39 78.924-79.045 78.924-43.656 0-79.045-35.335-79.045-78.924 0-43.587 35.39-78.922 79.045-78.922" fill="#F6F6F6"/><path d="M137.584 47.204c43.362 0 78.514 35.098 78.514 78.393 0 43.296-35.152 78.394-78.514 78.394-43.362 0-78.515-35.098-78.515-78.394 0-43.295 35.153-78.393 78.515-78.393" fill="#F7F7F7"/><path d="M137.584 47.734c43.07 0 77.984 34.861 77.984 77.863 0 43.003-34.915 77.864-77.984 77.864-43.07 0-77.984-34.86-77.984-77.864 0-43.002 34.914-77.863 77.984-77.863" fill="#F7F7F7"/><path d="M137.584 48.264c42.776 0 77.454 34.623 77.454 77.333s-34.678 77.334-77.454 77.334c-42.776 0-77.454-34.623-77.454-77.334 0-42.71 34.678-77.333 77.454-77.333" fill="#F7F7F7"/><path d="M137.584 48.794c42.483 0 76.923 34.386 76.923 76.803 0 42.418-34.44 76.804-76.923 76.804-42.484 0-76.923-34.386-76.923-76.804 0-42.417 34.44-76.803 76.923-76.803" fill="#F7F7F7"/><path d="M137.584 49.324c42.19 0 76.392 34.149 76.392 76.273 0 42.126-34.202 76.275-76.392 76.275s-76.392-34.15-76.392-76.275c0-42.124 34.202-76.273 76.392-76.273" fill="#F7F7F7"/><path d="M137.584 49.853c41.897 0 75.862 33.912 75.862 75.744 0 41.833-33.965 75.745-75.862 75.745-41.897 0-75.862-33.912-75.862-75.745 0-41.832 33.965-75.744 75.862-75.744" fill="#F7F7F7"/><path d="M137.584 50.383c41.604 0 75.331 33.675 75.331 75.214 0 41.54-33.727 75.215-75.331 75.215-41.604 0-75.332-33.674-75.332-75.215 0-41.539 33.728-75.214 75.332-75.214" fill="#F7F7F7"/><path d="M137.584 50.913c41.311 0 74.8 33.437 74.8 74.684 0 41.248-33.489 74.685-74.8 74.685s-74.8-33.437-74.8-74.685c0-41.247 33.489-74.684 74.8-74.684" fill="#F7F7F7"/><path d="M137.584 51.443c41.018 0 74.27 33.2 74.27 74.154 0 40.955-33.252 74.156-74.27 74.156-41.018 0-74.27-33.2-74.27-74.156 0-40.954 33.252-74.154 74.27-74.154" fill="#F7F7F7"/><path d="M137.584 51.972c40.725 0 73.74 32.964 73.74 73.625 0 40.663-33.015 73.626-73.74 73.626-40.726 0-73.74-32.963-73.74-73.626 0-40.661 33.014-73.625 73.74-73.625" fill="#F7F7F7"/><path d="M137.584 52.502c40.432 0 73.209 32.726 73.209 73.095 0 40.37-32.777 73.097-73.209 73.097s-73.21-32.727-73.21-73.097 32.778-73.095 73.21-73.095" fill="#F7F7F7"/><path d="M137.584 53.031c40.14 0 72.678 32.49 72.678 72.566 0 40.078-32.539 72.567-72.678 72.567-40.14 0-72.678-32.49-72.678-72.567 0-40.076 32.538-72.566 72.678-72.566" fill="#F7F7F7"/><path d="M137.584 53.561c39.846 0 72.148 32.252 72.148 72.036 0 39.785-32.302 72.037-72.148 72.037s-72.148-32.252-72.148-72.037c0-39.784 32.302-72.036 72.148-72.036" fill="#F8F8F8"/><path d="M137.584 54.09c39.553 0 71.617 32.016 71.617 71.507 0 39.493-32.064 71.507-71.617 71.507-39.553 0-71.618-32.014-71.618-71.507 0-39.491 32.065-71.506 71.618-71.506" fill="#F8F8F8"/><path d="M137.584 54.62c39.26 0 71.087 31.778 71.087 70.977 0 39.2-31.827 70.977-71.087 70.977-39.26 0-71.087-31.777-71.087-70.977 0-39.199 31.827-70.976 71.087-70.976" fill="#F8F8F8"/><path d="M137.584 55.15c38.967 0 70.556 31.54 70.556 70.447 0 38.908-31.589 70.448-70.556 70.448s-70.557-31.54-70.557-70.448c0-38.907 31.59-70.447 70.557-70.447" fill="#F8F8F8"/><path d="M137.584 55.68c38.674 0 70.026 31.304 70.026 69.917 0 38.615-31.352 69.918-70.026 69.918-38.674 0-70.026-31.303-70.026-69.918 0-38.613 31.352-69.917 70.026-69.917" fill="#F8F8F8"/><path d="M137.584 56.21c38.38 0 69.495 31.066 69.495 69.387 0 38.322-31.114 69.388-69.495 69.388s-69.495-31.066-69.495-69.388c0-38.321 31.114-69.387 69.495-69.387" fill="#F8F8F8"/><path d="M137.584 56.74c38.088 0 68.964 30.829 68.964 68.857 0 38.03-30.876 68.859-68.964 68.859-38.088 0-68.965-30.83-68.965-68.859 0-38.028 30.877-68.857 68.965-68.857" fill="#F8F8F8"/><path d="M137.584 57.27c37.795 0 68.434 30.591 68.434 68.327 0 37.737-30.64 68.329-68.434 68.329-37.795 0-68.434-30.592-68.434-68.329 0-37.736 30.639-68.328 68.434-68.328" fill="#F8F8F8"/><path d="M137.584 57.8c37.502 0 67.904 30.354 67.904 67.797 0 37.445-30.402 67.8-67.904 67.8-37.502 0-67.904-30.355-67.904-67.8 0-37.443 30.402-67.798 67.904-67.798" fill="#F8F8F8"/><path d="M137.584 58.33c37.209 0 67.373 30.116 67.373 67.267 0 37.152-30.164 67.27-67.373 67.27s-67.373-30.118-67.373-67.27c0-37.15 30.164-67.268 67.373-67.268" fill="#F8F8F8"/><path d="M137.584 58.859c36.916 0 66.842 29.88 66.842 66.738 0 36.86-29.926 66.74-66.842 66.74s-66.842-29.88-66.842-66.74c0-36.858 29.926-66.738 66.842-66.738" fill="#F8F8F8"/><path d="M137.584 59.388c36.623 0 66.312 29.644 66.312 66.21 0 36.566-29.689 66.209-66.312 66.209s-66.312-29.643-66.312-66.21c0-36.565 29.689-66.209 66.312-66.209" fill="#F8F8F8"/><path d="M137.584 59.918c36.33 0 65.781 29.406 65.781 65.68 0 36.273-29.451 65.679-65.781 65.679-36.33 0-65.781-29.406-65.781-65.68 0-36.273 29.451-65.68 65.781-65.68" fill="#F9F9F9"/><path d="M137.584 60.447c36.037 0 65.25 29.17 65.25 65.15 0 35.982-29.213 65.15-65.25 65.15s-65.25-29.168-65.25-65.15c0-35.98 29.213-65.15 65.25-65.15" fill="#F9F9F9"/><path d="M137.584 60.977c35.744 0 64.72 28.932 64.72 64.62 0 35.69-28.976 64.62-64.72 64.62s-64.72-28.93-64.72-64.62c0-35.688 28.976-64.62 64.72-64.62" fill="#F9F9F9"/><path d="M137.584 61.507c35.45 0 64.19 28.694 64.19 64.09 0 35.397-28.74 64.09-64.19 64.09-35.451 0-64.19-28.693-64.19-64.09 0-35.396 28.739-64.09 64.19-64.09" fill="#F9F9F9"/><path d="M137.584 62.037c35.158 0 63.659 28.457 63.659 63.56 0 35.104-28.501 63.561-63.659 63.561s-63.659-28.457-63.659-63.56c0-35.104 28.501-63.561 63.659-63.561" fill="#F9F9F9"/><path d="M137.584 62.567c34.865 0 63.128 28.22 63.128 63.03 0 34.812-28.263 63.032-63.128 63.032-34.865 0-63.128-28.22-63.128-63.032 0-34.81 28.263-63.03 63.128-63.03" fill="#F9F9F9"/><path d="M137.584 63.097c34.572 0 62.598 27.982 62.598 62.5 0 34.519-28.026 62.502-62.598 62.502s-62.598-27.983-62.598-62.502c0-34.518 28.026-62.5 62.598-62.5" fill="#F9F9F9"/><path d="M137.584 63.626c34.279 0 62.068 27.746 62.068 61.971 0 34.227-27.79 61.972-62.068 61.972-34.279 0-62.068-27.745-62.068-61.972 0-34.225 27.79-61.97 62.068-61.97" fill="#F9F9F9"/><path d="M137.584 64.156c33.986 0 61.537 27.509 61.537 61.441 0 33.934-27.551 61.442-61.537 61.442-33.986 0-61.537-27.508-61.537-61.442 0-33.932 27.551-61.44 61.537-61.44" fill="#F9F9F9"/><path d="M137.584 64.686c33.692 0 61.006 27.271 61.006 60.911 0 33.641-27.314 60.913-61.006 60.913-33.693 0-61.007-27.272-61.007-60.913 0-33.64 27.314-60.911 61.007-60.911" fill="#F9F9F9"/><path d="M137.584 65.215c33.4 0 60.476 27.034 60.476 60.382 0 33.349-27.076 60.383-60.476 60.383s-60.476-27.034-60.476-60.383c0-33.348 27.076-60.382 60.476-60.382" fill="#F9F9F9"/><path d="M137.584 65.745c33.107 0 59.945 26.797 59.945 59.852 0 33.056-26.838 59.853-59.945 59.853s-59.945-26.797-59.945-59.853c0-33.055 26.838-59.852 59.945-59.852" fill="#F9F9F9"/><path d="M137.584 66.275c32.814 0 59.414 26.56 59.414 59.322 0 32.764-26.6 59.324-59.414 59.324s-59.415-26.56-59.415-59.324c0-32.763 26.601-59.322 59.415-59.322" fill="#F9F9F9"/><path d="M137.584 66.804c32.52 0 58.884 26.323 58.884 58.793 0 32.471-26.363 58.794-58.884 58.794-32.52 0-58.884-26.323-58.884-58.794 0-32.47 26.363-58.793 58.884-58.793" fill="#F9F9F9"/><path d="M137.584 67.334c32.228 0 58.354 26.086 58.354 58.263 0 32.179-26.126 58.264-58.354 58.264-32.228 0-58.354-26.085-58.354-58.264 0-32.177 26.126-58.263 58.354-58.263" fill="#F9F9F9"/><path d="M137.584 67.864c31.935 0 57.823 25.848 57.823 57.733 0 31.886-25.888 57.734-57.823 57.734s-57.823-25.848-57.823-57.734c0-31.885 25.888-57.733 57.823-57.733" fill="#F9F9F9"/><path d="M137.584 68.394c31.642 0 57.292 25.611 57.292 57.203 0 31.594-25.65 57.204-57.292 57.204-31.642 0-57.292-25.61-57.292-57.204 0-31.592 25.65-57.203 57.292-57.203" fill="#F9F9F9"/><path d="M137.584 68.924c31.349 0 56.762 25.373 56.762 56.673s-25.413 56.675-56.762 56.675-56.762-25.374-56.762-56.675c0-31.3 25.413-56.673 56.762-56.673" fill="#F9F9F9"/><path d="M137.584 69.453c31.056 0 56.231 25.137 56.231 56.144 0 31.008-25.175 56.145-56.231 56.145s-56.232-25.137-56.232-56.145c0-31.007 25.176-56.144 56.232-56.144" fill="#F9F9F9"/><path d="M137.584 69.983c30.762 0 55.7 24.9 55.7 55.614 0 30.716-24.938 55.615-55.7 55.615-30.763 0-55.701-24.9-55.701-55.615 0-30.715 24.938-55.614 55.701-55.614" fill="#F9F9F9"/><path d="M137.584 70.513c30.47 0 55.17 24.662 55.17 55.084 0 30.423-24.7 55.086-55.17 55.086-30.47 0-55.17-24.663-55.17-55.086 0-30.422 24.7-55.084 55.17-55.084" fill="#F9F9F9"/><path d="M137.584 71.043c30.176 0 54.64 24.425 54.64 54.554 0 30.13-24.464 54.556-54.64 54.556-30.176 0-54.64-24.425-54.64-54.556 0-30.13 24.464-54.554 54.64-54.554" fill="#F9F9F9"/><path d="M137.584 71.572c29.884 0 54.109 24.188 54.109 54.025 0 29.838-24.225 54.026-54.109 54.026s-54.11-24.188-54.11-54.026c0-29.837 24.226-54.025 54.11-54.025" fill="#F9F9F9"/><path d="M137.584 72.102c29.59 0 53.578 23.95 53.578 53.495 0 29.546-23.987 53.497-53.578 53.497-29.59 0-53.579-23.951-53.579-53.497 0-29.544 23.988-53.495 53.579-53.495" fill="#FAFAFA"/><path d="M137.584 72.631c29.298 0 53.048 23.714 53.048 52.966 0 29.253-23.75 52.967-53.048 52.967-29.298 0-53.048-23.714-53.048-52.967 0-29.252 23.75-52.966 53.048-52.966" fill="#FAFAFA"/><path d="M137.584 73.161c29.004 0 52.518 23.477 52.518 52.436 0 28.96-23.514 52.437-52.518 52.437-29.005 0-52.518-23.477-52.518-52.437 0-28.959 23.513-52.436 52.518-52.436" fill="#FAFAFA"/><path d="M137.584 73.691c28.711 0 51.987 23.24 51.987 51.906 0 28.668-23.276 51.907-51.987 51.907-28.712 0-51.987-23.24-51.987-51.907 0-28.666 23.275-51.906 51.987-51.906" fill="#FAFAFA"/><path d="M137.584 74.22c28.418 0 51.456 23.003 51.456 51.377 0 28.375-23.038 51.377-51.456 51.377-28.419 0-51.457-23.002-51.457-51.377 0-28.374 23.038-51.376 51.457-51.376" fill="#FAFAFA"/><path d="M137.584 74.75c28.125 0 50.926 22.766 50.926 50.847 0 28.083-22.8 50.848-50.926 50.848s-50.926-22.765-50.926-50.848c0-28.081 22.8-50.846 50.926-50.846" fill="#FAFAFA"/><path d="M137.584 75.28c27.832 0 50.395 22.528 50.395 50.317 0 27.79-22.563 50.318-50.395 50.318-27.832 0-50.395-22.528-50.395-50.318 0-27.789 22.563-50.317 50.395-50.317" fill="#FAFAFA"/><path d="M137.584 75.81c27.54 0 49.865 22.29 49.865 49.787 0 27.498-22.325 49.788-49.865 49.788-27.54 0-49.865-22.29-49.865-49.788 0-27.496 22.325-49.787 49.865-49.787" fill="#FAFAFA"/><path d="M137.584 76.34c27.246 0 49.334 22.053 49.334 49.257 0 27.205-22.088 49.258-49.334 49.258-27.246 0-49.334-22.053-49.334-49.258 0-27.204 22.088-49.257 49.334-49.257" fill="#FAFAFA"/><path d="M137.584 76.87c26.954 0 48.804 21.816 48.804 48.727 0 26.913-21.85 48.729-48.804 48.729S88.78 152.51 88.78 125.597c0-26.91 21.85-48.727 48.804-48.727" fill="#FAFAFA"/><path d="M137.584 77.4c26.66 0 48.273 21.579 48.273 48.197 0 26.62-21.613 48.2-48.273 48.2-26.66 0-48.273-21.58-48.273-48.2 0-26.618 21.613-48.198 48.273-48.198" fill="#FAFAFA"/><path d="M137.584 77.93c26.367 0 47.742 21.34 47.742 47.667s-21.375 47.67-47.742 47.67c-26.368 0-47.742-21.343-47.742-47.67 0-26.326 21.374-47.668 47.742-47.668" fill="#FAFAFA"/><path d="M137.584 78.459c26.074 0 47.212 21.105 47.212 47.138 0 26.035-21.138 47.14-47.212 47.14-26.075 0-47.212-21.105-47.212-47.14 0-26.033 21.137-47.138 47.212-47.138" fill="#FBFBFB"/><path d="M137.584 78.988c25.781 0 46.681 20.868 46.681 46.61 0 25.741-20.9 46.609-46.681 46.609-25.782 0-46.682-20.868-46.682-46.61 0-25.741 20.9-46.609 46.682-46.609" fill="#FBFBFB"/><path d="M137.584 79.518c25.488 0 46.15 20.63 46.15 46.08 0 25.449-20.662 46.079-46.15 46.079s-46.15-20.63-46.15-46.08c0-25.448 20.662-46.08 46.15-46.08" fill="#FBFBFB"/><path d="M137.584 80.048c25.195 0 45.62 20.393 45.62 45.55 0 25.156-20.425 45.55-45.62 45.55-25.195 0-45.62-20.394-45.62-45.55 0-25.157 20.425-45.55 45.62-45.55" fill="#FBFBFB"/><path d="M137.584 80.578c24.902 0 45.09 20.156 45.09 45.02 0 24.864-20.188 45.02-45.09 45.02-24.902 0-45.09-20.156-45.09-45.02 0-24.864 20.188-45.02 45.09-45.02" fill="#FBFBFB"/><path d="M137.584 81.107c24.61 0 44.559 19.92 44.559 44.49 0 24.572-19.95 44.49-44.559 44.49-24.61 0-44.56-19.918-44.56-44.49 0-24.57 19.95-44.49 44.56-44.49" fill="#FBFBFB"/><path d="M137.584 81.637c24.316 0 44.028 19.682 44.028 43.96 0 24.279-19.712 43.961-44.028 43.961s-44.029-19.682-44.029-43.96c0-24.28 19.713-43.961 44.029-43.961" fill="#FBFBFB"/><path d="M137.584 82.167c24.023 0 43.498 19.445 43.498 43.43 0 23.987-19.475 43.431-43.498 43.431-24.024 0-43.498-19.444-43.498-43.43s19.474-43.431 43.498-43.431" fill="#FBFBFB"/><path d="M137.584 82.697c23.73 0 42.968 19.207 42.968 42.9 0 23.694-19.238 42.902-42.968 42.902-23.73 0-42.968-19.208-42.968-42.902 0-23.693 19.238-42.9 42.968-42.9" fill="#FBFBFB"/><path d="M137.584 83.227c23.437 0 42.437 18.97 42.437 42.37 0 23.402-19 42.372-42.437 42.372-23.438 0-42.437-18.97-42.437-42.372 0-23.4 19-42.37 42.437-42.37" fill="#FBFBFB"/><path d="M137.584 83.756c23.144 0 41.906 18.733 41.906 41.841 0 23.11-18.762 41.842-41.906 41.842s-41.907-18.733-41.907-41.842c0-23.108 18.763-41.84 41.907-41.84" fill="#FBFBFB"/><path d="M137.584 84.286c22.851 0 41.376 18.495 41.376 41.311 0 22.817-18.525 41.313-41.376 41.313s-41.376-18.496-41.376-41.313c0-22.816 18.525-41.311 41.376-41.311" fill="#FBFBFB"/><path d="M137.584 84.815c22.558 0 40.845 18.26 40.845 40.782 0 22.524-18.287 40.783-40.845 40.783s-40.846-18.259-40.846-40.783c0-22.522 18.288-40.782 40.846-40.782" fill="#FCFCFC"/><path d="M137.584 85.345c22.265 0 40.315 18.022 40.315 40.252 0 22.231-18.05 40.253-40.315 40.253-22.265 0-40.315-18.022-40.315-40.253 0-22.23 18.05-40.252 40.315-40.252" fill="#FCFCFC"/><path d="M137.584 85.875c21.972 0 39.784 17.785 39.784 39.722 0 21.94-17.812 39.723-39.784 39.723-21.972 0-39.784-17.784-39.784-39.723 0-21.937 17.812-39.722 39.784-39.722" fill="#FCFCFC"/><path d="M137.584 86.405c21.679 0 39.254 17.547 39.254 39.192 0 21.646-17.575 39.194-39.254 39.194-21.68 0-39.254-17.548-39.254-39.194 0-21.645 17.575-39.192 39.254-39.192" fill="#FCFCFC"/><path d="M137.584 86.934c21.386 0 38.723 17.31 38.723 38.663 0 21.354-17.337 38.664-38.723 38.664s-38.723-17.31-38.723-38.664c0-21.352 17.337-38.663 38.723-38.663" fill="#FCFCFC"/><path d="M137.584 87.464c21.093 0 38.192 17.073 38.192 38.133 0 21.061-17.1 38.134-38.192 38.134-21.093 0-38.192-17.073-38.192-38.134 0-21.06 17.099-38.133 38.192-38.133" fill="#FCFCFC"/><path d="M137.584 87.994c20.8 0 37.662 16.835 37.662 37.603s-16.862 37.604-37.662 37.604-37.662-16.836-37.662-37.604 16.862-37.603 37.662-37.603" fill="#FCFCFC"/><path d="M137.584 88.524c20.507 0 37.131 16.598 37.131 37.073 0 20.476-16.624 37.074-37.131 37.074s-37.132-16.598-37.132-37.074c0-20.475 16.625-37.073 37.132-37.073" fill="#FCFCFC"/><path d="M137.584 89.053c20.214 0 36.6 16.362 36.6 36.544 0 20.184-16.386 36.545-36.6 36.545-20.214 0-36.601-16.361-36.601-36.545 0-20.182 16.387-36.544 36.601-36.544" fill="#FCFCFC"/><path d="M137.584 89.583c19.921 0 36.07 16.124 36.07 36.014 0 19.89-16.149 36.015-36.07 36.015s-36.07-16.124-36.07-36.015c0-19.89 16.149-36.014 36.07-36.014" fill="#FCFCFC"/><path d="M137.584 90.113c19.628 0 35.54 15.887 35.54 35.484 0 19.598-15.912 35.486-35.54 35.486s-35.54-15.888-35.54-35.486c0-19.597 15.912-35.484 35.54-35.484" fill="#FCFCFC"/><path d="M137.584 90.643c19.335 0 35.01 15.65 35.01 34.954 0 19.306-15.675 34.956-35.01 34.956-19.335 0-35.01-15.65-35.01-34.956 0-19.305 15.675-34.954 35.01-34.954" fill="#FCFCFC"/><path d="M137.584 91.172c19.042 0 34.478 15.413 34.478 34.425 0 19.013-15.436 34.426-34.478 34.426s-34.479-15.413-34.479-34.426c0-19.012 15.437-34.425 34.479-34.425" fill="#FDFDFD"/><path d="M137.584 91.702c18.749 0 33.948 15.175 33.948 33.895 0 18.72-15.2 33.896-33.948 33.896-18.75 0-33.948-15.176-33.948-33.896s15.199-33.895 33.948-33.895" fill="#FDFDFD"/><path d="M137.584 92.231c18.456 0 33.418 14.94 33.418 33.366 0 18.428-14.962 33.367-33.418 33.367s-33.418-14.939-33.418-33.367c0-18.427 14.962-33.366 33.418-33.366" fill="#FDFDFD"/><path d="M137.584 92.762c18.163 0 32.887 14.7 32.887 32.835 0 18.136-14.724 32.837-32.887 32.837s-32.887-14.701-32.887-32.837c0-18.134 14.724-32.835 32.887-32.835" fill="#FDFDFD"/><path d="M137.584 93.291c17.87 0 32.357 14.465 32.357 32.306 0 17.843-14.487 32.307-32.357 32.307-17.87 0-32.357-14.464-32.357-32.307 0-17.841 14.487-32.306 32.357-32.306" fill="#FDFDFD"/><path d="M137.584 93.82c17.577 0 31.826 14.228 31.826 31.777 0 17.55-14.25 31.777-31.826 31.777-17.577 0-31.826-14.226-31.826-31.777 0-17.549 14.25-31.776 31.826-31.776" fill="#FDFDFD"/><path d="M137.584 94.35c17.284 0 31.295 13.99 31.295 31.247 0 17.258-14.011 31.248-31.295 31.248-17.284 0-31.295-13.99-31.295-31.248 0-17.257 14.011-31.246 31.295-31.246" fill="#FDFDFD"/><path d="M137.584 94.88c16.99 0 30.765 13.753 30.765 30.717 0 16.965-13.774 30.718-30.765 30.718s-30.765-13.753-30.765-30.718c0-16.964 13.774-30.717 30.765-30.717" fill="#FDFDFD"/><path d="M137.584 95.41c16.698 0 30.234 13.516 30.234 30.187 0 16.673-13.536 30.188-30.234 30.188s-30.234-13.515-30.234-30.188c0-16.671 13.536-30.187 30.234-30.187" fill="#FDFDFD"/><path d="M137.584 95.94c16.405 0 29.704 13.278 29.704 29.657 0 16.38-13.3 29.658-29.704 29.658-16.405 0-29.704-13.278-29.704-29.658 0-16.379 13.299-29.657 29.704-29.657" fill="#FDFDFD"/><path d="M137.584 96.47c16.112 0 29.173 13.04 29.173 29.127 0 16.088-13.061 29.129-29.173 29.129s-29.173-13.041-29.173-29.129c0-16.086 13.061-29.127 29.173-29.127" fill="#FDFDFD"/><path d="M137.584 97c15.819 0 28.642 12.803 28.642 28.597 0 15.795-12.823 28.6-28.642 28.6-15.819 0-28.642-12.805-28.642-28.6 0-15.794 12.823-28.598 28.642-28.598" fill="#FDFDFD"/><path d="M137.584 97.53c15.526 0 28.112 12.566 28.112 28.067 0 15.503-12.586 28.07-28.112 28.07-15.526 0-28.112-12.567-28.112-28.07 0-15.501 12.586-28.068 28.112-28.068" fill="#FEFEFE"/><path d="M137.584 98.059c15.233 0 27.582 12.33 27.582 27.538 0 15.21-12.35 27.54-27.582 27.54-15.233 0-27.582-12.33-27.582-27.54 0-15.209 12.35-27.538 27.582-27.538" fill="#FEFEFE"/><path d="M137.584 98.588c14.94 0 27.05 12.093 27.05 27.01 0 14.916-12.11 27.009-27.05 27.009-14.94 0-27.051-12.093-27.051-27.01 0-14.916 12.111-27.009 27.051-27.009" fill="#FEFEFE"/><path d="M137.584 99.118c14.646 0 26.52 11.856 26.52 26.48s-11.874 26.479-26.52 26.479c-14.647 0-26.52-11.855-26.52-26.48 0-14.623 11.873-26.479 26.52-26.479" fill="#FEFEFE"/><path d="M137.584 99.648c14.354 0 25.99 11.618 25.99 25.95 0 14.331-11.636 25.949-25.99 25.949s-25.99-11.618-25.99-25.95c0-14.33 11.636-25.95 25.99-25.95" fill="#FEFEFE"/><path d="M137.584 100.178c14.06 0 25.46 11.38 25.46 25.42 0 14.039-11.4 25.42-25.46 25.42s-25.46-11.381-25.46-25.42c0-14.04 11.4-25.42 25.46-25.42" fill="#FEFEFE"/><path d="M137.584 100.707c13.768 0 24.928 11.144 24.928 24.89 0 13.747-11.16 24.89-24.928 24.89s-24.929-11.143-24.929-24.89c0-13.746 11.161-24.89 24.929-24.89" fill="#FEFEFE"/><path d="M137.584 101.237c13.474 0 24.398 10.907 24.398 24.36 0 13.455-10.924 24.36-24.398 24.36-13.475 0-24.398-10.905-24.398-24.36 0-13.453 10.923-24.36 24.398-24.36" fill="#FEFEFE"/><path d="M137.584 101.767c13.182 0 23.868 10.67 23.868 23.83 0 13.162-10.686 23.831-23.868 23.831-13.182 0-23.868-10.67-23.868-23.83 0-13.162 10.686-23.831 23.868-23.831" fill="#FEFEFE"/><path d="M137.584 102.297c12.889 0 23.337 10.432 23.337 23.3 0 12.87-10.448 23.302-23.337 23.302s-23.337-10.432-23.337-23.302c0-12.868 10.448-23.3 23.337-23.3" fill="#FEFEFE"/><path d="M137.584 102.827c12.596 0 22.807 10.195 22.807 22.77 0 12.577-10.211 22.772-22.807 22.772-12.596 0-22.807-10.195-22.807-22.772 0-12.575 10.211-22.77 22.807-22.77" fill="#FEFEFE"/><path d="M137.584 103.356c12.302 0 22.276 9.958 22.276 22.241 0 12.284-9.974 22.242-22.276 22.242-12.303 0-22.276-9.958-22.276-22.242 0-12.283 9.973-22.24 22.276-22.24" fill="#FEFEFE"/><path d="M137.584 103.886c12.01 0 21.745 9.72 21.745 21.711 0 11.992-9.736 21.713-21.745 21.713-12.01 0-21.746-9.721-21.746-21.713 0-11.99 9.736-21.711 21.746-21.711" fill="#FFF"/><path d="M137.584 104.415c11.716 0 21.215 9.484 21.215 21.182 0 11.699-9.499 21.183-21.215 21.183-11.717 0-21.215-9.484-21.215-21.183 0-11.698 9.498-21.182 21.215-21.182" fill="#FFF"/><path d="M137.584 104.945c11.424 0 20.684 9.247 20.684 20.652 0 11.407-9.26 20.653-20.684 20.653-11.424 0-20.684-9.246-20.684-20.653 0-11.405 9.26-20.652 20.684-20.652" fill="#FFF"/><path d="M137.584 105.475c11.13 0 20.154 9.01 20.154 20.122 0 11.114-9.024 20.123-20.154 20.123s-20.154-9.009-20.154-20.123c0-11.113 9.024-20.122 20.154-20.122" fill="#FFF"/><path d="M137.584 106.005c10.838 0 19.623 8.772 19.623 19.592 0 10.821-8.785 19.593-19.623 19.593-10.838 0-19.624-8.772-19.624-19.593 0-10.82 8.786-19.592 19.624-19.592" fill="#FFF"/><path d="M137.584 144.66c10.516 0 19.092-8.563 19.092-19.063 0-10.499-8.576-19.063-19.092-19.063-10.516 0-19.092 8.564-19.092 19.063 0 10.5 8.576 19.064 19.092 19.064" fill="#FFF"/><path d="M126.255 167.747s-1.177-2.348-1.912-3.963c-.735-1.614-.587-2.348-.587-2.348s-1.324-.88-1.324-2.348.588-2.496.588-2.496c-.516-2.385.654-5.96 2.646-6.458 3.84-.958 6.175-2.495 9.85 0s2.352 7.486 2.352 7.486-.33 1.47-.772 2.5c.769 1.467-1.085 3.317-1.635 3.208-.385.823-1.268 1.924-.827 2.658.441.734 1.911-1.174 3.234-.587s6.322-.293 7.938 1.028c1.317 1.075 3.51 2.539 6.897 4.472v9.516c-2.755-2.038-4.955-2.025-4.955-2.025s.16 2.867.16 6.211c0 3.345 1.434 5.893 1.434 8.919 0 3.025-.478 5.892.798 6.21.539.135 1.561.525 2.563.93v53.458c-.748-.777-1.331-1.654-2.339-2.265-2.086-1.266-1.685-4.246-.882-5.872.803-1.625.44-3.082.44-3.082s.589-8.22.883-13.797c.294-5.578.147-10.421.147-10.421s-4.557 1.614-8.527 1.614c-3.969 0-6.321-.587-9.114-.587-2.793 0-6.469-.88-7.497-1.321-1.03-.44.294 7.486 1.763 12.916a662.571 662.571 0 0 1 2.794 10.715l-.735.587s.52 2.913 1.108 4.234c.589 1.32 1.419 4.1-.756 5.605-1.664 1.15-3.453 4.79-6.513 5.359-3.06.568-4.015-1.594-2.38-4.725 1.636-3.132 3.091-4.194 3.314-6.289.223-2.095-.328-3.832-.328-3.832l-4.442.236s-1.47-7.486-2.352-12.77c-.882-5.284-3.087-17.614-2.793-20.843.294-3.23.882-5.137 2.205-5.871 1.323-.734 1.764-1.321 1.764-1.321s-1.764-1.027-1.764-2.202c0-1.174-.037-1.614-.147-1.908-1.086.551-1.82-5.056-.514-4.885.536-3.346-.515-1.574-.074-3.335.44-1.761.588-3.816 0-5.137-.588-1.32-.147-5.138.44-7.046.589-1.908-.146-2.495 1.912-4.256 2.058-1.762 4.704-2.642 4.704-2.642s.736-3.23 3.235-3.23zm26.448 3.152c.773.442 1.61.907 2.512 1.399 1.843 1.003 3.035 1.139 3.459 1.753.366-.88 3.697 1.619 4.016 2.16.515.872.472 1.675-.043 2.058 0 0 3.153 3.57 2.564 5.184-.587 1.614-1.029 10.128-2.205 13.064-1.176 2.935-2.793 7.045-3.528 8.073-.735 1.027-.735.733-.735.733s3.087 2.202 2.793 5.872c-.294 3.67-1.91 22.897-2.058 25.393-.147 2.495-.147 7.192-.147 7.192s-1.323 1.028-2.205 1.028c-.882 0-1.323 2.348.294 5.43s2.646 5.871-1.029 5.578c-1.9-.152-2.888-.868-3.688-1.698V200.66c1.37.555 2.7 1.14 2.7 1.14s1.117-.16 1.595-2.07c.479-1.912.638-9.397.638-11.149 0-1.751.176-5.007-.478-5.733-.69 1.306-4.42-1.174-4.204-2.243a15.547 15.547 0 0 0-.251-.19v-9.517z" fill="#424242"/><path d="M137.005 208.076c.855 0 1.553.698 1.553 1.551v29.302c0 .853-.698 1.551-1.553 1.551a1.557 1.557 0 0 1-1.553-1.551v-29.302c0-.853.698-1.551 1.553-1.551" fill="#424242"/><path d="M121.34 248.764c.158-2.813-.133-4.98 2.925-7.496 3.058-2.517 7.546-3.359 13.934-4.048 6.387-.69 17.293-.69 16.084 7.584m-17.418-7.39c.786-1.064 5.803-5.347 6.312-2.058.05.323.1 3.784.055 4.263m-1.696 9.203c0-1.866 1.15-6.099-4.168-10.62m-12.46 4.394c.022-.412.408-3.607.542-4.062.76-2.565 3.55-5.246 11.056-1.408" stroke="#424242" stroke-width="1.536"/><path d="M124.507 251.113c1.069 0 1.94-.919 1.94-2.045 0-1.127-.871-2.045-1.94-2.045s-1.94.918-1.94 2.045c0 1.126.871 2.045 1.94 2.045" fill="#000"/><path d="M122.495 250.108c1.069 0 1.94-.918 1.94-2.045 0-1.126-.871-2.044-1.94-2.044s-1.94.918-1.94 2.044c0 1.127.871 2.045 1.94 2.045" fill="#000"/><path fill="#000" d="M125.586 247.368l-2.247-1.146-2.089 3.41 2.387 1.264 1.949-3.528"/><path d="M138.866 249.772c.984.093 1.783 1.083 1.783 2.213 0 1.13-.799 1.97-1.783 1.877-.985-.094-1.783-1.084-1.783-2.214s.798-1.97 1.783-1.876" fill="#424242"/><path d="M141.18 248.339c.985.092 1.784 1.083 1.784 2.213 0 1.129-.8 1.969-1.784 1.876-.985-.093-1.783-1.084-1.783-2.213 0-1.13.798-1.97 1.783-1.876" fill="#000"/><path fill="#424242" d="M142.441 251.949l-2.156-3.419-2.592 1.635 2.25 3.382 2.498-1.598M154.625 242.24c.985.093 1.783 1.084 1.783 2.213 0 1.13-.798 1.97-1.783 1.877-.985-.093-1.783-1.084-1.783-2.213 0-1.13.798-1.97 1.783-1.877"/><path d="M156.497 242.747c.984.093 1.783 1.083 1.783 2.213 0 1.13-.799 1.97-1.783 1.877-.985-.094-1.783-1.084-1.783-2.214 0-1.129.798-1.97 1.783-1.876" fill="#424242"/><path fill="#424242" d="M156.808 242.807l-2.183-.567-.417 3.998 1.882.506.718-3.937M145.384 238.156c.492.093.891 1.084.891 2.213 0 1.13-.4 1.97-.891 1.877-.493-.093-.892-1.084-.892-2.213 0-1.13.4-1.97.892-1.877M142.601 238.488c.493.093.891 1.084.891 2.213 0 1.13-.398 1.97-.89 1.877-.494-.094-.893-1.084-.893-2.213 0-1.13.4-1.97.892-1.877"/><path fill="#424242" d="M142.601 242.578l2.9-.328-.211-4.1-2.808.333.12 4.095M127.69 240.219c.493.093.892 1.084.892 2.213 0 1.13-.399 1.97-.891 1.877-.493-.093-.892-1.084-.892-2.214 0-1.129.399-1.969.892-1.876"/><path d="M124.908 240.55c.492.094.892 1.085.892 2.214 0 1.13-.4 1.97-.892 1.877-.492-.094-.892-1.085-.892-2.214s.4-1.97.892-1.876" fill="#000"/><path fill="#000" d="M124.908 244.64l2.9-.327-.211-4.1-2.809.334.12 4.094"/><path d="M137.734 218.712c10.934 0 19.852-2.4 19.852-5.343s-8.918-5.344-19.852-5.344c-10.935 0-19.853 2.4-19.853 5.344 0 2.943 8.918 5.343 19.853 5.343" fill="#424242"/><path fill="#5896CC" d="M122.808 216.694l24.01-7.402 4.738 15.321-24.01 7.402-4.738-15.321"/><path d="M131.467 211.845c.827 1.815 2.563 7.016 3.39 6.686.827-.33-.992-3.88-.083-4.045.91-.165 1.902 5.365 2.811 5.118.91-.248-1.405-4.953-.661-5.118.744-.165 2.563 5.118 3.307 4.87.744-.247-1.489-5.035-.91-5.117.579-.083 1.865 3.93 2.646 3.549.978-.476-1.49-5.91-3.886-8.007-2.396-2.098-6.614-1.65-6.614 2.064M132.94 148.966c1.72.26 4.836 2.14 5.486 3.371.65 1.232-.033-.13-1.072-.583-1.038-.454.942 1.004 1.17 2.3.226 1.297-.033.098-1.202-.647-1.168-.746-.747 1.121-.423 2.385.325 1.264-.085 3.15-.572 2.146-.487-1.005-5.757-7.157-3.387-8.972M125.37 150.297c-.668-.046-2.671 1.433-2.958 2.303-.286.869.414-.088.828-.176.412-.087-.668.97-.828 1.636-.159.666.605-.328.605.275s5.883-1.823 2.353-4.038M183.856 146.338c-7.03 1.337-11.146 20.43-7.908 24.319 0 0-2.292 1.892-.87 4.105.047.073 2.038 10.386 1.502 11.37-.534.983.286 1.64.602 3.22.316 1.579.345 3.49 1.14 3.49-.874 1.823-2.374 6.08-2.374 8.291 0 2.21-.316 4.422-.316 4.422l-.158 2.21s-3.638 5.054-6.168 8.686a523.81 523.81 0 0 0-6.042 8.819c-1.711 2.564-3.922 4.287-5.662 5.709-1.74 1.42-5.06 4.105-4.745 5.527.317 1.42 1.74 3.79 3.163 4.579 1.424.79 2.53-1.105 3.954-3.632 1.424-2.527 2.813-4.703 4.332-6.412 1.52-1.71 8.637-8.116 11.168-10.01 2.53-1.896 3.163-1.738 3.163-1.738s6.078 2.323 9.309 5.295c3.23 2.972 3.976 4.97 4.766 6.707.792 1.736.95 7.106 3.164 8.369 2.214 1.263 4.112.473 4.27-2.053.158-2.527-.633-3.633-2.056-5.527-1.424-1.895-.949-3.947-1.265-6-.317-2.054-1.56-1.194-2.825-2.457-1.265-1.264-2.078-3.702-3.343-5.281-1.265-1.58-3.48-3-3.48-3s.633-.948.791-2.212c.158-1.263-.158-3.158-.158-3.158s6.249 1.394 11.387-.631c7.651-3.016 9.52-8.567 5.535-17.844 0 0 1.74-.158 3.006-2.211 1.265-2.053-1.303-10.076-1.554-14.15-.252-4.075-2.009-8.587-3.827-9.773s-7.17-.013-9.23-2.229c.954.737 5.792-16.952-9.271-16.8" fill="#424242"/><path d="M189.392 213.608c10.017 0 18.187-2.199 18.187-4.895 0-2.696-8.17-4.895-18.187-4.895-10.018 0-18.188 2.199-18.188 4.895 0 2.696 8.17 4.895 18.188 4.895" fill="#424242"/><path d="M189.233 211.556c-.783 0-1.423.639-1.423 1.42v26.846c0 .781.64 1.42 1.423 1.42s1.424-.639 1.424-1.42v-26.845c0-.782-.64-1.421-1.424-1.421" fill="#424242"/><path d="M203.585 248.832c-.145-2.577.122-4.562-2.68-6.867-2.801-2.306-6.913-3.077-12.765-3.71-5.852-.63-15.843-.63-14.736 6.95m15.958-6.771c-.72-.975-5.316-4.898-5.784-1.886-.045.296-.09 3.468-.05 3.906m1.554 8.432c0-1.71-1.054-5.588 3.819-9.73m11.415 4.025c-.02-.377-.374-3.304-.497-3.721-.695-2.35-3.252-4.806-10.128-1.29" stroke="#424242" stroke-width="1.536"/><path d="M200.684 250.984c.978 0 1.777-.841 1.777-1.873s-.799-1.874-1.777-1.874c-.98 0-1.778.842-1.778 1.874s.798 1.873 1.778 1.873" fill="#424242"/><path d="M202.527 250.064c.979 0 1.778-.842 1.778-1.874s-.799-1.873-1.778-1.873c-.98 0-1.778.841-1.778 1.873s.799 1.874 1.778 1.874" fill="#000"/><path fill="#000" d="M199.695 247.553l2.058-1.05 1.914 3.125-2.187 1.158-1.785-3.233"/><path d="M187.529 249.756c-.903.085-1.634.993-1.634 2.027 0 1.035.731 1.805 1.634 1.72.902-.085 1.633-.993 1.633-2.028 0-1.035-.731-1.804-1.633-1.72" fill="#424242"/><path d="M185.408 248.442c-.902.086-1.633.994-1.633 2.028 0 1.035.73 1.804 1.633 1.72.902-.086 1.634-.993 1.634-2.028 0-1.035-.732-1.805-1.634-1.72" fill="#424242"/><path fill="#424242" d="M184.253 251.75l1.975-3.132 2.375 1.498-2.061 3.099-2.289-1.465M173.09 242.856c-.902.085-1.633.993-1.633 2.028 0 1.034.731 1.804 1.634 1.719.902-.086 1.633-.993 1.633-2.028 0-1.035-.731-1.805-1.633-1.72"/><path d="M171.376 243.32c-.902.085-1.634.992-1.634 2.027 0 1.035.732 1.805 1.634 1.72.902-.086 1.633-.994 1.633-2.028 0-1.035-.731-1.805-1.633-1.72" fill="#424242"/><path fill="#424242" d="M171.09 243.375l2-.52.383 3.663-1.724.464-.658-3.607M181.557 239.114c-.45.085-.816.993-.816 2.028 0 1.034.365 1.804.816 1.72.451-.086.817-.994.817-2.029 0-1.034-.366-1.804-.817-1.719M184.106 239.418c-.45.085-.816.993-.816 2.028 0 1.034.366 1.804.816 1.719.452-.085.818-.993.818-2.028 0-1.034-.366-1.804-.818-1.719"/><path fill="#424242" d="M184.106 243.165l-2.656-.3.193-3.757 2.573.306-.11 3.75M197.767 241.004c-.451.085-.817.993-.817 2.027 0 1.035.366 1.805.817 1.72.451-.086.817-.993.817-2.028 0-1.035-.366-1.805-.817-1.72"/><path d="M200.316 241.308c-.451.085-.817.993-.817 2.028 0 1.034.366 1.804.817 1.718.451-.085.817-.992.817-2.027 0-1.035-.366-1.805-.817-1.72" fill="#000"/><path fill="#424242" d="M200.316 245.054l-2.657-.3.194-3.756 2.572.305-.109 3.751"/><path d="M178.536 177.793l14.585.52-.575 10.378c-.404-.013-12.854-.42-14.356-.48l.346-10.418" fill="#5896CC"/><path d="M180.22 150.16c-6.376 8.03-4.712 18.931-4.268 20.437.34-1.506-1.146-12.152 4.268-20.437" fill="#FFF"/><path d="M169.638 193.1c2.702-5.875 8.836-4.878 8.836-4.878l.346-10.418s-6.134-.997-8.837 4.879l-.345 10.418" fill="#5896CC"/><path d="M181.801 193.634l5.918 1.084.048-4.913.491-1.944c.67-.446 1.461-.85 2.444-1.357 1.538-.792 2.132-1.09 1.24-1.386-.892-.297-1.884.346-2.38.594-.496.247.843-2.179-.05-2.228-.892-.05-1.735 3.416-1.636 2.475.1-.94.694-3.02 0-3.02s-1.19 3.02-1.934 3.02c-.743 0 .248-3.465-.842-3.465-1.092 0-.15 2.525-2.182 2.92-2.033.397-2.528-1.237-3.57-1.237-1.04 0-1.785.297-.842.792.7.368 1.62 1.065 2.27 1.784l.909 2.806v1.443l.116 2.632M85.892 149.404c-3.164-.19-5.016 1.446-5.795 3.227-.78 1.78-.959 4.317-.959 4.317-1.414.447-.802 4.588.714 4.985 0 0 .468 1.491.245 2.604-.223 1.113-.491 1.772-1.145 1.571-.654-.2-.906.955-2.062 1.808-1.157.854-2.314.904-3.823.904s-4.527 1.156-4.527 7.684c0 6.53 1.306 10.795 2.643 12.892 1.336 2.097 3.723 10.008 3.723 13.535 0 3.527 1.861 8.966 2.29 10.109.43 1.142.86 1.285 1.86 1 1.002-.286 3.435 6 7.87 6.143 4.436.143 10.016-.143 15.31.857 5.294 1 8.585 2.286 9.014 4.285.429 2 2.576 9.43 3.577 10.43s2.147 1.57 1.574 2.857c-.573 1.285-.859 2.856-.43 4.428.43 1.571-.858 3.429-1.716 5.429-.859 2-2.147 6.143 1.717 7 3.863.857 4.721.285 4.721.285s.143-1.57 2.433-.857c2.289.715 4.722 2.858 8.442 1.43 3.72-1.43 6.009-3.144 6.009-3.144s5.15.429 8.728-2.714c3.577-3.143 1.86-4.286-2.862-5.286-4.721-1-6.581.571-9.157 0-2.575-.572-2.003-1.714-4.15-3-2.145-1.286-2.86-2.143-3.576-4-.716-1.857-1.288-.572-.286-5.572 1.001-5 3.29-10.857 3.004-14.143-.286-3.286.286-6.285-4.865-7.857-5.15-1.571-15.452-4.143-16.883-4.572-1.43-.428.858-1.143-2.575-2.428-3.434-1.286-6.417-1.848-5.622-3.718 4.693-2.344 2.095-11.113-.535-10.495-.368-1.842-1.842-5.274-1.786-7.381.072-2.743-1.256-6.756-4.118-8-2.861-1.244-3.678-1.397-4.823-2.683-1.145-1.286-.859-2.58-.715-3.295.142-.714 2.575-2.286 3.004-3.572.43-1.285.814-2.205.904-2.517.998-.653 1.12-2.972.671-3.7-.045-1.249.847-8.434-6.043-8.846" fill="#424242"/><path d="M96.675 223.241c10.736 0 19.492-2.357 19.492-5.247 0-2.89-8.756-5.246-19.492-5.246s-19.493 2.357-19.493 5.246c0 2.89 8.757 5.247 19.493 5.247M66.81 188.315c-2.49.98-2.584 6.649-.21 12.662 2.373 6.014 6.315 10.094 8.805 9.114 2.49-.98 2.585-6.648.212-12.662-2.374-6.013-6.316-10.094-8.807-9.114" fill="#424242"/><path d="M66.81 188.315c-2.49.98-2.584 6.649-.21 12.662 2.373 6.014 6.315 10.094 8.805 9.114 2.49-.98 2.585-6.648.212-12.662-2.374-6.013-6.316-10.094-8.807-9.114z" stroke="#424242" stroke-width=".5"/><path d="M95.193 217.17c-.839 0-1.525.685-1.525 1.523v22.21c0 .838.686 1.524 1.525 1.524a1.53 1.53 0 0 0 1.526-1.524v-22.21c0-.838-.687-1.523-1.526-1.523" fill="#424242"/><path d="M78.777 250.86c.155-2.76-.131-4.888 2.872-7.359 3.002-2.47 7.41-3.298 13.68-3.974 6.273-.677 16.98-.677 15.793 7.446m-17.102-7.256c.772-1.044 5.698-5.25 6.198-2.02.05.316.098 3.716.054 4.185m-1.665 9.036c0-1.831 1.129-5.988-4.093-10.426m-12.234 4.313c.022-.404.4-3.54.533-3.988.745-2.52 3.485-5.151 10.855-1.382" stroke="#424242" stroke-width="1.536"/><path d="M81.887 253.167c1.049 0 1.905-.901 1.905-2.007s-.856-2.008-1.905-2.008c-1.05 0-1.905.902-1.905 2.008 0 1.106.856 2.007 1.905 2.007" fill="#000"/><path d="M79.91 252.181c1.05 0 1.906-.902 1.906-2.008 0-1.105-.856-2.007-1.905-2.007-1.05 0-1.905.902-1.905 2.007 0 1.106.856 2.008 1.905 2.008" fill="#424242"/><path fill="#424242" d="M82.946 249.49l-2.206-1.125-2.051 3.349 2.343 1.24 1.914-3.464M95.985 251.85c.967.092 1.75 1.065 1.75 2.174s-.783 1.934-1.75 1.843c-.967-.092-1.751-1.065-1.751-2.174 0-1.108.784-1.933 1.75-1.842"/><path d="M98.258 250.444c.967.091 1.75 1.064 1.75 2.172 0 1.11-.783 1.935-1.75 1.843-.967-.091-1.751-1.064-1.751-2.173s.784-1.934 1.75-1.842" fill="#424242"/><path fill="#424242" d="M99.496 253.988l-2.118-3.356-2.544 1.605 2.209 3.322 2.453-1.57M111.458 244.456c.967.091 1.75 1.065 1.75 2.173 0 1.109-.783 1.934-1.75 1.843-.966-.091-1.75-1.065-1.75-2.173 0-1.11.784-1.934 1.75-1.843"/><path d="M113.296 244.953c.967.091 1.75 1.064 1.75 2.173 0 1.11-.783 1.934-1.75 1.843-.967-.092-1.75-1.065-1.75-2.174 0-1.108.783-1.933 1.75-1.842" fill="#424242"/><path fill="#424242" d="M113.602 245.012l-2.144-.556-.41 3.925 1.848.497.706-3.866M102.384 240.446c.484.091.876 1.064.876 2.173 0 1.11-.392 1.934-.876 1.842-.483-.09-.875-1.064-.875-2.173 0-1.108.392-1.933.875-1.842M99.652 240.772c.484.091.876 1.064.876 2.173s-.392 1.933-.876 1.842c-.483-.091-.875-1.064-.875-2.173s.392-1.934.875-1.842"/><path fill="#424242" d="M99.652 244.787l2.848-.32-.208-4.027-2.757.327.117 4.02M85.012 242.471c.484.092.876 1.065.876 2.173 0 1.11-.392 1.934-.876 1.843-.483-.091-.875-1.064-.875-2.173 0-1.11.392-1.934.875-1.843"/><path d="M82.28 242.797c.484.091.876 1.065.876 2.173 0 1.109-.392 1.934-.876 1.843-.483-.092-.875-1.064-.875-2.173 0-1.11.392-1.934.875-1.843" fill="#000"/><path fill="#424242" d="M82.28 246.813l2.847-.322-.207-4.026-2.757.328.117 4.02"/><path fill="#5896CC" d="M98.19 199.97L80.03 184.776l-9.725 11.59 18.16 15.193 9.726-11.59"/><path d="M92.438 192.595c-1.384 1.277-4.796 5.164-5.394 4.575-.598-.588 2.282-3.01 1.552-3.485-.73-.476-3.616 3.97-4.316 3.423-.7-.548 3.034-3.793 2.448-4.207-.586-.416-4.1 3.512-4.656 3.026-.557-.487 3.136-3.834 2.663-4.117-.473-.283-3.06 2.735-3.599 2.12-.676-.77 3.458-4.592 6.308-5.542 2.85-.949 6.353.978 4.994 4.207M93.61 159.448c-3.676-.067-12.278-2.549-13.242-5.89-.964-3.342 2.77-4.847 3.806-4.329.997-1.127 9.968-1.326 9.436 10.219" fill="#424242"/><path fill="#424242" d="M60.518 199.589H215.23v-4.325H60.518z"/><path d="M137.874 199.3c42.606 0 77.356-1.813 77.356-4.036s-34.75-4.036-77.356-4.036c-42.606 0-77.356 1.813-77.356 4.036s34.75 4.037 77.356 4.037" fill="#424242"/><path d="M137.874 203.625c42.606 0 77.356-1.813 77.356-4.036s-34.75-4.037-77.356-4.037c-42.606 0-77.356 1.814-77.356 4.037s34.75 4.036 77.356 4.036" fill="#424242"/><path d="M28.994 157.504c-.954-.596-4.028-4.018-8.877-2.462-8.863 2.844-5.587 12.022-1.8 16.798-2.112 5.076-6.263 3.77-8.425 5.928-2.387 2.385.717 12.16 2.866 13.59 2.15 1.43 3.343 2.383 3.343 2.383s4.178 3.935 5.372 7.272 2.507 11.205 3.343 14.304c.836 3.1 3.462 4.41 11.342 4.41 7.88 0 17.072-1.31 21.25-3.814 4.18-2.503 4.657-2.622 4.657-2.622s-.477 4.649-.836 7.986c-.358 3.338-.588 7.436-.459 9.883.129 2.447.258 6.182-.774 6.182s-2.58-.772-3.741 1.03c-1.161 1.804-2.064 13.654-2.064 13.654l1.935.258 1.032-8.63s2.322 3.22 2.709 5.281c.387 2.061.774 5.925 4.515 5.796 3.742-.128 5.547 0 6.192-1.674.645-1.674 1.162-2.19-1.032-2.834-2.193-.644-2.838-2.318-2.838-4.38 0-2.06-.645-3.734-.645-7.084 0-3.348.258-5.41 1.29-10.433s1.806-5.667 1.806-5.667 3.097 6.311 4.387 8.759c1.29 2.447 1.676 5.152 1.676 5.152s-3.612 4.122-3.354 5.41c.258 1.288 1.42 9.789 1.42 9.789h1.29s-.775-6.183-.258-7.471c.516-1.288 2.322.902 3.482 2.576 1.162 1.675 1.678 6.312 4.128 6.57 2.452.257 5.935.772 7.096-.645 1.161-1.416.774-2.19-1.419-3.22-2.193-1.03-3.225-4.122-4.128-6.955-.903-2.834-3.741-7.471-4.257-10.82-.516-3.349-2.968-19.063-3.742-22.413-.774-3.348-1.934-6.826-6.45-6.826-4.515 0-3.225-.129-3.225-.129l1.161-1.03 1.42-.13 4.127-19.45-9.417-.128-4.516 20.48-16.77 3.22s-.387-2.833-1.677-5.924c-1.29-3.092-2.71-5.281-2.71-7.6s2.323-5.925-2.063-7.986c-4.387-2.061-4.902-3.735-5.806-5.152-.902-1.417-1.676-1.933-2.58-1.933-.903 0-3.674-.815-3.674-.815s-.85-.686-.205-1.405c.644-.72 2.589 1.19 3.234.675.645-.515.554-1.544.554-1.544s.776 0 .647-.644.953.031.572-1.137c-.162-.498.546-.674 1.186-.608.64.066.787-.418.66-1.48-.124-1.06.098-2.254 1-3.284.904-1.03.786-5.098.117-6.693-.67-1.595-.97-1.545-2.067-2.364" fill="#414141"/><path d="M37.027 188.719c1.636 1.735 6.443 5.615 8.079 7.35 1.636 1.736 3.68 4.697 4.908 3.88 1.227-.817 3.272-2.756 3.885-2.144.613.613.511.92 1.33.817.818-.102.92.817 1.635 1.634.716.816.619.893.023.926-.595.033-1.059-.265-1.257-.66-.199-.397-.53 0-.96-.133-.43-.132-.264.43.067.76.33.33 1.157 1.288.364 1.288-.794 0-1.29-.462-1.489-.627-.198-.165-.53.099-1.124.627-.596.529-1.754 1.619-2.813 1.75-1.059.133-2.084.067-3.043-1.155-.96-1.222-2.779-2.907-4.07-4.03-1.29-1.123-5.358-3.567-6.847-4.327-1.489-.76-.927-7.828 1.312-5.956" fill="#424242"/><path d="M37.027 188.719c1.636 1.735 6.443 5.615 8.079 7.35 1.636 1.736 3.68 4.697 4.908 3.88 1.227-.817 3.272-2.756 3.885-2.144.613.613.511.92 1.33.817.818-.102.92.817 1.635 1.634.716.816.619.893.023.926-.595.033-1.059-.265-1.257-.66-.199-.397-.53 0-.96-.133-.43-.132-.264.43.067.76.33.33 1.157 1.288.364 1.288-.794 0-1.29-.462-1.489-.627-.198-.165-.53.099-1.124.627-.596.529-1.754 1.619-2.813 1.75-1.059.133-2.084.067-3.043-1.155-.96-1.222-2.779-2.907-4.07-4.03-1.29-1.123-5.358-3.567-6.847-4.327-1.489-.76-.927-7.828 1.312-5.956z"/><path d="M65.773 202.44l.005-.001h.003l.007-.001h.003l.002-.001h.008l1.161-1.031 1.42-.13 4.127-19.45-9.417-.128-4.516 20.48-16.77 3.22-4.108.903 2.82 1.375 19.345-3.47s-.196-.328 1.05-.851c1.182-.498 4.522-.878 4.86-.916" fill="#5896CC"/><path d="M45.312 225.223c10.184 0 18.491-2.236 18.491-4.977s-8.307-4.977-18.491-4.977-18.49 2.236-18.49 4.977 8.306 4.977 18.49 4.977M18.486 191.62c-2.47.586-3.32 5.897-1.9 11.862s4.574 10.325 7.044 9.739c2.47-.587 3.322-5.898 1.901-11.863-1.42-5.965-4.574-10.325-7.045-9.739" fill="#424242"/><path d="M18.486 191.62c-2.47.586-3.32 5.897-1.9 11.862s4.574 10.325 7.044 9.739c2.47-.587 3.322-5.898 1.901-11.863-1.42-5.965-4.574-10.325-7.045-9.739z"/><path d="M43.907 219.464a1.45 1.45 0 0 0-1.448 1.444v21.07a1.45 1.45 0 0 0 1.447 1.445 1.45 1.45 0 0 0 1.448-1.445v-21.07a1.45 1.45 0 0 0-1.447-1.444" fill="#424242"/><path d="M58.574 251.424c-.148-2.62.124-4.638-2.725-6.981-2.848-2.345-7.028-3.129-12.978-3.77-5.949-.643-16.106-.643-14.98 7.063m16.222-6.884c-.731-.99-5.404-4.98-5.879-1.916-.046.3-.092 3.525-.05 3.97m1.579 8.573c0-1.738-1.071-5.681 3.882-9.892m11.605 4.092c-.02-.383-.38-3.359-.505-3.783-.706-2.39-3.306-4.887-10.297-1.311" stroke="#424242" stroke-width="1.536"/><path d="M55.624 253.612c.996 0 1.807-.855 1.807-1.905 0-1.049-.811-1.904-1.807-1.904-.996 0-1.807.855-1.807 1.904 0 1.05.811 1.905 1.807 1.905" fill="#424242"/><path d="M57.498 252.677c.995 0 1.808-.856 1.808-1.905 0-1.05-.813-1.905-1.808-1.905-.995 0-1.807.856-1.807 1.905s.812 1.905 1.807 1.905" fill="#424242"/><path fill="#424242" d="M54.62 250.124l2.091-1.067 1.947 3.176-2.224 1.177-1.815-3.286M42.25 252.364c-.917.085-1.66 1.009-1.66 2.06 0 1.053.743 1.835 1.66 1.748.917-.086 1.66-1.01 1.66-2.06 0-1.053-.743-1.836-1.66-1.748"/><path d="M40.094 251.028c-.917.087-1.66 1.01-1.66 2.062 0 1.052.743 1.834 1.66 1.747.917-.086 1.661-1.009 1.661-2.06 0-1.053-.744-1.836-1.661-1.749" fill="#424242"/><path fill="#424242" d="M38.92 254.39l2.008-3.183 2.414 1.523-2.096 3.15-2.326-1.49M27.572 245.348c-.918.087-1.662 1.01-1.662 2.061 0 1.053.744 1.835 1.662 1.748.917-.086 1.66-1.009 1.66-2.06 0-1.053-.743-1.836-1.66-1.749"/><path d="M25.828 245.82c-.917.086-1.66 1.009-1.66 2.06 0 1.053.743 1.836 1.66 1.749.917-.087 1.66-1.01 1.66-2.061 0-1.052-.743-1.835-1.66-1.748" fill="#424242"/><path fill="#424242" d="M25.538 245.876l2.034-.528.388 3.723-1.752.472-.67-3.667M36.179 241.544c-.459.087-.83 1.01-.83 2.062 0 1.051.371 1.834.83 1.748.459-.087.83-1.01.83-2.062 0-1.052-.371-1.834-.83-1.748M38.771 241.853c-.459.087-.83 1.01-.83 2.061 0 1.052.371 1.835.83 1.748.459-.086.83-1.01.83-2.061 0-1.052-.371-1.835-.83-1.748"/><path fill="#424242" d="M38.771 245.662l-2.701-.304.197-3.82 2.615.311-.11 3.813M52.658 243.465c-.458.087-.83 1.01-.83 2.062 0 1.052.372 1.834.83 1.748.46-.087.831-1.01.831-2.062 0-1.051-.372-1.834-.83-1.748M55.25 243.774c-.458.087-.83 1.01-.83 2.062 0 1.052.372 1.834.83 1.748.459-.087.83-1.01.83-2.061 0-1.053-.371-1.835-.83-1.749"/><path fill="#424242" d="M55.25 247.584l-2.7-.305.196-3.82 2.616.311-.112 3.814M29.993 194.264c2.16 1.014 8.057 2.862 10.217 3.876 2.16 1.014 5.15 3.02 5.992 1.81.84-1.21 2.03-3.764 2.826-3.419.796.345.813.667 1.536.272.724-.394 1.157.422 2.123.92.966.497.904.605.361.854-.541.248-1.082.142-1.412-.154-.33-.296-.492.194-.94.229-.45.034-.089.496.34.682.43.186 1.55.774.812 1.065-.738.291-1.37.043-1.615-.038-.245-.081-.456.286-.815.996-.36.71-1.036 2.148-1.973 2.66-.936.51-1.914.824-3.255.04-1.342-.786-3.654-1.686-5.267-2.257-1.613-.572-6.297-1.354-7.961-1.515-1.664-.16-3.74-6.942-.97-6.021"/><path d="M29.993 194.264c2.16 1.014 8.057 2.862 10.217 3.876 2.16 1.014 5.15 3.02 5.992 1.81.84-1.21 2.03-3.764 2.826-3.419.796.345.813.667 1.536.272.724-.394 1.157.422 2.123.92.966.497.904.605.361.854-.541.248-1.082.142-1.412-.154-.33-.296-.492.194-.94.229-.45.034-.089.496.34.682.43.186 1.55.774.812 1.065-.738.291-1.37.043-1.615-.038-.245-.081-.456.286-.815.996-.36.71-1.036 2.148-1.973 2.66-.936.51-1.914.824-3.255.04-1.342-.786-3.654-1.686-5.267-2.257-1.613-.572-6.297-1.354-7.961-1.515-1.664-.16-3.74-6.942-.97-6.021z"/><path d="M29.599 158.346c1.893 0 4.88 2.983 3.514 7.096-1.12 3.371-7.569 2.103-7.688 1.935-.98-1.368.193-10.334 4.174-9.03M21.921 155.51c0-1.524-4.073-4.066-7.127-2.117-3.054 1.949-5.268 4.894-2.97 11.098 3.212 8.668.487 10.779-.924 10.515-1.44-.27-1.226.461-.302 1.487.925 1.025 3.093 1.468 4.875.282s5.09-7.794 5.09-10.505c0-2.71-1.187-9.15 1.358-10.76M256.183 152.856c-.627-.369-.811-.553-.775 0 .037.553-.627.48-1.107.258-.48-.221-.517.037-.517.405 0 .368-.996.516-1.439.442-.443-.074-.369.406-.405.663-.038.259-.517.811-1.33.738-.811-.074-.664.442-.294.7.369.257.221 1.142.48 1.142.258 0-.702 2.469-.997 3.058-.295.59.11 1.584-.258 2.284-.37.7-.185 3.648.221 5.085.406 1.437.701 2.727 1.402 3.132.702.405 1.07.442.96 1.327-.11.884-.701 1.842-.701 1.842s-2.473 1.363-2.583 1.658c-.111.295-3.768 2.812-4.944 4.454-1.174 1.643-2.49 3.99-2.49 3.99s-.658-.377-1.081.14c-.423.516-.283-.14-.893.234-.611.376-.658.563-1.176.75-.516.189-.516.94-1.08.893-.565-.047-.847.234-.847.234s-1.504-.516-2.585 0c-1.08.517-2.068 3.05-2.585 4.083-.517 1.032.517 4.036 1.082 4.364.564.329 1.221 1.314 1.221 1.314s-2.103 2.924-3.875 4.123c-1.772 1.198-3.316 2.74-6.575 2.454-3.258-.285-11.49-2.568-13.548-2.968-2.058-.4-6.288-.457-7.774 3.254-1.487 3.71-4.86 8.906-7.092 12.325-2.233 3.417-2.456 4.903-3.498 6.24-1.042 1.338-1.414 2.303-.818 2.75.595.445-.894 1.485-4.168 2.229-3.274.742-6.697.742-7.44.668-.745-.074-1.638 1.56-.522 2.526 1.116.966 6.92 3.938 8.781 3.79 1.86-.15 2.753-1.338 4.465-.446 1.711.891 4.316 1.04 5.58.817 1.266-.223 1.34-1.114 1.49-2.526.148-1.412.074-2.23.074-2.23s.892-.297 1.339-.668c.446-.371-.223 8.247-.447 10.773-.223 2.526-1.413 8.62-.52 8.693.893.074 1.562-.297.297 1.338-1.265 1.634-3.2 2.675-4.688 2.675-1.488 0-3.795 0-3.795.891 0 .892 1.712 2.155 5.507 2.303 3.795.149 5.507-.371 6.4-.743.892-.37 2.306-.074 2.827.595.52.668 5.06.297 5.655 0 .595-.297.819-2.23.521-3.27-.297-1.04-1.637-4.309-1.563-5.572.075-1.263-.149-10.773.075-12.78.223-2.005.298-6.91.074-8.544-.223-1.634-.893-2.971.224-2.971 1.116 0 1.562.148 3.274-.446 1.711-.595 5.283-2.75 10.046-1.932 4.762.817 14.697 1.954 17.44.639 2.744-1.315 2.744-3.944 4.5-5.478 1.755-1.534 1.426-1.862 2.743-2.958 1.316-1.096 3.291-6.903 5.376-10.737 2.085-3.835 5.158-9.204 6.804-11.504 1.646-2.301 2.963-3.397 2.963-5.917s-1.317-6.135-1.317-8.436c0-2.3.11-4.382-.439-4.382-.548 0-.658-1.315.439-2.85 1.097-1.533 1.755-5.039 1.975-6.902.22-1.862-.004-3.027-1.123-4.517-1.119-1.489-4.195-3.102-4.661-3.413-.466-.31-.994-.837-.994-.465 0 .372-.404.528-1.29.382" fill="#424242"/><path d="M229.378 224.052c10.184 0 18.49-2.236 18.49-4.977 0-2.74-8.306-4.977-18.49-4.977-10.185 0-18.491 2.236-18.491 4.977s8.306 4.977 18.49 4.977M257.708 190.92c2.362.93 2.452 6.307.2 12.012-2.25 5.704-5.991 9.575-8.353 8.646-2.363-.93-2.452-6.307-.201-12.012 2.252-5.704 5.992-9.575 8.354-8.646" fill="#424242"/><path d="M257.708 190.92c2.362.93 2.452 6.307.2 12.012-2.25 5.704-5.991 9.575-8.353 8.646-2.363-.93-2.452-6.307-.201-12.012 2.252-5.704 5.992-9.575 8.354-8.646z" stroke="#424242" stroke-width=".5"/><path d="M230.783 218.293c.796 0 1.447.65 1.447 1.444v21.07a1.45 1.45 0 0 1-1.446 1.445 1.45 1.45 0 0 1-1.448-1.445v-21.07c0-.794.651-1.444 1.447-1.444" fill="#424242"/><path d="M246.356 250.252c-.147-2.618.124-4.637-2.724-6.98-2.848-2.344-7.029-3.129-12.978-3.77-5.95-.644-16.107-.644-14.981 7.063m16.223-6.884c-.732-.99-5.404-4.98-5.88-1.916-.046.3-.092 3.525-.05 3.97m1.579 8.573c0-1.738-1.07-5.68 3.882-9.892m11.606 4.092c-.02-.383-.38-3.358-.505-3.783-.707-2.39-3.306-4.886-10.298-1.311" stroke="#424242" stroke-width="1.536"/><path d="M243.406 252.441c.996 0 1.808-.856 1.808-1.905s-.812-1.904-1.808-1.904c-.995 0-1.807.855-1.807 1.904 0 1.05.812 1.905 1.807 1.905" fill="#424242"/><path d="M245.28 251.505c.996 0 1.808-.855 1.808-1.904 0-1.05-.812-1.905-1.808-1.905-.995 0-1.806.856-1.806 1.905s.811 1.904 1.806 1.904" fill="#424242"/><path fill="#424242" d="M242.402 248.953l2.092-1.067 1.946 3.176-2.224 1.177-1.814-3.286M230.032 251.192c-.917.087-1.66 1.01-1.66 2.061 0 1.053.743 1.835 1.66 1.748.918-.086 1.661-1.009 1.661-2.061s-.743-1.835-1.66-1.748"/><path d="M227.876 249.857c-.917.087-1.66 1.01-1.66 2.061 0 1.052.743 1.835 1.66 1.748.918-.086 1.661-1.01 1.661-2.06 0-1.053-.743-1.836-1.66-1.749" fill="#424242"/><path fill="#424242" d="M226.702 253.22l2.008-3.184 2.414 1.522-2.096 3.151-2.326-1.49M215.354 244.177c-.917.087-1.661 1.01-1.661 2.062 0 1.051.744 1.834 1.661 1.748.917-.087 1.66-1.01 1.66-2.061 0-1.052-.743-1.835-1.66-1.749"/><path d="M213.61 244.649c-.917.086-1.66 1.01-1.66 2.06 0 1.053.743 1.835 1.66 1.749.918-.086 1.661-1.01 1.661-2.062 0-1.052-.743-1.834-1.66-1.747" fill="#424242"/><path fill="#424242" d="M213.32 244.705l2.034-.528.388 3.724-1.752.471-.67-3.667M223.962 240.373c-.459.087-.83 1.01-.83 2.062 0 1.052.371 1.834.83 1.747.458-.086.83-1.009.83-2.061s-.372-1.834-.83-1.748M226.553 240.682c-.459.087-.83 1.01-.83 2.062 0 1.052.371 1.834.83 1.747.459-.086.83-1.01.83-2.06 0-1.053-.371-1.835-.83-1.749"/><path fill="#424242" d="M226.553 244.491l-2.7-.304.196-3.82 2.615.311-.11 3.813M240.441 242.295c-.459.086-.83 1.009-.83 2.061s.371 1.835.83 1.748c.459-.087.83-1.01.83-2.062 0-1.052-.371-1.834-.83-1.747M243.033 242.603c-.459.087-.83 1.01-.83 2.062 0 1.052.371 1.834.83 1.748.459-.087.83-1.01.83-2.062 0-1.052-.371-1.834-.83-1.748"/><path fill="#424242" d="M243.033 246.412l-2.701-.304.196-3.82 2.616.311-.111 3.813M234.028 180.65c.334-.602 1.87-4.22 1.05-4.072-.819.147-2.55 4.073-1.05 4.073"/><path fill="#5896CC" d="M219.984 184.446l20.708-8.727-5.586-13.214-20.708 8.727 5.586 13.214"/><path d="M228.709 182.79c-.48-1.718-2.289-6.276-1.533-6.525.757-.249 1.558 3.226 2.276 2.817.718-.41-1.578-4.873-.813-5.226.765-.353 1.68 4.305 2.285 3.991.604-.315-.77-5.19-.118-5.447.652-.258 1.22 5.071 2.035 4.663.815-.409.1-4.186.853-4.375.944-.236.873 4.267.389 7.636-.485 3.37-3.233 5.01-5.374 2.467" fill="#424242"/><path d="M231.25 192.657c-.23-1.62-.863-6.052-1.702-7.96-.839-1.906-.423-.757-.786-1.845-.364-1.089 5.63-3.86 5.128-1.631-.5 2.227-1.193 4.815.822 4.84 2.016.024 1.795 8.446-3.461 6.596" fill="#424242"/><path d="M231.538 193.54c-.287-.883-2.517-5.734-1.206-6.2 1.31-.466 2.352-1.145 3.33-1.866.976-.72 1.363.495 2.668.811 1.304.317-1.202 5.756-4.792 7.256M81.22 195.264c.905 0 1.644.74 1.644 1.643v57.903c0 .903-.74 1.642-1.644 1.642a1.648 1.648 0 0 1-1.645-1.642v-57.903c0-.904.74-1.643 1.645-1.643M194.528 195.264c.905 0 1.645.74 1.645 1.643v57.903c0 .903-.74 1.642-1.645 1.642a1.648 1.648 0 0 1-1.644-1.642v-57.903c0-.904.74-1.643 1.644-1.643" fill="#424242"/><path d="M165.078 122.114l-23.584 25.15 9.622-25.936c-26.66-3.835-46.736-20.633-46.736-40.776 0-22.974 26.115-41.598 58.329-41.598s58.329 18.624 58.329 41.598c0 22.408-24.845 40.675-55.96 41.562" fill="#5896CC"/><path d="M43.84 66.995c24 0 43.454 13.875 43.454 30.99 0 16.694-18.508 30.303-41.688 30.964l-17.57 18.737 7.168-19.323C15.342 125.507.386 112.992.386 97.986c0-17.116 19.456-30.991 43.454-30.991" fill="#4FC56E"/><path d="M92.439 106.157l20.083 21.418-8.194-22.087c22.703-3.266 39.798-17.57 39.798-34.724 0-19.564-22.238-35.424-49.67-35.424-27.432 0-49.67 15.86-49.67 35.424 0 19.083 21.156 34.638 47.653 35.393" fill="#845BE6"/><path d="M113.925 103.36c-6.033-6.55-9.545-14.386-9.545-22.808 0-14.35 10.188-27.002 25.687-34.48 8.7 6.381 14.06 15.09 14.06 24.692 0 14.636-12.447 27.196-30.202 32.597" fill="#6E78D9"/><path d="M210.892 119.611l-17.77 18.95 7.25-19.542c-20.088-2.89-35.214-15.546-35.214-30.723 0-17.311 19.676-31.344 43.949-31.344 24.272 0 43.949 14.033 43.949 31.344 0 16.883-18.72 30.647-42.164 31.315" fill="#FEF466"/><path d="M210.767 56.976c6.475 6.701 10.27 14.822 10.27 23.576 0 15.623-12.079 29.231-29.937 36.34-15.293-4.904-25.942-15.862-25.942-28.596 0-17.311 19.676-31.344 43.949-31.344.556 0 1.109.01 1.66.024" fill="#ABC599"/><path d="M242.734 135.418l11.242 11.99-4.586-12.365c12.709-1.828 22.28-9.836 22.28-19.438 0-10.952-12.45-19.83-27.807-19.83-15.356 0-27.805 8.878-27.805 19.83 0 10.682 11.843 19.39 26.676 19.813" fill="#FF6A6F"/><path d="M251.519 96.536c-2.432-.496-5-.762-7.656-.762-15.356 0-27.805 8.879-27.805 19.83 0 1.226.157 2.424.455 3.588 16.93-2.05 30.564-11.002 35.006-22.656" fill="#FFAF6A"/><path d="M53.746 79.848l11.243 11.99-4.587-12.365c12.709-1.828 22.28-9.835 22.28-19.438 0-10.952-12.45-19.83-27.807-19.83-15.356 0-27.805 8.878-27.805 19.83 0 10.682 11.843 19.39 26.676 19.813" fill="#BCEBF8"/><path d="M65.841 41.808C53.104 48.22 44.786 58.799 44.786 70.764c0 2.783.453 5.49 1.304 8.088 2.42.575 4.99.92 7.656.996l11.243 11.99-4.587-12.365c12.709-1.828 22.28-9.835 22.28-19.438 0-8.175-6.937-15.193-16.84-18.227" fill="#A0A3EF"/><path d="M43.84 66.995c11.247 0 21.496 3.047 29.212 8.047-3.547 2.187-7.877 3.745-12.65 4.431l4.587 12.365-11.243-11.99c-10.55-.3-19.584-4.792-23.924-11.204 4.398-1.07 9.113-1.65 14.018-1.65" fill="#86D8B3"/><path d="M45.062 67.007c10.766.212 20.554 3.217 27.99 8.035h-.002l-.04.026c-.13.08-.26.157-.391.235l-.05.03c-.135.08-.272.158-.41.237l-.051.028c-.139.079-.279.156-.42.232l-.046.025c-.136.074-.275.148-.414.22l-.047.024c-.143.074-.287.147-.431.219l-.058.028c-.146.073-.294.144-.442.214l-.012.006-.014.006c-.155.074-.31.146-.468.217l-.019.009c-.154.07-.31.138-.466.206l-.055.023c-.155.067-.31.133-.467.197l-.01.005-.016.006c-.16.066-.322.13-.485.194l-.024.01c-.162.063-.325.125-.49.186l-.042.015c-.164.062-.33.121-.495.18l-.01.003-.005.002c-.167.06-.336.117-.504.174l-.04.013c-.167.055-.334.11-.502.162l-.05.016c-.168.053-.338.105-.51.156l-.006.003h-.003c-.176.053-.353.103-.53.153l-.031.009c-.175.048-.35.096-.528.142l-.04.01c-.177.047-.356.092-.535.136l-.005.001-.007.002c-.182.045-.365.087-.549.13l-.021.004-.545.119-.044.01-.54.108-.012.003h-.002l-.016.003c-.18.035-.36.068-.54.1l-.048.008c-.185.033-.372.064-.558.095l-.024.003c-.192.031-.386.06-.58.088l4.587 12.365-11.243-11.99c-.164-.005-.328-.01-.492-.017h-.007a38.992 38.992 0 0 1-.485-.024h-.011l-.441-.026-.071-.005-.418-.03-.057-.005c-.135-.01-.27-.022-.405-.034l-.118-.011a95.775 95.775 0 0 1-.353-.034l-.153-.017-.299-.032-.221-.027-.029-.003-.12-.015-.026-.003a29.214 29.214 0 0 1-.334-.044l-.12-.016a36.965 36.965 0 0 1-3.496-.653 25.893 25.893 0 0 1-1.304-8.088c0-1.269.094-2.522.276-3.757" fill="#93BED1"/><path d="M128.712 58.243l-8.544 9.112 3.486-9.397c-9.66-1.39-16.933-7.476-16.933-14.774 0-8.324 9.461-15.072 21.133-15.072 11.672 0 21.134 6.748 21.134 15.072 0 8.119-9.002 14.737-20.276 15.059" fill="#EB8D8E"/><path d="M115.98 55.653c7.924-7.553 19.365-13.117 32.589-15.466.274.969.419 1.97.419 2.997 0 8.119-9.002 14.737-20.276 15.059l-8.544 9.112 3.486-9.397c-2.798-.403-5.396-1.2-7.674-2.305" fill="#A192AD"/><path d="M139.47 55.775c-5.95-9.072-17.13-16.048-30.777-18.955-1.265 1.933-1.972 4.09-1.972 6.364 0 7.298 7.273 13.385 16.933 14.774l-3.486 9.397 8.544-9.112c3.965-.114 7.648-1.006 10.758-2.468" fill="#B774BA"/><path d="M139.47 55.775c-2.366-3.606-5.558-6.88-9.402-9.7-5.413 2.61-10.179 5.852-14.088 9.578l.034.016c.096.046.192.092.288.136l.109.05c.102.048.205.095.309.14l.046.02c.1.045.203.09.305.133l.111.046.002.001c.096.04.192.08.289.118l.104.042.254.1.17.065.199.073.216.079.181.064.217.074.177.059.254.083.15.047.274.084.127.038.315.09.093.026c.105.03.21.058.316.085l.103.028.345.087.078.019.352.083.067.015c.132.03.265.06.398.087l.02.004c.137.029.273.056.41.083l.034.006c.138.027.277.053.416.078l.012.002.015.002c.142.025.285.05.428.072l.01.002.446.068-3.486 9.397 8.544-9.112c.172-.005.344-.012.514-.02h.021c.167-.008.333-.018.5-.028l.028-.002c.167-.01.333-.023.5-.036l.015-.002c.163-.013.326-.028.488-.043l.04-.004c.16-.017.32-.034.479-.053l.034-.004c.157-.018.314-.038.47-.059l.043-.006c.145-.02.29-.04.433-.062l.082-.013c.138-.021.275-.044.413-.067l.084-.014c.137-.024.275-.049.412-.075l.094-.018c.13-.025.26-.05.388-.077l.116-.025c.119-.025.238-.05.356-.077l.142-.032c.108-.025.214-.05.32-.077l.178-.044.292-.074.189-.05.27-.075.22-.063.239-.071.242-.074.177-.056.297-.097.162-.055.33-.115.093-.033.289-.106.155-.059.01-.004c.1-.038.198-.076.297-.116l.153-.061c.101-.041.201-.082.301-.125l.008-.003c.148-.062.294-.125.44-.19l.008-.004c.146-.065.292-.131.436-.2" fill="#AC83B4"/><path d="M227.429 147.252l-7.227 7.709 2.948-7.95c-8.17-1.175-14.324-6.323-14.324-12.496 0-7.042 8.004-12.75 17.877-12.75s17.877 5.708 17.877 12.75c0 6.867-7.615 12.465-17.151 12.737" fill="#90DE54"/><path d="M218.224 123.288c2.523-.97 5.41-1.523 8.48-1.523 9.872 0 17.876 5.708 17.876 12.75 0 .856-.12 1.694-.345 2.503l-1.501-1.6c-11.05-.315-20.439-5.229-24.51-12.13" fill="#C8A461"/><path d="M72.109 135.908l8.416 8.975-3.433-9.255c9.513-1.369 16.676-7.363 16.676-14.55 0-8.199-9.318-14.845-20.813-14.845-11.496 0-20.814 6.646-20.814 14.844 0 7.996 8.865 14.514 19.968 14.831" fill="#FCC663"/><path d="M84.59 108.767c-3.322-1.6-7.326-2.534-11.635-2.534-11.496 0-20.814 6.646-20.814 14.844 0 2.51.873 4.873 2.415 6.945 13.887-2.512 25.108-9.792 30.034-19.255" fill="#A6C668"/></g></svg>