<svg width="269" height="221" viewBox="0 0 269 221" xmlns="http://www.w3.org/2000/svg"><title>Icons</title><g fill="none" fill-rule="evenodd"><path fill="#F8CC99" d="M239.729 165.621l-28.319 20.46v34.484h56.636v-34.484l-28.317-20.46"/><path fill="#FFF" d="M216.23 206.48h46.998v-49.019H216.23z"/><path fill="#E77F61" d="M221.9 183.974h17.071v-17.071H221.9z"/><path d="M231.945 176.224c-.429.622-1.184 1.332-2.189 1.332-.962 0-1.509-.696-1.509-1.643 0-1.436 1.125-2.826 2.603-2.826.873 0 1.362.622 1.524 1.081l-.429 2.056zm-.903-6.021c-3.077 0-5.873 2.632-5.873 5.83 0 2.617 1.996 4.644 4.689 4.644 1.095 0 2.161-.34 3.079-.932l-.268-.385c-.798.503-1.701.829-2.75.829-2.456 0-4.233-1.82-4.233-4.187 0-2.766 2.441-5.297 5.312-5.297 2.515 0 4.187 1.761 4.187 4.187 0 2.043-1.035 2.693-1.612 2.693-.386 0-.696-.28-.696-.77l.03-.309.842-4.011h-1.005l-.192.918c-.282-.637-.933-1.155-1.894-1.155-1.746 0-3.478 1.658-3.478 3.714 0 1.436.888 2.412 2.265 2.412.946 0 1.834-.562 2.353-1.302v.103c.044.621.517 1.199 1.345 1.199 1.244 0 2.559-1.184 2.559-3.492 0-2.589-1.863-4.689-4.66-4.689z" fill="#FFF"/><path fill="#D0CEC6" d="M242.226 168.73h16.277v-1.827h-16.277zM242.226 173.811h16.277v-1.826h-16.277zM242.226 178.893h16.277v-1.828h-16.277zM242.226 183.974h16.277v-1.827h-16.277zM221.9 189.055h36.603v-1.827H221.9zM221.9 194.136h18.301v-1.827H221.9z"/><path fill="#EFA72C" d="M268.046 186.081v34.484l-28.317-17.241 28.317-17.243"/><path fill="#EFA72C" d="M239.729 203.324l-28.319 17.241v-34.484l28.319 17.243"/><path fill="#F9C864" d="M268.046 220.565H211.41l28.319-17.241 28.317 17.241"/><path d="M67.342 157.088H25.961a3.8 3.8 0 0 0-3.799 3.798v55.949a3.8 3.8 0 0 0 3.799 3.802h41.381a3.802 3.802 0 0 0 3.799-3.802v-55.949a3.802 3.802 0 0 0-3.799-3.798" fill="#172E41"/><path d="M67.342 157.088H25.961a3.8 3.8 0 0 0-3.799 3.798v18.204h48.979v-18.204a3.802 3.802 0 0 0-3.799-3.798" fill="#0D0E0B"/><path d="M66.069 202.71a1.26 1.26 0 0 1-1.266 1.265H57.42a1.265 1.265 0 0 1-1.265-1.265v-4.86c0-.701.57-1.268 1.265-1.268h7.383c.703 0 1.266.567 1.266 1.268v4.86" fill="#172E41"/><path d="M37.148 213.251a1.27 1.27 0 0 1-1.268 1.269h-7.385c-.7 0-1.268-.567-1.268-1.269v-4.861c0-.7.568-1.271 1.268-1.271h7.385c.698 0 1.268.571 1.268 1.271v4.861M37.148 201.43c0 .704-.57 1.264-1.268 1.264h-7.385c-.7 0-1.268-.56-1.268-1.264v-4.861c0-.7.568-1.268 1.268-1.268h7.385a1.27 1.27 0 0 1 1.268 1.268v4.861M37.148 189.609a1.27 1.27 0 0 1-1.268 1.268h-7.385c-.7 0-1.268-.569-1.268-1.268v-4.859c0-.7.568-1.269 1.268-1.269h7.385a1.27 1.27 0 0 1 1.268 1.269v4.859M51.608 213.251c0 .702-.565 1.269-1.268 1.269h-7.384a1.27 1.27 0 0 1-1.268-1.269v-4.861c0-.7.571-1.271 1.268-1.271h7.384c.703 0 1.268.571 1.268 1.271v4.861M51.608 201.43a1.26 1.26 0 0 1-1.268 1.264h-7.384c-.697 0-1.268-.56-1.268-1.264v-4.861c0-.7.571-1.268 1.268-1.268h7.384c.703 0 1.268.568 1.268 1.268v4.861M51.608 189.609c0 .699-.565 1.268-1.268 1.268h-7.384a1.271 1.271 0 0 1-1.268-1.268v-4.859c0-.7.571-1.269 1.268-1.269h7.384c.703 0 1.268.569 1.268 1.269v4.859" fill="#FFF"/><path d="M66.069 213.251c0 .702-.563 1.269-1.266 1.269H57.42a1.269 1.269 0 0 1-1.265-1.269V199.68c0-.7.57-1.271 1.265-1.271h7.383c.703 0 1.266.571 1.266 1.271v13.571" fill="#E15B2E"/><path d="M66.069 201.43c0 .704-.563 1.264-1.266 1.264H57.42c-.695 0-1.265-.56-1.265-1.264v-4.861c0-.7.57-1.268 1.265-1.268h7.383c.703 0 1.266.568 1.266 1.268v4.861" fill="#E15B2E"/><path d="M66.069 189.609c0 .699-.563 1.268-1.266 1.268H57.42a1.27 1.27 0 0 1-1.265-1.268v-4.859c0-.7.57-1.269 1.265-1.269h7.383c.703 0 1.266.569 1.266 1.269v4.859" fill="#FFF"/><path d="M66.069 173.832a1.26 1.26 0 0 1-1.266 1.265H28.495c-.7 0-1.268-.561-1.268-1.265v-10.411c0-.699.568-1.264 1.268-1.264h36.308c.703 0 1.266.565 1.266 1.264v10.411" fill="#D1EAF3"/><path d="M199.379 135.599c0-20.765-16.834-37.599-37.6-37.599-20.765 0-37.599 16.834-37.599 37.599 0 20.765 16.834 37.599 37.599 37.599 20.766 0 37.6-16.834 37.6-37.599" fill="#1E2D42"/><path d="M196.169 135.494c0-19.051-15.444-34.494-34.495-34.494-19.051 0-34.494 15.443-34.494 34.494 0 19.051 15.443 34.494 34.494 34.494 19.051 0 34.495-15.443 34.495-34.494" fill="#FFF"/><path d="M195.761 135.404h.224c0-18.448-14.955-33.403-33.403-33.404-18.447.001-33.402 14.956-33.402 33.404 0 18.448 14.955 33.402 33.402 33.403 18.448-.001 33.403-14.955 33.403-33.403h-.447c0 9.101-3.688 17.338-9.653 23.303-5.964 5.964-14.202 9.652-23.303 9.652s-17.338-3.688-23.302-9.652c-5.965-5.965-9.653-14.202-9.653-23.303s3.688-17.339 9.653-23.303c5.964-5.965 14.201-9.653 23.302-9.653 9.101 0 17.339 3.688 23.303 9.653 5.965 5.964 9.653 14.202 9.653 23.303h.223" fill="#359FCD"/><text font-family="LucidaGrande, Lucida Grande" font-size="8.508" fill="#0A0A08"><tspan x="157.18" y="110">12</tspan></text><text font-family="LucidaGrande, Lucida Grande" font-size="5.672" fill="#0A0A08"><tspan x="175.18" y="111">1</tspan></text><text font-family="LucidaGrande, Lucida Grande" font-size="5.672" fill="#0A0A08"><tspan x="185.18" y="123">2</tspan></text><text font-family="LucidaGrande, Lucida Grande" font-size="8.508" fill="#0A0A08"><tspan x="188.18" y="136">3</tspan></text><text font-family="LucidaGrande, Lucida Grande" font-size="5.672" fill="#0A0A08"><tspan x="185.18" y="148">4</tspan></text><text font-family="LucidaGrande, Lucida Grande" font-size="5.672" fill="#0A0A08"><tspan x="175.18" y="159">5</tspan></text><text font-family="LucidaGrande, Lucida Grande" font-size="8.508" fill="#0A0A08"><tspan x="159.18" y="162">6</tspan></text><text font-family="LucidaGrande, Lucida Grande" font-size="5.672" fill="#0A0A08"><tspan x="147.18" y="159">7</tspan></text><text font-family="LucidaGrande, Lucida Grande" font-size="5.672" fill="#0A0A08"><tspan x="137.18" y="148">8</tspan></text><text font-family="LucidaGrande, Lucida Grande" font-size="8.508" fill="#0A0A08"><tspan x="132.18" y="136">9</tspan></text><text font-family="LucidaGrande, Lucida Grande" font-size="5.672" fill="#0A0A08"><tspan x="135.18" y="123">10</tspan></text><text font-family="LucidaGrande, Lucida Grande" font-size="5.672" fill="#0A0A08"><tspan x="146.18" y="111">11</tspan></text><path d="M162.336 135l-14.156.017" fill="#FFF"/><path d="M162.99 134l-14.156.017a.654.654 0 1 0 .002 1.31l14.156-.016a.655.655 0 1 0-.002-1.311" fill="#1B1A18"/><path d="M162.18 135.439V120" fill="#FFF"/><path d="M163.49 135.094v-15.439a.655.655 0 1 0-1.31 0v15.439a.656.656 0 1 0 1.31 0" fill="#1B1A18"/><path fill="#D8262C" d="M162.116 135l-6.936 8.136.25.213 6.936-8.136"/><path d="M164.248 135.534a1.535 1.535 0 1 0-3.07.002 1.535 1.535 0 0 0 3.07-.002" fill="#0B0C0A"/><path d="M117 11.81v66.022a4.813 4.813 0 0 0 4.816 4.81h86.918a4.81 4.81 0 0 0 4.809-4.81V11.81A4.812 4.812 0 0 0 208.734 7h-86.918A4.814 4.814 0 0 0 117 11.81" fill="#FFF"/><path d="M209.173 7H165v75.642h44.173a4.81 4.81 0 0 0 4.809-4.81V11.81A4.812 4.812 0 0 0 209.173 7" fill="#F4F4F2"/><path d="M210.866 43.936a1.938 1.938 0 0 1-1.935 1.935A1.931 1.931 0 0 1 207 43.936 1.93 1.93 0 0 1 208.931 42c1.068 0 1.935.867 1.935 1.936M124.18 44.091c0 .602-.489 1.091-1.092 1.091A1.088 1.088 0 0 1 122 44.091c0-.602.484-1.091 1.088-1.091.603 0 1.092.489 1.092 1.091M127 73.477h77.879V15H127z" fill="#293D4F"/><path fill="#E26E49" d="M159 66.97h9.725V35H159zM133 67.034h9.725V49H133zM146 66.818h9.727V40H146z"/><path fill="#CDCFCA" d="M198.939 21h-22.938L176 26.216h22.939V21M176 34.216h22.939V29H176zM176 42.217h22.939V37H176zM176 49.216h22.939V44H176zM176 57.217h22.939V52H176zM176 65.217h22.939V60H176z"/><path d="M3.146 7A3.154 3.154 0 0 0 0 10.143v123.714A3.153 3.153 0 0 0 3.146 137h85.708A3.153 3.153 0 0 0 92 133.857V10.143A3.154 3.154 0 0 0 88.854 7H3.146" fill="#D35A48"/><path fill="#FFF" d="M5 132h82V16H5z"/><path fill="#D0CEC6" d="M15 107h61v-2H15zM15 113h61v-2H15zM15 117h30v-2H15zM15 95h61v-2H15zM15 99h61v-2H15zM15 103h61v-2H15zM32 37h44v-2H32zM32 51h44v-2H32zM32 65h44v-2H32zM32 78h44v-2H32zM20.5 32.1a4.403 4.403 0 0 0-4.4 4.4c0 2.426 1.971 4.4 4.4 4.4 2.426 0 4.4-1.974 4.4-4.4a4.405 4.405 0 0 0-4.4-4.4zm0 9.9a5.505 5.505 0 0 1-5.5-5.5c0-3.033 2.466-5.5 5.5-5.5 3.031 0 5.5 2.467 5.5 5.5S23.531 42 20.5 42zM20.5 46.1a4.404 4.404 0 0 0-4.4 4.4c0 2.427 1.971 4.4 4.4 4.4 2.426 0 4.4-1.973 4.4-4.4 0-2.426-1.974-4.4-4.4-4.4zm0 9.9a5.505 5.505 0 0 1-5.5-5.5c0-3.033 2.466-5.5 5.5-5.5 3.031 0 5.5 2.467 5.5 5.5S23.531 56 20.5 56zM20.5 59.1a4.404 4.404 0 0 0-4.4 4.4 4.405 4.405 0 0 0 4.4 4.4c2.426 0 4.4-1.974 4.4-4.4s-1.974-4.4-4.4-4.4zm0 9.9a5.506 5.506 0 0 1-5.5-5.5c0-3.033 2.466-5.5 5.5-5.5 3.031 0 5.5 2.467 5.5 5.5 0 3.032-2.469 5.5-5.5 5.5zM20.5 73.1a4.404 4.404 0 0 0-4.4 4.4c0 2.426 1.971 4.4 4.4 4.4 2.426 0 4.4-1.974 4.4-4.4s-1.974-4.4-4.4-4.4zm0 9.9a5.506 5.506 0 0 1-5.5-5.5c0-3.033 2.466-5.5 5.5-5.5 3.031 0 5.5 2.467 5.5 5.5 0 3.032-2.469 5.5-5.5 5.5z"/><path fill="#E77F61" d="M18 48.567l.953-.907 2.649 2.523L27.044 45l.956.906L21.602 52 18 48.567"/><path d="M47 4.546c1.323 0 2.407 1.047 2.407 2.338 0 1.285-1.084 2.329-2.407 2.329-1.33 0-2.403-1.044-2.403-2.33 0-1.29 1.074-2.337 2.403-2.337zm7.062 2.338C54.062 3.086 50.902 0 47 0c-3.901 0-7.06 3.086-7.06 6.884H31V21h32V6.884h-8.938z" fill="#DEDCD4"/><path d="M47 4.565c1.323 0 2.407 1.051 2.407 2.347 0 1.291-1.084 2.339-2.407 2.339-1.33 0-2.403-1.048-2.403-2.339 0-1.296 1.074-2.347 2.403-2.347zm7.062 2.347C54.062 3.1 50.902 0 47 0c-3.901 0-7.06 3.1-7.06 6.912H31V14h32V6.912h-8.938z" fill="#D0CEC6"/><path fill="#FFF" d="M31 14h32v-1H31z"/><path fill="#D0CEC6" d="M31 17h32v-1H31z"/></g></svg>